<?xml version="1.0" encoding="utf-8"?>
<svg xmlns="http://www.w3.org/2000/svg" xmlns:xlink="http://www.w3.org/1999/xlink" width="480" height="384" viewBox="0 0 1920 1536">
<defs>
  <clipPath id="clip890">
    <rect x="0" y="0" width="1920" height="1536"/>
  </clipPath>
</defs>
<path clip-path="url(#clip890)" d="M0 1536 L1920 1536 L1920 0 L0 0  Z" fill="#ffffff" fill-rule="evenodd" fill-opacity="1"/>
<defs>
  <clipPath id="clip891">
    <rect x="384" y="0" width="1345" height="1345"/>
  </clipPath>
</defs>
<path clip-path="url(#clip890)" d="M174.067 1343.4 L1872.76 1343.4 L1872.76 47.2441 L174.067 47.2441  Z" fill="#ffffff" fill-rule="evenodd" fill-opacity="1"/>
<defs>
  <clipPath id="clip892">
    <rect x="174" y="47" width="1700" height="1297"/>
  </clipPath>
</defs>
<polyline clip-path="url(#clip892)" style="stroke:#000000; stroke-linecap:round; stroke-linejoin:round; stroke-width:2; stroke-opacity:0.1; fill:none" points="222.143,1343.4 222.143,47.2441 "/>
<polyline clip-path="url(#clip892)" style="stroke:#000000; stroke-linecap:round; stroke-linejoin:round; stroke-width:2; stroke-opacity:0.1; fill:none" points="542.65,1343.4 542.65,47.2441 "/>
<polyline clip-path="url(#clip892)" style="stroke:#000000; stroke-linecap:round; stroke-linejoin:round; stroke-width:2; stroke-opacity:0.1; fill:none" points="863.158,1343.4 863.158,47.2441 "/>
<polyline clip-path="url(#clip892)" style="stroke:#000000; stroke-linecap:round; stroke-linejoin:round; stroke-width:2; stroke-opacity:0.1; fill:none" points="1183.66,1343.4 1183.66,47.2441 "/>
<polyline clip-path="url(#clip892)" style="stroke:#000000; stroke-linecap:round; stroke-linejoin:round; stroke-width:2; stroke-opacity:0.1; fill:none" points="1504.17,1343.4 1504.17,47.2441 "/>
<polyline clip-path="url(#clip892)" style="stroke:#000000; stroke-linecap:round; stroke-linejoin:round; stroke-width:2; stroke-opacity:0.1; fill:none" points="1824.68,1343.4 1824.68,47.2441 "/>
<polyline clip-path="url(#clip892)" style="stroke:#000000; stroke-linecap:round; stroke-linejoin:round; stroke-width:2; stroke-opacity:0.1; fill:none" points="174.067,1306.72 1872.76,1306.72 "/>
<polyline clip-path="url(#clip892)" style="stroke:#000000; stroke-linecap:round; stroke-linejoin:round; stroke-width:2; stroke-opacity:0.1; fill:none" points="174.067,1001.02 1872.76,1001.02 "/>
<polyline clip-path="url(#clip892)" style="stroke:#000000; stroke-linecap:round; stroke-linejoin:round; stroke-width:2; stroke-opacity:0.1; fill:none" points="174.067,695.324 1872.76,695.324 "/>
<polyline clip-path="url(#clip892)" style="stroke:#000000; stroke-linecap:round; stroke-linejoin:round; stroke-width:2; stroke-opacity:0.1; fill:none" points="174.067,389.626 1872.76,389.626 "/>
<polyline clip-path="url(#clip892)" style="stroke:#000000; stroke-linecap:round; stroke-linejoin:round; stroke-width:2; stroke-opacity:0.1; fill:none" points="174.067,83.9279 1872.76,83.9279 "/>
<polyline clip-path="url(#clip890)" style="stroke:#000000; stroke-linecap:round; stroke-linejoin:round; stroke-width:4; stroke-opacity:1; fill:none" points="174.067,1343.4 1872.76,1343.4 "/>
<polyline clip-path="url(#clip890)" style="stroke:#000000; stroke-linecap:round; stroke-linejoin:round; stroke-width:4; stroke-opacity:1; fill:none" points="222.143,1343.4 222.143,1324.51 "/>
<polyline clip-path="url(#clip890)" style="stroke:#000000; stroke-linecap:round; stroke-linejoin:round; stroke-width:4; stroke-opacity:1; fill:none" points="542.65,1343.4 542.65,1324.51 "/>
<polyline clip-path="url(#clip890)" style="stroke:#000000; stroke-linecap:round; stroke-linejoin:round; stroke-width:4; stroke-opacity:1; fill:none" points="863.158,1343.4 863.158,1324.51 "/>
<polyline clip-path="url(#clip890)" style="stroke:#000000; stroke-linecap:round; stroke-linejoin:round; stroke-width:4; stroke-opacity:1; fill:none" points="1183.66,1343.4 1183.66,1324.51 "/>
<polyline clip-path="url(#clip890)" style="stroke:#000000; stroke-linecap:round; stroke-linejoin:round; stroke-width:4; stroke-opacity:1; fill:none" points="1504.17,1343.4 1504.17,1324.51 "/>
<polyline clip-path="url(#clip890)" style="stroke:#000000; stroke-linecap:round; stroke-linejoin:round; stroke-width:4; stroke-opacity:1; fill:none" points="1824.68,1343.4 1824.68,1324.51 "/>
<path clip-path="url(#clip890)" d="M222.143 1370.48 Q218.532 1370.48 216.703 1374.05 Q214.897 1377.59 214.897 1384.72 Q214.897 1391.83 216.703 1395.39 Q218.532 1398.93 222.143 1398.93 Q225.777 1398.93 227.583 1395.39 Q229.411 1391.83 229.411 1384.72 Q229.411 1377.59 227.583 1374.05 Q225.777 1370.48 222.143 1370.48 M222.143 1366.78 Q227.953 1366.78 231.008 1371.39 Q234.087 1375.97 234.087 1384.72 Q234.087 1393.45 231.008 1398.05 Q227.953 1402.64 222.143 1402.64 Q216.333 1402.64 213.254 1398.05 Q210.198 1393.45 210.198 1384.72 Q210.198 1375.97 213.254 1371.39 Q216.333 1366.78 222.143 1366.78 Z" fill="#000000" fill-rule="nonzero" fill-opacity="1" /><path clip-path="url(#clip890)" d="M533.032 1398.03 L540.671 1398.03 L540.671 1371.66 L532.361 1373.33 L532.361 1369.07 L540.625 1367.4 L545.301 1367.4 L545.301 1398.03 L552.939 1398.03 L552.939 1401.96 L533.032 1401.96 L533.032 1398.03 Z" fill="#000000" fill-rule="nonzero" fill-opacity="1" /><path clip-path="url(#clip890)" d="M857.81 1398.03 L874.13 1398.03 L874.13 1401.96 L852.185 1401.96 L852.185 1398.03 Q854.847 1395.27 859.431 1390.64 Q864.037 1385.99 865.218 1384.65 Q867.463 1382.13 868.343 1380.39 Q869.245 1378.63 869.245 1376.94 Q869.245 1374.19 867.301 1372.45 Q865.38 1370.71 862.278 1370.71 Q860.079 1370.71 857.625 1371.48 Q855.195 1372.24 852.417 1373.79 L852.417 1369.07 Q855.241 1367.94 857.695 1367.36 Q860.148 1366.78 862.185 1366.78 Q867.556 1366.78 870.75 1369.46 Q873.945 1372.15 873.945 1376.64 Q873.945 1378.77 873.134 1380.69 Q872.347 1382.59 870.241 1385.18 Q869.662 1385.85 866.56 1389.07 Q863.458 1392.26 857.81 1398.03 Z" fill="#000000" fill-rule="nonzero" fill-opacity="1" /><path clip-path="url(#clip890)" d="M1187.91 1383.33 Q1191.27 1384.05 1193.14 1386.32 Q1195.04 1388.58 1195.04 1391.92 Q1195.04 1397.03 1191.52 1399.83 Q1188.01 1402.64 1181.52 1402.64 Q1179.35 1402.64 1177.03 1402.2 Q1174.74 1401.78 1172.29 1400.92 L1172.29 1396.41 Q1174.23 1397.54 1176.55 1398.12 Q1178.86 1398.7 1181.38 1398.7 Q1185.78 1398.7 1188.07 1396.96 Q1190.39 1395.23 1190.39 1391.92 Q1190.39 1388.86 1188.24 1387.15 Q1186.11 1385.41 1182.29 1385.41 L1178.26 1385.41 L1178.26 1381.57 L1182.47 1381.57 Q1185.92 1381.57 1187.75 1380.2 Q1189.58 1378.82 1189.58 1376.22 Q1189.58 1373.56 1187.68 1372.15 Q1185.81 1370.71 1182.29 1370.71 Q1180.37 1370.71 1178.17 1371.13 Q1175.97 1371.55 1173.33 1372.43 L1173.33 1368.26 Q1175.99 1367.52 1178.31 1367.15 Q1180.64 1366.78 1182.7 1366.78 Q1188.03 1366.78 1191.13 1369.21 Q1194.23 1371.62 1194.23 1375.74 Q1194.23 1378.61 1192.59 1380.6 Q1190.95 1382.57 1187.91 1383.33 Z" fill="#000000" fill-rule="nonzero" fill-opacity="1" /><path clip-path="url(#clip890)" d="M1507.18 1371.48 L1495.38 1389.93 L1507.18 1389.93 L1507.18 1371.48 M1505.95 1367.4 L1511.83 1367.4 L1511.83 1389.93 L1516.76 1389.93 L1516.76 1393.82 L1511.83 1393.82 L1511.83 1401.96 L1507.18 1401.96 L1507.18 1393.82 L1491.58 1393.82 L1491.58 1389.3 L1505.95 1367.4 Z" fill="#000000" fill-rule="nonzero" fill-opacity="1" /><path clip-path="url(#clip890)" d="M1814.96 1367.4 L1833.31 1367.4 L1833.31 1371.34 L1819.24 1371.34 L1819.24 1379.81 Q1820.26 1379.46 1821.28 1379.3 Q1822.3 1379.12 1823.31 1379.12 Q1829.1 1379.12 1832.48 1382.29 Q1835.86 1385.46 1835.86 1390.88 Q1835.86 1396.45 1832.39 1399.56 Q1828.92 1402.64 1822.6 1402.64 Q1820.42 1402.64 1818.15 1402.26 Q1815.91 1401.89 1813.5 1401.15 L1813.5 1396.45 Q1815.58 1397.59 1817.8 1398.14 Q1820.03 1398.7 1822.5 1398.7 Q1826.51 1398.7 1828.85 1396.59 Q1831.18 1394.49 1831.18 1390.88 Q1831.18 1387.26 1828.85 1385.16 Q1826.51 1383.05 1822.5 1383.05 Q1820.63 1383.05 1818.75 1383.47 Q1816.9 1383.89 1814.96 1384.76 L1814.96 1367.4 Z" fill="#000000" fill-rule="nonzero" fill-opacity="1" /><path clip-path="url(#clip890)" d="M971.722 1435.3 L971.722 1445.42 L983.785 1445.42 L983.785 1449.97 L971.722 1449.97 L971.722 1469.32 Q971.722 1473.68 972.899 1474.92 Q974.109 1476.17 977.769 1476.17 L983.785 1476.17 L983.785 1481.07 L977.769 1481.07 Q970.99 1481.07 968.412 1478.55 Q965.833 1476.01 965.833 1469.32 L965.833 1449.97 L961.537 1449.97 L961.537 1445.42 L965.833 1445.42 L965.833 1435.3 L971.722 1435.3 Z" fill="#000000" fill-rule="nonzero" fill-opacity="1" /><path clip-path="url(#clip890)" d="M1011.67 1431.54 L1025.16 1431.54 L1025.16 1436.09 L1017.52 1436.09 L1017.52 1485.11 L1025.16 1485.11 L1025.16 1489.66 L1011.67 1489.66 L1011.67 1431.54 Z" fill="#000000" fill-rule="nonzero" fill-opacity="1" /><path clip-path="url(#clip890)" d="M1060.36 1446.47 L1060.36 1452.01 Q1057.88 1450.74 1055.21 1450.1 Q1052.53 1449.46 1049.67 1449.46 Q1045.31 1449.46 1043.11 1450.8 Q1040.95 1452.14 1040.95 1454.81 Q1040.95 1456.85 1042.51 1458.02 Q1044.07 1459.17 1048.78 1460.22 L1050.78 1460.67 Q1057.02 1462 1059.63 1464.45 Q1062.27 1466.87 1062.27 1471.23 Q1062.27 1476.2 1058.33 1479.09 Q1054.41 1481.99 1047.54 1481.99 Q1044.67 1481.99 1041.55 1481.42 Q1038.47 1480.88 1035.03 1479.76 L1035.03 1473.72 Q1038.28 1475.4 1041.43 1476.26 Q1044.58 1477.09 1047.66 1477.09 Q1051.8 1477.09 1054.03 1475.69 Q1056.26 1474.26 1056.26 1471.68 Q1056.26 1469.29 1054.64 1468.02 Q1053.04 1466.75 1047.6 1465.57 L1045.56 1465.09 Q1040.12 1463.94 1037.7 1461.59 Q1035.28 1459.2 1035.28 1455.06 Q1035.28 1450.04 1038.85 1447.3 Q1042.41 1444.56 1048.97 1444.56 Q1052.22 1444.56 1055.08 1445.04 Q1057.95 1445.52 1060.36 1446.47 Z" fill="#000000" fill-rule="nonzero" fill-opacity="1" /><path clip-path="url(#clip890)" d="M1085.29 1431.54 L1085.29 1489.66 L1071.79 1489.66 L1071.79 1485.11 L1079.4 1485.11 L1079.4 1436.09 L1071.79 1436.09 L1071.79 1431.54 L1085.29 1431.54 Z" fill="#000000" fill-rule="nonzero" fill-opacity="1" /><polyline clip-path="url(#clip890)" style="stroke:#000000; stroke-linecap:round; stroke-linejoin:round; stroke-width:4; stroke-opacity:1; fill:none" points="174.067,1343.4 174.067,47.2441 "/>
<polyline clip-path="url(#clip890)" style="stroke:#000000; stroke-linecap:round; stroke-linejoin:round; stroke-width:4; stroke-opacity:1; fill:none" points="174.067,1306.72 192.964,1306.72 "/>
<polyline clip-path="url(#clip890)" style="stroke:#000000; stroke-linecap:round; stroke-linejoin:round; stroke-width:4; stroke-opacity:1; fill:none" points="174.067,1001.02 192.964,1001.02 "/>
<polyline clip-path="url(#clip890)" style="stroke:#000000; stroke-linecap:round; stroke-linejoin:round; stroke-width:4; stroke-opacity:1; fill:none" points="174.067,695.324 192.964,695.324 "/>
<polyline clip-path="url(#clip890)" style="stroke:#000000; stroke-linecap:round; stroke-linejoin:round; stroke-width:4; stroke-opacity:1; fill:none" points="174.067,389.626 192.964,389.626 "/>
<polyline clip-path="url(#clip890)" style="stroke:#000000; stroke-linecap:round; stroke-linejoin:round; stroke-width:4; stroke-opacity:1; fill:none" points="174.067,83.9279 192.964,83.9279 "/>
<path clip-path="url(#clip890)" d="M53.3921 1307.17 L83.0679 1307.17 L83.0679 1311.11 L53.3921 1311.11 L53.3921 1307.17 Z" fill="#000000" fill-rule="nonzero" fill-opacity="1" /><path clip-path="url(#clip890)" d="M97.1882 1320.06 L113.508 1320.06 L113.508 1324 L91.5632 1324 L91.5632 1320.06 Q94.2252 1317.31 98.8085 1312.68 Q103.415 1308.03 104.596 1306.69 Q106.841 1304.16 107.721 1302.43 Q108.623 1300.67 108.623 1298.98 Q108.623 1296.22 106.679 1294.49 Q104.758 1292.75 101.656 1292.75 Q99.4567 1292.75 97.003 1293.51 Q94.5725 1294.28 91.7947 1295.83 L91.7947 1291.11 Q94.6188 1289.97 97.0724 1289.39 Q99.5261 1288.82 101.563 1288.82 Q106.934 1288.82 110.128 1291.5 Q113.322 1294.19 113.322 1298.68 Q113.322 1300.81 112.512 1302.73 Q111.725 1304.63 109.619 1307.22 Q109.04 1307.89 105.938 1311.11 Q102.836 1314.3 97.1882 1320.06 Z" fill="#000000" fill-rule="nonzero" fill-opacity="1" /><path clip-path="url(#clip890)" d="M133.322 1292.52 Q129.711 1292.52 127.882 1296.08 Q126.077 1299.63 126.077 1306.75 Q126.077 1313.86 127.882 1317.43 Q129.711 1320.97 133.322 1320.97 Q136.956 1320.97 138.762 1317.43 Q140.591 1313.86 140.591 1306.75 Q140.591 1299.63 138.762 1296.08 Q136.956 1292.52 133.322 1292.52 M133.322 1288.82 Q139.132 1288.82 142.188 1293.42 Q145.267 1298 145.267 1306.75 Q145.267 1315.48 142.188 1320.09 Q139.132 1324.67 133.322 1324.67 Q127.512 1324.67 124.433 1320.09 Q121.378 1315.48 121.378 1306.75 Q121.378 1298 124.433 1293.42 Q127.512 1288.82 133.322 1288.82 Z" fill="#000000" fill-rule="nonzero" fill-opacity="1" /><path clip-path="url(#clip890)" d="M53.3921 1001.47 L83.0679 1001.47 L83.0679 1005.41 L53.3921 1005.41 L53.3921 1001.47 Z" fill="#000000" fill-rule="nonzero" fill-opacity="1" /><path clip-path="url(#clip890)" d="M93.9706 1014.37 L101.609 1014.37 L101.609 988.001 L93.2993 989.668 L93.2993 985.409 L101.563 983.742 L106.239 983.742 L106.239 1014.37 L113.878 1014.37 L113.878 1018.3 L93.9706 1018.3 L93.9706 1014.37 Z" fill="#000000" fill-rule="nonzero" fill-opacity="1" /><path clip-path="url(#clip890)" d="M133.322 986.821 Q129.711 986.821 127.882 990.386 Q126.077 993.927 126.077 1001.06 Q126.077 1008.16 127.882 1011.73 Q129.711 1015.27 133.322 1015.27 Q136.956 1015.27 138.762 1011.73 Q140.591 1008.16 140.591 1001.06 Q140.591 993.927 138.762 990.386 Q136.956 986.821 133.322 986.821 M133.322 983.117 Q139.132 983.117 142.188 987.723 Q145.267 992.307 145.267 1001.06 Q145.267 1009.78 142.188 1014.39 Q139.132 1018.97 133.322 1018.97 Q127.512 1018.97 124.433 1014.39 Q121.378 1009.78 121.378 1001.06 Q121.378 992.307 124.433 987.723 Q127.512 983.117 133.322 983.117 Z" fill="#000000" fill-rule="nonzero" fill-opacity="1" /><path clip-path="url(#clip890)" d="M133.322 681.123 Q129.711 681.123 127.882 684.687 Q126.077 688.229 126.077 695.359 Q126.077 702.465 127.882 706.03 Q129.711 709.572 133.322 709.572 Q136.956 709.572 138.762 706.03 Q140.591 702.465 140.591 695.359 Q140.591 688.229 138.762 684.687 Q136.956 681.123 133.322 681.123 M133.322 677.419 Q139.132 677.419 142.188 682.025 Q145.267 686.609 145.267 695.359 Q145.267 704.085 142.188 708.692 Q139.132 713.275 133.322 713.275 Q127.512 713.275 124.433 708.692 Q121.378 704.085 121.378 695.359 Q121.378 686.609 124.433 682.025 Q127.512 677.419 133.322 677.419 Z" fill="#000000" fill-rule="nonzero" fill-opacity="1" /><path clip-path="url(#clip890)" d="M93.9706 402.971 L101.609 402.971 L101.609 376.605 L93.2993 378.272 L93.2993 374.013 L101.563 372.346 L106.239 372.346 L106.239 402.971 L113.878 402.971 L113.878 406.906 L93.9706 406.906 L93.9706 402.971 Z" fill="#000000" fill-rule="nonzero" fill-opacity="1" /><path clip-path="url(#clip890)" d="M133.322 375.425 Q129.711 375.425 127.882 378.989 Q126.077 382.531 126.077 389.661 Q126.077 396.767 127.882 400.332 Q129.711 403.874 133.322 403.874 Q136.956 403.874 138.762 400.332 Q140.591 396.767 140.591 389.661 Q140.591 382.531 138.762 378.989 Q136.956 375.425 133.322 375.425 M133.322 371.721 Q139.132 371.721 142.188 376.327 Q145.267 380.911 145.267 389.661 Q145.267 398.387 142.188 402.994 Q139.132 407.577 133.322 407.577 Q127.512 407.577 124.433 402.994 Q121.378 398.387 121.378 389.661 Q121.378 380.911 124.433 376.327 Q127.512 371.721 133.322 371.721 Z" fill="#000000" fill-rule="nonzero" fill-opacity="1" /><path clip-path="url(#clip890)" d="M97.1882 97.2727 L113.508 97.2727 L113.508 101.208 L91.5632 101.208 L91.5632 97.2727 Q94.2252 94.5181 98.8085 89.8885 Q103.415 85.2357 104.596 83.8931 Q106.841 81.37 107.721 79.6339 Q108.623 77.8747 108.623 76.1848 Q108.623 73.4302 106.679 71.6941 Q104.758 69.958 101.656 69.958 Q99.4567 69.958 97.003 70.7219 Q94.5725 71.4858 91.7947 73.0367 L91.7947 68.3145 Q94.6188 67.1803 97.0724 66.6016 Q99.5261 66.0229 101.563 66.0229 Q106.934 66.0229 110.128 68.708 Q113.322 71.3932 113.322 75.8839 Q113.322 78.0135 112.512 79.9348 Q111.725 81.833 109.619 84.4255 Q109.04 85.0968 105.938 88.3144 Q102.836 91.5088 97.1882 97.2727 Z" fill="#000000" fill-rule="nonzero" fill-opacity="1" /><path clip-path="url(#clip890)" d="M133.322 69.7265 Q129.711 69.7265 127.882 73.2913 Q126.077 76.833 126.077 83.9626 Q126.077 91.069 127.882 94.6338 Q129.711 98.1755 133.322 98.1755 Q136.956 98.1755 138.762 94.6338 Q140.591 91.069 140.591 83.9626 Q140.591 76.833 138.762 73.2913 Q136.956 69.7265 133.322 69.7265 M133.322 66.0229 Q139.132 66.0229 142.188 70.6293 Q145.267 75.2126 145.267 83.9626 Q145.267 92.6894 142.188 97.2958 Q139.132 101.879 133.322 101.879 Q127.512 101.879 124.433 97.2958 Q121.378 92.6894 121.378 83.9626 Q121.378 75.2126 124.433 70.6293 Q127.512 66.0229 133.322 66.0229 Z" fill="#000000" fill-rule="nonzero" fill-opacity="1" /><polyline clip-path="url(#clip892)" style="stroke:#009af9; stroke-linecap:round; stroke-linejoin:round; stroke-width:4; stroke-opacity:1; fill:none" points="222.143,695.324 222.175,695.324 222.495,695.324 225.7,695.324 228.553,695.324 234.963,695.324 241.373,695.324 247.783,695.324 254.193,695.324 260.604,695.324 267.014,695.324 273.424,695.324 279.834,695.324 286.244,695.324 292.654,695.324 299.065,695.324 305.475,695.324 311.885,695.324 318.295,695.324 324.705,695.324 331.115,695.324 337.525,695.324 343.936,695.324 350.346,695.324 356.756,695.324 363.166,695.324 369.576,695.324 375.986,695.324 382.396,695.324 388.807,695.324 395.217,695.324 401.627,695.324 408.037,695.324 414.447,695.324 420.857,695.324 427.267,695.324 433.678,695.324 440.088,695.324 446.498,695.324 452.908,695.324 459.318,695.324 465.728,695.324 472.139,695.324 478.549,695.324 484.959,695.324 491.369,695.324 497.779,695.324 504.189,695.324 510.599,695.324 517.01,695.324 523.42,695.324 529.83,695.324 536.24,695.324 542.65,695.324 542.65,695.324 542.65,695.324 542.65,695.324 542.65,695.324 542.65,695.324 542.65,695.324 542.65,695.324 542.65,695.324 542.65,695.324 542.651,695.324 542.658,695.324 542.729,695.324 543.148,695.324 543.899,695.324 544.853,695.323 546.072,695.322 547.541,695.317 549.06,695.309 550.978,695.293 553.091,695.264 555.47,695.217 558.117,695.143 561.026,695.033 561.881,694.995 564.196,694.876 566.192,694.755 568.291,694.609 570.947,694.395 573.884,694.121 574.701,694.037 577.138,693.769 579.469,693.485 581.111,693.269 583.901,692.87 586.744,692.424 587.521,692.295 590.022,691.859 592.683,691.36 593.931,691.114 596.8,690.518 599.741,689.863 600.341,689.724 602.815,689.132 605.802,688.375 606.752,688.126 609.673,687.329 612.996,686.371 613.162,686.322 614.824,685.82 617.806,684.887 619.572,684.314 623.245,683.073 625.982,682.106 630.639,680.379 632.392,679.702 637.044,677.835 638.802,677.103 643.57,675.047 645.213,674.315 650.053,672.085 651.623,671.34 656.549,668.929 658.033,668.182 663.035,665.592 664.443,664.844 668.686,662.547 670.614,661.491 670.853,661.36 672.006,660.728 673.221,660.062 674.724,659.24 676.321,658.37 677.263,657.859 678.903,656.974 680.518,656.111 682.552,655.035 683.673,654.449 685.71,653.397 687.644,652.414 690.084,651.2 692.697,649.934 695.671,648.537 696.494,648.16 698.84,647.105 700.915,646.198 702.904,645.355 705.596,644.251 708.515,643.107 709.314,642.803 711.757,641.899 714.152,641.051 715.724,640.514 718.538,639.594 721.363,638.722 722.134,638.493 724.644,637.775 727.362,637.043 728.544,636.74 731.413,636.043 734.405,635.373 734.955,635.256 737.396,634.76 740.413,634.201 741.365,634.036 744.313,633.564 747.679,633.092 747.775,633.079 748.734,632.959 751.284,632.665 754.185,632.381 758.146,632.076 760.595,631.936 765.228,631.771 767.005,631.742 771.588,631.753 773.415,631.792 778.178,631.982 779.826,632.075 783.234,632.302 785.459,632.469 786.236,632.529 787.975,632.667 789.399,632.781 791.183,632.924 792.646,633.04 794.657,633.194 796.733,633.346 799.056,633.505 801.623,633.662 804.43,633.81 805.466,633.857 807.834,633.95 809.857,634.011 811.876,634.054 814.456,634.083 817.241,634.083 818.287,634.074 820.761,634.039 822.434,634.004 824.697,633.946 826.93,633.881 829.212,633.81 831.107,633.752 833.355,633.686 835.747,633.625 837.517,633.587 840.008,633.547 842.485,633.525 843.927,633.522 846.384,633.533 848.847,633.564 850.337,633.593 852.926,633.657 854.882,633.715 856.747,633.777 858.973,633.855 861.056,633.93 863.158,634.004 865.559,634.083 868.097,634.155 869.568,634.191 871.994,634.236 874.453,634.265 875.978,634.273 878.549,634.271 880.813,634.253 882.388,634.233 884.828,634.191 886.85,634.148 888.798,634.103 891.029,634.048 893.117,633.998 895.208,633.95 897.639,633.901 900.215,633.862 901.618,633.846 904.049,633.831 906.86,633.832 908.029,633.839 910.727,633.867 912.56,633.895 914.439,633.93 916.718,633.981 918.861,634.032 920.849,634.082 923.033,634.137 925.227,634.188 927.259,634.231 929.742,634.275 932.397,634.309 933.669,634.319 936.111,634.329 938.672,634.324 940.079,634.316 942.773,634.288 944.663,634.261 946.489,634.231 948.717,634.189 950.817,634.148 952.9,634.107 955.145,634.065 957.591,634.025 959.31,634.002 961.806,633.976 964.421,633.962 965.72,633.96 968.227,633.965 970.424,633.98 972.13,633.998 974.636,634.031 976.739,634.065 978.54,634.096 980.785,634.138 982.846,634.176 984.95,634.213 987.377,634.251 989.952,634.284 991.361,634.299 993.801,634.315 996.474,634.322 997.771,634.32 1000.44,634.309 1002.39,634.293 1004.18,634.274 1006.52,634.244 1008.65,634.214 1010.59,634.184 1012.82,634.15 1014.95,634.119 1017,634.091 1019.46,634.064 1022.11,634.043 1023.41,634.036 1025.87,634.03 1028.74,634.034 1029.82,634.039 1032.56,634.059 1034.37,634.077 1036.23,634.098 1038.46,634.127 1040.6,634.156 1042.64,634.185 1044.87,634.214 1047.28,634.243 1049.05,634.262 1051.56,634.282 1054.19,634.295 1055.46,634.298 1057.96,634.297 1060.22,634.29 1061.87,634.281 1064.43,634.261 1066.52,634.24 1068.28,634.221 1070.55,634.194 1072.63,634.17 1074.69,634.146 1077.12,634.121 1079.66,634.099 1081.1,634.089 1083.55,634.077 1086.16,634.072 1087.51,634.073 1090.15,634.08 1092.23,634.091 1093.92,634.102 1096.32,634.123 1098.42,634.143 1100.33,634.163 1102.6,634.187 1104.72,634.208 1106.74,634.227 1109.2,634.247 1111.81,634.263 1113.15,634.268 1115.62,634.274 1119.56,634.271 1123.84,634.25 1125.97,634.235 1129.32,634.207 1131.88,634.184 1132.38,634.18 1134,634.165 1135.34,634.154 1137.26,634.139 1138.79,634.128 1140.98,634.115 1143.34,634.106 1145.2,634.102 1147.87,634.102 1150.7,634.108 1151.61,634.111 1154.03,634.123 1155.76,634.134 1158.02,634.15 1160.33,634.168 1162.68,634.187 1164.43,634.201 1166.86,634.218 1169.23,634.233 1170.84,634.241 1173.31,634.25 1175.99,634.254 1177.25,634.254 1179.85,634.251 1181.95,634.245 1183.66,634.238 1186.12,634.224 1188.26,634.211 1190.08,634.199 1192.38,634.183 1194.52,634.168 1196.49,634.156 1198.94,634.142 1201.51,634.131 1202.9,634.127 1205.37,634.122 1208.5,634.122 1209.31,634.124 1211.99,634.13 1213.89,634.137 1215.72,634.146 1218.05,634.158 1220.24,634.171 1222.13,634.182 1224.42,634.196 1226.72,634.209 1228.54,634.218 1231.03,634.228 1233.64,634.235 1234.95,634.237 1237.45,634.238 1240,634.236 1241.36,634.233 1244.02,634.225 1245.95,634.217 1247.77,634.208 1250.06,634.197 1252.25,634.185 1254.18,634.175 1256.58,634.163 1259.04,634.153 1260.59,634.147 1263.07,634.141 1265.67,634.137 1267,634.137 1269.59,634.138 1271.82,634.142 1273.41,634.147 1275.92,634.155 1278.02,634.164 1279.82,634.172 1282.15,634.182 1284.34,634.192 1286.23,634.2 1288.69,634.21 1291.22,634.218 1292.64,634.221 1295.13,634.225 1298.01,634.225 1299.05,634.225 1301.74,634.221 1303.71,634.216 1305.46,634.211 1307.84,634.203 1310.03,634.195 1311.87,634.187 1314.22,634.178 1316.51,634.169 1318.28,634.163 1320.77,634.156 1323.34,634.151 1324.69,634.15 1327.21,634.148 1330,634.15 1331.1,634.151 1333.8,634.156 1335.71,634.161 1337.51,634.166 1339.84,634.174 1342.06,634.182 1343.92,634.188 1346.32,634.196 1348.76,634.204 1350.33,634.207 1352.83,634.212 1355.42,634.215 1356.74,634.216 1359.33,634.215 1361.65,634.213 1363.15,634.21 1365.72,634.205 1367.8,634.199 1369.56,634.194 1371.92,634.187 1374.15,634.18 1375.97,634.175 1378.44,634.168 1380.95,634.163 1382.38,634.161 1384.88,634.158 1387.65,634.157 1388.79,634.157 1391.47,634.159 1393.52,634.162 1395.2,634.165 1397.65,634.171 1399.85,634.176 1401.61,634.181 1404,634.187 1406.28,634.193 1408.02,634.197 1410.52,634.202 1413.07,634.206 1414.43,634.207 1416.97,634.208 1420.14,634.207 1420.84,634.207 1423.49,634.204 1425.46,634.201 1427.25,634.197 1429.66,634.192 1431.93,634.187 1433.66,634.183 1436.07,634.177 1438.46,634.173 1440.07,634.17 1442.59,634.166 1445.21,634.164 1446.48,634.164 1449.06,634.164 1451.46,634.165 1452.89,634.166 1455.53,634.17 1457.59,634.174 1459.3,634.177 1461.69,634.182 1463.95,634.186 1465.71,634.19 1468.21,634.194 1470.71,634.198 1472.12,634.2 1474.64,634.202 1477.34,634.203 1478.53,634.203 1481.21,634.201 1483.35,634.2 1484.94,634.198 1487.45,634.194 1489.64,634.191 1491.35,634.188 1493.79,634.183 1496.08,634.179 1497.76,634.177 1500.27,634.173 1502.81,634.171 1504.17,634.17 1506.72,634.169 1510.58,634.169 1515.07,634.173 1516.99,634.175 1520.53,634.18 1523.2,634.184 1523.4,634.185 1524.8,634.187 1526.36,634.189 1528.35,634.192 1529.81,634.193 1532.12,634.196 1534.57,634.197 1536.22,634.198 1538.95,634.198 1541.84,634.197 1542.63,634.197 1545.11,634.195 1547.08,634.192 1549.04,634.19 1551.55,634.187 1554.02,634.183 1555.45,634.182 1557.94,634.178 1560.25,634.176 1561.86,634.175 1564.43,634.173 1567.26,634.172 1568.27,634.172 1570.89,634.173 1573.13,634.174 1574.68,634.175 1577.29,634.177 1579.52,634.18 1581.09,634.182 1583.55,634.184 1585.83,634.187 1587.5,634.189 1590.05,634.191 1592.61,634.193 1593.91,634.194 1596.48,634.195 1599.61,634.195 1600.32,634.195 1603.02,634.194 1605.19,634.192 1606.73,634.191 1609.26,634.189 1611.5,634.186 1613.14,634.185 1615.64,634.182 1618.04,634.18 1619.56,634.179 1622.11,634.177 1624.69,634.176 1625.97,634.175 1628.58,634.175 1631.33,634.176 1632.38,634.176 1635.11,634.177 1637.24,634.179 1638.79,634.18 1641.26,634.182 1643.54,634.184 1645.2,634.186 1647.74,634.188 1650.25,634.19 1651.61,634.191 1654.17,634.192 1656.79,634.192 1658.02,634.192 1660.71,634.192 1663.11,634.191 1664.43,634.191 1667.06,634.189 1669.17,634.188 1670.84,634.187 1673.35,634.185 1675.74,634.183 1677.25,634.182 1679.81,634.18 1682.3,634.179 1683.66,634.178 1686.26,634.177 1689.26,634.177 1690.07,634.177 1692.76,634.178 1695.05,634.179 1696.48,634.18 1699.06,634.181 1701.29,634.183 1702.89,634.184 1705.42,634.185 1707.84,634.187 1709.3,634.188 1711.88,634.189 1714.44,634.19 1715.71,634.19 1718.34,634.19 1721.35,634.19 1722.12,634.19 1724.83,634.189 1727.08,634.188 1728.53,634.187 1731.08,634.186 1733.35,634.185 1734.94,634.184 1737.51,634.182 1740.01,634.181 1741.35,634.18 1743.94,634.18 1746.56,634.179 1747.76,634.179 1750.46,634.179 1753.03,634.18 1754.17,634.18 1756.84,634.181 1759.06,634.182 1760.58,634.183 1763.14,634.184 1765.5,634.185 1766.99,634.186 1769.58,634.187 1772.1,634.188 1773.4,634.188 1776.02,634.189 1778.89,634.189 1779.81,634.189 1782.54,634.189 1784.99,634.188 1786.22,634.188 1788.83,634.187 1791.03,634.186 1792.63,634.185 1795.21,634.184 1797.69,634.183 1799.04,634.182 1801.64,634.181 1804.15,634.181 1805.45,634.181 1808.12,634.18 1811.72,634.18 1811.86,634.18 1813.24,634.181 1815.19,634.181 1817.5,634.182 1818.27,634.182 1820.47,634.183 1822.58,634.184 1824.68,634.185 1824.68,634.185 "/>
<polyline clip-path="url(#clip892)" style="stroke:#e26f46; stroke-linecap:round; stroke-linejoin:round; stroke-width:4; stroke-opacity:1; fill:none" points="222.143,695.324 222.175,695.324 222.495,695.324 225.7,695.324 228.553,695.324 234.963,695.324 241.373,695.324 247.783,695.324 254.193,695.324 260.604,695.324 267.014,695.324 273.424,695.324 279.834,695.324 286.244,695.324 292.654,695.324 299.065,695.324 305.475,695.324 311.885,695.324 318.295,695.324 324.705,695.324 331.115,695.324 337.525,695.324 343.936,695.324 350.346,695.324 356.756,695.324 363.166,695.324 369.576,695.324 375.986,695.324 382.396,695.324 388.807,695.324 395.217,695.324 401.627,695.324 408.037,695.324 414.447,695.324 420.857,695.324 427.267,695.324 433.678,695.324 440.088,695.324 446.498,695.324 452.908,695.324 459.318,695.324 465.728,695.324 472.139,695.324 478.549,695.324 484.959,695.324 491.369,695.324 497.779,695.324 504.189,695.324 510.599,695.324 517.01,695.324 523.42,695.324 529.83,695.324 536.24,695.324 542.65,695.324 542.65,695.324 542.65,695.324 542.65,695.324 542.65,695.324 542.65,695.324 542.65,695.324 542.65,695.324 542.65,695.324 542.65,695.324 542.651,695.324 542.658,695.324 542.729,695.324 543.148,695.309 543.899,695.234 544.853,695.049 546.072,694.677 547.541,694.042 549.06,693.189 550.978,691.858 553.091,690.102 555.47,687.809 558.117,684.925 561.026,681.419 561.881,680.332 564.196,677.274 566.192,674.52 568.291,671.526 570.947,667.615 573.884,663.162 574.701,661.904 577.138,658.107 579.469,654.426 581.111,651.808 583.901,647.327 586.744,642.729 587.521,641.468 590.022,637.403 592.683,633.069 593.931,631.034 596.8,626.364 599.741,621.583 600.341,620.608 602.815,616.6 605.802,611.781 606.752,610.253 609.673,605.57 612.996,600.277 613.162,600.014 614.824,597.381 617.806,592.683 619.572,589.917 623.245,584.202 625.982,579.98 630.639,572.867 632.392,570.212 637.044,563.234 638.802,560.62 643.57,553.601 645.213,551.206 650.053,544.215 651.623,541.969 656.549,534.992 658.033,532.911 663.035,525.963 664.443,524.028 668.686,520.201 670.614,519.617 670.853,519.588 672.006,519.575 673.221,519.775 674.724,520.3 676.321,521.164 677.263,521.809 678.903,523.151 680.518,524.718 682.552,527.002 683.673,528.393 685.71,531.133 687.644,533.961 690.084,537.8 692.697,542.195 695.671,547.49 696.494,549 698.84,553.403 700.915,557.401 702.904,561.305 705.596,566.688 708.515,572.619 709.314,574.257 711.757,579.295 714.152,584.27 715.724,587.548 718.538,593.436 721.363,599.358 722.134,600.976 724.644,606.24 727.362,611.933 728.544,614.406 731.413,620.392 734.405,626.61 734.955,627.75 737.396,632.795 740.413,638.999 741.365,640.949 744.313,646.961 747.679,653.775 747.775,653.968 748.734,655.9 751.284,661.011 754.185,666.784 758.146,674.594 760.595,679.382 765.228,688.346 767.005,691.754 771.588,700.46 773.415,703.898 778.178,712.066 779.826,714.577 783.234,718.529 785.459,720.063 786.236,720.429 787.975,720.936 789.399,721.045 791.183,720.831 792.646,720.393 794.657,719.448 796.733,718.104 799.056,716.215 801.623,713.722 804.43,710.59 805.466,709.341 807.834,706.327 809.857,703.594 811.876,700.743 814.456,697.139 817.241,693.47 818.287,692.144 820.761,689.415 822.434,687.962 824.697,686.435 826.93,685.532 829.212,685.316 831.107,685.607 833.355,686.435 835.747,687.813 837.517,689.118 840.008,691.303 842.485,693.816 843.927,695.412 846.384,698.117 848.847,700.66 850.337,702.125 852.926,704.275 854.882,705.477 856.747,706.328 858.973,706.859 861.056,706.82 863.158,706.322 865.559,705.243 868.097,703.574 869.568,702.391 871.994,700.226 874.453,697.859 875.978,696.318 878.549,693.829 880.813,691.868 882.388,690.616 884.828,689.043 886.85,688.155 888.798,687.61 891.029,687.423 893.117,687.705 895.208,688.371 897.639,689.564 900.215,691.251 901.618,692.327 904.049,694.301 906.86,696.627 908.029,697.606 910.727,699.661 912.56,700.838 914.439,701.884 916.718,702.815 918.861,703.277 920.849,703.396 923.033,703.161 925.227,702.529 927.259,701.638 929.742,700.239 932.397,698.456 933.669,697.511 936.111,695.684 938.672,693.844 940.079,692.862 942.773,691.235 944.663,690.345 946.489,689.657 948.717,689.127 950.817,688.986 952.9,689.144 955.145,689.638 957.591,690.541 959.31,691.373 961.806,692.77 964.421,694.388 965.72,695.242 968.227,696.835 970.424,698.106 972.13,699.021 974.636,700.12 976.739,700.756 978.54,701.12 980.785,701.291 982.846,701.147 984.95,700.742 987.377,699.987 989.952,698.89 991.361,698.178 993.801,696.858 996.474,695.361 997.771,694.62 1000.44,693.213 1002.39,692.327 1004.18,691.613 1006.52,690.904 1008.65,690.529 1010.59,690.383 1012.82,690.466 1014.95,690.804 1017,691.34 1019.46,692.199 1022.11,693.328 1023.41,693.956 1025.87,695.158 1028.74,696.528 1029.82,697.033 1032.56,698.158 1034.37,698.752 1036.23,699.251 1038.46,699.648 1040.6,699.784 1042.64,699.723 1044.87,699.442 1047.28,698.891 1049.05,698.345 1051.56,697.433 1054.19,696.358 1055.46,695.799 1057.96,694.73 1060.22,693.832 1061.87,693.217 1064.43,692.424 1066.52,691.962 1068.28,691.683 1070.55,691.514 1072.63,691.563 1074.69,691.781 1077.12,692.232 1079.66,692.91 1081.1,693.375 1083.55,694.234 1086.16,695.196 1087.51,695.711 1090.15,696.651 1092.23,697.295 1093.92,697.764 1096.32,698.28 1098.42,698.558 1100.33,698.687 1102.6,698.67 1104.72,698.477 1106.74,698.155 1109.2,697.616 1111.81,696.894 1113.15,696.472 1115.62,695.672 1119.56,694.409 1123.84,693.274 1125.97,692.853 1129.32,692.467 1131.88,692.417 1132.38,692.429 1134,692.521 1135.34,692.662 1137.26,692.95 1138.79,693.249 1140.98,693.752 1143.34,694.366 1145.2,694.899 1147.87,695.658 1150.7,696.409 1151.61,696.639 1154.03,697.164 1155.76,697.453 1158.02,697.733 1160.33,697.878 1162.68,697.862 1164.43,697.756 1166.86,697.486 1169.23,697.091 1170.84,696.76 1173.31,696.197 1175.99,695.543 1177.25,695.22 1179.85,694.593 1181.95,694.145 1183.66,693.812 1186.12,693.436 1188.26,693.225 1190.08,693.121 1192.38,693.104 1194.52,693.21 1196.49,693.396 1198.94,693.731 1201.51,694.186 1202.9,694.467 1205.37,694.995 1208.5,695.665 1209.31,695.839 1211.99,696.36 1213.89,696.667 1215.72,696.919 1218.05,697.149 1220.24,697.254 1222.13,697.269 1224.42,697.189 1226.72,697 1228.54,696.784 1231.03,696.415 1233.64,695.963 1234.95,695.714 1237.45,695.238 1240,694.778 1241.36,694.542 1244.02,694.144 1245.95,693.925 1247.77,693.765 1250.06,693.646 1252.25,693.631 1254.18,693.687 1256.58,693.844 1259.04,694.099 1260.59,694.302 1263.07,694.669 1265.67,695.086 1267,695.312 1269.59,695.733 1271.82,696.058 1273.41,696.271 1275.92,696.542 1278.02,696.695 1279.82,696.778 1282.15,696.809 1284.34,696.753 1286.23,696.647 1288.69,696.44 1291.22,696.155 1292.64,695.968 1295.13,695.62 1298.01,695.208 1299.05,695.057 1301.74,694.701 1303.71,694.48 1305.46,694.31 1307.84,694.138 1310.03,694.054 1311.87,694.031 1314.22,694.069 1316.51,694.181 1318.28,694.311 1320.77,694.544 1323.34,694.833 1324.69,695.001 1327.21,695.319 1330,695.657 1331.1,695.788 1333.8,696.066 1335.71,696.219 1337.51,696.336 1339.84,696.43 1342.06,696.453 1343.92,696.428 1346.32,696.337 1348.76,696.182 1350.33,696.052 1352.83,695.813 1355.42,695.54 1356.74,695.391 1359.33,695.109 1361.65,694.878 1363.15,694.739 1365.72,694.544 1367.8,694.434 1369.56,694.37 1371.92,694.337 1374.15,694.364 1375.97,694.422 1378.44,694.55 1380.95,694.729 1382.38,694.85 1384.88,695.079 1387.65,695.343 1388.79,695.453 1391.47,695.695 1393.52,695.852 1395.2,695.968 1397.65,696.095 1399.85,696.16 1401.61,696.183 1404,696.168 1406.28,696.104 1408.02,696.026 1410.52,695.878 1413.07,695.693 1414.43,695.582 1416.97,695.371 1420.14,695.112 1420.84,695.056 1423.49,694.867 1425.46,694.755 1427.25,694.671 1429.66,694.597 1431.93,694.574 1433.66,694.583 1436.07,694.634 1438.46,694.727 1440.07,694.811 1442.59,694.965 1445.21,695.147 1446.48,695.241 1449.06,695.429 1451.46,695.591 1452.89,695.682 1455.53,695.822 1457.59,695.901 1459.3,695.948 1461.69,695.979 1463.95,695.969 1465.71,695.937 1468.21,695.859 1470.71,695.746 1472.12,695.669 1474.64,695.519 1477.34,695.349 1478.53,695.271 1481.21,695.108 1483.35,694.994 1484.94,694.918 1487.45,694.825 1489.64,694.776 1491.35,694.755 1493.79,694.758 1496.08,694.795 1497.76,694.841 1500.27,694.933 1502.81,695.052 1504.17,695.124 1506.72,695.265 1510.58,695.476 1515.07,695.678 1516.99,695.744 1520.53,695.814 1523.2,695.821 1523.4,695.82 1524.8,695.808 1526.36,695.783 1528.35,695.732 1529.81,695.684 1532.12,695.595 1534.57,695.485 1536.22,695.405 1538.95,695.272 1541.84,695.141 1542.63,695.107 1545.11,695.014 1547.08,694.959 1549.04,694.917 1551.55,694.89 1554.02,694.894 1555.45,694.909 1557.94,694.955 1560.25,695.02 1561.86,695.075 1564.43,695.175 1567.26,695.293 1568.27,695.337 1570.89,695.445 1573.13,695.527 1574.68,695.578 1577.29,695.647 1579.52,695.684 1581.09,695.699 1583.55,695.703 1585.83,695.683 1587.5,695.656 1590.05,695.597 1592.61,695.52 1593.91,695.475 1596.48,695.383 1599.61,695.268 1600.32,695.242 1603.02,695.152 1605.19,695.092 1606.73,695.056 1609.26,695.013 1611.5,694.995 1613.14,694.993 1615.64,695.007 1618.04,695.042 1619.56,695.073 1622.11,695.136 1624.69,695.212 1625.97,695.254 1628.58,695.338 1631.33,695.423 1632.38,695.454 1635.11,695.524 1637.24,695.565 1638.79,695.588 1641.26,695.61 1643.54,695.612 1645.2,695.604 1647.74,695.576 1650.25,695.532 1651.61,695.502 1654.17,695.437 1656.79,695.366 1658.02,695.33 1660.71,695.255 1663.11,695.196 1664.43,695.166 1667.06,695.117 1669.17,695.091 1670.84,695.077 1673.35,695.071 1675.74,695.083 1677.25,695.097 1679.81,695.133 1682.3,695.181 1683.66,695.211 1686.26,695.273 1689.26,695.346 1690.07,695.366 1692.76,695.427 1695.05,695.471 1696.48,695.495 1699.06,695.527 1701.29,695.541 1702.89,695.544 1705.42,695.538 1707.84,695.517 1709.3,695.499 1711.88,695.458 1714.44,695.409 1715.71,695.382 1718.34,695.325 1721.35,695.263 1722.12,695.248 1724.83,695.199 1727.08,695.169 1728.53,695.153 1731.08,695.135 1733.35,695.132 1734.94,695.135 1737.51,695.152 1740.01,695.179 1741.35,695.198 1743.94,695.24 1746.56,695.287 1747.76,695.31 1750.46,695.36 1753.03,695.404 1754.17,695.422 1756.84,695.457 1759.06,695.476 1760.58,695.486 1763.14,695.492 1765.5,695.487 1766.99,695.479 1769.58,695.456 1772.1,695.425 1773.4,695.407 1776.02,695.366 1778.89,695.319 1779.81,695.304 1782.54,695.262 1784.99,695.23 1786.22,695.216 1788.83,695.192 1791.03,695.181 1792.63,695.178 1795.21,695.18 1797.69,695.193 1799.04,695.203 1801.64,695.229 1804.15,695.26 1805.45,695.278 1808.12,695.316 1811.72,695.366 1811.86,695.368 1813.24,695.386 1815.19,695.407 1817.5,695.428 1818.27,695.434 1820.47,695.447 1822.58,695.451 1824.68,695.451 1824.68,695.451 "/>
<polyline clip-path="url(#clip892)" style="stroke:#3da44d; stroke-linecap:round; stroke-linejoin:round; stroke-width:4; stroke-opacity:1; fill:none" points="222.143,695.324 222.175,695.324 222.495,695.324 225.7,695.324 228.553,695.324 234.963,695.324 241.373,695.324 247.783,695.324 254.193,695.324 260.604,695.324 267.014,695.324 273.424,695.324 279.834,695.324 286.244,695.324 292.654,695.324 299.065,695.324 305.475,695.324 311.885,695.324 318.295,695.324 324.705,695.324 331.115,695.324 337.525,695.324 343.936,695.324 350.346,695.324 356.756,695.324 363.166,695.324 369.576,695.324 375.986,695.324 382.396,695.324 388.807,695.324 395.217,695.324 401.627,695.324 408.037,695.324 414.447,695.324 420.857,695.324 427.267,695.324 433.678,695.324 440.088,695.324 446.498,695.324 452.908,695.324 459.318,695.324 465.728,695.324 472.139,695.324 478.549,695.324 484.959,695.324 491.369,695.324 497.779,695.324 504.189,695.324 510.599,695.324 517.01,695.324 523.42,695.324 529.83,695.324 536.24,695.324 542.65,695.324 542.65,83.9279 542.65,83.9279 542.65,83.9279 542.65,83.9279 542.65,83.9279 542.65,83.9279 542.65,83.9279 542.65,83.9279 542.65,83.9279 542.65,83.9279 542.651,83.9279 542.658,83.9279 542.729,83.9279 543.148,83.9279 543.899,83.9279 544.853,83.9279 546.072,83.9279 547.541,83.9279 549.06,83.9279 550.978,83.9279 553.091,83.9279 555.47,83.9279 558.117,83.9279 561.026,83.9279 561.881,83.9279 564.196,83.9279 566.192,83.9279 568.291,83.9279 570.947,83.9279 573.884,83.9279 574.701,83.9279 577.138,83.9279 579.469,83.9279 581.111,83.9279 583.901,83.9279 586.744,83.9279 587.521,83.9279 590.022,83.9279 592.683,83.9279 593.931,83.9279 596.8,83.9279 599.741,83.9279 600.341,83.9279 602.815,83.9279 605.802,83.9279 606.752,83.9279 609.673,83.9279 612.996,83.9279 613.162,83.9279 614.824,83.9279 617.806,83.9279 619.572,83.9279 623.245,83.9279 625.982,83.9279 630.639,83.9279 632.392,83.9279 637.044,83.9279 638.802,83.9279 643.57,83.9279 645.213,83.9279 650.053,83.9279 651.623,83.9279 656.549,83.9279 658.033,83.9279 663.035,83.9279 664.443,1306.72 668.686,1306.72 670.614,1306.72 670.853,1306.72 672.006,1306.72 673.221,1306.72 674.724,1306.72 676.321,1306.72 677.263,1306.72 678.903,1306.72 680.518,1306.72 682.552,1306.72 683.673,1306.72 685.71,1306.72 687.644,1306.72 690.084,1306.72 692.697,1306.72 695.671,1306.72 696.494,1306.72 698.84,1306.72 700.915,1306.72 702.904,1306.72 705.596,1306.72 708.515,1306.72 709.314,1306.72 711.757,1306.72 714.152,1306.72 715.724,1306.72 718.538,1306.72 721.363,1306.72 722.134,1306.72 724.644,1306.72 727.362,1306.72 728.544,1306.72 731.413,1306.72 734.405,1306.72 734.955,1306.72 737.396,1306.72 740.413,1306.72 741.365,1306.72 744.313,1306.72 747.679,1306.72 747.775,1306.72 748.734,1306.72 751.284,1306.72 754.185,1306.72 758.146,1306.72 760.595,1306.72 765.228,1306.72 767.005,1306.72 771.588,1306.72 773.415,952.766 778.178,952.766 779.826,174.144 783.234,174.144 785.459,174.144 786.236,83.9279 787.975,83.9279 789.399,83.9279 791.183,83.9279 792.646,83.9279 794.657,83.9279 796.733,83.9279 799.056,83.9279 801.623,83.9279 804.43,83.9279 805.466,83.9279 807.834,83.9279 809.857,83.9279 811.876,392.45 814.456,392.45 817.241,392.45 818.287,935.909 820.761,935.909 822.434,935.909 824.697,1306.72 826.93,1306.72 829.212,1306.72 831.107,1306.72 833.355,1306.72 835.747,1306.72 837.517,1293.93 840.008,1293.93 842.485,1293.93 843.927,912.943 846.384,912.943 848.847,912.943 850.337,459.522 852.926,459.522 854.882,459.522 856.747,128.43 858.973,128.43 861.056,128.43 863.158,83.9279 865.559,83.9279 868.097,83.9279 869.568,240.942 871.994,240.942 874.453,240.942 875.978,601.783 878.549,601.783 880.813,601.783 882.388,980.193 884.828,980.193 886.85,980.193 888.798,1216.41 891.029,1216.41 893.117,1216.41 895.208,1219.38 897.639,1219.38 900.215,1219.38 901.618,1001.1 904.049,1001.1 906.86,1001.1 908.029,665.829 910.727,665.829 912.56,665.829 914.439,361.039 916.718,361.039 918.861,361.039 920.849,213.098 923.033,213.098 925.227,213.098 927.259,275.373 929.742,275.373 932.397,275.373 933.669,509.931 936.111,509.931 938.672,509.931 940.079,808.62 942.773,808.62 944.663,808.62 946.489,1042.44 948.717,1042.44 950.817,1042.44 952.9,1116.9 955.145,1116.9 957.591,1116.9 959.31,1009.76 961.806,1009.76 964.421,1009.76 965.72,776.273 968.227,776.273 970.424,776.273 972.13,521.656 974.636,521.656 976.739,521.656 978.54,354.058 980.785,354.058 982.846,354.058 984.95,338.986 987.377,338.986 989.952,338.986 991.361,474.2 993.801,474.2 996.474,474.2 997.771,694.47 1000.44,694.47 1002.39,694.47 1004.18,902.518 1006.52,902.518 1008.65,902.518 1010.59,1011.68 1012.82,1011.68 1014.95,1011.68 1017,981.697 1019.46,981.697 1022.11,981.697 1023.41,833.019 1025.87,833.019 1028.74,833.019 1029.82,634.784 1032.56,634.784 1034.37,634.784 1036.23,473.047 1038.46,473.047 1040.6,473.047 1042.64,413.684 1044.87,413.684 1047.28,413.684 1049.05,475.865 1051.56,475.865 1054.19,475.865 1055.46,626.637 1057.96,626.637 1060.22,626.637 1061.87,797.696 1064.43,797.696 1066.52,797.696 1068.28,916.069 1070.55,916.069 1072.63,916.069 1074.69,935.017 1077.12,935.017 1079.66,935.017 1081.1,852.192 1083.55,852.192 1086.16,852.192 1087.51,708.116 1090.15,708.116 1092.23,708.116 1093.92,566.75 1096.32,566.75 1098.42,566.75 1100.33,487.314 1102.6,487.314 1104.72,487.314 1106.74,499.681 1109.2,499.681 1111.81,499.681 1113.15,593.487 1115.62,593.487 1119.56,724.752 1123.84,724.752 1125.97,836.241 1129.32,836.241 1131.88,836.241 1132.38,882.25 1134,882.25 1135.34,882.25 1137.26,882.25 1138.79,847.149 1140.98,847.149 1143.34,847.149 1145.2,750.25 1147.87,750.25 1150.7,750.25 1151.61,635.732 1154.03,635.732 1155.76,635.732 1158.02,552.681 1160.33,552.681 1162.68,552.681 1164.43,534.204 1166.86,534.204 1169.23,534.204 1170.84,584.422 1173.31,584.422 1175.99,584.422 1177.25,678.376 1179.85,678.376 1181.95,678.376 1183.66,774.146 1186.12,774.146 1188.26,774.146 1190.08,831.41 1192.38,831.41 1194.52,831.41 1196.49,828.292 1198.94,828.292 1201.51,828.292 1202.9,769.502 1205.37,769.502 1208.5,769.502 1209.31,682.869 1211.99,682.869 1213.89,682.869 1215.72,606.343 1218.05,606.343 1220.24,606.343 1222.13,571.494 1224.42,571.494 1226.72,571.494 1228.54,590.609 1231.03,590.609 1233.64,590.609 1234.95,652.619 1237.45,652.619 1240,652.619 1241.36,729.067 1244.02,729.067 1245.95,729.067 1247.77,787.034 1250.06,787.034 1252.25,787.034 1254.18,803.217 1256.58,803.217 1259.04,803.217 1260.59,773.176 1263.07,773.176 1265.67,773.176 1267,712.132 1269.59,712.132 1271.82,712.132 1273.41,647.466 1275.92,647.466 1278.02,647.466 1279.82,606.542 1282.15,606.542 1284.34,606.542 1286.23,605.207 1288.69,605.207 1291.22,605.207 1292.64,641.791 1295.13,641.791 1298.01,641.791 1299.05,698.795 1301.74,698.795 1303.71,698.795 1305.46,751.128 1307.84,751.128 1310.03,751.128 1311.87,777.076 1314.22,777.076 1316.51,777.076 1318.28,767.228 1320.77,767.228 1323.34,767.228 1324.69,727.738 1327.21,727.738 1330,727.738 1331.1,676.86 1333.8,676.86 1335.71,676.86 1337.51,636.603 1339.84,636.603 1342.06,636.603 1343.92,623.274 1346.32,623.274 1348.76,623.274 1350.33,640.953 1352.83,640.953 1355.42,640.953 1356.74,680.47 1359.33,680.47 1361.65,680.47 1363.15,723.998 1365.72,723.998 1367.8,723.998 1369.56,753.03 1371.92,753.03 1374.15,753.03 1375.97,756.193 1378.44,756.193 1380.95,756.193 1382.38,733.614 1384.88,733.614 1387.65,733.614 1388.79,696.227 1391.47,696.227 1393.52,696.227 1395.2,660.568 1397.65,660.568 1399.85,660.568 1401.61,641.513 1404,641.513 1406.28,641.513 1408.02,646.131 1410.52,646.131 1413.07,646.131 1414.43,671.147 1416.97,671.147 1420.14,671.147 1420.84,704.907 1423.49,704.907 1425.46,704.907 1427.25,732.74 1429.66,732.74 1431.93,732.74 1433.66,743.291 1436.07,743.291 1438.46,743.291 1440.07,733.104 1442.59,733.104 1445.21,733.104 1446.48,707.624 1449.06,707.624 1451.46,707.624 1452.89,678.415 1455.53,678.415 1457.59,678.415 1459.3,657.953 1461.69,657.953 1463.95,657.953 1465.71,654.338 1468.21,654.338 1470.71,654.338 1472.12,668.139 1474.64,668.139 1477.34,668.139 1478.53,692.579 1481.21,692.579 1483.35,692.579 1484.94,716.795 1487.45,716.795 1489.64,716.795 1491.35,730.629 1493.79,730.629 1496.08,730.629 1497.76,728.857 1500.27,728.857 1502.81,728.857 1504.17,713.102 1506.72,713.102 1510.58,690.769 1515.07,690.769 1516.99,671.607 1520.53,671.607 1523.2,671.607 1523.4,663.485 1524.8,663.485 1526.36,663.485 1528.35,663.485 1529.81,669.192 1532.12,669.192 1534.57,669.192 1536.22,685.551 1538.95,685.551 1541.84,685.551 1542.63,705.093 1545.11,705.093 1547.08,705.093 1549.04,719.431 1551.55,719.431 1554.02,719.431 1555.45,722.837 1557.94,722.837 1560.25,722.837 1561.86,714.497 1564.43,714.497 1567.26,714.497 1568.27,698.575 1570.89,698.575 1573.13,698.575 1574.68,682.185 1577.29,682.185 1579.52,682.185 1581.09,672.236 1583.55,672.236 1585.83,672.236 1587.5,672.544 1590.05,672.544 1592.61,672.544 1593.91,682.401 1596.48,682.401 1599.61,682.401 1600.32,697.13 1603.02,697.13 1605.19,697.13 1606.73,710.27 1609.26,710.27 1611.5,710.27 1613.14,716.393 1615.64,716.393 1618.04,716.393 1619.56,713.323 1622.11,713.323 1624.69,713.323 1625.97,702.867 1628.58,702.867 1631.33,702.867 1632.38,689.832 1635.11,689.832 1637.24,689.832 1638.79,679.838 1641.26,679.838 1643.54,679.838 1645.2,676.911 1647.74,676.911 1650.25,676.911 1651.61,681.881 1654.17,681.881 1656.79,681.881 1658.02,692.217 1660.71,692.217 1663.11,692.217 1664.43,703.275 1667.06,703.275 1669.17,703.275 1670.84,710.371 1673.35,710.371 1675.74,710.371 1677.25,710.748 1679.81,710.748 1682.3,710.748 1683.66,704.626 1686.26,704.626 1689.26,704.626 1690.07,694.943 1692.76,694.943 1695.05,694.943 1696.48,685.965 1699.06,685.965 1701.29,685.965 1702.89,681.424 1705.42,681.424 1707.84,681.424 1709.3,682.976 1711.88,682.976 1714.44,682.976 1715.71,689.626 1718.34,689.626 1721.35,689.626 1722.12,698.294 1724.83,698.294 1727.08,698.294 1728.53,705.227 1731.08,705.227 1733.35,705.227 1734.94,707.61 1737.51,707.61 1740.01,707.61 1741.35,704.699 1743.94,704.699 1746.56,704.699 1747.76,698.015 1750.46,698.015 1753.03,698.015 1754.17,690.578 1756.84,690.578 1759.06,690.578 1760.58,685.552 1763.14,685.552 1765.5,685.552 1766.99,684.914 1769.58,684.914 1772.1,684.914 1773.4,688.683 1776.02,688.683 1778.89,688.683 1779.81,695.029 1782.54,695.029 1784.99,695.029 1786.22,701.141 1788.83,701.141 1791.03,701.141 1792.63,704.466 1795.21,704.466 1797.69,704.466 1799.04,703.764 1801.64,703.764 1804.15,703.764 1805.45,699.557 1808.12,699.557 1811.72,699.557 1811.86,693.81 1813.24,693.81 1815.19,693.81 1817.5,693.81 1818.27,689.022 1820.47,689.022 1822.58,689.022 1824.68,687.151 1824.68,687.151 "/>
<polyline clip-path="url(#clip892)" style="stroke:#0000ff; stroke-linecap:round; stroke-linejoin:round; stroke-width:4; stroke-opacity:1; fill:none" stroke-dasharray="16, 10" points="542.65,1306.72 542.65,83.9279 "/>
<path clip-path="url(#clip890)" d="M1130.29 349.649 L1816.13 349.649 L1816.13 90.4494 L1130.29 90.4494  Z" fill="#ffffff" fill-rule="evenodd" fill-opacity="1"/>
<polyline clip-path="url(#clip890)" style="stroke:#000000; stroke-linecap:round; stroke-linejoin:round; stroke-width:4; stroke-opacity:1; fill:none" points="1130.29,349.649 1816.13,349.649 1816.13,90.4494 1130.29,90.4494 1130.29,349.649 "/>
<polyline clip-path="url(#clip890)" style="stroke:#009af9; stroke-linecap:round; stroke-linejoin:round; stroke-width:4; stroke-opacity:1; fill:none" points="1149.17,142.289 1262.41,142.289 "/>
<path clip-path="url(#clip890)" d="M1300.06 146.63 Q1300.06 141.931 1298.12 139.269 Q1296.2 136.583 1292.82 136.583 Q1289.44 136.583 1287.49 139.269 Q1285.57 141.931 1285.57 146.63 Q1285.57 151.329 1287.49 154.014 Q1289.44 156.676 1292.82 156.676 Q1296.2 156.676 1298.12 154.014 Q1300.06 151.329 1300.06 146.63 M1285.57 137.579 Q1286.91 135.264 1288.95 134.153 Q1291.01 133.019 1293.86 133.019 Q1298.58 133.019 1301.52 136.769 Q1304.48 140.519 1304.48 146.63 Q1304.48 152.741 1301.52 156.491 Q1298.58 160.241 1293.86 160.241 Q1291.01 160.241 1288.95 159.13 Q1286.91 157.995 1285.57 155.681 L1285.57 159.569 L1281.29 159.569 L1281.29 123.551 L1285.57 123.551 L1285.57 137.579 Z" fill="#000000" fill-rule="nonzero" fill-opacity="1" /><path clip-path="url(#clip890)" d="M1311.54 123.551 L1315.8 123.551 L1315.8 159.569 L1311.54 159.569 L1311.54 123.551 Z" fill="#000000" fill-rule="nonzero" fill-opacity="1" /><path clip-path="url(#clip890)" d="M1334.76 136.63 Q1331.34 136.63 1329.34 139.315 Q1327.35 141.977 1327.35 146.63 Q1327.35 151.282 1329.32 153.968 Q1331.31 156.63 1334.76 156.63 Q1338.16 156.63 1340.15 153.944 Q1342.15 151.259 1342.15 146.63 Q1342.15 142.023 1340.15 139.338 Q1338.16 136.63 1334.76 136.63 M1334.76 133.019 Q1340.32 133.019 1343.49 136.63 Q1346.66 140.241 1346.66 146.63 Q1346.66 152.995 1343.49 156.63 Q1340.32 160.241 1334.76 160.241 Q1329.18 160.241 1326.01 156.63 Q1322.86 152.995 1322.86 146.63 Q1322.86 140.241 1326.01 136.63 Q1329.18 133.019 1334.76 133.019 Z" fill="#000000" fill-rule="nonzero" fill-opacity="1" /><path clip-path="url(#clip890)" d="M1372.38 134.639 L1372.38 138.62 Q1370.57 137.625 1368.74 137.139 Q1366.94 136.63 1365.08 136.63 Q1360.94 136.63 1358.65 139.269 Q1356.36 141.884 1356.36 146.63 Q1356.36 151.375 1358.65 154.014 Q1360.94 156.63 1365.08 156.63 Q1366.94 156.63 1368.74 156.144 Q1370.57 155.634 1372.38 154.639 L1372.38 158.574 Q1370.59 159.407 1368.67 159.824 Q1366.77 160.241 1364.62 160.241 Q1358.77 160.241 1355.32 156.56 Q1351.87 152.88 1351.87 146.63 Q1351.87 140.287 1355.34 136.653 Q1358.84 133.019 1364.9 133.019 Q1366.87 133.019 1368.74 133.435 Q1370.62 133.829 1372.38 134.639 Z" fill="#000000" fill-rule="nonzero" fill-opacity="1" /><path clip-path="url(#clip890)" d="M1379.62 123.551 L1383.9 123.551 L1383.9 144.824 L1396.61 133.644 L1402.05 133.644 L1388.3 145.773 L1402.63 159.569 L1397.08 159.569 L1383.9 146.907 L1383.9 159.569 L1379.62 159.569 L1379.62 123.551 Z" fill="#000000" fill-rule="nonzero" fill-opacity="1" /><path clip-path="url(#clip890)" d="M1421.45 128.181 Q1416.36 128.181 1413.35 131.977 Q1410.36 135.773 1410.36 142.324 Q1410.36 148.852 1413.35 152.648 Q1416.36 156.444 1421.45 156.444 Q1426.54 156.444 1429.51 152.648 Q1432.49 148.852 1432.49 142.324 Q1432.49 135.773 1429.51 131.977 Q1426.54 128.181 1421.45 128.181 M1421.45 124.384 Q1428.72 124.384 1433.07 129.269 Q1437.42 134.13 1437.42 142.324 Q1437.42 150.495 1433.07 155.38 Q1428.72 160.241 1421.45 160.241 Q1414.16 160.241 1409.78 155.38 Q1405.43 150.519 1405.43 142.324 Q1405.43 134.13 1409.78 129.269 Q1414.16 124.384 1421.45 124.384 Z" fill="#000000" fill-rule="nonzero" fill-opacity="1" /><path clip-path="url(#clip890)" d="M1466.1 143.921 L1466.1 159.569 L1461.84 159.569 L1461.84 144.06 Q1461.84 140.38 1460.41 138.551 Q1458.97 136.722 1456.1 136.722 Q1452.65 136.722 1450.66 138.921 Q1448.67 141.12 1448.67 144.917 L1448.67 159.569 L1444.39 159.569 L1444.39 133.644 L1448.67 133.644 L1448.67 137.671 Q1450.2 135.333 1452.26 134.176 Q1454.34 133.019 1457.05 133.019 Q1461.52 133.019 1463.81 135.796 Q1466.1 138.551 1466.1 143.921 Z" fill="#000000" fill-rule="nonzero" fill-opacity="1" /><path clip-path="url(#clip890)" d="M1495.5 126.144 L1495.5 130.704 Q1492.84 129.431 1490.48 128.806 Q1488.12 128.181 1485.92 128.181 Q1482.1 128.181 1480.01 129.662 Q1477.95 131.144 1477.95 133.875 Q1477.95 136.167 1479.32 137.347 Q1480.71 138.505 1484.55 139.222 L1487.38 139.801 Q1492.61 140.796 1495.08 143.32 Q1497.58 145.819 1497.58 150.032 Q1497.58 155.056 1494.2 157.648 Q1490.85 160.241 1484.34 160.241 Q1481.89 160.241 1479.11 159.685 Q1476.36 159.13 1473.39 158.042 L1473.39 153.227 Q1476.24 154.824 1478.97 155.634 Q1481.7 156.444 1484.34 156.444 Q1488.35 156.444 1490.52 154.87 Q1492.7 153.296 1492.7 150.38 Q1492.7 147.833 1491.13 146.398 Q1489.58 144.963 1486.01 144.245 L1483.16 143.69 Q1477.93 142.648 1475.59 140.426 Q1473.26 138.204 1473.26 134.245 Q1473.26 129.662 1476.47 127.023 Q1479.71 124.384 1485.39 124.384 Q1487.82 124.384 1490.34 124.824 Q1492.86 125.264 1495.5 126.144 Z" fill="#000000" fill-rule="nonzero" fill-opacity="1" /><path clip-path="url(#clip890)" d="M1504.69 123.551 L1508.95 123.551 L1508.95 159.569 L1504.69 159.569 L1504.69 123.551 Z" fill="#000000" fill-rule="nonzero" fill-opacity="1" /><path clip-path="url(#clip890)" d="M1527.91 136.63 Q1524.48 136.63 1522.49 139.315 Q1520.5 141.977 1520.5 146.63 Q1520.5 151.282 1522.47 153.968 Q1524.46 156.63 1527.91 156.63 Q1531.31 156.63 1533.3 153.944 Q1535.29 151.259 1535.29 146.63 Q1535.29 142.023 1533.3 139.338 Q1531.31 136.63 1527.91 136.63 M1527.91 133.019 Q1533.46 133.019 1536.64 136.63 Q1539.81 140.241 1539.81 146.63 Q1539.81 152.995 1536.64 156.63 Q1533.46 160.241 1527.91 160.241 Q1522.33 160.241 1519.16 156.63 Q1516.01 152.995 1516.01 146.63 Q1516.01 140.241 1519.16 136.63 Q1522.33 133.019 1527.91 133.019 Z" fill="#000000" fill-rule="nonzero" fill-opacity="1" /><path clip-path="url(#clip890)" d="M1550.99 155.681 L1550.99 169.43 L1546.7 169.43 L1546.7 133.644 L1550.99 133.644 L1550.99 137.579 Q1552.33 135.264 1554.37 134.153 Q1556.43 133.019 1559.27 133.019 Q1564 133.019 1566.94 136.769 Q1569.9 140.519 1569.9 146.63 Q1569.9 152.741 1566.94 156.491 Q1564 160.241 1559.27 160.241 Q1556.43 160.241 1554.37 159.13 Q1552.33 157.995 1550.99 155.681 M1565.48 146.63 Q1565.48 141.931 1563.53 139.269 Q1561.61 136.583 1558.23 136.583 Q1554.85 136.583 1552.91 139.269 Q1550.99 141.931 1550.99 146.63 Q1550.99 151.329 1552.91 154.014 Q1554.85 156.676 1558.23 156.676 Q1561.61 156.676 1563.53 154.014 Q1565.48 151.329 1565.48 146.63 Z" fill="#000000" fill-rule="nonzero" fill-opacity="1" /><path clip-path="url(#clip890)" d="M1599.13 145.542 L1599.13 147.625 L1579.55 147.625 Q1579.83 152.023 1582.19 154.338 Q1584.57 156.63 1588.81 156.63 Q1591.26 156.63 1593.56 156.028 Q1595.87 155.426 1598.14 154.222 L1598.14 158.25 Q1595.85 159.222 1593.44 159.731 Q1591.03 160.241 1588.56 160.241 Q1582.35 160.241 1578.72 156.63 Q1575.11 153.019 1575.11 146.861 Q1575.11 140.495 1578.53 136.769 Q1581.98 133.019 1587.82 133.019 Q1593.05 133.019 1596.08 136.398 Q1599.13 139.755 1599.13 145.542 M1594.88 144.292 Q1594.83 140.796 1592.91 138.713 Q1591.01 136.63 1587.86 136.63 Q1584.3 136.63 1582.14 138.644 Q1580.01 140.657 1579.69 144.315 L1594.88 144.292 Z" fill="#000000" fill-rule="nonzero" fill-opacity="1" /><path clip-path="url(#clip890)" d="M1606.73 153.69 L1611.61 153.69 L1611.61 159.569 L1606.73 159.569 L1606.73 153.69 Z" fill="#000000" fill-rule="nonzero" fill-opacity="1" /><path clip-path="url(#clip890)" d="M1642.75 133.644 L1633.37 146.259 L1643.23 159.569 L1638.21 159.569 L1630.66 149.384 L1623.12 159.569 L1618.09 159.569 L1628.16 146.005 L1618.95 133.644 L1623.97 133.644 L1630.85 142.88 L1637.72 133.644 L1642.75 133.644 Z" fill="#000000" fill-rule="nonzero" fill-opacity="1" /><path clip-path="url(#clip890)" d="M1674.55 123.597 Q1671.45 128.921 1669.94 134.13 Q1668.44 139.338 1668.44 144.685 Q1668.44 150.032 1669.94 155.287 Q1671.47 160.518 1674.55 165.819 L1670.85 165.819 Q1667.38 160.38 1665.64 155.125 Q1663.93 149.87 1663.93 144.685 Q1663.93 139.523 1665.64 134.292 Q1667.35 129.06 1670.85 123.597 L1674.55 123.597 Z" fill="#000000" fill-rule="nonzero" fill-opacity="1" /><path clip-path="url(#clip890)" d="M1684.23 155.634 L1691.87 155.634 L1691.87 129.269 L1683.56 130.935 L1683.56 126.676 L1691.82 125.009 L1696.5 125.009 L1696.5 155.634 L1704.13 155.634 L1704.13 159.569 L1684.23 159.569 L1684.23 155.634 Z" fill="#000000" fill-rule="nonzero" fill-opacity="1" /><path clip-path="url(#clip890)" d="M1712.31 123.597 L1716.01 123.597 Q1719.48 129.06 1721.19 134.292 Q1722.93 139.523 1722.93 144.685 Q1722.93 149.87 1721.19 155.125 Q1719.48 160.38 1716.01 165.819 L1712.31 165.819 Q1715.38 160.518 1716.89 155.287 Q1718.42 150.032 1718.42 144.685 Q1718.42 139.338 1716.89 134.13 Q1715.38 128.921 1712.31 123.597 Z" fill="#000000" fill-rule="nonzero" fill-opacity="1" /><polyline clip-path="url(#clip890)" style="stroke:#e26f46; stroke-linecap:round; stroke-linejoin:round; stroke-width:4; stroke-opacity:1; fill:none" points="1149.17,194.129 1262.41,194.129 "/>
<path clip-path="url(#clip890)" d="M1300.06 198.47 Q1300.06 193.771 1298.12 191.109 Q1296.2 188.423 1292.82 188.423 Q1289.44 188.423 1287.49 191.109 Q1285.57 193.771 1285.57 198.47 Q1285.57 203.169 1287.49 205.854 Q1289.44 208.516 1292.82 208.516 Q1296.2 208.516 1298.12 205.854 Q1300.06 203.169 1300.06 198.47 M1285.57 189.419 Q1286.91 187.104 1288.95 185.993 Q1291.01 184.859 1293.86 184.859 Q1298.58 184.859 1301.52 188.609 Q1304.48 192.359 1304.48 198.47 Q1304.48 204.581 1301.52 208.331 Q1298.58 212.081 1293.86 212.081 Q1291.01 212.081 1288.95 210.97 Q1286.91 209.835 1285.57 207.521 L1285.57 211.409 L1281.29 211.409 L1281.29 175.391 L1285.57 175.391 L1285.57 189.419 Z" fill="#000000" fill-rule="nonzero" fill-opacity="1" /><path clip-path="url(#clip890)" d="M1311.54 175.391 L1315.8 175.391 L1315.8 211.409 L1311.54 211.409 L1311.54 175.391 Z" fill="#000000" fill-rule="nonzero" fill-opacity="1" /><path clip-path="url(#clip890)" d="M1334.76 188.47 Q1331.34 188.47 1329.34 191.155 Q1327.35 193.817 1327.35 198.47 Q1327.35 203.122 1329.32 205.808 Q1331.31 208.47 1334.76 208.47 Q1338.16 208.47 1340.15 205.784 Q1342.15 203.099 1342.15 198.47 Q1342.15 193.863 1340.15 191.178 Q1338.16 188.47 1334.76 188.47 M1334.76 184.859 Q1340.32 184.859 1343.49 188.47 Q1346.66 192.081 1346.66 198.47 Q1346.66 204.835 1343.49 208.47 Q1340.32 212.081 1334.76 212.081 Q1329.18 212.081 1326.01 208.47 Q1322.86 204.835 1322.86 198.47 Q1322.86 192.081 1326.01 188.47 Q1329.18 184.859 1334.76 184.859 Z" fill="#000000" fill-rule="nonzero" fill-opacity="1" /><path clip-path="url(#clip890)" d="M1372.38 186.479 L1372.38 190.46 Q1370.57 189.465 1368.74 188.979 Q1366.94 188.47 1365.08 188.47 Q1360.94 188.47 1358.65 191.109 Q1356.36 193.724 1356.36 198.47 Q1356.36 203.215 1358.65 205.854 Q1360.94 208.47 1365.08 208.47 Q1366.94 208.47 1368.74 207.984 Q1370.57 207.474 1372.38 206.479 L1372.38 210.414 Q1370.59 211.247 1368.67 211.664 Q1366.77 212.081 1364.62 212.081 Q1358.77 212.081 1355.32 208.4 Q1351.87 204.72 1351.87 198.47 Q1351.87 192.127 1355.34 188.493 Q1358.84 184.859 1364.9 184.859 Q1366.87 184.859 1368.74 185.275 Q1370.62 185.669 1372.38 186.479 Z" fill="#000000" fill-rule="nonzero" fill-opacity="1" /><path clip-path="url(#clip890)" d="M1379.62 175.391 L1383.9 175.391 L1383.9 196.664 L1396.61 185.484 L1402.05 185.484 L1388.3 197.613 L1402.63 211.409 L1397.08 211.409 L1383.9 198.747 L1383.9 211.409 L1379.62 211.409 L1379.62 175.391 Z" fill="#000000" fill-rule="nonzero" fill-opacity="1" /><path clip-path="url(#clip890)" d="M1421.45 180.021 Q1416.36 180.021 1413.35 183.817 Q1410.36 187.613 1410.36 194.164 Q1410.36 200.692 1413.35 204.488 Q1416.36 208.284 1421.45 208.284 Q1426.54 208.284 1429.51 204.488 Q1432.49 200.692 1432.49 194.164 Q1432.49 187.613 1429.51 183.817 Q1426.54 180.021 1421.45 180.021 M1421.45 176.224 Q1428.72 176.224 1433.07 181.109 Q1437.42 185.97 1437.42 194.164 Q1437.42 202.335 1433.07 207.22 Q1428.72 212.081 1421.45 212.081 Q1414.16 212.081 1409.78 207.22 Q1405.43 202.359 1405.43 194.164 Q1405.43 185.97 1409.78 181.109 Q1414.16 176.224 1421.45 176.224 Z" fill="#000000" fill-rule="nonzero" fill-opacity="1" /><path clip-path="url(#clip890)" d="M1466.1 195.761 L1466.1 211.409 L1461.84 211.409 L1461.84 195.9 Q1461.84 192.22 1460.41 190.391 Q1458.97 188.562 1456.1 188.562 Q1452.65 188.562 1450.66 190.761 Q1448.67 192.96 1448.67 196.757 L1448.67 211.409 L1444.39 211.409 L1444.39 185.484 L1448.67 185.484 L1448.67 189.511 Q1450.2 187.173 1452.26 186.016 Q1454.34 184.859 1457.05 184.859 Q1461.52 184.859 1463.81 187.636 Q1466.1 190.391 1466.1 195.761 Z" fill="#000000" fill-rule="nonzero" fill-opacity="1" /><path clip-path="url(#clip890)" d="M1495.5 177.984 L1495.5 182.544 Q1492.84 181.271 1490.48 180.646 Q1488.12 180.021 1485.92 180.021 Q1482.1 180.021 1480.01 181.502 Q1477.95 182.984 1477.95 185.715 Q1477.95 188.007 1479.32 189.187 Q1480.71 190.345 1484.55 191.062 L1487.38 191.641 Q1492.61 192.636 1495.08 195.16 Q1497.58 197.659 1497.58 201.872 Q1497.58 206.896 1494.2 209.488 Q1490.85 212.081 1484.34 212.081 Q1481.89 212.081 1479.11 211.525 Q1476.36 210.97 1473.39 209.882 L1473.39 205.067 Q1476.24 206.664 1478.97 207.474 Q1481.7 208.284 1484.34 208.284 Q1488.35 208.284 1490.52 206.71 Q1492.7 205.136 1492.7 202.22 Q1492.7 199.673 1491.13 198.238 Q1489.58 196.803 1486.01 196.085 L1483.16 195.53 Q1477.93 194.488 1475.59 192.266 Q1473.26 190.044 1473.26 186.085 Q1473.26 181.502 1476.47 178.863 Q1479.71 176.224 1485.39 176.224 Q1487.82 176.224 1490.34 176.664 Q1492.86 177.104 1495.5 177.984 Z" fill="#000000" fill-rule="nonzero" fill-opacity="1" /><path clip-path="url(#clip890)" d="M1504.69 175.391 L1508.95 175.391 L1508.95 211.409 L1504.69 211.409 L1504.69 175.391 Z" fill="#000000" fill-rule="nonzero" fill-opacity="1" /><path clip-path="url(#clip890)" d="M1527.91 188.47 Q1524.48 188.47 1522.49 191.155 Q1520.5 193.817 1520.5 198.47 Q1520.5 203.122 1522.47 205.808 Q1524.46 208.47 1527.91 208.47 Q1531.31 208.47 1533.3 205.784 Q1535.29 203.099 1535.29 198.47 Q1535.29 193.863 1533.3 191.178 Q1531.31 188.47 1527.91 188.47 M1527.91 184.859 Q1533.46 184.859 1536.64 188.47 Q1539.81 192.081 1539.81 198.47 Q1539.81 204.835 1536.64 208.47 Q1533.46 212.081 1527.91 212.081 Q1522.33 212.081 1519.16 208.47 Q1516.01 204.835 1516.01 198.47 Q1516.01 192.081 1519.16 188.47 Q1522.33 184.859 1527.91 184.859 Z" fill="#000000" fill-rule="nonzero" fill-opacity="1" /><path clip-path="url(#clip890)" d="M1550.99 207.521 L1550.99 221.27 L1546.7 221.27 L1546.7 185.484 L1550.99 185.484 L1550.99 189.419 Q1552.33 187.104 1554.37 185.993 Q1556.43 184.859 1559.27 184.859 Q1564 184.859 1566.94 188.609 Q1569.9 192.359 1569.9 198.47 Q1569.9 204.581 1566.94 208.331 Q1564 212.081 1559.27 212.081 Q1556.43 212.081 1554.37 210.97 Q1552.33 209.835 1550.99 207.521 M1565.48 198.47 Q1565.48 193.771 1563.53 191.109 Q1561.61 188.423 1558.23 188.423 Q1554.85 188.423 1552.91 191.109 Q1550.99 193.771 1550.99 198.47 Q1550.99 203.169 1552.91 205.854 Q1554.85 208.516 1558.23 208.516 Q1561.61 208.516 1563.53 205.854 Q1565.48 203.169 1565.48 198.47 Z" fill="#000000" fill-rule="nonzero" fill-opacity="1" /><path clip-path="url(#clip890)" d="M1599.13 197.382 L1599.13 199.465 L1579.55 199.465 Q1579.83 203.863 1582.19 206.178 Q1584.57 208.47 1588.81 208.47 Q1591.26 208.47 1593.56 207.868 Q1595.87 207.266 1598.14 206.062 L1598.14 210.09 Q1595.85 211.062 1593.44 211.571 Q1591.03 212.081 1588.56 212.081 Q1582.35 212.081 1578.72 208.47 Q1575.11 204.859 1575.11 198.701 Q1575.11 192.335 1578.53 188.609 Q1581.98 184.859 1587.82 184.859 Q1593.05 184.859 1596.08 188.238 Q1599.13 191.595 1599.13 197.382 M1594.88 196.132 Q1594.83 192.636 1592.91 190.553 Q1591.01 188.47 1587.86 188.47 Q1584.3 188.47 1582.14 190.484 Q1580.01 192.497 1579.69 196.155 L1594.88 196.132 Z" fill="#000000" fill-rule="nonzero" fill-opacity="1" /><path clip-path="url(#clip890)" d="M1606.73 205.53 L1611.61 205.53 L1611.61 211.409 L1606.73 211.409 L1606.73 205.53 Z" fill="#000000" fill-rule="nonzero" fill-opacity="1" /><path clip-path="url(#clip890)" d="M1642.75 185.484 L1633.37 198.099 L1643.23 211.409 L1638.21 211.409 L1630.66 201.224 L1623.12 211.409 L1618.09 211.409 L1628.16 197.845 L1618.95 185.484 L1623.97 185.484 L1630.85 194.72 L1637.72 185.484 L1642.75 185.484 Z" fill="#000000" fill-rule="nonzero" fill-opacity="1" /><path clip-path="url(#clip890)" d="M1666.31 189.419 L1666.31 175.391 L1670.57 175.391 L1670.57 211.409 L1666.31 211.409 L1666.31 207.521 Q1664.97 209.835 1662.91 210.97 Q1660.87 212.081 1658 212.081 Q1653.3 212.081 1650.34 208.331 Q1647.4 204.581 1647.4 198.47 Q1647.4 192.359 1650.34 188.609 Q1653.3 184.859 1658 184.859 Q1660.87 184.859 1662.91 185.993 Q1664.97 187.104 1666.31 189.419 M1651.8 198.47 Q1651.8 203.169 1653.72 205.854 Q1655.66 208.516 1659.04 208.516 Q1662.42 208.516 1664.37 205.854 Q1666.31 203.169 1666.31 198.47 Q1666.31 193.771 1664.37 191.109 Q1662.42 188.423 1659.04 188.423 Q1655.66 188.423 1653.72 191.109 Q1651.8 193.771 1651.8 198.47 Z" fill="#000000" fill-rule="nonzero" fill-opacity="1" /><path clip-path="url(#clip890)" d="M1704.64 175.437 Q1701.54 180.761 1700.04 185.97 Q1698.53 191.178 1698.53 196.525 Q1698.53 201.872 1700.04 207.127 Q1701.56 212.358 1704.64 217.659 L1700.94 217.659 Q1697.47 212.22 1695.73 206.965 Q1694.02 201.71 1694.02 196.525 Q1694.02 191.363 1695.73 186.132 Q1697.44 180.9 1700.94 175.437 L1704.64 175.437 Z" fill="#000000" fill-rule="nonzero" fill-opacity="1" /><path clip-path="url(#clip890)" d="M1717.54 207.474 L1733.86 207.474 L1733.86 211.409 L1711.91 211.409 L1711.91 207.474 Q1714.57 204.72 1719.16 200.09 Q1723.76 195.437 1724.94 194.095 Q1727.19 191.572 1728.07 189.835 Q1728.97 188.076 1728.97 186.386 Q1728.97 183.632 1727.03 181.896 Q1725.11 180.16 1722 180.16 Q1719.81 180.16 1717.35 180.923 Q1714.92 181.687 1712.14 183.238 L1712.14 178.516 Q1714.97 177.382 1717.42 176.803 Q1719.87 176.224 1721.91 176.224 Q1727.28 176.224 1730.48 178.91 Q1733.67 181.595 1733.67 186.085 Q1733.67 188.215 1732.86 190.136 Q1732.07 192.035 1729.97 194.627 Q1729.39 195.298 1726.29 198.516 Q1723.18 201.71 1717.54 207.474 Z" fill="#000000" fill-rule="nonzero" fill-opacity="1" /><path clip-path="url(#clip890)" d="M1742.4 175.437 L1746.1 175.437 Q1749.57 180.9 1751.29 186.132 Q1753.02 191.363 1753.02 196.525 Q1753.02 201.71 1751.29 206.965 Q1749.57 212.22 1746.1 217.659 L1742.4 217.659 Q1745.48 212.358 1746.98 207.127 Q1748.51 201.872 1748.51 196.525 Q1748.51 191.178 1746.98 185.97 Q1745.48 180.761 1742.4 175.437 Z" fill="#000000" fill-rule="nonzero" fill-opacity="1" /><polyline clip-path="url(#clip890)" style="stroke:#3da44d; stroke-linecap:round; stroke-linejoin:round; stroke-width:4; stroke-opacity:1; fill:none" points="1149.17,245.969 1262.41,245.969 "/>
<path clip-path="url(#clip890)" d="M1300.06 250.31 Q1300.06 245.611 1298.12 242.949 Q1296.2 240.263 1292.82 240.263 Q1289.44 240.263 1287.49 242.949 Q1285.57 245.611 1285.57 250.31 Q1285.57 255.009 1287.49 257.694 Q1289.44 260.356 1292.82 260.356 Q1296.2 260.356 1298.12 257.694 Q1300.06 255.009 1300.06 250.31 M1285.57 241.259 Q1286.91 238.944 1288.95 237.833 Q1291.01 236.699 1293.86 236.699 Q1298.58 236.699 1301.52 240.449 Q1304.48 244.199 1304.48 250.31 Q1304.48 256.421 1301.52 260.171 Q1298.58 263.921 1293.86 263.921 Q1291.01 263.921 1288.95 262.81 Q1286.91 261.675 1285.57 259.361 L1285.57 263.249 L1281.29 263.249 L1281.29 227.231 L1285.57 227.231 L1285.57 241.259 Z" fill="#000000" fill-rule="nonzero" fill-opacity="1" /><path clip-path="url(#clip890)" d="M1311.54 227.231 L1315.8 227.231 L1315.8 263.249 L1311.54 263.249 L1311.54 227.231 Z" fill="#000000" fill-rule="nonzero" fill-opacity="1" /><path clip-path="url(#clip890)" d="M1334.76 240.31 Q1331.34 240.31 1329.34 242.995 Q1327.35 245.657 1327.35 250.31 Q1327.35 254.962 1329.32 257.648 Q1331.31 260.31 1334.76 260.31 Q1338.16 260.31 1340.15 257.624 Q1342.15 254.939 1342.15 250.31 Q1342.15 245.703 1340.15 243.018 Q1338.16 240.31 1334.76 240.31 M1334.76 236.699 Q1340.32 236.699 1343.49 240.31 Q1346.66 243.921 1346.66 250.31 Q1346.66 256.675 1343.49 260.31 Q1340.32 263.921 1334.76 263.921 Q1329.18 263.921 1326.01 260.31 Q1322.86 256.675 1322.86 250.31 Q1322.86 243.921 1326.01 240.31 Q1329.18 236.699 1334.76 236.699 Z" fill="#000000" fill-rule="nonzero" fill-opacity="1" /><path clip-path="url(#clip890)" d="M1372.38 238.319 L1372.38 242.3 Q1370.57 241.305 1368.74 240.819 Q1366.94 240.31 1365.08 240.31 Q1360.94 240.31 1358.65 242.949 Q1356.36 245.564 1356.36 250.31 Q1356.36 255.055 1358.65 257.694 Q1360.94 260.31 1365.08 260.31 Q1366.94 260.31 1368.74 259.824 Q1370.57 259.314 1372.38 258.319 L1372.38 262.254 Q1370.59 263.087 1368.67 263.504 Q1366.77 263.921 1364.62 263.921 Q1358.77 263.921 1355.32 260.24 Q1351.87 256.56 1351.87 250.31 Q1351.87 243.967 1355.34 240.333 Q1358.84 236.699 1364.9 236.699 Q1366.87 236.699 1368.74 237.115 Q1370.62 237.509 1372.38 238.319 Z" fill="#000000" fill-rule="nonzero" fill-opacity="1" /><path clip-path="url(#clip890)" d="M1379.62 227.231 L1383.9 227.231 L1383.9 248.504 L1396.61 237.324 L1402.05 237.324 L1388.3 249.453 L1402.63 263.249 L1397.08 263.249 L1383.9 250.587 L1383.9 263.249 L1379.62 263.249 L1379.62 227.231 Z" fill="#000000" fill-rule="nonzero" fill-opacity="1" /><path clip-path="url(#clip890)" d="M1421.45 231.861 Q1416.36 231.861 1413.35 235.657 Q1410.36 239.453 1410.36 246.004 Q1410.36 252.532 1413.35 256.328 Q1416.36 260.124 1421.45 260.124 Q1426.54 260.124 1429.51 256.328 Q1432.49 252.532 1432.49 246.004 Q1432.49 239.453 1429.51 235.657 Q1426.54 231.861 1421.45 231.861 M1421.45 228.064 Q1428.72 228.064 1433.07 232.949 Q1437.42 237.81 1437.42 246.004 Q1437.42 254.175 1433.07 259.06 Q1428.72 263.921 1421.45 263.921 Q1414.16 263.921 1409.78 259.06 Q1405.43 254.199 1405.43 246.004 Q1405.43 237.81 1409.78 232.949 Q1414.16 228.064 1421.45 228.064 Z" fill="#000000" fill-rule="nonzero" fill-opacity="1" /><path clip-path="url(#clip890)" d="M1466.1 247.601 L1466.1 263.249 L1461.84 263.249 L1461.84 247.74 Q1461.84 244.06 1460.41 242.231 Q1458.97 240.402 1456.1 240.402 Q1452.65 240.402 1450.66 242.601 Q1448.67 244.8 1448.67 248.597 L1448.67 263.249 L1444.39 263.249 L1444.39 237.324 L1448.67 237.324 L1448.67 241.351 Q1450.2 239.013 1452.26 237.856 Q1454.34 236.699 1457.05 236.699 Q1461.52 236.699 1463.81 239.476 Q1466.1 242.231 1466.1 247.601 Z" fill="#000000" fill-rule="nonzero" fill-opacity="1" /><path clip-path="url(#clip890)" d="M1495.5 229.824 L1495.5 234.384 Q1492.84 233.111 1490.48 232.486 Q1488.12 231.861 1485.92 231.861 Q1482.1 231.861 1480.01 233.342 Q1477.95 234.824 1477.95 237.555 Q1477.95 239.847 1479.32 241.027 Q1480.71 242.185 1484.55 242.902 L1487.38 243.481 Q1492.61 244.476 1495.08 247 Q1497.58 249.499 1497.58 253.712 Q1497.58 258.736 1494.2 261.328 Q1490.85 263.921 1484.34 263.921 Q1481.89 263.921 1479.11 263.365 Q1476.36 262.81 1473.39 261.722 L1473.39 256.907 Q1476.24 258.504 1478.97 259.314 Q1481.7 260.124 1484.34 260.124 Q1488.35 260.124 1490.52 258.55 Q1492.7 256.976 1492.7 254.06 Q1492.7 251.513 1491.13 250.078 Q1489.58 248.643 1486.01 247.925 L1483.16 247.37 Q1477.93 246.328 1475.59 244.106 Q1473.26 241.884 1473.26 237.925 Q1473.26 233.342 1476.47 230.703 Q1479.71 228.064 1485.39 228.064 Q1487.82 228.064 1490.34 228.504 Q1492.86 228.944 1495.5 229.824 Z" fill="#000000" fill-rule="nonzero" fill-opacity="1" /><path clip-path="url(#clip890)" d="M1504.69 227.231 L1508.95 227.231 L1508.95 263.249 L1504.69 263.249 L1504.69 227.231 Z" fill="#000000" fill-rule="nonzero" fill-opacity="1" /><path clip-path="url(#clip890)" d="M1527.91 240.31 Q1524.48 240.31 1522.49 242.995 Q1520.5 245.657 1520.5 250.31 Q1520.5 254.962 1522.47 257.648 Q1524.46 260.31 1527.91 260.31 Q1531.31 260.31 1533.3 257.624 Q1535.29 254.939 1535.29 250.31 Q1535.29 245.703 1533.3 243.018 Q1531.31 240.31 1527.91 240.31 M1527.91 236.699 Q1533.46 236.699 1536.64 240.31 Q1539.81 243.921 1539.81 250.31 Q1539.81 256.675 1536.64 260.31 Q1533.46 263.921 1527.91 263.921 Q1522.33 263.921 1519.16 260.31 Q1516.01 256.675 1516.01 250.31 Q1516.01 243.921 1519.16 240.31 Q1522.33 236.699 1527.91 236.699 Z" fill="#000000" fill-rule="nonzero" fill-opacity="1" /><path clip-path="url(#clip890)" d="M1550.99 259.361 L1550.99 273.11 L1546.7 273.11 L1546.7 237.324 L1550.99 237.324 L1550.99 241.259 Q1552.33 238.944 1554.37 237.833 Q1556.43 236.699 1559.27 236.699 Q1564 236.699 1566.94 240.449 Q1569.9 244.199 1569.9 250.31 Q1569.9 256.421 1566.94 260.171 Q1564 263.921 1559.27 263.921 Q1556.43 263.921 1554.37 262.81 Q1552.33 261.675 1550.99 259.361 M1565.48 250.31 Q1565.48 245.611 1563.53 242.949 Q1561.61 240.263 1558.23 240.263 Q1554.85 240.263 1552.91 242.949 Q1550.99 245.611 1550.99 250.31 Q1550.99 255.009 1552.91 257.694 Q1554.85 260.356 1558.23 260.356 Q1561.61 260.356 1563.53 257.694 Q1565.48 255.009 1565.48 250.31 Z" fill="#000000" fill-rule="nonzero" fill-opacity="1" /><path clip-path="url(#clip890)" d="M1599.13 249.222 L1599.13 251.305 L1579.55 251.305 Q1579.83 255.703 1582.19 258.018 Q1584.57 260.31 1588.81 260.31 Q1591.26 260.31 1593.56 259.708 Q1595.87 259.106 1598.14 257.902 L1598.14 261.93 Q1595.85 262.902 1593.44 263.411 Q1591.03 263.921 1588.56 263.921 Q1582.35 263.921 1578.72 260.31 Q1575.11 256.699 1575.11 250.541 Q1575.11 244.175 1578.53 240.449 Q1581.98 236.699 1587.82 236.699 Q1593.05 236.699 1596.08 240.078 Q1599.13 243.435 1599.13 249.222 M1594.88 247.972 Q1594.83 244.476 1592.91 242.393 Q1591.01 240.31 1587.86 240.31 Q1584.3 240.31 1582.14 242.324 Q1580.01 244.337 1579.69 247.995 L1594.88 247.972 Z" fill="#000000" fill-rule="nonzero" fill-opacity="1" /><path clip-path="url(#clip890)" d="M1606.73 257.37 L1611.61 257.37 L1611.61 263.249 L1606.73 263.249 L1606.73 257.37 Z" fill="#000000" fill-rule="nonzero" fill-opacity="1" /><path clip-path="url(#clip890)" d="M1620.75 253.018 L1620.75 237.324 L1625.01 237.324 L1625.01 252.856 Q1625.01 256.536 1626.45 258.388 Q1627.88 260.217 1630.75 260.217 Q1634.2 260.217 1636.19 258.018 Q1638.21 255.819 1638.21 252.023 L1638.21 237.324 L1642.47 237.324 L1642.47 263.249 L1638.21 263.249 L1638.21 259.268 Q1636.66 261.629 1634.6 262.786 Q1632.56 263.921 1629.85 263.921 Q1625.38 263.921 1623.07 261.143 Q1620.75 258.365 1620.75 253.018 M1631.47 236.699 L1631.47 236.699 Z" fill="#000000" fill-rule="nonzero" fill-opacity="1" /><path clip-path="url(#clip890)" d="M1667.77 238.088 L1667.77 242.115 Q1665.96 241.189 1664.02 240.726 Q1662.07 240.263 1659.99 240.263 Q1656.82 240.263 1655.22 241.236 Q1653.65 242.208 1653.65 244.152 Q1653.65 245.634 1654.78 246.49 Q1655.92 247.324 1659.34 248.087 L1660.8 248.412 Q1665.34 249.384 1667.24 251.166 Q1669.16 252.925 1669.16 256.097 Q1669.16 259.708 1666.29 261.814 Q1663.44 263.921 1658.44 263.921 Q1656.36 263.921 1654.09 263.504 Q1651.84 263.111 1649.34 262.3 L1649.34 257.902 Q1651.7 259.129 1654 259.754 Q1656.29 260.356 1658.53 260.356 Q1661.54 260.356 1663.16 259.337 Q1664.78 258.296 1664.78 256.421 Q1664.78 254.685 1663.6 253.759 Q1662.44 252.833 1658.49 251.976 L1657 251.629 Q1653.05 250.796 1651.29 249.083 Q1649.53 247.347 1649.53 244.337 Q1649.53 240.68 1652.12 238.689 Q1654.71 236.699 1659.48 236.699 Q1661.84 236.699 1663.93 237.046 Q1666.01 237.393 1667.77 238.088 Z" fill="#000000" fill-rule="nonzero" fill-opacity="1" /><path clip-path="url(#clip890)" d="M1687.72 250.217 Q1682.56 250.217 1680.57 251.398 Q1678.58 252.578 1678.58 255.425 Q1678.58 257.694 1680.06 259.036 Q1681.56 260.356 1684.13 260.356 Q1687.68 260.356 1689.81 257.856 Q1691.96 255.333 1691.96 251.166 L1691.96 250.217 L1687.72 250.217 M1696.22 248.458 L1696.22 263.249 L1691.96 263.249 L1691.96 259.314 Q1690.5 261.675 1688.32 262.81 Q1686.15 263.921 1683 263.921 Q1679.02 263.921 1676.66 261.699 Q1674.32 259.453 1674.32 255.703 Q1674.32 251.328 1677.24 249.106 Q1680.18 246.884 1685.99 246.884 L1691.96 246.884 L1691.96 246.467 Q1691.96 243.527 1690.01 241.93 Q1688.09 240.31 1684.6 240.31 Q1682.37 240.31 1680.27 240.842 Q1678.16 241.375 1676.22 242.439 L1676.22 238.504 Q1678.56 237.601 1680.75 237.162 Q1682.95 236.699 1685.04 236.699 Q1690.66 236.699 1693.44 239.615 Q1696.22 242.532 1696.22 248.458 Z" fill="#000000" fill-rule="nonzero" fill-opacity="1" /><path clip-path="url(#clip890)" d="M1709.2 229.963 L1709.2 237.324 L1717.98 237.324 L1717.98 240.634 L1709.2 240.634 L1709.2 254.708 Q1709.2 257.879 1710.06 258.782 Q1710.94 259.685 1713.6 259.685 L1717.98 259.685 L1717.98 263.249 L1713.6 263.249 Q1708.67 263.249 1706.8 261.421 Q1704.92 259.569 1704.92 254.708 L1704.92 240.634 L1701.8 240.634 L1701.8 237.324 L1704.92 237.324 L1704.92 229.963 L1709.2 229.963 Z" fill="#000000" fill-rule="nonzero" fill-opacity="1" /><path clip-path="url(#clip890)" d="M1748.88 227.277 Q1745.78 232.601 1744.27 237.81 Q1742.77 243.018 1742.77 248.365 Q1742.77 253.712 1744.27 258.967 Q1745.8 264.198 1748.88 269.499 L1745.18 269.499 Q1741.7 264.06 1739.97 258.805 Q1738.25 253.55 1738.25 248.365 Q1738.25 243.203 1739.97 237.972 Q1741.68 232.74 1745.18 227.277 L1748.88 227.277 Z" fill="#000000" fill-rule="nonzero" fill-opacity="1" /><path clip-path="url(#clip890)" d="M1756.56 228.689 L1778.79 228.689 L1778.79 230.68 L1766.24 263.249 L1761.36 263.249 L1773.16 232.625 L1756.56 232.625 L1756.56 228.689 Z" fill="#000000" fill-rule="nonzero" fill-opacity="1" /><path clip-path="url(#clip890)" d="M1786.63 227.277 L1790.34 227.277 Q1793.81 232.74 1795.52 237.972 Q1797.26 243.203 1797.26 248.365 Q1797.26 253.55 1795.52 258.805 Q1793.81 264.06 1790.34 269.499 L1786.63 269.499 Q1789.71 264.198 1791.22 258.967 Q1792.74 253.712 1792.74 248.365 Q1792.74 243.018 1791.22 237.81 Q1789.71 232.601 1786.63 227.277 Z" fill="#000000" fill-rule="nonzero" fill-opacity="1" /><polyline clip-path="url(#clip890)" style="stroke:#0000ff; stroke-linecap:round; stroke-linejoin:round; stroke-width:4; stroke-opacity:1; fill:none" stroke-dasharray="16, 10" points="1149.17,297.809 1262.41,297.809 "/>
<path clip-path="url(#clip890)" d="M1303.53 281.664 L1303.53 286.224 Q1300.87 284.951 1298.51 284.326 Q1296.15 283.701 1293.95 283.701 Q1290.13 283.701 1288.05 285.182 Q1285.99 286.664 1285.99 289.395 Q1285.99 291.687 1287.35 292.867 Q1288.74 294.025 1292.59 294.742 L1295.41 295.321 Q1300.64 296.316 1303.12 298.84 Q1305.62 301.339 1305.62 305.552 Q1305.62 310.576 1302.24 313.168 Q1298.88 315.761 1292.38 315.761 Q1289.92 315.761 1287.15 315.205 Q1284.39 314.65 1281.43 313.562 L1281.43 308.747 Q1284.28 310.344 1287.01 311.154 Q1289.74 311.964 1292.38 311.964 Q1296.38 311.964 1298.56 310.39 Q1300.73 308.816 1300.73 305.9 Q1300.73 303.353 1299.16 301.918 Q1297.61 300.483 1294.04 299.765 L1291.2 299.21 Q1285.97 298.168 1283.63 295.946 Q1281.29 293.724 1281.29 289.765 Q1281.29 285.182 1284.51 282.543 Q1287.75 279.904 1293.42 279.904 Q1295.85 279.904 1298.37 280.344 Q1300.9 280.784 1303.53 281.664 Z" fill="#000000" fill-rule="nonzero" fill-opacity="1" /><path clip-path="url(#clip890)" d="M1316.94 281.803 L1316.94 289.164 L1325.71 289.164 L1325.71 292.474 L1316.94 292.474 L1316.94 306.548 Q1316.94 309.719 1317.79 310.622 Q1318.67 311.525 1321.34 311.525 L1325.71 311.525 L1325.71 315.089 L1321.34 315.089 Q1316.4 315.089 1314.53 313.261 Q1312.65 311.409 1312.65 306.548 L1312.65 292.474 L1309.53 292.474 L1309.53 289.164 L1312.65 289.164 L1312.65 281.803 L1316.94 281.803 Z" fill="#000000" fill-rule="nonzero" fill-opacity="1" /><path clip-path="url(#clip890)" d="M1343.09 302.057 Q1337.93 302.057 1335.94 303.238 Q1333.95 304.418 1333.95 307.265 Q1333.95 309.534 1335.43 310.876 Q1336.94 312.196 1339.51 312.196 Q1343.05 312.196 1345.18 309.696 Q1347.33 307.173 1347.33 303.006 L1347.33 302.057 L1343.09 302.057 M1351.59 300.298 L1351.59 315.089 L1347.33 315.089 L1347.33 311.154 Q1345.87 313.515 1343.7 314.65 Q1341.52 315.761 1338.37 315.761 Q1334.39 315.761 1332.03 313.539 Q1329.69 311.293 1329.69 307.543 Q1329.69 303.168 1332.61 300.946 Q1335.55 298.724 1341.36 298.724 L1347.33 298.724 L1347.33 298.307 Q1347.33 295.367 1345.39 293.77 Q1343.46 292.15 1339.97 292.15 Q1337.75 292.15 1335.64 292.682 Q1333.53 293.215 1331.59 294.279 L1331.59 290.344 Q1333.93 289.441 1336.13 289.002 Q1338.33 288.539 1340.41 288.539 Q1346.03 288.539 1348.81 291.455 Q1351.59 294.372 1351.59 300.298 Z" fill="#000000" fill-rule="nonzero" fill-opacity="1" /><path clip-path="url(#clip890)" d="M1364.58 281.803 L1364.58 289.164 L1373.35 289.164 L1373.35 292.474 L1364.58 292.474 L1364.58 306.548 Q1364.58 309.719 1365.43 310.622 Q1366.31 311.525 1368.97 311.525 L1373.35 311.525 L1373.35 315.089 L1368.97 315.089 Q1364.04 315.089 1362.17 313.261 Q1360.29 311.409 1360.29 306.548 L1360.29 292.474 L1357.17 292.474 L1357.17 289.164 L1360.29 289.164 L1360.29 281.803 L1364.58 281.803 Z" fill="#000000" fill-rule="nonzero" fill-opacity="1" /><path clip-path="url(#clip890)" d="M1401.13 301.062 L1401.13 303.145 L1381.54 303.145 Q1381.82 307.543 1384.18 309.858 Q1386.57 312.15 1390.8 312.15 Q1393.26 312.15 1395.55 311.548 Q1397.86 310.946 1400.13 309.742 L1400.13 313.77 Q1397.84 314.742 1395.43 315.251 Q1393.02 315.761 1390.55 315.761 Q1384.34 315.761 1380.71 312.15 Q1377.1 308.539 1377.1 302.381 Q1377.1 296.015 1380.52 292.289 Q1383.97 288.539 1389.81 288.539 Q1395.04 288.539 1398.07 291.918 Q1401.13 295.275 1401.13 301.062 M1396.87 299.812 Q1396.82 296.316 1394.9 294.233 Q1393 292.15 1389.85 292.15 Q1386.29 292.15 1384.14 294.164 Q1382.01 296.177 1381.68 299.835 L1396.87 299.812 Z" fill="#000000" fill-rule="nonzero" fill-opacity="1" /><path clip-path="url(#clip890)" d="M1445.36 301.062 L1445.36 303.145 L1425.78 303.145 Q1426.06 307.543 1428.42 309.858 Q1430.8 312.15 1435.04 312.15 Q1437.49 312.15 1439.78 311.548 Q1442.1 310.946 1444.37 309.742 L1444.37 313.77 Q1442.08 314.742 1439.67 315.251 Q1437.26 315.761 1434.78 315.761 Q1428.58 315.761 1424.95 312.15 Q1421.33 308.539 1421.33 302.381 Q1421.33 296.015 1424.76 292.289 Q1428.21 288.539 1434.04 288.539 Q1439.27 288.539 1442.31 291.918 Q1445.36 295.275 1445.36 301.062 M1441.1 299.812 Q1441.06 296.316 1439.14 294.233 Q1437.24 292.15 1434.09 292.15 Q1430.52 292.15 1428.37 294.164 Q1426.24 296.177 1425.92 299.835 L1441.1 299.812 Z" fill="#000000" fill-rule="nonzero" fill-opacity="1" /><path clip-path="url(#clip890)" d="M1449.3 289.164 L1453.81 289.164 L1461.91 310.923 L1470.01 289.164 L1474.53 289.164 L1464.81 315.089 L1459.02 315.089 L1449.3 289.164 Z" fill="#000000" fill-rule="nonzero" fill-opacity="1" /><path clip-path="url(#clip890)" d="M1502.58 301.062 L1502.58 303.145 L1483 303.145 Q1483.28 307.543 1485.64 309.858 Q1488.02 312.15 1492.26 312.15 Q1494.71 312.15 1497.01 311.548 Q1499.32 310.946 1501.59 309.742 L1501.59 313.77 Q1499.3 314.742 1496.89 315.251 Q1494.48 315.761 1492.01 315.761 Q1485.8 315.761 1482.17 312.15 Q1478.56 308.539 1478.56 302.381 Q1478.56 296.015 1481.98 292.289 Q1485.43 288.539 1491.26 288.539 Q1496.5 288.539 1499.53 291.918 Q1502.58 295.275 1502.58 301.062 M1498.33 299.812 Q1498.28 296.316 1496.36 294.233 Q1494.46 292.15 1491.31 292.15 Q1487.75 292.15 1485.59 294.164 Q1483.46 296.177 1483.14 299.835 L1498.33 299.812 Z" fill="#000000" fill-rule="nonzero" fill-opacity="1" /><path clip-path="url(#clip890)" d="M1531.13 299.441 L1531.13 315.089 L1526.87 315.089 L1526.87 299.58 Q1526.87 295.9 1525.43 294.071 Q1524 292.242 1521.13 292.242 Q1517.68 292.242 1515.69 294.441 Q1513.7 296.64 1513.7 300.437 L1513.7 315.089 L1509.41 315.089 L1509.41 289.164 L1513.7 289.164 L1513.7 293.191 Q1515.22 290.853 1517.28 289.696 Q1519.37 288.539 1522.07 288.539 Q1526.54 288.539 1528.83 291.316 Q1531.13 294.071 1531.13 299.441 Z" fill="#000000" fill-rule="nonzero" fill-opacity="1" /><path clip-path="url(#clip890)" d="M1543.83 281.803 L1543.83 289.164 L1552.61 289.164 L1552.61 292.474 L1543.83 292.474 L1543.83 306.548 Q1543.83 309.719 1544.69 310.622 Q1545.57 311.525 1548.23 311.525 L1552.61 311.525 L1552.61 315.089 L1548.23 315.089 Q1543.3 315.089 1541.43 313.261 Q1539.55 311.409 1539.55 306.548 L1539.55 292.474 L1536.43 292.474 L1536.43 289.164 L1539.55 289.164 L1539.55 281.803 L1543.83 281.803 Z" fill="#000000" fill-rule="nonzero" fill-opacity="1" /><path clip-path="url(#clip890)" d="M1568.44 279.117 Q1565.34 284.441 1563.83 289.65 Q1562.33 294.858 1562.33 300.205 Q1562.33 305.552 1563.83 310.807 Q1565.36 316.038 1568.44 321.339 L1564.74 321.339 Q1561.26 315.9 1559.53 310.645 Q1557.82 305.39 1557.82 300.205 Q1557.82 295.043 1559.53 289.812 Q1561.24 284.58 1564.74 279.117 L1568.44 279.117 Z" fill="#000000" fill-rule="nonzero" fill-opacity="1" /><path clip-path="url(#clip890)" d="M1593.23 289.928 L1593.23 293.955 Q1591.43 293.029 1589.48 292.566 Q1587.54 292.103 1585.45 292.103 Q1582.28 292.103 1580.69 293.076 Q1579.11 294.048 1579.11 295.992 Q1579.11 297.474 1580.25 298.33 Q1581.38 299.164 1584.81 299.927 L1586.26 300.252 Q1590.8 301.224 1592.7 303.006 Q1594.62 304.765 1594.62 307.937 Q1594.62 311.548 1591.75 313.654 Q1588.9 315.761 1583.9 315.761 Q1581.82 315.761 1579.55 315.344 Q1577.31 314.951 1574.81 314.14 L1574.81 309.742 Q1577.17 310.969 1579.46 311.594 Q1581.75 312.196 1584 312.196 Q1587.01 312.196 1588.63 311.177 Q1590.25 310.136 1590.25 308.261 Q1590.25 306.525 1589.07 305.599 Q1587.91 304.673 1583.95 303.816 L1582.47 303.469 Q1578.51 302.636 1576.75 300.923 Q1574.99 299.187 1574.99 296.177 Q1574.99 292.52 1577.58 290.529 Q1580.18 288.539 1584.94 288.539 Q1587.31 288.539 1589.39 288.886 Q1591.47 289.233 1593.23 289.928 Z" fill="#000000" fill-rule="nonzero" fill-opacity="1" /><path clip-path="url(#clip890)" d="M1600.73 279.117 L1604.44 279.117 Q1607.91 284.58 1609.62 289.812 Q1611.36 295.043 1611.36 300.205 Q1611.36 305.39 1609.62 310.645 Q1607.91 315.9 1604.44 321.339 L1600.73 321.339 Q1603.81 316.038 1605.32 310.807 Q1606.84 305.552 1606.84 300.205 Q1606.84 294.858 1605.32 289.65 Q1603.81 284.441 1600.73 279.117 Z" fill="#000000" fill-rule="nonzero" fill-opacity="1" /></svg>
