<?xml version="1.0" encoding="utf-8"?>
<svg xmlns="http://www.w3.org/2000/svg" xmlns:xlink="http://www.w3.org/1999/xlink" width="600" height="400" viewBox="0 0 2400 1600">
<defs>
  <clipPath id="clip000">
    <rect x="0" y="0" width="2400" height="1600"/>
  </clipPath>
</defs>
<path clip-path="url(#clip000)" d="M0 1600 L2400 1600 L2400 0 L0 0  Z" fill="#ffffff" fill-rule="evenodd" fill-opacity="1"/>
<defs>
  <clipPath id="clip001">
    <rect x="480" y="0" width="1681" height="1600"/>
  </clipPath>
</defs>
<path clip-path="url(#clip000)" d="M272.297 680.645 L1195.77 680.645 L1195.77 123.472 L272.297 123.472  Z" fill="#ffffff" fill-rule="evenodd" fill-opacity="1"/>
<defs>
  <clipPath id="clip002">
    <rect x="272" y="123" width="924" height="558"/>
  </clipPath>
</defs>
<polyline clip-path="url(#clip002)" style="stroke:#000000; stroke-linecap:round; stroke-linejoin:round; stroke-width:2; stroke-opacity:0.1; fill:none" points="298.433,680.645 298.433,123.472 "/>
<polyline clip-path="url(#clip002)" style="stroke:#000000; stroke-linecap:round; stroke-linejoin:round; stroke-width:2; stroke-opacity:0.1; fill:none" points="634.52,680.645 634.52,123.472 "/>
<polyline clip-path="url(#clip002)" style="stroke:#000000; stroke-linecap:round; stroke-linejoin:round; stroke-width:2; stroke-opacity:0.1; fill:none" points="970.608,680.645 970.608,123.472 "/>
<polyline clip-path="url(#clip002)" style="stroke:#000000; stroke-linecap:round; stroke-linejoin:round; stroke-width:2; stroke-opacity:0.1; fill:none" points="272.297,625.228 1195.77,625.228 "/>
<polyline clip-path="url(#clip002)" style="stroke:#000000; stroke-linecap:round; stroke-linejoin:round; stroke-width:2; stroke-opacity:0.1; fill:none" points="272.297,528.028 1195.77,528.028 "/>
<polyline clip-path="url(#clip002)" style="stroke:#000000; stroke-linecap:round; stroke-linejoin:round; stroke-width:2; stroke-opacity:0.1; fill:none" points="272.297,430.829 1195.77,430.829 "/>
<polyline clip-path="url(#clip002)" style="stroke:#000000; stroke-linecap:round; stroke-linejoin:round; stroke-width:2; stroke-opacity:0.1; fill:none" points="272.297,333.629 1195.77,333.629 "/>
<polyline clip-path="url(#clip002)" style="stroke:#000000; stroke-linecap:round; stroke-linejoin:round; stroke-width:2; stroke-opacity:0.1; fill:none" points="272.297,236.429 1195.77,236.429 "/>
<polyline clip-path="url(#clip002)" style="stroke:#000000; stroke-linecap:round; stroke-linejoin:round; stroke-width:2; stroke-opacity:0.1; fill:none" points="272.297,139.23 1195.77,139.23 "/>
<polyline clip-path="url(#clip000)" style="stroke:#000000; stroke-linecap:round; stroke-linejoin:round; stroke-width:4; stroke-opacity:1; fill:none" points="272.297,680.645 1195.77,680.645 "/>
<polyline clip-path="url(#clip000)" style="stroke:#000000; stroke-linecap:round; stroke-linejoin:round; stroke-width:4; stroke-opacity:1; fill:none" points="298.433,680.645 298.433,661.747 "/>
<polyline clip-path="url(#clip000)" style="stroke:#000000; stroke-linecap:round; stroke-linejoin:round; stroke-width:4; stroke-opacity:1; fill:none" points="634.52,680.645 634.52,661.747 "/>
<polyline clip-path="url(#clip000)" style="stroke:#000000; stroke-linecap:round; stroke-linejoin:round; stroke-width:4; stroke-opacity:1; fill:none" points="970.608,680.645 970.608,661.747 "/>
<path clip-path="url(#clip000)" d="M248.548 754.77 L256.187 754.77 L256.187 728.404 L247.876 730.071 L247.876 725.811 L256.14 724.145 L260.816 724.145 L260.816 754.77 L268.455 754.77 L268.455 758.705 L248.548 758.705 L248.548 754.77 Z" fill="#000000" fill-rule="nonzero" fill-opacity="1" /><path clip-path="url(#clip000)" d="M287.899 727.223 Q284.288 727.223 282.46 730.788 Q280.654 734.33 280.654 741.459 Q280.654 748.566 282.46 752.131 Q284.288 755.672 287.899 755.672 Q291.534 755.672 293.339 752.131 Q295.168 748.566 295.168 741.459 Q295.168 734.33 293.339 730.788 Q291.534 727.223 287.899 727.223 M287.899 723.52 Q293.71 723.52 296.765 728.126 Q299.844 732.709 299.844 741.459 Q299.844 750.186 296.765 754.793 Q293.71 759.376 287.899 759.376 Q282.089 759.376 279.011 754.793 Q275.955 750.186 275.955 741.459 Q275.955 732.709 279.011 728.126 Q282.089 723.52 287.899 723.52 Z" fill="#000000" fill-rule="nonzero" fill-opacity="1" /><path clip-path="url(#clip000)" d="M299.844 717.621 L323.955 717.621 L323.955 720.818 L299.844 720.818 L299.844 717.621 Z" fill="#000000" fill-rule="nonzero" fill-opacity="1" /><path clip-path="url(#clip000)" d="M332.814 728.097 L339.02 728.097 L339.02 706.675 L332.268 708.029 L332.268 704.568 L338.983 703.214 L342.782 703.214 L342.782 728.097 L348.989 728.097 L348.989 731.294 L332.814 731.294 L332.814 728.097 Z" fill="#000000" fill-rule="nonzero" fill-opacity="1" /><path clip-path="url(#clip000)" d="M599.503 754.77 L607.142 754.77 L607.142 728.404 L598.832 730.071 L598.832 725.811 L607.096 724.145 L611.771 724.145 L611.771 754.77 L619.41 754.77 L619.41 758.705 L599.503 758.705 L599.503 754.77 Z" fill="#000000" fill-rule="nonzero" fill-opacity="1" /><path clip-path="url(#clip000)" d="M638.855 727.223 Q635.244 727.223 633.415 730.788 Q631.609 734.33 631.609 741.459 Q631.609 748.566 633.415 752.131 Q635.244 755.672 638.855 755.672 Q642.489 755.672 644.294 752.131 Q646.123 748.566 646.123 741.459 Q646.123 734.33 644.294 730.788 Q642.489 727.223 638.855 727.223 M638.855 723.52 Q644.665 723.52 647.72 728.126 Q650.799 732.709 650.799 741.459 Q650.799 750.186 647.72 754.793 Q644.665 759.376 638.855 759.376 Q633.045 759.376 629.966 754.793 Q626.91 750.186 626.91 741.459 Q626.91 732.709 629.966 728.126 Q633.045 723.52 638.855 723.52 Z" fill="#000000" fill-rule="nonzero" fill-opacity="1" /><path clip-path="url(#clip000)" d="M660.504 705.716 Q657.57 705.716 656.084 708.612 Q654.617 711.49 654.617 717.282 Q654.617 723.056 656.084 725.953 Q657.57 728.83 660.504 728.83 Q663.457 728.83 664.924 725.953 Q666.409 723.056 666.409 717.282 Q666.409 711.49 664.924 708.612 Q663.457 705.716 660.504 705.716 M660.504 702.706 Q665.225 702.706 667.707 706.449 Q670.209 710.173 670.209 717.282 Q670.209 724.373 667.707 728.116 Q665.225 731.84 660.504 731.84 Q655.783 731.84 653.282 728.116 Q650.799 724.373 650.799 717.282 Q650.799 710.173 653.282 706.449 Q655.783 702.706 660.504 702.706 Z" fill="#000000" fill-rule="nonzero" fill-opacity="1" /><path clip-path="url(#clip000)" d="M936.935 754.77 L944.574 754.77 L944.574 728.404 L936.264 730.071 L936.264 725.811 L944.528 724.145 L949.204 724.145 L949.204 754.77 L956.843 754.77 L956.843 758.705 L936.935 758.705 L936.935 754.77 Z" fill="#000000" fill-rule="nonzero" fill-opacity="1" /><path clip-path="url(#clip000)" d="M976.287 727.223 Q972.676 727.223 970.847 730.788 Q969.042 734.33 969.042 741.459 Q969.042 748.566 970.847 752.131 Q972.676 755.672 976.287 755.672 Q979.921 755.672 981.727 752.131 Q983.556 748.566 983.556 741.459 Q983.556 734.33 981.727 730.788 Q979.921 727.223 976.287 727.223 M976.287 723.52 Q982.097 723.52 985.153 728.126 Q988.231 732.709 988.231 741.459 Q988.231 750.186 985.153 754.793 Q982.097 759.376 976.287 759.376 Q970.477 759.376 967.398 754.793 Q964.343 750.186 964.343 741.459 Q964.343 732.709 967.398 728.126 Q970.477 723.52 976.287 723.52 Z" fill="#000000" fill-rule="nonzero" fill-opacity="1" /><path clip-path="url(#clip000)" d="M988.777 728.097 L994.983 728.097 L994.983 706.675 L988.231 708.029 L988.231 704.568 L994.946 703.214 L998.745 703.214 L998.745 728.097 L1004.95 728.097 L1004.95 731.294 L988.777 731.294 L988.777 728.097 Z" fill="#000000" fill-rule="nonzero" fill-opacity="1" /><polyline clip-path="url(#clip000)" style="stroke:#000000; stroke-linecap:round; stroke-linejoin:round; stroke-width:4; stroke-opacity:1; fill:none" points="272.297,680.645 272.297,123.472 "/>
<polyline clip-path="url(#clip000)" style="stroke:#000000; stroke-linecap:round; stroke-linejoin:round; stroke-width:4; stroke-opacity:1; fill:none" points="272.297,625.228 291.194,625.228 "/>
<polyline clip-path="url(#clip000)" style="stroke:#000000; stroke-linecap:round; stroke-linejoin:round; stroke-width:4; stroke-opacity:1; fill:none" points="272.297,528.028 291.194,528.028 "/>
<polyline clip-path="url(#clip000)" style="stroke:#000000; stroke-linecap:round; stroke-linejoin:round; stroke-width:4; stroke-opacity:1; fill:none" points="272.297,430.829 291.194,430.829 "/>
<polyline clip-path="url(#clip000)" style="stroke:#000000; stroke-linecap:round; stroke-linejoin:round; stroke-width:4; stroke-opacity:1; fill:none" points="272.297,333.629 291.194,333.629 "/>
<polyline clip-path="url(#clip000)" style="stroke:#000000; stroke-linecap:round; stroke-linejoin:round; stroke-width:4; stroke-opacity:1; fill:none" points="272.297,236.429 291.194,236.429 "/>
<polyline clip-path="url(#clip000)" style="stroke:#000000; stroke-linecap:round; stroke-linejoin:round; stroke-width:4; stroke-opacity:1; fill:none" points="272.297,139.23 291.194,139.23 "/>
<path clip-path="url(#clip000)" d="M145.417 625.679 L175.093 625.679 L175.093 629.614 L145.417 629.614 L145.417 625.679 Z" fill="#000000" fill-rule="nonzero" fill-opacity="1" /><path clip-path="url(#clip000)" d="M189.213 638.573 L205.533 638.573 L205.533 642.508 L183.588 642.508 L183.588 638.573 Q186.251 635.818 190.834 631.188 Q195.44 626.536 196.621 625.193 Q198.866 622.67 199.746 620.934 Q200.649 619.175 200.649 617.485 Q200.649 614.73 198.704 612.994 Q196.783 611.258 193.681 611.258 Q191.482 611.258 189.028 612.022 Q186.598 612.786 183.82 614.337 L183.82 609.615 Q186.644 608.48 189.098 607.902 Q191.551 607.323 193.588 607.323 Q198.959 607.323 202.153 610.008 Q205.348 612.693 205.348 617.184 Q205.348 619.314 204.537 621.235 Q203.75 623.133 201.644 625.726 Q201.065 626.397 197.963 629.614 Q194.862 632.809 189.213 638.573 Z" fill="#000000" fill-rule="nonzero" fill-opacity="1" /><path clip-path="url(#clip000)" d="M215.394 607.948 L233.75 607.948 L233.75 611.883 L219.676 611.883 L219.676 620.355 Q220.695 620.008 221.713 619.846 Q222.732 619.661 223.75 619.661 Q229.537 619.661 232.917 622.832 Q236.297 626.003 236.297 631.42 Q236.297 636.999 232.824 640.1 Q229.352 643.179 223.033 643.179 Q220.857 643.179 218.588 642.809 Q216.343 642.438 213.936 641.698 L213.936 636.999 Q216.019 638.133 218.241 638.688 Q220.463 639.244 222.94 639.244 Q226.945 639.244 229.283 637.138 Q231.621 635.031 231.621 631.42 Q231.621 627.809 229.283 625.702 Q226.945 623.596 222.94 623.596 Q221.065 623.596 219.19 624.013 Q217.338 624.429 215.394 625.309 L215.394 607.948 Z" fill="#000000" fill-rule="nonzero" fill-opacity="1" /><path clip-path="url(#clip000)" d="M144.422 528.48 L174.098 528.48 L174.098 532.415 L144.422 532.415 L144.422 528.48 Z" fill="#000000" fill-rule="nonzero" fill-opacity="1" /><path clip-path="url(#clip000)" d="M188.218 541.373 L204.537 541.373 L204.537 545.308 L182.593 545.308 L182.593 541.373 Q185.255 538.618 189.838 533.989 Q194.445 529.336 195.625 527.994 Q197.871 525.47 198.75 523.734 Q199.653 521.975 199.653 520.285 Q199.653 517.531 197.709 515.795 Q195.787 514.058 192.686 514.058 Q190.487 514.058 188.033 514.822 Q185.602 515.586 182.825 517.137 L182.825 512.415 Q185.649 511.281 188.102 510.702 Q190.556 510.123 192.593 510.123 Q197.963 510.123 201.158 512.808 Q204.352 515.494 204.352 519.984 Q204.352 522.114 203.542 524.035 Q202.755 525.933 200.649 528.526 Q200.07 529.197 196.968 532.415 Q193.866 535.609 188.218 541.373 Z" fill="#000000" fill-rule="nonzero" fill-opacity="1" /><path clip-path="url(#clip000)" d="M224.352 513.827 Q220.741 513.827 218.912 517.392 Q217.107 520.933 217.107 528.063 Q217.107 535.169 218.912 538.734 Q220.741 542.276 224.352 542.276 Q227.986 542.276 229.792 538.734 Q231.621 535.169 231.621 528.063 Q231.621 520.933 229.792 517.392 Q227.986 513.827 224.352 513.827 M224.352 510.123 Q230.162 510.123 233.218 514.73 Q236.297 519.313 236.297 528.063 Q236.297 536.79 233.218 541.396 Q230.162 545.98 224.352 545.98 Q218.542 545.98 215.463 541.396 Q212.408 536.79 212.408 528.063 Q212.408 519.313 215.463 514.73 Q218.542 510.123 224.352 510.123 Z" fill="#000000" fill-rule="nonzero" fill-opacity="1" /><path clip-path="url(#clip000)" d="M145.417 431.28 L175.093 431.28 L175.093 435.215 L145.417 435.215 L145.417 431.28 Z" fill="#000000" fill-rule="nonzero" fill-opacity="1" /><path clip-path="url(#clip000)" d="M185.996 444.174 L193.635 444.174 L193.635 417.808 L185.325 419.475 L185.325 415.215 L193.588 413.549 L198.264 413.549 L198.264 444.174 L205.903 444.174 L205.903 448.109 L185.996 448.109 L185.996 444.174 Z" fill="#000000" fill-rule="nonzero" fill-opacity="1" /><path clip-path="url(#clip000)" d="M215.394 413.549 L233.75 413.549 L233.75 417.484 L219.676 417.484 L219.676 425.956 Q220.695 425.609 221.713 425.447 Q222.732 425.262 223.75 425.262 Q229.537 425.262 232.917 428.433 Q236.297 431.604 236.297 437.021 Q236.297 442.599 232.824 445.701 Q229.352 448.78 223.033 448.78 Q220.857 448.78 218.588 448.41 Q216.343 448.039 213.936 447.298 L213.936 442.599 Q216.019 443.734 218.241 444.289 Q220.463 444.845 222.94 444.845 Q226.945 444.845 229.283 442.738 Q231.621 440.632 231.621 437.021 Q231.621 433.41 229.283 431.303 Q226.945 429.197 222.94 429.197 Q221.065 429.197 219.19 429.613 Q217.338 430.03 215.394 430.91 L215.394 413.549 Z" fill="#000000" fill-rule="nonzero" fill-opacity="1" /><path clip-path="url(#clip000)" d="M144.422 334.08 L174.098 334.08 L174.098 338.016 L144.422 338.016 L144.422 334.08 Z" fill="#000000" fill-rule="nonzero" fill-opacity="1" /><path clip-path="url(#clip000)" d="M185.001 346.974 L192.639 346.974 L192.639 320.608 L184.329 322.275 L184.329 318.016 L192.593 316.349 L197.269 316.349 L197.269 346.974 L204.908 346.974 L204.908 350.909 L185.001 350.909 L185.001 346.974 Z" fill="#000000" fill-rule="nonzero" fill-opacity="1" /><path clip-path="url(#clip000)" d="M224.352 319.428 Q220.741 319.428 218.912 322.993 Q217.107 326.534 217.107 333.664 Q217.107 340.77 218.912 344.335 Q220.741 347.877 224.352 347.877 Q227.986 347.877 229.792 344.335 Q231.621 340.77 231.621 333.664 Q231.621 326.534 229.792 322.993 Q227.986 319.428 224.352 319.428 M224.352 315.724 Q230.162 315.724 233.218 320.331 Q236.297 324.914 236.297 333.664 Q236.297 342.391 233.218 346.997 Q230.162 351.58 224.352 351.58 Q218.542 351.58 215.463 346.997 Q212.408 342.391 212.408 333.664 Q212.408 324.914 215.463 320.331 Q218.542 315.724 224.352 315.724 Z" fill="#000000" fill-rule="nonzero" fill-opacity="1" /><path clip-path="url(#clip000)" d="M175.579 236.881 L205.255 236.881 L205.255 240.816 L175.579 240.816 L175.579 236.881 Z" fill="#000000" fill-rule="nonzero" fill-opacity="1" /><path clip-path="url(#clip000)" d="M215.394 219.149 L233.75 219.149 L233.75 223.085 L219.676 223.085 L219.676 231.557 Q220.695 231.21 221.713 231.048 Q222.732 230.862 223.75 230.862 Q229.537 230.862 232.917 234.034 Q236.297 237.205 236.297 242.622 Q236.297 248.2 232.824 251.302 Q229.352 254.381 223.033 254.381 Q220.857 254.381 218.588 254.01 Q216.343 253.64 213.936 252.899 L213.936 248.2 Q216.019 249.334 218.241 249.89 Q220.463 250.446 222.94 250.446 Q226.945 250.446 229.283 248.339 Q231.621 246.233 231.621 242.622 Q231.621 239.01 229.283 236.904 Q226.945 234.798 222.94 234.798 Q221.065 234.798 219.19 235.214 Q217.338 235.631 215.394 236.51 L215.394 219.149 Z" fill="#000000" fill-rule="nonzero" fill-opacity="1" /><path clip-path="url(#clip000)" d="M224.352 125.029 Q220.741 125.029 218.912 128.593 Q217.107 132.135 217.107 139.265 Q217.107 146.371 218.912 149.936 Q220.741 153.477 224.352 153.477 Q227.986 153.477 229.792 149.936 Q231.621 146.371 231.621 139.265 Q231.621 132.135 229.792 128.593 Q227.986 125.029 224.352 125.029 M224.352 121.325 Q230.162 121.325 233.218 125.931 Q236.297 130.515 236.297 139.265 Q236.297 147.991 233.218 152.598 Q230.162 157.181 224.352 157.181 Q218.542 157.181 215.463 152.598 Q212.408 147.991 212.408 139.265 Q212.408 130.515 215.463 125.931 Q218.542 121.325 224.352 121.325 Z" fill="#000000" fill-rule="nonzero" fill-opacity="1" /><path clip-path="url(#clip000)" d="M46.646 647.568 L46.646 637.987 L78.9838 625.861 L46.646 613.67 L46.646 604.09 L94.166 604.09 L94.166 610.36 L52.4388 610.36 L85.0312 622.614 L85.0312 629.075 L52.4388 641.329 L94.166 641.329 L94.166 647.568 L46.646 647.568 Z" fill="#000000" fill-rule="nonzero" fill-opacity="1" /><path clip-path="url(#clip000)" d="M76.2466 575.381 Q76.2466 582.478 77.8698 585.216 Q79.4931 587.953 83.408 587.953 Q86.5272 587.953 88.3732 585.916 Q90.1875 583.847 90.1875 580.314 Q90.1875 575.444 86.75 572.516 Q83.2807 569.556 77.5515 569.556 L76.2466 569.556 L76.2466 575.381 M73.8276 563.7 L94.166 563.7 L94.166 569.556 L88.7552 569.556 Q92.0017 571.561 93.5613 574.553 Q95.0891 577.545 95.0891 581.874 Q95.0891 587.348 92.0335 590.595 Q88.9462 593.809 83.7899 593.809 Q77.7743 593.809 74.7188 589.799 Q71.6633 585.757 71.6633 577.768 L71.6633 569.556 L71.0903 569.556 Q67.0481 569.556 64.852 572.23 Q62.624 574.871 62.624 579.678 Q62.624 582.733 63.356 585.629 Q64.0881 588.526 65.5522 591.199 L60.1413 591.199 Q58.9 587.985 58.2953 584.961 Q57.6587 581.937 57.6587 579.073 Q57.6587 571.338 61.6691 567.519 Q65.6795 563.7 73.8276 563.7 Z" fill="#000000" fill-rule="nonzero" fill-opacity="1" /><path clip-path="url(#clip000)" d="M75.9283 528.179 Q69.5626 528.179 66.0614 530.821 Q62.5603 533.431 62.5603 538.173 Q62.5603 542.884 66.0614 545.526 Q69.5626 548.135 75.9283 548.135 Q82.2622 548.135 85.7633 545.526 Q89.2644 542.884 89.2644 538.173 Q89.2644 533.431 85.7633 530.821 Q82.2622 528.179 75.9283 528.179 M89.7419 522.323 Q98.8448 522.323 103.269 526.365 Q107.725 530.407 107.725 538.746 Q107.725 541.833 107.248 544.571 Q106.802 547.308 105.847 549.886 L100.15 549.886 Q101.55 547.308 102.219 544.793 Q102.887 542.279 102.887 539.669 Q102.887 533.908 99.8633 531.044 Q96.8715 528.179 90.7922 528.179 L87.8958 528.179 Q91.0468 529.993 92.6064 532.826 Q94.166 535.659 94.166 539.605 Q94.166 546.162 89.169 550.172 Q84.1719 554.183 75.9283 554.183 Q67.6529 554.183 62.6558 550.172 Q57.6587 546.162 57.6587 539.605 Q57.6587 535.659 59.2183 532.826 Q60.7779 529.993 63.9289 528.179 L58.5181 528.179 L58.5181 522.323 L89.7419 522.323 Z" fill="#000000" fill-rule="nonzero" fill-opacity="1" /><path clip-path="url(#clip000)" d="M72.6499 480.627 L94.166 480.627 L94.166 486.484 L72.8409 486.484 Q67.7802 486.484 65.2657 488.457 Q62.7513 490.43 62.7513 494.377 Q62.7513 499.12 65.775 501.857 Q68.7987 504.594 74.0186 504.594 L94.166 504.594 L94.166 510.482 L58.5181 510.482 L58.5181 504.594 L64.0562 504.594 Q60.8416 502.493 59.2501 499.661 Q57.6587 496.796 57.6587 493.072 Q57.6587 486.929 61.4781 483.778 Q65.2657 480.627 72.6499 480.627 Z" fill="#000000" fill-rule="nonzero" fill-opacity="1" /><path clip-path="url(#clip000)" d="M58.5181 468.946 L58.5181 463.09 L94.166 463.09 L94.166 468.946 L58.5181 468.946 M44.6408 468.946 L44.6408 463.09 L52.0569 463.09 L52.0569 468.946 L44.6408 468.946 Z" fill="#000000" fill-rule="nonzero" fill-opacity="1" /><path clip-path="url(#clip000)" d="M48.3966 445.043 L58.5181 445.043 L58.5181 432.98 L63.0696 432.98 L63.0696 445.043 L82.4213 445.043 Q86.7818 445.043 88.0231 443.865 Q89.2644 442.656 89.2644 438.995 L89.2644 432.98 L94.166 432.98 L94.166 438.995 Q94.166 445.775 91.6516 448.353 Q89.1053 450.931 82.4213 450.931 L63.0696 450.931 L63.0696 455.228 L58.5181 455.228 L58.5181 450.931 L48.3966 450.931 L48.3966 445.043 Z" fill="#000000" fill-rule="nonzero" fill-opacity="1" /><path clip-path="url(#clip000)" d="M80.0978 425.882 L58.5181 425.882 L58.5181 420.026 L79.875 420.026 Q84.9358 420.026 87.482 418.052 Q89.9965 416.079 89.9965 412.132 Q89.9965 407.39 86.9728 404.652 Q83.9491 401.883 78.7292 401.883 L58.5181 401.883 L58.5181 396.027 L94.166 396.027 L94.166 401.883 L88.6915 401.883 Q91.938 404.016 93.5295 406.849 Q95.0891 409.65 95.0891 413.373 Q95.0891 419.516 91.2696 422.699 Q87.4502 425.882 80.0978 425.882 M57.6587 411.145 L57.6587 411.145 Z" fill="#000000" fill-rule="nonzero" fill-opacity="1" /><path clip-path="url(#clip000)" d="M63.9289 360.506 L44.6408 360.506 L44.6408 354.65 L94.166 354.65 L94.166 360.506 L88.8188 360.506 Q92.0017 362.352 93.5613 365.185 Q95.0891 367.986 95.0891 371.933 Q95.0891 378.394 89.9328 382.468 Q84.7766 386.51 76.3739 386.51 Q67.9712 386.51 62.8149 382.468 Q57.6587 378.394 57.6587 371.933 Q57.6587 367.986 59.2183 365.185 Q60.7461 362.352 63.9289 360.506 M76.3739 380.463 Q82.8351 380.463 86.5272 377.821 Q90.1875 375.147 90.1875 370.5 Q90.1875 365.853 86.5272 363.18 Q82.8351 360.506 76.3739 360.506 Q69.9127 360.506 66.2524 363.18 Q62.5603 365.853 62.5603 370.5 Q62.5603 375.147 66.2524 377.821 Q69.9127 380.463 76.3739 380.463 Z" fill="#000000" fill-rule="nonzero" fill-opacity="1" /><path clip-path="url(#clip000)" d="M74.8779 312.095 L77.7425 312.095 L77.7425 339.022 Q83.7899 338.64 86.9728 335.394 Q90.1238 332.115 90.1238 326.291 Q90.1238 322.917 89.2963 319.766 Q88.4687 316.583 86.8136 313.464 L92.3518 313.464 Q93.6886 316.615 94.3888 319.925 Q95.0891 323.235 95.0891 326.641 Q95.0891 335.171 90.1238 340.168 Q85.1586 345.133 76.6922 345.133 Q67.9393 345.133 62.8149 340.422 Q57.6587 335.68 57.6587 327.659 Q57.6587 320.466 62.3057 316.296 Q66.9208 312.095 74.8779 312.095 M73.1592 317.952 Q68.3531 318.015 65.4885 320.657 Q62.624 323.267 62.624 327.596 Q62.624 332.497 65.393 335.457 Q68.1621 338.385 73.191 338.831 L73.1592 317.952 Z" fill="#000000" fill-rule="nonzero" fill-opacity="1" /><path clip-path="url(#clip000)" d="M44.7045 267.694 Q52.0251 271.959 59.1865 274.028 Q66.3479 276.097 73.7003 276.097 Q81.0527 276.097 88.2778 274.028 Q95.471 271.927 102.76 267.694 L102.76 272.787 Q95.28 277.561 88.055 279.948 Q80.8299 282.304 73.7003 282.304 Q66.6025 282.304 59.4093 279.948 Q52.216 277.593 44.7045 272.787 L44.7045 267.694 Z" fill="#000000" fill-rule="nonzero" fill-opacity="1" /><path clip-path="url(#clip000)" d="M63.9289 232.874 L44.6408 232.874 L44.6408 227.017 L94.166 227.017 L94.166 232.874 L88.8188 232.874 Q92.0017 234.72 93.5613 237.553 Q95.0891 240.354 95.0891 244.3 Q95.0891 250.761 89.9328 254.836 Q84.7766 258.878 76.3739 258.878 Q67.9712 258.878 62.8149 254.836 Q57.6587 250.761 57.6587 244.3 Q57.6587 240.354 59.2183 237.553 Q60.7461 234.72 63.9289 232.874 M76.3739 252.83 Q82.8351 252.83 86.5272 250.189 Q90.1875 247.515 90.1875 242.868 Q90.1875 238.221 86.5272 235.547 Q82.8351 232.874 76.3739 232.874 Q69.9127 232.874 66.2524 235.547 Q62.5603 238.221 62.5603 242.868 Q62.5603 247.515 66.2524 250.189 Q69.9127 252.83 76.3739 252.83 Z" fill="#000000" fill-rule="nonzero" fill-opacity="1" /><path clip-path="url(#clip000)" d="M71.4723 208.27 L88.8825 208.27 L88.8825 197.958 Q88.8825 192.77 86.75 190.287 Q84.5856 187.773 80.1615 187.773 Q75.7055 187.773 73.6048 190.287 Q71.4723 192.77 71.4723 197.958 L71.4723 208.27 M51.9296 208.27 L66.2524 208.27 L66.2524 198.754 Q66.2524 194.043 64.5018 191.751 Q62.7194 189.428 59.091 189.428 Q55.4944 189.428 53.712 191.751 Q51.9296 194.043 51.9296 198.754 L51.9296 208.27 M46.646 214.7 L46.646 198.276 Q46.646 190.924 49.7016 186.945 Q52.7571 182.967 58.3908 182.967 Q62.7513 182.967 65.3294 185.004 Q67.9075 187.041 68.5441 190.987 Q69.5626 186.245 72.8091 183.635 Q76.0238 180.993 80.8617 180.993 Q87.2274 180.993 90.6967 185.322 Q94.166 189.651 94.166 197.64 L94.166 214.7 L46.646 214.7 Z" fill="#000000" fill-rule="nonzero" fill-opacity="1" /><path clip-path="url(#clip000)" d="M44.7045 171.158 L44.7045 166.066 Q52.216 161.291 59.4093 158.936 Q66.6025 156.549 73.7003 156.549 Q80.8299 156.549 88.055 158.936 Q95.28 161.291 102.76 166.066 L102.76 171.158 Q95.471 166.925 88.2778 164.856 Q81.0527 162.756 73.7003 162.756 Q66.3479 162.756 59.1865 164.856 Q52.0251 166.925 44.7045 171.158 Z" fill="#000000" fill-rule="nonzero" fill-opacity="1" /><polyline clip-path="url(#clip002)" style="stroke:#e69f00; stroke-linecap:round; stroke-linejoin:round; stroke-width:4; stroke-opacity:1; fill:none" points="298.433,139.241 648.432,140.593 742.814,144.163 799.661,149.859 872.326,167.034 920.618,190.622 956.842,218.913 985.84,250.299 1072.51,401.116 1092.81,449.042 1110.64,494.61 1126.52,537.719 1140.84,578.428 1153.88,616.867 1169.63,664.876 "/>
<path clip-path="url(#clip000)" d="M861.528 245.725 L1164.98 245.725 L1164.98 142.045 L861.528 142.045  Z" fill="#ffffff" fill-rule="evenodd" fill-opacity="1"/>
<polyline clip-path="url(#clip000)" style="stroke:#000000; stroke-linecap:round; stroke-linejoin:round; stroke-width:4; stroke-opacity:1; fill:none" points="861.528,245.725 1164.98,245.725 1164.98,142.045 861.528,142.045 861.528,245.725 "/>
<polyline clip-path="url(#clip000)" style="stroke:#e69f00; stroke-linecap:round; stroke-linejoin:round; stroke-width:4; stroke-opacity:1; fill:none" points="871.789,193.885 933.353,193.885 "/>
<path clip-path="url(#clip000)" d="M958.799 189.22 Q958.082 188.804 957.225 188.618 Q956.392 188.41 955.373 188.41 Q951.762 188.41 949.818 190.771 Q947.896 193.109 947.896 197.507 L947.896 211.165 L943.614 211.165 L943.614 185.239 L947.896 185.239 L947.896 189.267 Q949.239 186.905 951.392 185.771 Q953.545 184.614 956.623 184.614 Q957.063 184.614 957.595 184.683 Q958.128 184.73 958.776 184.845 L958.799 189.22 Z" fill="#000000" fill-rule="nonzero" fill-opacity="1" /><path clip-path="url(#clip000)" d="M984.401 197.137 L984.401 199.22 L964.818 199.22 Q965.095 203.618 967.457 205.933 Q969.841 208.225 974.077 208.225 Q976.531 208.225 978.822 207.623 Q981.137 207.021 983.406 205.817 L983.406 209.845 Q981.114 210.817 978.706 211.327 Q976.299 211.836 973.822 211.836 Q967.619 211.836 963.984 208.225 Q960.373 204.614 960.373 198.456 Q960.373 192.091 963.799 188.364 Q967.248 184.614 973.081 184.614 Q978.313 184.614 981.345 187.993 Q984.401 191.35 984.401 197.137 M980.142 195.887 Q980.095 192.391 978.174 190.308 Q976.276 188.225 973.128 188.225 Q969.563 188.225 967.41 190.239 Q965.281 192.253 964.957 195.91 L980.142 195.887 Z" fill="#000000" fill-rule="nonzero" fill-opacity="1" /><path clip-path="url(#clip000)" d="M1004.52 175.146 L1004.52 178.688 L1000.44 178.688 Q998.151 178.688 997.248 179.614 Q996.368 180.54 996.368 182.947 L996.368 185.239 L1003.38 185.239 L1003.38 188.549 L996.368 188.549 L996.368 211.165 L992.086 211.165 L992.086 188.549 L988.012 188.549 L988.012 185.239 L992.086 185.239 L992.086 183.433 Q992.086 179.105 994.1 177.137 Q996.114 175.146 1000.49 175.146 L1004.52 175.146 Z" fill="#000000" fill-rule="nonzero" fill-opacity="1" /><path clip-path="url(#clip000)" d="M1027.78 219.035 L1027.78 222.345 L1003.15 222.345 L1003.15 219.035 L1027.78 219.035 Z" fill="#000000" fill-rule="nonzero" fill-opacity="1" /><path clip-path="url(#clip000)" d="M1052.69 177.739 L1052.69 182.299 Q1050.03 181.026 1047.66 180.401 Q1045.3 179.776 1043.1 179.776 Q1039.28 179.776 1037.2 181.257 Q1035.14 182.739 1035.14 185.47 Q1035.14 187.762 1036.51 188.942 Q1037.9 190.1 1041.74 190.817 L1044.56 191.396 Q1049.79 192.391 1052.27 194.915 Q1054.77 197.415 1054.77 201.628 Q1054.77 206.651 1051.39 209.243 Q1048.03 211.836 1041.53 211.836 Q1039.08 211.836 1036.3 211.28 Q1033.54 210.725 1030.58 209.637 L1030.58 204.822 Q1033.43 206.419 1036.16 207.229 Q1038.89 208.04 1041.53 208.04 Q1045.53 208.04 1047.71 206.465 Q1049.89 204.891 1049.89 201.975 Q1049.89 199.428 1048.31 197.993 Q1046.76 196.558 1043.2 195.841 L1040.35 195.285 Q1035.12 194.243 1032.78 192.021 Q1030.44 189.799 1030.44 185.841 Q1030.44 181.257 1033.66 178.618 Q1036.9 175.98 1042.57 175.98 Q1045 175.98 1047.53 176.419 Q1050.05 176.859 1052.69 177.739 Z" fill="#000000" fill-rule="nonzero" fill-opacity="1" /><path clip-path="url(#clip000)" d="M1109.89 195.262 L1109.89 197.345 L1100.79 206.442 L1098.01 203.665 L1103.4 198.271 L1075.19 198.271 L1075.19 194.336 L1103.4 194.336 L1098.01 188.942 L1100.79 186.165 L1109.89 195.262 Z" fill="#000000" fill-rule="nonzero" fill-opacity="1" /><path clip-path="url(#clip000)" d="M1152.64 177.739 L1152.64 182.299 Q1149.98 181.026 1147.62 180.401 Q1145.26 179.776 1143.06 179.776 Q1139.24 179.776 1137.15 181.257 Q1135.09 182.739 1135.09 185.47 Q1135.09 187.762 1136.46 188.942 Q1137.85 190.1 1141.69 190.817 L1144.52 191.396 Q1149.75 192.391 1152.22 194.915 Q1154.72 197.415 1154.72 201.628 Q1154.72 206.651 1151.34 209.243 Q1147.99 211.836 1141.48 211.836 Q1139.03 211.836 1136.25 211.28 Q1133.5 210.725 1130.53 209.637 L1130.53 204.822 Q1133.38 206.419 1136.11 207.229 Q1138.84 208.04 1141.48 208.04 Q1145.49 208.04 1147.66 206.465 Q1149.84 204.891 1149.84 201.975 Q1149.84 199.428 1148.27 197.993 Q1146.71 196.558 1143.15 195.841 L1140.3 195.285 Q1135.07 194.243 1132.73 192.021 Q1130.4 189.799 1130.4 185.841 Q1130.4 181.257 1133.61 178.618 Q1136.85 175.98 1142.53 175.98 Q1144.96 175.98 1147.48 176.419 Q1150 176.859 1152.64 177.739 Z" fill="#000000" fill-rule="nonzero" fill-opacity="1" /><path clip-path="url(#clip000)" d="M272.297 1410.9 L1195.77 1410.9 L1195.77 853.724 L272.297 853.724  Z" fill="#ffffff" fill-rule="evenodd" fill-opacity="1"/>
<defs>
  <clipPath id="clip003">
    <rect x="272" y="853" width="924" height="558"/>
  </clipPath>
</defs>
<polyline clip-path="url(#clip003)" style="stroke:#000000; stroke-linecap:round; stroke-linejoin:round; stroke-width:2; stroke-opacity:0.1; fill:none" points="298.433,1410.9 298.433,853.724 "/>
<polyline clip-path="url(#clip003)" style="stroke:#000000; stroke-linecap:round; stroke-linejoin:round; stroke-width:2; stroke-opacity:0.1; fill:none" points="634.52,1410.9 634.52,853.724 "/>
<polyline clip-path="url(#clip003)" style="stroke:#000000; stroke-linecap:round; stroke-linejoin:round; stroke-width:2; stroke-opacity:0.1; fill:none" points="970.608,1410.9 970.608,853.724 "/>
<polyline clip-path="url(#clip003)" style="stroke:#000000; stroke-linecap:round; stroke-linejoin:round; stroke-width:2; stroke-opacity:0.1; fill:none" points="272.297,1343.52 1195.77,1343.52 "/>
<polyline clip-path="url(#clip003)" style="stroke:#000000; stroke-linecap:round; stroke-linejoin:round; stroke-width:2; stroke-opacity:0.1; fill:none" points="272.297,1224.31 1195.77,1224.31 "/>
<polyline clip-path="url(#clip003)" style="stroke:#000000; stroke-linecap:round; stroke-linejoin:round; stroke-width:2; stroke-opacity:0.1; fill:none" points="272.297,1105.1 1195.77,1105.1 "/>
<polyline clip-path="url(#clip003)" style="stroke:#000000; stroke-linecap:round; stroke-linejoin:round; stroke-width:2; stroke-opacity:0.1; fill:none" points="272.297,985.883 1195.77,985.883 "/>
<polyline clip-path="url(#clip003)" style="stroke:#000000; stroke-linecap:round; stroke-linejoin:round; stroke-width:2; stroke-opacity:0.1; fill:none" points="272.297,866.67 1195.77,866.67 "/>
<polyline clip-path="url(#clip000)" style="stroke:#000000; stroke-linecap:round; stroke-linejoin:round; stroke-width:4; stroke-opacity:1; fill:none" points="272.297,1410.9 1195.77,1410.9 "/>
<polyline clip-path="url(#clip000)" style="stroke:#000000; stroke-linecap:round; stroke-linejoin:round; stroke-width:4; stroke-opacity:1; fill:none" points="298.433,1410.9 298.433,1392 "/>
<polyline clip-path="url(#clip000)" style="stroke:#000000; stroke-linecap:round; stroke-linejoin:round; stroke-width:4; stroke-opacity:1; fill:none" points="634.52,1410.9 634.52,1392 "/>
<polyline clip-path="url(#clip000)" style="stroke:#000000; stroke-linecap:round; stroke-linejoin:round; stroke-width:4; stroke-opacity:1; fill:none" points="970.608,1410.9 970.608,1392 "/>
<path clip-path="url(#clip000)" d="M248.548 1485.02 L256.187 1485.02 L256.187 1458.66 L247.876 1460.32 L247.876 1456.06 L256.14 1454.4 L260.816 1454.4 L260.816 1485.02 L268.455 1485.02 L268.455 1488.96 L248.548 1488.96 L248.548 1485.02 Z" fill="#000000" fill-rule="nonzero" fill-opacity="1" /><path clip-path="url(#clip000)" d="M287.899 1457.48 Q284.288 1457.48 282.46 1461.04 Q280.654 1464.58 280.654 1471.71 Q280.654 1478.82 282.46 1482.38 Q284.288 1485.92 287.899 1485.92 Q291.534 1485.92 293.339 1482.38 Q295.168 1478.82 295.168 1471.71 Q295.168 1464.58 293.339 1461.04 Q291.534 1457.48 287.899 1457.48 M287.899 1453.77 Q293.71 1453.77 296.765 1458.38 Q299.844 1462.96 299.844 1471.71 Q299.844 1480.44 296.765 1485.04 Q293.71 1489.63 287.899 1489.63 Q282.089 1489.63 279.011 1485.04 Q275.955 1480.44 275.955 1471.71 Q275.955 1462.96 279.011 1458.38 Q282.089 1453.77 287.899 1453.77 Z" fill="#000000" fill-rule="nonzero" fill-opacity="1" /><path clip-path="url(#clip000)" d="M299.844 1447.87 L323.955 1447.87 L323.955 1451.07 L299.844 1451.07 L299.844 1447.87 Z" fill="#000000" fill-rule="nonzero" fill-opacity="1" /><path clip-path="url(#clip000)" d="M332.814 1458.35 L339.02 1458.35 L339.02 1436.93 L332.268 1438.28 L332.268 1434.82 L338.983 1433.47 L342.782 1433.47 L342.782 1458.35 L348.989 1458.35 L348.989 1461.55 L332.814 1461.55 L332.814 1458.35 Z" fill="#000000" fill-rule="nonzero" fill-opacity="1" /><path clip-path="url(#clip000)" d="M599.503 1485.02 L607.142 1485.02 L607.142 1458.66 L598.832 1460.32 L598.832 1456.06 L607.096 1454.4 L611.771 1454.4 L611.771 1485.02 L619.41 1485.02 L619.41 1488.96 L599.503 1488.96 L599.503 1485.02 Z" fill="#000000" fill-rule="nonzero" fill-opacity="1" /><path clip-path="url(#clip000)" d="M638.855 1457.48 Q635.244 1457.48 633.415 1461.04 Q631.609 1464.58 631.609 1471.71 Q631.609 1478.82 633.415 1482.38 Q635.244 1485.92 638.855 1485.92 Q642.489 1485.92 644.294 1482.38 Q646.123 1478.82 646.123 1471.71 Q646.123 1464.58 644.294 1461.04 Q642.489 1457.48 638.855 1457.48 M638.855 1453.77 Q644.665 1453.77 647.72 1458.38 Q650.799 1462.96 650.799 1471.71 Q650.799 1480.44 647.72 1485.04 Q644.665 1489.63 638.855 1489.63 Q633.045 1489.63 629.966 1485.04 Q626.91 1480.44 626.91 1471.71 Q626.91 1462.96 629.966 1458.38 Q633.045 1453.77 638.855 1453.77 Z" fill="#000000" fill-rule="nonzero" fill-opacity="1" /><path clip-path="url(#clip000)" d="M660.504 1435.97 Q657.57 1435.97 656.084 1438.86 Q654.617 1441.74 654.617 1447.53 Q654.617 1453.31 656.084 1456.2 Q657.57 1459.08 660.504 1459.08 Q663.457 1459.08 664.924 1456.2 Q666.409 1453.31 666.409 1447.53 Q666.409 1441.74 664.924 1438.86 Q663.457 1435.97 660.504 1435.97 M660.504 1432.96 Q665.225 1432.96 667.707 1436.7 Q670.209 1440.43 670.209 1447.53 Q670.209 1454.62 667.707 1458.37 Q665.225 1462.09 660.504 1462.09 Q655.783 1462.09 653.282 1458.37 Q650.799 1454.62 650.799 1447.53 Q650.799 1440.43 653.282 1436.7 Q655.783 1432.96 660.504 1432.96 Z" fill="#000000" fill-rule="nonzero" fill-opacity="1" /><path clip-path="url(#clip000)" d="M936.935 1485.02 L944.574 1485.02 L944.574 1458.66 L936.264 1460.32 L936.264 1456.06 L944.528 1454.4 L949.204 1454.4 L949.204 1485.02 L956.843 1485.02 L956.843 1488.96 L936.935 1488.96 L936.935 1485.02 Z" fill="#000000" fill-rule="nonzero" fill-opacity="1" /><path clip-path="url(#clip000)" d="M976.287 1457.48 Q972.676 1457.48 970.847 1461.04 Q969.042 1464.58 969.042 1471.71 Q969.042 1478.82 970.847 1482.38 Q972.676 1485.92 976.287 1485.92 Q979.921 1485.92 981.727 1482.38 Q983.556 1478.82 983.556 1471.71 Q983.556 1464.58 981.727 1461.04 Q979.921 1457.48 976.287 1457.48 M976.287 1453.77 Q982.097 1453.77 985.153 1458.38 Q988.231 1462.96 988.231 1471.71 Q988.231 1480.44 985.153 1485.04 Q982.097 1489.63 976.287 1489.63 Q970.477 1489.63 967.398 1485.04 Q964.343 1480.44 964.343 1471.71 Q964.343 1462.96 967.398 1458.38 Q970.477 1453.77 976.287 1453.77 Z" fill="#000000" fill-rule="nonzero" fill-opacity="1" /><path clip-path="url(#clip000)" d="M988.777 1458.35 L994.983 1458.35 L994.983 1436.93 L988.231 1438.28 L988.231 1434.82 L994.946 1433.47 L998.745 1433.47 L998.745 1458.35 L1004.95 1458.35 L1004.95 1461.55 L988.777 1461.55 L988.777 1458.35 Z" fill="#000000" fill-rule="nonzero" fill-opacity="1" /><path clip-path="url(#clip000)" d="M453.845 1526.67 L481.154 1526.67 L481.154 1532.08 L460.275 1532.08 L460.275 1546.08 L479.117 1546.08 L479.117 1551.49 L460.275 1551.49 L460.275 1574.19 L453.845 1574.19 L453.845 1526.67 Z" fill="#000000" fill-rule="nonzero" fill-opacity="1" /><path clip-path="url(#clip000)" d="M506.999 1544.01 Q506.012 1543.44 504.835 1543.18 Q503.689 1542.9 502.288 1542.9 Q497.323 1542.9 494.649 1546.14 Q492.008 1549.36 492.008 1555.41 L492.008 1574.19 L486.119 1574.19 L486.119 1538.54 L492.008 1538.54 L492.008 1544.08 Q493.854 1540.83 496.814 1539.27 Q499.774 1537.68 504.007 1537.68 Q504.612 1537.68 505.344 1537.77 Q506.076 1537.84 506.967 1538 L506.999 1544.01 Z" fill="#000000" fill-rule="nonzero" fill-opacity="1" /><path clip-path="url(#clip000)" d="M542.201 1554.9 L542.201 1557.76 L515.274 1557.76 Q515.656 1563.81 518.903 1566.99 Q522.181 1570.14 528.006 1570.14 Q531.38 1570.14 534.531 1569.32 Q537.713 1568.49 540.833 1566.83 L540.833 1572.37 Q537.682 1573.71 534.371 1574.41 Q531.061 1575.11 527.656 1575.11 Q519.126 1575.11 514.129 1570.14 Q509.163 1565.18 509.163 1556.71 Q509.163 1547.96 513.874 1542.83 Q518.616 1537.68 526.637 1537.68 Q533.83 1537.68 538 1542.33 Q542.201 1546.94 542.201 1554.9 M536.345 1553.18 Q536.281 1548.37 533.639 1545.51 Q531.029 1542.64 526.701 1542.64 Q521.799 1542.64 518.839 1545.41 Q515.911 1548.18 515.465 1553.21 L536.345 1553.18 Z" fill="#000000" fill-rule="nonzero" fill-opacity="1" /><path clip-path="url(#clip000)" d="M555.315 1556.39 Q555.315 1562.85 557.956 1566.55 Q560.63 1570.21 565.277 1570.21 Q569.924 1570.21 572.598 1566.55 Q575.271 1562.85 575.271 1556.39 Q575.271 1549.93 572.598 1546.27 Q569.924 1542.58 565.277 1542.58 Q560.63 1542.58 557.956 1546.27 Q555.315 1549.93 555.315 1556.39 M575.271 1568.84 Q573.425 1572.02 570.592 1573.58 Q567.791 1575.11 563.845 1575.11 Q557.383 1575.11 553.309 1569.95 Q549.267 1564.8 549.267 1556.39 Q549.267 1547.99 553.309 1542.83 Q557.383 1537.68 563.845 1537.68 Q567.791 1537.68 570.592 1539.24 Q573.425 1540.77 575.271 1543.95 L575.271 1538.54 L581.128 1538.54 L581.128 1587.74 L575.271 1587.74 L575.271 1568.84 Z" fill="#000000" fill-rule="nonzero" fill-opacity="1" /><path clip-path="url(#clip000)" d="M592.586 1560.12 L592.586 1538.54 L598.442 1538.54 L598.442 1559.89 Q598.442 1564.96 600.416 1567.5 Q602.389 1570.02 606.336 1570.02 Q611.078 1570.02 613.815 1566.99 Q616.585 1563.97 616.585 1558.75 L616.585 1538.54 L622.441 1538.54 L622.441 1574.19 L616.585 1574.19 L616.585 1568.71 Q614.452 1571.96 611.619 1573.55 Q608.818 1575.11 605.094 1575.11 Q598.952 1575.11 595.769 1571.29 Q592.586 1567.47 592.586 1560.12 M607.322 1537.68 L607.322 1537.68 Z" fill="#000000" fill-rule="nonzero" fill-opacity="1" /><path clip-path="url(#clip000)" d="M664.996 1554.9 L664.996 1557.76 L638.069 1557.76 Q638.451 1563.81 641.697 1566.99 Q644.976 1570.14 650.8 1570.14 Q654.174 1570.14 657.325 1569.32 Q660.508 1568.49 663.627 1566.83 L663.627 1572.37 Q660.476 1573.71 657.166 1574.41 Q653.856 1575.11 650.45 1575.11 Q641.92 1575.11 636.923 1570.14 Q631.958 1565.18 631.958 1556.71 Q631.958 1547.96 636.668 1542.83 Q641.411 1537.68 649.432 1537.68 Q656.625 1537.68 660.794 1542.33 Q664.996 1546.94 664.996 1554.9 M659.139 1553.18 Q659.076 1548.37 656.434 1545.51 Q653.824 1542.64 649.495 1542.64 Q644.594 1542.64 641.634 1545.41 Q638.705 1548.18 638.26 1553.21 L659.139 1553.18 Z" fill="#000000" fill-rule="nonzero" fill-opacity="1" /><path clip-path="url(#clip000)" d="M704.24 1552.67 L704.24 1574.19 L698.384 1574.19 L698.384 1552.86 Q698.384 1547.8 696.411 1545.29 Q694.437 1542.77 690.49 1542.77 Q685.748 1542.77 683.011 1545.79 Q680.273 1548.82 680.273 1554.04 L680.273 1574.19 L674.385 1574.19 L674.385 1538.54 L680.273 1538.54 L680.273 1544.08 Q682.374 1540.86 685.207 1539.27 Q688.071 1537.68 691.795 1537.68 Q697.938 1537.68 701.089 1541.5 Q704.24 1545.29 704.24 1552.67 Z" fill="#000000" fill-rule="nonzero" fill-opacity="1" /><path clip-path="url(#clip000)" d="M741.575 1539.91 L741.575 1545.38 Q739.093 1544.01 736.578 1543.34 Q734.096 1542.64 731.549 1542.64 Q725.852 1542.64 722.701 1546.27 Q719.55 1549.87 719.55 1556.39 Q719.55 1562.92 722.701 1566.55 Q725.852 1570.14 731.549 1570.14 Q734.096 1570.14 736.578 1569.47 Q739.093 1568.77 741.575 1567.41 L741.575 1572.82 Q739.124 1573.96 736.483 1574.54 Q733.873 1575.11 730.913 1575.11 Q722.86 1575.11 718.118 1570.05 Q713.375 1564.99 713.375 1556.39 Q713.375 1547.67 718.149 1542.68 Q722.956 1537.68 731.295 1537.68 Q734 1537.68 736.578 1538.25 Q739.156 1538.79 741.575 1539.91 Z" fill="#000000" fill-rule="nonzero" fill-opacity="1" /><path clip-path="url(#clip000)" d="M766.592 1577.5 Q764.11 1583.86 761.755 1585.8 Q759.399 1587.74 755.452 1587.74 L750.774 1587.74 L750.774 1582.84 L754.211 1582.84 Q756.63 1582.84 757.967 1581.7 Q759.304 1580.55 760.927 1576.29 L761.977 1573.61 L747.559 1538.54 L753.766 1538.54 L764.906 1566.42 L776.046 1538.54 L782.252 1538.54 L766.592 1577.5 Z" fill="#000000" fill-rule="nonzero" fill-opacity="1" /><path clip-path="url(#clip000)" d="M810.516 1524.66 L824.011 1524.66 L824.011 1529.21 L816.372 1529.21 L816.372 1578.23 L824.011 1578.23 L824.011 1582.78 L810.516 1582.78 L810.516 1524.66 Z" fill="#000000" fill-rule="nonzero" fill-opacity="1" /><path clip-path="url(#clip000)" d="M857.145 1544.01 Q856.158 1543.44 854.98 1543.18 Q853.834 1542.9 852.434 1542.9 Q847.469 1542.9 844.795 1546.14 Q842.153 1549.36 842.153 1555.41 L842.153 1574.19 L836.265 1574.19 L836.265 1538.54 L842.153 1538.54 L842.153 1544.08 Q843.999 1540.83 846.959 1539.27 Q849.92 1537.68 854.153 1537.68 Q854.757 1537.68 855.49 1537.77 Q856.222 1537.84 857.113 1538 L857.145 1544.01 Z" fill="#000000" fill-rule="nonzero" fill-opacity="1" /><path clip-path="url(#clip000)" d="M879.488 1556.27 Q872.39 1556.27 869.653 1557.89 Q866.916 1559.51 866.916 1563.43 Q866.916 1566.55 868.953 1568.39 Q871.022 1570.21 874.555 1570.21 Q879.425 1570.21 882.353 1566.77 Q885.313 1563.3 885.313 1557.57 L885.313 1556.27 L879.488 1556.27 M891.169 1553.85 L891.169 1574.19 L885.313 1574.19 L885.313 1568.77 Q883.308 1572.02 880.316 1573.58 Q877.324 1575.11 872.995 1575.11 Q867.521 1575.11 864.274 1572.05 Q861.06 1568.97 861.06 1563.81 Q861.06 1557.79 865.07 1554.74 Q869.112 1551.68 877.101 1551.68 L885.313 1551.68 L885.313 1551.11 Q885.313 1547.07 882.639 1544.87 Q879.998 1542.64 875.191 1542.64 Q872.136 1542.64 869.239 1543.38 Q866.343 1544.11 863.669 1545.57 L863.669 1540.16 Q866.884 1538.92 869.908 1538.31 Q872.932 1537.68 875.796 1537.68 Q883.53 1537.68 887.35 1541.69 Q891.169 1545.7 891.169 1553.85 Z" fill="#000000" fill-rule="nonzero" fill-opacity="1" /><path clip-path="url(#clip000)" d="M926.69 1543.95 L926.69 1524.66 L932.546 1524.66 L932.546 1574.19 L926.69 1574.19 L926.69 1568.84 Q924.844 1572.02 922.011 1573.58 Q919.21 1575.11 915.264 1575.11 Q908.802 1575.11 904.728 1569.95 Q900.686 1564.8 900.686 1556.39 Q900.686 1547.99 904.728 1542.83 Q908.802 1537.68 915.264 1537.68 Q919.21 1537.68 922.011 1539.24 Q924.844 1540.77 926.69 1543.95 M906.733 1556.39 Q906.733 1562.85 909.375 1566.55 Q912.049 1570.21 916.696 1570.21 Q921.343 1570.21 924.016 1566.55 Q926.69 1562.85 926.69 1556.39 Q926.69 1549.93 924.016 1546.27 Q921.343 1542.58 916.696 1542.58 Q912.049 1542.58 909.375 1546.27 Q906.733 1549.93 906.733 1556.39 Z" fill="#000000" fill-rule="nonzero" fill-opacity="1" /><path clip-path="url(#clip000)" d="M955.017 1526.67 L960.428 1526.67 L943.877 1580.23 L938.467 1580.23 L955.017 1526.67 Z" fill="#000000" fill-rule="nonzero" fill-opacity="1" /><path clip-path="url(#clip000)" d="M989.297 1539.59 L989.297 1545.13 Q986.814 1543.85 984.14 1543.22 Q981.467 1542.58 978.602 1542.58 Q974.242 1542.58 972.046 1543.92 Q969.881 1545.25 969.881 1547.93 Q969.881 1549.96 971.441 1551.14 Q973 1552.29 977.711 1553.34 L979.716 1553.78 Q985.955 1555.12 988.565 1557.57 Q991.206 1559.99 991.206 1564.35 Q991.206 1569.32 987.26 1572.21 Q983.345 1575.11 976.47 1575.11 Q973.605 1575.11 970.486 1574.54 Q967.399 1573.99 963.961 1572.88 L963.961 1566.83 Q967.208 1568.52 970.359 1569.38 Q973.51 1570.21 976.597 1570.21 Q980.735 1570.21 982.963 1568.81 Q985.191 1567.37 985.191 1564.8 Q985.191 1562.41 983.568 1561.14 Q981.976 1559.86 976.533 1558.68 L974.496 1558.21 Q969.054 1557.06 966.635 1554.71 Q964.216 1552.32 964.216 1548.18 Q964.216 1543.15 967.781 1540.42 Q971.345 1537.68 977.902 1537.68 Q981.149 1537.68 984.013 1538.16 Q986.878 1538.63 989.297 1539.59 Z" fill="#000000" fill-rule="nonzero" fill-opacity="1" /><path clip-path="url(#clip000)" d="M1014.22 1524.66 L1014.22 1582.78 L1000.72 1582.78 L1000.72 1578.23 L1008.33 1578.23 L1008.33 1529.21 L1000.72 1529.21 L1000.72 1524.66 L1014.22 1524.66 Z" fill="#000000" fill-rule="nonzero" fill-opacity="1" /><polyline clip-path="url(#clip000)" style="stroke:#000000; stroke-linecap:round; stroke-linejoin:round; stroke-width:4; stroke-opacity:1; fill:none" points="272.297,1410.9 272.297,853.724 "/>
<polyline clip-path="url(#clip000)" style="stroke:#000000; stroke-linecap:round; stroke-linejoin:round; stroke-width:4; stroke-opacity:1; fill:none" points="272.297,1343.52 291.194,1343.52 "/>
<polyline clip-path="url(#clip000)" style="stroke:#000000; stroke-linecap:round; stroke-linejoin:round; stroke-width:4; stroke-opacity:1; fill:none" points="272.297,1224.31 291.194,1224.31 "/>
<polyline clip-path="url(#clip000)" style="stroke:#000000; stroke-linecap:round; stroke-linejoin:round; stroke-width:4; stroke-opacity:1; fill:none" points="272.297,1105.1 291.194,1105.1 "/>
<polyline clip-path="url(#clip000)" style="stroke:#000000; stroke-linecap:round; stroke-linejoin:round; stroke-width:4; stroke-opacity:1; fill:none" points="272.297,985.883 291.194,985.883 "/>
<polyline clip-path="url(#clip000)" style="stroke:#000000; stroke-linecap:round; stroke-linejoin:round; stroke-width:4; stroke-opacity:1; fill:none" points="272.297,866.67 291.194,866.67 "/>
<path clip-path="url(#clip000)" d="M114.26 1343.97 L143.936 1343.97 L143.936 1347.91 L114.26 1347.91 L114.26 1343.97 Z" fill="#000000" fill-rule="nonzero" fill-opacity="1" /><path clip-path="url(#clip000)" d="M158.056 1356.87 L174.376 1356.87 L174.376 1360.8 L152.431 1360.8 L152.431 1356.87 Q155.093 1354.11 159.677 1349.48 Q164.283 1344.83 165.464 1343.49 Q167.709 1340.96 168.589 1339.23 Q169.491 1337.47 169.491 1335.78 Q169.491 1333.02 167.547 1331.29 Q165.626 1329.55 162.524 1329.55 Q160.325 1329.55 157.871 1330.31 Q155.44 1331.08 152.663 1332.63 L152.663 1327.91 Q155.487 1326.77 157.94 1326.19 Q160.394 1325.62 162.431 1325.62 Q167.802 1325.62 170.996 1328.3 Q174.19 1330.99 174.19 1335.48 Q174.19 1337.61 173.38 1339.53 Q172.593 1341.43 170.487 1344.02 Q169.908 1344.69 166.806 1347.91 Q163.704 1351.1 158.056 1356.87 Z" fill="#000000" fill-rule="nonzero" fill-opacity="1" /><path clip-path="url(#clip000)" d="M194.19 1329.32 Q190.579 1329.32 188.75 1332.88 Q186.945 1336.43 186.945 1343.56 Q186.945 1350.66 188.75 1354.23 Q190.579 1357.77 194.19 1357.77 Q197.825 1357.77 199.63 1354.23 Q201.459 1350.66 201.459 1343.56 Q201.459 1336.43 199.63 1332.88 Q197.825 1329.32 194.19 1329.32 M194.19 1325.62 Q200 1325.62 203.056 1330.22 Q206.135 1334.81 206.135 1343.56 Q206.135 1352.28 203.056 1356.89 Q200 1361.47 194.19 1361.47 Q188.38 1361.47 185.301 1356.89 Q182.246 1352.28 182.246 1343.56 Q182.246 1334.81 185.301 1330.22 Q188.38 1325.62 194.19 1325.62 Z" fill="#000000" fill-rule="nonzero" fill-opacity="1" /><path clip-path="url(#clip000)" d="M224.352 1329.32 Q220.741 1329.32 218.912 1332.88 Q217.107 1336.43 217.107 1343.56 Q217.107 1350.66 218.912 1354.23 Q220.741 1357.77 224.352 1357.77 Q227.986 1357.77 229.792 1354.23 Q231.621 1350.66 231.621 1343.56 Q231.621 1336.43 229.792 1332.88 Q227.986 1329.32 224.352 1329.32 M224.352 1325.62 Q230.162 1325.62 233.218 1330.22 Q236.297 1334.81 236.297 1343.56 Q236.297 1352.28 233.218 1356.89 Q230.162 1361.47 224.352 1361.47 Q218.542 1361.47 215.463 1356.89 Q212.408 1352.28 212.408 1343.56 Q212.408 1334.81 215.463 1330.22 Q218.542 1325.62 224.352 1325.62 Z" fill="#000000" fill-rule="nonzero" fill-opacity="1" /><path clip-path="url(#clip000)" d="M114.26 1224.76 L143.936 1224.76 L143.936 1228.69 L114.26 1228.69 L114.26 1224.76 Z" fill="#000000" fill-rule="nonzero" fill-opacity="1" /><path clip-path="url(#clip000)" d="M154.839 1237.65 L162.477 1237.65 L162.477 1211.29 L154.167 1212.95 L154.167 1208.69 L162.431 1207.03 L167.107 1207.03 L167.107 1237.65 L174.746 1237.65 L174.746 1241.59 L154.839 1241.59 L154.839 1237.65 Z" fill="#000000" fill-rule="nonzero" fill-opacity="1" /><path clip-path="url(#clip000)" d="M184.237 1207.03 L202.593 1207.03 L202.593 1210.96 L188.519 1210.96 L188.519 1219.44 Q189.538 1219.09 190.556 1218.93 Q191.575 1218.74 192.593 1218.74 Q198.38 1218.74 201.76 1221.91 Q205.139 1225.08 205.139 1230.5 Q205.139 1236.08 201.667 1239.18 Q198.195 1242.26 191.875 1242.26 Q189.7 1242.26 187.431 1241.89 Q185.186 1241.52 182.778 1240.78 L182.778 1236.08 Q184.862 1237.21 187.084 1237.77 Q189.306 1238.32 191.783 1238.32 Q195.787 1238.32 198.125 1236.22 Q200.463 1234.11 200.463 1230.5 Q200.463 1226.89 198.125 1224.78 Q195.787 1222.68 191.783 1222.68 Q189.908 1222.68 188.033 1223.09 Q186.181 1223.51 184.237 1224.39 L184.237 1207.03 Z" fill="#000000" fill-rule="nonzero" fill-opacity="1" /><path clip-path="url(#clip000)" d="M224.352 1210.11 Q220.741 1210.11 218.912 1213.67 Q217.107 1217.21 217.107 1224.34 Q217.107 1231.45 218.912 1235.01 Q220.741 1238.56 224.352 1238.56 Q227.986 1238.56 229.792 1235.01 Q231.621 1231.45 231.621 1224.34 Q231.621 1217.21 229.792 1213.67 Q227.986 1210.11 224.352 1210.11 M224.352 1206.4 Q230.162 1206.4 233.218 1211.01 Q236.297 1215.59 236.297 1224.34 Q236.297 1233.07 233.218 1237.68 Q230.162 1242.26 224.352 1242.26 Q218.542 1242.26 215.463 1237.68 Q212.408 1233.07 212.408 1224.34 Q212.408 1215.59 215.463 1211.01 Q218.542 1206.4 224.352 1206.4 Z" fill="#000000" fill-rule="nonzero" fill-opacity="1" /><path clip-path="url(#clip000)" d="M114.26 1105.55 L143.936 1105.55 L143.936 1109.48 L114.26 1109.48 L114.26 1105.55 Z" fill="#000000" fill-rule="nonzero" fill-opacity="1" /><path clip-path="url(#clip000)" d="M154.839 1118.44 L162.477 1118.44 L162.477 1092.07 L154.167 1093.74 L154.167 1089.48 L162.431 1087.82 L167.107 1087.82 L167.107 1118.44 L174.746 1118.44 L174.746 1122.38 L154.839 1122.38 L154.839 1118.44 Z" fill="#000000" fill-rule="nonzero" fill-opacity="1" /><path clip-path="url(#clip000)" d="M194.19 1090.89 Q190.579 1090.89 188.75 1094.46 Q186.945 1098 186.945 1105.13 Q186.945 1112.24 188.75 1115.8 Q190.579 1119.34 194.19 1119.34 Q197.825 1119.34 199.63 1115.8 Q201.459 1112.24 201.459 1105.13 Q201.459 1098 199.63 1094.46 Q197.825 1090.89 194.19 1090.89 M194.19 1087.19 Q200 1087.19 203.056 1091.8 Q206.135 1096.38 206.135 1105.13 Q206.135 1113.86 203.056 1118.46 Q200 1123.05 194.19 1123.05 Q188.38 1123.05 185.301 1118.46 Q182.246 1113.86 182.246 1105.13 Q182.246 1096.38 185.301 1091.8 Q188.38 1087.19 194.19 1087.19 Z" fill="#000000" fill-rule="nonzero" fill-opacity="1" /><path clip-path="url(#clip000)" d="M224.352 1090.89 Q220.741 1090.89 218.912 1094.46 Q217.107 1098 217.107 1105.13 Q217.107 1112.24 218.912 1115.8 Q220.741 1119.34 224.352 1119.34 Q227.986 1119.34 229.792 1115.8 Q231.621 1112.24 231.621 1105.13 Q231.621 1098 229.792 1094.46 Q227.986 1090.89 224.352 1090.89 M224.352 1087.19 Q230.162 1087.19 233.218 1091.8 Q236.297 1096.38 236.297 1105.13 Q236.297 1113.86 233.218 1118.46 Q230.162 1123.05 224.352 1123.05 Q218.542 1123.05 215.463 1118.46 Q212.408 1113.86 212.408 1105.13 Q212.408 1096.38 215.463 1091.8 Q218.542 1087.19 224.352 1087.19 Z" fill="#000000" fill-rule="nonzero" fill-opacity="1" /><path clip-path="url(#clip000)" d="M144.422 986.334 L174.098 986.334 L174.098 990.269 L144.422 990.269 L144.422 986.334 Z" fill="#000000" fill-rule="nonzero" fill-opacity="1" /><path clip-path="url(#clip000)" d="M184.237 968.603 L202.593 968.603 L202.593 972.538 L188.519 972.538 L188.519 981.01 Q189.538 980.663 190.556 980.501 Q191.575 980.316 192.593 980.316 Q198.38 980.316 201.76 983.487 Q205.139 986.658 205.139 992.075 Q205.139 997.653 201.667 1000.76 Q198.195 1003.83 191.875 1003.83 Q189.7 1003.83 187.431 1003.46 Q185.186 1003.09 182.778 1002.35 L182.778 997.653 Q184.862 998.788 187.084 999.343 Q189.306 999.899 191.783 999.899 Q195.787 999.899 198.125 997.792 Q200.463 995.686 200.463 992.075 Q200.463 988.464 198.125 986.357 Q195.787 984.251 191.783 984.251 Q189.908 984.251 188.033 984.667 Q186.181 985.084 184.237 985.964 L184.237 968.603 Z" fill="#000000" fill-rule="nonzero" fill-opacity="1" /><path clip-path="url(#clip000)" d="M224.352 971.681 Q220.741 971.681 218.912 975.246 Q217.107 978.788 217.107 985.917 Q217.107 993.024 218.912 996.589 Q220.741 1000.13 224.352 1000.13 Q227.986 1000.13 229.792 996.589 Q231.621 993.024 231.621 985.917 Q231.621 978.788 229.792 975.246 Q227.986 971.681 224.352 971.681 M224.352 967.978 Q230.162 967.978 233.218 972.584 Q236.297 977.167 236.297 985.917 Q236.297 994.644 233.218 999.251 Q230.162 1003.83 224.352 1003.83 Q218.542 1003.83 215.463 999.251 Q212.408 994.644 212.408 985.917 Q212.408 977.167 215.463 972.584 Q218.542 967.978 224.352 967.978 Z" fill="#000000" fill-rule="nonzero" fill-opacity="1" /><path clip-path="url(#clip000)" d="M224.352 852.469 Q220.741 852.469 218.912 856.033 Q217.107 859.575 217.107 866.705 Q217.107 873.811 218.912 877.376 Q220.741 880.918 224.352 880.918 Q227.986 880.918 229.792 877.376 Q231.621 873.811 231.621 866.705 Q231.621 859.575 229.792 856.033 Q227.986 852.469 224.352 852.469 M224.352 848.765 Q230.162 848.765 233.218 853.371 Q236.297 857.955 236.297 866.705 Q236.297 875.431 233.218 880.038 Q230.162 884.621 224.352 884.621 Q218.542 884.621 215.463 880.038 Q212.408 875.431 212.408 866.705 Q212.408 857.955 215.463 853.371 Q218.542 848.765 224.352 848.765 Z" fill="#000000" fill-rule="nonzero" fill-opacity="1" /><path clip-path="url(#clip000)" d="M21.7677 1314.42 L39.6235 1314.42 L39.6235 1306.33 Q39.6235 1301.85 37.3 1299.39 Q34.9765 1296.94 30.6797 1296.94 Q26.4147 1296.94 24.0912 1299.39 Q21.7677 1301.85 21.7677 1306.33 L21.7677 1314.42 M16.4842 1320.85 L16.4842 1306.33 Q16.4842 1298.34 20.1126 1294.27 Q23.7092 1290.16 30.6797 1290.16 Q37.7138 1290.16 41.3104 1294.27 Q44.907 1298.34 44.907 1306.33 L44.907 1314.42 L64.0042 1314.42 L64.0042 1320.85 L16.4842 1320.85 Z" fill="#000000" fill-rule="nonzero" fill-opacity="1" /><path clip-path="url(#clip000)" d="M42.4881 1252.16 L64.0042 1252.16 L64.0042 1258.02 L42.679 1258.02 Q37.6183 1258.02 35.1038 1259.99 Q32.5894 1261.96 32.5894 1265.91 Q32.5894 1270.65 35.6131 1273.39 Q38.6368 1276.13 43.8567 1276.13 L64.0042 1276.13 L64.0042 1282.02 L14.479 1282.02 L14.479 1276.13 L33.8944 1276.13 Q30.6797 1274.03 29.0883 1271.19 Q27.4968 1268.33 27.4968 1264.61 Q27.4968 1258.46 31.3163 1255.31 Q35.1038 1252.16 42.4881 1252.16 Z" fill="#000000" fill-rule="nonzero" fill-opacity="1" /><path clip-path="url(#clip000)" d="M46.0847 1224.28 Q46.0847 1231.38 47.7079 1234.11 Q49.3312 1236.85 53.2461 1236.85 Q56.3653 1236.85 58.2114 1234.81 Q60.0256 1232.75 60.0256 1229.21 Q60.0256 1224.34 56.5881 1221.41 Q53.1188 1218.45 47.3897 1218.45 L46.0847 1218.45 L46.0847 1224.28 M43.6657 1212.6 L64.0042 1212.6 L64.0042 1218.45 L58.5933 1218.45 Q61.8398 1220.46 63.3994 1223.45 Q64.9272 1226.44 64.9272 1230.77 Q64.9272 1236.25 61.8716 1239.49 Q58.7843 1242.71 53.6281 1242.71 Q47.6125 1242.71 44.5569 1238.7 Q41.5014 1234.66 41.5014 1226.67 L41.5014 1218.45 L40.9285 1218.45 Q36.8862 1218.45 34.6901 1221.13 Q32.4621 1223.77 32.4621 1228.58 Q32.4621 1231.63 33.1941 1234.53 Q33.9262 1237.42 35.3903 1240.1 L29.9795 1240.1 Q28.7381 1236.88 28.1334 1233.86 Q27.4968 1230.84 27.4968 1227.97 Q27.4968 1220.24 31.5072 1216.42 Q35.5176 1212.6 43.6657 1212.6 Z" fill="#000000" fill-rule="nonzero" fill-opacity="1" /><path clip-path="url(#clip000)" d="M29.4065 1177.81 L34.9447 1177.81 Q33.6716 1180.29 33.035 1182.97 Q32.3984 1185.64 32.3984 1188.5 Q32.3984 1192.86 33.7352 1195.06 Q35.072 1197.22 37.7456 1197.22 Q39.7826 1197.22 40.9603 1195.67 Q42.1061 1194.11 43.1565 1189.39 L43.6021 1187.39 Q44.9389 1181.15 47.3897 1178.54 Q49.8086 1175.9 54.1691 1175.9 Q59.1344 1175.9 62.0308 1179.85 Q64.9272 1183.76 64.9272 1190.64 Q64.9272 1193.5 64.3543 1196.62 Q63.8132 1199.71 62.6992 1203.14 L56.6518 1203.14 Q58.3387 1199.9 59.198 1196.75 Q60.0256 1193.6 60.0256 1190.51 Q60.0256 1186.37 58.6251 1184.14 Q57.1929 1181.92 54.6147 1181.92 Q52.2276 1181.92 50.9545 1183.54 Q49.6813 1185.13 48.5037 1190.57 L48.0262 1192.61 Q46.8804 1198.05 44.5251 1200.47 Q42.138 1202.89 38.0002 1202.89 Q32.9713 1202.89 30.2341 1199.33 Q27.4968 1195.76 27.4968 1189.2 Q27.4968 1185.96 27.9743 1183.09 Q28.4517 1180.23 29.4065 1177.81 Z" fill="#000000" fill-rule="nonzero" fill-opacity="1" /><path clip-path="url(#clip000)" d="M44.7161 1136.08 L47.5806 1136.08 L47.5806 1163.01 Q53.6281 1162.63 56.8109 1159.38 Q59.9619 1156.1 59.9619 1150.28 Q59.9619 1146.9 59.1344 1143.75 Q58.3069 1140.57 56.6518 1137.45 L62.1899 1137.45 Q63.5267 1140.6 64.227 1143.91 Q64.9272 1147.22 64.9272 1150.63 Q64.9272 1159.16 59.9619 1164.15 Q54.9967 1169.12 46.5303 1169.12 Q37.7774 1169.12 32.6531 1164.41 Q27.4968 1159.67 27.4968 1151.65 Q27.4968 1144.45 32.1438 1140.28 Q36.7589 1136.08 44.7161 1136.08 M42.9973 1141.94 Q38.1912 1142 35.3266 1144.64 Q32.4621 1147.25 32.4621 1151.58 Q32.4621 1156.48 35.2312 1159.44 Q38.0002 1162.37 43.0292 1162.82 L42.9973 1141.94 Z" fill="#000000" fill-rule="nonzero" fill-opacity="1" /><path clip-path="url(#clip000)" d="M14.5426 1091.68 Q21.8632 1095.95 29.0246 1098.02 Q36.186 1100.08 43.5384 1100.08 Q50.8908 1100.08 58.1159 1098.02 Q65.3091 1095.91 72.5979 1091.68 L72.5979 1096.77 Q65.1182 1101.55 57.8931 1103.94 Q50.668 1106.29 43.5384 1106.29 Q36.4406 1106.29 29.2474 1103.94 Q22.0542 1101.58 14.5426 1096.77 L14.5426 1091.68 Z" fill="#000000" fill-rule="nonzero" fill-opacity="1" /><path clip-path="url(#clip000)" d="M33.7671 1056.86 L14.479 1056.86 L14.479 1051 L64.0042 1051 L64.0042 1056.86 L58.657 1056.86 Q61.8398 1058.71 63.3994 1061.54 Q64.9272 1064.34 64.9272 1068.29 Q64.9272 1074.75 59.771 1078.82 Q54.6147 1082.86 46.212 1082.86 Q37.8093 1082.86 32.6531 1078.82 Q27.4968 1074.75 27.4968 1068.29 Q27.4968 1064.34 29.0564 1061.54 Q30.5842 1058.71 33.7671 1056.86 M46.212 1076.82 Q52.6732 1076.82 56.3653 1074.18 Q60.0256 1071.5 60.0256 1066.85 Q60.0256 1062.21 56.3653 1059.53 Q52.6732 1056.86 46.212 1056.86 Q39.7508 1056.86 36.0905 1059.53 Q32.3984 1062.21 32.3984 1066.85 Q32.3984 1071.5 36.0905 1074.18 Q39.7508 1076.82 46.212 1076.82 Z" fill="#000000" fill-rule="nonzero" fill-opacity="1" /><path clip-path="url(#clip000)" d="M44.7161 1008.45 L47.5806 1008.45 L47.5806 1035.38 Q53.6281 1034.99 56.8109 1031.75 Q59.9619 1028.47 59.9619 1022.65 Q59.9619 1019.27 59.1344 1016.12 Q58.3069 1012.94 56.6518 1009.82 L62.1899 1009.82 Q63.5267 1012.97 64.227 1016.28 Q64.9272 1019.59 64.9272 1023 Q64.9272 1031.53 59.9619 1036.52 Q54.9967 1041.49 46.5303 1041.49 Q37.7774 1041.49 32.6531 1036.78 Q27.4968 1032.03 27.4968 1024.01 Q27.4968 1016.82 32.1438 1012.65 Q36.7589 1008.45 44.7161 1008.45 M42.9973 1014.31 Q38.1912 1014.37 35.3266 1017.01 Q32.4621 1019.62 32.4621 1023.95 Q32.4621 1028.85 35.2312 1031.81 Q38.0002 1034.74 43.0292 1035.19 L42.9973 1014.31 Z" fill="#000000" fill-rule="nonzero" fill-opacity="1" /><path clip-path="url(#clip000)" d="M45.7664 975.38 Q39.4007 975.38 35.8996 978.022 Q32.3984 980.631 32.3984 985.374 Q32.3984 990.085 35.8996 992.726 Q39.4007 995.336 45.7664 995.336 Q52.1003 995.336 55.6014 992.726 Q59.1026 990.085 59.1026 985.374 Q59.1026 980.631 55.6014 978.022 Q52.1003 975.38 45.7664 975.38 M59.58 969.523 Q68.683 969.523 73.1071 973.566 Q77.5631 977.608 77.5631 985.947 Q77.5631 989.034 77.0857 991.771 Q76.6401 994.509 75.6852 997.087 L69.9879 997.087 Q71.3884 994.509 72.0568 991.994 Q72.7252 989.48 72.7252 986.87 Q72.7252 981.109 69.7015 978.244 Q66.7096 975.38 60.6303 975.38 L57.7339 975.38 Q60.885 977.194 62.4446 980.027 Q64.0042 982.859 64.0042 986.806 Q64.0042 993.363 59.0071 997.373 Q54.01 1001.38 45.7664 1001.38 Q37.491 1001.38 32.4939 997.373 Q27.4968 993.363 27.4968 986.806 Q27.4968 982.859 29.0564 980.027 Q30.616 977.194 33.7671 975.38 L28.3562 975.38 L28.3562 969.523 L59.58 969.523 Z" fill="#000000" fill-rule="nonzero" fill-opacity="1" /><path clip-path="url(#clip000)" d="M14.5426 958.383 L14.5426 953.291 Q22.0542 948.517 29.2474 946.161 Q36.4406 943.774 43.5384 943.774 Q50.668 943.774 57.8931 946.161 Q65.1182 948.517 72.5979 953.291 L72.5979 958.383 Q65.3091 954.15 58.1159 952.081 Q50.8908 949.981 43.5384 949.981 Q36.186 949.981 29.0246 952.081 Q21.8632 954.15 14.5426 958.383 Z" fill="#000000" fill-rule="nonzero" fill-opacity="1" /><polyline clip-path="url(#clip003)" style="stroke:#e69f00; stroke-linecap:round; stroke-linejoin:round; stroke-width:4; stroke-opacity:1; fill:none" points="298.433,869.493 840.469,979.75 898.46,1030.51 939.851,1076.96 972.06,1118.72 998.431,1155.85 1020.76,1188.68 1040.12,1217.64 1057.21,1243.22 1079.6,1276.24 1092.81,1295.27 1110.64,1320.18 1126.52,1341.54 1140.84,1360.07 1153.88,1376.31 1169.63,1395.13 "/>
<path clip-path="url(#clip000)" d="M1429.29 1410.9 L2352.76 1410.9 L2352.76 123.472 L1429.29 123.472  Z" fill="#ffffff" fill-rule="evenodd" fill-opacity="1"/>
<defs>
  <clipPath id="clip004">
    <rect x="1429" y="123" width="924" height="1288"/>
  </clipPath>
</defs>
<polyline clip-path="url(#clip004)" style="stroke:#000000; stroke-linecap:round; stroke-linejoin:round; stroke-width:2; stroke-opacity:0.1; fill:none" points="1456,1410.9 1456,123.472 "/>
<polyline clip-path="url(#clip004)" style="stroke:#000000; stroke-linecap:round; stroke-linejoin:round; stroke-width:2; stroke-opacity:0.1; fill:none" points="1746.21,1410.9 1746.21,123.472 "/>
<polyline clip-path="url(#clip004)" style="stroke:#000000; stroke-linecap:round; stroke-linejoin:round; stroke-width:2; stroke-opacity:0.1; fill:none" points="2036.41,1410.9 2036.41,123.472 "/>
<polyline clip-path="url(#clip004)" style="stroke:#000000; stroke-linecap:round; stroke-linejoin:round; stroke-width:2; stroke-opacity:0.1; fill:none" points="2326.62,1410.9 2326.62,123.472 "/>
<polyline clip-path="url(#clip004)" style="stroke:#000000; stroke-linecap:round; stroke-linejoin:round; stroke-width:2; stroke-opacity:0.1; fill:none" points="1429.29,1374.46 2352.76,1374.46 "/>
<polyline clip-path="url(#clip004)" style="stroke:#000000; stroke-linecap:round; stroke-linejoin:round; stroke-width:2; stroke-opacity:0.1; fill:none" points="1429.29,1070.82 2352.76,1070.82 "/>
<polyline clip-path="url(#clip004)" style="stroke:#000000; stroke-linecap:round; stroke-linejoin:round; stroke-width:2; stroke-opacity:0.1; fill:none" points="1429.29,767.184 2352.76,767.184 "/>
<polyline clip-path="url(#clip004)" style="stroke:#000000; stroke-linecap:round; stroke-linejoin:round; stroke-width:2; stroke-opacity:0.1; fill:none" points="1429.29,463.547 2352.76,463.547 "/>
<polyline clip-path="url(#clip004)" style="stroke:#000000; stroke-linecap:round; stroke-linejoin:round; stroke-width:2; stroke-opacity:0.1; fill:none" points="1429.29,159.909 2352.76,159.909 "/>
<polyline clip-path="url(#clip000)" style="stroke:#000000; stroke-linecap:round; stroke-linejoin:round; stroke-width:4; stroke-opacity:1; fill:none" points="1429.29,1374.46 2352.76,1374.46 "/>
<polyline clip-path="url(#clip000)" style="stroke:#000000; stroke-linecap:round; stroke-linejoin:round; stroke-width:4; stroke-opacity:0; fill:none" points="1456,1374.46 1456,1374.46 "/>
<polyline clip-path="url(#clip000)" style="stroke:#000000; stroke-linecap:round; stroke-linejoin:round; stroke-width:4; stroke-opacity:0; fill:none" points="1746.21,1374.46 1746.21,1374.46 "/>
<polyline clip-path="url(#clip000)" style="stroke:#000000; stroke-linecap:round; stroke-linejoin:round; stroke-width:4; stroke-opacity:0; fill:none" points="2036.41,1374.46 2036.41,1374.46 "/>
<polyline clip-path="url(#clip000)" style="stroke:#000000; stroke-linecap:round; stroke-linejoin:round; stroke-width:4; stroke-opacity:0; fill:none" points="2326.62,1374.46 2326.62,1374.46 "/>
<path clip-path="url(#clip000)" d="M1394.98 1456.47 L1424.66 1456.47 L1424.66 1460.4 L1394.98 1460.4 L1394.98 1456.47 Z" fill="#000000" fill-rule="nonzero" fill-opacity="1" /><path clip-path="url(#clip000)" d="M1435.56 1469.36 L1443.2 1469.36 L1443.2 1443 L1434.89 1444.66 L1434.89 1440.4 L1443.15 1438.74 L1447.83 1438.74 L1447.83 1469.36 L1455.47 1469.36 L1455.47 1473.3 L1435.56 1473.3 L1435.56 1469.36 Z" fill="#000000" fill-rule="nonzero" fill-opacity="1" /><path clip-path="url(#clip000)" d="M1464.96 1438.74 L1483.32 1438.74 L1483.32 1442.67 L1469.24 1442.67 L1469.24 1451.14 Q1470.26 1450.8 1471.28 1450.63 Q1472.3 1450.45 1473.32 1450.45 Q1479.1 1450.45 1482.48 1453.62 Q1485.86 1456.79 1485.86 1462.21 Q1485.86 1467.79 1482.39 1470.89 Q1478.92 1473.97 1472.6 1473.97 Q1470.42 1473.97 1468.15 1473.6 Q1465.91 1473.23 1463.5 1472.49 L1463.5 1467.79 Q1465.58 1468.92 1467.81 1469.48 Q1470.03 1470.03 1472.51 1470.03 Q1476.51 1470.03 1478.85 1467.93 Q1481.19 1465.82 1481.19 1462.21 Q1481.19 1458.6 1478.85 1456.49 Q1476.51 1454.38 1472.51 1454.38 Q1470.63 1454.38 1468.76 1454.8 Q1466.9 1455.22 1464.96 1456.1 L1464.96 1438.74 Z" fill="#000000" fill-rule="nonzero" fill-opacity="1" /><path clip-path="url(#clip000)" d="M1505.08 1441.82 Q1501.46 1441.82 1499.64 1445.38 Q1497.83 1448.92 1497.83 1456.05 Q1497.83 1463.16 1499.64 1466.72 Q1501.46 1470.26 1505.08 1470.26 Q1508.71 1470.26 1510.52 1466.72 Q1512.34 1463.16 1512.34 1456.05 Q1512.34 1448.92 1510.52 1445.38 Q1508.71 1441.82 1505.08 1441.82 M1505.08 1438.11 Q1510.89 1438.11 1513.94 1442.72 Q1517.02 1447.3 1517.02 1456.05 Q1517.02 1464.78 1513.94 1469.38 Q1510.89 1473.97 1505.08 1473.97 Q1499.27 1473.97 1496.19 1469.38 Q1493.13 1464.78 1493.13 1456.05 Q1493.13 1447.3 1496.19 1442.72 Q1499.27 1438.11 1505.08 1438.11 Z" fill="#000000" fill-rule="nonzero" fill-opacity="1" /><path clip-path="url(#clip000)" d="M1685.19 1456.47 L1714.87 1456.47 L1714.87 1460.4 L1685.19 1460.4 L1685.19 1456.47 Z" fill="#000000" fill-rule="nonzero" fill-opacity="1" /><path clip-path="url(#clip000)" d="M1725.77 1469.36 L1733.41 1469.36 L1733.41 1443 L1725.1 1444.66 L1725.1 1440.4 L1733.36 1438.74 L1738.04 1438.74 L1738.04 1469.36 L1745.68 1469.36 L1745.68 1473.3 L1725.77 1473.3 L1725.77 1469.36 Z" fill="#000000" fill-rule="nonzero" fill-opacity="1" /><path clip-path="url(#clip000)" d="M1765.12 1441.82 Q1761.51 1441.82 1759.68 1445.38 Q1757.87 1448.92 1757.87 1456.05 Q1757.87 1463.16 1759.68 1466.72 Q1761.51 1470.26 1765.12 1470.26 Q1768.75 1470.26 1770.56 1466.72 Q1772.39 1463.16 1772.39 1456.05 Q1772.39 1448.92 1770.56 1445.38 Q1768.75 1441.82 1765.12 1441.82 M1765.12 1438.11 Q1770.93 1438.11 1773.99 1442.72 Q1777.06 1447.3 1777.06 1456.05 Q1777.06 1464.78 1773.99 1469.38 Q1770.93 1473.97 1765.12 1473.97 Q1759.31 1473.97 1756.23 1469.38 Q1753.18 1464.78 1753.18 1456.05 Q1753.18 1447.3 1756.23 1442.72 Q1759.31 1438.11 1765.12 1438.11 Z" fill="#000000" fill-rule="nonzero" fill-opacity="1" /><path clip-path="url(#clip000)" d="M1795.28 1441.82 Q1791.67 1441.82 1789.84 1445.38 Q1788.04 1448.92 1788.04 1456.05 Q1788.04 1463.16 1789.84 1466.72 Q1791.67 1470.26 1795.28 1470.26 Q1798.92 1470.26 1800.72 1466.72 Q1802.55 1463.16 1802.55 1456.05 Q1802.55 1448.92 1800.72 1445.38 Q1798.92 1441.82 1795.28 1441.82 M1795.28 1438.11 Q1801.09 1438.11 1804.15 1442.72 Q1807.23 1447.3 1807.23 1456.05 Q1807.23 1464.78 1804.15 1469.38 Q1801.09 1473.97 1795.28 1473.97 Q1789.47 1473.97 1786.39 1469.38 Q1783.34 1464.78 1783.34 1456.05 Q1783.34 1447.3 1786.39 1442.72 Q1789.47 1438.11 1795.28 1438.11 Z" fill="#000000" fill-rule="nonzero" fill-opacity="1" /><path clip-path="url(#clip000)" d="M1990.48 1456.47 L2020.15 1456.47 L2020.15 1460.4 L1990.48 1460.4 L1990.48 1456.47 Z" fill="#000000" fill-rule="nonzero" fill-opacity="1" /><path clip-path="url(#clip000)" d="M2030.29 1438.74 L2048.65 1438.74 L2048.65 1442.67 L2034.57 1442.67 L2034.57 1451.14 Q2035.59 1450.8 2036.61 1450.63 Q2037.63 1450.45 2038.65 1450.45 Q2044.43 1450.45 2047.81 1453.62 Q2051.19 1456.79 2051.19 1462.21 Q2051.19 1467.79 2047.72 1470.89 Q2044.25 1473.97 2037.93 1473.97 Q2035.75 1473.97 2033.49 1473.6 Q2031.24 1473.23 2028.83 1472.49 L2028.83 1467.79 Q2030.92 1468.92 2033.14 1469.48 Q2035.36 1470.03 2037.84 1470.03 Q2041.84 1470.03 2044.18 1467.93 Q2046.52 1465.82 2046.52 1462.21 Q2046.52 1458.6 2044.18 1456.49 Q2041.84 1454.38 2037.84 1454.38 Q2035.96 1454.38 2034.09 1454.8 Q2032.24 1455.22 2030.29 1456.1 L2030.29 1438.74 Z" fill="#000000" fill-rule="nonzero" fill-opacity="1" /><path clip-path="url(#clip000)" d="M2070.41 1441.82 Q2066.8 1441.82 2064.97 1445.38 Q2063.16 1448.92 2063.16 1456.05 Q2063.16 1463.16 2064.97 1466.72 Q2066.8 1470.26 2070.41 1470.26 Q2074.04 1470.26 2075.85 1466.72 Q2077.68 1463.16 2077.68 1456.05 Q2077.68 1448.92 2075.85 1445.38 Q2074.04 1441.82 2070.41 1441.82 M2070.41 1438.11 Q2076.22 1438.11 2079.27 1442.72 Q2082.35 1447.3 2082.35 1456.05 Q2082.35 1464.78 2079.27 1469.38 Q2076.22 1473.97 2070.41 1473.97 Q2064.6 1473.97 2061.52 1469.38 Q2058.46 1464.78 2058.46 1456.05 Q2058.46 1447.3 2061.52 1442.72 Q2064.6 1438.11 2070.41 1438.11 Z" fill="#000000" fill-rule="nonzero" fill-opacity="1" /><path clip-path="url(#clip000)" d="M2326.62 1441.82 Q2323.01 1441.82 2321.18 1445.38 Q2319.37 1448.92 2319.37 1456.05 Q2319.37 1463.16 2321.18 1466.72 Q2323.01 1470.26 2326.62 1470.26 Q2330.25 1470.26 2332.06 1466.72 Q2333.89 1463.16 2333.89 1456.05 Q2333.89 1448.92 2332.06 1445.38 Q2330.25 1441.82 2326.62 1441.82 M2326.62 1438.11 Q2332.43 1438.11 2335.49 1442.72 Q2338.56 1447.3 2338.56 1456.05 Q2338.56 1464.78 2335.49 1469.38 Q2332.43 1473.97 2326.62 1473.97 Q2320.81 1473.97 2317.73 1469.38 Q2314.68 1464.78 2314.68 1456.05 Q2314.68 1447.3 2317.73 1442.72 Q2320.81 1438.11 2326.62 1438.11 Z" fill="#000000" fill-rule="nonzero" fill-opacity="1" /><polyline clip-path="url(#clip000)" style="stroke:#000000; stroke-linecap:round; stroke-linejoin:round; stroke-width:4; stroke-opacity:1; fill:none" points="2326.62,1410.9 2326.62,123.472 "/>
<polyline clip-path="url(#clip000)" style="stroke:#000000; stroke-linecap:round; stroke-linejoin:round; stroke-width:4; stroke-opacity:0; fill:none" points="2326.62,1374.46 2326.62,1374.46 "/>
<polyline clip-path="url(#clip000)" style="stroke:#000000; stroke-linecap:round; stroke-linejoin:round; stroke-width:4; stroke-opacity:0; fill:none" points="2326.62,1070.82 2326.62,1070.82 "/>
<polyline clip-path="url(#clip000)" style="stroke:#000000; stroke-linecap:round; stroke-linejoin:round; stroke-width:4; stroke-opacity:0; fill:none" points="2326.62,767.184 2326.62,767.184 "/>
<polyline clip-path="url(#clip000)" style="stroke:#000000; stroke-linecap:round; stroke-linejoin:round; stroke-width:4; stroke-opacity:0; fill:none" points="2326.62,463.547 2326.62,463.547 "/>
<polyline clip-path="url(#clip000)" style="stroke:#000000; stroke-linecap:round; stroke-linejoin:round; stroke-width:4; stroke-opacity:0; fill:none" points="2326.62,159.909 2326.62,159.909 "/>
<path clip-path="url(#clip000)" d="M1305.95 1360.26 Q1302.34 1360.26 1300.51 1363.82 Q1298.7 1367.37 1298.7 1374.49 Q1298.7 1381.6 1300.51 1385.17 Q1302.34 1388.71 1305.95 1388.71 Q1309.58 1388.71 1311.39 1385.17 Q1313.22 1381.6 1313.22 1374.49 Q1313.22 1367.37 1311.39 1363.82 Q1309.58 1360.26 1305.95 1360.26 M1305.95 1356.56 Q1311.76 1356.56 1314.81 1361.16 Q1317.89 1365.74 1317.89 1374.49 Q1317.89 1383.22 1314.81 1387.83 Q1311.76 1392.41 1305.95 1392.41 Q1300.14 1392.41 1297.06 1387.83 Q1294 1383.22 1294 1374.49 Q1294 1365.74 1297.06 1361.16 Q1300.14 1356.56 1305.95 1356.56 Z" fill="#000000" fill-rule="nonzero" fill-opacity="1" /><path clip-path="url(#clip000)" d="M1326.11 1385.86 L1330.99 1385.86 L1330.99 1391.74 L1326.11 1391.74 L1326.11 1385.86 Z" fill="#000000" fill-rule="nonzero" fill-opacity="1" /><path clip-path="url(#clip000)" d="M1351.18 1360.26 Q1347.57 1360.26 1345.74 1363.82 Q1343.93 1367.37 1343.93 1374.49 Q1343.93 1381.6 1345.74 1385.17 Q1347.57 1388.71 1351.18 1388.71 Q1354.81 1388.71 1356.62 1385.17 Q1358.45 1381.6 1358.45 1374.49 Q1358.45 1367.37 1356.62 1363.82 Q1354.81 1360.26 1351.18 1360.26 M1351.18 1356.56 Q1356.99 1356.56 1360.04 1361.16 Q1363.12 1365.74 1363.12 1374.49 Q1363.12 1383.22 1360.04 1387.83 Q1356.99 1392.41 1351.18 1392.41 Q1345.37 1392.41 1342.29 1387.83 Q1339.23 1383.22 1339.23 1374.49 Q1339.23 1365.74 1342.29 1361.16 Q1345.37 1356.56 1351.18 1356.56 Z" fill="#000000" fill-rule="nonzero" fill-opacity="1" /><path clip-path="url(#clip000)" d="M1381.34 1360.26 Q1377.73 1360.26 1375.9 1363.82 Q1374.1 1367.37 1374.1 1374.49 Q1374.1 1381.6 1375.9 1385.17 Q1377.73 1388.71 1381.34 1388.71 Q1384.98 1388.71 1386.78 1385.17 Q1388.61 1381.6 1388.61 1374.49 Q1388.61 1367.37 1386.78 1363.82 Q1384.98 1360.26 1381.34 1360.26 M1381.34 1356.56 Q1387.15 1356.56 1390.21 1361.16 Q1393.29 1365.74 1393.29 1374.49 Q1393.29 1383.22 1390.21 1387.83 Q1387.15 1392.41 1381.34 1392.41 Q1375.53 1392.41 1372.45 1387.83 Q1369.4 1383.22 1369.4 1374.49 Q1369.4 1365.74 1372.45 1361.16 Q1375.53 1356.56 1381.34 1356.56 Z" fill="#000000" fill-rule="nonzero" fill-opacity="1" /><path clip-path="url(#clip000)" d="M1306.94 1056.62 Q1303.33 1056.62 1301.5 1060.19 Q1299.7 1063.73 1299.7 1070.86 Q1299.7 1077.96 1301.5 1081.53 Q1303.33 1085.07 1306.94 1085.07 Q1310.58 1085.07 1312.38 1081.53 Q1314.21 1077.96 1314.21 1070.86 Q1314.21 1063.73 1312.38 1060.19 Q1310.58 1056.62 1306.94 1056.62 M1306.94 1052.92 Q1312.75 1052.92 1315.81 1057.52 Q1318.89 1062.11 1318.89 1070.86 Q1318.89 1079.58 1315.81 1084.19 Q1312.75 1088.77 1306.94 1088.77 Q1301.13 1088.77 1298.05 1084.19 Q1295 1079.58 1295 1070.86 Q1295 1062.11 1298.05 1057.52 Q1301.13 1052.92 1306.94 1052.92 Z" fill="#000000" fill-rule="nonzero" fill-opacity="1" /><path clip-path="url(#clip000)" d="M1327.11 1082.22 L1331.99 1082.22 L1331.99 1088.1 L1327.11 1088.1 L1327.11 1082.22 Z" fill="#000000" fill-rule="nonzero" fill-opacity="1" /><path clip-path="url(#clip000)" d="M1346.2 1084.17 L1362.52 1084.17 L1362.52 1088.1 L1340.58 1088.1 L1340.58 1084.17 Q1343.24 1081.41 1347.82 1076.78 Q1352.43 1072.13 1353.61 1070.79 Q1355.85 1068.26 1356.73 1066.53 Q1357.64 1064.77 1357.64 1063.08 Q1357.64 1060.32 1355.69 1058.59 Q1353.77 1056.85 1350.67 1056.85 Q1348.47 1056.85 1346.02 1057.62 Q1343.59 1058.38 1340.81 1059.93 L1340.81 1055.21 Q1343.63 1054.07 1346.09 1053.5 Q1348.54 1052.92 1350.58 1052.92 Q1355.95 1052.92 1359.14 1055.6 Q1362.34 1058.29 1362.34 1062.78 Q1362.34 1064.91 1361.53 1066.83 Q1360.74 1068.73 1358.63 1071.32 Q1358.05 1071.99 1354.95 1075.21 Q1351.85 1078.4 1346.2 1084.17 Z" fill="#000000" fill-rule="nonzero" fill-opacity="1" /><path clip-path="url(#clip000)" d="M1372.38 1053.54 L1390.74 1053.54 L1390.74 1057.48 L1376.66 1057.48 L1376.66 1065.95 Q1377.68 1065.6 1378.7 1065.44 Q1379.72 1065.26 1380.74 1065.26 Q1386.53 1065.26 1389.91 1068.43 Q1393.29 1071.6 1393.29 1077.01 Q1393.29 1082.59 1389.81 1085.69 Q1386.34 1088.77 1380.02 1088.77 Q1377.85 1088.77 1375.58 1088.4 Q1373.33 1088.03 1370.92 1087.29 L1370.92 1082.59 Q1373.01 1083.73 1375.23 1084.28 Q1377.45 1084.84 1379.93 1084.84 Q1383.93 1084.84 1386.27 1082.73 Q1388.61 1080.63 1388.61 1077.01 Q1388.61 1073.4 1386.27 1071.3 Q1383.93 1069.19 1379.93 1069.19 Q1378.05 1069.19 1376.18 1069.61 Q1374.33 1070.02 1372.38 1070.9 L1372.38 1053.54 Z" fill="#000000" fill-rule="nonzero" fill-opacity="1" /><path clip-path="url(#clip000)" d="M1305.95 752.983 Q1302.34 752.983 1300.51 756.548 Q1298.7 760.09 1298.7 767.219 Q1298.7 774.326 1300.51 777.89 Q1302.34 781.432 1305.95 781.432 Q1309.58 781.432 1311.39 777.89 Q1313.22 774.326 1313.22 767.219 Q1313.22 760.09 1311.39 756.548 Q1309.58 752.983 1305.95 752.983 M1305.95 749.279 Q1311.76 749.279 1314.81 753.886 Q1317.89 758.469 1317.89 767.219 Q1317.89 775.946 1314.81 780.552 Q1311.76 785.136 1305.95 785.136 Q1300.14 785.136 1297.06 780.552 Q1294 775.946 1294 767.219 Q1294 758.469 1297.06 753.886 Q1300.14 749.279 1305.95 749.279 Z" fill="#000000" fill-rule="nonzero" fill-opacity="1" /><path clip-path="url(#clip000)" d="M1326.11 778.585 L1330.99 778.585 L1330.99 784.464 L1326.11 784.464 L1326.11 778.585 Z" fill="#000000" fill-rule="nonzero" fill-opacity="1" /><path clip-path="url(#clip000)" d="M1341.23 749.904 L1359.58 749.904 L1359.58 753.84 L1345.51 753.84 L1345.51 762.312 Q1346.53 761.965 1347.54 761.802 Q1348.56 761.617 1349.58 761.617 Q1355.37 761.617 1358.75 764.789 Q1362.13 767.96 1362.13 773.376 Q1362.13 778.955 1358.66 782.057 Q1355.18 785.136 1348.86 785.136 Q1346.69 785.136 1344.42 784.765 Q1342.17 784.395 1339.77 783.654 L1339.77 778.955 Q1341.85 780.089 1344.07 780.645 Q1346.29 781.201 1348.77 781.201 Q1352.78 781.201 1355.11 779.094 Q1357.45 776.988 1357.45 773.376 Q1357.45 769.765 1355.11 767.659 Q1352.78 765.552 1348.77 765.552 Q1346.9 765.552 1345.02 765.969 Q1343.17 766.386 1341.23 767.265 L1341.23 749.904 Z" fill="#000000" fill-rule="nonzero" fill-opacity="1" /><path clip-path="url(#clip000)" d="M1381.34 752.983 Q1377.73 752.983 1375.9 756.548 Q1374.1 760.09 1374.1 767.219 Q1374.1 774.326 1375.9 777.89 Q1377.73 781.432 1381.34 781.432 Q1384.98 781.432 1386.78 777.89 Q1388.61 774.326 1388.61 767.219 Q1388.61 760.09 1386.78 756.548 Q1384.98 752.983 1381.34 752.983 M1381.34 749.279 Q1387.15 749.279 1390.21 753.886 Q1393.29 758.469 1393.29 767.219 Q1393.29 775.946 1390.21 780.552 Q1387.15 785.136 1381.34 785.136 Q1375.53 785.136 1372.45 780.552 Q1369.4 775.946 1369.4 767.219 Q1369.4 758.469 1372.45 753.886 Q1375.53 749.279 1381.34 749.279 Z" fill="#000000" fill-rule="nonzero" fill-opacity="1" /><path clip-path="url(#clip000)" d="M1306.94 449.345 Q1303.33 449.345 1301.5 452.91 Q1299.7 456.452 1299.7 463.581 Q1299.7 470.688 1301.5 474.252 Q1303.33 477.794 1306.94 477.794 Q1310.58 477.794 1312.38 474.252 Q1314.21 470.688 1314.21 463.581 Q1314.21 456.452 1312.38 452.91 Q1310.58 449.345 1306.94 449.345 M1306.94 445.642 Q1312.75 445.642 1315.81 450.248 Q1318.89 454.831 1318.89 463.581 Q1318.89 472.308 1315.81 476.915 Q1312.75 481.498 1306.94 481.498 Q1301.13 481.498 1298.05 476.915 Q1295 472.308 1295 463.581 Q1295 454.831 1298.05 450.248 Q1301.13 445.642 1306.94 445.642 Z" fill="#000000" fill-rule="nonzero" fill-opacity="1" /><path clip-path="url(#clip000)" d="M1327.11 474.947 L1331.99 474.947 L1331.99 480.827 L1327.11 480.827 L1327.11 474.947 Z" fill="#000000" fill-rule="nonzero" fill-opacity="1" /><path clip-path="url(#clip000)" d="M1340.99 446.267 L1363.22 446.267 L1363.22 448.257 L1350.67 480.827 L1345.79 480.827 L1357.59 450.202 L1340.99 450.202 L1340.99 446.267 Z" fill="#000000" fill-rule="nonzero" fill-opacity="1" /><path clip-path="url(#clip000)" d="M1372.38 446.267 L1390.74 446.267 L1390.74 450.202 L1376.66 450.202 L1376.66 458.674 Q1377.68 458.327 1378.7 458.165 Q1379.72 457.979 1380.74 457.979 Q1386.53 457.979 1389.91 461.151 Q1393.29 464.322 1393.29 469.739 Q1393.29 475.317 1389.81 478.419 Q1386.34 481.498 1380.02 481.498 Q1377.85 481.498 1375.58 481.127 Q1373.33 480.757 1370.92 480.016 L1370.92 475.317 Q1373.01 476.452 1375.23 477.007 Q1377.45 477.563 1379.93 477.563 Q1383.93 477.563 1386.27 475.456 Q1388.61 473.35 1388.61 469.739 Q1388.61 466.128 1386.27 464.021 Q1383.93 461.915 1379.93 461.915 Q1378.05 461.915 1376.18 462.331 Q1374.33 462.748 1372.38 463.628 L1372.38 446.267 Z" fill="#000000" fill-rule="nonzero" fill-opacity="1" /><path clip-path="url(#clip000)" d="M1296.76 173.254 L1304.4 173.254 L1304.4 146.888 L1296.09 148.555 L1296.09 144.295 L1304.35 142.629 L1309.03 142.629 L1309.03 173.254 L1316.67 173.254 L1316.67 177.189 L1296.76 177.189 L1296.76 173.254 Z" fill="#000000" fill-rule="nonzero" fill-opacity="1" /><path clip-path="url(#clip000)" d="M1326.11 171.309 L1330.99 171.309 L1330.99 177.189 L1326.11 177.189 L1326.11 171.309 Z" fill="#000000" fill-rule="nonzero" fill-opacity="1" /><path clip-path="url(#clip000)" d="M1351.18 145.707 Q1347.57 145.707 1345.74 149.272 Q1343.93 152.814 1343.93 159.943 Q1343.93 167.05 1345.74 170.615 Q1347.57 174.156 1351.18 174.156 Q1354.81 174.156 1356.62 170.615 Q1358.45 167.05 1358.45 159.943 Q1358.45 152.814 1356.62 149.272 Q1354.81 145.707 1351.18 145.707 M1351.18 142.004 Q1356.99 142.004 1360.04 146.61 Q1363.12 151.193 1363.12 159.943 Q1363.12 168.67 1360.04 173.277 Q1356.99 177.86 1351.18 177.86 Q1345.37 177.86 1342.29 173.277 Q1339.23 168.67 1339.23 159.943 Q1339.23 151.193 1342.29 146.61 Q1345.37 142.004 1351.18 142.004 Z" fill="#000000" fill-rule="nonzero" fill-opacity="1" /><path clip-path="url(#clip000)" d="M1381.34 145.707 Q1377.73 145.707 1375.9 149.272 Q1374.1 152.814 1374.1 159.943 Q1374.1 167.05 1375.9 170.615 Q1377.73 174.156 1381.34 174.156 Q1384.98 174.156 1386.78 170.615 Q1388.61 167.05 1388.61 159.943 Q1388.61 152.814 1386.78 149.272 Q1384.98 145.707 1381.34 145.707 M1381.34 142.004 Q1387.15 142.004 1390.21 146.61 Q1393.29 151.193 1393.29 159.943 Q1393.29 168.67 1390.21 173.277 Q1387.15 177.86 1381.34 177.86 Q1375.53 177.86 1372.45 173.277 Q1369.4 168.67 1369.4 159.943 Q1369.4 151.193 1372.45 146.61 Q1375.53 142.004 1381.34 142.004 Z" fill="#000000" fill-rule="nonzero" fill-opacity="1" /><path clip-path="url(#clip000)" d="M1610.45 18.8205 L1610.45 41.5461 L1620.74 41.5461 Q1626.46 41.5461 1629.58 38.5889 Q1632.69 35.6318 1632.69 30.163 Q1632.69 24.7348 1629.58 21.7777 Q1626.46 18.8205 1620.74 18.8205 L1610.45 18.8205 M1602.27 12.096 L1620.74 12.096 Q1630.91 12.096 1636.1 16.714 Q1641.32 21.2916 1641.32 30.163 Q1641.32 39.1155 1636.1 43.6931 Q1630.91 48.2706 1620.74 48.2706 L1610.45 48.2706 L1610.45 72.576 L1602.27 72.576 L1602.27 12.096 Z" fill="#000000" fill-rule="nonzero" fill-opacity="1" /><path clip-path="url(#clip000)" d="M1666.6 32.4315 Q1660.61 32.4315 1657.12 37.1306 Q1653.64 41.7891 1653.64 49.9314 Q1653.64 58.0738 1657.08 62.7728 Q1660.56 67.4314 1666.6 67.4314 Q1672.56 67.4314 1676.04 62.7323 Q1679.52 58.0333 1679.52 49.9314 Q1679.52 41.8701 1676.04 37.1711 Q1672.56 32.4315 1666.6 32.4315 M1666.6 26.1121 Q1676.32 26.1121 1681.87 32.4315 Q1687.42 38.7509 1687.42 49.9314 Q1687.42 61.0714 1681.87 67.4314 Q1676.32 73.7508 1666.6 73.7508 Q1656.84 73.7508 1651.29 67.4314 Q1645.78 61.0714 1645.78 49.9314 Q1645.78 38.7509 1651.29 32.4315 Q1656.84 26.1121 1666.6 26.1121 Z" fill="#000000" fill-rule="nonzero" fill-opacity="1" /><path clip-path="url(#clip000)" d="M1699.78 9.54393 L1707.23 9.54393 L1707.23 72.576 L1699.78 72.576 L1699.78 9.54393 Z" fill="#000000" fill-rule="nonzero" fill-opacity="1" /><path clip-path="url(#clip000)" d="M1761.63 48.0275 L1761.63 51.6733 L1727.36 51.6733 Q1727.85 59.3701 1731.98 63.421 Q1736.15 67.4314 1743.57 67.4314 Q1747.86 67.4314 1751.87 66.3781 Q1755.92 65.3249 1759.89 63.2184 L1759.89 70.267 Q1755.88 71.9684 1751.67 72.8596 Q1747.46 73.7508 1743.12 73.7508 Q1732.27 73.7508 1725.91 67.4314 Q1719.59 61.1119 1719.59 50.3365 Q1719.59 39.1965 1725.58 32.6746 Q1731.62 26.1121 1741.83 26.1121 Q1750.98 26.1121 1756.29 32.0264 Q1761.63 37.9003 1761.63 48.0275 M1754.18 45.84 Q1754.1 39.7232 1750.74 36.0774 Q1747.42 32.4315 1741.91 32.4315 Q1735.67 32.4315 1731.9 35.9558 Q1728.17 39.4801 1727.61 45.8805 L1754.18 45.84 Z" fill="#000000" fill-rule="nonzero" fill-opacity="1" /><path clip-path="url(#clip000)" d="M1770.1 46.5287 L1791.94 46.5287 L1791.94 53.1722 L1770.1 53.1722 L1770.1 46.5287 Z" fill="#000000" fill-rule="nonzero" fill-opacity="1" /><path clip-path="url(#clip000)" d="M1800.56 27.2059 L1835.97 27.2059 L1835.97 34.0114 L1807.94 66.6212 L1835.97 66.6212 L1835.97 72.576 L1799.55 72.576 L1799.55 65.7705 L1827.58 33.1607 L1800.56 33.1607 L1800.56 27.2059 Z" fill="#000000" fill-rule="nonzero" fill-opacity="1" /><path clip-path="url(#clip000)" d="M1886.16 48.0275 L1886.16 51.6733 L1851.89 51.6733 Q1852.37 59.3701 1856.51 63.421 Q1860.68 67.4314 1868.09 67.4314 Q1872.39 67.4314 1876.4 66.3781 Q1880.45 65.3249 1884.42 63.2184 L1884.42 70.267 Q1880.41 71.9684 1876.19 72.8596 Q1871.98 73.7508 1867.65 73.7508 Q1856.79 73.7508 1850.43 67.4314 Q1844.11 61.1119 1844.11 50.3365 Q1844.11 39.1965 1850.11 32.6746 Q1856.14 26.1121 1866.35 26.1121 Q1875.51 26.1121 1880.81 32.0264 Q1886.16 37.9003 1886.16 48.0275 M1878.71 45.84 Q1878.62 39.7232 1875.26 36.0774 Q1871.94 32.4315 1866.43 32.4315 Q1860.19 32.4315 1856.43 35.9558 Q1852.7 39.4801 1852.13 45.8805 L1878.71 45.84 Z" fill="#000000" fill-rule="nonzero" fill-opacity="1" /><path clip-path="url(#clip000)" d="M1924.68 34.1734 Q1923.43 33.4443 1921.93 33.1202 Q1920.47 32.7556 1918.69 32.7556 Q1912.37 32.7556 1908.97 36.8875 Q1905.6 40.9789 1905.6 48.6757 L1905.6 72.576 L1898.11 72.576 L1898.11 27.2059 L1905.6 27.2059 L1905.6 34.2544 Q1907.95 30.1225 1911.72 28.1376 Q1915.49 26.1121 1920.88 26.1121 Q1921.65 26.1121 1922.58 26.2337 Q1923.51 26.3147 1924.64 26.5172 L1924.68 34.1734 Z" fill="#000000" fill-rule="nonzero" fill-opacity="1" /><path clip-path="url(#clip000)" d="M1948.26 32.4315 Q1942.26 32.4315 1938.78 37.1306 Q1935.3 41.7891 1935.3 49.9314 Q1935.3 58.0738 1938.74 62.7728 Q1942.22 67.4314 1948.26 67.4314 Q1954.21 67.4314 1957.7 62.7323 Q1961.18 58.0333 1961.18 49.9314 Q1961.18 41.8701 1957.7 37.1711 Q1954.21 32.4315 1948.26 32.4315 M1948.26 26.1121 Q1957.98 26.1121 1963.53 32.4315 Q1969.08 38.7509 1969.08 49.9314 Q1969.08 61.0714 1963.53 67.4314 Q1957.98 73.7508 1948.26 73.7508 Q1938.5 73.7508 1932.95 67.4314 Q1927.44 61.0714 1927.44 49.9314 Q1927.44 38.7509 1932.95 32.4315 Q1938.5 26.1121 1948.26 26.1121 Z" fill="#000000" fill-rule="nonzero" fill-opacity="1" /><path clip-path="url(#clip000)" d="M2043.13 35.9153 Q2045.93 30.8922 2049.82 28.5022 Q2053.7 26.1121 2058.97 26.1121 Q2066.06 26.1121 2069.91 31.0947 Q2073.76 36.0368 2073.76 45.1919 L2073.76 72.576 L2066.26 72.576 L2066.26 45.4349 Q2066.26 38.913 2063.95 35.7533 Q2061.64 32.5936 2056.91 32.5936 Q2051.11 32.5936 2047.75 36.4419 Q2044.39 40.2903 2044.39 46.9338 L2044.39 72.576 L2036.89 72.576 L2036.89 45.4349 Q2036.89 38.8725 2034.58 35.7533 Q2032.28 32.5936 2027.46 32.5936 Q2021.74 32.5936 2018.38 36.4824 Q2015.02 40.3308 2015.02 46.9338 L2015.02 72.576 L2007.52 72.576 L2007.52 27.2059 L2015.02 27.2059 L2015.02 34.2544 Q2017.57 30.082 2021.14 28.0971 Q2024.7 26.1121 2029.6 26.1121 Q2034.54 26.1121 2037.99 28.6237 Q2041.47 31.1352 2043.13 35.9153 Z" fill="#000000" fill-rule="nonzero" fill-opacity="1" /><path clip-path="url(#clip000)" d="M2109.24 49.7694 Q2100.21 49.7694 2096.73 51.8354 Q2093.24 53.9013 2093.24 58.8839 Q2093.24 62.8538 2095.83 65.2034 Q2098.47 67.5124 2102.96 67.5124 Q2109.16 67.5124 2112.89 63.1374 Q2116.66 58.7219 2116.66 51.4303 L2116.66 49.7694 L2109.24 49.7694 M2124.11 46.6907 L2124.11 72.576 L2116.66 72.576 L2116.66 65.6895 Q2114.1 69.8214 2110.3 71.8063 Q2106.49 73.7508 2100.98 73.7508 Q2094.01 73.7508 2089.88 69.8619 Q2085.79 65.9325 2085.79 59.3701 Q2085.79 51.7138 2090.89 47.825 Q2096.04 43.9361 2106.2 43.9361 L2116.66 43.9361 L2116.66 43.2069 Q2116.66 38.0623 2113.25 35.2672 Q2109.89 32.4315 2103.77 32.4315 Q2099.89 32.4315 2096.2 33.3632 Q2092.51 34.295 2089.11 36.1584 L2089.11 29.2718 Q2093.2 27.692 2097.05 26.9223 Q2100.9 26.1121 2104.54 26.1121 Q2114.39 26.1121 2119.25 31.2163 Q2124.11 36.3204 2124.11 46.6907 Z" fill="#000000" fill-rule="nonzero" fill-opacity="1" /><path clip-path="url(#clip000)" d="M2146.67 65.7705 L2146.67 89.8329 L2139.18 89.8329 L2139.18 27.2059 L2146.67 27.2059 L2146.67 34.0924 Q2149.02 30.0415 2152.59 28.0971 Q2156.19 26.1121 2161.18 26.1121 Q2169.44 26.1121 2174.58 32.6746 Q2179.77 39.2371 2179.77 49.9314 Q2179.77 60.6258 2174.58 67.1883 Q2169.44 73.7508 2161.18 73.7508 Q2156.19 73.7508 2152.59 71.8063 Q2149.02 69.8214 2146.67 65.7705 M2172.03 49.9314 Q2172.03 41.7081 2168.63 37.0496 Q2165.27 32.3505 2159.35 32.3505 Q2153.44 32.3505 2150.04 37.0496 Q2146.67 41.7081 2146.67 49.9314 Q2146.67 58.1548 2150.04 62.8538 Q2153.44 67.5124 2159.35 67.5124 Q2165.27 67.5124 2168.63 62.8538 Q2172.03 58.1548 2172.03 49.9314 Z" fill="#000000" fill-rule="nonzero" fill-opacity="1" /><line clip-path="url(#clip004)" x1="2239.62" y1="1374.46" x2="2179.62" y2="1314.46" style="stroke:#e69f00; stroke-width:3.2; stroke-opacity:0.5"/>
<line clip-path="url(#clip004)" x1="2239.62" y1="1374.46" x2="2179.62" y2="1434.46" style="stroke:#e69f00; stroke-width:3.2; stroke-opacity:0.5"/>
<line clip-path="url(#clip004)" x1="2239.62" y1="1374.46" x2="2299.62" y2="1434.46" style="stroke:#e69f00; stroke-width:3.2; stroke-opacity:0.5"/>
<line clip-path="url(#clip004)" x1="2239.62" y1="1374.46" x2="2299.62" y2="1314.46" style="stroke:#e69f00; stroke-width:3.2; stroke-opacity:0.5"/>
<line clip-path="url(#clip004)" x1="2239.56" y1="1374.46" x2="2179.56" y2="1314.46" style="stroke:#e69f00; stroke-width:3.2; stroke-opacity:0.5"/>
<line clip-path="url(#clip004)" x1="2239.56" y1="1374.46" x2="2179.56" y2="1434.46" style="stroke:#e69f00; stroke-width:3.2; stroke-opacity:0.5"/>
<line clip-path="url(#clip004)" x1="2239.56" y1="1374.46" x2="2299.56" y2="1434.46" style="stroke:#e69f00; stroke-width:3.2; stroke-opacity:0.5"/>
<line clip-path="url(#clip004)" x1="2239.56" y1="1374.46" x2="2299.56" y2="1314.46" style="stroke:#e69f00; stroke-width:3.2; stroke-opacity:0.5"/>
<line clip-path="url(#clip004)" x1="2239.5" y1="1374.46" x2="2179.5" y2="1314.46" style="stroke:#e69f00; stroke-width:3.2; stroke-opacity:0.5"/>
<line clip-path="url(#clip004)" x1="2239.5" y1="1374.46" x2="2179.5" y2="1434.46" style="stroke:#e69f00; stroke-width:3.2; stroke-opacity:0.5"/>
<line clip-path="url(#clip004)" x1="2239.5" y1="1374.46" x2="2299.5" y2="1434.46" style="stroke:#e69f00; stroke-width:3.2; stroke-opacity:0.5"/>
<line clip-path="url(#clip004)" x1="2239.5" y1="1374.46" x2="2299.5" y2="1314.46" style="stroke:#e69f00; stroke-width:3.2; stroke-opacity:0.5"/>
<line clip-path="url(#clip004)" x1="1456" y1="1374.46" x2="1396" y2="1314.46" style="stroke:#e69f00; stroke-width:3.2; stroke-opacity:0.5"/>
<line clip-path="url(#clip004)" x1="1456" y1="1374.46" x2="1396" y2="1434.46" style="stroke:#e69f00; stroke-width:3.2; stroke-opacity:0.5"/>
<line clip-path="url(#clip004)" x1="1456" y1="1374.46" x2="1516" y2="1434.46" style="stroke:#e69f00; stroke-width:3.2; stroke-opacity:0.5"/>
<line clip-path="url(#clip004)" x1="1456" y1="1374.46" x2="1516" y2="1314.46" style="stroke:#e69f00; stroke-width:3.2; stroke-opacity:0.5"/>
<line clip-path="url(#clip004)" x1="1455.42" y1="1374.46" x2="1395.42" y2="1314.46" style="stroke:#e69f00; stroke-width:3.2; stroke-opacity:0.5"/>
<line clip-path="url(#clip004)" x1="1455.42" y1="1374.46" x2="1395.42" y2="1434.46" style="stroke:#e69f00; stroke-width:3.2; stroke-opacity:0.5"/>
<line clip-path="url(#clip004)" x1="1455.42" y1="1374.46" x2="1515.42" y2="1434.46" style="stroke:#e69f00; stroke-width:3.2; stroke-opacity:0.5"/>
<line clip-path="url(#clip004)" x1="1455.42" y1="1374.46" x2="1515.42" y2="1314.46" style="stroke:#e69f00; stroke-width:3.2; stroke-opacity:0.5"/>
<line clip-path="url(#clip004)" x1="1456.58" y1="1374.46" x2="1396.58" y2="1314.46" style="stroke:#e69f00; stroke-width:3.2; stroke-opacity:0.5"/>
<line clip-path="url(#clip004)" x1="1456.58" y1="1374.46" x2="1396.58" y2="1434.46" style="stroke:#e69f00; stroke-width:3.2; stroke-opacity:0.5"/>
<line clip-path="url(#clip004)" x1="1456.58" y1="1374.46" x2="1516.58" y2="1434.46" style="stroke:#e69f00; stroke-width:3.2; stroke-opacity:0.5"/>
<line clip-path="url(#clip004)" x1="1456.58" y1="1374.46" x2="1516.58" y2="1314.46" style="stroke:#e69f00; stroke-width:3.2; stroke-opacity:0.5"/>
</svg>
