<?xml version="1.0" encoding="utf-8"?>
<svg xmlns="http://www.w3.org/2000/svg" xmlns:xlink="http://www.w3.org/1999/xlink" width="480" height="384" viewBox="0 0 1920 1536">
<defs>
  <clipPath id="clip800">
    <rect x="0" y="0" width="1920" height="1536"/>
  </clipPath>
</defs>
<path clip-path="url(#clip800)" d="M0 1536 L1920 1536 L1920 0 L0 0  Z" fill="#ffffff" fill-rule="evenodd" fill-opacity="1"/>
<defs>
  <clipPath id="clip801">
    <rect x="384" y="0" width="1345" height="1345"/>
  </clipPath>
</defs>
<path clip-path="url(#clip800)" d="M277.001 641.212 L960.519 641.212 L960.519 135.568 L277.001 135.568  Z" fill="#ffffff" fill-rule="evenodd" fill-opacity="1"/>
<defs>
  <clipPath id="clip802">
    <rect x="277" y="135" width="685" height="507"/>
  </clipPath>
</defs>
<polyline clip-path="url(#clip802)" style="stroke:#000000; stroke-linecap:round; stroke-linejoin:round; stroke-width:2; stroke-opacity:0.1; fill:none" points="296.345,641.212 296.345,135.568 "/>
<polyline clip-path="url(#clip802)" style="stroke:#000000; stroke-linecap:round; stroke-linejoin:round; stroke-width:2; stroke-opacity:0.1; fill:none" points="545.105,641.212 545.105,135.568 "/>
<polyline clip-path="url(#clip802)" style="stroke:#000000; stroke-linecap:round; stroke-linejoin:round; stroke-width:2; stroke-opacity:0.1; fill:none" points="793.865,641.212 793.865,135.568 "/>
<polyline clip-path="url(#clip802)" style="stroke:#000000; stroke-linecap:round; stroke-linejoin:round; stroke-width:2; stroke-opacity:0.1; fill:none" points="277.001,589.947 960.519,589.947 "/>
<polyline clip-path="url(#clip802)" style="stroke:#000000; stroke-linecap:round; stroke-linejoin:round; stroke-width:2; stroke-opacity:0.1; fill:none" points="277.001,516.601 960.519,516.601 "/>
<polyline clip-path="url(#clip802)" style="stroke:#000000; stroke-linecap:round; stroke-linejoin:round; stroke-width:2; stroke-opacity:0.1; fill:none" points="277.001,443.256 960.519,443.256 "/>
<polyline clip-path="url(#clip802)" style="stroke:#000000; stroke-linecap:round; stroke-linejoin:round; stroke-width:2; stroke-opacity:0.1; fill:none" points="277.001,369.91 960.519,369.91 "/>
<polyline clip-path="url(#clip802)" style="stroke:#000000; stroke-linecap:round; stroke-linejoin:round; stroke-width:2; stroke-opacity:0.1; fill:none" points="277.001,296.565 960.519,296.565 "/>
<polyline clip-path="url(#clip802)" style="stroke:#000000; stroke-linecap:round; stroke-linejoin:round; stroke-width:2; stroke-opacity:0.1; fill:none" points="277.001,223.219 960.519,223.219 "/>
<polyline clip-path="url(#clip802)" style="stroke:#000000; stroke-linecap:round; stroke-linejoin:round; stroke-width:2; stroke-opacity:0.1; fill:none" points="277.001,149.873 960.519,149.873 "/>
<polyline clip-path="url(#clip800)" style="stroke:#000000; stroke-linecap:round; stroke-linejoin:round; stroke-width:4; stroke-opacity:1; fill:none" points="277.001,641.212 960.519,641.212 "/>
<polyline clip-path="url(#clip800)" style="stroke:#000000; stroke-linecap:round; stroke-linejoin:round; stroke-width:4; stroke-opacity:1; fill:none" points="296.345,641.212 296.345,622.314 "/>
<polyline clip-path="url(#clip800)" style="stroke:#000000; stroke-linecap:round; stroke-linejoin:round; stroke-width:4; stroke-opacity:1; fill:none" points="545.105,641.212 545.105,622.314 "/>
<polyline clip-path="url(#clip800)" style="stroke:#000000; stroke-linecap:round; stroke-linejoin:round; stroke-width:4; stroke-opacity:1; fill:none" points="793.865,641.212 793.865,622.314 "/>
<path clip-path="url(#clip800)" d="M246.461 711.497 L254.1 711.497 L254.1 685.131 L245.789 686.798 L245.789 682.539 L254.053 680.872 L258.729 680.872 L258.729 711.497 L266.368 711.497 L266.368 715.432 L246.461 715.432 L246.461 711.497 Z" fill="#000000" fill-rule="nonzero" fill-opacity="1" /><path clip-path="url(#clip800)" d="M285.812 683.951 Q282.201 683.951 280.373 687.516 Q278.567 691.057 278.567 698.187 Q278.567 705.293 280.373 708.858 Q282.201 712.4 285.812 712.4 Q289.447 712.4 291.252 708.858 Q293.081 705.293 293.081 698.187 Q293.081 691.057 291.252 687.516 Q289.447 683.951 285.812 683.951 M285.812 680.247 Q291.622 680.247 294.678 684.853 Q297.757 689.437 297.757 698.187 Q297.757 706.914 294.678 711.52 Q291.622 716.103 285.812 716.103 Q280.002 716.103 276.923 711.52 Q273.868 706.914 273.868 698.187 Q273.868 689.437 276.923 684.853 Q280.002 680.247 285.812 680.247 Z" fill="#000000" fill-rule="nonzero" fill-opacity="1" /><path clip-path="url(#clip800)" d="M297.757 674.348 L321.868 674.348 L321.868 677.546 L297.757 677.546 L297.757 674.348 Z" fill="#000000" fill-rule="nonzero" fill-opacity="1" /><path clip-path="url(#clip800)" d="M330.727 684.824 L336.933 684.824 L336.933 663.402 L330.181 664.756 L330.181 661.296 L336.896 659.942 L340.695 659.942 L340.695 684.824 L346.901 684.824 L346.901 688.022 L330.727 688.022 L330.727 684.824 Z" fill="#000000" fill-rule="nonzero" fill-opacity="1" /><path clip-path="url(#clip800)" d="M510.088 711.497 L517.727 711.497 L517.727 685.131 L509.417 686.798 L509.417 682.539 L517.68 680.872 L522.356 680.872 L522.356 711.497 L529.995 711.497 L529.995 715.432 L510.088 715.432 L510.088 711.497 Z" fill="#000000" fill-rule="nonzero" fill-opacity="1" /><path clip-path="url(#clip800)" d="M549.439 683.951 Q545.828 683.951 544 687.516 Q542.194 691.057 542.194 698.187 Q542.194 705.293 544 708.858 Q545.828 712.4 549.439 712.4 Q553.074 712.4 554.879 708.858 Q556.708 705.293 556.708 698.187 Q556.708 691.057 554.879 687.516 Q553.074 683.951 549.439 683.951 M549.439 680.247 Q555.25 680.247 558.305 684.853 Q561.384 689.437 561.384 698.187 Q561.384 706.914 558.305 711.52 Q555.25 716.103 549.439 716.103 Q543.629 716.103 540.551 711.52 Q537.495 706.914 537.495 698.187 Q537.495 689.437 540.551 684.853 Q543.629 680.247 549.439 680.247 Z" fill="#000000" fill-rule="nonzero" fill-opacity="1" /><path clip-path="url(#clip800)" d="M571.089 662.443 Q568.155 662.443 566.669 665.339 Q565.202 668.217 565.202 674.01 Q565.202 679.784 566.669 682.68 Q568.155 685.558 571.089 685.558 Q574.042 685.558 575.509 682.68 Q576.994 679.784 576.994 674.01 Q576.994 668.217 575.509 665.339 Q574.042 662.443 571.089 662.443 M571.089 659.434 Q575.809 659.434 578.292 663.177 Q580.793 666.901 580.793 674.01 Q580.793 681.1 578.292 684.843 Q575.809 688.567 571.089 688.567 Q566.368 688.567 563.866 684.843 Q561.384 681.1 561.384 674.01 Q561.384 666.901 563.866 663.177 Q566.368 659.434 571.089 659.434 Z" fill="#000000" fill-rule="nonzero" fill-opacity="1" /><path clip-path="url(#clip800)" d="M760.192 711.497 L767.831 711.497 L767.831 685.131 L759.521 686.798 L759.521 682.539 L767.785 680.872 L772.461 680.872 L772.461 711.497 L780.1 711.497 L780.1 715.432 L760.192 715.432 L760.192 711.497 Z" fill="#000000" fill-rule="nonzero" fill-opacity="1" /><path clip-path="url(#clip800)" d="M799.544 683.951 Q795.933 683.951 794.104 687.516 Q792.299 691.057 792.299 698.187 Q792.299 705.293 794.104 708.858 Q795.933 712.4 799.544 712.4 Q803.178 712.4 804.984 708.858 Q806.812 705.293 806.812 698.187 Q806.812 691.057 804.984 687.516 Q803.178 683.951 799.544 683.951 M799.544 680.247 Q805.354 680.247 808.41 684.853 Q811.488 689.437 811.488 698.187 Q811.488 706.914 808.41 711.52 Q805.354 716.103 799.544 716.103 Q793.734 716.103 790.655 711.52 Q787.599 706.914 787.599 698.187 Q787.599 689.437 790.655 684.853 Q793.734 680.247 799.544 680.247 Z" fill="#000000" fill-rule="nonzero" fill-opacity="1" /><path clip-path="url(#clip800)" d="M812.034 684.824 L818.24 684.824 L818.24 663.402 L811.488 664.756 L811.488 661.296 L818.203 659.942 L822.002 659.942 L822.002 684.824 L828.208 684.824 L828.208 688.022 L812.034 688.022 L812.034 684.824 Z" fill="#000000" fill-rule="nonzero" fill-opacity="1" /><polyline clip-path="url(#clip800)" style="stroke:#000000; stroke-linecap:round; stroke-linejoin:round; stroke-width:4; stroke-opacity:1; fill:none" points="277.001,641.212 277.001,135.568 "/>
<polyline clip-path="url(#clip800)" style="stroke:#000000; stroke-linecap:round; stroke-linejoin:round; stroke-width:4; stroke-opacity:1; fill:none" points="277.001,589.947 295.898,589.947 "/>
<polyline clip-path="url(#clip800)" style="stroke:#000000; stroke-linecap:round; stroke-linejoin:round; stroke-width:4; stroke-opacity:1; fill:none" points="277.001,516.601 295.898,516.601 "/>
<polyline clip-path="url(#clip800)" style="stroke:#000000; stroke-linecap:round; stroke-linejoin:round; stroke-width:4; stroke-opacity:1; fill:none" points="277.001,443.256 295.898,443.256 "/>
<polyline clip-path="url(#clip800)" style="stroke:#000000; stroke-linecap:round; stroke-linejoin:round; stroke-width:4; stroke-opacity:1; fill:none" points="277.001,369.91 295.898,369.91 "/>
<polyline clip-path="url(#clip800)" style="stroke:#000000; stroke-linecap:round; stroke-linejoin:round; stroke-width:4; stroke-opacity:1; fill:none" points="277.001,296.565 295.898,296.565 "/>
<polyline clip-path="url(#clip800)" style="stroke:#000000; stroke-linecap:round; stroke-linejoin:round; stroke-width:4; stroke-opacity:1; fill:none" points="277.001,223.219 295.898,223.219 "/>
<polyline clip-path="url(#clip800)" style="stroke:#000000; stroke-linecap:round; stroke-linejoin:round; stroke-width:4; stroke-opacity:1; fill:none" points="277.001,149.873 295.898,149.873 "/>
<path clip-path="url(#clip800)" d="M157.923 590.398 L187.599 590.398 L187.599 594.333 L157.923 594.333 L157.923 590.398 Z" fill="#000000" fill-rule="nonzero" fill-opacity="1" /><path clip-path="url(#clip800)" d="M198.502 603.291 L206.141 603.291 L206.141 576.926 L197.83 578.593 L197.83 574.333 L206.094 572.667 L210.77 572.667 L210.77 603.291 L218.409 603.291 L218.409 607.227 L198.502 607.227 L198.502 603.291 Z" fill="#000000" fill-rule="nonzero" fill-opacity="1" /><path clip-path="url(#clip800)" d="M231.881 603.291 L248.201 603.291 L248.201 607.227 L226.256 607.227 L226.256 603.291 Q228.918 600.537 233.502 595.907 Q238.108 591.255 239.289 589.912 Q241.534 587.389 242.414 585.653 Q243.316 583.893 243.316 582.204 Q243.316 579.449 241.372 577.713 Q239.451 575.977 236.349 575.977 Q234.15 575.977 231.696 576.741 Q229.265 577.505 226.488 579.055 L226.488 574.333 Q229.312 573.199 231.765 572.62 Q234.219 572.042 236.256 572.042 Q241.627 572.042 244.821 574.727 Q248.015 577.412 248.015 581.903 Q248.015 584.032 247.205 585.954 Q246.418 587.852 244.312 590.444 Q243.733 591.116 240.631 594.333 Q237.529 597.528 231.881 603.291 Z" fill="#000000" fill-rule="nonzero" fill-opacity="1" /><path clip-path="url(#clip800)" d="M156.326 517.053 L186.002 517.053 L186.002 520.988 L156.326 520.988 L156.326 517.053 Z" fill="#000000" fill-rule="nonzero" fill-opacity="1" /><path clip-path="url(#clip800)" d="M196.905 529.946 L204.543 529.946 L204.543 503.58 L196.233 505.247 L196.233 500.988 L204.497 499.321 L209.173 499.321 L209.173 529.946 L216.812 529.946 L216.812 533.881 L196.905 533.881 L196.905 529.946 Z" fill="#000000" fill-rule="nonzero" fill-opacity="1" /><path clip-path="url(#clip800)" d="M236.256 502.4 Q232.645 502.4 230.816 505.965 Q229.011 509.506 229.011 516.636 Q229.011 523.742 230.816 527.307 Q232.645 530.849 236.256 530.849 Q239.89 530.849 241.696 527.307 Q243.525 523.742 243.525 516.636 Q243.525 509.506 241.696 505.965 Q239.89 502.4 236.256 502.4 M236.256 498.696 Q242.066 498.696 245.122 503.303 Q248.201 507.886 248.201 516.636 Q248.201 525.363 245.122 529.969 Q242.066 534.552 236.256 534.552 Q230.446 534.552 227.367 529.969 Q224.312 525.363 224.312 516.636 Q224.312 507.886 227.367 503.303 Q230.446 498.696 236.256 498.696 Z" fill="#000000" fill-rule="nonzero" fill-opacity="1" /><path clip-path="url(#clip800)" d="M186.581 443.707 L216.256 443.707 L216.256 447.642 L186.581 447.642 L186.581 443.707 Z" fill="#000000" fill-rule="nonzero" fill-opacity="1" /><path clip-path="url(#clip800)" d="M236.349 444.124 Q233.015 444.124 231.094 445.906 Q229.196 447.688 229.196 450.813 Q229.196 453.938 231.094 455.721 Q233.015 457.503 236.349 457.503 Q239.682 457.503 241.603 455.721 Q243.525 453.915 243.525 450.813 Q243.525 447.688 241.603 445.906 Q239.705 444.124 236.349 444.124 M231.673 442.133 Q228.664 441.392 226.974 439.332 Q225.307 437.272 225.307 434.309 Q225.307 430.165 228.247 427.758 Q231.21 425.351 236.349 425.351 Q241.511 425.351 244.451 427.758 Q247.39 430.165 247.39 434.309 Q247.39 437.272 245.701 439.332 Q244.034 441.392 241.048 442.133 Q244.427 442.92 246.302 445.212 Q248.201 447.503 248.201 450.813 Q248.201 455.837 245.122 458.522 Q242.066 461.207 236.349 461.207 Q230.631 461.207 227.553 458.522 Q224.497 455.837 224.497 450.813 Q224.497 447.503 226.395 445.212 Q228.293 442.92 231.673 442.133 M229.96 434.749 Q229.96 437.434 231.627 438.938 Q233.316 440.443 236.349 440.443 Q239.358 440.443 241.048 438.938 Q242.761 437.434 242.761 434.749 Q242.761 432.064 241.048 430.559 Q239.358 429.054 236.349 429.054 Q233.316 429.054 231.627 430.559 Q229.96 432.064 229.96 434.749 Z" fill="#000000" fill-rule="nonzero" fill-opacity="1" /><path clip-path="url(#clip800)" d="M186.326 370.361 L216.002 370.361 L216.002 374.297 L186.326 374.297 L186.326 370.361 Z" fill="#000000" fill-rule="nonzero" fill-opacity="1" /><path clip-path="url(#clip800)" d="M236.673 368.047 Q233.525 368.047 231.673 370.199 Q229.844 372.352 229.844 376.102 Q229.844 379.829 231.673 382.005 Q233.525 384.158 236.673 384.158 Q239.821 384.158 241.65 382.005 Q243.501 379.829 243.501 376.102 Q243.501 372.352 241.65 370.199 Q239.821 368.047 236.673 368.047 M245.955 353.394 L245.955 357.653 Q244.196 356.82 242.39 356.38 Q240.608 355.94 238.849 355.94 Q234.219 355.94 231.765 359.065 Q229.335 362.19 228.988 368.51 Q230.353 366.496 232.414 365.431 Q234.474 364.343 236.951 364.343 Q242.159 364.343 245.168 367.514 Q248.201 370.662 248.201 376.102 Q248.201 381.426 245.052 384.644 Q241.904 387.861 236.673 387.861 Q230.677 387.861 227.506 383.278 Q224.335 378.672 224.335 369.945 Q224.335 361.75 228.224 356.889 Q232.113 352.005 238.664 352.005 Q240.423 352.005 242.205 352.352 Q244.011 352.7 245.955 353.394 Z" fill="#000000" fill-rule="nonzero" fill-opacity="1" /><path clip-path="url(#clip800)" d="M186.002 297.016 L215.678 297.016 L215.678 300.951 L186.002 300.951 L186.002 297.016 Z" fill="#000000" fill-rule="nonzero" fill-opacity="1" /><path clip-path="url(#clip800)" d="M238.617 283.359 L226.812 301.808 L238.617 301.808 L238.617 283.359 M237.39 279.285 L243.27 279.285 L243.27 301.808 L248.201 301.808 L248.201 305.696 L243.27 305.696 L243.27 313.845 L238.617 313.845 L238.617 305.696 L223.015 305.696 L223.015 301.183 L237.39 279.285 Z" fill="#000000" fill-rule="nonzero" fill-opacity="1" /><path clip-path="url(#clip800)" d="M188.085 223.67 L217.761 223.67 L217.761 227.606 L188.085 227.606 L188.085 223.67 Z" fill="#000000" fill-rule="nonzero" fill-opacity="1" /><path clip-path="url(#clip800)" d="M231.881 236.564 L248.201 236.564 L248.201 240.499 L226.256 240.499 L226.256 236.564 Q228.918 233.809 233.502 229.18 Q238.108 224.527 239.289 223.184 Q241.534 220.661 242.414 218.925 Q243.316 217.166 243.316 215.476 Q243.316 212.721 241.372 210.985 Q239.451 209.249 236.349 209.249 Q234.15 209.249 231.696 210.013 Q229.265 210.777 226.488 212.328 L226.488 207.606 Q229.312 206.471 231.765 205.893 Q234.219 205.314 236.256 205.314 Q241.627 205.314 244.821 207.999 Q248.015 210.684 248.015 215.175 Q248.015 217.305 247.205 219.226 Q246.418 221.124 244.312 223.717 Q243.733 224.388 240.631 227.606 Q237.529 230.8 231.881 236.564 Z" fill="#000000" fill-rule="nonzero" fill-opacity="1" /><path clip-path="url(#clip800)" d="M236.256 135.672 Q232.645 135.672 230.816 139.237 Q229.011 142.779 229.011 149.908 Q229.011 157.015 230.816 160.579 Q232.645 164.121 236.256 164.121 Q239.89 164.121 241.696 160.579 Q243.525 157.015 243.525 149.908 Q243.525 142.779 241.696 139.237 Q239.89 135.672 236.256 135.672 M236.256 131.968 Q242.066 131.968 245.122 136.575 Q248.201 141.158 248.201 149.908 Q248.201 158.635 245.122 163.241 Q242.066 167.825 236.256 167.825 Q230.446 167.825 227.367 163.241 Q224.312 158.635 224.312 149.908 Q224.312 141.158 227.367 136.575 Q230.446 131.968 236.256 131.968 Z" fill="#000000" fill-rule="nonzero" fill-opacity="1" /><path clip-path="url(#clip800)" d="M65.75 633.899 L65.75 624.319 L98.0878 612.192 L65.75 600.002 L65.75 590.422 L113.27 590.422 L113.27 596.692 L71.5428 596.692 L104.135 608.946 L104.135 615.407 L71.5428 627.661 L113.27 627.661 L113.27 633.899 L65.75 633.899 Z" fill="#000000" fill-rule="nonzero" fill-opacity="1" /><path clip-path="url(#clip800)" d="M95.3506 561.712 Q95.3506 568.81 96.9738 571.547 Q98.5971 574.285 102.512 574.285 Q105.631 574.285 107.477 572.248 Q109.291 570.179 109.291 566.646 Q109.291 561.776 105.854 558.848 Q102.385 555.888 96.6555 555.888 L95.3506 555.888 L95.3506 561.712 M92.9316 550.031 L113.27 550.031 L113.27 555.888 L107.859 555.888 Q111.106 557.893 112.665 560.885 Q114.193 563.877 114.193 568.205 Q114.193 573.68 111.138 576.926 Q108.05 580.141 102.894 580.141 Q96.8783 580.141 93.8228 576.131 Q90.7673 572.088 90.7673 564.099 L90.7673 555.888 L90.1943 555.888 Q86.1521 555.888 83.956 558.561 Q81.728 561.203 81.728 566.009 Q81.728 569.065 82.46 571.961 Q83.1921 574.858 84.6562 577.531 L79.2453 577.531 Q78.004 574.316 77.3993 571.293 Q76.7627 568.269 76.7627 565.404 Q76.7627 557.67 80.7731 553.851 Q84.7835 550.031 92.9316 550.031 Z" fill="#000000" fill-rule="nonzero" fill-opacity="1" /><path clip-path="url(#clip800)" d="M95.0323 514.511 Q88.6666 514.511 85.1654 517.152 Q81.6643 519.762 81.6643 524.505 Q81.6643 529.215 85.1654 531.857 Q88.6666 534.467 95.0323 534.467 Q101.366 534.467 104.867 531.857 Q108.368 529.215 108.368 524.505 Q108.368 519.762 104.867 517.152 Q101.366 514.511 95.0323 514.511 M108.846 508.654 Q117.949 508.654 122.373 512.696 Q126.829 516.739 126.829 525.078 Q126.829 528.165 126.352 530.902 Q125.906 533.64 124.951 536.218 L119.254 536.218 Q120.654 533.64 121.323 531.125 Q121.991 528.611 121.991 526.001 Q121.991 520.24 118.967 517.375 Q115.975 514.511 109.896 514.511 L107 514.511 Q110.151 516.325 111.71 519.158 Q113.27 521.99 113.27 525.937 Q113.27 532.494 108.273 536.504 Q103.276 540.515 95.0323 540.515 Q86.7569 540.515 81.7598 536.504 Q76.7627 532.494 76.7627 525.937 Q76.7627 521.99 78.3223 519.158 Q79.8819 516.325 83.0329 514.511 L77.6221 514.511 L77.6221 508.654 L108.846 508.654 Z" fill="#000000" fill-rule="nonzero" fill-opacity="1" /><path clip-path="url(#clip800)" d="M91.7539 466.959 L113.27 466.959 L113.27 472.815 L91.9449 472.815 Q86.8842 472.815 84.3697 474.789 Q81.8553 476.762 81.8553 480.709 Q81.8553 485.451 84.879 488.188 Q87.9027 490.926 93.1226 490.926 L113.27 490.926 L113.27 496.814 L77.6221 496.814 L77.6221 490.926 L83.1602 490.926 Q79.9456 488.825 78.3541 485.992 Q76.7627 483.128 76.7627 479.404 Q76.7627 473.261 80.5821 470.11 Q84.3697 466.959 91.7539 466.959 Z" fill="#000000" fill-rule="nonzero" fill-opacity="1" /><path clip-path="url(#clip800)" d="M77.6221 455.278 L77.6221 449.421 L113.27 449.421 L113.27 455.278 L77.6221 455.278 M63.7448 455.278 L63.7448 449.421 L71.1609 449.421 L71.1609 455.278 L63.7448 455.278 Z" fill="#000000" fill-rule="nonzero" fill-opacity="1" /><path clip-path="url(#clip800)" d="M67.5006 431.375 L77.6221 431.375 L77.6221 419.311 L82.1736 419.311 L82.1736 431.375 L101.525 431.375 Q105.886 431.375 107.127 430.197 Q108.368 428.987 108.368 425.327 L108.368 419.311 L113.27 419.311 L113.27 425.327 Q113.27 432.107 110.756 434.685 Q108.209 437.263 101.525 437.263 L82.1736 437.263 L82.1736 441.56 L77.6221 441.56 L77.6221 437.263 L67.5006 437.263 L67.5006 431.375 Z" fill="#000000" fill-rule="nonzero" fill-opacity="1" /><path clip-path="url(#clip800)" d="M99.2018 412.214 L77.6221 412.214 L77.6221 406.357 L98.979 406.357 Q104.04 406.357 106.586 404.384 Q109.1 402.411 109.1 398.464 Q109.1 393.721 106.077 390.984 Q103.053 388.215 97.8332 388.215 L77.6221 388.215 L77.6221 382.359 L113.27 382.359 L113.27 388.215 L107.796 388.215 Q111.042 390.348 112.633 393.18 Q114.193 395.981 114.193 399.705 Q114.193 405.848 110.374 409.031 Q106.554 412.214 99.2018 412.214 M76.7627 397.477 L76.7627 397.477 Z" fill="#000000" fill-rule="nonzero" fill-opacity="1" /><path clip-path="url(#clip800)" d="M83.0329 346.838 L63.7448 346.838 L63.7448 340.981 L113.27 340.981 L113.27 346.838 L107.923 346.838 Q111.106 348.684 112.665 351.517 Q114.193 354.318 114.193 358.264 Q114.193 364.726 109.037 368.8 Q103.881 372.842 95.4779 372.842 Q87.0752 372.842 81.9189 368.8 Q76.7627 364.726 76.7627 358.264 Q76.7627 354.318 78.3223 351.517 Q79.8501 348.684 83.0329 346.838 M95.4779 366.794 Q101.939 366.794 105.631 364.153 Q109.291 361.479 109.291 356.832 Q109.291 352.185 105.631 349.512 Q101.939 346.838 95.4779 346.838 Q89.0167 346.838 85.3564 349.512 Q81.6643 352.185 81.6643 356.832 Q81.6643 361.479 85.3564 364.153 Q89.0167 366.794 95.4779 366.794 Z" fill="#000000" fill-rule="nonzero" fill-opacity="1" /><path clip-path="url(#clip800)" d="M93.9819 298.427 L96.8465 298.427 L96.8465 325.354 Q102.894 324.972 106.077 321.725 Q109.228 318.447 109.228 312.622 Q109.228 309.248 108.4 306.097 Q107.573 302.915 105.918 299.795 L111.456 299.795 Q112.793 302.946 113.493 306.257 Q114.193 309.567 114.193 312.972 Q114.193 321.502 109.228 326.499 Q104.263 331.465 95.7962 331.465 Q87.0433 331.465 81.9189 326.754 Q76.7627 322.012 76.7627 313.991 Q76.7627 306.798 81.4097 302.628 Q86.0248 298.427 93.9819 298.427 M92.2632 304.283 Q87.4571 304.347 84.5925 306.989 Q81.728 309.599 81.728 313.927 Q81.728 318.829 84.497 321.789 Q87.2661 324.717 92.295 325.163 L92.2632 304.283 Z" fill="#000000" fill-rule="nonzero" fill-opacity="1" /><path clip-path="url(#clip800)" d="M63.8085 254.026 Q71.1291 258.291 78.2905 260.36 Q85.4519 262.429 92.8043 262.429 Q100.157 262.429 107.382 260.36 Q114.575 258.259 121.864 254.026 L121.864 259.118 Q114.384 263.893 107.159 266.28 Q99.9339 268.635 92.8043 268.635 Q85.7065 268.635 78.5133 266.28 Q71.32 263.925 63.8085 259.118 L63.8085 254.026 Z" fill="#000000" fill-rule="nonzero" fill-opacity="1" /><path clip-path="url(#clip800)" d="M83.0329 219.206 L63.7448 219.206 L63.7448 213.349 L113.27 213.349 L113.27 219.206 L107.923 219.206 Q111.106 221.052 112.665 223.884 Q114.193 226.685 114.193 230.632 Q114.193 237.093 109.037 241.167 Q103.881 245.209 95.4779 245.209 Q87.0752 245.209 81.9189 241.167 Q76.7627 237.093 76.7627 230.632 Q76.7627 226.685 78.3223 223.884 Q79.8501 221.052 83.0329 219.206 M95.4779 239.162 Q101.939 239.162 105.631 236.52 Q109.291 233.847 109.291 229.2 Q109.291 224.553 105.631 221.879 Q101.939 219.206 95.4779 219.206 Q89.0167 219.206 85.3564 221.879 Q81.6643 224.553 81.6643 229.2 Q81.6643 233.847 85.3564 236.52 Q89.0167 239.162 95.4779 239.162 Z" fill="#000000" fill-rule="nonzero" fill-opacity="1" /><path clip-path="url(#clip800)" d="M90.5763 194.602 L107.986 194.602 L107.986 184.29 Q107.986 179.102 105.854 176.619 Q103.69 174.104 99.2655 174.104 Q94.8095 174.104 92.7088 176.619 Q90.5763 179.102 90.5763 184.29 L90.5763 194.602 M71.0336 194.602 L85.3564 194.602 L85.3564 185.085 Q85.3564 180.375 83.6058 178.083 Q81.8234 175.76 78.195 175.76 Q74.5984 175.76 72.816 178.083 Q71.0336 180.375 71.0336 185.085 L71.0336 194.602 M65.75 201.031 L65.75 184.608 Q65.75 177.256 68.8056 173.277 Q71.8611 169.298 77.4948 169.298 Q81.8553 169.298 84.4334 171.335 Q87.0115 173.372 87.6481 177.319 Q88.6666 172.577 91.9131 169.967 Q95.1278 167.325 99.9657 167.325 Q106.331 167.325 109.801 171.654 Q113.27 175.982 113.27 183.971 L113.27 201.031 L65.75 201.031 Z" fill="#000000" fill-rule="nonzero" fill-opacity="1" /><path clip-path="url(#clip800)" d="M63.8085 157.49 L63.8085 152.397 Q71.32 147.623 78.5133 145.268 Q85.7065 142.881 92.8043 142.881 Q99.9339 142.881 107.159 145.268 Q114.384 147.623 121.864 152.397 L121.864 157.49 Q114.575 153.257 107.382 151.188 Q100.157 149.087 92.8043 149.087 Q85.4519 149.087 78.2905 151.188 Q71.1291 153.257 63.8085 157.49 Z" fill="#000000" fill-rule="nonzero" fill-opacity="1" /><polyline clip-path="url(#clip802)" style="stroke:#009af9; stroke-linecap:round; stroke-linejoin:round; stroke-width:4; stroke-opacity:1; fill:none" points="296.345,149.879 555.402,150.518 667.336,154.965 721.12,163.532 756.864,176.002 794.94,201.355 814.458,222.15 830.984,245.589 857.965,298.777 879.536,357.873 941.174,626.901 "/>
<path clip-path="url(#clip800)" d="M816.953 256.103 L937.735 256.103 L937.735 152.423 L816.953 152.423  Z" fill="#ffffff" fill-rule="evenodd" fill-opacity="1"/>
<polyline clip-path="url(#clip800)" style="stroke:#000000; stroke-linecap:round; stroke-linejoin:round; stroke-width:4; stroke-opacity:1; fill:none" points="816.953,256.103 937.735,256.103 937.735,152.423 816.953,152.423 816.953,256.103 "/>
<polyline clip-path="url(#clip800)" style="stroke:#009af9; stroke-linecap:round; stroke-linejoin:round; stroke-width:4; stroke-opacity:1; fill:none" points="824.548,204.263 870.116,204.263 "/>
<path clip-path="url(#clip800)" d="M891.553 223.95 Q889.747 228.58 888.034 229.992 Q886.321 231.404 883.451 231.404 L880.048 231.404 L880.048 227.839 L882.548 227.839 Q884.307 227.839 885.28 227.006 Q886.252 226.173 887.432 223.071 L888.196 221.126 L877.71 195.617 L882.224 195.617 L890.326 215.895 L898.428 195.617 L902.942 195.617 L891.553 223.95 Z" fill="#000000" fill-rule="nonzero" fill-opacity="1" /><path clip-path="url(#clip800)" d="M910.233 217.608 L917.872 217.608 L917.872 191.242 L909.562 192.909 L909.562 188.65 L917.826 186.983 L922.502 186.983 L922.502 217.608 L930.141 217.608 L930.141 221.543 L910.233 221.543 L910.233 217.608 Z" fill="#000000" fill-rule="nonzero" fill-opacity="1" /><path clip-path="url(#clip800)" d="M277.001 1328.66 L960.519 1328.66 L960.519 823.02 L277.001 823.02  Z" fill="#ffffff" fill-rule="evenodd" fill-opacity="1"/>
<defs>
  <clipPath id="clip803">
    <rect x="277" y="823" width="685" height="507"/>
  </clipPath>
</defs>
<polyline clip-path="url(#clip803)" style="stroke:#000000; stroke-linecap:round; stroke-linejoin:round; stroke-width:2; stroke-opacity:0.1; fill:none" points="296.345,1328.66 296.345,823.02 "/>
<polyline clip-path="url(#clip803)" style="stroke:#000000; stroke-linecap:round; stroke-linejoin:round; stroke-width:2; stroke-opacity:0.1; fill:none" points="545.105,1328.66 545.105,823.02 "/>
<polyline clip-path="url(#clip803)" style="stroke:#000000; stroke-linecap:round; stroke-linejoin:round; stroke-width:2; stroke-opacity:0.1; fill:none" points="793.865,1328.66 793.865,823.02 "/>
<polyline clip-path="url(#clip803)" style="stroke:#000000; stroke-linecap:round; stroke-linejoin:round; stroke-width:2; stroke-opacity:0.1; fill:none" points="277.001,1271.01 960.519,1271.01 "/>
<polyline clip-path="url(#clip803)" style="stroke:#000000; stroke-linecap:round; stroke-linejoin:round; stroke-width:2; stroke-opacity:0.1; fill:none" points="277.001,1125.88 960.519,1125.88 "/>
<polyline clip-path="url(#clip803)" style="stroke:#000000; stroke-linecap:round; stroke-linejoin:round; stroke-width:2; stroke-opacity:0.1; fill:none" points="277.001,980.745 960.519,980.745 "/>
<polyline clip-path="url(#clip803)" style="stroke:#000000; stroke-linecap:round; stroke-linejoin:round; stroke-width:2; stroke-opacity:0.1; fill:none" points="277.001,835.612 960.519,835.612 "/>
<polyline clip-path="url(#clip800)" style="stroke:#000000; stroke-linecap:round; stroke-linejoin:round; stroke-width:4; stroke-opacity:1; fill:none" points="277.001,1328.66 960.519,1328.66 "/>
<polyline clip-path="url(#clip800)" style="stroke:#000000; stroke-linecap:round; stroke-linejoin:round; stroke-width:4; stroke-opacity:1; fill:none" points="296.345,1328.66 296.345,1309.77 "/>
<polyline clip-path="url(#clip800)" style="stroke:#000000; stroke-linecap:round; stroke-linejoin:round; stroke-width:4; stroke-opacity:1; fill:none" points="545.105,1328.66 545.105,1309.77 "/>
<polyline clip-path="url(#clip800)" style="stroke:#000000; stroke-linecap:round; stroke-linejoin:round; stroke-width:4; stroke-opacity:1; fill:none" points="793.865,1328.66 793.865,1309.77 "/>
<path clip-path="url(#clip800)" d="M246.461 1398.95 L254.1 1398.95 L254.1 1372.58 L245.789 1374.25 L245.789 1369.99 L254.053 1368.32 L258.729 1368.32 L258.729 1398.95 L266.368 1398.95 L266.368 1402.88 L246.461 1402.88 L246.461 1398.95 Z" fill="#000000" fill-rule="nonzero" fill-opacity="1" /><path clip-path="url(#clip800)" d="M285.812 1371.4 Q282.201 1371.4 280.373 1374.97 Q278.567 1378.51 278.567 1385.64 Q278.567 1392.75 280.373 1396.31 Q282.201 1399.85 285.812 1399.85 Q289.447 1399.85 291.252 1396.31 Q293.081 1392.75 293.081 1385.64 Q293.081 1378.51 291.252 1374.97 Q289.447 1371.4 285.812 1371.4 M285.812 1367.7 Q291.622 1367.7 294.678 1372.31 Q297.757 1376.89 297.757 1385.64 Q297.757 1394.37 294.678 1398.97 Q291.622 1403.56 285.812 1403.56 Q280.002 1403.56 276.923 1398.97 Q273.868 1394.37 273.868 1385.64 Q273.868 1376.89 276.923 1372.31 Q280.002 1367.7 285.812 1367.7 Z" fill="#000000" fill-rule="nonzero" fill-opacity="1" /><path clip-path="url(#clip800)" d="M297.757 1361.8 L321.868 1361.8 L321.868 1365 L297.757 1365 L297.757 1361.8 Z" fill="#000000" fill-rule="nonzero" fill-opacity="1" /><path clip-path="url(#clip800)" d="M330.727 1372.28 L336.933 1372.28 L336.933 1350.85 L330.181 1352.21 L330.181 1348.75 L336.896 1347.39 L340.695 1347.39 L340.695 1372.28 L346.901 1372.28 L346.901 1375.47 L330.727 1375.47 L330.727 1372.28 Z" fill="#000000" fill-rule="nonzero" fill-opacity="1" /><path clip-path="url(#clip800)" d="M510.088 1398.95 L517.727 1398.95 L517.727 1372.58 L509.417 1374.25 L509.417 1369.99 L517.68 1368.32 L522.356 1368.32 L522.356 1398.95 L529.995 1398.95 L529.995 1402.88 L510.088 1402.88 L510.088 1398.95 Z" fill="#000000" fill-rule="nonzero" fill-opacity="1" /><path clip-path="url(#clip800)" d="M549.439 1371.4 Q545.828 1371.4 544 1374.97 Q542.194 1378.51 542.194 1385.64 Q542.194 1392.75 544 1396.31 Q545.828 1399.85 549.439 1399.85 Q553.074 1399.85 554.879 1396.31 Q556.708 1392.75 556.708 1385.64 Q556.708 1378.51 554.879 1374.97 Q553.074 1371.4 549.439 1371.4 M549.439 1367.7 Q555.25 1367.7 558.305 1372.31 Q561.384 1376.89 561.384 1385.64 Q561.384 1394.37 558.305 1398.97 Q555.25 1403.56 549.439 1403.56 Q543.629 1403.56 540.551 1398.97 Q537.495 1394.37 537.495 1385.64 Q537.495 1376.89 540.551 1372.31 Q543.629 1367.7 549.439 1367.7 Z" fill="#000000" fill-rule="nonzero" fill-opacity="1" /><path clip-path="url(#clip800)" d="M571.089 1349.9 Q568.155 1349.9 566.669 1352.79 Q565.202 1355.67 565.202 1361.46 Q565.202 1367.24 566.669 1370.13 Q568.155 1373.01 571.089 1373.01 Q574.042 1373.01 575.509 1370.13 Q576.994 1367.24 576.994 1361.46 Q576.994 1355.67 575.509 1352.79 Q574.042 1349.9 571.089 1349.9 M571.089 1346.89 Q575.809 1346.89 578.292 1350.63 Q580.793 1354.35 580.793 1361.46 Q580.793 1368.55 578.292 1372.3 Q575.809 1376.02 571.089 1376.02 Q566.368 1376.02 563.866 1372.3 Q561.384 1368.55 561.384 1361.46 Q561.384 1354.35 563.866 1350.63 Q566.368 1346.89 571.089 1346.89 Z" fill="#000000" fill-rule="nonzero" fill-opacity="1" /><path clip-path="url(#clip800)" d="M760.192 1398.95 L767.831 1398.95 L767.831 1372.58 L759.521 1374.25 L759.521 1369.99 L767.785 1368.32 L772.461 1368.32 L772.461 1398.95 L780.1 1398.95 L780.1 1402.88 L760.192 1402.88 L760.192 1398.95 Z" fill="#000000" fill-rule="nonzero" fill-opacity="1" /><path clip-path="url(#clip800)" d="M799.544 1371.4 Q795.933 1371.4 794.104 1374.97 Q792.299 1378.51 792.299 1385.64 Q792.299 1392.75 794.104 1396.31 Q795.933 1399.85 799.544 1399.85 Q803.178 1399.85 804.984 1396.31 Q806.812 1392.75 806.812 1385.64 Q806.812 1378.51 804.984 1374.97 Q803.178 1371.4 799.544 1371.4 M799.544 1367.7 Q805.354 1367.7 808.41 1372.31 Q811.488 1376.89 811.488 1385.64 Q811.488 1394.37 808.41 1398.97 Q805.354 1403.56 799.544 1403.56 Q793.734 1403.56 790.655 1398.97 Q787.599 1394.37 787.599 1385.64 Q787.599 1376.89 790.655 1372.31 Q793.734 1367.7 799.544 1367.7 Z" fill="#000000" fill-rule="nonzero" fill-opacity="1" /><path clip-path="url(#clip800)" d="M812.034 1372.28 L818.24 1372.28 L818.24 1350.85 L811.488 1352.21 L811.488 1348.75 L818.203 1347.39 L822.002 1347.39 L822.002 1372.28 L828.208 1372.28 L828.208 1375.47 L812.034 1375.47 L812.034 1372.28 Z" fill="#000000" fill-rule="nonzero" fill-opacity="1" /><path clip-path="url(#clip800)" d="M338.573 1437.23 L365.882 1437.23 L365.882 1442.64 L345.003 1442.64 L345.003 1456.65 L363.845 1456.65 L363.845 1462.06 L345.003 1462.06 L345.003 1484.75 L338.573 1484.75 L338.573 1437.23 Z" fill="#000000" fill-rule="nonzero" fill-opacity="1" /><path clip-path="url(#clip800)" d="M391.727 1454.58 Q390.74 1454.01 389.563 1453.75 Q388.417 1453.47 387.016 1453.47 Q382.051 1453.47 379.377 1456.71 Q376.736 1459.93 376.736 1465.97 L376.736 1484.75 L370.847 1484.75 L370.847 1449.1 L376.736 1449.1 L376.736 1454.64 Q378.582 1451.4 381.542 1449.84 Q384.502 1448.25 388.735 1448.25 Q389.34 1448.25 390.072 1448.34 Q390.804 1448.4 391.695 1448.56 L391.727 1454.58 Z" fill="#000000" fill-rule="nonzero" fill-opacity="1" /><path clip-path="url(#clip800)" d="M426.929 1465.46 L426.929 1468.33 L400.002 1468.33 Q400.384 1474.38 403.631 1477.56 Q406.909 1480.71 412.734 1480.71 Q416.108 1480.71 419.259 1479.88 Q422.441 1479.06 425.561 1477.4 L425.561 1482.94 Q422.41 1484.28 419.099 1484.98 Q415.789 1485.68 412.384 1485.68 Q403.854 1485.68 398.857 1480.71 Q393.891 1475.75 393.891 1467.28 Q393.891 1458.53 398.602 1453.4 Q403.344 1448.25 411.365 1448.25 Q418.558 1448.25 422.728 1452.89 Q426.929 1457.51 426.929 1465.46 M421.073 1463.75 Q421.009 1458.94 418.367 1456.08 Q415.757 1453.21 411.429 1453.21 Q406.527 1453.21 403.567 1455.98 Q400.639 1458.75 400.193 1463.78 L421.073 1463.75 Z" fill="#000000" fill-rule="nonzero" fill-opacity="1" /><path clip-path="url(#clip800)" d="M440.043 1466.96 Q440.043 1473.42 442.684 1477.11 Q445.358 1480.77 450.005 1480.77 Q454.652 1480.77 457.326 1477.11 Q459.999 1473.42 459.999 1466.96 Q459.999 1460.5 457.326 1456.84 Q454.652 1453.15 450.005 1453.15 Q445.358 1453.15 442.684 1456.84 Q440.043 1460.5 440.043 1466.96 M459.999 1479.41 Q458.153 1482.59 455.32 1484.15 Q452.519 1485.68 448.573 1485.68 Q442.111 1485.68 438.037 1480.52 Q433.995 1475.36 433.995 1466.96 Q433.995 1458.56 438.037 1453.4 Q442.111 1448.25 448.573 1448.25 Q452.519 1448.25 455.32 1449.81 Q458.153 1451.33 459.999 1454.52 L459.999 1449.1 L465.856 1449.1 L465.856 1498.31 L459.999 1498.31 L459.999 1479.41 Z" fill="#000000" fill-rule="nonzero" fill-opacity="1" /><path clip-path="url(#clip800)" d="M477.314 1470.68 L477.314 1449.1 L483.17 1449.1 L483.17 1470.46 Q483.17 1475.52 485.144 1478.07 Q487.117 1480.58 491.064 1480.58 Q495.806 1480.58 498.543 1477.56 Q501.313 1474.54 501.313 1469.32 L501.313 1449.1 L507.169 1449.1 L507.169 1484.75 L501.313 1484.75 L501.313 1479.28 Q499.18 1482.52 496.347 1484.12 Q493.546 1485.68 489.822 1485.68 Q483.68 1485.68 480.497 1481.86 Q477.314 1478.04 477.314 1470.68 M492.05 1448.25 L492.05 1448.25 Z" fill="#000000" fill-rule="nonzero" fill-opacity="1" /><path clip-path="url(#clip800)" d="M549.724 1465.46 L549.724 1468.33 L522.797 1468.33 Q523.179 1474.38 526.425 1477.56 Q529.704 1480.71 535.528 1480.71 Q538.902 1480.71 542.053 1479.88 Q545.236 1479.06 548.355 1477.4 L548.355 1482.94 Q545.204 1484.28 541.894 1484.98 Q538.584 1485.68 535.178 1485.68 Q526.648 1485.68 521.651 1480.71 Q516.686 1475.75 516.686 1467.28 Q516.686 1458.53 521.396 1453.4 Q526.139 1448.25 534.16 1448.25 Q541.353 1448.25 545.522 1452.89 Q549.724 1457.51 549.724 1465.46 M543.867 1463.75 Q543.804 1458.94 541.162 1456.08 Q538.552 1453.21 534.223 1453.21 Q529.322 1453.21 526.362 1455.98 Q523.433 1458.75 522.988 1463.78 L543.867 1463.75 Z" fill="#000000" fill-rule="nonzero" fill-opacity="1" /><path clip-path="url(#clip800)" d="M588.968 1463.24 L588.968 1484.75 L583.112 1484.75 L583.112 1463.43 Q583.112 1458.37 581.139 1455.85 Q579.165 1453.34 575.218 1453.34 Q570.476 1453.34 567.739 1456.36 Q565.001 1459.39 565.001 1464.61 L565.001 1484.75 L559.113 1484.75 L559.113 1449.1 L565.001 1449.1 L565.001 1454.64 Q567.102 1451.43 569.935 1449.84 Q572.799 1448.25 576.523 1448.25 Q582.666 1448.25 585.817 1452.06 Q588.968 1455.85 588.968 1463.24 Z" fill="#000000" fill-rule="nonzero" fill-opacity="1" /><path clip-path="url(#clip800)" d="M626.303 1450.47 L626.303 1455.95 Q623.821 1454.58 621.306 1453.91 Q618.824 1453.21 616.277 1453.21 Q610.58 1453.21 607.429 1456.84 Q604.278 1460.44 604.278 1466.96 Q604.278 1473.49 607.429 1477.11 Q610.58 1480.71 616.277 1480.71 Q618.824 1480.71 621.306 1480.04 Q623.821 1479.34 626.303 1477.97 L626.303 1483.38 Q623.852 1484.53 621.211 1485.1 Q618.601 1485.68 615.641 1485.68 Q607.588 1485.68 602.846 1480.62 Q598.103 1475.55 598.103 1466.96 Q598.103 1458.24 602.877 1453.24 Q607.684 1448.25 616.023 1448.25 Q618.728 1448.25 621.306 1448.82 Q623.884 1449.36 626.303 1450.47 Z" fill="#000000" fill-rule="nonzero" fill-opacity="1" /><path clip-path="url(#clip800)" d="M651.32 1488.06 Q648.838 1494.43 646.483 1496.37 Q644.127 1498.31 640.18 1498.31 L635.502 1498.31 L635.502 1493.41 L638.939 1493.41 Q641.358 1493.41 642.695 1492.26 Q644.032 1491.12 645.655 1486.85 L646.705 1484.18 L632.287 1449.1 L638.494 1449.1 L649.634 1476.99 L660.774 1449.1 L666.98 1449.1 L651.32 1488.06 Z" fill="#000000" fill-rule="nonzero" fill-opacity="1" /><path clip-path="url(#clip800)" d="M695.244 1435.23 L708.739 1435.23 L708.739 1439.78 L701.1 1439.78 L701.1 1488.8 L708.739 1488.8 L708.739 1493.35 L695.244 1493.35 L695.244 1435.23 Z" fill="#000000" fill-rule="nonzero" fill-opacity="1" /><path clip-path="url(#clip800)" d="M741.873 1454.58 Q740.886 1454.01 739.708 1453.75 Q738.562 1453.47 737.162 1453.47 Q732.197 1453.47 729.523 1456.71 Q726.881 1459.93 726.881 1465.97 L726.881 1484.75 L720.993 1484.75 L720.993 1449.1 L726.881 1449.1 L726.881 1454.64 Q728.727 1451.4 731.687 1449.84 Q734.648 1448.25 738.881 1448.25 Q739.485 1448.25 740.218 1448.34 Q740.95 1448.4 741.841 1448.56 L741.873 1454.58 Z" fill="#000000" fill-rule="nonzero" fill-opacity="1" /><path clip-path="url(#clip800)" d="M764.216 1466.83 Q757.118 1466.83 754.381 1468.46 Q751.644 1470.08 751.644 1473.99 Q751.644 1477.11 753.681 1478.96 Q755.75 1480.77 759.283 1480.77 Q764.153 1480.77 767.081 1477.34 Q770.041 1473.87 770.041 1468.14 L770.041 1466.83 L764.216 1466.83 M775.897 1464.41 L775.897 1484.75 L770.041 1484.75 L770.041 1479.34 Q768.036 1482.59 765.044 1484.15 Q762.052 1485.68 757.723 1485.68 Q752.249 1485.68 749.002 1482.62 Q745.788 1479.53 745.788 1474.38 Q745.788 1468.36 749.798 1465.31 Q753.84 1462.25 761.829 1462.25 L770.041 1462.25 L770.041 1461.68 Q770.041 1457.63 767.367 1455.44 Q764.726 1453.21 759.919 1453.21 Q756.864 1453.21 753.967 1453.94 Q751.071 1454.67 748.397 1456.14 L748.397 1450.73 Q751.612 1449.49 754.636 1448.88 Q757.66 1448.25 760.524 1448.25 Q768.258 1448.25 772.078 1452.26 Q775.897 1456.27 775.897 1464.41 Z" fill="#000000" fill-rule="nonzero" fill-opacity="1" /><path clip-path="url(#clip800)" d="M811.418 1454.52 L811.418 1435.23 L817.274 1435.23 L817.274 1484.75 L811.418 1484.75 L811.418 1479.41 Q809.572 1482.59 806.739 1484.15 Q803.938 1485.68 799.992 1485.68 Q793.53 1485.68 789.456 1480.52 Q785.414 1475.36 785.414 1466.96 Q785.414 1458.56 789.456 1453.4 Q793.53 1448.25 799.992 1448.25 Q803.938 1448.25 806.739 1449.81 Q809.572 1451.33 811.418 1454.52 M791.461 1466.96 Q791.461 1473.42 794.103 1477.11 Q796.777 1480.77 801.424 1480.77 Q806.071 1480.77 808.744 1477.11 Q811.418 1473.42 811.418 1466.96 Q811.418 1460.5 808.744 1456.84 Q806.071 1453.15 801.424 1453.15 Q796.777 1453.15 794.103 1456.84 Q791.461 1460.5 791.461 1466.96 Z" fill="#000000" fill-rule="nonzero" fill-opacity="1" /><path clip-path="url(#clip800)" d="M839.745 1437.23 L845.156 1437.23 L828.605 1490.8 L823.195 1490.8 L839.745 1437.23 Z" fill="#000000" fill-rule="nonzero" fill-opacity="1" /><path clip-path="url(#clip800)" d="M874.025 1450.16 L874.025 1455.69 Q871.542 1454.42 868.868 1453.78 Q866.195 1453.15 863.33 1453.15 Q858.97 1453.15 856.774 1454.48 Q854.609 1455.82 854.609 1458.49 Q854.609 1460.53 856.169 1461.71 Q857.728 1462.85 862.439 1463.91 L864.444 1464.35 Q870.683 1465.69 873.293 1468.14 Q875.934 1470.56 875.934 1474.92 Q875.934 1479.88 871.988 1482.78 Q868.073 1485.68 861.198 1485.68 Q858.333 1485.68 855.214 1485.1 Q852.127 1484.56 848.689 1483.45 L848.689 1477.4 Q851.936 1479.09 855.087 1479.95 Q858.238 1480.77 861.325 1480.77 Q865.463 1480.77 867.691 1479.37 Q869.919 1477.94 869.919 1475.36 Q869.919 1472.98 868.296 1471.7 Q866.704 1470.43 861.261 1469.25 L859.224 1468.77 Q853.782 1467.63 851.363 1465.27 Q848.944 1462.89 848.944 1458.75 Q848.944 1453.72 852.509 1450.98 Q856.073 1448.25 862.63 1448.25 Q865.877 1448.25 868.741 1448.72 Q871.606 1449.2 874.025 1450.16 Z" fill="#000000" fill-rule="nonzero" fill-opacity="1" /><path clip-path="url(#clip800)" d="M898.946 1435.23 L898.946 1493.35 L885.451 1493.35 L885.451 1488.8 L893.058 1488.8 L893.058 1439.78 L885.451 1439.78 L885.451 1435.23 L898.946 1435.23 Z" fill="#000000" fill-rule="nonzero" fill-opacity="1" /><polyline clip-path="url(#clip800)" style="stroke:#000000; stroke-linecap:round; stroke-linejoin:round; stroke-width:4; stroke-opacity:1; fill:none" points="277.001,1328.66 277.001,823.02 "/>
<polyline clip-path="url(#clip800)" style="stroke:#000000; stroke-linecap:round; stroke-linejoin:round; stroke-width:4; stroke-opacity:1; fill:none" points="277.001,1271.01 295.898,1271.01 "/>
<polyline clip-path="url(#clip800)" style="stroke:#000000; stroke-linecap:round; stroke-linejoin:round; stroke-width:4; stroke-opacity:1; fill:none" points="277.001,1125.88 295.898,1125.88 "/>
<polyline clip-path="url(#clip800)" style="stroke:#000000; stroke-linecap:round; stroke-linejoin:round; stroke-width:4; stroke-opacity:1; fill:none" points="277.001,980.745 295.898,980.745 "/>
<polyline clip-path="url(#clip800)" style="stroke:#000000; stroke-linecap:round; stroke-linejoin:round; stroke-width:4; stroke-opacity:1; fill:none" points="277.001,835.612 295.898,835.612 "/>
<path clip-path="url(#clip800)" d="M126.164 1271.46 L155.84 1271.46 L155.84 1275.4 L126.164 1275.4 L126.164 1271.46 Z" fill="#000000" fill-rule="nonzero" fill-opacity="1" /><path clip-path="url(#clip800)" d="M166.743 1284.35 L174.381 1284.35 L174.381 1257.99 L166.071 1259.66 L166.071 1255.4 L174.335 1253.73 L179.011 1253.73 L179.011 1284.35 L186.65 1284.35 L186.65 1288.29 L166.743 1288.29 L166.743 1284.35 Z" fill="#000000" fill-rule="nonzero" fill-opacity="1" /><path clip-path="url(#clip800)" d="M196.141 1253.73 L214.497 1253.73 L214.497 1257.66 L200.423 1257.66 L200.423 1266.14 Q201.442 1265.79 202.46 1265.63 Q203.479 1265.44 204.497 1265.44 Q210.284 1265.44 213.664 1268.61 Q217.043 1271.78 217.043 1277.2 Q217.043 1282.78 213.571 1285.88 Q210.099 1288.96 203.779 1288.96 Q201.604 1288.96 199.335 1288.59 Q197.09 1288.22 194.682 1287.48 L194.682 1282.78 Q196.766 1283.91 198.988 1284.47 Q201.21 1285.03 203.687 1285.03 Q207.691 1285.03 210.029 1282.92 Q212.367 1280.81 212.367 1277.2 Q212.367 1273.59 210.029 1271.48 Q207.691 1269.38 203.687 1269.38 Q201.812 1269.38 199.937 1269.79 Q198.085 1270.21 196.141 1271.09 L196.141 1253.73 Z" fill="#000000" fill-rule="nonzero" fill-opacity="1" /><path clip-path="url(#clip800)" d="M236.256 1256.81 Q232.645 1256.81 230.816 1260.37 Q229.011 1263.91 229.011 1271.04 Q229.011 1278.15 230.816 1281.72 Q232.645 1285.26 236.256 1285.26 Q239.89 1285.26 241.696 1281.72 Q243.525 1278.15 243.525 1271.04 Q243.525 1263.91 241.696 1260.37 Q239.89 1256.81 236.256 1256.81 M236.256 1253.1 Q242.066 1253.1 245.122 1257.71 Q248.201 1262.29 248.201 1271.04 Q248.201 1279.77 245.122 1284.38 Q242.066 1288.96 236.256 1288.96 Q230.446 1288.96 227.367 1284.38 Q224.312 1279.77 224.312 1271.04 Q224.312 1262.29 227.367 1257.71 Q230.446 1253.1 236.256 1253.1 Z" fill="#000000" fill-rule="nonzero" fill-opacity="1" /><path clip-path="url(#clip800)" d="M126.164 1126.33 L155.84 1126.33 L155.84 1130.26 L126.164 1130.26 L126.164 1126.33 Z" fill="#000000" fill-rule="nonzero" fill-opacity="1" /><path clip-path="url(#clip800)" d="M166.743 1139.22 L174.381 1139.22 L174.381 1112.86 L166.071 1114.52 L166.071 1110.26 L174.335 1108.6 L179.011 1108.6 L179.011 1139.22 L186.65 1139.22 L186.65 1143.16 L166.743 1143.16 L166.743 1139.22 Z" fill="#000000" fill-rule="nonzero" fill-opacity="1" /><path clip-path="url(#clip800)" d="M206.094 1111.68 Q202.483 1111.68 200.654 1115.24 Q198.849 1118.78 198.849 1125.91 Q198.849 1133.02 200.654 1136.58 Q202.483 1140.12 206.094 1140.12 Q209.729 1140.12 211.534 1136.58 Q213.363 1133.02 213.363 1125.91 Q213.363 1118.78 211.534 1115.24 Q209.729 1111.68 206.094 1111.68 M206.094 1107.97 Q211.904 1107.97 214.96 1112.58 Q218.039 1117.16 218.039 1125.91 Q218.039 1134.64 214.96 1139.24 Q211.904 1143.83 206.094 1143.83 Q200.284 1143.83 197.205 1139.24 Q194.15 1134.64 194.15 1125.91 Q194.15 1117.16 197.205 1112.58 Q200.284 1107.97 206.094 1107.97 Z" fill="#000000" fill-rule="nonzero" fill-opacity="1" /><path clip-path="url(#clip800)" d="M236.256 1111.68 Q232.645 1111.68 230.816 1115.24 Q229.011 1118.78 229.011 1125.91 Q229.011 1133.02 230.816 1136.58 Q232.645 1140.12 236.256 1140.12 Q239.89 1140.12 241.696 1136.58 Q243.525 1133.02 243.525 1125.91 Q243.525 1118.78 241.696 1115.24 Q239.89 1111.68 236.256 1111.68 M236.256 1107.97 Q242.066 1107.97 245.122 1112.58 Q248.201 1117.16 248.201 1125.91 Q248.201 1134.64 245.122 1139.24 Q242.066 1143.83 236.256 1143.83 Q230.446 1143.83 227.367 1139.24 Q224.312 1134.64 224.312 1125.91 Q224.312 1117.16 227.367 1112.58 Q230.446 1107.97 236.256 1107.97 Z" fill="#000000" fill-rule="nonzero" fill-opacity="1" /><path clip-path="url(#clip800)" d="M156.326 981.196 L186.002 981.196 L186.002 985.131 L156.326 985.131 L156.326 981.196 Z" fill="#000000" fill-rule="nonzero" fill-opacity="1" /><path clip-path="url(#clip800)" d="M196.141 963.465 L214.497 963.465 L214.497 967.4 L200.423 967.4 L200.423 975.872 Q201.442 975.525 202.46 975.363 Q203.479 975.178 204.497 975.178 Q210.284 975.178 213.664 978.349 Q217.043 981.52 217.043 986.937 Q217.043 992.515 213.571 995.617 Q210.099 998.696 203.779 998.696 Q201.604 998.696 199.335 998.326 Q197.09 997.955 194.682 997.214 L194.682 992.515 Q196.766 993.65 198.988 994.205 Q201.21 994.761 203.687 994.761 Q207.691 994.761 210.029 992.654 Q212.367 990.548 212.367 986.937 Q212.367 983.326 210.029 981.219 Q207.691 979.113 203.687 979.113 Q201.812 979.113 199.937 979.529 Q198.085 979.946 196.141 980.826 L196.141 963.465 Z" fill="#000000" fill-rule="nonzero" fill-opacity="1" /><path clip-path="url(#clip800)" d="M236.256 966.543 Q232.645 966.543 230.816 970.108 Q229.011 973.65 229.011 980.779 Q229.011 987.886 230.816 991.451 Q232.645 994.992 236.256 994.992 Q239.89 994.992 241.696 991.451 Q243.525 987.886 243.525 980.779 Q243.525 973.65 241.696 970.108 Q239.89 966.543 236.256 966.543 M236.256 962.84 Q242.066 962.84 245.122 967.446 Q248.201 972.029 248.201 980.779 Q248.201 989.506 245.122 994.113 Q242.066 998.696 236.256 998.696 Q230.446 998.696 227.367 994.113 Q224.312 989.506 224.312 980.779 Q224.312 972.029 227.367 967.446 Q230.446 962.84 236.256 962.84 Z" fill="#000000" fill-rule="nonzero" fill-opacity="1" /><path clip-path="url(#clip800)" d="M236.256 821.411 Q232.645 821.411 230.816 824.976 Q229.011 828.517 229.011 835.647 Q229.011 842.753 230.816 846.318 Q232.645 849.86 236.256 849.86 Q239.89 849.86 241.696 846.318 Q243.525 842.753 243.525 835.647 Q243.525 828.517 241.696 824.976 Q239.89 821.411 236.256 821.411 M236.256 817.707 Q242.066 817.707 245.122 822.314 Q248.201 826.897 248.201 835.647 Q248.201 844.374 245.122 848.98 Q242.066 853.564 236.256 853.564 Q230.446 853.564 227.367 848.98 Q224.312 844.374 224.312 835.647 Q224.312 826.897 227.367 822.314 Q230.446 817.707 236.256 817.707 Z" fill="#000000" fill-rule="nonzero" fill-opacity="1" /><path clip-path="url(#clip800)" d="M40.8717 1257.95 L58.7275 1257.95 L58.7275 1249.86 Q58.7275 1245.38 56.404 1242.93 Q54.0805 1240.48 49.7837 1240.48 Q45.5187 1240.48 43.1952 1242.93 Q40.8717 1245.38 40.8717 1249.86 L40.8717 1257.95 M35.5882 1264.38 L35.5882 1249.86 Q35.5882 1241.88 39.2166 1237.8 Q42.8132 1233.7 49.7837 1233.7 Q56.8178 1233.7 60.4144 1237.8 Q64.011 1241.88 64.011 1249.86 L64.011 1257.95 L83.1082 1257.95 L83.1082 1264.38 L35.5882 1264.38 Z" fill="#000000" fill-rule="nonzero" fill-opacity="1" /><path clip-path="url(#clip800)" d="M61.5921 1195.69 L83.1082 1195.69 L83.1082 1201.55 L61.783 1201.55 Q56.7223 1201.55 54.2078 1203.52 Q51.6934 1205.5 51.6934 1209.44 Q51.6934 1214.18 54.7171 1216.92 Q57.7408 1219.66 62.9607 1219.66 L83.1082 1219.66 L83.1082 1225.55 L33.583 1225.55 L33.583 1219.66 L52.9984 1219.66 Q49.7837 1217.56 48.1923 1214.73 Q46.6008 1211.86 46.6008 1208.14 Q46.6008 1201.99 50.4203 1198.84 Q54.2078 1195.69 61.5921 1195.69 Z" fill="#000000" fill-rule="nonzero" fill-opacity="1" /><path clip-path="url(#clip800)" d="M65.1887 1167.81 Q65.1887 1174.91 66.8119 1177.65 Q68.4352 1180.38 72.3501 1180.38 Q75.4693 1180.38 77.3154 1178.35 Q79.1296 1176.28 79.1296 1172.74 Q79.1296 1167.87 75.6921 1164.95 Q72.2228 1161.99 66.4937 1161.99 L65.1887 1161.99 L65.1887 1167.81 M62.7697 1156.13 L83.1082 1156.13 L83.1082 1161.99 L77.6973 1161.99 Q80.9438 1163.99 82.5034 1166.98 Q84.0312 1169.97 84.0312 1174.3 Q84.0312 1179.78 80.9756 1183.02 Q77.8883 1186.24 72.7321 1186.24 Q66.7165 1186.24 63.6609 1182.23 Q60.6054 1178.19 60.6054 1170.2 L60.6054 1161.99 L60.0325 1161.99 Q55.9902 1161.99 53.7941 1164.66 Q51.5661 1167.3 51.5661 1172.11 Q51.5661 1175.16 52.2981 1178.06 Q53.0302 1180.96 54.4943 1183.63 L49.0835 1183.63 Q47.8421 1180.41 47.2374 1177.39 Q46.6008 1174.37 46.6008 1171.5 Q46.6008 1163.77 50.6112 1159.95 Q54.6216 1156.13 62.7697 1156.13 Z" fill="#000000" fill-rule="nonzero" fill-opacity="1" /><path clip-path="url(#clip800)" d="M48.5105 1121.34 L54.0487 1121.34 Q52.7756 1123.82 52.139 1126.5 Q51.5024 1129.17 51.5024 1132.04 Q51.5024 1136.4 52.8392 1138.59 Q54.176 1140.76 56.8496 1140.76 Q58.8866 1140.76 60.0643 1139.2 Q61.2101 1137.64 62.2605 1132.93 L62.7061 1130.92 Q64.0429 1124.68 66.4937 1122.07 Q68.9126 1119.43 73.2731 1119.43 Q78.2384 1119.43 81.1348 1123.38 Q84.0312 1127.29 84.0312 1134.17 Q84.0312 1137.03 83.4583 1140.15 Q82.9172 1143.24 81.8032 1146.68 L75.7558 1146.68 Q77.4427 1143.43 78.302 1140.28 Q79.1296 1137.13 79.1296 1134.04 Q79.1296 1129.9 77.7291 1127.67 Q76.2969 1125.45 73.7187 1125.45 Q71.3316 1125.45 70.0585 1127.07 Q68.7853 1128.66 67.6077 1134.1 L67.1302 1136.14 Q65.9844 1141.58 63.6291 1144 Q61.242 1146.42 57.1042 1146.42 Q52.0753 1146.42 49.3381 1142.86 Q46.6008 1139.29 46.6008 1132.74 Q46.6008 1129.49 47.0783 1126.62 Q47.5557 1123.76 48.5105 1121.34 Z" fill="#000000" fill-rule="nonzero" fill-opacity="1" /><path clip-path="url(#clip800)" d="M63.8201 1079.61 L66.6846 1079.61 L66.6846 1106.54 Q72.7321 1106.16 75.9149 1102.91 Q79.0659 1099.63 79.0659 1093.81 Q79.0659 1090.44 78.2384 1087.28 Q77.4109 1084.1 75.7558 1080.98 L81.2939 1080.98 Q82.6307 1084.13 83.331 1087.44 Q84.0312 1090.75 84.0312 1094.16 Q84.0312 1102.69 79.0659 1107.69 Q74.1007 1112.65 65.6343 1112.65 Q56.8814 1112.65 51.7571 1107.94 Q46.6008 1103.2 46.6008 1095.18 Q46.6008 1087.98 51.2478 1083.82 Q55.8629 1079.61 63.8201 1079.61 M62.1013 1085.47 Q57.2952 1085.53 54.4306 1088.18 Q51.5661 1090.79 51.5661 1095.11 Q51.5661 1100.02 54.3352 1102.98 Q57.1042 1105.9 62.1332 1106.35 L62.1013 1085.47 Z" fill="#000000" fill-rule="nonzero" fill-opacity="1" /><path clip-path="url(#clip800)" d="M33.6466 1035.21 Q40.9672 1039.48 48.1286 1041.55 Q55.29 1043.62 62.6424 1043.62 Q69.9948 1043.62 77.2199 1041.55 Q84.4131 1039.45 91.7019 1035.21 L91.7019 1040.31 Q84.2222 1045.08 76.9971 1047.47 Q69.772 1049.82 62.6424 1049.82 Q55.5446 1049.82 48.3514 1047.47 Q41.1582 1045.11 33.6466 1040.31 L33.6466 1035.21 Z" fill="#000000" fill-rule="nonzero" fill-opacity="1" /><path clip-path="url(#clip800)" d="M52.8711 1000.39 L33.583 1000.39 L33.583 994.536 L83.1082 994.536 L83.1082 1000.39 L77.761 1000.39 Q80.9438 1002.24 82.5034 1005.07 Q84.0312 1007.87 84.0312 1011.82 Q84.0312 1018.28 78.875 1022.35 Q73.7187 1026.4 65.316 1026.4 Q56.9133 1026.4 51.7571 1022.35 Q46.6008 1018.28 46.6008 1011.82 Q46.6008 1007.87 48.1604 1005.07 Q49.6882 1002.24 52.8711 1000.39 M65.316 1020.35 Q71.7772 1020.35 75.4693 1017.71 Q79.1296 1015.03 79.1296 1010.39 Q79.1296 1005.74 75.4693 1003.07 Q71.7772 1000.39 65.316 1000.39 Q58.8548 1000.39 55.1945 1003.07 Q51.5024 1005.74 51.5024 1010.39 Q51.5024 1015.03 55.1945 1017.71 Q58.8548 1020.35 65.316 1020.35 Z" fill="#000000" fill-rule="nonzero" fill-opacity="1" /><path clip-path="url(#clip800)" d="M63.8201 951.981 L66.6846 951.981 L66.6846 978.908 Q72.7321 978.526 75.9149 975.28 Q79.0659 972.001 79.0659 966.177 Q79.0659 962.803 78.2384 959.652 Q77.4109 956.469 75.7558 953.35 L81.2939 953.35 Q82.6307 956.501 83.331 959.811 Q84.0312 963.121 84.0312 966.527 Q84.0312 975.057 79.0659 980.054 Q74.1007 985.019 65.6343 985.019 Q56.8814 985.019 51.7571 980.309 Q46.6008 975.566 46.6008 967.545 Q46.6008 960.352 51.2478 956.183 Q55.8629 951.981 63.8201 951.981 M62.1013 957.838 Q57.2952 957.901 54.4306 960.543 Q51.5661 963.153 51.5661 967.482 Q51.5661 972.383 54.3352 975.343 Q57.1042 978.272 62.1332 978.717 L62.1013 957.838 Z" fill="#000000" fill-rule="nonzero" fill-opacity="1" /><path clip-path="url(#clip800)" d="M64.8704 918.911 Q58.5047 918.911 55.0036 921.553 Q51.5024 924.163 51.5024 928.906 Q51.5024 933.616 55.0036 936.258 Q58.5047 938.868 64.8704 938.868 Q71.2043 938.868 74.7054 936.258 Q78.2066 933.616 78.2066 928.906 Q78.2066 924.163 74.7054 921.553 Q71.2043 918.911 64.8704 918.911 M78.684 913.055 Q87.787 913.055 92.2111 917.097 Q96.6671 921.139 96.6671 929.479 Q96.6671 932.566 96.1897 935.303 Q95.7441 938.04 94.7892 940.619 L89.0919 940.619 Q90.4924 938.04 91.1608 935.526 Q91.8292 933.012 91.8292 930.402 Q91.8292 924.641 88.8055 921.776 Q85.8136 918.911 79.7343 918.911 L76.8379 918.911 Q79.989 920.726 81.5486 923.558 Q83.1082 926.391 83.1082 930.338 Q83.1082 936.895 78.1111 940.905 Q73.114 944.915 64.8704 944.915 Q56.595 944.915 51.5979 940.905 Q46.6008 936.895 46.6008 930.338 Q46.6008 926.391 48.1604 923.558 Q49.72 920.726 52.8711 918.911 L47.4602 918.911 L47.4602 913.055 L78.684 913.055 Z" fill="#000000" fill-rule="nonzero" fill-opacity="1" /><path clip-path="url(#clip800)" d="M33.6466 901.915 L33.6466 896.822 Q41.1582 892.048 48.3514 889.693 Q55.5446 887.306 62.6424 887.306 Q69.772 887.306 76.9971 889.693 Q84.2222 892.048 91.7019 896.822 L91.7019 901.915 Q84.4131 897.682 77.2199 895.613 Q69.9948 893.512 62.6424 893.512 Q55.29 893.512 48.1286 895.613 Q40.9672 897.682 33.6466 901.915 Z" fill="#000000" fill-rule="nonzero" fill-opacity="1" /><polyline clip-path="url(#clip803)" style="stroke:#009af9; stroke-linecap:round; stroke-linejoin:round; stroke-width:4; stroke-opacity:1; fill:none" points="296.345,837.331 740.463,939.078 794.94,1003.23 823.037,1048.28 838.387,1076.63 863.774,1129.05 884.317,1175.78 893.287,1197.1 905.485,1226.69 923.177,1270.24 932.55,1293.3 941.174,1314.35 "/>
<path clip-path="url(#clip800)" d="M1189.24 1328.66 L1872.76 1328.66 L1872.76 135.568 L1189.24 135.568  Z" fill="#ffffff" fill-rule="evenodd" fill-opacity="1"/>
<defs>
  <clipPath id="clip804">
    <rect x="1189" y="135" width="685" height="1194"/>
  </clipPath>
</defs>
<polyline clip-path="url(#clip804)" style="stroke:#000000; stroke-linecap:round; stroke-linejoin:round; stroke-width:2; stroke-opacity:0.1; fill:none" points="1209.01,1328.66 1209.01,135.568 "/>
<polyline clip-path="url(#clip804)" style="stroke:#000000; stroke-linecap:round; stroke-linejoin:round; stroke-width:2; stroke-opacity:0.1; fill:none" points="1423.81,1328.66 1423.81,135.568 "/>
<polyline clip-path="url(#clip804)" style="stroke:#000000; stroke-linecap:round; stroke-linejoin:round; stroke-width:2; stroke-opacity:0.1; fill:none" points="1638.61,1328.66 1638.61,135.568 "/>
<polyline clip-path="url(#clip804)" style="stroke:#000000; stroke-linecap:round; stroke-linejoin:round; stroke-width:2; stroke-opacity:0.1; fill:none" points="1853.41,1328.66 1853.41,135.568 "/>
<polyline clip-path="url(#clip804)" style="stroke:#000000; stroke-linecap:round; stroke-linejoin:round; stroke-width:2; stroke-opacity:0.1; fill:none" points="1189.24,1294.9 1872.76,1294.9 "/>
<polyline clip-path="url(#clip804)" style="stroke:#000000; stroke-linecap:round; stroke-linejoin:round; stroke-width:2; stroke-opacity:0.1; fill:none" points="1189.24,1013.51 1872.76,1013.51 "/>
<polyline clip-path="url(#clip804)" style="stroke:#000000; stroke-linecap:round; stroke-linejoin:round; stroke-width:2; stroke-opacity:0.1; fill:none" points="1189.24,732.116 1872.76,732.116 "/>
<polyline clip-path="url(#clip804)" style="stroke:#000000; stroke-linecap:round; stroke-linejoin:round; stroke-width:2; stroke-opacity:0.1; fill:none" points="1189.24,450.726 1872.76,450.726 "/>
<polyline clip-path="url(#clip804)" style="stroke:#000000; stroke-linecap:round; stroke-linejoin:round; stroke-width:2; stroke-opacity:0.1; fill:none" points="1189.24,169.335 1872.76,169.335 "/>
<polyline clip-path="url(#clip800)" style="stroke:#000000; stroke-linecap:round; stroke-linejoin:round; stroke-width:4; stroke-opacity:1; fill:none" points="1189.24,1294.9 1872.76,1294.9 "/>
<polyline clip-path="url(#clip800)" style="stroke:#000000; stroke-linecap:round; stroke-linejoin:round; stroke-width:4; stroke-opacity:0; fill:none" points="1209.01,1294.9 1209.01,1294.9 "/>
<polyline clip-path="url(#clip800)" style="stroke:#000000; stroke-linecap:round; stroke-linejoin:round; stroke-width:4; stroke-opacity:0; fill:none" points="1423.81,1294.9 1423.81,1294.9 "/>
<polyline clip-path="url(#clip800)" style="stroke:#000000; stroke-linecap:round; stroke-linejoin:round; stroke-width:4; stroke-opacity:0; fill:none" points="1638.61,1294.9 1638.61,1294.9 "/>
<polyline clip-path="url(#clip800)" style="stroke:#000000; stroke-linecap:round; stroke-linejoin:round; stroke-width:4; stroke-opacity:0; fill:none" points="1853.41,1294.9 1853.41,1294.9 "/>
<path clip-path="url(#clip800)" d="M1147.99 1370.4 L1177.67 1370.4 L1177.67 1374.33 L1147.99 1374.33 L1147.99 1370.4 Z" fill="#000000" fill-rule="nonzero" fill-opacity="1" /><path clip-path="url(#clip800)" d="M1201.93 1368.59 Q1205.28 1369.31 1207.16 1371.58 Q1209.06 1373.84 1209.06 1377.18 Q1209.06 1382.29 1205.54 1385.09 Q1202.02 1387.9 1195.54 1387.9 Q1193.36 1387.9 1191.05 1387.46 Q1188.76 1387.04 1186.3 1386.18 L1186.3 1381.67 Q1188.25 1382.8 1190.56 1383.38 Q1192.88 1383.96 1195.4 1383.96 Q1199.8 1383.96 1202.09 1382.22 Q1204.41 1380.49 1204.41 1377.18 Q1204.41 1374.12 1202.25 1372.41 Q1200.12 1370.67 1196.3 1370.67 L1192.28 1370.67 L1192.28 1366.83 L1196.49 1366.83 Q1199.94 1366.83 1201.77 1365.46 Q1203.6 1364.08 1203.6 1361.48 Q1203.6 1358.82 1201.7 1357.41 Q1199.82 1355.97 1196.3 1355.97 Q1194.38 1355.97 1192.18 1356.39 Q1189.98 1356.81 1187.35 1357.69 L1187.35 1353.52 Q1190.01 1352.78 1192.32 1352.41 Q1194.66 1352.04 1196.72 1352.04 Q1202.04 1352.04 1205.15 1354.47 Q1208.25 1356.88 1208.25 1361 Q1208.25 1363.87 1206.6 1365.86 Q1204.96 1367.83 1201.93 1368.59 Z" fill="#000000" fill-rule="nonzero" fill-opacity="1" /><path clip-path="url(#clip800)" d="M1227.92 1355.74 Q1224.31 1355.74 1222.48 1359.31 Q1220.68 1362.85 1220.68 1369.98 Q1220.68 1377.09 1222.48 1380.65 Q1224.31 1384.19 1227.92 1384.19 Q1231.56 1384.19 1233.36 1380.65 Q1235.19 1377.09 1235.19 1369.98 Q1235.19 1362.85 1233.36 1359.31 Q1231.56 1355.74 1227.92 1355.74 M1227.92 1352.04 Q1233.73 1352.04 1236.79 1356.65 Q1239.87 1361.23 1239.87 1369.98 Q1239.87 1378.71 1236.79 1383.31 Q1233.73 1387.9 1227.92 1387.9 Q1222.11 1387.9 1219.03 1383.31 Q1215.98 1378.71 1215.98 1369.98 Q1215.98 1361.23 1219.03 1356.65 Q1222.11 1352.04 1227.92 1352.04 Z" fill="#000000" fill-rule="nonzero" fill-opacity="1" /><path clip-path="url(#clip800)" d="M1258.09 1355.74 Q1254.47 1355.74 1252.65 1359.31 Q1250.84 1362.85 1250.84 1369.98 Q1250.84 1377.09 1252.65 1380.65 Q1254.47 1384.19 1258.09 1384.19 Q1261.72 1384.19 1263.53 1380.65 Q1265.35 1377.09 1265.35 1369.98 Q1265.35 1362.85 1263.53 1359.31 Q1261.72 1355.74 1258.09 1355.74 M1258.09 1352.04 Q1263.9 1352.04 1266.95 1356.65 Q1270.03 1361.23 1270.03 1369.98 Q1270.03 1378.71 1266.95 1383.31 Q1263.9 1387.9 1258.09 1387.9 Q1252.28 1387.9 1249.2 1383.31 Q1246.14 1378.71 1246.14 1369.98 Q1246.14 1361.23 1249.2 1356.65 Q1252.28 1352.04 1258.09 1352.04 Z" fill="#000000" fill-rule="nonzero" fill-opacity="1" /><path clip-path="url(#clip800)" d="M1362.79 1370.4 L1392.47 1370.4 L1392.47 1374.33 L1362.79 1374.33 L1362.79 1370.4 Z" fill="#000000" fill-rule="nonzero" fill-opacity="1" /><path clip-path="url(#clip800)" d="M1406.59 1383.29 L1422.91 1383.29 L1422.91 1387.22 L1400.96 1387.22 L1400.96 1383.29 Q1403.63 1380.53 1408.21 1375.9 Q1412.82 1371.25 1414 1369.91 Q1416.24 1367.39 1417.12 1365.65 Q1418.02 1363.89 1418.02 1362.2 Q1418.02 1359.45 1416.08 1357.71 Q1414.16 1355.97 1411.06 1355.97 Q1408.86 1355.97 1406.4 1356.74 Q1403.97 1357.5 1401.2 1359.05 L1401.2 1354.33 Q1404.02 1353.2 1406.47 1352.62 Q1408.93 1352.04 1410.96 1352.04 Q1416.33 1352.04 1419.53 1354.72 Q1422.72 1357.41 1422.72 1361.9 Q1422.72 1364.03 1421.91 1365.95 Q1421.13 1367.85 1419.02 1370.44 Q1418.44 1371.11 1415.34 1374.33 Q1412.24 1377.52 1406.59 1383.29 Z" fill="#000000" fill-rule="nonzero" fill-opacity="1" /><path clip-path="url(#clip800)" d="M1442.72 1355.74 Q1439.11 1355.74 1437.28 1359.31 Q1435.48 1362.85 1435.48 1369.98 Q1435.48 1377.09 1437.28 1380.65 Q1439.11 1384.19 1442.72 1384.19 Q1446.36 1384.19 1448.16 1380.65 Q1449.99 1377.09 1449.99 1369.98 Q1449.99 1362.85 1448.16 1359.31 Q1446.36 1355.74 1442.72 1355.74 M1442.72 1352.04 Q1448.53 1352.04 1451.59 1356.65 Q1454.67 1361.23 1454.67 1369.98 Q1454.67 1378.71 1451.59 1383.31 Q1448.53 1387.9 1442.72 1387.9 Q1436.91 1387.9 1433.83 1383.31 Q1430.78 1378.71 1430.78 1369.98 Q1430.78 1361.23 1433.83 1356.65 Q1436.91 1352.04 1442.72 1352.04 Z" fill="#000000" fill-rule="nonzero" fill-opacity="1" /><path clip-path="url(#clip800)" d="M1472.89 1355.74 Q1469.27 1355.74 1467.45 1359.31 Q1465.64 1362.85 1465.64 1369.98 Q1465.64 1377.09 1467.45 1380.65 Q1469.27 1384.19 1472.89 1384.19 Q1476.52 1384.19 1478.33 1380.65 Q1480.15 1377.09 1480.15 1369.98 Q1480.15 1362.85 1478.33 1359.31 Q1476.52 1355.74 1472.89 1355.74 M1472.89 1352.04 Q1478.7 1352.04 1481.75 1356.65 Q1484.83 1361.23 1484.83 1369.98 Q1484.83 1378.71 1481.75 1383.31 Q1478.7 1387.9 1472.89 1387.9 Q1467.08 1387.9 1464 1383.31 Q1460.94 1378.71 1460.94 1369.98 Q1460.94 1361.23 1464 1356.65 Q1467.08 1352.04 1472.89 1352.04 Z" fill="#000000" fill-rule="nonzero" fill-opacity="1" /><path clip-path="url(#clip800)" d="M1577.59 1370.4 L1607.27 1370.4 L1607.27 1374.33 L1577.59 1374.33 L1577.59 1370.4 Z" fill="#000000" fill-rule="nonzero" fill-opacity="1" /><path clip-path="url(#clip800)" d="M1618.17 1383.29 L1625.81 1383.29 L1625.81 1356.92 L1617.5 1358.59 L1617.5 1354.33 L1625.76 1352.66 L1630.44 1352.66 L1630.44 1383.29 L1638.08 1383.29 L1638.08 1387.22 L1618.17 1387.22 L1618.17 1383.29 Z" fill="#000000" fill-rule="nonzero" fill-opacity="1" /><path clip-path="url(#clip800)" d="M1657.52 1355.74 Q1653.91 1355.74 1652.08 1359.31 Q1650.28 1362.85 1650.28 1369.98 Q1650.28 1377.09 1652.08 1380.65 Q1653.91 1384.19 1657.52 1384.19 Q1661.16 1384.19 1662.96 1380.65 Q1664.79 1377.09 1664.79 1369.98 Q1664.79 1362.85 1662.96 1359.31 Q1661.16 1355.74 1657.52 1355.74 M1657.52 1352.04 Q1663.33 1352.04 1666.39 1356.65 Q1669.47 1361.23 1669.47 1369.98 Q1669.47 1378.71 1666.39 1383.31 Q1663.33 1387.9 1657.52 1387.9 Q1651.71 1387.9 1648.63 1383.31 Q1645.58 1378.71 1645.58 1369.98 Q1645.58 1361.23 1648.63 1356.65 Q1651.71 1352.04 1657.52 1352.04 Z" fill="#000000" fill-rule="nonzero" fill-opacity="1" /><path clip-path="url(#clip800)" d="M1687.69 1355.74 Q1684.07 1355.74 1682.25 1359.31 Q1680.44 1362.85 1680.44 1369.98 Q1680.44 1377.09 1682.25 1380.65 Q1684.07 1384.19 1687.69 1384.19 Q1691.32 1384.19 1693.12 1380.65 Q1694.95 1377.09 1694.95 1369.98 Q1694.95 1362.85 1693.12 1359.31 Q1691.32 1355.74 1687.69 1355.74 M1687.69 1352.04 Q1693.5 1352.04 1696.55 1356.65 Q1699.63 1361.23 1699.63 1369.98 Q1699.63 1378.71 1696.55 1383.31 Q1693.5 1387.9 1687.69 1387.9 Q1681.87 1387.9 1678.8 1383.31 Q1675.74 1378.71 1675.74 1369.98 Q1675.74 1361.23 1678.8 1356.65 Q1681.87 1352.04 1687.69 1352.04 Z" fill="#000000" fill-rule="nonzero" fill-opacity="1" /><path clip-path="url(#clip800)" d="M1853.41 1355.74 Q1849.8 1355.74 1847.97 1359.31 Q1846.17 1362.85 1846.17 1369.98 Q1846.17 1377.09 1847.97 1380.65 Q1849.8 1384.19 1853.41 1384.19 Q1857.05 1384.19 1858.85 1380.65 Q1860.68 1377.09 1860.68 1369.98 Q1860.68 1362.85 1858.85 1359.31 Q1857.05 1355.74 1853.41 1355.74 M1853.41 1352.04 Q1859.22 1352.04 1862.28 1356.65 Q1865.36 1361.23 1865.36 1369.98 Q1865.36 1378.71 1862.28 1383.31 Q1859.22 1387.9 1853.41 1387.9 Q1847.6 1387.9 1844.52 1383.31 Q1841.47 1378.71 1841.47 1369.98 Q1841.47 1361.23 1844.52 1356.65 Q1847.6 1352.04 1853.41 1352.04 Z" fill="#000000" fill-rule="nonzero" fill-opacity="1" /><polyline clip-path="url(#clip800)" style="stroke:#000000; stroke-linecap:round; stroke-linejoin:round; stroke-width:4; stroke-opacity:1; fill:none" points="1853.41,1328.66 1853.41,135.568 "/>
<polyline clip-path="url(#clip800)" style="stroke:#000000; stroke-linecap:round; stroke-linejoin:round; stroke-width:4; stroke-opacity:0; fill:none" points="1853.41,1294.9 1853.41,1294.9 "/>
<polyline clip-path="url(#clip800)" style="stroke:#000000; stroke-linecap:round; stroke-linejoin:round; stroke-width:4; stroke-opacity:0; fill:none" points="1853.41,1013.51 1853.41,1013.51 "/>
<polyline clip-path="url(#clip800)" style="stroke:#000000; stroke-linecap:round; stroke-linejoin:round; stroke-width:4; stroke-opacity:0; fill:none" points="1853.41,732.116 1853.41,732.116 "/>
<polyline clip-path="url(#clip800)" style="stroke:#000000; stroke-linecap:round; stroke-linejoin:round; stroke-width:4; stroke-opacity:0; fill:none" points="1853.41,450.726 1853.41,450.726 "/>
<polyline clip-path="url(#clip800)" style="stroke:#000000; stroke-linecap:round; stroke-linejoin:round; stroke-width:4; stroke-opacity:0; fill:none" points="1853.41,169.335 1853.41,169.335 "/>
<path clip-path="url(#clip800)" d="M1073.1 1280.7 Q1069.49 1280.7 1067.66 1284.26 Q1065.85 1287.8 1065.85 1294.93 Q1065.85 1302.04 1067.66 1305.6 Q1069.49 1309.14 1073.1 1309.14 Q1076.73 1309.14 1078.54 1305.6 Q1080.37 1302.04 1080.37 1294.93 Q1080.37 1287.8 1078.54 1284.26 Q1076.73 1280.7 1073.1 1280.7 M1073.1 1276.99 Q1078.91 1276.99 1081.97 1281.6 Q1085.04 1286.18 1085.04 1294.93 Q1085.04 1303.66 1081.97 1308.27 Q1078.91 1312.85 1073.1 1312.85 Q1067.29 1312.85 1064.21 1308.27 Q1061.16 1303.66 1061.16 1294.93 Q1061.16 1286.18 1064.21 1281.6 Q1067.29 1276.99 1073.1 1276.99 Z" fill="#000000" fill-rule="nonzero" fill-opacity="1" /><path clip-path="url(#clip800)" d="M1093.26 1306.3 L1098.15 1306.3 L1098.15 1312.18 L1093.26 1312.18 L1093.26 1306.3 Z" fill="#000000" fill-rule="nonzero" fill-opacity="1" /><path clip-path="url(#clip800)" d="M1118.33 1280.7 Q1114.72 1280.7 1112.89 1284.26 Q1111.09 1287.8 1111.09 1294.93 Q1111.09 1302.04 1112.89 1305.6 Q1114.72 1309.14 1118.33 1309.14 Q1121.97 1309.14 1123.77 1305.6 Q1125.6 1302.04 1125.6 1294.93 Q1125.6 1287.8 1123.77 1284.26 Q1121.97 1280.7 1118.33 1280.7 M1118.33 1276.99 Q1124.14 1276.99 1127.2 1281.6 Q1130.28 1286.18 1130.28 1294.93 Q1130.28 1303.66 1127.2 1308.27 Q1124.14 1312.85 1118.33 1312.85 Q1112.52 1312.85 1109.44 1308.27 Q1106.39 1303.66 1106.39 1294.93 Q1106.39 1286.18 1109.44 1281.6 Q1112.52 1276.99 1118.33 1276.99 Z" fill="#000000" fill-rule="nonzero" fill-opacity="1" /><path clip-path="url(#clip800)" d="M1148.49 1280.7 Q1144.88 1280.7 1143.05 1284.26 Q1141.25 1287.8 1141.25 1294.93 Q1141.25 1302.04 1143.05 1305.6 Q1144.88 1309.14 1148.49 1309.14 Q1152.13 1309.14 1153.93 1305.6 Q1155.76 1302.04 1155.76 1294.93 Q1155.76 1287.8 1153.93 1284.26 Q1152.13 1280.7 1148.49 1280.7 M1148.49 1276.99 Q1154.3 1276.99 1157.36 1281.6 Q1160.44 1286.18 1160.44 1294.93 Q1160.44 1303.66 1157.36 1308.27 Q1154.3 1312.85 1148.49 1312.85 Q1142.68 1312.85 1139.6 1308.27 Q1136.55 1303.66 1136.55 1294.93 Q1136.55 1286.18 1139.6 1281.6 Q1142.68 1276.99 1148.49 1276.99 Z" fill="#000000" fill-rule="nonzero" fill-opacity="1" /><path clip-path="url(#clip800)" d="M1074.1 999.305 Q1070.48 999.305 1068.66 1002.87 Q1066.85 1006.41 1066.85 1013.54 Q1066.85 1020.65 1068.66 1024.21 Q1070.48 1027.75 1074.1 1027.75 Q1077.73 1027.75 1079.53 1024.21 Q1081.36 1020.65 1081.36 1013.54 Q1081.36 1006.41 1079.53 1002.87 Q1077.73 999.305 1074.1 999.305 M1074.1 995.602 Q1079.91 995.602 1082.96 1000.21 Q1086.04 1004.79 1086.04 1013.54 Q1086.04 1022.27 1082.96 1026.87 Q1079.91 1031.46 1074.1 1031.46 Q1068.28 1031.46 1065.21 1026.87 Q1062.15 1022.27 1062.15 1013.54 Q1062.15 1004.79 1065.21 1000.21 Q1068.28 995.602 1074.1 995.602 Z" fill="#000000" fill-rule="nonzero" fill-opacity="1" /><path clip-path="url(#clip800)" d="M1094.26 1024.91 L1099.14 1024.91 L1099.14 1030.79 L1094.26 1030.79 L1094.26 1024.91 Z" fill="#000000" fill-rule="nonzero" fill-opacity="1" /><path clip-path="url(#clip800)" d="M1113.35 1026.85 L1129.67 1026.85 L1129.67 1030.79 L1107.73 1030.79 L1107.73 1026.85 Q1110.39 1024.1 1114.97 1019.47 Q1119.58 1014.81 1120.76 1013.47 Q1123.01 1010.95 1123.89 1009.21 Q1124.79 1007.45 1124.79 1005.76 Q1124.79 1003.01 1122.84 1001.27 Q1120.92 999.537 1117.82 999.537 Q1115.62 999.537 1113.17 1000.3 Q1110.74 1001.06 1107.96 1002.62 L1107.96 997.893 Q1110.78 996.759 1113.24 996.18 Q1115.69 995.602 1117.73 995.602 Q1123.1 995.602 1126.29 998.287 Q1129.49 1000.97 1129.49 1005.46 Q1129.49 1007.59 1128.68 1009.51 Q1127.89 1011.41 1125.78 1014 Q1125.21 1014.68 1122.1 1017.89 Q1119 1021.09 1113.35 1026.85 Z" fill="#000000" fill-rule="nonzero" fill-opacity="1" /><path clip-path="url(#clip800)" d="M1139.53 996.227 L1157.89 996.227 L1157.89 1000.16 L1143.82 1000.16 L1143.82 1008.63 Q1144.84 1008.29 1145.85 1008.12 Q1146.87 1007.94 1147.89 1007.94 Q1153.68 1007.94 1157.06 1011.11 Q1160.44 1014.28 1160.44 1019.7 Q1160.44 1025.28 1156.97 1028.38 Q1153.49 1031.46 1147.17 1031.46 Q1145 1031.46 1142.73 1031.09 Q1140.48 1030.72 1138.08 1029.98 L1138.08 1025.28 Q1140.16 1026.41 1142.38 1026.97 Q1144.6 1027.52 1147.08 1027.52 Q1151.09 1027.52 1153.42 1025.42 Q1155.76 1023.31 1155.76 1019.7 Q1155.76 1016.09 1153.42 1013.98 Q1151.09 1011.87 1147.08 1011.87 Q1145.21 1011.87 1143.33 1012.29 Q1141.48 1012.71 1139.53 1013.59 L1139.53 996.227 Z" fill="#000000" fill-rule="nonzero" fill-opacity="1" /><path clip-path="url(#clip800)" d="M1073.1 717.915 Q1069.49 717.915 1067.66 721.48 Q1065.85 725.021 1065.85 732.151 Q1065.85 739.257 1067.66 742.822 Q1069.49 746.364 1073.1 746.364 Q1076.73 746.364 1078.54 742.822 Q1080.37 739.257 1080.37 732.151 Q1080.37 725.021 1078.54 721.48 Q1076.73 717.915 1073.1 717.915 M1073.1 714.211 Q1078.91 714.211 1081.97 718.818 Q1085.04 723.401 1085.04 732.151 Q1085.04 740.878 1081.97 745.484 Q1078.91 750.067 1073.1 750.067 Q1067.29 750.067 1064.21 745.484 Q1061.16 740.878 1061.16 732.151 Q1061.16 723.401 1064.21 718.818 Q1067.29 714.211 1073.1 714.211 Z" fill="#000000" fill-rule="nonzero" fill-opacity="1" /><path clip-path="url(#clip800)" d="M1093.26 743.516 L1098.15 743.516 L1098.15 749.396 L1093.26 749.396 L1093.26 743.516 Z" fill="#000000" fill-rule="nonzero" fill-opacity="1" /><path clip-path="url(#clip800)" d="M1108.38 714.836 L1126.73 714.836 L1126.73 718.771 L1112.66 718.771 L1112.66 727.243 Q1113.68 726.896 1114.7 726.734 Q1115.72 726.549 1116.73 726.549 Q1122.52 726.549 1125.9 729.72 Q1129.28 732.892 1129.28 738.308 Q1129.28 743.887 1125.81 746.989 Q1122.34 750.067 1116.02 750.067 Q1113.84 750.067 1111.57 749.697 Q1109.33 749.327 1106.92 748.586 L1106.92 743.887 Q1109 745.021 1111.22 745.577 Q1113.45 746.132 1115.92 746.132 Q1119.93 746.132 1122.27 744.026 Q1124.6 741.919 1124.6 738.308 Q1124.6 734.697 1122.27 732.591 Q1119.93 730.484 1115.92 730.484 Q1114.05 730.484 1112.17 730.901 Q1110.32 731.317 1108.38 732.197 L1108.38 714.836 Z" fill="#000000" fill-rule="nonzero" fill-opacity="1" /><path clip-path="url(#clip800)" d="M1148.49 717.915 Q1144.88 717.915 1143.05 721.48 Q1141.25 725.021 1141.25 732.151 Q1141.25 739.257 1143.05 742.822 Q1144.88 746.364 1148.49 746.364 Q1152.13 746.364 1153.93 742.822 Q1155.76 739.257 1155.76 732.151 Q1155.76 725.021 1153.93 721.48 Q1152.13 717.915 1148.49 717.915 M1148.49 714.211 Q1154.3 714.211 1157.36 718.818 Q1160.44 723.401 1160.44 732.151 Q1160.44 740.878 1157.36 745.484 Q1154.3 750.067 1148.49 750.067 Q1142.68 750.067 1139.6 745.484 Q1136.55 740.878 1136.55 732.151 Q1136.55 723.401 1139.6 718.818 Q1142.68 714.211 1148.49 714.211 Z" fill="#000000" fill-rule="nonzero" fill-opacity="1" /><path clip-path="url(#clip800)" d="M1074.1 436.524 Q1070.48 436.524 1068.66 440.089 Q1066.85 443.631 1066.85 450.76 Q1066.85 457.867 1068.66 461.431 Q1070.48 464.973 1074.1 464.973 Q1077.73 464.973 1079.53 461.431 Q1081.36 457.867 1081.36 450.76 Q1081.36 443.631 1079.53 440.089 Q1077.73 436.524 1074.1 436.524 M1074.1 432.821 Q1079.91 432.821 1082.96 437.427 Q1086.04 442.01 1086.04 450.76 Q1086.04 459.487 1082.96 464.094 Q1079.91 468.677 1074.1 468.677 Q1068.28 468.677 1065.21 464.094 Q1062.15 459.487 1062.15 450.76 Q1062.15 442.01 1065.21 437.427 Q1068.28 432.821 1074.1 432.821 Z" fill="#000000" fill-rule="nonzero" fill-opacity="1" /><path clip-path="url(#clip800)" d="M1094.26 462.126 L1099.14 462.126 L1099.14 468.006 L1094.26 468.006 L1094.26 462.126 Z" fill="#000000" fill-rule="nonzero" fill-opacity="1" /><path clip-path="url(#clip800)" d="M1108.15 433.446 L1130.37 433.446 L1130.37 435.436 L1117.82 468.006 L1112.94 468.006 L1124.74 437.381 L1108.15 437.381 L1108.15 433.446 Z" fill="#000000" fill-rule="nonzero" fill-opacity="1" /><path clip-path="url(#clip800)" d="M1139.53 433.446 L1157.89 433.446 L1157.89 437.381 L1143.82 437.381 L1143.82 445.853 Q1144.84 445.506 1145.85 445.344 Q1146.87 445.158 1147.89 445.158 Q1153.68 445.158 1157.06 448.33 Q1160.44 451.501 1160.44 456.918 Q1160.44 462.496 1156.97 465.598 Q1153.49 468.677 1147.17 468.677 Q1145 468.677 1142.73 468.306 Q1140.48 467.936 1138.08 467.195 L1138.08 462.496 Q1140.16 463.631 1142.38 464.186 Q1144.6 464.742 1147.08 464.742 Q1151.09 464.742 1153.42 462.635 Q1155.76 460.529 1155.76 456.918 Q1155.76 453.307 1153.42 451.2 Q1151.09 449.094 1147.08 449.094 Q1145.21 449.094 1143.33 449.51 Q1141.48 449.927 1139.53 450.807 L1139.53 433.446 Z" fill="#000000" fill-rule="nonzero" fill-opacity="1" /><path clip-path="url(#clip800)" d="M1063.91 182.68 L1071.55 182.68 L1071.55 156.314 L1063.24 157.981 L1063.24 153.722 L1071.5 152.055 L1076.18 152.055 L1076.18 182.68 L1083.82 182.68 L1083.82 186.615 L1063.91 186.615 L1063.91 182.68 Z" fill="#000000" fill-rule="nonzero" fill-opacity="1" /><path clip-path="url(#clip800)" d="M1093.26 180.735 L1098.15 180.735 L1098.15 186.615 L1093.26 186.615 L1093.26 180.735 Z" fill="#000000" fill-rule="nonzero" fill-opacity="1" /><path clip-path="url(#clip800)" d="M1118.33 155.134 Q1114.72 155.134 1112.89 158.698 Q1111.09 162.24 1111.09 169.37 Q1111.09 176.476 1112.89 180.041 Q1114.72 183.583 1118.33 183.583 Q1121.97 183.583 1123.77 180.041 Q1125.6 176.476 1125.6 169.37 Q1125.6 162.24 1123.77 158.698 Q1121.97 155.134 1118.33 155.134 M1118.33 151.43 Q1124.14 151.43 1127.2 156.036 Q1130.28 160.62 1130.28 169.37 Q1130.28 178.097 1127.2 182.703 Q1124.14 187.286 1118.33 187.286 Q1112.52 187.286 1109.44 182.703 Q1106.39 178.097 1106.39 169.37 Q1106.39 160.62 1109.44 156.036 Q1112.52 151.43 1118.33 151.43 Z" fill="#000000" fill-rule="nonzero" fill-opacity="1" /><path clip-path="url(#clip800)" d="M1148.49 155.134 Q1144.88 155.134 1143.05 158.698 Q1141.25 162.24 1141.25 169.37 Q1141.25 176.476 1143.05 180.041 Q1144.88 183.583 1148.49 183.583 Q1152.13 183.583 1153.93 180.041 Q1155.76 176.476 1155.76 169.37 Q1155.76 162.24 1153.93 158.698 Q1152.13 155.134 1148.49 155.134 M1148.49 151.43 Q1154.3 151.43 1157.36 156.036 Q1160.44 160.62 1160.44 169.37 Q1160.44 178.097 1157.36 182.703 Q1154.3 187.286 1148.49 187.286 Q1142.68 187.286 1139.6 182.703 Q1136.55 178.097 1136.55 169.37 Q1136.55 160.62 1139.6 156.036 Q1142.68 151.43 1148.49 151.43 Z" fill="#000000" fill-rule="nonzero" fill-opacity="1" /><path clip-path="url(#clip800)" d="M1250.43 18.8205 L1250.43 41.5461 L1260.72 41.5461 Q1266.43 41.5461 1269.55 38.5889 Q1272.67 35.6318 1272.67 30.163 Q1272.67 24.7348 1269.55 21.7777 Q1266.43 18.8205 1260.72 18.8205 L1250.43 18.8205 M1242.25 12.096 L1260.72 12.096 Q1270.89 12.096 1276.07 16.714 Q1281.3 21.2916 1281.3 30.163 Q1281.3 39.1155 1276.07 43.6931 Q1270.89 48.2706 1260.72 48.2706 L1250.43 48.2706 L1250.43 72.576 L1242.25 72.576 L1242.25 12.096 Z" fill="#000000" fill-rule="nonzero" fill-opacity="1" /><path clip-path="url(#clip800)" d="M1306.58 32.4315 Q1300.58 32.4315 1297.1 37.1306 Q1293.61 41.7891 1293.61 49.9314 Q1293.61 58.0738 1297.06 62.7728 Q1300.54 67.4314 1306.58 67.4314 Q1312.53 67.4314 1316.02 62.7323 Q1319.5 58.0333 1319.5 49.9314 Q1319.5 41.8701 1316.02 37.1711 Q1312.53 32.4315 1306.58 32.4315 M1306.58 26.1121 Q1316.3 26.1121 1321.85 32.4315 Q1327.4 38.7509 1327.4 49.9314 Q1327.4 61.0714 1321.85 67.4314 Q1316.3 73.7508 1306.58 73.7508 Q1296.81 73.7508 1291.26 67.4314 Q1285.75 61.0714 1285.75 49.9314 Q1285.75 38.7509 1291.26 32.4315 Q1296.81 26.1121 1306.58 26.1121 Z" fill="#000000" fill-rule="nonzero" fill-opacity="1" /><path clip-path="url(#clip800)" d="M1339.75 9.54393 L1347.21 9.54393 L1347.21 72.576 L1339.75 72.576 L1339.75 9.54393 Z" fill="#000000" fill-rule="nonzero" fill-opacity="1" /><path clip-path="url(#clip800)" d="M1401.61 48.0275 L1401.61 51.6733 L1367.34 51.6733 Q1367.83 59.3701 1371.96 63.421 Q1376.13 67.4314 1383.54 67.4314 Q1387.84 67.4314 1391.85 66.3781 Q1395.9 65.3249 1399.87 63.2184 L1399.87 70.267 Q1395.86 71.9684 1391.65 72.8596 Q1387.43 73.7508 1383.1 73.7508 Q1372.24 73.7508 1365.88 67.4314 Q1359.56 61.1119 1359.56 50.3365 Q1359.56 39.1965 1365.56 32.6746 Q1371.59 26.1121 1381.8 26.1121 Q1390.96 26.1121 1396.26 32.0264 Q1401.61 37.9003 1401.61 48.0275 M1394.16 45.84 Q1394.08 39.7232 1390.71 36.0774 Q1387.39 32.4315 1381.88 32.4315 Q1375.64 32.4315 1371.88 35.9558 Q1368.15 39.4801 1367.58 45.8805 L1394.16 45.84 Z" fill="#000000" fill-rule="nonzero" fill-opacity="1" /><path clip-path="url(#clip800)" d="M1410.08 46.5287 L1431.91 46.5287 L1431.91 53.1722 L1410.08 53.1722 L1410.08 46.5287 Z" fill="#000000" fill-rule="nonzero" fill-opacity="1" /><path clip-path="url(#clip800)" d="M1440.54 27.2059 L1475.94 27.2059 L1475.94 34.0114 L1447.91 66.6212 L1475.94 66.6212 L1475.94 72.576 L1439.53 72.576 L1439.53 65.7705 L1467.56 33.1607 L1440.54 33.1607 L1440.54 27.2059 Z" fill="#000000" fill-rule="nonzero" fill-opacity="1" /><path clip-path="url(#clip800)" d="M1526.14 48.0275 L1526.14 51.6733 L1491.86 51.6733 Q1492.35 59.3701 1496.48 63.421 Q1500.66 67.4314 1508.07 67.4314 Q1512.36 67.4314 1516.37 66.3781 Q1520.42 65.3249 1524.39 63.2184 L1524.39 70.267 Q1520.38 71.9684 1516.17 72.8596 Q1511.96 73.7508 1507.62 73.7508 Q1496.77 73.7508 1490.41 67.4314 Q1484.09 61.1119 1484.09 50.3365 Q1484.09 39.1965 1490.08 32.6746 Q1496.12 26.1121 1506.33 26.1121 Q1515.48 26.1121 1520.79 32.0264 Q1526.14 37.9003 1526.14 48.0275 M1518.68 45.84 Q1518.6 39.7232 1515.24 36.0774 Q1511.92 32.4315 1506.41 32.4315 Q1500.17 32.4315 1496.4 35.9558 Q1492.68 39.4801 1492.11 45.8805 L1518.68 45.84 Z" fill="#000000" fill-rule="nonzero" fill-opacity="1" /><path clip-path="url(#clip800)" d="M1564.66 34.1734 Q1563.4 33.4443 1561.9 33.1202 Q1560.45 32.7556 1558.66 32.7556 Q1552.34 32.7556 1548.94 36.8875 Q1545.58 40.9789 1545.58 48.6757 L1545.58 72.576 L1538.09 72.576 L1538.09 27.2059 L1545.58 27.2059 L1545.58 34.2544 Q1547.93 30.1225 1551.7 28.1376 Q1555.46 26.1121 1560.85 26.1121 Q1561.62 26.1121 1562.55 26.2337 Q1563.48 26.3147 1564.62 26.5172 L1564.66 34.1734 Z" fill="#000000" fill-rule="nonzero" fill-opacity="1" /><path clip-path="url(#clip800)" d="M1588.24 32.4315 Q1582.24 32.4315 1578.76 37.1306 Q1575.27 41.7891 1575.27 49.9314 Q1575.27 58.0738 1578.72 62.7728 Q1582.2 67.4314 1588.24 67.4314 Q1594.19 67.4314 1597.67 62.7323 Q1601.16 58.0333 1601.16 49.9314 Q1601.16 41.8701 1597.67 37.1711 Q1594.19 32.4315 1588.24 32.4315 M1588.24 26.1121 Q1597.96 26.1121 1603.51 32.4315 Q1609.06 38.7509 1609.06 49.9314 Q1609.06 61.0714 1603.51 67.4314 Q1597.96 73.7508 1588.24 73.7508 Q1578.47 73.7508 1572.92 67.4314 Q1567.41 61.0714 1567.41 49.9314 Q1567.41 38.7509 1572.92 32.4315 Q1578.47 26.1121 1588.24 26.1121 Z" fill="#000000" fill-rule="nonzero" fill-opacity="1" /><path clip-path="url(#clip800)" d="M1683.11 35.9153 Q1685.9 30.8922 1689.79 28.5022 Q1693.68 26.1121 1698.95 26.1121 Q1706.04 26.1121 1709.88 31.0947 Q1713.73 36.0368 1713.73 45.1919 L1713.73 72.576 L1706.24 72.576 L1706.24 45.4349 Q1706.24 38.913 1703.93 35.7533 Q1701.62 32.5936 1696.88 32.5936 Q1691.09 32.5936 1687.73 36.4419 Q1684.36 40.2903 1684.36 46.9338 L1684.36 72.576 L1676.87 72.576 L1676.87 45.4349 Q1676.87 38.8725 1674.56 35.7533 Q1672.25 32.5936 1667.43 32.5936 Q1661.72 32.5936 1658.36 36.4824 Q1654.99 40.3308 1654.99 46.9338 L1654.99 72.576 L1647.5 72.576 L1647.5 27.2059 L1654.99 27.2059 L1654.99 34.2544 Q1657.55 30.082 1661.11 28.0971 Q1664.68 26.1121 1669.58 26.1121 Q1674.52 26.1121 1677.96 28.6237 Q1681.45 31.1352 1683.11 35.9153 Z" fill="#000000" fill-rule="nonzero" fill-opacity="1" /><path clip-path="url(#clip800)" d="M1749.22 49.7694 Q1740.19 49.7694 1736.7 51.8354 Q1733.22 53.9013 1733.22 58.8839 Q1733.22 62.8538 1735.81 65.2034 Q1738.44 67.5124 1742.94 67.5124 Q1749.14 67.5124 1752.86 63.1374 Q1756.63 58.7219 1756.63 51.4303 L1756.63 49.7694 L1749.22 49.7694 M1764.09 46.6907 L1764.09 72.576 L1756.63 72.576 L1756.63 65.6895 Q1754.08 69.8214 1750.27 71.8063 Q1746.46 73.7508 1740.95 73.7508 Q1733.99 73.7508 1729.86 69.8619 Q1725.76 65.9325 1725.76 59.3701 Q1725.76 51.7138 1730.87 47.825 Q1736.01 43.9361 1746.18 43.9361 L1756.63 43.9361 L1756.63 43.2069 Q1756.63 38.0623 1753.23 35.2672 Q1749.87 32.4315 1743.75 32.4315 Q1739.86 32.4315 1736.17 33.3632 Q1732.49 34.295 1729.09 36.1584 L1729.09 29.2718 Q1733.18 27.692 1737.03 26.9223 Q1740.87 26.1121 1744.52 26.1121 Q1754.36 26.1121 1759.22 31.2163 Q1764.09 36.3204 1764.09 46.6907 Z" fill="#000000" fill-rule="nonzero" fill-opacity="1" /><path clip-path="url(#clip800)" d="M1786.65 65.7705 L1786.65 89.8329 L1779.15 89.8329 L1779.15 27.2059 L1786.65 27.2059 L1786.65 34.0924 Q1789 30.0415 1792.56 28.0971 Q1796.17 26.1121 1801.15 26.1121 Q1809.42 26.1121 1814.56 32.6746 Q1819.75 39.2371 1819.75 49.9314 Q1819.75 60.6258 1814.56 67.1883 Q1809.42 73.7508 1801.15 73.7508 Q1796.17 73.7508 1792.56 71.8063 Q1789 69.8214 1786.65 65.7705 M1812.01 49.9314 Q1812.01 41.7081 1808.61 37.0496 Q1805.24 32.3505 1799.33 32.3505 Q1793.41 32.3505 1790.01 37.0496 Q1786.65 41.7081 1786.65 49.9314 Q1786.65 58.1548 1790.01 62.8538 Q1793.41 67.5124 1799.33 67.5124 Q1805.24 67.5124 1808.61 62.8538 Q1812.01 58.1548 1812.01 49.9314 Z" fill="#000000" fill-rule="nonzero" fill-opacity="1" /><line clip-path="url(#clip804)" x1="1789.01" y1="1294.9" x2="1729.01" y2="1234.9" style="stroke:#009af9; stroke-width:3.072; stroke-opacity:0.5"/>
<line clip-path="url(#clip804)" x1="1789.01" y1="1294.9" x2="1729.01" y2="1354.9" style="stroke:#009af9; stroke-width:3.072; stroke-opacity:0.5"/>
<line clip-path="url(#clip804)" x1="1789.01" y1="1294.9" x2="1849.01" y2="1354.9" style="stroke:#009af9; stroke-width:3.072; stroke-opacity:0.5"/>
<line clip-path="url(#clip804)" x1="1789.01" y1="1294.9" x2="1849.01" y2="1234.9" style="stroke:#009af9; stroke-width:3.072; stroke-opacity:0.5"/>
<line clip-path="url(#clip804)" x1="1788.97" y1="1294.9" x2="1728.97" y2="1234.9" style="stroke:#009af9; stroke-width:3.072; stroke-opacity:0.5"/>
<line clip-path="url(#clip804)" x1="1788.97" y1="1294.9" x2="1728.97" y2="1354.9" style="stroke:#009af9; stroke-width:3.072; stroke-opacity:0.5"/>
<line clip-path="url(#clip804)" x1="1788.97" y1="1294.9" x2="1848.97" y2="1354.9" style="stroke:#009af9; stroke-width:3.072; stroke-opacity:0.5"/>
<line clip-path="url(#clip804)" x1="1788.97" y1="1294.9" x2="1848.97" y2="1234.9" style="stroke:#009af9; stroke-width:3.072; stroke-opacity:0.5"/>
<line clip-path="url(#clip804)" x1="1788.93" y1="1294.9" x2="1728.93" y2="1234.9" style="stroke:#009af9; stroke-width:3.072; stroke-opacity:0.5"/>
<line clip-path="url(#clip804)" x1="1788.93" y1="1294.9" x2="1728.93" y2="1354.9" style="stroke:#009af9; stroke-width:3.072; stroke-opacity:0.5"/>
<line clip-path="url(#clip804)" x1="1788.93" y1="1294.9" x2="1848.93" y2="1354.9" style="stroke:#009af9; stroke-width:3.072; stroke-opacity:0.5"/>
<line clip-path="url(#clip804)" x1="1788.93" y1="1294.9" x2="1848.93" y2="1234.9" style="stroke:#009af9; stroke-width:3.072; stroke-opacity:0.5"/>
<line clip-path="url(#clip804)" x1="1209.01" y1="1294.9" x2="1149.01" y2="1234.9" style="stroke:#009af9; stroke-width:3.072; stroke-opacity:0.5"/>
<line clip-path="url(#clip804)" x1="1209.01" y1="1294.9" x2="1149.01" y2="1354.9" style="stroke:#009af9; stroke-width:3.072; stroke-opacity:0.5"/>
<line clip-path="url(#clip804)" x1="1209.01" y1="1294.9" x2="1269.01" y2="1354.9" style="stroke:#009af9; stroke-width:3.072; stroke-opacity:0.5"/>
<line clip-path="url(#clip804)" x1="1209.01" y1="1294.9" x2="1269.01" y2="1234.9" style="stroke:#009af9; stroke-width:3.072; stroke-opacity:0.5"/>
<line clip-path="url(#clip804)" x1="1208.58" y1="1294.9" x2="1148.58" y2="1234.9" style="stroke:#009af9; stroke-width:3.072; stroke-opacity:0.5"/>
<line clip-path="url(#clip804)" x1="1208.58" y1="1294.9" x2="1148.58" y2="1354.9" style="stroke:#009af9; stroke-width:3.072; stroke-opacity:0.5"/>
<line clip-path="url(#clip804)" x1="1208.58" y1="1294.9" x2="1268.58" y2="1354.9" style="stroke:#009af9; stroke-width:3.072; stroke-opacity:0.5"/>
<line clip-path="url(#clip804)" x1="1208.58" y1="1294.9" x2="1268.58" y2="1234.9" style="stroke:#009af9; stroke-width:3.072; stroke-opacity:0.5"/>
<line clip-path="url(#clip804)" x1="1209.44" y1="1294.9" x2="1149.44" y2="1234.9" style="stroke:#009af9; stroke-width:3.072; stroke-opacity:0.5"/>
<line clip-path="url(#clip804)" x1="1209.44" y1="1294.9" x2="1149.44" y2="1354.9" style="stroke:#009af9; stroke-width:3.072; stroke-opacity:0.5"/>
<line clip-path="url(#clip804)" x1="1209.44" y1="1294.9" x2="1269.44" y2="1354.9" style="stroke:#009af9; stroke-width:3.072; stroke-opacity:0.5"/>
<line clip-path="url(#clip804)" x1="1209.44" y1="1294.9" x2="1269.44" y2="1234.9" style="stroke:#009af9; stroke-width:3.072; stroke-opacity:0.5"/>
</svg>
