<?xml version="1.0" encoding="utf-8"?>
<svg xmlns="http://www.w3.org/2000/svg" xmlns:xlink="http://www.w3.org/1999/xlink" width="528" height="336" viewBox="0 0 2112 1344">
<defs>
  <clipPath id="clip700">
    <rect x="0" y="0" width="2112" height="1344"/>
  </clipPath>
</defs>
<path clip-path="url(#clip700)" d="M0 1344 L2112 1344 L2112 0 L0 0  Z" fill="#ffffff" fill-rule="evenodd" fill-opacity="1"/>
<defs>
  <clipPath id="clip701">
    <rect x="422" y="0" width="1479" height="1344"/>
  </clipPath>
</defs>
<path clip-path="url(#clip700)" d="M267.257 520.3 L2064.76 520.3 L2064.76 47.2441 L267.257 47.2441  Z" fill="#ffffff" fill-rule="evenodd" fill-opacity="1"/>
<defs>
  <clipPath id="clip702">
    <rect x="267" y="47" width="1798" height="474"/>
  </clipPath>
</defs>
<polyline clip-path="url(#clip702)" style="stroke:#000000; stroke-linecap:round; stroke-linejoin:round; stroke-width:2; stroke-opacity:0.1; fill:none" points="318.129,520.3 318.129,47.2441 "/>
<polyline clip-path="url(#clip702)" style="stroke:#000000; stroke-linecap:round; stroke-linejoin:round; stroke-width:2; stroke-opacity:0.1; fill:none" points="972.311,520.3 972.311,47.2441 "/>
<polyline clip-path="url(#clip702)" style="stroke:#000000; stroke-linecap:round; stroke-linejoin:round; stroke-width:2; stroke-opacity:0.1; fill:none" points="1626.49,520.3 1626.49,47.2441 "/>
<polyline clip-path="url(#clip702)" style="stroke:#000000; stroke-linecap:round; stroke-linejoin:round; stroke-width:2; stroke-opacity:0.1; fill:none" points="267.257,441.941 2064.76,441.941 "/>
<polyline clip-path="url(#clip702)" style="stroke:#000000; stroke-linecap:round; stroke-linejoin:round; stroke-width:2; stroke-opacity:0.1; fill:none" points="267.257,346.61 2064.76,346.61 "/>
<polyline clip-path="url(#clip702)" style="stroke:#000000; stroke-linecap:round; stroke-linejoin:round; stroke-width:2; stroke-opacity:0.1; fill:none" points="267.257,251.279 2064.76,251.279 "/>
<polyline clip-path="url(#clip702)" style="stroke:#000000; stroke-linecap:round; stroke-linejoin:round; stroke-width:2; stroke-opacity:0.1; fill:none" points="267.257,155.947 2064.76,155.947 "/>
<polyline clip-path="url(#clip702)" style="stroke:#000000; stroke-linecap:round; stroke-linejoin:round; stroke-width:2; stroke-opacity:0.1; fill:none" points="267.257,60.6159 2064.76,60.6159 "/>
<polyline clip-path="url(#clip700)" style="stroke:#000000; stroke-linecap:round; stroke-linejoin:round; stroke-width:4; stroke-opacity:1; fill:none" points="267.257,520.3 2064.76,520.3 "/>
<polyline clip-path="url(#clip700)" style="stroke:#000000; stroke-linecap:round; stroke-linejoin:round; stroke-width:4; stroke-opacity:1; fill:none" points="318.129,520.3 318.129,501.402 "/>
<polyline clip-path="url(#clip700)" style="stroke:#000000; stroke-linecap:round; stroke-linejoin:round; stroke-width:4; stroke-opacity:1; fill:none" points="972.311,520.3 972.311,501.402 "/>
<polyline clip-path="url(#clip700)" style="stroke:#000000; stroke-linecap:round; stroke-linejoin:round; stroke-width:4; stroke-opacity:1; fill:none" points="1626.49,520.3 1626.49,501.402 "/>
<path clip-path="url(#clip700)" d="M268.244 592.121 L275.883 592.121 L275.883 565.755 L267.573 567.422 L267.573 563.163 L275.837 561.496 L280.513 561.496 L280.513 592.121 L288.152 592.121 L288.152 596.056 L268.244 596.056 L268.244 592.121 Z" fill="#000000" fill-rule="nonzero" fill-opacity="1" /><path clip-path="url(#clip700)" d="M307.596 564.575 Q303.985 564.575 302.156 568.139 Q300.351 571.681 300.351 578.811 Q300.351 585.917 302.156 589.482 Q303.985 593.024 307.596 593.024 Q311.23 593.024 313.036 589.482 Q314.865 585.917 314.865 578.811 Q314.865 571.681 313.036 568.139 Q311.23 564.575 307.596 564.575 M307.596 560.871 Q313.406 560.871 316.462 565.477 Q319.54 570.061 319.54 578.811 Q319.54 587.537 316.462 592.144 Q313.406 596.727 307.596 596.727 Q301.786 596.727 298.707 592.144 Q295.652 587.537 295.652 578.811 Q295.652 570.061 298.707 565.477 Q301.786 560.871 307.596 560.871 Z" fill="#000000" fill-rule="nonzero" fill-opacity="1" /><path clip-path="url(#clip700)" d="M319.54 554.972 L343.652 554.972 L343.652 558.17 L319.54 558.17 L319.54 554.972 Z" fill="#000000" fill-rule="nonzero" fill-opacity="1" /><path clip-path="url(#clip700)" d="M352.51 565.448 L358.717 565.448 L358.717 544.026 L351.965 545.38 L351.965 541.92 L358.679 540.565 L362.479 540.565 L362.479 565.448 L368.685 565.448 L368.685 568.645 L352.51 568.645 L352.51 565.448 Z" fill="#000000" fill-rule="nonzero" fill-opacity="1" /><path clip-path="url(#clip700)" d="M937.294 592.121 L944.932 592.121 L944.932 565.755 L936.622 567.422 L936.622 563.163 L944.886 561.496 L949.562 561.496 L949.562 592.121 L957.201 592.121 L957.201 596.056 L937.294 596.056 L937.294 592.121 Z" fill="#000000" fill-rule="nonzero" fill-opacity="1" /><path clip-path="url(#clip700)" d="M976.645 564.575 Q973.034 564.575 971.205 568.139 Q969.4 571.681 969.4 578.811 Q969.4 585.917 971.205 589.482 Q973.034 593.024 976.645 593.024 Q980.279 593.024 982.085 589.482 Q983.914 585.917 983.914 578.811 Q983.914 571.681 982.085 568.139 Q980.279 564.575 976.645 564.575 M976.645 560.871 Q982.455 560.871 985.511 565.477 Q988.59 570.061 988.59 578.811 Q988.59 587.537 985.511 592.144 Q982.455 596.727 976.645 596.727 Q970.835 596.727 967.756 592.144 Q964.701 587.537 964.701 578.811 Q964.701 570.061 967.756 565.477 Q970.835 560.871 976.645 560.871 Z" fill="#000000" fill-rule="nonzero" fill-opacity="1" /><path clip-path="url(#clip700)" d="M998.294 543.067 Q995.36 543.067 993.875 545.963 Q992.408 548.841 992.408 554.634 Q992.408 560.408 993.875 563.304 Q995.36 566.182 998.294 566.182 Q1001.25 566.182 1002.71 563.304 Q1004.2 560.408 1004.2 554.634 Q1004.2 548.841 1002.71 545.963 Q1001.25 543.067 998.294 543.067 M998.294 540.058 Q1003.02 540.058 1005.5 543.8 Q1008 547.524 1008 554.634 Q1008 561.724 1005.5 565.467 Q1003.02 569.191 998.294 569.191 Q993.574 569.191 991.072 565.467 Q988.59 561.724 988.59 554.634 Q988.59 547.524 991.072 543.8 Q993.574 540.058 998.294 540.058 Z" fill="#000000" fill-rule="nonzero" fill-opacity="1" /><path clip-path="url(#clip700)" d="M1592.82 592.121 L1600.46 592.121 L1600.46 565.755 L1592.15 567.422 L1592.15 563.163 L1600.41 561.496 L1605.09 561.496 L1605.09 592.121 L1612.73 592.121 L1612.73 596.056 L1592.82 596.056 L1592.82 592.121 Z" fill="#000000" fill-rule="nonzero" fill-opacity="1" /><path clip-path="url(#clip700)" d="M1632.17 564.575 Q1628.56 564.575 1626.73 568.139 Q1624.93 571.681 1624.93 578.811 Q1624.93 585.917 1626.73 589.482 Q1628.56 593.024 1632.17 593.024 Q1635.81 593.024 1637.61 589.482 Q1639.44 585.917 1639.44 578.811 Q1639.44 571.681 1637.61 568.139 Q1635.81 564.575 1632.17 564.575 M1632.17 560.871 Q1637.98 560.871 1641.04 565.477 Q1644.12 570.061 1644.12 578.811 Q1644.12 587.537 1641.04 592.144 Q1637.98 596.727 1632.17 596.727 Q1626.36 596.727 1623.28 592.144 Q1620.23 587.537 1620.23 578.811 Q1620.23 570.061 1623.28 565.477 Q1626.36 560.871 1632.17 560.871 Z" fill="#000000" fill-rule="nonzero" fill-opacity="1" /><path clip-path="url(#clip700)" d="M1644.66 565.448 L1650.87 565.448 L1650.87 544.026 L1644.12 545.38 L1644.12 541.92 L1650.83 540.565 L1654.63 540.565 L1654.63 565.448 L1660.84 565.448 L1660.84 568.645 L1644.66 568.645 L1644.66 565.448 Z" fill="#000000" fill-rule="nonzero" fill-opacity="1" /><polyline clip-path="url(#clip700)" style="stroke:#000000; stroke-linecap:round; stroke-linejoin:round; stroke-width:4; stroke-opacity:1; fill:none" points="267.257,520.3 267.257,47.2441 "/>
<polyline clip-path="url(#clip700)" style="stroke:#000000; stroke-linecap:round; stroke-linejoin:round; stroke-width:4; stroke-opacity:1; fill:none" points="267.257,441.941 286.154,441.941 "/>
<polyline clip-path="url(#clip700)" style="stroke:#000000; stroke-linecap:round; stroke-linejoin:round; stroke-width:4; stroke-opacity:1; fill:none" points="267.257,346.61 286.154,346.61 "/>
<polyline clip-path="url(#clip700)" style="stroke:#000000; stroke-linecap:round; stroke-linejoin:round; stroke-width:4; stroke-opacity:1; fill:none" points="267.257,251.279 286.154,251.279 "/>
<polyline clip-path="url(#clip700)" style="stroke:#000000; stroke-linecap:round; stroke-linejoin:round; stroke-width:4; stroke-opacity:1; fill:none" points="267.257,155.947 286.154,155.947 "/>
<polyline clip-path="url(#clip700)" style="stroke:#000000; stroke-linecap:round; stroke-linejoin:round; stroke-width:4; stroke-opacity:1; fill:none" points="267.257,60.6159 286.154,60.6159 "/>
<path clip-path="url(#clip700)" d="M143.702 442.393 L173.378 442.393 L173.378 446.328 L143.702 446.328 L143.702 442.393 Z" fill="#000000" fill-rule="nonzero" fill-opacity="1" /><path clip-path="url(#clip700)" d="M187.498 455.286 L203.817 455.286 L203.817 459.221 L181.873 459.221 L181.873 455.286 Q184.535 452.532 189.118 447.902 Q193.725 443.249 194.905 441.907 Q197.151 439.384 198.03 437.647 Q198.933 435.888 198.933 434.198 Q198.933 431.444 196.989 429.708 Q195.067 427.972 191.966 427.972 Q189.767 427.972 187.313 428.735 Q184.882 429.499 182.105 431.05 L182.105 426.328 Q184.929 425.194 187.382 424.615 Q189.836 424.036 191.873 424.036 Q197.243 424.036 200.438 426.722 Q203.632 429.407 203.632 433.897 Q203.632 436.027 202.822 437.948 Q202.035 439.846 199.929 442.439 Q199.35 443.11 196.248 446.328 Q193.146 449.522 187.498 455.286 Z" fill="#000000" fill-rule="nonzero" fill-opacity="1" /><path clip-path="url(#clip700)" d="M223.632 427.74 Q220.021 427.74 218.192 431.305 Q216.387 434.846 216.387 441.976 Q216.387 449.083 218.192 452.647 Q220.021 456.189 223.632 456.189 Q227.266 456.189 229.072 452.647 Q230.901 449.083 230.901 441.976 Q230.901 434.846 229.072 431.305 Q227.266 427.74 223.632 427.74 M223.632 424.036 Q229.442 424.036 232.498 428.643 Q235.577 433.226 235.577 441.976 Q235.577 450.703 232.498 455.309 Q229.442 459.893 223.632 459.893 Q217.822 459.893 214.743 455.309 Q211.688 450.703 211.688 441.976 Q211.688 433.226 214.743 428.643 Q217.822 424.036 223.632 424.036 Z" fill="#000000" fill-rule="nonzero" fill-opacity="1" /><path clip-path="url(#clip700)" d="M144.697 347.061 L174.373 347.061 L174.373 350.997 L144.697 350.997 L144.697 347.061 Z" fill="#000000" fill-rule="nonzero" fill-opacity="1" /><path clip-path="url(#clip700)" d="M185.276 359.955 L192.915 359.955 L192.915 333.589 L184.605 335.256 L184.605 330.997 L192.868 329.33 L197.544 329.33 L197.544 359.955 L205.183 359.955 L205.183 363.89 L185.276 363.89 L185.276 359.955 Z" fill="#000000" fill-rule="nonzero" fill-opacity="1" /><path clip-path="url(#clip700)" d="M214.674 329.33 L233.03 329.33 L233.03 333.265 L218.956 333.265 L218.956 341.737 Q219.975 341.39 220.993 341.228 Q222.012 341.043 223.03 341.043 Q228.817 341.043 232.197 344.214 Q235.577 347.385 235.577 352.802 Q235.577 358.381 232.104 361.483 Q228.632 364.561 222.313 364.561 Q220.137 364.561 217.868 364.191 Q215.623 363.821 213.216 363.08 L213.216 358.381 Q215.299 359.515 217.521 360.071 Q219.743 360.626 222.22 360.626 Q226.225 360.626 228.563 358.52 Q230.901 356.413 230.901 352.802 Q230.901 349.191 228.563 347.085 Q226.225 344.978 222.22 344.978 Q220.345 344.978 218.47 345.395 Q216.618 345.811 214.674 346.691 L214.674 329.33 Z" fill="#000000" fill-rule="nonzero" fill-opacity="1" /><path clip-path="url(#clip700)" d="M143.702 251.73 L173.378 251.73 L173.378 255.665 L143.702 255.665 L143.702 251.73 Z" fill="#000000" fill-rule="nonzero" fill-opacity="1" /><path clip-path="url(#clip700)" d="M184.281 264.623 L191.919 264.623 L191.919 238.258 L183.609 239.925 L183.609 235.665 L191.873 233.999 L196.549 233.999 L196.549 264.623 L204.188 264.623 L204.188 268.559 L184.281 268.559 L184.281 264.623 Z" fill="#000000" fill-rule="nonzero" fill-opacity="1" /><path clip-path="url(#clip700)" d="M223.632 237.077 Q220.021 237.077 218.192 240.642 Q216.387 244.184 216.387 251.313 Q216.387 258.42 218.192 261.985 Q220.021 265.526 223.632 265.526 Q227.266 265.526 229.072 261.985 Q230.901 258.42 230.901 251.313 Q230.901 244.184 229.072 240.642 Q227.266 237.077 223.632 237.077 M223.632 233.374 Q229.442 233.374 232.498 237.98 Q235.577 242.563 235.577 251.313 Q235.577 260.04 232.498 264.647 Q229.442 269.23 223.632 269.23 Q217.822 269.23 214.743 264.647 Q211.688 260.04 211.688 251.313 Q211.688 242.563 214.743 237.98 Q217.822 233.374 223.632 233.374 Z" fill="#000000" fill-rule="nonzero" fill-opacity="1" /><path clip-path="url(#clip700)" d="M174.859 156.399 L204.535 156.399 L204.535 160.334 L174.859 160.334 L174.859 156.399 Z" fill="#000000" fill-rule="nonzero" fill-opacity="1" /><path clip-path="url(#clip700)" d="M214.674 138.667 L233.03 138.667 L233.03 142.602 L218.956 142.602 L218.956 151.075 Q219.975 150.727 220.993 150.565 Q222.012 150.38 223.03 150.38 Q228.817 150.38 232.197 153.551 Q235.577 156.723 235.577 162.139 Q235.577 167.718 232.104 170.82 Q228.632 173.899 222.313 173.899 Q220.137 173.899 217.868 173.528 Q215.623 173.158 213.216 172.417 L213.216 167.718 Q215.299 168.852 217.521 169.408 Q219.743 169.963 222.22 169.963 Q226.225 169.963 228.563 167.857 Q230.901 165.75 230.901 162.139 Q230.901 158.528 228.563 156.422 Q226.225 154.315 222.22 154.315 Q220.345 154.315 218.47 154.732 Q216.618 155.149 214.674 156.028 L214.674 138.667 Z" fill="#000000" fill-rule="nonzero" fill-opacity="1" /><path clip-path="url(#clip700)" d="M223.632 46.4146 Q220.021 46.4146 218.192 49.9794 Q216.387 53.521 216.387 60.6506 Q216.387 67.757 218.192 71.3218 Q220.021 74.8635 223.632 74.8635 Q227.266 74.8635 229.072 71.3218 Q230.901 67.757 230.901 60.6506 Q230.901 53.521 229.072 49.9794 Q227.266 46.4146 223.632 46.4146 M223.632 42.7109 Q229.442 42.7109 232.498 47.3173 Q235.577 51.9006 235.577 60.6506 Q235.577 69.3774 232.498 73.9839 Q229.442 78.5672 223.632 78.5672 Q217.822 78.5672 214.743 73.9839 Q211.688 69.3774 211.688 60.6506 Q211.688 51.9006 214.743 47.3173 Q217.822 42.7109 223.632 42.7109 Z" fill="#000000" fill-rule="nonzero" fill-opacity="1" /><path clip-path="url(#clip700)" d="M50.246 529.281 L50.246 519.701 L82.5838 507.574 L50.246 495.384 L50.246 485.804 L97.766 485.804 L97.766 492.074 L56.0388 492.074 L88.6312 504.328 L88.6312 510.789 L56.0388 523.043 L97.766 523.043 L97.766 529.281 L50.246 529.281 Z" fill="#000000" fill-rule="nonzero" fill-opacity="1" /><path clip-path="url(#clip700)" d="M79.8466 457.094 Q79.8466 464.192 81.4698 466.929 Q83.0931 469.667 87.008 469.667 Q90.1272 469.667 91.9732 467.63 Q93.7875 465.561 93.7875 462.028 Q93.7875 457.158 90.35 454.23 Q86.8807 451.27 81.1515 451.27 L79.8466 451.27 L79.8466 457.094 M77.4276 445.413 L97.766 445.413 L97.766 451.27 L92.3552 451.27 Q95.6017 453.275 97.1613 456.267 Q98.6891 459.259 98.6891 463.587 Q98.6891 469.062 95.6335 472.308 Q92.5462 475.523 87.3899 475.523 Q81.3743 475.523 78.3188 471.513 Q75.2633 467.47 75.2633 459.481 L75.2633 451.27 L74.6903 451.27 Q70.6481 451.27 68.452 453.943 Q66.224 456.585 66.224 461.391 Q66.224 464.447 66.956 467.343 Q67.6881 470.239 69.1522 472.913 L63.7413 472.913 Q62.5 469.698 61.8953 466.675 Q61.2587 463.651 61.2587 460.786 Q61.2587 453.052 65.2691 449.233 Q69.2795 445.413 77.4276 445.413 Z" fill="#000000" fill-rule="nonzero" fill-opacity="1" /><path clip-path="url(#clip700)" d="M79.5283 409.893 Q73.1626 409.893 69.6614 412.534 Q66.1603 415.144 66.1603 419.887 Q66.1603 424.597 69.6614 427.239 Q73.1626 429.849 79.5283 429.849 Q85.8622 429.849 89.3633 427.239 Q92.8644 424.597 92.8644 419.887 Q92.8644 415.144 89.3633 412.534 Q85.8622 409.893 79.5283 409.893 M93.3419 404.036 Q102.445 404.036 106.869 408.078 Q111.325 412.121 111.325 420.46 Q111.325 423.547 110.848 426.284 Q110.402 429.022 109.447 431.6 L103.75 431.6 Q105.15 429.022 105.819 426.507 Q106.487 423.993 106.487 421.383 Q106.487 415.622 103.463 412.757 Q100.471 409.893 94.3922 409.893 L91.4958 409.893 Q94.6468 411.707 96.2064 414.54 Q97.766 417.372 97.766 421.319 Q97.766 427.876 92.769 431.886 Q87.7719 435.896 79.5283 435.896 Q71.2529 435.896 66.2558 431.886 Q61.2587 427.876 61.2587 421.319 Q61.2587 417.372 62.8183 414.54 Q64.3779 411.707 67.5289 409.893 L62.1181 409.893 L62.1181 404.036 L93.3419 404.036 Z" fill="#000000" fill-rule="nonzero" fill-opacity="1" /><path clip-path="url(#clip700)" d="M76.2499 362.341 L97.766 362.341 L97.766 368.197 L76.4409 368.197 Q71.3802 368.197 68.8657 370.171 Q66.3513 372.144 66.3513 376.091 Q66.3513 380.833 69.375 383.57 Q72.3987 386.308 77.6186 386.308 L97.766 386.308 L97.766 392.196 L62.1181 392.196 L62.1181 386.308 L67.6562 386.308 Q64.4416 384.207 62.8501 381.374 Q61.2587 378.51 61.2587 374.786 Q61.2587 368.643 65.0781 365.492 Q68.8657 362.341 76.2499 362.341 Z" fill="#000000" fill-rule="nonzero" fill-opacity="1" /><path clip-path="url(#clip700)" d="M62.1181 350.66 L62.1181 344.803 L97.766 344.803 L97.766 350.66 L62.1181 350.66 M48.2408 350.66 L48.2408 344.803 L55.6569 344.803 L55.6569 350.66 L48.2408 350.66 Z" fill="#000000" fill-rule="nonzero" fill-opacity="1" /><path clip-path="url(#clip700)" d="M51.9966 326.756 L62.1181 326.756 L62.1181 314.693 L66.6696 314.693 L66.6696 326.756 L86.0213 326.756 Q90.3818 326.756 91.6231 325.579 Q92.8644 324.369 92.8644 320.709 L92.8644 314.693 L97.766 314.693 L97.766 320.709 Q97.766 327.488 95.2516 330.067 Q92.7053 332.645 86.0213 332.645 L66.6696 332.645 L66.6696 336.942 L62.1181 336.942 L62.1181 332.645 L51.9966 332.645 L51.9966 326.756 Z" fill="#000000" fill-rule="nonzero" fill-opacity="1" /><path clip-path="url(#clip700)" d="M83.6978 307.596 L62.1181 307.596 L62.1181 301.739 L83.475 301.739 Q88.5358 301.739 91.082 299.766 Q93.5965 297.792 93.5965 293.846 Q93.5965 289.103 90.5728 286.366 Q87.5491 283.597 82.3292 283.597 L62.1181 283.597 L62.1181 277.74 L97.766 277.74 L97.766 283.597 L92.2915 283.597 Q95.538 285.729 97.1295 288.562 Q98.6891 291.363 98.6891 295.087 Q98.6891 301.23 94.8696 304.413 Q91.0502 307.596 83.6978 307.596 M61.2587 292.859 L61.2587 292.859 Z" fill="#000000" fill-rule="nonzero" fill-opacity="1" /><path clip-path="url(#clip700)" d="M67.5289 242.22 L48.2408 242.22 L48.2408 236.363 L97.766 236.363 L97.766 242.22 L92.4188 242.22 Q95.6017 244.066 97.1613 246.899 Q98.6891 249.7 98.6891 253.646 Q98.6891 260.107 93.5328 264.182 Q88.3766 268.224 79.9739 268.224 Q71.5712 268.224 66.4149 264.182 Q61.2587 260.107 61.2587 253.646 Q61.2587 249.7 62.8183 246.899 Q64.3461 244.066 67.5289 242.22 M79.9739 262.176 Q86.4351 262.176 90.1272 259.535 Q93.7875 256.861 93.7875 252.214 Q93.7875 247.567 90.1272 244.893 Q86.4351 242.22 79.9739 242.22 Q73.5127 242.22 69.8524 244.893 Q66.1603 247.567 66.1603 252.214 Q66.1603 256.861 69.8524 259.535 Q73.5127 262.176 79.9739 262.176 Z" fill="#000000" fill-rule="nonzero" fill-opacity="1" /><path clip-path="url(#clip700)" d="M78.4779 193.809 L81.3425 193.809 L81.3425 220.736 Q87.3899 220.354 90.5728 217.107 Q93.7238 213.829 93.7238 208.004 Q93.7238 204.63 92.8963 201.479 Q92.0687 198.296 90.4136 195.177 L95.9518 195.177 Q97.2886 198.328 97.9888 201.638 Q98.6891 204.949 98.6891 208.354 Q98.6891 216.884 93.7238 221.881 Q88.7586 226.847 80.2922 226.847 Q71.5393 226.847 66.4149 222.136 Q61.2587 217.394 61.2587 209.373 Q61.2587 202.18 65.9057 198.01 Q70.5208 193.809 78.4779 193.809 M76.7592 199.665 Q71.9531 199.729 69.0885 202.371 Q66.224 204.98 66.224 209.309 Q66.224 214.211 68.993 217.171 Q71.7621 220.099 76.791 220.545 L76.7592 199.665 Z" fill="#000000" fill-rule="nonzero" fill-opacity="1" /><path clip-path="url(#clip700)" d="M48.3045 149.408 Q55.6251 153.673 62.7865 155.742 Q69.9479 157.811 77.3003 157.811 Q84.6527 157.811 91.8778 155.742 Q99.071 153.641 106.36 149.408 L106.36 154.5 Q98.88 159.275 91.655 161.662 Q84.4299 164.017 77.3003 164.017 Q70.2025 164.017 63.0093 161.662 Q55.816 159.307 48.3045 154.5 L48.3045 149.408 Z" fill="#000000" fill-rule="nonzero" fill-opacity="1" /><path clip-path="url(#clip700)" d="M67.5289 114.587 L48.2408 114.587 L48.2408 108.731 L97.766 108.731 L97.766 114.587 L92.4188 114.587 Q95.6017 116.433 97.1613 119.266 Q98.6891 122.067 98.6891 126.014 Q98.6891 132.475 93.5328 136.549 Q88.3766 140.591 79.9739 140.591 Q71.5712 140.591 66.4149 136.549 Q61.2587 132.475 61.2587 126.014 Q61.2587 122.067 62.8183 119.266 Q64.3461 116.433 67.5289 114.587 M79.9739 134.544 Q86.4351 134.544 90.1272 131.902 Q93.7875 129.229 93.7875 124.582 Q93.7875 119.935 90.1272 117.261 Q86.4351 114.587 79.9739 114.587 Q73.5127 114.587 69.8524 117.261 Q66.1603 119.935 66.1603 124.582 Q66.1603 129.229 69.8524 131.902 Q73.5127 134.544 79.9739 134.544 Z" fill="#000000" fill-rule="nonzero" fill-opacity="1" /><path clip-path="url(#clip700)" d="M75.0723 89.984 L92.4825 89.984 L92.4825 79.6715 Q92.4825 74.4835 90.35 72.0008 Q88.1856 69.4864 83.7615 69.4864 Q79.3055 69.4864 77.2048 72.0008 Q75.0723 74.4835 75.0723 79.6715 L75.0723 89.984 M55.5296 89.984 L69.8524 89.984 L69.8524 80.4672 Q69.8524 75.7566 68.1018 73.465 Q66.3194 71.1415 62.691 71.1415 Q59.0944 71.1415 57.312 73.465 Q55.5296 75.7566 55.5296 80.4672 L55.5296 89.984 M50.246 96.4133 L50.246 79.9898 Q50.246 72.6374 53.3016 68.6589 Q56.3571 64.6803 61.9908 64.6803 Q66.3513 64.6803 68.9294 66.7173 Q71.5075 68.7543 72.1441 72.7011 Q73.1626 67.9586 76.4091 65.3487 Q79.6238 62.7069 84.4617 62.7069 Q90.8274 62.7069 94.2967 67.0356 Q97.766 71.3643 97.766 79.3532 L97.766 96.4133 L50.246 96.4133 Z" fill="#000000" fill-rule="nonzero" fill-opacity="1" /><path clip-path="url(#clip700)" d="M48.3045 52.8719 L48.3045 47.7793 Q55.816 43.0051 63.0093 40.6497 Q70.2025 38.2626 77.3003 38.2626 Q84.4299 38.2626 91.655 40.6497 Q98.88 43.0051 106.36 47.7793 L106.36 52.8719 Q99.071 48.6387 91.8778 46.5699 Q84.6527 44.4692 77.3003 44.4692 Q69.9479 44.4692 62.7865 46.5699 Q55.6251 48.6387 48.3045 52.8719 Z" fill="#000000" fill-rule="nonzero" fill-opacity="1" /><polyline clip-path="url(#clip702)" style="stroke:#009af9; stroke-linecap:round; stroke-linejoin:round; stroke-width:4; stroke-opacity:1; fill:none" points="318.129,60.6325 999.389,62.6051 1183.1,67.6915 1373.18,85.3934 1529.19,122.808 1761.79,246.251 1864.36,334.251 1948.85,425.186 2013.88,506.912 "/>
<path clip-path="url(#clip700)" d="M1772.66 166.693 L2004.84 166.693 L2004.84 63.0126 L1772.66 63.0126  Z" fill="#ffffff" fill-rule="evenodd" fill-opacity="1"/>
<polyline clip-path="url(#clip700)" style="stroke:#000000; stroke-linecap:round; stroke-linejoin:round; stroke-width:4; stroke-opacity:1; fill:none" points="1772.66,166.693 2004.84,166.693 2004.84,63.0126 1772.66,63.0126 1772.66,166.693 "/>
<polyline clip-path="url(#clip700)" style="stroke:#009af9; stroke-linecap:round; stroke-linejoin:round; stroke-width:4; stroke-opacity:1; fill:none" points="1792.63,114.853 1912.46,114.853 "/>
<path clip-path="url(#clip700)" d="M1946.28 134.54 Q1944.47 139.17 1942.76 140.582 Q1941.05 141.994 1938.18 141.994 L1934.77 141.994 L1934.77 138.429 L1937.27 138.429 Q1939.03 138.429 1940.01 137.596 Q1940.98 136.762 1942.16 133.66 L1942.92 131.716 L1932.44 106.207 L1936.95 106.207 L1945.05 126.485 L1953.15 106.207 L1957.67 106.207 L1946.28 134.54 Z" fill="#000000" fill-rule="nonzero" fill-opacity="1" /><path clip-path="url(#clip700)" d="M1964.96 128.197 L1972.6 128.197 L1972.6 101.832 L1964.29 103.499 L1964.29 99.2393 L1972.55 97.5726 L1977.23 97.5726 L1977.23 128.197 L1984.87 128.197 L1984.87 132.133 L1964.96 132.133 L1964.96 128.197 Z" fill="#000000" fill-rule="nonzero" fill-opacity="1" /><path clip-path="url(#clip700)" d="M267.257 1161.75 L2064.76 1161.75 L2064.76 688.69 L267.257 688.69  Z" fill="#ffffff" fill-rule="evenodd" fill-opacity="1"/>
<defs>
  <clipPath id="clip703">
    <rect x="267" y="688" width="1798" height="474"/>
  </clipPath>
</defs>
<polyline clip-path="url(#clip703)" style="stroke:#000000; stroke-linecap:round; stroke-linejoin:round; stroke-width:2; stroke-opacity:0.1; fill:none" points="318.129,1161.75 318.129,688.69 "/>
<polyline clip-path="url(#clip703)" style="stroke:#000000; stroke-linecap:round; stroke-linejoin:round; stroke-width:2; stroke-opacity:0.1; fill:none" points="972.311,1161.75 972.311,688.69 "/>
<polyline clip-path="url(#clip703)" style="stroke:#000000; stroke-linecap:round; stroke-linejoin:round; stroke-width:2; stroke-opacity:0.1; fill:none" points="1626.49,1161.75 1626.49,688.69 "/>
<polyline clip-path="url(#clip703)" style="stroke:#000000; stroke-linecap:round; stroke-linejoin:round; stroke-width:2; stroke-opacity:0.1; fill:none" points="267.257,1151.17 2064.76,1151.17 "/>
<polyline clip-path="url(#clip703)" style="stroke:#000000; stroke-linecap:round; stroke-linejoin:round; stroke-width:2; stroke-opacity:0.1; fill:none" points="267.257,1038.23 2064.76,1038.23 "/>
<polyline clip-path="url(#clip703)" style="stroke:#000000; stroke-linecap:round; stroke-linejoin:round; stroke-width:2; stroke-opacity:0.1; fill:none" points="267.257,925.288 2064.76,925.288 "/>
<polyline clip-path="url(#clip703)" style="stroke:#000000; stroke-linecap:round; stroke-linejoin:round; stroke-width:2; stroke-opacity:0.1; fill:none" points="267.257,812.346 2064.76,812.346 "/>
<polyline clip-path="url(#clip703)" style="stroke:#000000; stroke-linecap:round; stroke-linejoin:round; stroke-width:2; stroke-opacity:0.1; fill:none" points="267.257,699.404 2064.76,699.404 "/>
<polyline clip-path="url(#clip700)" style="stroke:#000000; stroke-linecap:round; stroke-linejoin:round; stroke-width:4; stroke-opacity:1; fill:none" points="267.257,1161.75 2064.76,1161.75 "/>
<polyline clip-path="url(#clip700)" style="stroke:#000000; stroke-linecap:round; stroke-linejoin:round; stroke-width:4; stroke-opacity:1; fill:none" points="318.129,1161.75 318.129,1142.85 "/>
<polyline clip-path="url(#clip700)" style="stroke:#000000; stroke-linecap:round; stroke-linejoin:round; stroke-width:4; stroke-opacity:1; fill:none" points="972.311,1161.75 972.311,1142.85 "/>
<polyline clip-path="url(#clip700)" style="stroke:#000000; stroke-linecap:round; stroke-linejoin:round; stroke-width:4; stroke-opacity:1; fill:none" points="1626.49,1161.75 1626.49,1142.85 "/>
<path clip-path="url(#clip700)" d="M268.244 1233.57 L275.883 1233.57 L275.883 1207.2 L267.573 1208.87 L267.573 1204.61 L275.837 1202.94 L280.513 1202.94 L280.513 1233.57 L288.152 1233.57 L288.152 1237.5 L268.244 1237.5 L268.244 1233.57 Z" fill="#000000" fill-rule="nonzero" fill-opacity="1" /><path clip-path="url(#clip700)" d="M307.596 1206.02 Q303.985 1206.02 302.156 1209.59 Q300.351 1213.13 300.351 1220.26 Q300.351 1227.36 302.156 1230.93 Q303.985 1234.47 307.596 1234.47 Q311.23 1234.47 313.036 1230.93 Q314.865 1227.36 314.865 1220.26 Q314.865 1213.13 313.036 1209.59 Q311.23 1206.02 307.596 1206.02 M307.596 1202.32 Q313.406 1202.32 316.462 1206.92 Q319.54 1211.51 319.54 1220.26 Q319.54 1228.98 316.462 1233.59 Q313.406 1238.17 307.596 1238.17 Q301.786 1238.17 298.707 1233.59 Q295.652 1228.98 295.652 1220.26 Q295.652 1211.51 298.707 1206.92 Q301.786 1202.32 307.596 1202.32 Z" fill="#000000" fill-rule="nonzero" fill-opacity="1" /><path clip-path="url(#clip700)" d="M319.54 1196.42 L343.652 1196.42 L343.652 1199.62 L319.54 1199.62 L319.54 1196.42 Z" fill="#000000" fill-rule="nonzero" fill-opacity="1" /><path clip-path="url(#clip700)" d="M352.51 1206.89 L358.717 1206.89 L358.717 1185.47 L351.965 1186.83 L351.965 1183.37 L358.679 1182.01 L362.479 1182.01 L362.479 1206.89 L368.685 1206.89 L368.685 1210.09 L352.51 1210.09 L352.51 1206.89 Z" fill="#000000" fill-rule="nonzero" fill-opacity="1" /><path clip-path="url(#clip700)" d="M937.294 1233.57 L944.932 1233.57 L944.932 1207.2 L936.622 1208.87 L936.622 1204.61 L944.886 1202.94 L949.562 1202.94 L949.562 1233.57 L957.201 1233.57 L957.201 1237.5 L937.294 1237.5 L937.294 1233.57 Z" fill="#000000" fill-rule="nonzero" fill-opacity="1" /><path clip-path="url(#clip700)" d="M976.645 1206.02 Q973.034 1206.02 971.205 1209.59 Q969.4 1213.13 969.4 1220.26 Q969.4 1227.36 971.205 1230.93 Q973.034 1234.47 976.645 1234.47 Q980.279 1234.47 982.085 1230.93 Q983.914 1227.36 983.914 1220.26 Q983.914 1213.13 982.085 1209.59 Q980.279 1206.02 976.645 1206.02 M976.645 1202.32 Q982.455 1202.32 985.511 1206.92 Q988.59 1211.51 988.59 1220.26 Q988.59 1228.98 985.511 1233.59 Q982.455 1238.17 976.645 1238.17 Q970.835 1238.17 967.756 1233.59 Q964.701 1228.98 964.701 1220.26 Q964.701 1211.51 967.756 1206.92 Q970.835 1202.32 976.645 1202.32 Z" fill="#000000" fill-rule="nonzero" fill-opacity="1" /><path clip-path="url(#clip700)" d="M998.294 1184.51 Q995.36 1184.51 993.875 1187.41 Q992.408 1190.29 992.408 1196.08 Q992.408 1201.85 993.875 1204.75 Q995.36 1207.63 998.294 1207.63 Q1001.25 1207.63 1002.71 1204.75 Q1004.2 1201.85 1004.2 1196.08 Q1004.2 1190.29 1002.71 1187.41 Q1001.25 1184.51 998.294 1184.51 M998.294 1181.5 Q1003.02 1181.5 1005.5 1185.25 Q1008 1188.97 1008 1196.08 Q1008 1203.17 1005.5 1206.91 Q1003.02 1210.64 998.294 1210.64 Q993.574 1210.64 991.072 1206.91 Q988.59 1203.17 988.59 1196.08 Q988.59 1188.97 991.072 1185.25 Q993.574 1181.5 998.294 1181.5 Z" fill="#000000" fill-rule="nonzero" fill-opacity="1" /><path clip-path="url(#clip700)" d="M1592.82 1233.57 L1600.46 1233.57 L1600.46 1207.2 L1592.15 1208.87 L1592.15 1204.61 L1600.41 1202.94 L1605.09 1202.94 L1605.09 1233.57 L1612.73 1233.57 L1612.73 1237.5 L1592.82 1237.5 L1592.82 1233.57 Z" fill="#000000" fill-rule="nonzero" fill-opacity="1" /><path clip-path="url(#clip700)" d="M1632.17 1206.02 Q1628.56 1206.02 1626.73 1209.59 Q1624.93 1213.13 1624.93 1220.26 Q1624.93 1227.36 1626.73 1230.93 Q1628.56 1234.47 1632.17 1234.47 Q1635.81 1234.47 1637.61 1230.93 Q1639.44 1227.36 1639.44 1220.26 Q1639.44 1213.13 1637.61 1209.59 Q1635.81 1206.02 1632.17 1206.02 M1632.17 1202.32 Q1637.98 1202.32 1641.04 1206.92 Q1644.12 1211.51 1644.12 1220.26 Q1644.12 1228.98 1641.04 1233.59 Q1637.98 1238.17 1632.17 1238.17 Q1626.36 1238.17 1623.28 1233.59 Q1620.23 1228.98 1620.23 1220.26 Q1620.23 1211.51 1623.28 1206.92 Q1626.36 1202.32 1632.17 1202.32 Z" fill="#000000" fill-rule="nonzero" fill-opacity="1" /><path clip-path="url(#clip700)" d="M1644.66 1206.89 L1650.87 1206.89 L1650.87 1185.47 L1644.12 1186.83 L1644.12 1183.37 L1650.83 1182.01 L1654.63 1182.01 L1654.63 1206.89 L1660.84 1206.89 L1660.84 1210.09 L1644.66 1210.09 L1644.66 1206.89 Z" fill="#000000" fill-rule="nonzero" fill-opacity="1" /><path clip-path="url(#clip700)" d="M885.82 1273.19 L913.129 1273.19 L913.129 1278.61 L892.249 1278.61 L892.249 1292.61 L911.092 1292.61 L911.092 1298.02 L892.249 1298.02 L892.249 1320.71 L885.82 1320.71 L885.82 1273.19 Z" fill="#000000" fill-rule="nonzero" fill-opacity="1" /><path clip-path="url(#clip700)" d="M938.973 1290.54 Q937.987 1289.97 936.809 1289.71 Q935.663 1289.43 934.263 1289.43 Q929.297 1289.43 926.624 1292.67 Q923.982 1295.89 923.982 1301.94 L923.982 1320.71 L918.094 1320.71 L918.094 1285.07 L923.982 1285.07 L923.982 1290.6 Q925.828 1287.36 928.788 1285.8 Q931.748 1284.21 935.981 1284.21 Q936.586 1284.21 937.318 1284.3 Q938.05 1284.37 938.941 1284.53 L938.973 1290.54 Z" fill="#000000" fill-rule="nonzero" fill-opacity="1" /><path clip-path="url(#clip700)" d="M974.176 1301.43 L974.176 1304.29 L947.249 1304.29 Q947.631 1310.34 950.877 1313.52 Q954.156 1316.67 959.98 1316.67 Q963.354 1316.67 966.505 1315.84 Q969.688 1315.02 972.807 1313.36 L972.807 1318.9 Q969.656 1320.24 966.346 1320.94 Q963.036 1321.64 959.63 1321.64 Q951.1 1321.64 946.103 1316.67 Q941.138 1311.71 941.138 1303.24 Q941.138 1294.49 945.848 1289.36 Q950.591 1284.21 958.612 1284.21 Q965.805 1284.21 969.974 1288.85 Q974.176 1293.47 974.176 1301.43 M968.319 1299.71 Q968.256 1294.9 965.614 1292.04 Q963.004 1289.17 958.675 1289.17 Q953.774 1289.17 950.814 1291.94 Q947.885 1294.71 947.44 1299.74 L968.319 1299.71 Z" fill="#000000" fill-rule="nonzero" fill-opacity="1" /><path clip-path="url(#clip700)" d="M987.289 1302.92 Q987.289 1309.38 989.931 1313.08 Q992.604 1316.74 997.251 1316.74 Q1001.9 1316.74 1004.57 1313.08 Q1007.25 1309.38 1007.25 1302.92 Q1007.25 1296.46 1004.57 1292.8 Q1001.9 1289.11 997.251 1289.11 Q992.604 1289.11 989.931 1292.8 Q987.289 1296.46 987.289 1302.92 M1007.25 1315.37 Q1005.4 1318.55 1002.57 1320.11 Q999.766 1321.64 995.819 1321.64 Q989.358 1321.64 985.284 1316.48 Q981.242 1311.33 981.242 1302.92 Q981.242 1294.52 985.284 1289.36 Q989.358 1284.21 995.819 1284.21 Q999.766 1284.21 1002.57 1285.77 Q1005.4 1287.29 1007.25 1290.48 L1007.25 1285.07 L1013.1 1285.07 L1013.1 1334.27 L1007.25 1334.27 L1007.25 1315.37 Z" fill="#000000" fill-rule="nonzero" fill-opacity="1" /><path clip-path="url(#clip700)" d="M1024.56 1306.65 L1024.56 1285.07 L1030.42 1285.07 L1030.42 1306.42 Q1030.42 1311.48 1032.39 1314.03 Q1034.36 1316.55 1038.31 1316.55 Q1043.05 1316.55 1045.79 1313.52 Q1048.56 1310.5 1048.56 1305.28 L1048.56 1285.07 L1054.42 1285.07 L1054.42 1320.71 L1048.56 1320.71 L1048.56 1315.24 Q1046.43 1318.49 1043.59 1320.08 Q1040.79 1321.64 1037.07 1321.64 Q1030.93 1321.64 1027.74 1317.82 Q1024.56 1314 1024.56 1306.65 M1039.3 1284.21 L1039.3 1284.21 Z" fill="#000000" fill-rule="nonzero" fill-opacity="1" /><path clip-path="url(#clip700)" d="M1096.97 1301.43 L1096.97 1304.29 L1070.04 1304.29 Q1070.43 1310.34 1073.67 1313.52 Q1076.95 1316.67 1082.77 1316.67 Q1086.15 1316.67 1089.3 1315.84 Q1092.48 1315.02 1095.6 1313.36 L1095.6 1318.9 Q1092.45 1320.24 1089.14 1320.94 Q1085.83 1321.64 1082.42 1321.64 Q1073.89 1321.64 1068.9 1316.67 Q1063.93 1311.71 1063.93 1303.24 Q1063.93 1294.49 1068.64 1289.36 Q1073.39 1284.21 1081.41 1284.21 Q1088.6 1284.21 1092.77 1288.85 Q1096.97 1293.47 1096.97 1301.43 M1091.11 1299.71 Q1091.05 1294.9 1088.41 1292.04 Q1085.8 1289.17 1081.47 1289.17 Q1076.57 1289.17 1073.61 1291.94 Q1070.68 1294.71 1070.23 1299.74 L1091.11 1299.71 Z" fill="#000000" fill-rule="nonzero" fill-opacity="1" /><path clip-path="url(#clip700)" d="M1136.21 1299.2 L1136.21 1320.71 L1130.36 1320.71 L1130.36 1299.39 Q1130.36 1294.33 1128.38 1291.81 Q1126.41 1289.3 1122.46 1289.3 Q1117.72 1289.3 1114.99 1292.32 Q1112.25 1295.35 1112.25 1300.57 L1112.25 1320.71 L1106.36 1320.71 L1106.36 1285.07 L1112.25 1285.07 L1112.25 1290.6 Q1114.35 1287.39 1117.18 1285.8 Q1120.05 1284.21 1123.77 1284.21 Q1129.91 1284.21 1133.06 1288.03 Q1136.21 1291.81 1136.21 1299.2 Z" fill="#000000" fill-rule="nonzero" fill-opacity="1" /><path clip-path="url(#clip700)" d="M1173.55 1286.44 L1173.55 1291.91 Q1171.07 1290.54 1168.55 1289.87 Q1166.07 1289.17 1163.52 1289.17 Q1157.83 1289.17 1154.68 1292.8 Q1151.52 1296.4 1151.52 1302.92 Q1151.52 1309.45 1154.68 1313.08 Q1157.83 1316.67 1163.52 1316.67 Q1166.07 1316.67 1168.55 1316 Q1171.07 1315.3 1173.55 1313.94 L1173.55 1319.35 Q1171.1 1320.49 1168.46 1321.06 Q1165.85 1321.64 1162.89 1321.64 Q1154.83 1321.64 1150.09 1316.58 Q1145.35 1311.52 1145.35 1302.92 Q1145.35 1294.2 1150.12 1289.2 Q1154.93 1284.21 1163.27 1284.21 Q1165.97 1284.21 1168.55 1284.78 Q1171.13 1285.32 1173.55 1286.44 Z" fill="#000000" fill-rule="nonzero" fill-opacity="1" /><path clip-path="url(#clip700)" d="M1198.57 1324.02 Q1196.08 1330.39 1193.73 1332.33 Q1191.37 1334.27 1187.43 1334.27 L1182.75 1334.27 L1182.75 1329.37 L1186.19 1329.37 Q1188.6 1329.37 1189.94 1328.23 Q1191.28 1327.08 1192.9 1322.82 L1193.95 1320.14 L1179.53 1285.07 L1185.74 1285.07 L1196.88 1312.95 L1208.02 1285.07 L1214.23 1285.07 L1198.57 1324.02 Z" fill="#000000" fill-rule="nonzero" fill-opacity="1" /><path clip-path="url(#clip700)" d="M1242.49 1271.19 L1255.99 1271.19 L1255.99 1275.74 L1248.35 1275.74 L1248.35 1324.76 L1255.99 1324.76 L1255.99 1329.31 L1242.49 1329.31 L1242.49 1271.19 Z" fill="#000000" fill-rule="nonzero" fill-opacity="1" /><path clip-path="url(#clip700)" d="M1289.12 1290.54 Q1288.13 1289.97 1286.95 1289.71 Q1285.81 1289.43 1284.41 1289.43 Q1279.44 1289.43 1276.77 1292.67 Q1274.13 1295.89 1274.13 1301.94 L1274.13 1320.71 L1268.24 1320.71 L1268.24 1285.07 L1274.13 1285.07 L1274.13 1290.6 Q1275.97 1287.36 1278.93 1285.8 Q1281.89 1284.21 1286.13 1284.21 Q1286.73 1284.21 1287.46 1284.3 Q1288.2 1284.37 1289.09 1284.53 L1289.12 1290.54 Z" fill="#000000" fill-rule="nonzero" fill-opacity="1" /><path clip-path="url(#clip700)" d="M1311.46 1302.8 Q1304.36 1302.8 1301.63 1304.42 Q1298.89 1306.04 1298.89 1309.96 Q1298.89 1313.08 1300.93 1314.92 Q1303 1316.74 1306.53 1316.74 Q1311.4 1316.74 1314.33 1313.3 Q1317.29 1309.83 1317.29 1304.1 L1317.29 1302.8 L1311.46 1302.8 M1323.14 1300.38 L1323.14 1320.71 L1317.29 1320.71 L1317.29 1315.3 Q1315.28 1318.55 1312.29 1320.11 Q1309.3 1321.64 1304.97 1321.64 Q1299.5 1321.64 1296.25 1318.58 Q1293.03 1315.49 1293.03 1310.34 Q1293.03 1304.32 1297.04 1301.27 Q1301.09 1298.21 1309.08 1298.21 L1317.29 1298.21 L1317.29 1297.64 Q1317.29 1293.6 1314.61 1291.4 Q1311.97 1289.17 1307.17 1289.17 Q1304.11 1289.17 1301.21 1289.9 Q1298.32 1290.64 1295.64 1292.1 L1295.64 1286.69 Q1298.86 1285.45 1301.88 1284.84 Q1304.91 1284.21 1307.77 1284.21 Q1315.5 1284.21 1319.32 1288.22 Q1323.14 1292.23 1323.14 1300.38 Z" fill="#000000" fill-rule="nonzero" fill-opacity="1" /><path clip-path="url(#clip700)" d="M1358.66 1290.48 L1358.66 1271.19 L1364.52 1271.19 L1364.52 1320.71 L1358.66 1320.71 L1358.66 1315.37 Q1356.82 1318.55 1353.99 1320.11 Q1351.18 1321.64 1347.24 1321.64 Q1340.78 1321.64 1336.7 1316.48 Q1332.66 1311.33 1332.66 1302.92 Q1332.66 1294.52 1336.7 1289.36 Q1340.78 1284.21 1347.24 1284.21 Q1351.18 1284.21 1353.99 1285.77 Q1356.82 1287.29 1358.66 1290.48 M1338.71 1302.92 Q1338.71 1309.38 1341.35 1313.08 Q1344.02 1316.74 1348.67 1316.74 Q1353.32 1316.74 1355.99 1313.08 Q1358.66 1309.38 1358.66 1302.92 Q1358.66 1296.46 1355.99 1292.8 Q1353.32 1289.11 1348.67 1289.11 Q1344.02 1289.11 1341.35 1292.8 Q1338.71 1296.46 1338.71 1302.92 Z" fill="#000000" fill-rule="nonzero" fill-opacity="1" /><path clip-path="url(#clip700)" d="M1386.99 1273.19 L1392.4 1273.19 L1375.85 1326.76 L1370.44 1326.76 L1386.99 1273.19 Z" fill="#000000" fill-rule="nonzero" fill-opacity="1" /><path clip-path="url(#clip700)" d="M1421.27 1286.12 L1421.27 1291.66 Q1418.79 1290.38 1416.11 1289.75 Q1413.44 1289.11 1410.58 1289.11 Q1406.22 1289.11 1404.02 1290.45 Q1401.86 1291.78 1401.86 1294.46 Q1401.86 1296.49 1403.42 1297.67 Q1404.97 1298.82 1409.69 1299.87 L1411.69 1300.31 Q1417.93 1301.65 1420.54 1304.1 Q1423.18 1306.52 1423.18 1310.88 Q1423.18 1315.84 1419.23 1318.74 Q1415.32 1321.64 1408.44 1321.64 Q1405.58 1321.64 1402.46 1321.06 Q1399.37 1320.52 1395.94 1319.41 L1395.94 1313.36 Q1399.18 1315.05 1402.33 1315.91 Q1405.48 1316.74 1408.57 1316.74 Q1412.71 1316.74 1414.94 1315.34 Q1417.17 1313.9 1417.17 1311.33 Q1417.17 1308.94 1415.54 1307.66 Q1413.95 1306.39 1408.51 1305.21 L1406.47 1304.74 Q1401.03 1303.59 1398.61 1301.24 Q1396.19 1298.85 1396.19 1294.71 Q1396.19 1289.68 1399.75 1286.94 Q1403.32 1284.21 1409.88 1284.21 Q1413.12 1284.21 1415.99 1284.68 Q1418.85 1285.16 1421.27 1286.12 Z" fill="#000000" fill-rule="nonzero" fill-opacity="1" /><path clip-path="url(#clip700)" d="M1446.19 1271.19 L1446.19 1329.31 L1432.7 1329.31 L1432.7 1324.76 L1440.3 1324.76 L1440.3 1275.74 L1432.7 1275.74 L1432.7 1271.19 L1446.19 1271.19 Z" fill="#000000" fill-rule="nonzero" fill-opacity="1" /><polyline clip-path="url(#clip700)" style="stroke:#000000; stroke-linecap:round; stroke-linejoin:round; stroke-width:4; stroke-opacity:1; fill:none" points="267.257,1161.75 267.257,688.69 "/>
<polyline clip-path="url(#clip700)" style="stroke:#000000; stroke-linecap:round; stroke-linejoin:round; stroke-width:4; stroke-opacity:1; fill:none" points="267.257,1151.17 286.154,1151.17 "/>
<polyline clip-path="url(#clip700)" style="stroke:#000000; stroke-linecap:round; stroke-linejoin:round; stroke-width:4; stroke-opacity:1; fill:none" points="267.257,1038.23 286.154,1038.23 "/>
<polyline clip-path="url(#clip700)" style="stroke:#000000; stroke-linecap:round; stroke-linejoin:round; stroke-width:4; stroke-opacity:1; fill:none" points="267.257,925.288 286.154,925.288 "/>
<polyline clip-path="url(#clip700)" style="stroke:#000000; stroke-linecap:round; stroke-linejoin:round; stroke-width:4; stroke-opacity:1; fill:none" points="267.257,812.346 286.154,812.346 "/>
<polyline clip-path="url(#clip700)" style="stroke:#000000; stroke-linecap:round; stroke-linejoin:round; stroke-width:4; stroke-opacity:1; fill:none" points="267.257,699.404 286.154,699.404 "/>
<path clip-path="url(#clip700)" d="M113.54 1151.62 L143.216 1151.62 L143.216 1155.56 L113.54 1155.56 L113.54 1151.62 Z" fill="#000000" fill-rule="nonzero" fill-opacity="1" /><path clip-path="url(#clip700)" d="M157.336 1164.52 L173.656 1164.52 L173.656 1168.45 L151.711 1168.45 L151.711 1164.52 Q154.373 1161.76 158.957 1157.13 Q163.563 1152.48 164.744 1151.14 Q166.989 1148.62 167.869 1146.88 Q168.771 1145.12 168.771 1143.43 Q168.771 1140.68 166.827 1138.94 Q164.906 1137.2 161.804 1137.2 Q159.605 1137.2 157.151 1137.97 Q154.72 1138.73 151.943 1140.28 L151.943 1135.56 Q154.767 1134.43 157.22 1133.85 Q159.674 1133.27 161.711 1133.27 Q167.082 1133.27 170.276 1135.95 Q173.47 1138.64 173.47 1143.13 Q173.47 1145.26 172.66 1147.18 Q171.873 1149.08 169.767 1151.67 Q169.188 1152.34 166.086 1155.56 Q162.984 1158.75 157.336 1164.52 Z" fill="#000000" fill-rule="nonzero" fill-opacity="1" /><path clip-path="url(#clip700)" d="M193.47 1136.97 Q189.859 1136.97 188.03 1140.54 Q186.225 1144.08 186.225 1151.21 Q186.225 1158.31 188.03 1161.88 Q189.859 1165.42 193.47 1165.42 Q197.105 1165.42 198.91 1161.88 Q200.739 1158.31 200.739 1151.21 Q200.739 1144.08 198.91 1140.54 Q197.105 1136.97 193.47 1136.97 M193.47 1133.27 Q199.28 1133.27 202.336 1137.87 Q205.415 1142.46 205.415 1151.21 Q205.415 1159.93 202.336 1164.54 Q199.28 1169.12 193.47 1169.12 Q187.66 1169.12 184.581 1164.54 Q181.526 1159.93 181.526 1151.21 Q181.526 1142.46 184.581 1137.87 Q187.66 1133.27 193.47 1133.27 Z" fill="#000000" fill-rule="nonzero" fill-opacity="1" /><path clip-path="url(#clip700)" d="M223.632 1136.97 Q220.021 1136.97 218.192 1140.54 Q216.387 1144.08 216.387 1151.21 Q216.387 1158.31 218.192 1161.88 Q220.021 1165.42 223.632 1165.42 Q227.266 1165.42 229.072 1161.88 Q230.901 1158.31 230.901 1151.21 Q230.901 1144.08 229.072 1140.54 Q227.266 1136.97 223.632 1136.97 M223.632 1133.27 Q229.442 1133.27 232.498 1137.87 Q235.577 1142.46 235.577 1151.21 Q235.577 1159.93 232.498 1164.54 Q229.442 1169.12 223.632 1169.12 Q217.822 1169.12 214.743 1164.54 Q211.688 1159.93 211.688 1151.21 Q211.688 1142.46 214.743 1137.87 Q217.822 1133.27 223.632 1133.27 Z" fill="#000000" fill-rule="nonzero" fill-opacity="1" /><path clip-path="url(#clip700)" d="M113.54 1038.68 L143.216 1038.68 L143.216 1042.62 L113.54 1042.62 L113.54 1038.68 Z" fill="#000000" fill-rule="nonzero" fill-opacity="1" /><path clip-path="url(#clip700)" d="M154.119 1051.58 L161.757 1051.58 L161.757 1025.21 L153.447 1026.88 L153.447 1022.62 L161.711 1020.95 L166.387 1020.95 L166.387 1051.58 L174.026 1051.58 L174.026 1055.51 L154.119 1055.51 L154.119 1051.58 Z" fill="#000000" fill-rule="nonzero" fill-opacity="1" /><path clip-path="url(#clip700)" d="M183.517 1020.95 L201.873 1020.95 L201.873 1024.89 L187.799 1024.89 L187.799 1033.36 Q188.818 1033.01 189.836 1032.85 Q190.855 1032.66 191.873 1032.66 Q197.66 1032.66 201.04 1035.83 Q204.419 1039.01 204.419 1044.42 Q204.419 1050 200.947 1053.1 Q197.475 1056.18 191.155 1056.18 Q188.98 1056.18 186.711 1055.81 Q184.466 1055.44 182.058 1054.7 L182.058 1050 Q184.142 1051.14 186.364 1051.69 Q188.586 1052.25 191.063 1052.25 Q195.067 1052.25 197.405 1050.14 Q199.743 1048.03 199.743 1044.42 Q199.743 1040.81 197.405 1038.71 Q195.067 1036.6 191.063 1036.6 Q189.188 1036.6 187.313 1037.02 Q185.461 1037.43 183.517 1038.31 L183.517 1020.95 Z" fill="#000000" fill-rule="nonzero" fill-opacity="1" /><path clip-path="url(#clip700)" d="M223.632 1024.03 Q220.021 1024.03 218.192 1027.59 Q216.387 1031.14 216.387 1038.27 Q216.387 1045.37 218.192 1048.94 Q220.021 1052.48 223.632 1052.48 Q227.266 1052.48 229.072 1048.94 Q230.901 1045.37 230.901 1038.27 Q230.901 1031.14 229.072 1027.59 Q227.266 1024.03 223.632 1024.03 M223.632 1020.33 Q229.442 1020.33 232.498 1024.93 Q235.577 1029.52 235.577 1038.27 Q235.577 1046.99 232.498 1051.6 Q229.442 1056.18 223.632 1056.18 Q217.822 1056.18 214.743 1051.6 Q211.688 1046.99 211.688 1038.27 Q211.688 1029.52 214.743 1024.93 Q217.822 1020.33 223.632 1020.33 Z" fill="#000000" fill-rule="nonzero" fill-opacity="1" /><path clip-path="url(#clip700)" d="M113.54 925.74 L143.216 925.74 L143.216 929.675 L113.54 929.675 L113.54 925.74 Z" fill="#000000" fill-rule="nonzero" fill-opacity="1" /><path clip-path="url(#clip700)" d="M154.119 938.633 L161.757 938.633 L161.757 912.268 L153.447 913.934 L153.447 909.675 L161.711 908.008 L166.387 908.008 L166.387 938.633 L174.026 938.633 L174.026 942.568 L154.119 942.568 L154.119 938.633 Z" fill="#000000" fill-rule="nonzero" fill-opacity="1" /><path clip-path="url(#clip700)" d="M193.47 911.087 Q189.859 911.087 188.03 914.652 Q186.225 918.194 186.225 925.323 Q186.225 932.43 188.03 935.994 Q189.859 939.536 193.47 939.536 Q197.105 939.536 198.91 935.994 Q200.739 932.43 200.739 925.323 Q200.739 918.194 198.91 914.652 Q197.105 911.087 193.47 911.087 M193.47 907.383 Q199.28 907.383 202.336 911.99 Q205.415 916.573 205.415 925.323 Q205.415 934.05 202.336 938.656 Q199.28 943.24 193.47 943.24 Q187.66 943.24 184.581 938.656 Q181.526 934.05 181.526 925.323 Q181.526 916.573 184.581 911.99 Q187.66 907.383 193.47 907.383 Z" fill="#000000" fill-rule="nonzero" fill-opacity="1" /><path clip-path="url(#clip700)" d="M223.632 911.087 Q220.021 911.087 218.192 914.652 Q216.387 918.194 216.387 925.323 Q216.387 932.43 218.192 935.994 Q220.021 939.536 223.632 939.536 Q227.266 939.536 229.072 935.994 Q230.901 932.43 230.901 925.323 Q230.901 918.194 229.072 914.652 Q227.266 911.087 223.632 911.087 M223.632 907.383 Q229.442 907.383 232.498 911.99 Q235.577 916.573 235.577 925.323 Q235.577 934.05 232.498 938.656 Q229.442 943.24 223.632 943.24 Q217.822 943.24 214.743 938.656 Q211.688 934.05 211.688 925.323 Q211.688 916.573 214.743 911.99 Q217.822 907.383 223.632 907.383 Z" fill="#000000" fill-rule="nonzero" fill-opacity="1" /><path clip-path="url(#clip700)" d="M143.702 812.798 L173.378 812.798 L173.378 816.733 L143.702 816.733 L143.702 812.798 Z" fill="#000000" fill-rule="nonzero" fill-opacity="1" /><path clip-path="url(#clip700)" d="M183.517 795.066 L201.873 795.066 L201.873 799.001 L187.799 799.001 L187.799 807.474 Q188.818 807.126 189.836 806.964 Q190.855 806.779 191.873 806.779 Q197.66 806.779 201.04 809.95 Q204.419 813.122 204.419 818.538 Q204.419 824.117 200.947 827.219 Q197.475 830.297 191.155 830.297 Q188.98 830.297 186.711 829.927 Q184.466 829.557 182.058 828.816 L182.058 824.117 Q184.142 825.251 186.364 825.807 Q188.586 826.362 191.063 826.362 Q195.067 826.362 197.405 824.256 Q199.743 822.149 199.743 818.538 Q199.743 814.927 197.405 812.821 Q195.067 810.714 191.063 810.714 Q189.188 810.714 187.313 811.131 Q185.461 811.548 183.517 812.427 L183.517 795.066 Z" fill="#000000" fill-rule="nonzero" fill-opacity="1" /><path clip-path="url(#clip700)" d="M223.632 798.145 Q220.021 798.145 218.192 801.71 Q216.387 805.251 216.387 812.381 Q216.387 819.487 218.192 823.052 Q220.021 826.594 223.632 826.594 Q227.266 826.594 229.072 823.052 Q230.901 819.487 230.901 812.381 Q230.901 805.251 229.072 801.71 Q227.266 798.145 223.632 798.145 M223.632 794.441 Q229.442 794.441 232.498 799.048 Q235.577 803.631 235.577 812.381 Q235.577 821.108 232.498 825.714 Q229.442 830.297 223.632 830.297 Q217.822 830.297 214.743 825.714 Q211.688 821.108 211.688 812.381 Q211.688 803.631 214.743 799.048 Q217.822 794.441 223.632 794.441 Z" fill="#000000" fill-rule="nonzero" fill-opacity="1" /><path clip-path="url(#clip700)" d="M223.632 685.203 Q220.021 685.203 218.192 688.767 Q216.387 692.309 216.387 699.439 Q216.387 706.545 218.192 710.11 Q220.021 713.651 223.632 713.651 Q227.266 713.651 229.072 710.11 Q230.901 706.545 230.901 699.439 Q230.901 692.309 229.072 688.767 Q227.266 685.203 223.632 685.203 M223.632 681.499 Q229.442 681.499 232.498 686.105 Q235.577 690.689 235.577 699.439 Q235.577 708.165 232.498 712.772 Q229.442 717.355 223.632 717.355 Q217.822 717.355 214.743 712.772 Q211.688 708.165 211.688 699.439 Q211.688 690.689 214.743 686.105 Q217.822 681.499 223.632 681.499 Z" fill="#000000" fill-rule="nonzero" fill-opacity="1" /><path clip-path="url(#clip700)" d="M25.3677 1107.32 L43.2235 1107.32 L43.2235 1099.24 Q43.2235 1094.75 40.9 1092.3 Q38.5765 1089.85 34.2797 1089.85 Q30.0147 1089.85 27.6912 1092.3 Q25.3677 1094.75 25.3677 1099.24 L25.3677 1107.32 M20.0842 1113.75 L20.0842 1099.24 Q20.0842 1091.25 23.7126 1087.18 Q27.3092 1083.07 34.2797 1083.07 Q41.3138 1083.07 44.9104 1087.18 Q48.507 1091.25 48.507 1099.24 L48.507 1107.32 L67.6042 1107.32 L67.6042 1113.75 L20.0842 1113.75 Z" fill="#000000" fill-rule="nonzero" fill-opacity="1" /><path clip-path="url(#clip700)" d="M46.0881 1045.07 L67.6042 1045.07 L67.6042 1050.92 L46.279 1050.92 Q41.2183 1050.92 38.7038 1052.9 Q36.1894 1054.87 36.1894 1058.82 Q36.1894 1063.56 39.2131 1066.3 Q42.2368 1069.04 47.4567 1069.04 L67.6042 1069.04 L67.6042 1074.92 L18.079 1074.92 L18.079 1069.04 L37.4944 1069.04 Q34.2797 1066.93 32.6883 1064.1 Q31.0968 1061.24 31.0968 1057.51 Q31.0968 1051.37 34.9163 1048.22 Q38.7038 1045.07 46.0881 1045.07 Z" fill="#000000" fill-rule="nonzero" fill-opacity="1" /><path clip-path="url(#clip700)" d="M49.6847 1017.19 Q49.6847 1024.28 51.3079 1027.02 Q52.9312 1029.76 56.8461 1029.76 Q59.9653 1029.76 61.8114 1027.72 Q63.6256 1025.65 63.6256 1022.12 Q63.6256 1017.25 60.1881 1014.32 Q56.7188 1011.36 50.9897 1011.36 L49.6847 1011.36 L49.6847 1017.19 M47.2657 1005.51 L67.6042 1005.51 L67.6042 1011.36 L62.1933 1011.36 Q65.4398 1013.37 66.9994 1016.36 Q68.5272 1019.35 68.5272 1023.68 Q68.5272 1029.15 65.4716 1032.4 Q62.3843 1035.62 57.2281 1035.62 Q51.2125 1035.62 48.1569 1031.6 Q45.1014 1027.56 45.1014 1019.57 L45.1014 1011.36 L44.5285 1011.36 Q40.4862 1011.36 38.2901 1014.04 Q36.0621 1016.68 36.0621 1021.48 Q36.0621 1024.54 36.7941 1027.44 Q37.5262 1030.33 38.9903 1033.01 L33.5795 1033.01 Q32.3381 1029.79 31.7334 1026.77 Q31.0968 1023.74 31.0968 1020.88 Q31.0968 1013.14 35.1072 1009.32 Q39.1176 1005.51 47.2657 1005.51 Z" fill="#000000" fill-rule="nonzero" fill-opacity="1" /><path clip-path="url(#clip700)" d="M33.0065 970.717 L38.5447 970.717 Q37.2716 973.199 36.635 975.873 Q35.9984 978.547 35.9984 981.411 Q35.9984 985.772 37.3352 987.968 Q38.672 990.132 41.3456 990.132 Q43.3826 990.132 44.5603 988.573 Q45.7061 987.013 46.7565 982.302 L47.2021 980.297 Q48.5389 974.059 50.9897 971.449 Q53.4086 968.807 57.7691 968.807 Q62.7344 968.807 65.6308 972.754 Q68.5272 976.669 68.5272 983.544 Q68.5272 986.408 67.9543 989.528 Q67.4132 992.615 66.2992 996.052 L60.2518 996.052 Q61.9387 992.806 62.798 989.655 Q63.6256 986.504 63.6256 983.416 Q63.6256 979.279 62.2251 977.051 Q60.7929 974.823 58.2147 974.823 Q55.8276 974.823 54.5545 976.446 Q53.2813 978.037 52.1037 983.48 L51.6262 985.517 Q50.4804 990.96 48.1251 993.379 Q45.738 995.798 41.6002 995.798 Q36.5713 995.798 33.8341 992.233 Q31.0968 988.668 31.0968 982.111 Q31.0968 978.865 31.5743 976 Q32.0517 973.136 33.0065 970.717 Z" fill="#000000" fill-rule="nonzero" fill-opacity="1" /><path clip-path="url(#clip700)" d="M48.3161 928.99 L51.1806 928.99 L51.1806 955.917 Q57.2281 955.535 60.4109 952.288 Q63.5619 949.01 63.5619 943.185 Q63.5619 939.811 62.7344 936.66 Q61.9069 933.477 60.2518 930.358 L65.7899 930.358 Q67.1267 933.509 67.827 936.819 Q68.5272 940.13 68.5272 943.535 Q68.5272 952.065 63.5619 957.062 Q58.5967 962.028 50.1303 962.028 Q41.3774 962.028 36.2531 957.317 Q31.0968 952.575 31.0968 944.554 Q31.0968 937.361 35.7438 933.191 Q40.3589 928.99 48.3161 928.99 M46.5973 934.846 Q41.7912 934.91 38.9266 937.552 Q36.0621 940.161 36.0621 944.49 Q36.0621 949.392 38.8312 952.352 Q41.6002 955.28 46.6292 955.726 L46.5973 934.846 Z" fill="#000000" fill-rule="nonzero" fill-opacity="1" /><path clip-path="url(#clip700)" d="M18.1426 884.589 Q25.4632 888.854 32.6246 890.923 Q39.786 892.992 47.1384 892.992 Q54.4908 892.992 61.7159 890.923 Q68.9091 888.822 76.1979 884.589 L76.1979 889.681 Q68.7182 894.456 61.4931 896.843 Q54.268 899.198 47.1384 899.198 Q40.0406 899.198 32.8474 896.843 Q25.6542 894.488 18.1426 889.681 L18.1426 884.589 Z" fill="#000000" fill-rule="nonzero" fill-opacity="1" /><path clip-path="url(#clip700)" d="M37.3671 849.768 L18.079 849.768 L18.079 843.912 L67.6042 843.912 L67.6042 849.768 L62.257 849.768 Q65.4398 851.614 66.9994 854.447 Q68.5272 857.248 68.5272 861.195 Q68.5272 867.656 63.371 871.73 Q58.2147 875.772 49.812 875.772 Q41.4093 875.772 36.2531 871.73 Q31.0968 867.656 31.0968 861.195 Q31.0968 857.248 32.6564 854.447 Q34.1842 851.614 37.3671 849.768 M49.812 869.725 Q56.2732 869.725 59.9653 867.083 Q63.6256 864.41 63.6256 859.763 Q63.6256 855.116 59.9653 852.442 Q56.2732 849.768 49.812 849.768 Q43.3508 849.768 39.6905 852.442 Q35.9984 855.116 35.9984 859.763 Q35.9984 864.41 39.6905 867.083 Q43.3508 869.725 49.812 869.725 Z" fill="#000000" fill-rule="nonzero" fill-opacity="1" /><path clip-path="url(#clip700)" d="M48.3161 801.357 L51.1806 801.357 L51.1806 828.284 Q57.2281 827.902 60.4109 824.656 Q63.5619 821.377 63.5619 815.553 Q63.5619 812.179 62.7344 809.028 Q61.9069 805.845 60.2518 802.726 L65.7899 802.726 Q67.1267 805.877 67.827 809.187 Q68.5272 812.497 68.5272 815.903 Q68.5272 824.433 63.5619 829.43 Q58.5967 834.395 50.1303 834.395 Q41.3774 834.395 36.2531 829.685 Q31.0968 824.942 31.0968 816.921 Q31.0968 809.728 35.7438 805.559 Q40.3589 801.357 48.3161 801.357 M46.5973 807.214 Q41.7912 807.277 38.9266 809.919 Q36.0621 812.529 36.0621 816.858 Q36.0621 821.759 38.8312 824.719 Q41.6002 827.648 46.6292 828.093 L46.5973 807.214 Z" fill="#000000" fill-rule="nonzero" fill-opacity="1" /><path clip-path="url(#clip700)" d="M49.3664 768.287 Q43.0007 768.287 39.4996 770.929 Q35.9984 773.539 35.9984 778.282 Q35.9984 782.992 39.4996 785.634 Q43.0007 788.244 49.3664 788.244 Q55.7003 788.244 59.2014 785.634 Q62.7026 782.992 62.7026 778.282 Q62.7026 773.539 59.2014 770.929 Q55.7003 768.287 49.3664 768.287 M63.18 762.431 Q72.283 762.431 76.7071 766.473 Q81.1631 770.515 81.1631 778.854 Q81.1631 781.942 80.6857 784.679 Q80.2401 787.416 79.2852 789.994 L73.5879 789.994 Q74.9884 787.416 75.6568 784.902 Q76.3252 782.387 76.3252 779.777 Q76.3252 774.017 73.3015 771.152 Q70.3096 768.287 64.2303 768.287 L61.3339 768.287 Q64.485 770.102 66.0446 772.934 Q67.6042 775.767 67.6042 779.714 Q67.6042 786.271 62.6071 790.281 Q57.61 794.291 49.3664 794.291 Q41.091 794.291 36.0939 790.281 Q31.0968 786.271 31.0968 779.714 Q31.0968 775.767 32.6564 772.934 Q34.216 770.102 37.3671 768.287 L31.9562 768.287 L31.9562 762.431 L63.18 762.431 Z" fill="#000000" fill-rule="nonzero" fill-opacity="1" /><path clip-path="url(#clip700)" d="M18.1426 751.291 L18.1426 746.198 Q25.6542 741.424 32.8474 739.069 Q40.0406 736.682 47.1384 736.682 Q54.268 736.682 61.4931 739.069 Q68.7182 741.424 76.1979 746.198 L76.1979 751.291 Q68.9091 747.058 61.7159 744.989 Q54.4908 742.888 47.1384 742.888 Q39.786 742.888 32.6246 744.989 Q25.4632 747.058 18.1426 751.291 Z" fill="#000000" fill-rule="nonzero" fill-opacity="1" /><polyline clip-path="url(#clip703)" style="stroke:#009af9; stroke-linecap:round; stroke-linejoin:round; stroke-width:4; stroke-opacity:1; fill:none" points="318.129,702.078 1183.1,754.638 1373.18,802.845 1435.19,824.676 1529.19,863.78 1629.32,912.792 1680.65,940.537 1724.11,965.285 1810.34,1017.41 1887.95,1066.91 1957.84,1112.32 2013.88,1148.36 "/>
</svg>
