<?xml version="1.0" encoding="utf-8"?>
<svg xmlns="http://www.w3.org/2000/svg" xmlns:xlink="http://www.w3.org/1999/xlink" width="528" height="336" viewBox="0 0 2112 1344">
<defs>
  <clipPath id="clip940">
    <rect x="0" y="0" width="2112" height="1344"/>
  </clipPath>
</defs>
<path clip-path="url(#clip940)" d="M0 1344 L2112 1344 L2112 0 L0 0  Z" fill="#ffffff" fill-rule="evenodd" fill-opacity="1"/>
<defs>
  <clipPath id="clip941">
    <rect x="422" y="0" width="1479" height="1344"/>
  </clipPath>
</defs>
<path clip-path="url(#clip940)" d="M175.987 1173.47 L2064.76 1173.47 L2064.76 47.2441 L175.987 47.2441  Z" fill="#ffffff" fill-rule="evenodd" fill-opacity="1"/>
<defs>
  <clipPath id="clip942">
    <rect x="175" y="47" width="1890" height="1127"/>
  </clipPath>
</defs>
<polyline clip-path="url(#clip942)" style="stroke:#000000; stroke-linecap:round; stroke-linejoin:round; stroke-width:2; stroke-opacity:0.1; fill:none" points="229.442,1173.47 229.442,47.2441 "/>
<polyline clip-path="url(#clip942)" style="stroke:#000000; stroke-linecap:round; stroke-linejoin:round; stroke-width:2; stroke-opacity:0.1; fill:none" points="585.814,1173.47 585.814,47.2441 "/>
<polyline clip-path="url(#clip942)" style="stroke:#000000; stroke-linecap:round; stroke-linejoin:round; stroke-width:2; stroke-opacity:0.1; fill:none" points="942.185,1173.47 942.185,47.2441 "/>
<polyline clip-path="url(#clip942)" style="stroke:#000000; stroke-linecap:round; stroke-linejoin:round; stroke-width:2; stroke-opacity:0.1; fill:none" points="1298.56,1173.47 1298.56,47.2441 "/>
<polyline clip-path="url(#clip942)" style="stroke:#000000; stroke-linecap:round; stroke-linejoin:round; stroke-width:2; stroke-opacity:0.1; fill:none" points="1654.93,1173.47 1654.93,47.2441 "/>
<polyline clip-path="url(#clip942)" style="stroke:#000000; stroke-linecap:round; stroke-linejoin:round; stroke-width:2; stroke-opacity:0.1; fill:none" points="2011.3,1173.47 2011.3,47.2441 "/>
<polyline clip-path="url(#clip942)" style="stroke:#000000; stroke-linecap:round; stroke-linejoin:round; stroke-width:2; stroke-opacity:0.1; fill:none" points="175.987,1141.6 2064.76,1141.6 "/>
<polyline clip-path="url(#clip942)" style="stroke:#000000; stroke-linecap:round; stroke-linejoin:round; stroke-width:2; stroke-opacity:0.1; fill:none" points="175.987,875.977 2064.76,875.977 "/>
<polyline clip-path="url(#clip942)" style="stroke:#000000; stroke-linecap:round; stroke-linejoin:round; stroke-width:2; stroke-opacity:0.1; fill:none" points="175.987,610.357 2064.76,610.357 "/>
<polyline clip-path="url(#clip942)" style="stroke:#000000; stroke-linecap:round; stroke-linejoin:round; stroke-width:2; stroke-opacity:0.1; fill:none" points="175.987,344.738 2064.76,344.738 "/>
<polyline clip-path="url(#clip942)" style="stroke:#000000; stroke-linecap:round; stroke-linejoin:round; stroke-width:2; stroke-opacity:0.1; fill:none" points="175.987,79.1184 2064.76,79.1184 "/>
<polyline clip-path="url(#clip940)" style="stroke:#000000; stroke-linecap:round; stroke-linejoin:round; stroke-width:4; stroke-opacity:1; fill:none" points="175.987,1173.47 2064.76,1173.47 "/>
<polyline clip-path="url(#clip940)" style="stroke:#000000; stroke-linecap:round; stroke-linejoin:round; stroke-width:4; stroke-opacity:1; fill:none" points="229.442,1173.47 229.442,1154.57 "/>
<polyline clip-path="url(#clip940)" style="stroke:#000000; stroke-linecap:round; stroke-linejoin:round; stroke-width:4; stroke-opacity:1; fill:none" points="585.814,1173.47 585.814,1154.57 "/>
<polyline clip-path="url(#clip940)" style="stroke:#000000; stroke-linecap:round; stroke-linejoin:round; stroke-width:4; stroke-opacity:1; fill:none" points="942.185,1173.47 942.185,1154.57 "/>
<polyline clip-path="url(#clip940)" style="stroke:#000000; stroke-linecap:round; stroke-linejoin:round; stroke-width:4; stroke-opacity:1; fill:none" points="1298.56,1173.47 1298.56,1154.57 "/>
<polyline clip-path="url(#clip940)" style="stroke:#000000; stroke-linecap:round; stroke-linejoin:round; stroke-width:4; stroke-opacity:1; fill:none" points="1654.93,1173.47 1654.93,1154.57 "/>
<polyline clip-path="url(#clip940)" style="stroke:#000000; stroke-linecap:round; stroke-linejoin:round; stroke-width:4; stroke-opacity:1; fill:none" points="2011.3,1173.47 2011.3,1154.57 "/>
<path clip-path="url(#clip940)" d="M229.442 1202.09 Q225.831 1202.09 224.003 1205.65 Q222.197 1209.19 222.197 1216.32 Q222.197 1223.43 224.003 1226.99 Q225.831 1230.53 229.442 1230.53 Q233.077 1230.53 234.882 1226.99 Q236.711 1223.43 236.711 1216.32 Q236.711 1209.19 234.882 1205.65 Q233.077 1202.09 229.442 1202.09 M229.442 1198.38 Q235.253 1198.38 238.308 1202.99 Q241.387 1207.57 241.387 1216.32 Q241.387 1225.05 238.308 1229.65 Q235.253 1234.24 229.442 1234.24 Q223.632 1234.24 220.554 1229.65 Q217.498 1225.05 217.498 1216.32 Q217.498 1207.57 220.554 1202.99 Q223.632 1198.38 229.442 1198.38 Z" fill="#000000" fill-rule="nonzero" fill-opacity="1" /><path clip-path="url(#clip940)" d="M576.196 1229.63 L583.835 1229.63 L583.835 1203.27 L575.525 1204.93 L575.525 1200.67 L583.788 1199.01 L588.464 1199.01 L588.464 1229.63 L596.103 1229.63 L596.103 1233.57 L576.196 1233.57 L576.196 1229.63 Z" fill="#000000" fill-rule="nonzero" fill-opacity="1" /><path clip-path="url(#clip940)" d="M936.838 1229.63 L953.158 1229.63 L953.158 1233.57 L931.213 1233.57 L931.213 1229.63 Q933.875 1226.88 938.459 1222.25 Q943.065 1217.59 944.246 1216.25 Q946.491 1213.73 947.371 1211.99 Q948.273 1210.23 948.273 1208.54 Q948.273 1205.79 946.329 1204.05 Q944.408 1202.32 941.306 1202.32 Q939.107 1202.32 936.653 1203.08 Q934.223 1203.84 931.445 1205.4 L931.445 1200.67 Q934.269 1199.54 936.723 1198.96 Q939.176 1198.38 941.213 1198.38 Q946.584 1198.38 949.778 1201.07 Q952.972 1203.75 952.972 1208.24 Q952.972 1210.37 952.162 1212.29 Q951.375 1214.19 949.269 1216.78 Q948.69 1217.46 945.588 1220.67 Q942.486 1223.87 936.838 1229.63 Z" fill="#000000" fill-rule="nonzero" fill-opacity="1" /><path clip-path="url(#clip940)" d="M1302.8 1214.93 Q1306.16 1215.65 1308.04 1217.92 Q1309.93 1220.19 1309.93 1223.52 Q1309.93 1228.64 1306.42 1231.44 Q1302.9 1234.24 1296.42 1234.24 Q1294.24 1234.24 1291.93 1233.8 Q1289.63 1233.38 1287.18 1232.53 L1287.18 1228.01 Q1289.12 1229.15 1291.44 1229.72 Q1293.75 1230.3 1296.28 1230.3 Q1300.68 1230.3 1302.97 1228.57 Q1305.28 1226.83 1305.28 1223.52 Q1305.28 1220.46 1303.13 1218.75 Q1301 1217.02 1297.18 1217.02 L1293.15 1217.02 L1293.15 1213.17 L1297.36 1213.17 Q1300.81 1213.17 1302.64 1211.81 Q1304.47 1210.42 1304.47 1207.83 Q1304.47 1205.16 1302.57 1203.75 Q1300.7 1202.32 1297.18 1202.32 Q1295.26 1202.32 1293.06 1202.73 Q1290.86 1203.15 1288.22 1204.03 L1288.22 1199.86 Q1290.88 1199.12 1293.2 1198.75 Q1295.54 1198.38 1297.6 1198.38 Q1302.92 1198.38 1306.02 1200.81 Q1309.12 1203.22 1309.12 1207.34 Q1309.12 1210.21 1307.48 1212.2 Q1305.84 1214.17 1302.8 1214.93 Z" fill="#000000" fill-rule="nonzero" fill-opacity="1" /><path clip-path="url(#clip940)" d="M1657.94 1203.08 L1646.13 1221.53 L1657.94 1221.53 L1657.94 1203.08 M1656.71 1199.01 L1662.59 1199.01 L1662.59 1221.53 L1667.52 1221.53 L1667.52 1225.42 L1662.59 1225.42 L1662.59 1233.57 L1657.94 1233.57 L1657.94 1225.42 L1642.34 1225.42 L1642.34 1220.9 L1656.71 1199.01 Z" fill="#000000" fill-rule="nonzero" fill-opacity="1" /><path clip-path="url(#clip940)" d="M2001.58 1199.01 L2019.93 1199.01 L2019.93 1202.94 L2005.86 1202.94 L2005.86 1211.41 Q2006.88 1211.07 2007.9 1210.9 Q2008.92 1210.72 2009.93 1210.72 Q2015.72 1210.72 2019.1 1213.89 Q2022.48 1217.06 2022.48 1222.48 Q2022.48 1228.06 2019.01 1231.16 Q2015.54 1234.24 2009.22 1234.24 Q2007.04 1234.24 2004.77 1233.87 Q2002.53 1233.5 2000.12 1232.76 L2000.12 1228.06 Q2002.2 1229.19 2004.43 1229.75 Q2006.65 1230.3 2009.12 1230.3 Q2013.13 1230.3 2015.47 1228.2 Q2017.8 1226.09 2017.8 1222.48 Q2017.8 1218.87 2015.47 1216.76 Q2013.13 1214.65 2009.12 1214.65 Q2007.25 1214.65 2005.37 1215.07 Q2003.52 1215.49 2001.58 1216.37 L2001.58 1199.01 Z" fill="#000000" fill-rule="nonzero" fill-opacity="1" /><path clip-path="url(#clip940)" d="M1068.68 1268.25 L1068.68 1278.37 L1080.74 1278.37 L1080.74 1282.92 L1068.68 1282.92 L1068.68 1302.27 Q1068.68 1306.63 1069.86 1307.87 Q1071.07 1309.11 1074.73 1309.11 L1080.74 1309.11 L1080.74 1314.01 L1074.73 1314.01 Q1067.95 1314.01 1065.37 1311.5 Q1062.79 1308.95 1062.79 1302.27 L1062.79 1282.92 L1058.5 1282.92 L1058.5 1278.37 L1062.79 1278.37 L1062.79 1268.25 L1068.68 1268.25 Z" fill="#000000" fill-rule="nonzero" fill-opacity="1" /><path clip-path="url(#clip940)" d="M1108.63 1264.49 L1122.12 1264.49 L1122.12 1269.04 L1114.48 1269.04 L1114.48 1318.06 L1122.12 1318.06 L1122.12 1322.61 L1108.63 1322.61 L1108.63 1264.49 Z" fill="#000000" fill-rule="nonzero" fill-opacity="1" /><path clip-path="url(#clip940)" d="M1157.32 1279.42 L1157.32 1284.96 Q1154.84 1283.68 1152.17 1283.05 Q1149.49 1282.41 1146.63 1282.41 Q1142.27 1282.41 1140.07 1283.75 Q1137.91 1285.08 1137.91 1287.76 Q1137.91 1289.79 1139.47 1290.97 Q1141.03 1292.12 1145.74 1293.17 L1147.74 1293.61 Q1153.98 1294.95 1156.59 1297.4 Q1159.23 1299.82 1159.23 1304.18 Q1159.23 1309.14 1155.29 1312.04 Q1151.37 1314.94 1144.5 1314.94 Q1141.63 1314.94 1138.51 1314.36 Q1135.43 1313.82 1131.99 1312.71 L1131.99 1306.66 Q1135.24 1308.35 1138.39 1309.21 Q1141.54 1310.04 1144.62 1310.04 Q1148.76 1310.04 1150.99 1308.64 Q1153.22 1307.2 1153.22 1304.63 Q1153.22 1302.24 1151.6 1300.97 Q1150 1299.69 1144.56 1298.51 L1142.52 1298.04 Q1137.08 1296.89 1134.66 1294.54 Q1132.24 1292.15 1132.24 1288.01 Q1132.24 1282.98 1135.81 1280.24 Q1139.37 1277.51 1145.93 1277.51 Q1149.18 1277.51 1152.04 1277.98 Q1154.91 1278.46 1157.32 1279.42 Z" fill="#000000" fill-rule="nonzero" fill-opacity="1" /><path clip-path="url(#clip940)" d="M1182.25 1264.49 L1182.25 1322.61 L1168.75 1322.61 L1168.75 1318.06 L1176.36 1318.06 L1176.36 1269.04 L1168.75 1269.04 L1168.75 1264.49 L1182.25 1264.49 Z" fill="#000000" fill-rule="nonzero" fill-opacity="1" /><polyline clip-path="url(#clip940)" style="stroke:#000000; stroke-linecap:round; stroke-linejoin:round; stroke-width:4; stroke-opacity:1; fill:none" points="175.987,1173.47 175.987,47.2441 "/>
<polyline clip-path="url(#clip940)" style="stroke:#000000; stroke-linecap:round; stroke-linejoin:round; stroke-width:4; stroke-opacity:1; fill:none" points="175.987,1141.6 194.884,1141.6 "/>
<polyline clip-path="url(#clip940)" style="stroke:#000000; stroke-linecap:round; stroke-linejoin:round; stroke-width:4; stroke-opacity:1; fill:none" points="175.987,875.977 194.884,875.977 "/>
<polyline clip-path="url(#clip940)" style="stroke:#000000; stroke-linecap:round; stroke-linejoin:round; stroke-width:4; stroke-opacity:1; fill:none" points="175.987,610.357 194.884,610.357 "/>
<polyline clip-path="url(#clip940)" style="stroke:#000000; stroke-linecap:round; stroke-linejoin:round; stroke-width:4; stroke-opacity:1; fill:none" points="175.987,344.738 194.884,344.738 "/>
<polyline clip-path="url(#clip940)" style="stroke:#000000; stroke-linecap:round; stroke-linejoin:round; stroke-width:4; stroke-opacity:1; fill:none" points="175.987,79.1184 194.884,79.1184 "/>
<path clip-path="url(#clip940)" d="M52.4321 1142.05 L82.1079 1142.05 L82.1079 1145.98 L52.4321 1145.98 L52.4321 1142.05 Z" fill="#000000" fill-rule="nonzero" fill-opacity="1" /><path clip-path="url(#clip940)" d="M96.2282 1154.94 L112.548 1154.94 L112.548 1158.88 L90.6032 1158.88 L90.6032 1154.94 Q93.2652 1152.19 97.8485 1147.56 Q102.455 1142.9 103.636 1141.56 Q105.881 1139.04 106.761 1137.3 Q107.663 1135.54 107.663 1133.85 Q107.663 1131.1 105.719 1129.36 Q103.798 1127.63 100.696 1127.63 Q98.4967 1127.63 96.043 1128.39 Q93.6125 1129.15 90.8347 1130.71 L90.8347 1125.98 Q93.6588 1124.85 96.1124 1124.27 Q98.5661 1123.69 100.603 1123.69 Q105.974 1123.69 109.168 1126.38 Q112.362 1129.06 112.362 1133.55 Q112.362 1135.68 111.552 1137.6 Q110.765 1139.5 108.659 1142.09 Q108.08 1142.77 104.978 1145.98 Q101.876 1149.18 96.2282 1154.94 Z" fill="#000000" fill-rule="nonzero" fill-opacity="1" /><path clip-path="url(#clip940)" d="M132.362 1127.4 Q128.751 1127.4 126.922 1130.96 Q125.117 1134.5 125.117 1141.63 Q125.117 1148.74 126.922 1152.3 Q128.751 1155.84 132.362 1155.84 Q135.996 1155.84 137.802 1152.3 Q139.631 1148.74 139.631 1141.63 Q139.631 1134.5 137.802 1130.96 Q135.996 1127.4 132.362 1127.4 M132.362 1123.69 Q138.172 1123.69 141.228 1128.3 Q144.307 1132.88 144.307 1141.63 Q144.307 1150.36 141.228 1154.96 Q138.172 1159.55 132.362 1159.55 Q126.552 1159.55 123.473 1154.96 Q120.418 1150.36 120.418 1141.63 Q120.418 1132.88 123.473 1128.3 Q126.552 1123.69 132.362 1123.69 Z" fill="#000000" fill-rule="nonzero" fill-opacity="1" /><path clip-path="url(#clip940)" d="M52.4321 876.428 L82.1079 876.428 L82.1079 880.363 L52.4321 880.363 L52.4321 876.428 Z" fill="#000000" fill-rule="nonzero" fill-opacity="1" /><path clip-path="url(#clip940)" d="M93.0106 889.322 L100.649 889.322 L100.649 862.956 L92.3393 864.623 L92.3393 860.364 L100.603 858.697 L105.279 858.697 L105.279 889.322 L112.918 889.322 L112.918 893.257 L93.0106 893.257 L93.0106 889.322 Z" fill="#000000" fill-rule="nonzero" fill-opacity="1" /><path clip-path="url(#clip940)" d="M132.362 861.776 Q128.751 861.776 126.922 865.34 Q125.117 868.882 125.117 876.012 Q125.117 883.118 126.922 886.683 Q128.751 890.225 132.362 890.225 Q135.996 890.225 137.802 886.683 Q139.631 883.118 139.631 876.012 Q139.631 868.882 137.802 865.34 Q135.996 861.776 132.362 861.776 M132.362 858.072 Q138.172 858.072 141.228 862.678 Q144.307 867.262 144.307 876.012 Q144.307 884.738 141.228 889.345 Q138.172 893.928 132.362 893.928 Q126.552 893.928 123.473 889.345 Q120.418 884.738 120.418 876.012 Q120.418 867.262 123.473 862.678 Q126.552 858.072 132.362 858.072 Z" fill="#000000" fill-rule="nonzero" fill-opacity="1" /><path clip-path="url(#clip940)" d="M132.362 596.156 Q128.751 596.156 126.922 599.721 Q125.117 603.263 125.117 610.392 Q125.117 617.499 126.922 621.063 Q128.751 624.605 132.362 624.605 Q135.996 624.605 137.802 621.063 Q139.631 617.499 139.631 610.392 Q139.631 603.263 137.802 599.721 Q135.996 596.156 132.362 596.156 M132.362 592.452 Q138.172 592.452 141.228 597.059 Q144.307 601.642 144.307 610.392 Q144.307 619.119 141.228 623.725 Q138.172 628.309 132.362 628.309 Q126.552 628.309 123.473 623.725 Q120.418 619.119 120.418 610.392 Q120.418 601.642 123.473 597.059 Q126.552 592.452 132.362 592.452 Z" fill="#000000" fill-rule="nonzero" fill-opacity="1" /><path clip-path="url(#clip940)" d="M93.0106 358.083 L100.649 358.083 L100.649 331.717 L92.3393 333.384 L92.3393 329.125 L100.603 327.458 L105.279 327.458 L105.279 358.083 L112.918 358.083 L112.918 362.018 L93.0106 362.018 L93.0106 358.083 Z" fill="#000000" fill-rule="nonzero" fill-opacity="1" /><path clip-path="url(#clip940)" d="M132.362 330.537 Q128.751 330.537 126.922 334.101 Q125.117 337.643 125.117 344.773 Q125.117 351.879 126.922 355.444 Q128.751 358.986 132.362 358.986 Q135.996 358.986 137.802 355.444 Q139.631 351.879 139.631 344.773 Q139.631 337.643 137.802 334.101 Q135.996 330.537 132.362 330.537 M132.362 326.833 Q138.172 326.833 141.228 331.439 Q144.307 336.023 144.307 344.773 Q144.307 353.499 141.228 358.106 Q138.172 362.689 132.362 362.689 Q126.552 362.689 123.473 358.106 Q120.418 353.499 120.418 344.773 Q120.418 336.023 123.473 331.439 Q126.552 326.833 132.362 326.833 Z" fill="#000000" fill-rule="nonzero" fill-opacity="1" /><path clip-path="url(#clip940)" d="M96.2282 92.4633 L112.548 92.4633 L112.548 96.3984 L90.6032 96.3984 L90.6032 92.4633 Q93.2652 89.7087 97.8485 85.0791 Q102.455 80.4263 103.636 79.0837 Q105.881 76.5606 106.761 74.8245 Q107.663 73.0652 107.663 71.3754 Q107.663 68.6208 105.719 66.8847 Q103.798 65.1486 100.696 65.1486 Q98.4967 65.1486 96.043 65.9125 Q93.6125 66.6764 90.8347 68.2273 L90.8347 63.5051 Q93.6588 62.3708 96.1124 61.7921 Q98.5661 61.2134 100.603 61.2134 Q105.974 61.2134 109.168 63.8986 Q112.362 66.5838 112.362 71.0745 Q112.362 73.2041 111.552 75.1254 Q110.765 77.0235 108.659 79.6161 Q108.08 80.2874 104.978 83.505 Q101.876 86.6994 96.2282 92.4633 Z" fill="#000000" fill-rule="nonzero" fill-opacity="1" /><path clip-path="url(#clip940)" d="M132.362 64.9171 Q128.751 64.9171 126.922 68.4819 Q125.117 72.0236 125.117 79.1532 Q125.117 86.2596 126.922 89.8244 Q128.751 93.366 132.362 93.366 Q135.996 93.366 137.802 89.8244 Q139.631 86.2596 139.631 79.1532 Q139.631 72.0236 137.802 68.4819 Q135.996 64.9171 132.362 64.9171 M132.362 61.2134 Q138.172 61.2134 141.228 65.8199 Q144.307 70.4032 144.307 79.1532 Q144.307 87.88 141.228 92.4864 Q138.172 97.0697 132.362 97.0697 Q126.552 97.0697 123.473 92.4864 Q120.418 87.88 120.418 79.1532 Q120.418 70.4032 123.473 65.8199 Q126.552 61.2134 132.362 61.2134 Z" fill="#000000" fill-rule="nonzero" fill-opacity="1" /><polyline clip-path="url(#clip942)" style="stroke:#009af9; stroke-linecap:round; stroke-linejoin:round; stroke-width:4; stroke-opacity:1; fill:none" points="229.442,610.357 229.478,610.357 229.834,610.357 233.398,610.357 236.57,610.357 243.697,610.357 250.825,610.357 257.952,610.357 265.08,610.357 272.207,610.357 279.334,610.357 286.462,610.357 293.589,610.357 300.717,610.357 307.844,610.357 314.972,610.357 322.099,610.357 329.226,610.357 336.354,610.357 343.481,610.357 350.609,610.357 357.736,610.357 364.864,610.357 371.991,610.357 379.118,610.357 386.246,610.357 393.373,610.357 400.501,610.357 407.628,610.357 414.756,610.357 421.883,610.357 429.01,610.357 436.138,610.357 443.265,610.357 450.393,610.357 457.52,610.357 464.648,610.357 471.775,610.357 478.902,610.357 486.03,610.357 493.157,610.357 500.285,610.357 507.412,610.357 514.54,610.357 521.667,610.357 528.794,610.357 535.922,610.357 543.049,610.357 550.177,610.357 557.304,610.357 564.432,610.357 571.559,610.357 578.686,610.357 585.814,610.357 585.814,610.357 585.814,610.357 585.814,610.357 585.814,610.357 585.814,610.357 585.814,610.357 585.814,610.357 585.814,610.357 585.814,610.357 585.814,610.357 585.815,610.357 585.823,610.357 585.902,610.357 586.367,610.357 587.203,610.357 588.263,610.357 589.619,610.355 591.252,610.352 592.941,610.345 595.074,610.33 597.424,610.305 600.069,610.265 603.012,610.2 606.246,610.105 607.196,610.071 609.77,609.968 611.99,609.863 614.324,609.736 617.277,609.55 620.542,609.312 621.451,609.24 624.161,609.006 626.752,608.759 628.579,608.572 631.681,608.225 634.842,607.838 635.706,607.726 638.486,607.347 641.445,606.913 642.833,606.699 646.023,606.181 649.293,605.612 649.961,605.491 652.711,604.977 656.032,604.32 657.088,604.103 660.337,603.41 664.031,602.578 664.216,602.535 666.064,602.1 669.38,601.289 671.343,600.791 675.427,599.713 678.471,598.873 683.648,597.372 685.598,596.783 690.77,595.161 692.725,594.525 698.026,592.739 699.853,592.102 705.235,590.165 706.98,589.517 712.457,587.423 714.108,586.774 719.67,584.524 721.235,583.874 725.952,581.878 728.097,580.96 728.363,580.847 729.644,580.297 730.995,579.719 732.667,579.004 734.442,578.248 735.49,577.804 737.313,577.036 739.109,576.285 741.371,575.35 742.617,574.841 744.882,573.927 747.032,573.073 749.745,572.019 752.651,570.918 755.958,569.704 756.872,569.376 759.481,568.46 761.788,567.673 764,566.939 766.994,565.981 770.239,564.986 771.127,564.722 773.843,563.937 776.507,563.2 778.255,562.734 781.384,561.934 784.524,561.176 785.382,560.977 788.173,560.353 791.195,559.718 792.509,559.454 795.699,558.848 799.025,558.266 799.637,558.164 802.351,557.734 805.706,557.248 806.764,557.105 810.042,556.694 813.785,556.284 813.892,556.273 814.958,556.168 817.794,555.914 821.019,555.666 825.423,555.402 828.147,555.28 833.298,555.136 835.274,555.111 840.369,555.121 842.401,555.155 847.697,555.32 849.529,555.4 853.318,555.598 855.792,555.743 856.656,555.796 858.59,555.915 860.174,556.015 862.157,556.139 863.784,556.239 866.019,556.373 868.329,556.505 870.911,556.643 873.766,556.78 876.886,556.908 878.039,556.949 880.671,557.03 882.92,557.083 885.166,557.12 888.034,557.145 891.13,557.145 892.293,557.138 895.045,557.107 896.905,557.077 899.421,557.027 901.904,556.97 904.441,556.908 906.548,556.857 909.048,556.801 911.708,556.747 913.676,556.714 916.445,556.679 919.2,556.661 920.803,556.658 923.535,556.668 926.274,556.695 927.931,556.719 930.809,556.775 932.984,556.826 935.058,556.879 937.532,556.948 939.849,557.013 942.185,557.077 944.856,557.146 947.678,557.208 949.313,557.239 952.01,557.278 954.745,557.303 956.44,557.311 959.3,557.309 961.816,557.293 963.568,557.276 966.28,557.239 968.53,557.202 970.695,557.163 973.175,557.115 975.498,557.071 977.823,557.03 980.526,556.988 983.39,556.953 984.95,556.94 987.653,556.926 990.778,556.927 992.078,556.933 995.078,556.958 997.115,556.982 999.205,557.013 1001.74,557.057 1004.12,557.102 1006.33,557.145 1008.76,557.192 1011.2,557.237 1013.46,557.274 1016.22,557.312 1019.17,557.342 1020.59,557.351 1023.3,557.359 1026.15,557.355 1027.71,557.348 1030.71,557.323 1032.81,557.3 1034.84,557.274 1037.32,557.238 1039.65,557.202 1041.97,557.166 1044.47,557.13 1047.19,557.095 1049.1,557.075 1051.87,557.053 1054.78,557.04 1056.22,557.038 1059.01,557.043 1061.46,557.056 1063.35,557.071 1066.14,557.1 1068.48,557.13 1070.48,557.157 1072.98,557.193 1075.27,557.226 1077.61,557.258 1080.31,557.292 1083.17,557.32 1084.73,557.333 1087.45,557.347 1090.42,557.353 1091.86,557.352 1094.83,557.341 1097,557.328 1098.99,557.312 1101.59,557.286 1103.96,557.259 1106.12,557.233 1108.6,557.203 1110.96,557.176 1113.24,557.153 1115.98,557.129 1118.92,557.11 1120.37,557.104 1123.1,557.099 1126.3,557.103 1127.5,557.108 1130.54,557.125 1132.56,557.14 1134.63,557.159 1137.11,557.184 1139.48,557.209 1141.75,557.234 1144.23,557.26 1146.91,557.285 1148.88,557.301 1151.67,557.318 1154.59,557.33 1156.01,557.332 1158.78,557.332 1161.3,557.325 1163.14,557.317 1165.98,557.3 1168.3,557.282 1170.26,557.265 1172.78,557.242 1175.1,557.221 1177.39,557.2 1180.09,557.178 1182.91,557.159 1184.52,557.151 1187.24,557.141 1190.14,557.136 1191.65,557.137 1194.58,557.143 1196.89,557.152 1198.77,557.162 1201.44,557.18 1203.78,557.198 1205.9,557.215 1208.42,557.236 1210.77,557.254 1213.03,557.271 1215.76,557.288 1218.66,557.302 1220.16,557.307 1222.9,557.312 1227.28,557.309 1232.04,557.291 1234.41,557.278 1238.13,557.253 1240.98,557.233 1241.54,557.229 1243.33,557.217 1244.83,557.207 1246.95,557.194 1248.67,557.184 1251.1,557.174 1253.72,557.165 1255.79,557.162 1258.75,557.162 1261.9,557.167 1262.92,557.17 1265.61,557.181 1267.54,557.19 1270.05,557.204 1272.61,557.219 1275.23,557.236 1277.17,557.248 1279.87,557.263 1282.51,557.275 1284.3,557.283 1287.05,557.29 1290.02,557.294 1291.43,557.294 1294.32,557.291 1296.65,557.286 1298.56,557.28 1301.29,557.268 1303.67,557.257 1305.68,557.246 1308.24,557.232 1310.62,557.22 1312.81,557.209 1315.54,557.197 1318.4,557.187 1319.94,557.184 1322.7,557.18 1326.17,557.18 1327.07,557.181 1330.05,557.186 1332.16,557.193 1334.19,557.2 1336.79,557.211 1339.23,557.222 1341.32,557.232 1343.87,557.244 1346.43,557.255 1348.45,557.263 1351.22,557.271 1354.12,557.277 1355.58,557.279 1358.36,557.28 1361.19,557.278 1362.7,557.276 1365.67,557.268 1367.81,557.262 1369.83,557.254 1372.39,557.244 1374.82,557.234 1376.96,557.225 1379.63,557.215 1382.37,557.206 1384.09,557.201 1386.85,557.196 1389.73,557.193 1391.21,557.192 1394.1,557.194 1396.58,557.197 1398.34,557.201 1401.13,557.208 1403.47,557.216 1405.47,557.222 1408.06,557.232 1410.5,557.24 1412.6,557.248 1415.33,557.256 1418.15,557.262 1419.72,557.265 1422.49,557.268 1425.7,557.269 1426.85,557.269 1429.85,557.265 1432.03,557.261 1433.98,557.257 1436.63,557.25 1439.07,557.243 1441.11,557.236 1443.72,557.228 1446.26,557.22 1448.23,557.215 1451,557.209 1453.86,557.205 1455.36,557.203 1458.16,557.202 1461.26,557.203 1462.49,557.205 1465.5,557.209 1467.61,557.213 1469.62,557.218 1472.2,557.225 1474.68,557.231 1476.74,557.237 1479.42,557.244 1482.13,557.25 1483.87,557.254 1486.65,557.258 1489.53,557.26 1491,557.261 1493.87,557.26 1496.46,557.258 1498.13,557.256 1500.98,557.251 1503.29,557.247 1505.25,557.242 1507.88,557.236 1510.36,557.23 1512.38,557.225 1515.13,557.22 1517.92,557.215 1519.51,557.213 1522.29,557.211 1525.37,557.21 1526.63,557.21 1529.62,557.212 1531.89,557.214 1533.76,557.217 1536.48,557.222 1538.93,557.226 1540.89,557.23 1543.55,557.236 1546.09,557.241 1548.02,557.245 1550.79,557.249 1553.64,557.252 1555.14,557.253 1557.96,557.254 1561.49,557.254 1562.27,557.253 1565.22,557.25 1567.41,557.248 1569.4,557.245 1572.08,557.24 1574.6,557.236 1576.53,557.232 1579.21,557.227 1581.86,557.223 1583.65,557.221 1586.46,557.218 1589.37,557.216 1590.78,557.215 1593.65,557.216 1596.32,557.217 1597.91,557.218 1600.84,557.221 1603.14,557.224 1605.04,557.227 1607.7,557.231 1610.2,557.235 1612.16,557.238 1614.94,557.242 1617.72,557.245 1619.29,557.247 1622.09,557.249 1625.09,557.249 1626.42,557.249 1629.4,557.248 1631.78,557.247 1633.55,557.245 1636.34,557.242 1638.77,557.239 1640.67,557.236 1643.38,557.233 1645.93,557.229 1647.8,557.227 1650.59,557.224 1653.42,557.222 1654.93,557.221 1657.77,557.22 1662.06,557.22 1667.04,557.223 1669.18,557.225 1673.12,557.23 1676.09,557.233 1676.31,557.234 1677.87,557.236 1679.59,557.238 1681.81,557.24 1683.44,557.241 1686,557.243 1688.73,557.245 1690.57,557.245 1693.6,557.246 1696.81,557.245 1697.69,557.244 1700.44,557.242 1702.64,557.241 1704.82,557.239 1707.61,557.236 1710.35,557.233 1711.95,557.231 1714.71,557.228 1717.28,557.226 1719.08,557.225 1721.93,557.224 1725.07,557.223 1726.2,557.223 1729.11,557.223 1731.6,557.224 1733.33,557.225 1736.23,557.227 1738.71,557.23 1740.46,557.231 1743.19,557.234 1745.72,557.236 1747.59,557.238 1750.41,557.24 1753.27,557.241 1754.71,557.242 1757.56,557.243 1761.05,557.243 1761.84,557.242 1764.83,557.242 1767.25,557.24 1768.97,557.239 1771.77,557.237 1774.27,557.235 1776.09,557.234 1778.87,557.232 1781.54,557.23 1783.22,557.229 1786.07,557.227 1788.93,557.226 1790.35,557.226 1793.26,557.226 1796.31,557.226 1797.48,557.226 1800.51,557.227 1802.89,557.229 1804.6,557.23 1807.36,557.232 1809.89,557.233 1811.73,557.235 1814.56,557.237 1817.35,557.238 1818.86,557.239 1821.71,557.24 1824.62,557.24 1825.99,557.241 1828.98,557.24 1831.65,557.24 1833.11,557.239 1836.04,557.238 1838.39,557.237 1840.24,557.235 1843.03,557.234 1845.7,557.232 1847.37,557.231 1850.22,557.23 1852.98,557.229 1854.5,557.228 1857.39,557.228 1860.73,557.227 1861.62,557.228 1864.62,557.228 1867.17,557.229 1868.75,557.229 1871.63,557.231 1874.1,557.232 1875.88,557.233 1878.69,557.234 1881.38,557.236 1883.01,557.237 1885.88,557.238 1888.73,557.238 1890.13,557.239 1893.06,557.239 1896.41,557.239 1897.26,557.238 1900.28,557.238 1902.78,557.237 1904.39,557.236 1907.22,557.235 1909.75,557.234 1911.52,557.233 1914.37,557.232 1917.15,557.231 1918.64,557.23 1921.53,557.229 1924.44,557.229 1925.77,557.229 1928.77,557.229 1931.64,557.229 1932.9,557.23 1935.87,557.23 1938.34,557.231 1940.03,557.232 1942.87,557.233 1945.5,557.234 1947.15,557.235 1950.04,557.236 1952.84,557.237 1954.28,557.237 1957.19,557.237 1960.39,557.238 1961.41,557.238 1964.45,557.237 1967.17,557.237 1968.54,557.236 1971.44,557.236 1973.89,557.235 1975.66,557.234 1978.54,557.233 1981.29,557.232 1982.79,557.232 1985.68,557.231 1988.47,557.23 1989.92,557.23 1992.89,557.23 1996.89,557.23 1997.05,557.23 1998.58,557.23 2000.74,557.231 2003.31,557.231 2004.17,557.232 2006.62,557.232 2008.96,557.233 2011.3,557.234 2011.3,557.234 "/>
<polyline clip-path="url(#clip942)" style="stroke:#e26f46; stroke-linecap:round; stroke-linejoin:round; stroke-width:4; stroke-opacity:1; fill:none" points="229.442,610.357 229.478,610.357 229.834,610.357 233.398,610.357 236.57,610.357 243.697,610.357 250.825,610.357 257.952,610.357 265.08,610.357 272.207,610.357 279.334,610.357 286.462,610.357 293.589,610.357 300.717,610.357 307.844,610.357 314.972,610.357 322.099,610.357 329.226,610.357 336.354,610.357 343.481,610.357 350.609,610.357 357.736,610.357 364.864,610.357 371.991,610.357 379.118,610.357 386.246,610.357 393.373,610.357 400.501,610.357 407.628,610.357 414.756,610.357 421.883,610.357 429.01,610.357 436.138,610.357 443.265,610.357 450.393,610.357 457.52,610.357 464.648,610.357 471.775,610.357 478.902,610.357 486.03,610.357 493.157,610.357 500.285,610.357 507.412,610.357 514.54,610.357 521.667,610.357 528.794,610.357 535.922,610.357 543.049,610.357 550.177,610.357 557.304,610.357 564.432,610.357 571.559,610.357 578.686,610.357 585.814,610.357 585.814,610.357 585.814,610.357 585.814,610.357 585.814,610.357 585.814,610.357 585.814,610.357 585.814,610.357 585.814,610.357 585.814,610.357 585.814,610.357 585.815,610.357 585.823,610.357 585.902,610.357 586.367,610.345 587.203,610.279 588.263,610.118 589.619,609.795 591.252,609.243 592.941,608.502 595.074,607.346 597.424,605.82 600.069,603.828 603.012,601.322 606.246,598.276 607.196,597.331 609.77,594.673 611.99,592.281 614.324,589.679 617.277,586.281 620.542,582.412 621.451,581.319 624.161,578.02 626.752,574.821 628.579,572.547 631.681,568.653 634.842,564.658 635.706,563.562 638.486,560.03 641.445,556.264 642.833,554.497 646.023,550.438 649.293,546.284 649.961,545.437 652.711,541.955 656.032,537.767 657.088,536.44 660.337,532.371 664.031,527.772 664.216,527.543 666.064,525.255 669.38,521.173 671.343,518.77 675.427,513.804 678.471,510.135 683.648,503.955 685.598,501.649 690.77,495.585 692.725,493.314 698.026,487.215 699.853,485.134 705.235,479.06 706.98,477.108 712.457,471.046 714.108,469.237 719.67,463.201 721.235,461.519 725.952,458.194 728.097,457.686 728.363,457.661 729.644,457.65 730.995,457.824 732.667,458.28 734.442,459.031 735.49,459.592 737.313,460.757 739.109,462.119 741.371,464.104 742.617,465.312 744.882,467.692 747.032,470.15 749.745,473.485 752.651,477.304 755.958,481.905 756.872,483.217 759.481,487.043 761.788,490.517 764,493.909 766.994,498.586 770.239,503.74 771.127,505.163 773.843,509.541 776.507,513.863 778.255,516.712 781.384,521.827 784.524,526.973 785.382,528.379 788.173,532.953 791.195,537.899 792.509,540.048 795.699,545.249 799.025,550.652 799.637,551.642 802.351,556.027 805.706,561.417 806.764,563.112 810.042,568.335 813.785,574.256 813.892,574.424 814.958,576.102 817.794,580.543 821.019,585.559 825.423,592.345 828.147,596.505 833.298,604.295 835.274,607.256 840.369,614.82 842.401,617.808 847.697,624.905 849.529,627.086 853.318,630.52 855.792,631.853 856.656,632.171 858.59,632.612 860.174,632.706 862.157,632.52 863.784,632.14 866.019,631.319 868.329,630.151 870.911,628.509 873.766,626.344 876.886,623.622 878.039,622.537 880.671,619.918 882.92,617.543 885.166,615.066 888.034,611.934 891.13,608.746 892.293,607.594 895.045,605.223 896.905,603.961 899.421,602.634 901.904,601.85 904.441,601.661 906.548,601.915 909.048,602.634 911.708,603.831 913.676,604.965 916.445,606.863 919.2,609.047 920.803,610.434 923.535,612.785 926.274,614.994 927.931,616.267 930.809,618.135 932.984,619.179 935.058,619.919 937.532,620.381 939.849,620.346 942.185,619.914 944.856,618.976 947.678,617.525 949.313,616.498 952.01,614.617 954.745,612.56 956.44,611.221 959.3,609.058 961.816,607.355 963.568,606.266 966.28,604.9 968.53,604.128 970.695,603.655 973.175,603.492 975.498,603.737 977.823,604.316 980.526,605.353 983.39,606.818 984.95,607.754 987.653,609.469 990.778,611.49 992.078,612.34 995.078,614.126 997.115,615.149 999.205,616.058 1001.74,616.866 1004.12,617.268 1006.33,617.371 1008.76,617.167 1011.2,616.618 1013.46,615.843 1016.22,614.628 1019.17,613.079 1020.59,612.257 1023.3,610.67 1026.15,609.071 1027.71,608.218 1030.71,606.804 1032.81,606.031 1034.84,605.433 1037.32,604.973 1039.65,604.85 1041.97,604.987 1044.47,605.417 1047.19,606.201 1049.1,606.924 1051.87,608.138 1054.78,609.544 1056.22,610.286 1059.01,611.67 1061.46,612.774 1063.35,613.57 1066.14,614.525 1068.48,615.077 1070.48,615.393 1072.98,615.542 1075.27,615.417 1077.61,615.065 1080.31,614.409 1083.17,613.456 1084.73,612.837 1087.45,611.69 1090.42,610.39 1091.86,609.746 1094.83,608.523 1097,607.753 1098.99,607.133 1101.59,606.517 1103.96,606.191 1106.12,606.064 1108.6,606.136 1110.96,606.43 1113.24,606.896 1115.98,607.642 1118.92,608.624 1120.37,609.168 1123.1,610.213 1126.3,611.403 1127.5,611.843 1130.54,612.82 1132.56,613.336 1134.63,613.77 1137.11,614.114 1139.48,614.233 1141.75,614.179 1144.23,613.935 1146.91,613.457 1148.88,612.983 1151.67,612.19 1154.59,611.256 1156.01,610.77 1158.78,609.841 1161.3,609.061 1163.14,608.527 1165.98,607.838 1168.3,607.436 1170.26,607.194 1172.78,607.047 1175.1,607.09 1177.39,607.279 1180.09,607.671 1182.91,608.26 1184.52,608.664 1187.24,609.41 1190.14,610.246 1191.65,610.694 1194.58,611.51 1196.89,612.07 1198.77,612.478 1201.44,612.926 1203.78,613.168 1205.9,613.28 1208.42,613.265 1210.77,613.097 1213.03,612.817 1215.76,612.349 1218.66,611.721 1220.16,611.355 1222.9,610.66 1227.28,609.563 1232.04,608.576 1234.41,608.211 1238.13,607.875 1240.98,607.831 1241.54,607.842 1243.33,607.922 1244.83,608.044 1246.95,608.294 1248.67,608.555 1251.1,608.991 1253.72,609.525 1255.79,609.989 1258.75,610.648 1261.9,611.3 1262.92,611.5 1265.61,611.957 1267.54,612.208 1270.05,612.45 1272.61,612.577 1275.23,612.563 1277.17,612.471 1279.87,612.236 1282.51,611.893 1284.3,611.605 1287.05,611.116 1290.02,610.548 1291.43,610.267 1294.32,609.722 1296.65,609.333 1298.56,609.044 1301.29,608.717 1303.67,608.534 1305.68,608.444 1308.24,608.429 1310.62,608.52 1312.81,608.682 1315.54,608.973 1318.4,609.368 1319.94,609.613 1322.7,610.072 1326.17,610.653 1327.07,610.805 1330.05,611.257 1332.16,611.524 1334.19,611.743 1336.79,611.943 1339.23,612.034 1341.32,612.047 1343.87,611.978 1346.43,611.813 1348.45,611.626 1351.22,611.306 1354.12,610.913 1355.58,610.697 1358.36,610.282 1361.19,609.883 1362.7,609.678 1365.67,609.332 1367.81,609.142 1369.83,609.002 1372.39,608.899 1374.82,608.886 1376.96,608.935 1379.63,609.071 1382.37,609.293 1384.09,609.469 1386.85,609.788 1389.73,610.151 1391.21,610.347 1394.1,610.713 1396.58,610.995 1398.34,611.18 1401.13,611.416 1403.47,611.549 1405.47,611.621 1408.06,611.648 1410.5,611.599 1412.6,611.507 1415.33,611.327 1418.15,611.079 1419.72,610.917 1422.49,610.614 1425.7,610.256 1426.85,610.125 1429.85,609.816 1432.03,609.625 1433.98,609.476 1436.63,609.327 1439.07,609.254 1441.11,609.234 1443.72,609.267 1446.26,609.364 1448.23,609.477 1451,609.68 1453.86,609.931 1455.36,610.077 1458.16,610.353 1461.26,610.647 1462.49,610.76 1465.5,611.002 1467.61,611.136 1469.62,611.237 1472.2,611.319 1474.68,611.338 1476.74,611.317 1479.42,611.238 1482.13,611.103 1483.87,610.99 1486.65,610.783 1489.53,610.545 1491,610.416 1493.87,610.171 1496.46,609.97 1498.13,609.85 1500.98,609.68 1503.29,609.584 1505.25,609.529 1507.88,609.5 1510.36,609.523 1512.38,609.574 1515.13,609.685 1517.92,609.84 1519.51,609.946 1522.29,610.145 1525.37,610.374 1526.63,610.47 1529.62,610.679 1531.89,610.817 1533.76,610.917 1536.48,611.027 1538.93,611.084 1540.89,611.104 1543.55,611.091 1546.09,611.035 1548.02,610.967 1550.79,610.839 1553.64,610.678 1555.14,610.582 1557.96,610.398 1561.49,610.173 1562.27,610.124 1565.22,609.96 1567.41,609.863 1569.4,609.79 1572.08,609.726 1574.6,609.706 1576.53,609.713 1579.21,609.758 1581.86,609.838 1583.65,609.911 1586.46,610.046 1589.37,610.203 1590.78,610.285 1593.65,610.449 1596.32,610.59 1597.91,610.669 1600.84,610.79 1603.14,610.859 1605.04,610.9 1607.7,610.927 1610.2,610.918 1612.16,610.89 1614.94,610.822 1617.72,610.724 1619.29,610.657 1622.09,610.527 1625.09,610.379 1626.42,610.312 1629.4,610.17 1631.78,610.071 1633.55,610.005 1636.34,609.924 1638.77,609.881 1640.67,609.863 1643.38,609.865 1645.93,609.898 1647.8,609.937 1650.59,610.018 1653.42,610.121 1654.93,610.184 1657.77,610.306 1662.06,610.489 1667.04,610.665 1669.18,610.722 1673.12,610.783 1676.09,610.789 1676.31,610.789 1677.87,610.778 1679.59,610.756 1681.81,610.712 1683.44,610.67 1686,610.593 1688.73,610.498 1690.57,610.427 1693.6,610.312 1696.81,610.199 1697.69,610.169 1700.44,610.088 1702.64,610.04 1704.82,610.004 1707.61,609.98 1710.35,609.984 1711.95,609.997 1714.71,610.037 1717.28,610.093 1719.08,610.142 1721.93,610.228 1725.07,610.33 1726.2,610.369 1729.11,610.462 1731.6,610.533 1733.33,610.578 1736.23,610.638 1738.71,610.67 1740.46,610.684 1743.19,610.687 1745.72,610.669 1747.59,610.646 1750.41,610.595 1753.27,610.528 1754.71,610.489 1757.56,610.408 1761.05,610.309 1761.84,610.286 1764.83,610.208 1767.25,610.156 1768.97,610.124 1771.77,610.087 1774.27,610.072 1776.09,610.07 1778.87,610.082 1781.54,610.112 1783.22,610.139 1786.07,610.194 1788.93,610.26 1790.35,610.296 1793.26,610.37 1796.31,610.443 1797.48,610.47 1800.51,610.531 1802.89,610.567 1804.6,610.587 1807.36,610.606 1809.89,610.608 1811.73,610.601 1814.56,610.577 1817.35,610.538 1818.86,610.512 1821.71,610.456 1824.62,610.394 1825.99,610.363 1828.98,610.298 1831.65,610.246 1833.11,610.22 1836.04,610.177 1838.39,610.155 1840.24,610.143 1843.03,610.138 1845.7,610.148 1847.37,610.16 1850.22,610.192 1852.98,610.233 1854.5,610.26 1857.39,610.313 1860.73,610.377 1861.62,610.394 1864.62,610.447 1867.17,610.485 1868.75,610.506 1871.63,610.534 1874.1,610.546 1875.88,610.549 1878.69,610.543 1881.38,610.525 1883.01,610.509 1885.88,610.474 1888.73,610.431 1890.13,610.408 1893.06,610.359 1896.41,610.305 1897.26,610.291 1900.28,610.249 1902.78,610.223 1904.39,610.209 1907.22,610.193 1909.75,610.19 1911.52,610.194 1914.37,610.208 1917.15,610.232 1918.64,610.248 1921.53,610.284 1924.44,610.325 1925.77,610.345 1928.77,610.389 1931.64,610.427 1932.9,610.442 1935.87,610.473 1938.34,610.49 1940.03,610.498 1942.87,610.504 1945.5,610.499 1947.15,610.492 1950.04,610.472 1952.84,610.446 1954.28,610.429 1957.19,610.394 1960.39,610.353 1961.41,610.34 1964.45,610.304 1967.17,610.276 1968.54,610.263 1971.44,610.243 1973.89,610.234 1975.66,610.23 1978.54,610.233 1981.29,610.243 1982.79,610.253 1985.68,610.275 1988.47,610.302 1989.92,610.318 1992.89,610.351 1996.89,610.394 1997.05,610.396 1998.58,610.411 2000.74,610.43 2003.31,610.448 2004.17,610.453 2006.62,610.464 2008.96,610.468 2011.3,610.467 2011.3,610.467 "/>
<polyline clip-path="url(#clip942)" style="stroke:#3da44d; stroke-linecap:round; stroke-linejoin:round; stroke-width:4; stroke-opacity:1; fill:none" points="229.442,610.357 229.478,610.357 229.834,610.357 233.398,610.357 236.57,610.357 243.697,610.357 250.825,610.357 257.952,610.357 265.08,610.357 272.207,610.357 279.334,610.357 286.462,610.357 293.589,610.357 300.717,610.357 307.844,610.357 314.972,610.357 322.099,610.357 329.226,610.357 336.354,610.357 343.481,610.357 350.609,610.357 357.736,610.357 364.864,610.357 371.991,610.357 379.118,610.357 386.246,610.357 393.373,610.357 400.501,610.357 407.628,610.357 414.756,610.357 421.883,610.357 429.01,610.357 436.138,610.357 443.265,610.357 450.393,610.357 457.52,610.357 464.648,610.357 471.775,610.357 478.902,610.357 486.03,610.357 493.157,610.357 500.285,610.357 507.412,610.357 514.54,610.357 521.667,610.357 528.794,610.357 535.922,610.357 543.049,610.357 550.177,610.357 557.304,610.357 564.432,610.357 571.559,610.357 578.686,610.357 585.814,610.357 585.814,79.1184 585.814,79.1184 585.814,79.1184 585.814,79.1184 585.814,79.1184 585.814,79.1184 585.814,79.1184 585.814,79.1184 585.814,79.1184 585.814,79.1184 585.815,79.1184 585.823,79.1184 585.902,79.1184 586.367,79.1184 587.203,79.1184 588.263,79.1184 589.619,79.1184 591.252,79.1184 592.941,79.1184 595.074,79.1184 597.424,79.1184 600.069,79.1184 603.012,79.1184 606.246,79.1184 607.196,79.1184 609.77,79.1184 611.99,79.1184 614.324,79.1184 617.277,79.1184 620.542,79.1184 621.451,79.1184 624.161,79.1184 626.752,79.1184 628.579,79.1184 631.681,79.1184 634.842,79.1184 635.706,79.1184 638.486,79.1184 641.445,79.1184 642.833,79.1184 646.023,79.1184 649.293,79.1184 649.961,79.1184 652.711,79.1184 656.032,79.1184 657.088,79.1184 660.337,79.1184 664.031,79.1184 664.216,79.1184 666.064,79.1184 669.38,79.1184 671.343,79.1184 675.427,79.1184 678.471,79.1184 683.648,79.1184 685.598,79.1184 690.77,79.1184 692.725,79.1184 698.026,79.1184 699.853,79.1184 705.235,79.1184 706.98,79.1184 712.457,79.1184 714.108,79.1184 719.67,79.1184 721.235,1141.6 725.952,1141.6 728.097,1141.6 728.363,1141.6 729.644,1141.6 730.995,1141.6 732.667,1141.6 734.442,1141.6 735.49,1141.6 737.313,1141.6 739.109,1141.6 741.371,1141.6 742.617,1141.6 744.882,1141.6 747.032,1141.6 749.745,1141.6 752.651,1141.6 755.958,1141.6 756.872,1141.6 759.481,1141.6 761.788,1141.6 764,1141.6 766.994,1141.6 770.239,1141.6 771.127,1141.6 773.843,1141.6 776.507,1141.6 778.255,1141.6 781.384,1141.6 784.524,1141.6 785.382,1141.6 788.173,1141.6 791.195,1141.6 792.509,1141.6 795.699,1141.6 799.025,1141.6 799.637,1141.6 802.351,1141.6 805.706,1141.6 806.764,1141.6 810.042,1141.6 813.785,1141.6 813.892,1141.6 814.958,1141.6 817.794,1141.6 821.019,1141.6 825.423,1141.6 828.147,1141.6 833.298,1141.6 835.274,1141.6 840.369,1141.6 842.401,834.048 847.697,834.048 849.529,157.507 853.318,157.507 855.792,157.507 856.656,79.1184 858.59,79.1184 860.174,79.1184 862.157,79.1184 863.784,79.1184 866.019,79.1184 868.329,79.1184 870.911,79.1184 873.766,79.1184 876.886,79.1184 878.039,79.1184 880.671,79.1184 882.92,79.1184 885.166,347.192 888.034,347.192 891.13,347.192 892.293,819.4 895.045,819.4 896.905,819.4 899.421,1141.6 901.904,1141.6 904.441,1141.6 906.548,1141.6 909.048,1141.6 911.708,1141.6 913.676,1130.48 916.445,1130.48 919.2,1130.48 920.803,799.445 923.535,799.445 926.274,799.445 927.931,405.471 930.809,405.471 932.984,405.471 935.058,117.786 937.532,117.786 939.849,117.786 942.185,79.1184 944.856,79.1184 947.678,79.1184 949.313,215.547 952.01,215.547 954.745,215.547 956.44,529.08 959.3,529.08 961.816,529.08 963.568,857.879 966.28,857.879 968.53,857.879 970.695,1063.13 973.175,1063.13 975.498,1063.13 977.823,1065.7 980.526,1065.7 983.39,1065.7 984.95,876.048 987.653,876.048 990.778,876.048 992.078,584.729 995.078,584.729 997.115,584.729 999.205,319.899 1001.74,319.899 1004.12,319.899 1006.33,191.354 1008.76,191.354 1011.2,191.354 1013.46,245.464 1016.22,245.464 1019.17,245.464 1020.59,449.271 1023.3,449.271 1026.15,449.271 1027.71,708.8 1030.71,708.8 1032.81,708.8 1034.84,911.966 1037.32,911.966 1039.65,911.966 1041.97,976.666 1044.47,976.666 1047.19,976.666 1049.1,883.568 1051.87,883.568 1054.78,883.568 1056.22,680.694 1059.01,680.694 1061.46,680.694 1063.35,459.458 1066.14,459.458 1068.48,459.458 1070.48,313.833 1072.98,313.833 1075.27,313.833 1077.61,300.737 1080.31,300.737 1083.17,300.737 1084.73,418.224 1087.45,418.224 1090.42,418.224 1091.86,609.616 1094.83,609.616 1097,609.616 1098.99,790.387 1101.59,790.387 1103.96,790.387 1106.12,885.236 1108.6,885.236 1110.96,885.236 1113.24,859.186 1115.98,859.186 1118.92,859.186 1120.37,730 1123.1,730 1126.3,730 1127.5,557.755 1130.54,557.755 1132.56,557.755 1134.63,417.222 1137.11,417.222 1139.48,417.222 1141.75,365.642 1144.23,365.642 1146.91,365.642 1148.88,419.671 1151.67,419.671 1154.59,419.671 1156.01,550.676 1158.78,550.676 1161.3,550.676 1163.14,699.308 1165.98,699.308 1168.3,699.308 1170.26,802.161 1172.78,802.161 1175.1,802.161 1177.39,818.626 1180.09,818.626 1182.91,818.626 1184.52,746.66 1187.24,746.66 1190.14,746.66 1191.65,621.472 1194.58,621.472 1196.89,621.472 1198.77,498.64 1201.44,498.64 1203.78,498.64 1205.9,429.619 1208.42,429.619 1210.77,429.619 1213.03,440.364 1215.76,440.364 1218.66,440.364 1220.16,521.872 1222.9,521.872 1227.28,635.927 1232.04,635.927 1234.41,732.799 1238.13,732.799 1240.98,732.799 1241.54,772.776 1243.33,772.776 1244.83,772.776 1246.95,772.776 1248.67,742.277 1251.1,742.277 1253.72,742.277 1255.79,658.083 1258.75,658.083 1261.9,658.083 1262.92,558.578 1265.61,558.578 1267.54,558.578 1270.05,486.416 1272.61,486.416 1275.23,486.416 1277.17,470.361 1279.87,470.361 1282.51,470.361 1284.3,513.995 1287.05,513.995 1290.02,513.995 1291.43,595.631 1294.32,595.631 1296.65,595.631 1298.56,678.845 1301.29,678.845 1303.67,678.845 1305.68,728.602 1308.24,728.602 1310.62,728.602 1312.81,725.892 1315.54,725.892 1318.4,725.892 1319.94,674.81 1322.7,674.81 1326.17,674.81 1327.07,599.535 1330.05,599.535 1332.16,599.535 1334.19,533.043 1336.79,533.043 1339.23,533.043 1341.32,502.762 1343.87,502.762 1346.43,502.762 1348.45,519.371 1351.22,519.371 1354.12,519.371 1355.58,573.252 1358.36,573.252 1361.19,573.252 1362.7,639.677 1365.67,639.677 1367.81,639.677 1369.83,690.043 1372.39,690.043 1374.82,690.043 1376.96,704.105 1379.63,704.105 1382.37,704.105 1384.09,678.003 1386.85,678.003 1389.73,678.003 1391.21,624.961 1394.1,624.961 1396.58,624.961 1398.34,568.774 1401.13,568.774 1403.47,568.774 1405.47,533.215 1408.06,533.215 1410.5,533.215 1412.6,532.055 1415.33,532.055 1418.15,532.055 1419.72,563.843 1422.49,563.843 1425.7,563.843 1426.85,613.373 1429.85,613.373 1432.03,613.373 1433.98,658.845 1436.63,658.845 1439.07,658.845 1441.11,681.391 1443.72,681.391 1446.26,681.391 1448.23,672.835 1451,672.835 1453.86,672.835 1455.36,638.522 1458.16,638.522 1461.26,638.522 1462.49,594.314 1465.5,594.314 1467.61,594.314 1469.62,559.335 1472.2,559.335 1474.68,559.335 1476.74,547.753 1479.42,547.753 1482.13,547.753 1483.87,563.115 1486.65,563.115 1489.53,563.115 1491,597.451 1493.87,597.451 1496.46,597.451 1498.13,635.272 1500.98,635.272 1503.29,635.272 1505.25,660.498 1507.88,660.498 1510.36,660.498 1512.38,663.246 1515.13,663.246 1517.92,663.246 1519.51,643.628 1522.29,643.628 1525.37,643.628 1526.63,611.142 1529.62,611.142 1531.89,611.142 1533.76,580.158 1536.48,580.158 1538.93,580.158 1540.89,563.602 1543.55,563.602 1546.09,563.602 1548.02,567.614 1550.79,567.614 1553.64,567.614 1555.14,589.35 1557.96,589.35 1561.49,589.35 1562.27,618.684 1565.22,618.684 1567.41,618.684 1569.4,642.868 1572.08,642.868 1574.6,642.868 1576.53,652.036 1579.21,652.036 1581.86,652.036 1583.65,643.184 1586.46,643.184 1589.37,643.184 1590.78,621.045 1593.65,621.045 1596.32,621.045 1597.91,595.665 1600.84,595.665 1603.14,595.665 1605.04,577.886 1607.7,577.886 1610.2,577.886 1612.16,574.745 1614.94,574.745 1617.72,574.745 1619.29,586.737 1622.09,586.737 1625.09,586.737 1626.42,607.972 1629.4,607.972 1631.78,607.972 1633.55,629.013 1636.34,629.013 1638.77,629.013 1640.67,641.034 1643.38,641.034 1645.93,641.034 1647.8,639.494 1650.59,639.494 1653.42,639.494 1654.93,625.805 1657.77,625.805 1662.06,606.4 1667.04,606.4 1669.18,589.75 1673.12,589.75 1676.09,589.75 1676.31,582.693 1677.87,582.693 1679.59,582.693 1681.81,582.693 1683.44,587.651 1686,587.651 1688.73,587.651 1690.57,601.866 1693.6,601.866 1696.81,601.866 1697.69,618.846 1700.44,618.846 1702.64,618.846 1704.82,631.304 1707.61,631.304 1710.35,631.304 1711.95,634.263 1714.71,634.263 1717.28,634.263 1719.08,627.017 1721.93,627.017 1725.07,627.017 1726.2,613.182 1729.11,613.182 1731.6,613.182 1733.33,598.941 1736.23,598.941 1738.71,598.941 1740.46,590.296 1743.19,590.296 1745.72,590.296 1747.59,590.564 1750.41,590.564 1753.27,590.564 1754.71,599.129 1757.56,599.129 1761.05,599.129 1761.84,611.927 1764.83,611.927 1767.25,611.927 1768.97,623.344 1771.77,623.344 1774.27,623.344 1776.09,628.665 1778.87,628.665 1781.54,628.665 1783.22,625.997 1786.07,625.997 1788.93,625.997 1790.35,616.911 1793.26,616.911 1796.31,616.911 1797.48,605.586 1800.51,605.586 1802.89,605.586 1804.6,596.902 1807.36,596.902 1809.89,596.902 1811.73,594.358 1814.56,594.358 1817.35,594.358 1818.86,598.677 1821.71,598.677 1824.62,598.677 1825.99,607.658 1828.98,607.658 1831.65,607.658 1833.11,617.266 1836.04,617.266 1838.39,617.266 1840.24,623.432 1843.03,623.432 1845.7,623.432 1847.37,623.759 1850.22,623.759 1852.98,623.759 1854.5,618.44 1857.39,618.44 1860.73,618.44 1861.62,610.026 1864.62,610.026 1867.17,610.026 1868.75,602.226 1871.63,602.226 1874.1,602.226 1875.88,598.28 1878.69,598.28 1881.38,598.28 1883.01,599.628 1885.88,599.628 1888.73,599.628 1890.13,605.406 1893.06,605.406 1896.41,605.406 1897.26,612.938 1900.28,612.938 1902.78,612.938 1904.39,618.962 1907.22,618.962 1909.75,618.962 1911.52,621.033 1914.37,621.033 1917.15,621.033 1918.64,618.503 1921.53,618.503 1924.44,618.503 1925.77,612.696 1928.77,612.696 1931.64,612.696 1932.9,606.233 1935.87,606.233 1938.34,606.233 1940.03,601.867 1942.87,601.867 1945.5,601.867 1947.15,601.312 1950.04,601.312 1952.84,601.312 1954.28,604.587 1957.19,604.587 1960.39,604.587 1961.41,610.101 1964.45,610.101 1967.17,610.101 1968.54,615.412 1971.44,615.412 1973.89,615.412 1975.66,618.301 1978.54,618.301 1981.29,618.301 1982.79,617.691 1985.68,617.691 1988.47,617.691 1989.92,614.036 1992.89,614.036 1996.89,614.036 1997.05,609.042 1998.58,609.042 2000.74,609.042 2003.31,609.042 2004.17,604.882 2006.62,604.882 2008.96,604.882 2011.3,603.256 2011.3,603.256 "/>
<polyline clip-path="url(#clip942)" style="stroke:#0000ff; stroke-linecap:round; stroke-linejoin:round; stroke-width:4; stroke-opacity:1; fill:none" stroke-dasharray="16, 10" points="585.814,1141.6 585.814,79.1184 "/>
<path clip-path="url(#clip940)" d="M1296.95 343.985 L2001.8 343.985 L2001.8 84.785 L1296.95 84.785  Z" fill="#ffffff" fill-rule="evenodd" fill-opacity="1"/>
<polyline clip-path="url(#clip940)" style="stroke:#000000; stroke-linecap:round; stroke-linejoin:round; stroke-width:4; stroke-opacity:1; fill:none" points="1296.95,343.985 2001.8,343.985 2001.8,84.785 1296.95,84.785 1296.95,343.985 "/>
<polyline clip-path="url(#clip940)" style="stroke:#009af9; stroke-linecap:round; stroke-linejoin:round; stroke-width:4; stroke-opacity:1; fill:none" points="1317.94,136.625 1443.85,136.625 "/>
<path clip-path="url(#clip940)" d="M1483.61 140.965 Q1483.61 136.266 1481.67 133.604 Q1479.75 130.919 1476.37 130.919 Q1472.99 130.919 1471.04 133.604 Q1469.12 136.266 1469.12 140.965 Q1469.12 145.664 1471.04 148.349 Q1472.99 151.011 1476.37 151.011 Q1479.75 151.011 1481.67 148.349 Q1483.61 145.664 1483.61 140.965 M1469.12 131.914 Q1470.47 129.6 1472.5 128.488 Q1474.56 127.354 1477.41 127.354 Q1482.13 127.354 1485.07 131.104 Q1488.04 134.854 1488.04 140.965 Q1488.04 147.076 1485.07 150.826 Q1482.13 154.576 1477.41 154.576 Q1474.56 154.576 1472.5 153.465 Q1470.47 152.331 1469.12 150.016 L1469.12 153.905 L1464.84 153.905 L1464.84 117.887 L1469.12 117.887 L1469.12 131.914 Z" fill="#000000" fill-rule="nonzero" fill-opacity="1" /><path clip-path="url(#clip940)" d="M1495.1 117.887 L1499.35 117.887 L1499.35 153.905 L1495.1 153.905 L1495.1 117.887 Z" fill="#000000" fill-rule="nonzero" fill-opacity="1" /><path clip-path="url(#clip940)" d="M1518.31 130.965 Q1514.89 130.965 1512.9 133.65 Q1510.91 136.312 1510.91 140.965 Q1510.91 145.618 1512.87 148.303 Q1514.86 150.965 1518.31 150.965 Q1521.72 150.965 1523.71 148.28 Q1525.7 145.595 1525.7 140.965 Q1525.7 136.359 1523.71 133.674 Q1521.72 130.965 1518.31 130.965 M1518.31 127.354 Q1523.87 127.354 1527.04 130.965 Q1530.21 134.576 1530.21 140.965 Q1530.21 147.331 1527.04 150.965 Q1523.87 154.576 1518.31 154.576 Q1512.73 154.576 1509.56 150.965 Q1506.41 147.331 1506.41 140.965 Q1506.41 134.576 1509.56 130.965 Q1512.73 127.354 1518.31 127.354 Z" fill="#000000" fill-rule="nonzero" fill-opacity="1" /><path clip-path="url(#clip940)" d="M1555.93 128.975 L1555.93 132.956 Q1554.12 131.961 1552.29 131.475 Q1550.49 130.965 1548.64 130.965 Q1544.49 130.965 1542.2 133.604 Q1539.91 136.22 1539.91 140.965 Q1539.91 145.711 1542.2 148.349 Q1544.49 150.965 1548.64 150.965 Q1550.49 150.965 1552.29 150.479 Q1554.12 149.97 1555.93 148.974 L1555.93 152.91 Q1554.15 153.743 1552.22 154.16 Q1550.33 154.576 1548.17 154.576 Q1542.32 154.576 1538.87 150.896 Q1535.42 147.215 1535.42 140.965 Q1535.42 134.623 1538.89 130.988 Q1542.39 127.354 1548.45 127.354 Q1550.42 127.354 1552.29 127.771 Q1554.17 128.164 1555.93 128.975 Z" fill="#000000" fill-rule="nonzero" fill-opacity="1" /><path clip-path="url(#clip940)" d="M1563.17 117.887 L1567.46 117.887 L1567.46 139.16 L1580.16 127.979 L1585.6 127.979 L1571.85 140.109 L1586.18 153.905 L1580.63 153.905 L1567.46 141.243 L1567.46 153.905 L1563.17 153.905 L1563.17 117.887 Z" fill="#000000" fill-rule="nonzero" fill-opacity="1" /><path clip-path="url(#clip940)" d="M1605 122.516 Q1599.91 122.516 1596.9 126.313 Q1593.91 130.109 1593.91 136.66 Q1593.91 143.187 1596.9 146.984 Q1599.91 150.78 1605 150.78 Q1610.09 150.78 1613.06 146.984 Q1616.04 143.187 1616.04 136.66 Q1616.04 130.109 1613.06 126.313 Q1610.09 122.516 1605 122.516 M1605 118.72 Q1612.27 118.72 1616.62 123.604 Q1620.97 128.465 1620.97 136.66 Q1620.97 144.831 1616.62 149.715 Q1612.27 154.576 1605 154.576 Q1597.71 154.576 1593.34 149.715 Q1588.98 144.854 1588.98 136.66 Q1588.98 128.465 1593.34 123.604 Q1597.71 118.72 1605 118.72 Z" fill="#000000" fill-rule="nonzero" fill-opacity="1" /><path clip-path="url(#clip940)" d="M1649.65 138.257 L1649.65 153.905 L1645.4 153.905 L1645.4 138.396 Q1645.4 134.715 1643.96 132.887 Q1642.53 131.058 1639.66 131.058 Q1636.21 131.058 1634.22 133.257 Q1632.22 135.456 1632.22 139.252 L1632.22 153.905 L1627.94 153.905 L1627.94 127.979 L1632.22 127.979 L1632.22 132.007 Q1633.75 129.669 1635.81 128.512 Q1637.9 127.354 1640.6 127.354 Q1645.07 127.354 1647.36 130.132 Q1649.65 132.887 1649.65 138.257 Z" fill="#000000" fill-rule="nonzero" fill-opacity="1" /><path clip-path="url(#clip940)" d="M1679.05 120.479 L1679.05 125.039 Q1676.39 123.766 1674.03 123.141 Q1671.67 122.516 1669.47 122.516 Q1665.65 122.516 1663.57 123.998 Q1661.51 125.479 1661.51 128.211 Q1661.51 130.502 1662.87 131.683 Q1664.26 132.84 1668.1 133.558 L1670.93 134.137 Q1676.16 135.132 1678.64 137.655 Q1681.14 140.155 1681.14 144.368 Q1681.14 149.391 1677.76 151.984 Q1674.4 154.576 1667.9 154.576 Q1665.44 154.576 1662.66 154.021 Q1659.91 153.465 1656.95 152.377 L1656.95 147.562 Q1659.79 149.16 1662.53 149.97 Q1665.26 150.78 1667.9 150.78 Q1671.9 150.78 1674.08 149.206 Q1676.25 147.632 1676.25 144.715 Q1676.25 142.169 1674.68 140.734 Q1673.13 139.299 1669.56 138.581 L1666.72 138.025 Q1661.48 136.984 1659.15 134.762 Q1656.81 132.539 1656.81 128.581 Q1656.81 123.998 1660.03 121.359 Q1663.27 118.72 1668.94 118.72 Q1671.37 118.72 1673.89 119.16 Q1676.41 119.6 1679.05 120.479 Z" fill="#000000" fill-rule="nonzero" fill-opacity="1" /><path clip-path="url(#clip940)" d="M1688.24 117.887 L1692.5 117.887 L1692.5 153.905 L1688.24 153.905 L1688.24 117.887 Z" fill="#000000" fill-rule="nonzero" fill-opacity="1" /><path clip-path="url(#clip940)" d="M1711.46 130.965 Q1708.03 130.965 1706.04 133.65 Q1704.05 136.312 1704.05 140.965 Q1704.05 145.618 1706.02 148.303 Q1708.01 150.965 1711.46 150.965 Q1714.86 150.965 1716.85 148.28 Q1718.84 145.595 1718.84 140.965 Q1718.84 136.359 1716.85 133.674 Q1714.86 130.965 1711.46 130.965 M1711.46 127.354 Q1717.02 127.354 1720.19 130.965 Q1723.36 134.576 1723.36 140.965 Q1723.36 147.331 1720.19 150.965 Q1717.02 154.576 1711.46 154.576 Q1705.88 154.576 1702.71 150.965 Q1699.56 147.331 1699.56 140.965 Q1699.56 134.576 1702.71 130.965 Q1705.88 127.354 1711.46 127.354 Z" fill="#000000" fill-rule="nonzero" fill-opacity="1" /><path clip-path="url(#clip940)" d="M1734.54 150.016 L1734.54 163.766 L1730.26 163.766 L1730.26 127.979 L1734.54 127.979 L1734.54 131.914 Q1735.88 129.6 1737.92 128.488 Q1739.98 127.354 1742.83 127.354 Q1747.55 127.354 1750.49 131.104 Q1753.45 134.854 1753.45 140.965 Q1753.45 147.076 1750.49 150.826 Q1747.55 154.576 1742.83 154.576 Q1739.98 154.576 1737.92 153.465 Q1735.88 152.331 1734.54 150.016 M1749.03 140.965 Q1749.03 136.266 1747.09 133.604 Q1745.16 130.919 1741.78 130.919 Q1738.4 130.919 1736.46 133.604 Q1734.54 136.266 1734.54 140.965 Q1734.54 145.664 1736.46 148.349 Q1738.4 151.011 1741.78 151.011 Q1745.16 151.011 1747.09 148.349 Q1749.03 145.664 1749.03 140.965 Z" fill="#000000" fill-rule="nonzero" fill-opacity="1" /><path clip-path="url(#clip940)" d="M1782.69 139.877 L1782.69 141.961 L1763.1 141.961 Q1763.38 146.359 1765.74 148.674 Q1768.13 150.965 1772.36 150.965 Q1774.82 150.965 1777.11 150.363 Q1779.42 149.761 1781.69 148.558 L1781.69 152.586 Q1779.4 153.558 1776.99 154.067 Q1774.58 154.576 1772.11 154.576 Q1765.9 154.576 1762.27 150.965 Q1758.66 147.354 1758.66 141.197 Q1758.66 134.831 1762.08 131.104 Q1765.53 127.354 1771.37 127.354 Q1776.6 127.354 1779.63 130.734 Q1782.69 134.09 1782.69 139.877 M1778.43 138.627 Q1778.38 135.132 1776.46 133.049 Q1774.56 130.965 1771.41 130.965 Q1767.85 130.965 1765.7 132.979 Q1763.57 134.993 1763.24 138.65 L1778.43 138.627 Z" fill="#000000" fill-rule="nonzero" fill-opacity="1" /><path clip-path="url(#clip940)" d="M1790.28 148.025 L1795.16 148.025 L1795.16 153.905 L1790.28 153.905 L1790.28 148.025 Z" fill="#000000" fill-rule="nonzero" fill-opacity="1" /><path clip-path="url(#clip940)" d="M1826.3 127.979 L1816.92 140.595 L1826.78 153.905 L1821.76 153.905 L1814.21 143.72 L1806.67 153.905 L1801.64 153.905 L1811.71 140.34 L1802.5 127.979 L1807.52 127.979 L1814.4 137.215 L1821.27 127.979 L1826.3 127.979 Z" fill="#000000" fill-rule="nonzero" fill-opacity="1" /><path clip-path="url(#clip940)" d="M1858.1 117.933 Q1855 123.257 1853.5 128.465 Q1851.99 133.674 1851.99 139.021 Q1851.99 144.368 1853.5 149.623 Q1855.02 154.854 1858.1 160.155 L1854.4 160.155 Q1850.93 154.715 1849.19 149.461 Q1847.48 144.206 1847.48 139.021 Q1847.48 133.859 1849.19 128.627 Q1850.9 123.396 1854.4 117.933 L1858.1 117.933 Z" fill="#000000" fill-rule="nonzero" fill-opacity="1" /><path clip-path="url(#clip940)" d="M1867.78 149.97 L1875.42 149.97 L1875.42 123.604 L1867.11 125.271 L1867.11 121.012 L1875.37 119.345 L1880.05 119.345 L1880.05 149.97 L1887.69 149.97 L1887.69 153.905 L1867.78 153.905 L1867.78 149.97 Z" fill="#000000" fill-rule="nonzero" fill-opacity="1" /><path clip-path="url(#clip940)" d="M1895.86 117.933 L1899.56 117.933 Q1903.03 123.396 1904.75 128.627 Q1906.48 133.859 1906.48 139.021 Q1906.48 144.206 1904.75 149.461 Q1903.03 154.715 1899.56 160.155 L1895.86 160.155 Q1898.94 154.854 1900.44 149.623 Q1901.97 144.368 1901.97 139.021 Q1901.97 133.674 1900.44 128.465 Q1898.94 123.257 1895.86 117.933 Z" fill="#000000" fill-rule="nonzero" fill-opacity="1" /><polyline clip-path="url(#clip940)" style="stroke:#e26f46; stroke-linecap:round; stroke-linejoin:round; stroke-width:4; stroke-opacity:1; fill:none" points="1317.94,188.465 1443.85,188.465 "/>
<path clip-path="url(#clip940)" d="M1483.61 192.805 Q1483.61 188.106 1481.67 185.444 Q1479.75 182.759 1476.37 182.759 Q1472.99 182.759 1471.04 185.444 Q1469.12 188.106 1469.12 192.805 Q1469.12 197.504 1471.04 200.189 Q1472.99 202.851 1476.37 202.851 Q1479.75 202.851 1481.67 200.189 Q1483.61 197.504 1483.61 192.805 M1469.12 183.754 Q1470.47 181.44 1472.5 180.328 Q1474.56 179.194 1477.41 179.194 Q1482.13 179.194 1485.07 182.944 Q1488.04 186.694 1488.04 192.805 Q1488.04 198.916 1485.07 202.666 Q1482.13 206.416 1477.41 206.416 Q1474.56 206.416 1472.5 205.305 Q1470.47 204.171 1469.12 201.856 L1469.12 205.745 L1464.84 205.745 L1464.84 169.727 L1469.12 169.727 L1469.12 183.754 Z" fill="#000000" fill-rule="nonzero" fill-opacity="1" /><path clip-path="url(#clip940)" d="M1495.1 169.727 L1499.35 169.727 L1499.35 205.745 L1495.1 205.745 L1495.1 169.727 Z" fill="#000000" fill-rule="nonzero" fill-opacity="1" /><path clip-path="url(#clip940)" d="M1518.31 182.805 Q1514.89 182.805 1512.9 185.49 Q1510.91 188.152 1510.91 192.805 Q1510.91 197.458 1512.87 200.143 Q1514.86 202.805 1518.31 202.805 Q1521.72 202.805 1523.71 200.12 Q1525.7 197.435 1525.7 192.805 Q1525.7 188.199 1523.71 185.514 Q1521.72 182.805 1518.31 182.805 M1518.31 179.194 Q1523.87 179.194 1527.04 182.805 Q1530.21 186.416 1530.21 192.805 Q1530.21 199.171 1527.04 202.805 Q1523.87 206.416 1518.31 206.416 Q1512.73 206.416 1509.56 202.805 Q1506.41 199.171 1506.41 192.805 Q1506.41 186.416 1509.56 182.805 Q1512.73 179.194 1518.31 179.194 Z" fill="#000000" fill-rule="nonzero" fill-opacity="1" /><path clip-path="url(#clip940)" d="M1555.93 180.815 L1555.93 184.796 Q1554.12 183.801 1552.29 183.315 Q1550.49 182.805 1548.64 182.805 Q1544.49 182.805 1542.2 185.444 Q1539.91 188.06 1539.91 192.805 Q1539.91 197.551 1542.2 200.189 Q1544.49 202.805 1548.64 202.805 Q1550.49 202.805 1552.29 202.319 Q1554.12 201.81 1555.93 200.814 L1555.93 204.75 Q1554.15 205.583 1552.22 206 Q1550.33 206.416 1548.17 206.416 Q1542.32 206.416 1538.87 202.736 Q1535.42 199.055 1535.42 192.805 Q1535.42 186.463 1538.89 182.828 Q1542.39 179.194 1548.45 179.194 Q1550.42 179.194 1552.29 179.611 Q1554.17 180.004 1555.93 180.815 Z" fill="#000000" fill-rule="nonzero" fill-opacity="1" /><path clip-path="url(#clip940)" d="M1563.17 169.727 L1567.46 169.727 L1567.46 191 L1580.16 179.819 L1585.6 179.819 L1571.85 191.949 L1586.18 205.745 L1580.63 205.745 L1567.46 193.083 L1567.46 205.745 L1563.17 205.745 L1563.17 169.727 Z" fill="#000000" fill-rule="nonzero" fill-opacity="1" /><path clip-path="url(#clip940)" d="M1605 174.356 Q1599.91 174.356 1596.9 178.153 Q1593.91 181.949 1593.91 188.5 Q1593.91 195.027 1596.9 198.824 Q1599.91 202.62 1605 202.62 Q1610.09 202.62 1613.06 198.824 Q1616.04 195.027 1616.04 188.5 Q1616.04 181.949 1613.06 178.153 Q1610.09 174.356 1605 174.356 M1605 170.56 Q1612.27 170.56 1616.62 175.444 Q1620.97 180.305 1620.97 188.5 Q1620.97 196.671 1616.62 201.555 Q1612.27 206.416 1605 206.416 Q1597.71 206.416 1593.34 201.555 Q1588.98 196.694 1588.98 188.5 Q1588.98 180.305 1593.34 175.444 Q1597.71 170.56 1605 170.56 Z" fill="#000000" fill-rule="nonzero" fill-opacity="1" /><path clip-path="url(#clip940)" d="M1649.65 190.097 L1649.65 205.745 L1645.4 205.745 L1645.4 190.236 Q1645.4 186.555 1643.96 184.727 Q1642.53 182.898 1639.66 182.898 Q1636.21 182.898 1634.22 185.097 Q1632.22 187.296 1632.22 191.092 L1632.22 205.745 L1627.94 205.745 L1627.94 179.819 L1632.22 179.819 L1632.22 183.847 Q1633.75 181.509 1635.81 180.352 Q1637.9 179.194 1640.6 179.194 Q1645.07 179.194 1647.36 181.972 Q1649.65 184.727 1649.65 190.097 Z" fill="#000000" fill-rule="nonzero" fill-opacity="1" /><path clip-path="url(#clip940)" d="M1679.05 172.319 L1679.05 176.879 Q1676.39 175.606 1674.03 174.981 Q1671.67 174.356 1669.47 174.356 Q1665.65 174.356 1663.57 175.838 Q1661.51 177.319 1661.51 180.051 Q1661.51 182.342 1662.87 183.523 Q1664.26 184.68 1668.1 185.398 L1670.93 185.977 Q1676.16 186.972 1678.64 189.495 Q1681.14 191.995 1681.14 196.208 Q1681.14 201.231 1677.76 203.824 Q1674.4 206.416 1667.9 206.416 Q1665.44 206.416 1662.66 205.861 Q1659.91 205.305 1656.95 204.217 L1656.95 199.402 Q1659.79 201 1662.53 201.81 Q1665.26 202.62 1667.9 202.62 Q1671.9 202.62 1674.08 201.046 Q1676.25 199.472 1676.25 196.555 Q1676.25 194.009 1674.68 192.574 Q1673.13 191.139 1669.56 190.421 L1666.72 189.865 Q1661.48 188.824 1659.15 186.602 Q1656.81 184.379 1656.81 180.421 Q1656.81 175.838 1660.03 173.199 Q1663.27 170.56 1668.94 170.56 Q1671.37 170.56 1673.89 171 Q1676.41 171.44 1679.05 172.319 Z" fill="#000000" fill-rule="nonzero" fill-opacity="1" /><path clip-path="url(#clip940)" d="M1688.24 169.727 L1692.5 169.727 L1692.5 205.745 L1688.24 205.745 L1688.24 169.727 Z" fill="#000000" fill-rule="nonzero" fill-opacity="1" /><path clip-path="url(#clip940)" d="M1711.46 182.805 Q1708.03 182.805 1706.04 185.49 Q1704.05 188.152 1704.05 192.805 Q1704.05 197.458 1706.02 200.143 Q1708.01 202.805 1711.46 202.805 Q1714.86 202.805 1716.85 200.12 Q1718.84 197.435 1718.84 192.805 Q1718.84 188.199 1716.85 185.514 Q1714.86 182.805 1711.46 182.805 M1711.46 179.194 Q1717.02 179.194 1720.19 182.805 Q1723.36 186.416 1723.36 192.805 Q1723.36 199.171 1720.19 202.805 Q1717.02 206.416 1711.46 206.416 Q1705.88 206.416 1702.71 202.805 Q1699.56 199.171 1699.56 192.805 Q1699.56 186.416 1702.71 182.805 Q1705.88 179.194 1711.46 179.194 Z" fill="#000000" fill-rule="nonzero" fill-opacity="1" /><path clip-path="url(#clip940)" d="M1734.54 201.856 L1734.54 215.606 L1730.26 215.606 L1730.26 179.819 L1734.54 179.819 L1734.54 183.754 Q1735.88 181.44 1737.92 180.328 Q1739.98 179.194 1742.83 179.194 Q1747.55 179.194 1750.49 182.944 Q1753.45 186.694 1753.45 192.805 Q1753.45 198.916 1750.49 202.666 Q1747.55 206.416 1742.83 206.416 Q1739.98 206.416 1737.92 205.305 Q1735.88 204.171 1734.54 201.856 M1749.03 192.805 Q1749.03 188.106 1747.09 185.444 Q1745.16 182.759 1741.78 182.759 Q1738.4 182.759 1736.46 185.444 Q1734.54 188.106 1734.54 192.805 Q1734.54 197.504 1736.46 200.189 Q1738.4 202.851 1741.78 202.851 Q1745.16 202.851 1747.09 200.189 Q1749.03 197.504 1749.03 192.805 Z" fill="#000000" fill-rule="nonzero" fill-opacity="1" /><path clip-path="url(#clip940)" d="M1782.69 191.717 L1782.69 193.801 L1763.1 193.801 Q1763.38 198.199 1765.74 200.514 Q1768.13 202.805 1772.36 202.805 Q1774.82 202.805 1777.11 202.203 Q1779.42 201.601 1781.69 200.398 L1781.69 204.426 Q1779.4 205.398 1776.99 205.907 Q1774.58 206.416 1772.11 206.416 Q1765.9 206.416 1762.27 202.805 Q1758.66 199.194 1758.66 193.037 Q1758.66 186.671 1762.08 182.944 Q1765.53 179.194 1771.37 179.194 Q1776.6 179.194 1779.63 182.574 Q1782.69 185.93 1782.69 191.717 M1778.43 190.467 Q1778.38 186.972 1776.46 184.889 Q1774.56 182.805 1771.41 182.805 Q1767.85 182.805 1765.7 184.819 Q1763.57 186.833 1763.24 190.49 L1778.43 190.467 Z" fill="#000000" fill-rule="nonzero" fill-opacity="1" /><path clip-path="url(#clip940)" d="M1790.28 199.865 L1795.16 199.865 L1795.16 205.745 L1790.28 205.745 L1790.28 199.865 Z" fill="#000000" fill-rule="nonzero" fill-opacity="1" /><path clip-path="url(#clip940)" d="M1826.3 179.819 L1816.92 192.435 L1826.78 205.745 L1821.76 205.745 L1814.21 195.56 L1806.67 205.745 L1801.64 205.745 L1811.71 192.18 L1802.5 179.819 L1807.52 179.819 L1814.4 189.055 L1821.27 179.819 L1826.3 179.819 Z" fill="#000000" fill-rule="nonzero" fill-opacity="1" /><path clip-path="url(#clip940)" d="M1849.86 183.754 L1849.86 169.727 L1854.12 169.727 L1854.12 205.745 L1849.86 205.745 L1849.86 201.856 Q1848.52 204.171 1846.46 205.305 Q1844.42 206.416 1841.55 206.416 Q1836.85 206.416 1833.89 202.666 Q1830.95 198.916 1830.95 192.805 Q1830.95 186.694 1833.89 182.944 Q1836.85 179.194 1841.55 179.194 Q1844.42 179.194 1846.46 180.328 Q1848.52 181.44 1849.86 183.754 M1835.35 192.805 Q1835.35 197.504 1837.27 200.189 Q1839.21 202.851 1842.59 202.851 Q1845.97 202.851 1847.92 200.189 Q1849.86 197.504 1849.86 192.805 Q1849.86 188.106 1847.92 185.444 Q1845.97 182.759 1842.59 182.759 Q1839.21 182.759 1837.27 185.444 Q1835.35 188.106 1835.35 192.805 Z" fill="#000000" fill-rule="nonzero" fill-opacity="1" /><path clip-path="url(#clip940)" d="M1888.2 169.773 Q1885.09 175.097 1883.59 180.305 Q1882.08 185.514 1882.08 190.861 Q1882.08 196.208 1883.59 201.463 Q1885.12 206.694 1888.2 211.995 L1884.49 211.995 Q1881.02 206.555 1879.28 201.301 Q1877.57 196.046 1877.57 190.861 Q1877.57 185.699 1879.28 180.467 Q1881 175.236 1884.49 169.773 L1888.2 169.773 Z" fill="#000000" fill-rule="nonzero" fill-opacity="1" /><path clip-path="url(#clip940)" d="M1901.09 201.81 L1917.41 201.81 L1917.41 205.745 L1895.46 205.745 L1895.46 201.81 Q1898.13 199.055 1902.71 194.426 Q1907.32 189.773 1908.5 188.43 Q1910.74 185.907 1911.62 184.171 Q1912.52 182.412 1912.52 180.722 Q1912.52 177.967 1910.58 176.231 Q1908.66 174.495 1905.56 174.495 Q1903.36 174.495 1900.9 175.259 Q1898.47 176.023 1895.7 177.574 L1895.7 172.852 Q1898.52 171.717 1900.97 171.139 Q1903.43 170.56 1905.46 170.56 Q1910.83 170.56 1914.03 173.245 Q1917.22 175.93 1917.22 180.421 Q1917.22 182.551 1916.41 184.472 Q1915.63 186.37 1913.52 188.963 Q1912.94 189.634 1909.84 192.852 Q1906.74 196.046 1901.09 201.81 Z" fill="#000000" fill-rule="nonzero" fill-opacity="1" /><path clip-path="url(#clip940)" d="M1925.95 169.773 L1929.65 169.773 Q1933.13 175.236 1934.84 180.467 Q1936.57 185.699 1936.57 190.861 Q1936.57 196.046 1934.84 201.301 Q1933.13 206.555 1929.65 211.995 L1925.95 211.995 Q1929.03 206.694 1930.53 201.463 Q1932.06 196.208 1932.06 190.861 Q1932.06 185.514 1930.53 180.305 Q1929.03 175.097 1925.95 169.773 Z" fill="#000000" fill-rule="nonzero" fill-opacity="1" /><polyline clip-path="url(#clip940)" style="stroke:#3da44d; stroke-linecap:round; stroke-linejoin:round; stroke-width:4; stroke-opacity:1; fill:none" points="1317.94,240.305 1443.85,240.305 "/>
<path clip-path="url(#clip940)" d="M1483.61 244.645 Q1483.61 239.946 1481.67 237.284 Q1479.75 234.599 1476.37 234.599 Q1472.99 234.599 1471.04 237.284 Q1469.12 239.946 1469.12 244.645 Q1469.12 249.344 1471.04 252.029 Q1472.99 254.691 1476.37 254.691 Q1479.75 254.691 1481.67 252.029 Q1483.61 249.344 1483.61 244.645 M1469.12 235.594 Q1470.47 233.28 1472.5 232.168 Q1474.56 231.034 1477.41 231.034 Q1482.13 231.034 1485.07 234.784 Q1488.04 238.534 1488.04 244.645 Q1488.04 250.756 1485.07 254.506 Q1482.13 258.256 1477.41 258.256 Q1474.56 258.256 1472.5 257.145 Q1470.47 256.011 1469.12 253.696 L1469.12 257.585 L1464.84 257.585 L1464.84 221.567 L1469.12 221.567 L1469.12 235.594 Z" fill="#000000" fill-rule="nonzero" fill-opacity="1" /><path clip-path="url(#clip940)" d="M1495.1 221.567 L1499.35 221.567 L1499.35 257.585 L1495.1 257.585 L1495.1 221.567 Z" fill="#000000" fill-rule="nonzero" fill-opacity="1" /><path clip-path="url(#clip940)" d="M1518.31 234.645 Q1514.89 234.645 1512.9 237.33 Q1510.91 239.992 1510.91 244.645 Q1510.91 249.298 1512.87 251.983 Q1514.86 254.645 1518.31 254.645 Q1521.72 254.645 1523.71 251.96 Q1525.7 249.275 1525.7 244.645 Q1525.7 240.039 1523.71 237.354 Q1521.72 234.645 1518.31 234.645 M1518.31 231.034 Q1523.87 231.034 1527.04 234.645 Q1530.21 238.256 1530.21 244.645 Q1530.21 251.011 1527.04 254.645 Q1523.87 258.256 1518.31 258.256 Q1512.73 258.256 1509.56 254.645 Q1506.41 251.011 1506.41 244.645 Q1506.41 238.256 1509.56 234.645 Q1512.73 231.034 1518.31 231.034 Z" fill="#000000" fill-rule="nonzero" fill-opacity="1" /><path clip-path="url(#clip940)" d="M1555.93 232.655 L1555.93 236.636 Q1554.12 235.641 1552.29 235.155 Q1550.49 234.645 1548.64 234.645 Q1544.49 234.645 1542.2 237.284 Q1539.91 239.9 1539.91 244.645 Q1539.91 249.391 1542.2 252.029 Q1544.49 254.645 1548.64 254.645 Q1550.49 254.645 1552.29 254.159 Q1554.12 253.65 1555.93 252.654 L1555.93 256.59 Q1554.15 257.423 1552.22 257.84 Q1550.33 258.256 1548.17 258.256 Q1542.32 258.256 1538.87 254.576 Q1535.42 250.895 1535.42 244.645 Q1535.42 238.303 1538.89 234.668 Q1542.39 231.034 1548.45 231.034 Q1550.42 231.034 1552.29 231.451 Q1554.17 231.844 1555.93 232.655 Z" fill="#000000" fill-rule="nonzero" fill-opacity="1" /><path clip-path="url(#clip940)" d="M1563.17 221.567 L1567.46 221.567 L1567.46 242.84 L1580.16 231.659 L1585.6 231.659 L1571.85 243.789 L1586.18 257.585 L1580.63 257.585 L1567.46 244.923 L1567.46 257.585 L1563.17 257.585 L1563.17 221.567 Z" fill="#000000" fill-rule="nonzero" fill-opacity="1" /><path clip-path="url(#clip940)" d="M1605 226.196 Q1599.91 226.196 1596.9 229.993 Q1593.91 233.789 1593.91 240.34 Q1593.91 246.867 1596.9 250.664 Q1599.91 254.46 1605 254.46 Q1610.09 254.46 1613.06 250.664 Q1616.04 246.867 1616.04 240.34 Q1616.04 233.789 1613.06 229.993 Q1610.09 226.196 1605 226.196 M1605 222.4 Q1612.27 222.4 1616.62 227.284 Q1620.97 232.145 1620.97 240.34 Q1620.97 248.511 1616.62 253.395 Q1612.27 258.256 1605 258.256 Q1597.71 258.256 1593.34 253.395 Q1588.98 248.534 1588.98 240.34 Q1588.98 232.145 1593.34 227.284 Q1597.71 222.4 1605 222.4 Z" fill="#000000" fill-rule="nonzero" fill-opacity="1" /><path clip-path="url(#clip940)" d="M1649.65 241.937 L1649.65 257.585 L1645.4 257.585 L1645.4 242.076 Q1645.4 238.395 1643.96 236.567 Q1642.53 234.738 1639.66 234.738 Q1636.21 234.738 1634.22 236.937 Q1632.22 239.136 1632.22 242.932 L1632.22 257.585 L1627.94 257.585 L1627.94 231.659 L1632.22 231.659 L1632.22 235.687 Q1633.75 233.349 1635.81 232.192 Q1637.9 231.034 1640.6 231.034 Q1645.07 231.034 1647.36 233.812 Q1649.65 236.567 1649.65 241.937 Z" fill="#000000" fill-rule="nonzero" fill-opacity="1" /><path clip-path="url(#clip940)" d="M1679.05 224.159 L1679.05 228.719 Q1676.39 227.446 1674.03 226.821 Q1671.67 226.196 1669.47 226.196 Q1665.65 226.196 1663.57 227.678 Q1661.51 229.159 1661.51 231.891 Q1661.51 234.182 1662.87 235.363 Q1664.26 236.52 1668.1 237.238 L1670.93 237.817 Q1676.16 238.812 1678.64 241.335 Q1681.14 243.835 1681.14 248.048 Q1681.14 253.071 1677.76 255.664 Q1674.4 258.256 1667.9 258.256 Q1665.44 258.256 1662.66 257.701 Q1659.91 257.145 1656.95 256.057 L1656.95 251.242 Q1659.79 252.84 1662.53 253.65 Q1665.26 254.46 1667.9 254.46 Q1671.9 254.46 1674.08 252.886 Q1676.25 251.312 1676.25 248.395 Q1676.25 245.849 1674.68 244.414 Q1673.13 242.979 1669.56 242.261 L1666.72 241.705 Q1661.48 240.664 1659.15 238.442 Q1656.81 236.219 1656.81 232.261 Q1656.81 227.678 1660.03 225.039 Q1663.27 222.4 1668.94 222.4 Q1671.37 222.4 1673.89 222.84 Q1676.41 223.28 1679.05 224.159 Z" fill="#000000" fill-rule="nonzero" fill-opacity="1" /><path clip-path="url(#clip940)" d="M1688.24 221.567 L1692.5 221.567 L1692.5 257.585 L1688.24 257.585 L1688.24 221.567 Z" fill="#000000" fill-rule="nonzero" fill-opacity="1" /><path clip-path="url(#clip940)" d="M1711.46 234.645 Q1708.03 234.645 1706.04 237.33 Q1704.05 239.992 1704.05 244.645 Q1704.05 249.298 1706.02 251.983 Q1708.01 254.645 1711.46 254.645 Q1714.86 254.645 1716.85 251.96 Q1718.84 249.275 1718.84 244.645 Q1718.84 240.039 1716.85 237.354 Q1714.86 234.645 1711.46 234.645 M1711.46 231.034 Q1717.02 231.034 1720.19 234.645 Q1723.36 238.256 1723.36 244.645 Q1723.36 251.011 1720.19 254.645 Q1717.02 258.256 1711.46 258.256 Q1705.88 258.256 1702.71 254.645 Q1699.56 251.011 1699.56 244.645 Q1699.56 238.256 1702.71 234.645 Q1705.88 231.034 1711.46 231.034 Z" fill="#000000" fill-rule="nonzero" fill-opacity="1" /><path clip-path="url(#clip940)" d="M1734.54 253.696 L1734.54 267.446 L1730.26 267.446 L1730.26 231.659 L1734.54 231.659 L1734.54 235.594 Q1735.88 233.28 1737.92 232.168 Q1739.98 231.034 1742.83 231.034 Q1747.55 231.034 1750.49 234.784 Q1753.45 238.534 1753.45 244.645 Q1753.45 250.756 1750.49 254.506 Q1747.55 258.256 1742.83 258.256 Q1739.98 258.256 1737.92 257.145 Q1735.88 256.011 1734.54 253.696 M1749.03 244.645 Q1749.03 239.946 1747.09 237.284 Q1745.16 234.599 1741.78 234.599 Q1738.4 234.599 1736.46 237.284 Q1734.54 239.946 1734.54 244.645 Q1734.54 249.344 1736.46 252.029 Q1738.4 254.691 1741.78 254.691 Q1745.16 254.691 1747.09 252.029 Q1749.03 249.344 1749.03 244.645 Z" fill="#000000" fill-rule="nonzero" fill-opacity="1" /><path clip-path="url(#clip940)" d="M1782.69 243.557 L1782.69 245.641 L1763.1 245.641 Q1763.38 250.039 1765.74 252.354 Q1768.13 254.645 1772.36 254.645 Q1774.82 254.645 1777.11 254.043 Q1779.42 253.441 1781.69 252.238 L1781.69 256.266 Q1779.4 257.238 1776.99 257.747 Q1774.58 258.256 1772.11 258.256 Q1765.9 258.256 1762.27 254.645 Q1758.66 251.034 1758.66 244.877 Q1758.66 238.511 1762.08 234.784 Q1765.53 231.034 1771.37 231.034 Q1776.6 231.034 1779.63 234.414 Q1782.69 237.77 1782.69 243.557 M1778.43 242.307 Q1778.38 238.812 1776.46 236.729 Q1774.56 234.645 1771.41 234.645 Q1767.85 234.645 1765.7 236.659 Q1763.57 238.673 1763.24 242.33 L1778.43 242.307 Z" fill="#000000" fill-rule="nonzero" fill-opacity="1" /><path clip-path="url(#clip940)" d="M1790.28 251.705 L1795.16 251.705 L1795.16 257.585 L1790.28 257.585 L1790.28 251.705 Z" fill="#000000" fill-rule="nonzero" fill-opacity="1" /><path clip-path="url(#clip940)" d="M1804.31 247.354 L1804.31 231.659 L1808.57 231.659 L1808.57 247.192 Q1808.57 250.872 1810 252.724 Q1811.44 254.553 1814.31 254.553 Q1817.76 254.553 1819.75 252.354 Q1821.76 250.154 1821.76 246.358 L1821.76 231.659 L1826.02 231.659 L1826.02 257.585 L1821.76 257.585 L1821.76 253.604 Q1820.21 255.965 1818.15 257.122 Q1816.11 258.256 1813.4 258.256 Q1808.94 258.256 1806.62 255.479 Q1804.31 252.701 1804.31 247.354 M1815.02 231.034 L1815.02 231.034 Z" fill="#000000" fill-rule="nonzero" fill-opacity="1" /><path clip-path="url(#clip940)" d="M1851.32 232.423 L1851.32 236.451 Q1849.52 235.525 1847.57 235.062 Q1845.63 234.599 1843.54 234.599 Q1840.37 234.599 1838.77 235.571 Q1837.2 236.543 1837.2 238.488 Q1837.2 239.969 1838.33 240.826 Q1839.47 241.659 1842.89 242.423 L1844.35 242.747 Q1848.89 243.719 1850.79 245.502 Q1852.71 247.261 1852.71 250.432 Q1852.71 254.043 1849.84 256.15 Q1846.99 258.256 1841.99 258.256 Q1839.91 258.256 1837.64 257.84 Q1835.39 257.446 1832.89 256.636 L1832.89 252.238 Q1835.26 253.465 1837.55 254.09 Q1839.84 254.691 1842.08 254.691 Q1845.09 254.691 1846.71 253.673 Q1848.33 252.631 1848.33 250.756 Q1848.33 249.02 1847.15 248.094 Q1846 247.168 1842.04 246.312 L1840.56 245.965 Q1836.6 245.131 1834.84 243.418 Q1833.08 241.682 1833.08 238.673 Q1833.08 235.016 1835.67 233.025 Q1838.27 231.034 1843.03 231.034 Q1845.39 231.034 1847.48 231.381 Q1849.56 231.729 1851.32 232.423 Z" fill="#000000" fill-rule="nonzero" fill-opacity="1" /><path clip-path="url(#clip940)" d="M1871.27 244.553 Q1866.11 244.553 1864.12 245.733 Q1862.13 246.914 1862.13 249.761 Q1862.13 252.029 1863.61 253.372 Q1865.12 254.691 1867.69 254.691 Q1871.23 254.691 1873.36 252.191 Q1875.51 249.668 1875.51 245.502 L1875.51 244.553 L1871.27 244.553 M1879.77 242.793 L1879.77 257.585 L1875.51 257.585 L1875.51 253.65 Q1874.05 256.011 1871.88 257.145 Q1869.7 258.256 1866.55 258.256 Q1862.57 258.256 1860.21 256.034 Q1857.87 253.789 1857.87 250.039 Q1857.87 245.664 1860.79 243.442 Q1863.73 241.219 1869.54 241.219 L1875.51 241.219 L1875.51 240.803 Q1875.51 237.863 1873.57 236.266 Q1871.64 234.645 1868.15 234.645 Q1865.93 234.645 1863.82 235.178 Q1861.71 235.71 1859.77 236.775 L1859.77 232.84 Q1862.11 231.937 1864.31 231.497 Q1866.51 231.034 1868.59 231.034 Q1874.21 231.034 1876.99 233.951 Q1879.77 236.868 1879.77 242.793 Z" fill="#000000" fill-rule="nonzero" fill-opacity="1" /><path clip-path="url(#clip940)" d="M1892.76 224.298 L1892.76 231.659 L1901.53 231.659 L1901.53 234.969 L1892.76 234.969 L1892.76 249.043 Q1892.76 252.215 1893.61 253.117 Q1894.49 254.02 1897.15 254.02 L1901.53 254.02 L1901.53 257.585 L1897.15 257.585 Q1892.22 257.585 1890.35 255.756 Q1888.47 253.904 1888.47 249.043 L1888.47 234.969 L1885.35 234.969 L1885.35 231.659 L1888.47 231.659 L1888.47 224.298 L1892.76 224.298 Z" fill="#000000" fill-rule="nonzero" fill-opacity="1" /><path clip-path="url(#clip940)" d="M1932.43 221.613 Q1929.33 226.937 1927.82 232.145 Q1926.32 237.354 1926.32 242.701 Q1926.32 248.048 1927.82 253.303 Q1929.35 258.534 1932.43 263.835 L1928.73 263.835 Q1925.26 258.395 1923.52 253.141 Q1921.81 247.886 1921.81 242.701 Q1921.81 237.539 1923.52 232.307 Q1925.23 227.076 1928.73 221.613 L1932.43 221.613 Z" fill="#000000" fill-rule="nonzero" fill-opacity="1" /><path clip-path="url(#clip940)" d="M1940.12 223.025 L1962.34 223.025 L1962.34 225.016 L1949.79 257.585 L1944.91 257.585 L1956.71 226.96 L1940.12 226.96 L1940.12 223.025 Z" fill="#000000" fill-rule="nonzero" fill-opacity="1" /><path clip-path="url(#clip940)" d="M1970.19 221.613 L1973.89 221.613 Q1977.36 227.076 1979.07 232.307 Q1980.81 237.539 1980.81 242.701 Q1980.81 247.886 1979.07 253.141 Q1977.36 258.395 1973.89 263.835 L1970.19 263.835 Q1973.26 258.534 1974.77 253.303 Q1976.3 248.048 1976.3 242.701 Q1976.3 237.354 1974.77 232.145 Q1973.26 226.937 1970.19 221.613 Z" fill="#000000" fill-rule="nonzero" fill-opacity="1" /><polyline clip-path="url(#clip940)" style="stroke:#0000ff; stroke-linecap:round; stroke-linejoin:round; stroke-width:4; stroke-opacity:1; fill:none" stroke-dasharray="16, 10" points="1317.94,292.145 1443.85,292.145 "/>
<path clip-path="url(#clip940)" d="M1487.09 275.999 L1487.09 280.559 Q1484.42 279.286 1482.06 278.661 Q1479.7 278.036 1477.5 278.036 Q1473.68 278.036 1471.6 279.518 Q1469.54 280.999 1469.54 283.731 Q1469.54 286.022 1470.91 287.203 Q1472.29 288.36 1476.14 289.078 L1478.96 289.657 Q1484.19 290.652 1486.67 293.175 Q1489.17 295.675 1489.17 299.888 Q1489.17 304.911 1485.79 307.504 Q1482.43 310.096 1475.93 310.096 Q1473.48 310.096 1470.7 309.541 Q1467.94 308.985 1464.98 307.897 L1464.98 303.082 Q1467.83 304.68 1470.56 305.49 Q1473.29 306.3 1475.93 306.3 Q1479.93 306.3 1482.11 304.726 Q1484.29 303.152 1484.29 300.235 Q1484.29 297.689 1482.71 296.254 Q1481.16 294.819 1477.6 294.101 L1474.75 293.545 Q1469.52 292.504 1467.18 290.282 Q1464.84 288.059 1464.84 284.101 Q1464.84 279.518 1468.06 276.879 Q1471.3 274.24 1476.97 274.24 Q1479.4 274.24 1481.92 274.68 Q1484.45 275.12 1487.09 275.999 Z" fill="#000000" fill-rule="nonzero" fill-opacity="1" /><path clip-path="url(#clip940)" d="M1500.49 276.138 L1500.49 283.499 L1509.26 283.499 L1509.26 286.809 L1500.49 286.809 L1500.49 300.883 Q1500.49 304.055 1501.35 304.957 Q1502.23 305.86 1504.89 305.86 L1509.26 305.86 L1509.26 309.425 L1504.89 309.425 Q1499.96 309.425 1498.08 307.596 Q1496.21 305.744 1496.21 300.883 L1496.21 286.809 L1493.08 286.809 L1493.08 283.499 L1496.21 283.499 L1496.21 276.138 L1500.49 276.138 Z" fill="#000000" fill-rule="nonzero" fill-opacity="1" /><path clip-path="url(#clip940)" d="M1526.65 296.393 Q1521.48 296.393 1519.49 297.573 Q1517.5 298.754 1517.5 301.601 Q1517.5 303.869 1518.98 305.212 Q1520.49 306.531 1523.06 306.531 Q1526.6 306.531 1528.73 304.031 Q1530.88 301.508 1530.88 297.342 L1530.88 296.393 L1526.65 296.393 M1535.14 294.633 L1535.14 309.425 L1530.88 309.425 L1530.88 305.49 Q1529.42 307.851 1527.25 308.985 Q1525.07 310.096 1521.92 310.096 Q1517.94 310.096 1515.58 307.874 Q1513.24 305.629 1513.24 301.879 Q1513.24 297.504 1516.16 295.282 Q1519.1 293.059 1524.91 293.059 L1530.88 293.059 L1530.88 292.643 Q1530.88 289.703 1528.94 288.106 Q1527.02 286.485 1523.52 286.485 Q1521.3 286.485 1519.19 287.018 Q1517.09 287.55 1515.14 288.615 L1515.14 284.68 Q1517.48 283.777 1519.68 283.337 Q1521.88 282.874 1523.96 282.874 Q1529.59 282.874 1532.36 285.791 Q1535.14 288.708 1535.14 294.633 Z" fill="#000000" fill-rule="nonzero" fill-opacity="1" /><path clip-path="url(#clip940)" d="M1548.13 276.138 L1548.13 283.499 L1556.9 283.499 L1556.9 286.809 L1548.13 286.809 L1548.13 300.883 Q1548.13 304.055 1548.98 304.957 Q1549.86 305.86 1552.53 305.86 L1556.9 305.86 L1556.9 309.425 L1552.53 309.425 Q1547.6 309.425 1545.72 307.596 Q1543.85 305.744 1543.85 300.883 L1543.85 286.809 L1540.72 286.809 L1540.72 283.499 L1543.85 283.499 L1543.85 276.138 L1548.13 276.138 Z" fill="#000000" fill-rule="nonzero" fill-opacity="1" /><path clip-path="url(#clip940)" d="M1584.68 295.397 L1584.68 297.481 L1565.1 297.481 Q1565.37 301.879 1567.73 304.194 Q1570.12 306.485 1574.35 306.485 Q1576.81 306.485 1579.1 305.883 Q1581.41 305.281 1583.68 304.078 L1583.68 308.106 Q1581.39 309.078 1578.98 309.587 Q1576.58 310.096 1574.1 310.096 Q1567.9 310.096 1564.26 306.485 Q1560.65 302.874 1560.65 296.717 Q1560.65 290.351 1564.08 286.624 Q1567.53 282.874 1573.36 282.874 Q1578.59 282.874 1581.62 286.254 Q1584.68 289.61 1584.68 295.397 M1580.42 294.147 Q1580.37 290.652 1578.45 288.569 Q1576.55 286.485 1573.41 286.485 Q1569.84 286.485 1567.69 288.499 Q1565.56 290.513 1565.23 294.17 L1580.42 294.147 Z" fill="#000000" fill-rule="nonzero" fill-opacity="1" /><path clip-path="url(#clip940)" d="M1628.91 295.397 L1628.91 297.481 L1609.33 297.481 Q1609.61 301.879 1611.97 304.194 Q1614.35 306.485 1618.59 306.485 Q1621.04 306.485 1623.34 305.883 Q1625.65 305.281 1627.92 304.078 L1627.92 308.106 Q1625.63 309.078 1623.22 309.587 Q1620.81 310.096 1618.34 310.096 Q1612.13 310.096 1608.5 306.485 Q1604.89 302.874 1604.89 296.717 Q1604.89 290.351 1608.31 286.624 Q1611.76 282.874 1617.59 282.874 Q1622.83 282.874 1625.86 286.254 Q1628.91 289.61 1628.91 295.397 M1624.66 294.147 Q1624.61 290.652 1622.69 288.569 Q1620.79 286.485 1617.64 286.485 Q1614.08 286.485 1611.92 288.499 Q1609.79 290.513 1609.47 294.17 L1624.66 294.147 Z" fill="#000000" fill-rule="nonzero" fill-opacity="1" /><path clip-path="url(#clip940)" d="M1632.85 283.499 L1637.36 283.499 L1645.47 305.258 L1653.57 283.499 L1658.08 283.499 L1648.36 309.425 L1642.57 309.425 L1632.85 283.499 Z" fill="#000000" fill-rule="nonzero" fill-opacity="1" /><path clip-path="url(#clip940)" d="M1686.14 295.397 L1686.14 297.481 L1666.55 297.481 Q1666.83 301.879 1669.19 304.194 Q1671.58 306.485 1675.81 306.485 Q1678.27 306.485 1680.56 305.883 Q1682.87 305.281 1685.14 304.078 L1685.14 308.106 Q1682.85 309.078 1680.44 309.587 Q1678.03 310.096 1675.56 310.096 Q1669.35 310.096 1665.72 306.485 Q1662.11 302.874 1662.11 296.717 Q1662.11 290.351 1665.53 286.624 Q1668.98 282.874 1674.82 282.874 Q1680.05 282.874 1683.08 286.254 Q1686.14 289.61 1686.14 295.397 M1681.88 294.147 Q1681.83 290.652 1679.91 288.569 Q1678.01 286.485 1674.86 286.485 Q1671.3 286.485 1669.15 288.499 Q1667.02 290.513 1666.69 294.17 L1681.88 294.147 Z" fill="#000000" fill-rule="nonzero" fill-opacity="1" /><path clip-path="url(#clip940)" d="M1714.68 293.777 L1714.68 309.425 L1710.42 309.425 L1710.42 293.916 Q1710.42 290.235 1708.98 288.407 Q1707.55 286.578 1704.68 286.578 Q1701.23 286.578 1699.24 288.777 Q1697.25 290.976 1697.25 294.772 L1697.25 309.425 L1692.96 309.425 L1692.96 283.499 L1697.25 283.499 L1697.25 287.527 Q1698.78 285.189 1700.84 284.032 Q1702.92 282.874 1705.63 282.874 Q1710.09 282.874 1712.39 285.652 Q1714.68 288.407 1714.68 293.777 Z" fill="#000000" fill-rule="nonzero" fill-opacity="1" /><path clip-path="url(#clip940)" d="M1727.39 276.138 L1727.39 283.499 L1736.16 283.499 L1736.16 286.809 L1727.39 286.809 L1727.39 300.883 Q1727.39 304.055 1728.24 304.957 Q1729.12 305.86 1731.78 305.86 L1736.16 305.86 L1736.16 309.425 L1731.78 309.425 Q1726.85 309.425 1724.98 307.596 Q1723.1 305.744 1723.1 300.883 L1723.1 286.809 L1719.98 286.809 L1719.98 283.499 L1723.1 283.499 L1723.1 276.138 L1727.39 276.138 Z" fill="#000000" fill-rule="nonzero" fill-opacity="1" /><path clip-path="url(#clip940)" d="M1751.99 273.453 Q1748.89 278.777 1747.39 283.985 Q1745.88 289.194 1745.88 294.541 Q1745.88 299.888 1747.39 305.143 Q1748.91 310.374 1751.99 315.675 L1748.29 315.675 Q1744.82 310.235 1743.08 304.981 Q1741.37 299.726 1741.37 294.541 Q1741.37 289.379 1743.08 284.147 Q1744.79 278.916 1748.29 273.453 L1751.99 273.453 Z" fill="#000000" fill-rule="nonzero" fill-opacity="1" /><path clip-path="url(#clip940)" d="M1776.78 284.263 L1776.78 288.291 Q1774.98 287.365 1773.03 286.902 Q1771.09 286.439 1769.01 286.439 Q1765.83 286.439 1764.24 287.411 Q1762.66 288.383 1762.66 290.328 Q1762.66 291.809 1763.8 292.666 Q1764.93 293.499 1768.36 294.263 L1769.82 294.587 Q1774.35 295.559 1776.25 297.342 Q1778.17 299.101 1778.17 302.272 Q1778.17 305.883 1775.3 307.99 Q1772.46 310.096 1767.46 310.096 Q1765.37 310.096 1763.1 309.68 Q1760.86 309.286 1758.36 308.476 L1758.36 304.078 Q1760.72 305.305 1763.01 305.93 Q1765.3 306.531 1767.55 306.531 Q1770.56 306.531 1772.18 305.513 Q1773.8 304.471 1773.8 302.596 Q1773.8 300.86 1772.62 299.934 Q1771.46 299.008 1767.5 298.152 L1766.02 297.805 Q1762.06 296.971 1760.3 295.258 Q1758.54 293.522 1758.54 290.513 Q1758.54 286.856 1761.14 284.865 Q1763.73 282.874 1768.5 282.874 Q1770.86 282.874 1772.94 283.221 Q1775.02 283.569 1776.78 284.263 Z" fill="#000000" fill-rule="nonzero" fill-opacity="1" /><path clip-path="url(#clip940)" d="M1784.28 273.453 L1787.99 273.453 Q1791.46 278.916 1793.17 284.147 Q1794.91 289.379 1794.91 294.541 Q1794.91 299.726 1793.17 304.981 Q1791.46 310.235 1787.99 315.675 L1784.28 315.675 Q1787.36 310.374 1788.87 305.143 Q1790.39 299.888 1790.39 294.541 Q1790.39 289.194 1788.87 283.985 Q1787.36 278.777 1784.28 273.453 Z" fill="#000000" fill-rule="nonzero" fill-opacity="1" /></svg>
