<?xml version="1.0" encoding="utf-8"?>
<svg xmlns="http://www.w3.org/2000/svg" xmlns:xlink="http://www.w3.org/1999/xlink" width="672" height="480" viewBox="0 0 2688 1920">
<defs>
  <clipPath id="clip650">
    <rect x="0" y="0" width="2688" height="1920"/>
  </clipPath>
</defs>
<path clip-path="url(#clip650)" d="M0 1920 L2688 1920 L2688 0 L0 0  Z" fill="#ffffff" fill-rule="evenodd" fill-opacity="1"/>
<defs>
  <clipPath id="clip651">
    <rect x="537" y="0" width="1883" height="1883"/>
  </clipPath>
</defs>
<path clip-path="url(#clip650)" d="M278.571 794.288 L2640.76 794.288 L2640.76 47.2441 L278.571 47.2441  Z" fill="#ffffff" fill-rule="evenodd" fill-opacity="1"/>
<defs>
  <clipPath id="clip652">
    <rect x="278" y="47" width="2363" height="748"/>
  </clipPath>
</defs>
<polyline clip-path="url(#clip652)" style="stroke:#000000; stroke-linecap:round; stroke-linejoin:round; stroke-width:2; stroke-opacity:0.1; fill:none" points="345.425,794.288 345.425,47.2441 "/>
<polyline clip-path="url(#clip652)" style="stroke:#000000; stroke-linecap:round; stroke-linejoin:round; stroke-width:2; stroke-opacity:0.1; fill:none" points="1205.12,794.288 1205.12,47.2441 "/>
<polyline clip-path="url(#clip652)" style="stroke:#000000; stroke-linecap:round; stroke-linejoin:round; stroke-width:2; stroke-opacity:0.1; fill:none" points="2064.81,794.288 2064.81,47.2441 "/>
<polyline clip-path="url(#clip652)" style="stroke:#000000; stroke-linecap:round; stroke-linejoin:round; stroke-width:2; stroke-opacity:0.1; fill:none" points="278.571,708.104 2640.76,708.104 "/>
<polyline clip-path="url(#clip652)" style="stroke:#000000; stroke-linecap:round; stroke-linejoin:round; stroke-width:2; stroke-opacity:0.1; fill:none" points="278.571,601.483 2640.76,601.483 "/>
<polyline clip-path="url(#clip652)" style="stroke:#000000; stroke-linecap:round; stroke-linejoin:round; stroke-width:2; stroke-opacity:0.1; fill:none" points="278.571,494.863 2640.76,494.863 "/>
<polyline clip-path="url(#clip652)" style="stroke:#000000; stroke-linecap:round; stroke-linejoin:round; stroke-width:2; stroke-opacity:0.1; fill:none" points="278.571,388.242 2640.76,388.242 "/>
<polyline clip-path="url(#clip652)" style="stroke:#000000; stroke-linecap:round; stroke-linejoin:round; stroke-width:2; stroke-opacity:0.1; fill:none" points="278.571,281.621 2640.76,281.621 "/>
<polyline clip-path="url(#clip652)" style="stroke:#000000; stroke-linecap:round; stroke-linejoin:round; stroke-width:2; stroke-opacity:0.1; fill:none" points="278.571,175 2640.76,175 "/>
<polyline clip-path="url(#clip652)" style="stroke:#000000; stroke-linecap:round; stroke-linejoin:round; stroke-width:2; stroke-opacity:0.1; fill:none" points="278.571,68.379 2640.76,68.379 "/>
<polyline clip-path="url(#clip650)" style="stroke:#000000; stroke-linecap:round; stroke-linejoin:round; stroke-width:4; stroke-opacity:1; fill:none" points="278.571,794.288 2640.76,794.288 "/>
<polyline clip-path="url(#clip650)" style="stroke:#000000; stroke-linecap:round; stroke-linejoin:round; stroke-width:4; stroke-opacity:1; fill:none" points="345.425,794.288 345.425,775.39 "/>
<polyline clip-path="url(#clip650)" style="stroke:#000000; stroke-linecap:round; stroke-linejoin:round; stroke-width:4; stroke-opacity:1; fill:none" points="1205.12,794.288 1205.12,775.39 "/>
<polyline clip-path="url(#clip650)" style="stroke:#000000; stroke-linecap:round; stroke-linejoin:round; stroke-width:4; stroke-opacity:1; fill:none" points="2064.81,794.288 2064.81,775.39 "/>
<path clip-path="url(#clip650)" d="M295.54 870.716 L303.179 870.716 L303.179 844.351 L294.869 846.017 L294.869 841.758 L303.133 840.092 L307.809 840.092 L307.809 870.716 L315.448 870.716 L315.448 874.652 L295.54 874.652 L295.54 870.716 Z" fill="#000000" fill-rule="nonzero" fill-opacity="1" /><path clip-path="url(#clip650)" d="M334.892 843.17 Q331.281 843.17 329.452 846.735 Q327.647 850.277 327.647 857.406 Q327.647 864.513 329.452 868.078 Q331.281 871.619 334.892 871.619 Q338.526 871.619 340.332 868.078 Q342.161 864.513 342.161 857.406 Q342.161 850.277 340.332 846.735 Q338.526 843.17 334.892 843.17 M334.892 839.467 Q340.702 839.467 343.758 844.073 Q346.836 848.656 346.836 857.406 Q346.836 866.133 343.758 870.74 Q340.702 875.323 334.892 875.323 Q329.082 875.323 326.003 870.74 Q322.948 866.133 322.948 857.406 Q322.948 848.656 326.003 844.073 Q329.082 839.467 334.892 839.467 Z" fill="#000000" fill-rule="nonzero" fill-opacity="1" /><path clip-path="url(#clip650)" d="M346.836 833.568 L370.948 833.568 L370.948 836.765 L346.836 836.765 L346.836 833.568 Z" fill="#000000" fill-rule="nonzero" fill-opacity="1" /><path clip-path="url(#clip650)" d="M379.806 844.044 L386.013 844.044 L386.013 822.622 L379.261 823.976 L379.261 820.515 L385.975 819.161 L389.775 819.161 L389.775 844.044 L395.981 844.044 L395.981 847.241 L379.806 847.241 L379.806 844.044 Z" fill="#000000" fill-rule="nonzero" fill-opacity="1" /><path clip-path="url(#clip650)" d="M1170.1 870.716 L1177.74 870.716 L1177.74 844.351 L1169.43 846.017 L1169.43 841.758 L1177.69 840.092 L1182.37 840.092 L1182.37 870.716 L1190.01 870.716 L1190.01 874.652 L1170.1 874.652 L1170.1 870.716 Z" fill="#000000" fill-rule="nonzero" fill-opacity="1" /><path clip-path="url(#clip650)" d="M1209.45 843.17 Q1205.84 843.17 1204.01 846.735 Q1202.21 850.277 1202.21 857.406 Q1202.21 864.513 1204.01 868.078 Q1205.84 871.619 1209.45 871.619 Q1213.09 871.619 1214.89 868.078 Q1216.72 864.513 1216.72 857.406 Q1216.72 850.277 1214.89 846.735 Q1213.09 843.17 1209.45 843.17 M1209.45 839.467 Q1215.26 839.467 1218.32 844.073 Q1221.4 848.656 1221.4 857.406 Q1221.4 866.133 1218.32 870.74 Q1215.26 875.323 1209.45 875.323 Q1203.64 875.323 1200.56 870.74 Q1197.51 866.133 1197.51 857.406 Q1197.51 848.656 1200.56 844.073 Q1203.64 839.467 1209.45 839.467 Z" fill="#000000" fill-rule="nonzero" fill-opacity="1" /><path clip-path="url(#clip650)" d="M1231.1 821.663 Q1228.17 821.663 1226.68 824.559 Q1225.22 827.437 1225.22 833.229 Q1225.22 839.003 1226.68 841.9 Q1228.17 844.777 1231.1 844.777 Q1234.05 844.777 1235.52 841.9 Q1237.01 839.003 1237.01 833.229 Q1237.01 827.437 1235.52 824.559 Q1234.05 821.663 1231.1 821.663 M1231.1 818.653 Q1235.82 818.653 1238.31 822.396 Q1240.81 826.12 1240.81 833.229 Q1240.81 840.32 1238.31 844.063 Q1235.82 847.787 1231.1 847.787 Q1226.38 847.787 1223.88 844.063 Q1221.4 840.32 1221.4 833.229 Q1221.4 826.12 1223.88 822.396 Q1226.38 818.653 1231.1 818.653 Z" fill="#000000" fill-rule="nonzero" fill-opacity="1" /><path clip-path="url(#clip650)" d="M2031.14 870.716 L2038.78 870.716 L2038.78 844.351 L2030.47 846.017 L2030.47 841.758 L2038.73 840.092 L2043.41 840.092 L2043.41 870.716 L2051.05 870.716 L2051.05 874.652 L2031.14 874.652 L2031.14 870.716 Z" fill="#000000" fill-rule="nonzero" fill-opacity="1" /><path clip-path="url(#clip650)" d="M2070.49 843.17 Q2066.88 843.17 2065.05 846.735 Q2063.25 850.277 2063.25 857.406 Q2063.25 864.513 2065.05 868.078 Q2066.88 871.619 2070.49 871.619 Q2074.12 871.619 2075.93 868.078 Q2077.76 864.513 2077.76 857.406 Q2077.76 850.277 2075.93 846.735 Q2074.12 843.17 2070.49 843.17 M2070.49 839.467 Q2076.3 839.467 2079.36 844.073 Q2082.43 848.656 2082.43 857.406 Q2082.43 866.133 2079.36 870.74 Q2076.3 875.323 2070.49 875.323 Q2064.68 875.323 2061.6 870.74 Q2058.55 866.133 2058.55 857.406 Q2058.55 848.656 2061.6 844.073 Q2064.68 839.467 2070.49 839.467 Z" fill="#000000" fill-rule="nonzero" fill-opacity="1" /><path clip-path="url(#clip650)" d="M2082.98 844.044 L2089.19 844.044 L2089.19 822.622 L2082.43 823.976 L2082.43 820.515 L2089.15 819.161 L2092.95 819.161 L2092.95 844.044 L2099.16 844.044 L2099.16 847.241 L2082.98 847.241 L2082.98 844.044 Z" fill="#000000" fill-rule="nonzero" fill-opacity="1" /><polyline clip-path="url(#clip650)" style="stroke:#000000; stroke-linecap:round; stroke-linejoin:round; stroke-width:4; stroke-opacity:1; fill:none" points="278.571,794.288 278.571,47.2441 "/>
<polyline clip-path="url(#clip650)" style="stroke:#000000; stroke-linecap:round; stroke-linejoin:round; stroke-width:4; stroke-opacity:1; fill:none" points="278.571,708.104 297.468,708.104 "/>
<polyline clip-path="url(#clip650)" style="stroke:#000000; stroke-linecap:round; stroke-linejoin:round; stroke-width:4; stroke-opacity:1; fill:none" points="278.571,601.483 297.468,601.483 "/>
<polyline clip-path="url(#clip650)" style="stroke:#000000; stroke-linecap:round; stroke-linejoin:round; stroke-width:4; stroke-opacity:1; fill:none" points="278.571,494.863 297.468,494.863 "/>
<polyline clip-path="url(#clip650)" style="stroke:#000000; stroke-linecap:round; stroke-linejoin:round; stroke-width:4; stroke-opacity:1; fill:none" points="278.571,388.242 297.468,388.242 "/>
<polyline clip-path="url(#clip650)" style="stroke:#000000; stroke-linecap:round; stroke-linejoin:round; stroke-width:4; stroke-opacity:1; fill:none" points="278.571,281.621 297.468,281.621 "/>
<polyline clip-path="url(#clip650)" style="stroke:#000000; stroke-linecap:round; stroke-linejoin:round; stroke-width:4; stroke-opacity:1; fill:none" points="278.571,175 297.468,175 "/>
<polyline clip-path="url(#clip650)" style="stroke:#000000; stroke-linecap:round; stroke-linejoin:round; stroke-width:4; stroke-opacity:1; fill:none" points="278.571,68.379 297.468,68.379 "/>
<path clip-path="url(#clip650)" d="M147.974 708.556 L177.649 708.556 L177.649 712.491 L147.974 712.491 L147.974 708.556 Z" fill="#000000" fill-rule="nonzero" fill-opacity="1" /><path clip-path="url(#clip650)" d="M188.552 721.449 L196.191 721.449 L196.191 695.084 L187.881 696.75 L187.881 692.491 L196.145 690.824 L200.82 690.824 L200.82 721.449 L208.459 721.449 L208.459 725.384 L188.552 725.384 L188.552 721.449 Z" fill="#000000" fill-rule="nonzero" fill-opacity="1" /><path clip-path="url(#clip650)" d="M221.931 721.449 L238.251 721.449 L238.251 725.384 L216.306 725.384 L216.306 721.449 Q218.969 718.695 223.552 714.065 Q228.158 709.412 229.339 708.07 Q231.584 705.546 232.464 703.81 Q233.367 702.051 233.367 700.361 Q233.367 697.607 231.422 695.871 Q229.501 694.135 226.399 694.135 Q224.2 694.135 221.746 694.898 Q219.316 695.662 216.538 697.213 L216.538 692.491 Q219.362 691.357 221.816 690.778 Q224.269 690.199 226.306 690.199 Q231.677 690.199 234.871 692.885 Q238.066 695.57 238.066 700.06 Q238.066 702.19 237.255 704.111 Q236.468 706.009 234.362 708.602 Q233.783 709.273 230.681 712.491 Q227.58 715.685 221.931 721.449 Z" fill="#000000" fill-rule="nonzero" fill-opacity="1" /><path clip-path="url(#clip650)" d="M146.376 601.935 L176.052 601.935 L176.052 605.87 L146.376 605.87 L146.376 601.935 Z" fill="#000000" fill-rule="nonzero" fill-opacity="1" /><path clip-path="url(#clip650)" d="M186.955 614.828 L194.594 614.828 L194.594 588.463 L186.284 590.129 L186.284 585.87 L194.547 584.203 L199.223 584.203 L199.223 614.828 L206.862 614.828 L206.862 618.763 L186.955 618.763 L186.955 614.828 Z" fill="#000000" fill-rule="nonzero" fill-opacity="1" /><path clip-path="url(#clip650)" d="M226.306 587.282 Q222.695 587.282 220.867 590.847 Q219.061 594.389 219.061 601.518 Q219.061 608.625 220.867 612.189 Q222.695 615.731 226.306 615.731 Q229.941 615.731 231.746 612.189 Q233.575 608.625 233.575 601.518 Q233.575 594.389 231.746 590.847 Q229.941 587.282 226.306 587.282 M226.306 583.578 Q232.117 583.578 235.172 588.185 Q238.251 592.768 238.251 601.518 Q238.251 610.245 235.172 614.851 Q232.117 619.435 226.306 619.435 Q220.496 619.435 217.418 614.851 Q214.362 610.245 214.362 601.518 Q214.362 592.768 217.418 588.185 Q220.496 583.578 226.306 583.578 Z" fill="#000000" fill-rule="nonzero" fill-opacity="1" /><path clip-path="url(#clip650)" d="M176.631 495.314 L206.307 495.314 L206.307 499.249 L176.631 499.249 L176.631 495.314 Z" fill="#000000" fill-rule="nonzero" fill-opacity="1" /><path clip-path="url(#clip650)" d="M226.399 495.731 Q223.066 495.731 221.144 497.513 Q219.246 499.295 219.246 502.42 Q219.246 505.545 221.144 507.328 Q223.066 509.11 226.399 509.11 Q229.732 509.11 231.654 507.328 Q233.575 505.522 233.575 502.42 Q233.575 499.295 231.654 497.513 Q229.756 495.731 226.399 495.731 M221.723 493.74 Q218.714 492.999 217.024 490.939 Q215.357 488.879 215.357 485.916 Q215.357 481.772 218.297 479.365 Q221.26 476.958 226.399 476.958 Q231.561 476.958 234.501 479.365 Q237.441 481.772 237.441 485.916 Q237.441 488.879 235.751 490.939 Q234.084 492.999 231.098 493.74 Q234.478 494.527 236.353 496.819 Q238.251 499.11 238.251 502.42 Q238.251 507.444 235.172 510.129 Q232.117 512.814 226.399 512.814 Q220.681 512.814 217.603 510.129 Q214.547 507.444 214.547 502.42 Q214.547 499.11 216.445 496.819 Q218.344 494.527 221.723 493.74 M220.01 486.356 Q220.01 489.041 221.677 490.545 Q223.367 492.05 226.399 492.05 Q229.408 492.05 231.098 490.545 Q232.811 489.041 232.811 486.356 Q232.811 483.671 231.098 482.166 Q229.408 480.661 226.399 480.661 Q223.367 480.661 221.677 482.166 Q220.01 483.671 220.01 486.356 Z" fill="#000000" fill-rule="nonzero" fill-opacity="1" /><path clip-path="url(#clip650)" d="M176.376 388.693 L206.052 388.693 L206.052 392.628 L176.376 392.628 L176.376 388.693 Z" fill="#000000" fill-rule="nonzero" fill-opacity="1" /><path clip-path="url(#clip650)" d="M226.723 386.378 Q223.575 386.378 221.723 388.531 Q219.894 390.684 219.894 394.434 Q219.894 398.161 221.723 400.337 Q223.575 402.489 226.723 402.489 Q229.871 402.489 231.7 400.337 Q233.552 398.161 233.552 394.434 Q233.552 390.684 231.7 388.531 Q229.871 386.378 226.723 386.378 M236.005 371.726 L236.005 375.985 Q234.246 375.151 232.441 374.712 Q230.658 374.272 228.899 374.272 Q224.269 374.272 221.816 377.397 Q219.385 380.522 219.038 386.841 Q220.404 384.827 222.464 383.763 Q224.524 382.675 227.001 382.675 Q232.209 382.675 235.218 385.846 Q238.251 388.994 238.251 394.434 Q238.251 399.758 235.103 402.975 Q231.955 406.193 226.723 406.193 Q220.728 406.193 217.556 401.61 Q214.385 397.003 214.385 388.276 Q214.385 380.082 218.274 375.221 Q222.163 370.337 228.714 370.337 Q230.473 370.337 232.255 370.684 Q234.061 371.031 236.005 371.726 Z" fill="#000000" fill-rule="nonzero" fill-opacity="1" /><path clip-path="url(#clip650)" d="M176.052 282.072 L205.728 282.072 L205.728 286.007 L176.052 286.007 L176.052 282.072 Z" fill="#000000" fill-rule="nonzero" fill-opacity="1" /><path clip-path="url(#clip650)" d="M228.668 268.415 L216.862 286.864 L228.668 286.864 L228.668 268.415 M227.441 264.341 L233.32 264.341 L233.32 286.864 L238.251 286.864 L238.251 290.753 L233.32 290.753 L233.32 298.901 L228.668 298.901 L228.668 290.753 L213.066 290.753 L213.066 286.239 L227.441 264.341 Z" fill="#000000" fill-rule="nonzero" fill-opacity="1" /><path clip-path="url(#clip650)" d="M178.135 175.451 L207.811 175.451 L207.811 179.386 L178.135 179.386 L178.135 175.451 Z" fill="#000000" fill-rule="nonzero" fill-opacity="1" /><path clip-path="url(#clip650)" d="M221.931 188.345 L238.251 188.345 L238.251 192.28 L216.306 192.28 L216.306 188.345 Q218.969 185.59 223.552 180.961 Q228.158 176.308 229.339 174.965 Q231.584 172.442 232.464 170.706 Q233.367 168.947 233.367 167.257 Q233.367 164.502 231.422 162.766 Q229.501 161.03 226.399 161.03 Q224.2 161.03 221.746 161.794 Q219.316 162.558 216.538 164.109 L216.538 159.387 Q219.362 158.252 221.816 157.674 Q224.269 157.095 226.306 157.095 Q231.677 157.095 234.871 159.78 Q238.066 162.465 238.066 166.956 Q238.066 169.086 237.255 171.007 Q236.468 172.905 234.362 175.498 Q233.783 176.169 230.681 179.386 Q227.58 182.581 221.931 188.345 Z" fill="#000000" fill-rule="nonzero" fill-opacity="1" /><path clip-path="url(#clip650)" d="M226.306 54.1777 Q222.695 54.1777 220.867 57.7425 Q219.061 61.2841 219.061 68.4137 Q219.061 75.5202 220.867 79.085 Q222.695 82.6266 226.306 82.6266 Q229.941 82.6266 231.746 79.085 Q233.575 75.5202 233.575 68.4137 Q233.575 61.2841 231.746 57.7425 Q229.941 54.1777 226.306 54.1777 M226.306 50.474 Q232.117 50.474 235.172 55.0805 Q238.251 59.6638 238.251 68.4137 Q238.251 77.1405 235.172 81.747 Q232.117 86.3303 226.306 86.3303 Q220.496 86.3303 217.418 81.747 Q214.362 77.1405 214.362 68.4137 Q214.362 59.6638 217.418 55.0805 Q220.496 50.474 226.306 50.474 Z" fill="#000000" fill-rule="nonzero" fill-opacity="1" /><path clip-path="url(#clip650)" d="M44.2803 666.275 L44.2803 656.695 L76.6181 644.568 L44.2803 632.378 L44.2803 622.797 L91.8003 622.797 L91.8003 629.068 L50.0731 629.068 L82.6655 641.322 L82.6655 647.783 L50.0731 660.037 L91.8003 660.037 L91.8003 666.275 L44.2803 666.275 Z" fill="#000000" fill-rule="nonzero" fill-opacity="1" /><path clip-path="url(#clip650)" d="M73.8809 594.088 Q73.8809 601.186 75.5041 603.923 Q77.1274 606.66 81.0423 606.66 Q84.1615 606.66 86.0075 604.623 Q87.8218 602.555 87.8218 599.022 Q87.8218 594.152 84.3843 591.224 Q80.915 588.263 75.1858 588.263 L73.8809 588.263 L73.8809 594.088 M71.4619 582.407 L91.8003 582.407 L91.8003 588.263 L86.3895 588.263 Q89.636 590.269 91.1956 593.261 Q92.7233 596.252 92.7233 600.581 Q92.7233 606.056 89.6678 609.302 Q86.5804 612.517 81.4242 612.517 Q75.4086 612.517 72.3531 608.506 Q69.2975 604.464 69.2975 596.475 L69.2975 588.263 L68.7246 588.263 Q64.6824 588.263 62.4862 590.937 Q60.2582 593.579 60.2582 598.385 Q60.2582 601.441 60.9903 604.337 Q61.7224 607.233 63.1865 609.907 L57.7756 609.907 Q56.5343 606.692 55.9296 603.668 Q55.293 600.645 55.293 597.78 Q55.293 590.046 59.3034 586.226 Q63.3138 582.407 71.4619 582.407 Z" fill="#000000" fill-rule="nonzero" fill-opacity="1" /><path clip-path="url(#clip650)" d="M73.5626 546.886 Q67.1969 546.886 63.6957 549.528 Q60.1946 552.138 60.1946 556.881 Q60.1946 561.591 63.6957 564.233 Q67.1969 566.843 73.5626 566.843 Q79.8964 566.843 83.3976 564.233 Q86.8987 561.591 86.8987 556.881 Q86.8987 552.138 83.3976 549.528 Q79.8964 546.886 73.5626 546.886 M87.3762 541.03 Q96.4791 541.03 100.903 545.072 Q105.359 549.114 105.359 557.453 Q105.359 560.541 104.882 563.278 Q104.436 566.015 103.481 568.593 L97.7841 568.593 Q99.1845 566.015 99.8529 563.501 Q100.521 560.986 100.521 558.376 Q100.521 552.616 97.4976 549.751 Q94.5057 546.886 88.4265 546.886 L85.5301 546.886 Q88.6811 548.701 90.2407 551.533 Q91.8003 554.366 91.8003 558.313 Q91.8003 564.87 86.8032 568.88 Q81.8062 572.89 73.5626 572.89 Q65.2872 572.89 60.2901 568.88 Q55.293 564.87 55.293 558.313 Q55.293 554.366 56.8526 551.533 Q58.4122 548.701 61.5632 546.886 L56.1524 546.886 L56.1524 541.03 L87.3762 541.03 Z" fill="#000000" fill-rule="nonzero" fill-opacity="1" /><path clip-path="url(#clip650)" d="M70.2842 499.335 L91.8003 499.335 L91.8003 505.191 L70.4752 505.191 Q65.4145 505.191 62.9 507.164 Q60.3856 509.138 60.3856 513.084 Q60.3856 517.827 63.4093 520.564 Q66.433 523.301 71.6529 523.301 L91.8003 523.301 L91.8003 529.19 L56.1524 529.19 L56.1524 523.301 L61.6905 523.301 Q58.4758 521.201 56.8844 518.368 Q55.293 515.503 55.293 511.78 Q55.293 505.637 59.1124 502.486 Q62.9 499.335 70.2842 499.335 Z" fill="#000000" fill-rule="nonzero" fill-opacity="1" /><path clip-path="url(#clip650)" d="M56.1524 487.653 L56.1524 481.797 L91.8003 481.797 L91.8003 487.653 L56.1524 487.653 M42.2751 487.653 L42.2751 481.797 L49.6912 481.797 L49.6912 487.653 L42.2751 487.653 Z" fill="#000000" fill-rule="nonzero" fill-opacity="1" /><path clip-path="url(#clip650)" d="M46.0309 463.75 L56.1524 463.75 L56.1524 451.687 L60.7038 451.687 L60.7038 463.75 L80.0556 463.75 Q84.4161 463.75 85.6574 462.573 Q86.8987 461.363 86.8987 457.703 L86.8987 451.687 L91.8003 451.687 L91.8003 457.703 Q91.8003 464.482 89.2859 467.06 Q86.7396 469.639 80.0556 469.639 L60.7038 469.639 L60.7038 473.935 L56.1524 473.935 L56.1524 469.639 L46.0309 469.639 L46.0309 463.75 Z" fill="#000000" fill-rule="nonzero" fill-opacity="1" /><path clip-path="url(#clip650)" d="M77.7321 444.589 L56.1524 444.589 L56.1524 438.733 L77.5093 438.733 Q82.57 438.733 85.1163 436.76 Q87.6308 434.786 87.6308 430.84 Q87.6308 426.097 84.6071 423.36 Q81.5834 420.591 76.3635 420.591 L56.1524 420.591 L56.1524 414.734 L91.8003 414.734 L91.8003 420.591 L86.3258 420.591 Q89.5723 422.723 91.1637 425.556 Q92.7233 428.357 92.7233 432.081 Q92.7233 438.224 88.9039 441.407 Q85.0845 444.589 77.7321 444.589 M55.293 429.853 L55.293 429.853 Z" fill="#000000" fill-rule="nonzero" fill-opacity="1" /><path clip-path="url(#clip650)" d="M61.5632 379.214 L42.2751 379.214 L42.2751 373.357 L91.8003 373.357 L91.8003 379.214 L86.4531 379.214 Q89.636 381.06 91.1956 383.892 Q92.7233 386.693 92.7233 390.64 Q92.7233 397.101 87.5671 401.175 Q82.4109 405.218 74.0082 405.218 Q65.6054 405.218 60.4492 401.175 Q55.293 397.101 55.293 390.64 Q55.293 386.693 56.8526 383.892 Q58.3804 381.06 61.5632 379.214 M74.0082 399.17 Q80.4694 399.17 84.1615 396.528 Q87.8218 393.855 87.8218 389.208 Q87.8218 384.561 84.1615 381.887 Q80.4694 379.214 74.0082 379.214 Q67.547 379.214 63.8867 381.887 Q60.1946 384.561 60.1946 389.208 Q60.1946 393.855 63.8867 396.528 Q67.547 399.17 74.0082 399.17 Z" fill="#000000" fill-rule="nonzero" fill-opacity="1" /><path clip-path="url(#clip650)" d="M72.5122 330.802 L75.3768 330.802 L75.3768 357.729 Q81.4242 357.347 84.6071 354.101 Q87.7581 350.823 87.7581 344.998 Q87.7581 341.624 86.9306 338.473 Q86.103 335.29 84.4479 332.171 L89.9861 332.171 Q91.3229 335.322 92.0231 338.632 Q92.7233 341.942 92.7233 345.348 Q92.7233 353.878 87.7581 358.875 Q82.7928 363.841 74.3265 363.841 Q65.5736 363.841 60.4492 359.13 Q55.293 354.387 55.293 346.367 Q55.293 339.173 59.94 335.004 Q64.5551 330.802 72.5122 330.802 M70.7935 336.659 Q65.9874 336.723 63.1228 339.364 Q60.2582 341.974 60.2582 346.303 Q60.2582 351.205 63.0273 354.165 Q65.7964 357.093 70.8253 357.538 L70.7935 336.659 Z" fill="#000000" fill-rule="nonzero" fill-opacity="1" /><path clip-path="url(#clip650)" d="M42.3388 286.402 Q49.6593 290.667 56.8208 292.736 Q63.9822 294.804 71.3346 294.804 Q78.687 294.804 85.912 292.736 Q93.1053 290.635 100.394 286.402 L100.394 291.494 Q92.9143 296.269 85.6892 298.656 Q78.4642 301.011 71.3346 301.011 Q64.2368 301.011 57.0436 298.656 Q49.8503 296.3 42.3388 291.494 L42.3388 286.402 Z" fill="#000000" fill-rule="nonzero" fill-opacity="1" /><path clip-path="url(#clip650)" d="M61.5632 251.581 L42.2751 251.581 L42.2751 245.725 L91.8003 245.725 L91.8003 251.581 L86.4531 251.581 Q89.636 253.427 91.1956 256.26 Q92.7233 259.061 92.7233 263.008 Q92.7233 269.469 87.5671 273.543 Q82.4109 277.585 74.0082 277.585 Q65.6054 277.585 60.4492 273.543 Q55.293 269.469 55.293 263.008 Q55.293 259.061 56.8526 256.26 Q58.3804 253.427 61.5632 251.581 M74.0082 271.538 Q80.4694 271.538 84.1615 268.896 Q87.8218 266.222 87.8218 261.575 Q87.8218 256.928 84.1615 254.255 Q80.4694 251.581 74.0082 251.581 Q67.547 251.581 63.8867 254.255 Q60.1946 256.928 60.1946 261.575 Q60.1946 266.222 63.8867 268.896 Q67.547 271.538 74.0082 271.538 Z" fill="#000000" fill-rule="nonzero" fill-opacity="1" /><path clip-path="url(#clip650)" d="M69.1066 226.978 L86.5168 226.978 L86.5168 216.665 Q86.5168 211.477 84.3843 208.995 Q82.2199 206.48 77.7958 206.48 Q73.3398 206.48 71.2391 208.995 Q69.1066 211.477 69.1066 216.665 L69.1066 226.978 M49.5639 226.978 L63.8867 226.978 L63.8867 217.461 Q63.8867 212.75 62.1361 210.459 Q60.3537 208.135 56.7253 208.135 Q53.1287 208.135 51.3463 210.459 Q49.5639 212.75 49.5639 217.461 L49.5639 226.978 M44.2803 233.407 L44.2803 216.984 Q44.2803 209.631 47.3359 205.653 Q50.3914 201.674 56.025 201.674 Q60.3856 201.674 62.9637 203.711 Q65.5418 205.748 66.1783 209.695 Q67.1969 204.952 70.4434 202.343 Q73.6581 199.701 78.496 199.701 Q84.8617 199.701 88.331 204.029 Q91.8003 208.358 91.8003 216.347 L91.8003 233.407 L44.2803 233.407 Z" fill="#000000" fill-rule="nonzero" fill-opacity="1" /><path clip-path="url(#clip650)" d="M42.3388 189.866 L42.3388 184.773 Q49.8503 179.999 57.0436 177.644 Q64.2368 175.256 71.3346 175.256 Q78.4642 175.256 85.6892 177.644 Q92.9143 179.999 100.394 184.773 L100.394 189.866 Q93.1053 185.633 85.912 183.564 Q78.687 181.463 71.3346 181.463 Q63.9822 181.463 56.8208 183.564 Q49.6593 185.633 42.3388 189.866 Z" fill="#000000" fill-rule="nonzero" fill-opacity="1" /><polyline clip-path="url(#clip652)" style="stroke:#009af9; stroke-linecap:round; stroke-linejoin:round; stroke-width:4; stroke-opacity:1; fill:none" points="345.425,68.3868 1627.54,75.8551 1813.41,88.4351 1936.94,106.751 2068.53,144.002 2193.09,209.045 2286.34,287.342 2360.88,374.462 2573.9,773.145 "/>
<path clip-path="url(#clip650)" d="M2273.37 175.826 L2562.02 175.826 L2562.02 72.1455 L2273.37 72.1455  Z" fill="#ffffff" fill-rule="evenodd" fill-opacity="1"/>
<polyline clip-path="url(#clip650)" style="stroke:#000000; stroke-linecap:round; stroke-linejoin:round; stroke-width:4; stroke-opacity:1; fill:none" points="2273.37,175.826 2562.02,175.826 2562.02,72.1455 2273.37,72.1455 2273.37,175.826 "/>
<polyline clip-path="url(#clip650)" style="stroke:#009af9; stroke-linecap:round; stroke-linejoin:round; stroke-width:4; stroke-opacity:1; fill:none" points="2299.61,123.986 2457.09,123.986 "/>
<path clip-path="url(#clip650)" d="M2497.18 143.673 Q2495.38 148.303 2493.66 149.715 Q2491.95 151.127 2489.08 151.127 L2485.68 151.127 L2485.68 147.562 L2488.18 147.562 Q2489.94 147.562 2490.91 146.728 Q2491.88 145.895 2493.06 142.793 L2493.83 140.849 L2483.34 115.34 L2487.85 115.34 L2495.96 135.617 L2504.06 115.34 L2508.57 115.34 L2497.18 143.673 Z" fill="#000000" fill-rule="nonzero" fill-opacity="1" /><path clip-path="url(#clip650)" d="M2515.86 137.33 L2523.5 137.33 L2523.5 110.965 L2515.19 112.631 L2515.19 108.372 L2523.46 106.706 L2528.13 106.706 L2528.13 137.33 L2535.77 137.33 L2535.77 141.266 L2515.86 141.266 L2515.86 137.33 Z" fill="#000000" fill-rule="nonzero" fill-opacity="1" /><path clip-path="url(#clip650)" d="M278.571 1720.96 L2640.76 1720.96 L2640.76 973.913 L278.571 973.913  Z" fill="#ffffff" fill-rule="evenodd" fill-opacity="1"/>
<defs>
  <clipPath id="clip653">
    <rect x="278" y="973" width="2363" height="748"/>
  </clipPath>
</defs>
<polyline clip-path="url(#clip653)" style="stroke:#000000; stroke-linecap:round; stroke-linejoin:round; stroke-width:2; stroke-opacity:0.1; fill:none" points="345.425,1720.96 345.425,973.913 "/>
<polyline clip-path="url(#clip653)" style="stroke:#000000; stroke-linecap:round; stroke-linejoin:round; stroke-width:2; stroke-opacity:0.1; fill:none" points="1205.12,1720.96 1205.12,973.913 "/>
<polyline clip-path="url(#clip653)" style="stroke:#000000; stroke-linecap:round; stroke-linejoin:round; stroke-width:2; stroke-opacity:0.1; fill:none" points="2064.81,1720.96 2064.81,973.913 "/>
<polyline clip-path="url(#clip653)" style="stroke:#000000; stroke-linecap:round; stroke-linejoin:round; stroke-width:2; stroke-opacity:0.1; fill:none" points="278.571,1608.93 2640.76,1608.93 "/>
<polyline clip-path="url(#clip653)" style="stroke:#000000; stroke-linecap:round; stroke-linejoin:round; stroke-width:2; stroke-opacity:0.1; fill:none" points="278.571,1403.47 2640.76,1403.47 "/>
<polyline clip-path="url(#clip653)" style="stroke:#000000; stroke-linecap:round; stroke-linejoin:round; stroke-width:2; stroke-opacity:0.1; fill:none" points="278.571,1198.01 2640.76,1198.01 "/>
<polyline clip-path="url(#clip653)" style="stroke:#000000; stroke-linecap:round; stroke-linejoin:round; stroke-width:2; stroke-opacity:0.1; fill:none" points="278.571,992.544 2640.76,992.544 "/>
<polyline clip-path="url(#clip650)" style="stroke:#000000; stroke-linecap:round; stroke-linejoin:round; stroke-width:4; stroke-opacity:1; fill:none" points="278.571,1720.96 2640.76,1720.96 "/>
<polyline clip-path="url(#clip650)" style="stroke:#000000; stroke-linecap:round; stroke-linejoin:round; stroke-width:4; stroke-opacity:1; fill:none" points="345.425,1720.96 345.425,1702.06 "/>
<polyline clip-path="url(#clip650)" style="stroke:#000000; stroke-linecap:round; stroke-linejoin:round; stroke-width:4; stroke-opacity:1; fill:none" points="1205.12,1720.96 1205.12,1702.06 "/>
<polyline clip-path="url(#clip650)" style="stroke:#000000; stroke-linecap:round; stroke-linejoin:round; stroke-width:4; stroke-opacity:1; fill:none" points="2064.81,1720.96 2064.81,1702.06 "/>
<path clip-path="url(#clip650)" d="M295.54 1797.39 L303.179 1797.39 L303.179 1771.02 L294.869 1772.69 L294.869 1768.43 L303.133 1766.76 L307.809 1766.76 L307.809 1797.39 L315.448 1797.39 L315.448 1801.32 L295.54 1801.32 L295.54 1797.39 Z" fill="#000000" fill-rule="nonzero" fill-opacity="1" /><path clip-path="url(#clip650)" d="M334.892 1769.84 Q331.281 1769.84 329.452 1773.4 Q327.647 1776.95 327.647 1784.08 Q327.647 1791.18 329.452 1794.75 Q331.281 1798.29 334.892 1798.29 Q338.526 1798.29 340.332 1794.75 Q342.161 1791.18 342.161 1784.08 Q342.161 1776.95 340.332 1773.4 Q338.526 1769.84 334.892 1769.84 M334.892 1766.14 Q340.702 1766.14 343.758 1770.74 Q346.836 1775.33 346.836 1784.08 Q346.836 1792.8 343.758 1797.41 Q340.702 1801.99 334.892 1801.99 Q329.082 1801.99 326.003 1797.41 Q322.948 1792.8 322.948 1784.08 Q322.948 1775.33 326.003 1770.74 Q329.082 1766.14 334.892 1766.14 Z" fill="#000000" fill-rule="nonzero" fill-opacity="1" /><path clip-path="url(#clip650)" d="M346.836 1760.24 L370.948 1760.24 L370.948 1763.43 L346.836 1763.43 L346.836 1760.24 Z" fill="#000000" fill-rule="nonzero" fill-opacity="1" /><path clip-path="url(#clip650)" d="M379.806 1770.71 L386.013 1770.71 L386.013 1749.29 L379.261 1750.64 L379.261 1747.18 L385.975 1745.83 L389.775 1745.83 L389.775 1770.71 L395.981 1770.71 L395.981 1773.91 L379.806 1773.91 L379.806 1770.71 Z" fill="#000000" fill-rule="nonzero" fill-opacity="1" /><path clip-path="url(#clip650)" d="M1170.1 1797.39 L1177.74 1797.39 L1177.74 1771.02 L1169.43 1772.69 L1169.43 1768.43 L1177.69 1766.76 L1182.37 1766.76 L1182.37 1797.39 L1190.01 1797.39 L1190.01 1801.32 L1170.1 1801.32 L1170.1 1797.39 Z" fill="#000000" fill-rule="nonzero" fill-opacity="1" /><path clip-path="url(#clip650)" d="M1209.45 1769.84 Q1205.84 1769.84 1204.01 1773.4 Q1202.21 1776.95 1202.21 1784.08 Q1202.21 1791.18 1204.01 1794.75 Q1205.84 1798.29 1209.45 1798.29 Q1213.09 1798.29 1214.89 1794.75 Q1216.72 1791.18 1216.72 1784.08 Q1216.72 1776.95 1214.89 1773.4 Q1213.09 1769.84 1209.45 1769.84 M1209.45 1766.14 Q1215.26 1766.14 1218.32 1770.74 Q1221.4 1775.33 1221.4 1784.08 Q1221.4 1792.8 1218.32 1797.41 Q1215.26 1801.99 1209.45 1801.99 Q1203.64 1801.99 1200.56 1797.41 Q1197.51 1792.8 1197.51 1784.08 Q1197.51 1775.33 1200.56 1770.74 Q1203.64 1766.14 1209.45 1766.14 Z" fill="#000000" fill-rule="nonzero" fill-opacity="1" /><path clip-path="url(#clip650)" d="M1231.1 1748.33 Q1228.17 1748.33 1226.68 1751.23 Q1225.22 1754.11 1225.22 1759.9 Q1225.22 1765.67 1226.68 1768.57 Q1228.17 1771.45 1231.1 1771.45 Q1234.05 1771.45 1235.52 1768.57 Q1237.01 1765.67 1237.01 1759.9 Q1237.01 1754.11 1235.52 1751.23 Q1234.05 1748.33 1231.1 1748.33 M1231.1 1745.32 Q1235.82 1745.32 1238.31 1749.06 Q1240.81 1752.79 1240.81 1759.9 Q1240.81 1766.99 1238.31 1770.73 Q1235.82 1774.46 1231.1 1774.46 Q1226.38 1774.46 1223.88 1770.73 Q1221.4 1766.99 1221.4 1759.9 Q1221.4 1752.79 1223.88 1749.06 Q1226.38 1745.32 1231.1 1745.32 Z" fill="#000000" fill-rule="nonzero" fill-opacity="1" /><path clip-path="url(#clip650)" d="M2031.14 1797.39 L2038.78 1797.39 L2038.78 1771.02 L2030.47 1772.69 L2030.47 1768.43 L2038.73 1766.76 L2043.41 1766.76 L2043.41 1797.39 L2051.05 1797.39 L2051.05 1801.32 L2031.14 1801.32 L2031.14 1797.39 Z" fill="#000000" fill-rule="nonzero" fill-opacity="1" /><path clip-path="url(#clip650)" d="M2070.49 1769.84 Q2066.88 1769.84 2065.05 1773.4 Q2063.25 1776.95 2063.25 1784.08 Q2063.25 1791.18 2065.05 1794.75 Q2066.88 1798.29 2070.49 1798.29 Q2074.12 1798.29 2075.93 1794.75 Q2077.76 1791.18 2077.76 1784.08 Q2077.76 1776.95 2075.93 1773.4 Q2074.12 1769.84 2070.49 1769.84 M2070.49 1766.14 Q2076.3 1766.14 2079.36 1770.74 Q2082.43 1775.33 2082.43 1784.08 Q2082.43 1792.8 2079.36 1797.41 Q2076.3 1801.99 2070.49 1801.99 Q2064.68 1801.99 2061.6 1797.41 Q2058.55 1792.8 2058.55 1784.08 Q2058.55 1775.33 2061.6 1770.74 Q2064.68 1766.14 2070.49 1766.14 Z" fill="#000000" fill-rule="nonzero" fill-opacity="1" /><path clip-path="url(#clip650)" d="M2082.98 1770.71 L2089.19 1770.71 L2089.19 1749.29 L2082.43 1750.64 L2082.43 1747.18 L2089.15 1745.83 L2092.95 1745.83 L2092.95 1770.71 L2099.16 1770.71 L2099.16 1773.91 L2082.98 1773.91 L2082.98 1770.71 Z" fill="#000000" fill-rule="nonzero" fill-opacity="1" /><path clip-path="url(#clip650)" d="M1179.48 1841.05 L1206.79 1841.05 L1206.79 1846.46 L1185.91 1846.46 L1185.91 1860.46 L1204.75 1860.46 L1204.75 1865.87 L1185.91 1865.87 L1185.91 1888.57 L1179.48 1888.57 L1179.48 1841.05 Z" fill="#000000" fill-rule="nonzero" fill-opacity="1" /><path clip-path="url(#clip650)" d="M1232.63 1858.39 Q1231.64 1857.82 1230.47 1857.56 Q1229.32 1857.28 1227.92 1857.28 Q1222.95 1857.28 1220.28 1860.52 Q1217.64 1863.74 1217.64 1869.79 L1217.64 1888.57 L1211.75 1888.57 L1211.75 1852.92 L1217.64 1852.92 L1217.64 1858.46 Q1219.49 1855.21 1222.45 1853.65 Q1225.41 1852.06 1229.64 1852.06 Q1230.24 1852.06 1230.98 1852.15 Q1231.71 1852.22 1232.6 1852.38 L1232.63 1858.39 Z" fill="#000000" fill-rule="nonzero" fill-opacity="1" /><path clip-path="url(#clip650)" d="M1267.83 1869.28 L1267.83 1872.14 L1240.91 1872.14 Q1241.29 1878.19 1244.53 1881.37 Q1247.81 1884.52 1253.64 1884.52 Q1257.01 1884.52 1260.16 1883.7 Q1263.34 1882.87 1266.46 1881.21 L1266.46 1886.75 Q1263.31 1888.09 1260 1888.79 Q1256.69 1889.49 1253.29 1889.49 Q1244.76 1889.49 1239.76 1884.52 Q1234.79 1879.56 1234.79 1871.09 Q1234.79 1862.34 1239.51 1857.21 Q1244.25 1852.06 1252.27 1852.06 Q1259.46 1852.06 1263.63 1856.7 Q1267.83 1861.32 1267.83 1869.28 M1261.98 1867.56 Q1261.91 1862.75 1259.27 1859.89 Q1256.66 1857.02 1252.33 1857.02 Q1247.43 1857.02 1244.47 1859.79 Q1241.54 1862.56 1241.1 1867.59 L1261.98 1867.56 Z" fill="#000000" fill-rule="nonzero" fill-opacity="1" /><path clip-path="url(#clip650)" d="M1280.95 1870.77 Q1280.95 1877.23 1283.59 1880.93 Q1286.26 1884.59 1290.91 1884.59 Q1295.56 1884.59 1298.23 1880.93 Q1300.9 1877.23 1300.9 1870.77 Q1300.9 1864.31 1298.23 1860.65 Q1295.56 1856.96 1290.91 1856.96 Q1286.26 1856.96 1283.59 1860.65 Q1280.95 1864.31 1280.95 1870.77 M1300.9 1883.22 Q1299.06 1886.4 1296.22 1887.96 Q1293.42 1889.49 1289.48 1889.49 Q1283.02 1889.49 1278.94 1884.33 Q1274.9 1879.18 1274.9 1870.77 Q1274.9 1862.37 1278.94 1857.21 Q1283.02 1852.06 1289.48 1852.06 Q1293.42 1852.06 1296.22 1853.62 Q1299.06 1855.15 1300.9 1858.33 L1300.9 1852.92 L1306.76 1852.92 L1306.76 1902.12 L1300.9 1902.12 L1300.9 1883.22 Z" fill="#000000" fill-rule="nonzero" fill-opacity="1" /><path clip-path="url(#clip650)" d="M1318.22 1874.5 L1318.22 1852.92 L1324.07 1852.92 L1324.07 1874.27 Q1324.07 1879.33 1326.05 1881.88 Q1328.02 1884.4 1331.97 1884.4 Q1336.71 1884.4 1339.45 1881.37 Q1342.22 1878.35 1342.22 1873.13 L1342.22 1852.92 L1348.07 1852.92 L1348.07 1888.57 L1342.22 1888.57 L1342.22 1883.09 Q1340.08 1886.34 1337.25 1887.93 Q1334.45 1889.49 1330.73 1889.49 Q1324.58 1889.49 1321.4 1885.67 Q1318.22 1881.85 1318.22 1874.5 M1332.95 1852.06 L1332.95 1852.06 Z" fill="#000000" fill-rule="nonzero" fill-opacity="1" /><path clip-path="url(#clip650)" d="M1390.63 1869.28 L1390.63 1872.14 L1363.7 1872.14 Q1364.08 1878.19 1367.33 1881.37 Q1370.61 1884.52 1376.43 1884.52 Q1379.81 1884.52 1382.96 1883.7 Q1386.14 1882.87 1389.26 1881.21 L1389.26 1886.75 Q1386.11 1888.09 1382.8 1888.79 Q1379.49 1889.49 1376.08 1889.49 Q1367.55 1889.49 1362.55 1884.52 Q1357.59 1879.56 1357.59 1871.09 Q1357.59 1862.34 1362.3 1857.21 Q1367.04 1852.06 1375.06 1852.06 Q1382.26 1852.06 1386.43 1856.7 Q1390.63 1861.32 1390.63 1869.28 M1384.77 1867.56 Q1384.71 1862.75 1382.07 1859.89 Q1379.46 1857.02 1375.13 1857.02 Q1370.23 1857.02 1367.27 1859.79 Q1364.34 1862.56 1363.89 1867.59 L1384.77 1867.56 Z" fill="#000000" fill-rule="nonzero" fill-opacity="1" /><path clip-path="url(#clip650)" d="M1429.87 1867.05 L1429.87 1888.57 L1424.02 1888.57 L1424.02 1867.24 Q1424.02 1862.18 1422.04 1859.66 Q1420.07 1857.15 1416.12 1857.15 Q1411.38 1857.15 1408.64 1860.17 Q1405.9 1863.2 1405.9 1868.42 L1405.9 1888.57 L1400.02 1888.57 L1400.02 1852.92 L1405.9 1852.92 L1405.9 1858.46 Q1408.01 1855.24 1410.84 1853.65 Q1413.7 1852.06 1417.43 1852.06 Q1423.57 1852.06 1426.72 1855.88 Q1429.87 1859.66 1429.87 1867.05 Z" fill="#000000" fill-rule="nonzero" fill-opacity="1" /><path clip-path="url(#clip650)" d="M1467.21 1854.29 L1467.21 1859.76 Q1464.72 1858.39 1462.21 1857.72 Q1459.73 1857.02 1457.18 1857.02 Q1451.48 1857.02 1448.33 1860.65 Q1445.18 1864.25 1445.18 1870.77 Q1445.18 1877.3 1448.33 1880.93 Q1451.48 1884.52 1457.18 1884.52 Q1459.73 1884.52 1462.21 1883.85 Q1464.72 1883.15 1467.21 1881.79 L1467.21 1887.2 Q1464.76 1888.34 1462.11 1888.92 Q1459.5 1889.49 1456.54 1889.49 Q1448.49 1889.49 1443.75 1884.43 Q1439.01 1879.37 1439.01 1870.77 Q1439.01 1862.05 1443.78 1857.05 Q1448.59 1852.06 1456.93 1852.06 Q1459.63 1852.06 1462.21 1852.63 Q1464.79 1853.17 1467.21 1854.29 Z" fill="#000000" fill-rule="nonzero" fill-opacity="1" /><path clip-path="url(#clip650)" d="M1492.22 1891.88 Q1489.74 1898.24 1487.39 1900.18 Q1485.03 1902.12 1481.08 1902.12 L1476.41 1902.12 L1476.41 1897.22 L1479.84 1897.22 Q1482.26 1897.22 1483.6 1896.08 Q1484.94 1894.93 1486.56 1890.67 L1487.61 1887.99 L1473.19 1852.92 L1479.4 1852.92 L1490.54 1880.8 L1501.68 1852.92 L1507.88 1852.92 L1492.22 1891.88 Z" fill="#000000" fill-rule="nonzero" fill-opacity="1" /><path clip-path="url(#clip650)" d="M1536.15 1839.04 L1549.64 1839.04 L1549.64 1843.59 L1542 1843.59 L1542 1892.61 L1549.64 1892.61 L1549.64 1897.16 L1536.15 1897.16 L1536.15 1839.04 Z" fill="#000000" fill-rule="nonzero" fill-opacity="1" /><path clip-path="url(#clip650)" d="M1582.78 1858.39 Q1581.79 1857.82 1580.61 1857.56 Q1579.47 1857.28 1578.07 1857.28 Q1573.1 1857.28 1570.43 1860.52 Q1567.78 1863.74 1567.78 1869.79 L1567.78 1888.57 L1561.9 1888.57 L1561.9 1852.92 L1567.78 1852.92 L1567.78 1858.46 Q1569.63 1855.21 1572.59 1853.65 Q1575.55 1852.06 1579.78 1852.06 Q1580.39 1852.06 1581.12 1852.15 Q1581.85 1852.22 1582.74 1852.38 L1582.78 1858.39 Z" fill="#000000" fill-rule="nonzero" fill-opacity="1" /><path clip-path="url(#clip650)" d="M1605.12 1870.65 Q1598.02 1870.65 1595.28 1872.27 Q1592.55 1873.89 1592.55 1877.81 Q1592.55 1880.93 1594.58 1882.77 Q1596.65 1884.59 1600.19 1884.59 Q1605.06 1884.59 1607.98 1881.15 Q1610.94 1877.68 1610.94 1871.95 L1610.94 1870.65 L1605.12 1870.65 M1616.8 1868.23 L1616.8 1888.57 L1610.94 1888.57 L1610.94 1883.15 Q1608.94 1886.4 1605.95 1887.96 Q1602.96 1889.49 1598.63 1889.49 Q1593.15 1889.49 1589.91 1886.43 Q1586.69 1883.35 1586.69 1878.19 Q1586.69 1872.17 1590.7 1869.12 Q1594.74 1866.06 1602.73 1866.06 L1610.94 1866.06 L1610.94 1865.49 Q1610.94 1861.45 1608.27 1859.25 Q1605.63 1857.02 1600.82 1857.02 Q1597.77 1857.02 1594.87 1857.76 Q1591.97 1858.49 1589.3 1859.95 L1589.3 1854.54 Q1592.52 1853.3 1595.54 1852.69 Q1598.56 1852.06 1601.43 1852.06 Q1609.16 1852.06 1612.98 1856.07 Q1616.8 1860.08 1616.8 1868.23 Z" fill="#000000" fill-rule="nonzero" fill-opacity="1" /><path clip-path="url(#clip650)" d="M1652.32 1858.33 L1652.32 1839.04 L1658.18 1839.04 L1658.18 1888.57 L1652.32 1888.57 L1652.32 1883.22 Q1650.48 1886.4 1647.64 1887.96 Q1644.84 1889.49 1640.9 1889.49 Q1634.43 1889.49 1630.36 1884.33 Q1626.32 1879.18 1626.32 1870.77 Q1626.32 1862.37 1630.36 1857.21 Q1634.43 1852.06 1640.9 1852.06 Q1644.84 1852.06 1647.64 1853.62 Q1650.48 1855.15 1652.32 1858.33 M1632.36 1870.77 Q1632.36 1877.23 1635.01 1880.93 Q1637.68 1884.59 1642.33 1884.59 Q1646.97 1884.59 1649.65 1880.93 Q1652.32 1877.23 1652.32 1870.77 Q1652.32 1864.31 1649.65 1860.65 Q1646.97 1856.96 1642.33 1856.96 Q1637.68 1856.96 1635.01 1860.65 Q1632.36 1864.31 1632.36 1870.77 Z" fill="#000000" fill-rule="nonzero" fill-opacity="1" /><path clip-path="url(#clip650)" d="M1680.65 1841.05 L1686.06 1841.05 L1669.51 1894.61 L1664.1 1894.61 L1680.65 1841.05 Z" fill="#000000" fill-rule="nonzero" fill-opacity="1" /><path clip-path="url(#clip650)" d="M1714.93 1853.97 L1714.93 1859.51 Q1712.45 1858.23 1709.77 1857.6 Q1707.1 1856.96 1704.23 1856.96 Q1699.87 1856.96 1697.68 1858.3 Q1695.51 1859.63 1695.51 1862.31 Q1695.51 1864.34 1697.07 1865.52 Q1698.63 1866.67 1703.34 1867.72 L1705.35 1868.16 Q1711.59 1869.5 1714.2 1871.95 Q1716.84 1874.37 1716.84 1878.73 Q1716.84 1883.7 1712.89 1886.59 Q1708.98 1889.49 1702.1 1889.49 Q1699.24 1889.49 1696.12 1888.92 Q1693.03 1888.37 1689.59 1887.26 L1689.59 1881.21 Q1692.84 1882.9 1695.99 1883.76 Q1699.14 1884.59 1702.23 1884.59 Q1706.37 1884.59 1708.59 1883.19 Q1710.82 1881.75 1710.82 1879.18 Q1710.82 1876.79 1709.2 1875.52 Q1707.61 1874.24 1702.16 1873.06 L1700.13 1872.59 Q1694.69 1871.44 1692.27 1869.09 Q1689.85 1866.7 1689.85 1862.56 Q1689.85 1857.53 1693.41 1854.8 Q1696.98 1852.06 1703.53 1852.06 Q1706.78 1852.06 1709.64 1852.54 Q1712.51 1853.01 1714.93 1853.97 Z" fill="#000000" fill-rule="nonzero" fill-opacity="1" /><path clip-path="url(#clip650)" d="M1739.85 1839.04 L1739.85 1897.16 L1726.35 1897.16 L1726.35 1892.61 L1733.96 1892.61 L1733.96 1843.59 L1726.35 1843.59 L1726.35 1839.04 L1739.85 1839.04 Z" fill="#000000" fill-rule="nonzero" fill-opacity="1" /><polyline clip-path="url(#clip650)" style="stroke:#000000; stroke-linecap:round; stroke-linejoin:round; stroke-width:4; stroke-opacity:1; fill:none" points="278.571,1720.96 278.571,973.913 "/>
<polyline clip-path="url(#clip650)" style="stroke:#000000; stroke-linecap:round; stroke-linejoin:round; stroke-width:4; stroke-opacity:1; fill:none" points="278.571,1608.93 297.468,1608.93 "/>
<polyline clip-path="url(#clip650)" style="stroke:#000000; stroke-linecap:round; stroke-linejoin:round; stroke-width:4; stroke-opacity:1; fill:none" points="278.571,1403.47 297.468,1403.47 "/>
<polyline clip-path="url(#clip650)" style="stroke:#000000; stroke-linecap:round; stroke-linejoin:round; stroke-width:4; stroke-opacity:1; fill:none" points="278.571,1198.01 297.468,1198.01 "/>
<polyline clip-path="url(#clip650)" style="stroke:#000000; stroke-linecap:round; stroke-linejoin:round; stroke-width:4; stroke-opacity:1; fill:none" points="278.571,992.544 297.468,992.544 "/>
<path clip-path="url(#clip650)" d="M116.214 1609.38 L145.89 1609.38 L145.89 1613.32 L116.214 1613.32 L116.214 1609.38 Z" fill="#000000" fill-rule="nonzero" fill-opacity="1" /><path clip-path="url(#clip650)" d="M156.793 1622.27 L164.432 1622.27 L164.432 1595.91 L156.122 1597.58 L156.122 1593.32 L164.385 1591.65 L169.061 1591.65 L169.061 1622.27 L176.7 1622.27 L176.7 1626.21 L156.793 1626.21 L156.793 1622.27 Z" fill="#000000" fill-rule="nonzero" fill-opacity="1" /><path clip-path="url(#clip650)" d="M186.191 1591.65 L204.547 1591.65 L204.547 1595.59 L190.473 1595.59 L190.473 1604.06 Q191.492 1603.71 192.51 1603.55 Q193.529 1603.36 194.547 1603.36 Q200.334 1603.36 203.714 1606.53 Q207.094 1609.71 207.094 1615.12 Q207.094 1620.7 203.621 1623.8 Q200.149 1626.88 193.83 1626.88 Q191.654 1626.88 189.385 1626.51 Q187.14 1626.14 184.733 1625.4 L184.733 1620.7 Q186.816 1621.84 189.038 1622.39 Q191.26 1622.95 193.737 1622.95 Q197.742 1622.95 200.08 1620.84 Q202.418 1618.73 202.418 1615.12 Q202.418 1611.51 200.08 1609.4 Q197.742 1607.3 193.737 1607.3 Q191.862 1607.3 189.987 1607.71 Q188.135 1608.13 186.191 1609.01 L186.191 1591.65 Z" fill="#000000" fill-rule="nonzero" fill-opacity="1" /><path clip-path="url(#clip650)" d="M226.306 1594.73 Q222.695 1594.73 220.867 1598.29 Q219.061 1601.84 219.061 1608.96 Q219.061 1616.07 220.867 1619.64 Q222.695 1623.18 226.306 1623.18 Q229.941 1623.18 231.746 1619.64 Q233.575 1616.07 233.575 1608.96 Q233.575 1601.84 231.746 1598.29 Q229.941 1594.73 226.306 1594.73 M226.306 1591.03 Q232.117 1591.03 235.172 1595.63 Q238.251 1600.21 238.251 1608.96 Q238.251 1617.69 235.172 1622.3 Q232.117 1626.88 226.306 1626.88 Q220.496 1626.88 217.418 1622.3 Q214.362 1617.69 214.362 1608.96 Q214.362 1600.21 217.418 1595.63 Q220.496 1591.03 226.306 1591.03 Z" fill="#000000" fill-rule="nonzero" fill-opacity="1" /><path clip-path="url(#clip650)" d="M116.214 1403.92 L145.89 1403.92 L145.89 1407.85 L116.214 1407.85 L116.214 1403.92 Z" fill="#000000" fill-rule="nonzero" fill-opacity="1" /><path clip-path="url(#clip650)" d="M156.793 1416.81 L164.432 1416.81 L164.432 1390.45 L156.122 1392.11 L156.122 1387.85 L164.385 1386.19 L169.061 1386.19 L169.061 1416.81 L176.7 1416.81 L176.7 1420.75 L156.793 1420.75 L156.793 1416.81 Z" fill="#000000" fill-rule="nonzero" fill-opacity="1" /><path clip-path="url(#clip650)" d="M196.145 1389.27 Q192.533 1389.27 190.705 1392.83 Q188.899 1396.37 188.899 1403.5 Q188.899 1410.61 190.705 1414.17 Q192.533 1417.72 196.145 1417.72 Q199.779 1417.72 201.584 1414.17 Q203.413 1410.61 203.413 1403.5 Q203.413 1396.37 201.584 1392.83 Q199.779 1389.27 196.145 1389.27 M196.145 1385.56 Q201.955 1385.56 205.01 1390.17 Q208.089 1394.75 208.089 1403.5 Q208.089 1412.23 205.01 1416.84 Q201.955 1421.42 196.145 1421.42 Q190.334 1421.42 187.256 1416.84 Q184.2 1412.23 184.2 1403.5 Q184.2 1394.75 187.256 1390.17 Q190.334 1385.56 196.145 1385.56 Z" fill="#000000" fill-rule="nonzero" fill-opacity="1" /><path clip-path="url(#clip650)" d="M226.306 1389.27 Q222.695 1389.27 220.867 1392.83 Q219.061 1396.37 219.061 1403.5 Q219.061 1410.61 220.867 1414.17 Q222.695 1417.72 226.306 1417.72 Q229.941 1417.72 231.746 1414.17 Q233.575 1410.61 233.575 1403.5 Q233.575 1396.37 231.746 1392.83 Q229.941 1389.27 226.306 1389.27 M226.306 1385.56 Q232.117 1385.56 235.172 1390.17 Q238.251 1394.75 238.251 1403.5 Q238.251 1412.23 235.172 1416.84 Q232.117 1421.42 226.306 1421.42 Q220.496 1421.42 217.418 1416.84 Q214.362 1412.23 214.362 1403.5 Q214.362 1394.75 217.418 1390.17 Q220.496 1385.56 226.306 1385.56 Z" fill="#000000" fill-rule="nonzero" fill-opacity="1" /><path clip-path="url(#clip650)" d="M146.376 1198.46 L176.052 1198.46 L176.052 1202.39 L146.376 1202.39 L146.376 1198.46 Z" fill="#000000" fill-rule="nonzero" fill-opacity="1" /><path clip-path="url(#clip650)" d="M186.191 1180.73 L204.547 1180.73 L204.547 1184.66 L190.473 1184.66 L190.473 1193.13 Q191.492 1192.79 192.51 1192.62 Q193.529 1192.44 194.547 1192.44 Q200.334 1192.44 203.714 1195.61 Q207.094 1198.78 207.094 1204.2 Q207.094 1209.78 203.621 1212.88 Q200.149 1215.96 193.83 1215.96 Q191.654 1215.96 189.385 1215.59 Q187.14 1215.22 184.733 1214.48 L184.733 1209.78 Q186.816 1210.91 189.038 1211.47 Q191.26 1212.02 193.737 1212.02 Q197.742 1212.02 200.08 1209.92 Q202.418 1207.81 202.418 1204.2 Q202.418 1200.59 200.08 1198.48 Q197.742 1196.37 193.737 1196.37 Q191.862 1196.37 189.987 1196.79 Q188.135 1197.21 186.191 1198.09 L186.191 1180.73 Z" fill="#000000" fill-rule="nonzero" fill-opacity="1" /><path clip-path="url(#clip650)" d="M226.306 1183.8 Q222.695 1183.8 220.867 1187.37 Q219.061 1190.91 219.061 1198.04 Q219.061 1205.15 220.867 1208.71 Q222.695 1212.25 226.306 1212.25 Q229.941 1212.25 231.746 1208.71 Q233.575 1205.15 233.575 1198.04 Q233.575 1190.91 231.746 1187.37 Q229.941 1183.8 226.306 1183.8 M226.306 1180.1 Q232.117 1180.1 235.172 1184.71 Q238.251 1189.29 238.251 1198.04 Q238.251 1206.77 235.172 1211.37 Q232.117 1215.96 226.306 1215.96 Q220.496 1215.96 217.418 1211.37 Q214.362 1206.77 214.362 1198.04 Q214.362 1189.29 217.418 1184.71 Q220.496 1180.1 226.306 1180.1 Z" fill="#000000" fill-rule="nonzero" fill-opacity="1" /><path clip-path="url(#clip650)" d="M226.306 978.343 Q222.695 978.343 220.867 981.908 Q219.061 985.449 219.061 992.579 Q219.061 999.685 220.867 1003.25 Q222.695 1006.79 226.306 1006.79 Q229.941 1006.79 231.746 1003.25 Q233.575 999.685 233.575 992.579 Q233.575 985.449 231.746 981.908 Q229.941 978.343 226.306 978.343 M226.306 974.639 Q232.117 974.639 235.172 979.246 Q238.251 983.829 238.251 992.579 Q238.251 1001.31 235.172 1005.91 Q232.117 1010.5 226.306 1010.5 Q220.496 1010.5 217.418 1005.91 Q214.362 1001.31 214.362 992.579 Q214.362 983.829 217.418 979.246 Q220.496 974.639 226.306 974.639 Z" fill="#000000" fill-rule="nonzero" fill-opacity="1" /><path clip-path="url(#clip650)" d="M19.402 1529.54 L37.2578 1529.54 L37.2578 1521.46 Q37.2578 1516.97 34.9343 1514.52 Q32.6108 1512.07 28.314 1512.07 Q24.0489 1512.07 21.7255 1514.52 Q19.402 1516.97 19.402 1521.46 L19.402 1529.54 M14.1184 1535.97 L14.1184 1521.46 Q14.1184 1513.47 17.7469 1509.39 Q21.3435 1505.29 28.314 1505.29 Q35.3481 1505.29 38.9447 1509.39 Q42.5413 1513.47 42.5413 1521.46 L42.5413 1529.54 L61.6384 1529.54 L61.6384 1535.97 L14.1184 1535.97 Z" fill="#000000" fill-rule="nonzero" fill-opacity="1" /><path clip-path="url(#clip650)" d="M40.1224 1467.29 L61.6384 1467.29 L61.6384 1473.14 L40.3133 1473.14 Q35.2526 1473.14 32.7381 1475.11 Q30.2237 1477.09 30.2237 1481.03 Q30.2237 1485.78 33.2474 1488.51 Q36.2711 1491.25 41.491 1491.25 L61.6384 1491.25 L61.6384 1497.14 L12.1132 1497.14 L12.1132 1491.25 L31.5287 1491.25 Q28.314 1489.15 26.7225 1486.32 Q25.1311 1483.45 25.1311 1479.73 Q25.1311 1473.59 28.9505 1470.44 Q32.7381 1467.29 40.1224 1467.29 Z" fill="#000000" fill-rule="nonzero" fill-opacity="1" /><path clip-path="url(#clip650)" d="M43.719 1439.4 Q43.719 1446.5 45.3422 1449.24 Q46.9655 1451.98 50.8804 1451.98 Q53.9996 1451.98 55.8457 1449.94 Q57.6599 1447.87 57.6599 1444.34 Q57.6599 1439.47 54.2224 1436.54 Q50.7531 1433.58 45.0239 1433.58 L43.719 1433.58 L43.719 1439.4 M41.3 1427.72 L61.6384 1427.72 L61.6384 1433.58 L56.2276 1433.58 Q59.4741 1435.58 61.0337 1438.58 Q62.5615 1441.57 62.5615 1445.9 Q62.5615 1451.37 59.5059 1454.62 Q56.4186 1457.83 51.2623 1457.83 Q45.2467 1457.83 42.1912 1453.82 Q39.1357 1449.78 39.1357 1441.79 L39.1357 1433.58 L38.5628 1433.58 Q34.5205 1433.58 32.3244 1436.25 Q30.0964 1438.89 30.0964 1443.7 Q30.0964 1446.76 30.8284 1449.65 Q31.5605 1452.55 33.0246 1455.22 L27.6137 1455.22 Q26.3724 1452.01 25.7677 1448.98 Q25.1311 1445.96 25.1311 1443.1 Q25.1311 1435.36 29.1415 1431.54 Q33.1519 1427.72 41.3 1427.72 Z" fill="#000000" fill-rule="nonzero" fill-opacity="1" /><path clip-path="url(#clip650)" d="M27.0408 1392.93 L32.579 1392.93 Q31.3059 1395.42 30.6693 1398.09 Q30.0327 1400.76 30.0327 1403.63 Q30.0327 1407.99 31.3695 1410.18 Q32.7063 1412.35 35.3799 1412.35 Q37.4169 1412.35 38.5946 1410.79 Q39.7404 1409.23 40.7908 1404.52 L41.2364 1402.51 Q42.5732 1396.28 45.0239 1393.67 Q47.4429 1391.02 51.8034 1391.02 Q56.7687 1391.02 59.6651 1394.97 Q62.5615 1398.89 62.5615 1405.76 Q62.5615 1408.63 61.9886 1411.74 Q61.4475 1414.83 60.3335 1418.27 L54.2861 1418.27 Q55.973 1415.02 56.8323 1411.87 Q57.6599 1408.72 57.6599 1405.63 Q57.6599 1401.5 56.2594 1399.27 Q54.8271 1397.04 52.249 1397.04 Q49.8619 1397.04 48.5887 1398.66 Q47.3156 1400.25 46.1379 1405.7 L45.6605 1407.73 Q44.5147 1413.18 42.1594 1415.6 Q39.7722 1418.01 35.6345 1418.01 Q30.6056 1418.01 27.8684 1414.45 Q25.1311 1410.88 25.1311 1404.33 Q25.1311 1401.08 25.6085 1398.22 Q26.086 1395.35 27.0408 1392.93 Z" fill="#000000" fill-rule="nonzero" fill-opacity="1" /><path clip-path="url(#clip650)" d="M42.3504 1351.21 L45.2149 1351.21 L45.2149 1378.13 Q51.2623 1377.75 54.4452 1374.5 Q57.5962 1371.23 57.5962 1365.4 Q57.5962 1362.03 56.7687 1358.88 Q55.9411 1355.69 54.2861 1352.57 L59.8242 1352.57 Q61.161 1355.73 61.8612 1359.04 Q62.5615 1362.35 62.5615 1365.75 Q62.5615 1374.28 57.5962 1379.28 Q52.631 1384.24 44.1646 1384.24 Q35.4117 1384.24 30.2873 1379.53 Q25.1311 1374.79 25.1311 1366.77 Q25.1311 1359.58 29.7781 1355.41 Q34.3932 1351.21 42.3504 1351.21 M40.6316 1357.06 Q35.8255 1357.13 32.9609 1359.77 Q30.0964 1362.38 30.0964 1366.71 Q30.0964 1371.61 32.8654 1374.57 Q35.6345 1377.5 40.6634 1377.94 L40.6316 1357.06 Z" fill="#000000" fill-rule="nonzero" fill-opacity="1" /><path clip-path="url(#clip650)" d="M12.1769 1306.81 Q19.4975 1311.07 26.6589 1313.14 Q33.8203 1315.21 41.1727 1315.21 Q48.5251 1315.21 55.7502 1313.14 Q62.9434 1311.04 70.2321 1306.81 L70.2321 1311.9 Q62.7524 1316.67 55.5274 1319.06 Q48.3023 1321.41 41.1727 1321.41 Q34.0749 1321.41 26.8817 1319.06 Q19.6884 1316.7 12.1769 1311.9 L12.1769 1306.81 Z" fill="#000000" fill-rule="nonzero" fill-opacity="1" /><path clip-path="url(#clip650)" d="M31.4013 1271.99 L12.1132 1271.99 L12.1132 1266.13 L61.6384 1266.13 L61.6384 1271.99 L56.2912 1271.99 Q59.4741 1273.83 61.0337 1276.66 Q62.5615 1279.46 62.5615 1283.41 Q62.5615 1289.87 57.4052 1293.95 Q52.249 1297.99 43.8463 1297.99 Q35.4436 1297.99 30.2873 1293.95 Q25.1311 1289.87 25.1311 1283.41 Q25.1311 1279.46 26.6907 1276.66 Q28.2185 1273.83 31.4013 1271.99 M43.8463 1291.94 Q50.3075 1291.94 53.9996 1289.3 Q57.6599 1286.63 57.6599 1281.98 Q57.6599 1277.33 53.9996 1274.66 Q50.3075 1271.99 43.8463 1271.99 Q37.3851 1271.99 33.7248 1274.66 Q30.0327 1277.33 30.0327 1281.98 Q30.0327 1286.63 33.7248 1289.3 Q37.3851 1291.94 43.8463 1291.94 Z" fill="#000000" fill-rule="nonzero" fill-opacity="1" /><path clip-path="url(#clip650)" d="M42.3504 1223.57 L45.2149 1223.57 L45.2149 1250.5 Q51.2623 1250.12 54.4452 1246.87 Q57.5962 1243.59 57.5962 1237.77 Q57.5962 1234.4 56.7687 1231.24 Q55.9411 1228.06 54.2861 1224.94 L59.8242 1224.94 Q61.161 1228.09 61.8612 1231.4 Q62.5615 1234.71 62.5615 1238.12 Q62.5615 1246.65 57.5962 1251.65 Q52.631 1256.61 44.1646 1256.61 Q35.4117 1256.61 30.2873 1251.9 Q25.1311 1247.16 25.1311 1239.14 Q25.1311 1231.94 29.7781 1227.78 Q34.3932 1223.57 42.3504 1223.57 M40.6316 1229.43 Q35.8255 1229.49 32.9609 1232.14 Q30.0964 1234.75 30.0964 1239.07 Q30.0964 1243.98 32.8654 1246.94 Q35.6345 1249.86 40.6634 1250.31 L40.6316 1229.43 Z" fill="#000000" fill-rule="nonzero" fill-opacity="1" /><path clip-path="url(#clip650)" d="M43.4007 1190.5 Q37.035 1190.5 33.5338 1193.15 Q30.0327 1195.76 30.0327 1200.5 Q30.0327 1205.21 33.5338 1207.85 Q37.035 1210.46 43.4007 1210.46 Q49.7346 1210.46 53.2357 1207.85 Q56.7368 1205.21 56.7368 1200.5 Q56.7368 1195.76 53.2357 1193.15 Q49.7346 1190.5 43.4007 1190.5 M57.2143 1184.65 Q66.3172 1184.65 70.7414 1188.69 Q75.1974 1192.73 75.1974 1201.07 Q75.1974 1204.16 74.72 1206.9 Q74.2744 1209.63 73.3195 1212.21 L67.6222 1212.21 Q69.0227 1209.63 69.6911 1207.12 Q70.3595 1204.6 70.3595 1201.99 Q70.3595 1196.23 67.3358 1193.37 Q64.3439 1190.5 58.2646 1190.5 L55.3682 1190.5 Q58.5192 1192.32 60.0788 1195.15 Q61.6384 1197.98 61.6384 1201.93 Q61.6384 1208.49 56.6414 1212.5 Q51.6443 1216.51 43.4007 1216.51 Q35.1253 1216.51 30.1282 1212.5 Q25.1311 1208.49 25.1311 1201.93 Q25.1311 1197.98 26.6907 1195.15 Q28.2503 1192.32 31.4013 1190.5 L25.9905 1190.5 L25.9905 1184.65 L57.2143 1184.65 Z" fill="#000000" fill-rule="nonzero" fill-opacity="1" /><path clip-path="url(#clip650)" d="M12.1769 1173.51 L12.1769 1168.42 Q19.6884 1163.64 26.8817 1161.29 Q34.0749 1158.9 41.1727 1158.9 Q48.3023 1158.9 55.5274 1161.29 Q62.7524 1163.64 70.2321 1168.42 L70.2321 1173.51 Q62.9434 1169.27 55.7502 1167.21 Q48.5251 1165.1 41.1727 1165.1 Q33.8203 1165.1 26.6589 1167.21 Q19.4975 1169.27 12.1769 1173.51 Z" fill="#000000" fill-rule="nonzero" fill-opacity="1" /><polyline clip-path="url(#clip653)" style="stroke:#009af9; stroke-linecap:round; stroke-linejoin:round; stroke-width:4; stroke-opacity:1; fill:none" points="345.425,995.056 1880.26,1143.8 2068.53,1237.75 2218.68,1345.53 2306.41,1422.81 2377.41,1492 2450.56,1567.8 2511.7,1633.1 2573.9,1699.81 "/>
</svg>
