<?xml version="1.0" encoding="utf-8"?>
<svg xmlns="http://www.w3.org/2000/svg" xmlns:xlink="http://www.w3.org/1999/xlink" width="480" height="384" viewBox="0 0 1920 1536">
<defs>
  <clipPath id="clip340">
    <rect x="0" y="0" width="1920" height="1536"/>
  </clipPath>
</defs>
<path clip-path="url(#clip340)" d="M0 1536 L1920 1536 L1920 0 L0 0  Z" fill="#ffffff" fill-rule="evenodd" fill-opacity="1"/>
<defs>
  <clipPath id="clip341">
    <rect x="384" y="0" width="1345" height="1345"/>
  </clipPath>
</defs>
<path clip-path="url(#clip340)" d="M181.474 1416.18 L1872.76 1416.18 L1872.76 135.568 L181.474 135.568  Z" fill="#ffffff" fill-rule="evenodd" fill-opacity="1"/>
<defs>
  <clipPath id="clip342">
    <rect x="181" y="135" width="1692" height="1282"/>
  </clipPath>
</defs>
<polyline clip-path="url(#clip342)" style="stroke:#000000; stroke-linecap:round; stroke-linejoin:round; stroke-width:2; stroke-opacity:0.1; fill:none" points="230.403,1416.18 230.403,135.568 "/>
<polyline clip-path="url(#clip342)" style="stroke:#000000; stroke-linecap:round; stroke-linejoin:round; stroke-width:2; stroke-opacity:0.1; fill:none" points="761.899,1416.18 761.899,135.568 "/>
<polyline clip-path="url(#clip342)" style="stroke:#000000; stroke-linecap:round; stroke-linejoin:round; stroke-width:2; stroke-opacity:0.1; fill:none" points="1293.39,1416.18 1293.39,135.568 "/>
<polyline clip-path="url(#clip342)" style="stroke:#000000; stroke-linecap:round; stroke-linejoin:round; stroke-width:2; stroke-opacity:0.1; fill:none" points="1824.89,1416.18 1824.89,135.568 "/>
<polyline clip-path="url(#clip342)" style="stroke:#000000; stroke-linecap:round; stroke-linejoin:round; stroke-width:2; stroke-opacity:0.1; fill:none" points="181.474,1379.93 1872.76,1379.93 "/>
<polyline clip-path="url(#clip342)" style="stroke:#000000; stroke-linecap:round; stroke-linejoin:round; stroke-width:2; stroke-opacity:0.1; fill:none" points="181.474,1077.9 1872.76,1077.9 "/>
<polyline clip-path="url(#clip342)" style="stroke:#000000; stroke-linecap:round; stroke-linejoin:round; stroke-width:2; stroke-opacity:0.1; fill:none" points="181.474,775.872 1872.76,775.872 "/>
<polyline clip-path="url(#clip342)" style="stroke:#000000; stroke-linecap:round; stroke-linejoin:round; stroke-width:2; stroke-opacity:0.1; fill:none" points="181.474,473.842 1872.76,473.842 "/>
<polyline clip-path="url(#clip342)" style="stroke:#000000; stroke-linecap:round; stroke-linejoin:round; stroke-width:2; stroke-opacity:0.1; fill:none" points="181.474,171.812 1872.76,171.812 "/>
<polyline clip-path="url(#clip340)" style="stroke:#000000; stroke-linecap:round; stroke-linejoin:round; stroke-width:4; stroke-opacity:1; fill:none" points="181.474,1379.93 1872.76,1379.93 "/>
<polyline clip-path="url(#clip340)" style="stroke:#000000; stroke-linecap:round; stroke-linejoin:round; stroke-width:4; stroke-opacity:0; fill:none" points="230.403,1379.93 230.403,1379.93 "/>
<polyline clip-path="url(#clip340)" style="stroke:#000000; stroke-linecap:round; stroke-linejoin:round; stroke-width:4; stroke-opacity:0; fill:none" points="761.899,1379.93 761.899,1379.93 "/>
<polyline clip-path="url(#clip340)" style="stroke:#000000; stroke-linecap:round; stroke-linejoin:round; stroke-width:4; stroke-opacity:0; fill:none" points="1293.39,1379.93 1293.39,1379.93 "/>
<polyline clip-path="url(#clip340)" style="stroke:#000000; stroke-linecap:round; stroke-linejoin:round; stroke-width:4; stroke-opacity:0; fill:none" points="1824.89,1379.93 1824.89,1379.93 "/>
<path clip-path="url(#clip340)" d="M169.385 1457.91 L199.061 1457.91 L199.061 1461.84 L169.385 1461.84 L169.385 1457.91 Z" fill="#000000" fill-rule="nonzero" fill-opacity="1" /><path clip-path="url(#clip340)" d="M209.964 1470.8 L217.603 1470.8 L217.603 1444.44 L209.292 1446.1 L209.292 1441.84 L217.556 1440.18 L222.232 1440.18 L222.232 1470.8 L229.871 1470.8 L229.871 1474.74 L209.964 1474.74 L209.964 1470.8 Z" fill="#000000" fill-rule="nonzero" fill-opacity="1" /><path clip-path="url(#clip340)" d="M239.362 1440.18 L257.718 1440.18 L257.718 1444.11 L243.644 1444.11 L243.644 1452.58 Q244.663 1452.24 245.681 1452.07 Q246.7 1451.89 247.718 1451.89 Q253.505 1451.89 256.885 1455.06 Q260.264 1458.23 260.264 1463.65 Q260.264 1469.23 256.792 1472.33 Q253.32 1475.41 247.001 1475.41 Q244.825 1475.41 242.556 1475.04 Q240.311 1474.67 237.903 1473.93 L237.903 1469.23 Q239.987 1470.36 242.209 1470.92 Q244.431 1471.47 246.908 1471.47 Q250.913 1471.47 253.251 1469.37 Q255.589 1467.26 255.589 1463.65 Q255.589 1460.04 253.251 1457.93 Q250.913 1455.82 246.908 1455.82 Q245.033 1455.82 243.158 1456.24 Q241.306 1456.66 239.362 1457.54 L239.362 1440.18 Z" fill="#000000" fill-rule="nonzero" fill-opacity="1" /><path clip-path="url(#clip340)" d="M279.477 1443.25 Q275.866 1443.25 274.037 1446.82 Q272.232 1450.36 272.232 1457.49 Q272.232 1464.6 274.037 1468.16 Q275.866 1471.7 279.477 1471.7 Q283.112 1471.7 284.917 1468.16 Q286.746 1464.6 286.746 1457.49 Q286.746 1450.36 284.917 1446.82 Q283.112 1443.25 279.477 1443.25 M279.477 1439.55 Q285.287 1439.55 288.343 1444.16 Q291.422 1448.74 291.422 1457.49 Q291.422 1466.22 288.343 1470.82 Q285.287 1475.41 279.477 1475.41 Q273.667 1475.41 270.588 1470.82 Q267.533 1466.22 267.533 1457.49 Q267.533 1448.74 270.588 1444.16 Q273.667 1439.55 279.477 1439.55 Z" fill="#000000" fill-rule="nonzero" fill-opacity="1" /><path clip-path="url(#clip340)" d="M700.881 1457.91 L730.556 1457.91 L730.556 1461.84 L700.881 1461.84 L700.881 1457.91 Z" fill="#000000" fill-rule="nonzero" fill-opacity="1" /><path clip-path="url(#clip340)" d="M741.459 1470.8 L749.098 1470.8 L749.098 1444.44 L740.788 1446.1 L740.788 1441.84 L749.052 1440.18 L753.728 1440.18 L753.728 1470.8 L761.366 1470.8 L761.366 1474.74 L741.459 1474.74 L741.459 1470.8 Z" fill="#000000" fill-rule="nonzero" fill-opacity="1" /><path clip-path="url(#clip340)" d="M780.811 1443.25 Q777.2 1443.25 775.371 1446.82 Q773.565 1450.36 773.565 1457.49 Q773.565 1464.6 775.371 1468.16 Q777.2 1471.7 780.811 1471.7 Q784.445 1471.7 786.251 1468.16 Q788.079 1464.6 788.079 1457.49 Q788.079 1450.36 786.251 1446.82 Q784.445 1443.25 780.811 1443.25 M780.811 1439.55 Q786.621 1439.55 789.676 1444.16 Q792.755 1448.74 792.755 1457.49 Q792.755 1466.22 789.676 1470.82 Q786.621 1475.41 780.811 1475.41 Q775.001 1475.41 771.922 1470.82 Q768.866 1466.22 768.866 1457.49 Q768.866 1448.74 771.922 1444.16 Q775.001 1439.55 780.811 1439.55 Z" fill="#000000" fill-rule="nonzero" fill-opacity="1" /><path clip-path="url(#clip340)" d="M810.973 1443.25 Q807.362 1443.25 805.533 1446.82 Q803.727 1450.36 803.727 1457.49 Q803.727 1464.6 805.533 1468.16 Q807.362 1471.7 810.973 1471.7 Q814.607 1471.7 816.412 1468.16 Q818.241 1464.6 818.241 1457.49 Q818.241 1450.36 816.412 1446.82 Q814.607 1443.25 810.973 1443.25 M810.973 1439.55 Q816.783 1439.55 819.838 1444.16 Q822.917 1448.74 822.917 1457.49 Q822.917 1466.22 819.838 1470.82 Q816.783 1475.41 810.973 1475.41 Q805.162 1475.41 802.084 1470.82 Q799.028 1466.22 799.028 1457.49 Q799.028 1448.74 802.084 1444.16 Q805.162 1439.55 810.973 1439.55 Z" fill="#000000" fill-rule="nonzero" fill-opacity="1" /><path clip-path="url(#clip340)" d="M1247.46 1457.91 L1277.13 1457.91 L1277.13 1461.84 L1247.46 1461.84 L1247.46 1457.91 Z" fill="#000000" fill-rule="nonzero" fill-opacity="1" /><path clip-path="url(#clip340)" d="M1287.27 1440.18 L1305.63 1440.18 L1305.63 1444.11 L1291.55 1444.11 L1291.55 1452.58 Q1292.57 1452.24 1293.59 1452.07 Q1294.61 1451.89 1295.63 1451.89 Q1301.41 1451.89 1304.79 1455.06 Q1308.17 1458.23 1308.17 1463.65 Q1308.17 1469.23 1304.7 1472.33 Q1301.23 1475.41 1294.91 1475.41 Q1292.73 1475.41 1290.47 1475.04 Q1288.22 1474.67 1285.81 1473.93 L1285.81 1469.23 Q1287.9 1470.36 1290.12 1470.92 Q1292.34 1471.47 1294.82 1471.47 Q1298.82 1471.47 1301.16 1469.37 Q1303.5 1467.26 1303.5 1463.65 Q1303.5 1460.04 1301.16 1457.93 Q1298.82 1455.82 1294.82 1455.82 Q1292.94 1455.82 1291.07 1456.24 Q1289.22 1456.66 1287.27 1457.54 L1287.27 1440.18 Z" fill="#000000" fill-rule="nonzero" fill-opacity="1" /><path clip-path="url(#clip340)" d="M1327.39 1443.25 Q1323.78 1443.25 1321.95 1446.82 Q1320.14 1450.36 1320.14 1457.49 Q1320.14 1464.6 1321.95 1468.16 Q1323.78 1471.7 1327.39 1471.7 Q1331.02 1471.7 1332.83 1468.16 Q1334.66 1464.6 1334.66 1457.49 Q1334.66 1450.36 1332.83 1446.82 Q1331.02 1443.25 1327.39 1443.25 M1327.39 1439.55 Q1333.2 1439.55 1336.25 1444.16 Q1339.33 1448.74 1339.33 1457.49 Q1339.33 1466.22 1336.25 1470.82 Q1333.2 1475.41 1327.39 1475.41 Q1321.58 1475.41 1318.5 1470.82 Q1315.44 1466.22 1315.44 1457.49 Q1315.44 1448.74 1318.5 1444.16 Q1321.58 1439.55 1327.39 1439.55 Z" fill="#000000" fill-rule="nonzero" fill-opacity="1" /><path clip-path="url(#clip340)" d="M1824.89 1443.25 Q1821.28 1443.25 1819.45 1446.82 Q1817.64 1450.36 1817.64 1457.49 Q1817.64 1464.6 1819.45 1468.16 Q1821.28 1471.7 1824.89 1471.7 Q1828.52 1471.7 1830.33 1468.16 Q1832.16 1464.6 1832.16 1457.49 Q1832.16 1450.36 1830.33 1446.82 Q1828.52 1443.25 1824.89 1443.25 M1824.89 1439.55 Q1830.7 1439.55 1833.76 1444.16 Q1836.83 1448.74 1836.83 1457.49 Q1836.83 1466.22 1833.76 1470.82 Q1830.7 1475.41 1824.89 1475.41 Q1819.08 1475.41 1816 1470.82 Q1812.95 1466.22 1812.95 1457.49 Q1812.95 1448.74 1816 1444.16 Q1819.08 1439.55 1824.89 1439.55 Z" fill="#000000" fill-rule="nonzero" fill-opacity="1" /><polyline clip-path="url(#clip340)" style="stroke:#000000; stroke-linecap:round; stroke-linejoin:round; stroke-width:4; stroke-opacity:1; fill:none" points="1824.89,1416.18 1824.89,135.568 "/>
<polyline clip-path="url(#clip340)" style="stroke:#000000; stroke-linecap:round; stroke-linejoin:round; stroke-width:4; stroke-opacity:0; fill:none" points="1824.89,1379.93 1824.89,1379.93 "/>
<polyline clip-path="url(#clip340)" style="stroke:#000000; stroke-linecap:round; stroke-linejoin:round; stroke-width:4; stroke-opacity:0; fill:none" points="1824.89,1077.9 1824.89,1077.9 "/>
<polyline clip-path="url(#clip340)" style="stroke:#000000; stroke-linecap:round; stroke-linejoin:round; stroke-width:4; stroke-opacity:0; fill:none" points="1824.89,775.872 1824.89,775.872 "/>
<polyline clip-path="url(#clip340)" style="stroke:#000000; stroke-linecap:round; stroke-linejoin:round; stroke-width:4; stroke-opacity:0; fill:none" points="1824.89,473.842 1824.89,473.842 "/>
<polyline clip-path="url(#clip340)" style="stroke:#000000; stroke-linecap:round; stroke-linejoin:round; stroke-width:4; stroke-opacity:0; fill:none" points="1824.89,171.812 1824.89,171.812 "/>
<path clip-path="url(#clip340)" d="M65.3365 1365.73 Q61.7254 1365.73 59.8967 1369.3 Q58.0912 1372.84 58.0912 1379.97 Q58.0912 1387.07 59.8967 1390.64 Q61.7254 1394.18 65.3365 1394.18 Q68.9707 1394.18 70.7763 1390.64 Q72.605 1387.07 72.605 1379.97 Q72.605 1372.84 70.7763 1369.3 Q68.9707 1365.73 65.3365 1365.73 M65.3365 1362.03 Q71.1467 1362.03 74.2022 1366.63 Q77.2809 1371.22 77.2809 1379.97 Q77.2809 1388.69 74.2022 1393.3 Q71.1467 1397.88 65.3365 1397.88 Q59.5264 1397.88 56.4477 1393.3 Q53.3921 1388.69 53.3921 1379.97 Q53.3921 1371.22 56.4477 1366.63 Q59.5264 1362.03 65.3365 1362.03 Z" fill="#000000" fill-rule="nonzero" fill-opacity="1" /><path clip-path="url(#clip340)" d="M85.4984 1391.33 L90.3827 1391.33 L90.3827 1397.21 L85.4984 1397.21 L85.4984 1391.33 Z" fill="#000000" fill-rule="nonzero" fill-opacity="1" /><path clip-path="url(#clip340)" d="M110.568 1365.73 Q106.957 1365.73 105.128 1369.3 Q103.322 1372.84 103.322 1379.97 Q103.322 1387.07 105.128 1390.64 Q106.957 1394.18 110.568 1394.18 Q114.202 1394.18 116.008 1390.64 Q117.836 1387.07 117.836 1379.97 Q117.836 1372.84 116.008 1369.3 Q114.202 1365.73 110.568 1365.73 M110.568 1362.03 Q116.378 1362.03 119.433 1366.63 Q122.512 1371.22 122.512 1379.97 Q122.512 1388.69 119.433 1393.3 Q116.378 1397.88 110.568 1397.88 Q104.758 1397.88 101.679 1393.3 Q98.6234 1388.69 98.6234 1379.97 Q98.6234 1371.22 101.679 1366.63 Q104.758 1362.03 110.568 1362.03 Z" fill="#000000" fill-rule="nonzero" fill-opacity="1" /><path clip-path="url(#clip340)" d="M140.73 1365.73 Q137.119 1365.73 135.29 1369.3 Q133.484 1372.84 133.484 1379.97 Q133.484 1387.07 135.29 1390.64 Q137.119 1394.18 140.73 1394.18 Q144.364 1394.18 146.169 1390.64 Q147.998 1387.07 147.998 1379.97 Q147.998 1372.84 146.169 1369.3 Q144.364 1365.73 140.73 1365.73 M140.73 1362.03 Q146.54 1362.03 149.595 1366.63 Q152.674 1371.22 152.674 1379.97 Q152.674 1388.69 149.595 1393.3 Q146.54 1397.88 140.73 1397.88 Q134.919 1397.88 131.841 1393.3 Q128.785 1388.69 128.785 1379.97 Q128.785 1371.22 131.841 1366.63 Q134.919 1362.03 140.73 1362.03 Z" fill="#000000" fill-rule="nonzero" fill-opacity="1" /><path clip-path="url(#clip340)" d="M66.3319 1063.7 Q62.7208 1063.7 60.8921 1067.27 Q59.0865 1070.81 59.0865 1077.94 Q59.0865 1085.04 60.8921 1088.61 Q62.7208 1092.15 66.3319 1092.15 Q69.9661 1092.15 71.7717 1088.61 Q73.6004 1085.04 73.6004 1077.94 Q73.6004 1070.81 71.7717 1067.27 Q69.9661 1063.7 66.3319 1063.7 M66.3319 1060 Q72.142 1060 75.1976 1064.6 Q78.2763 1069.19 78.2763 1077.94 Q78.2763 1086.66 75.1976 1091.27 Q72.142 1095.85 66.3319 1095.85 Q60.5217 1095.85 57.443 1091.27 Q54.3875 1086.66 54.3875 1077.94 Q54.3875 1069.19 57.443 1064.6 Q60.5217 1060 66.3319 1060 Z" fill="#000000" fill-rule="nonzero" fill-opacity="1" /><path clip-path="url(#clip340)" d="M86.4938 1089.3 L91.378 1089.3 L91.378 1095.18 L86.4938 1095.18 L86.4938 1089.3 Z" fill="#000000" fill-rule="nonzero" fill-opacity="1" /><path clip-path="url(#clip340)" d="M105.591 1091.25 L121.91 1091.25 L121.91 1095.18 L99.966 1095.18 L99.966 1091.25 Q102.628 1088.49 107.211 1083.86 Q111.818 1079.21 112.998 1077.87 Q115.244 1075.34 116.123 1073.61 Q117.026 1071.85 117.026 1070.16 Q117.026 1067.4 115.082 1065.67 Q113.16 1063.93 110.058 1063.93 Q107.859 1063.93 105.406 1064.7 Q102.975 1065.46 100.197 1067.01 L100.197 1062.29 Q103.021 1061.15 105.475 1060.58 Q107.929 1060 109.966 1060 Q115.336 1060 118.531 1062.68 Q121.725 1065.37 121.725 1069.86 Q121.725 1071.99 120.915 1073.91 Q120.128 1075.81 118.021 1078.4 Q117.443 1079.07 114.341 1082.29 Q111.239 1085.48 105.591 1091.25 Z" fill="#000000" fill-rule="nonzero" fill-opacity="1" /><path clip-path="url(#clip340)" d="M131.771 1060.62 L150.128 1060.62 L150.128 1064.56 L136.054 1064.56 L136.054 1073.03 Q137.072 1072.68 138.091 1072.52 Q139.109 1072.34 140.128 1072.34 Q145.915 1072.34 149.294 1075.51 Q152.674 1078.68 152.674 1084.09 Q152.674 1089.67 149.202 1092.77 Q145.73 1095.85 139.41 1095.85 Q137.234 1095.85 134.966 1095.48 Q132.72 1095.11 130.313 1094.37 L130.313 1089.67 Q132.396 1090.81 134.619 1091.36 Q136.841 1091.92 139.318 1091.92 Q143.322 1091.92 145.66 1089.81 Q147.998 1087.71 147.998 1084.09 Q147.998 1080.48 145.66 1078.38 Q143.322 1076.27 139.318 1076.27 Q137.443 1076.27 135.568 1076.69 Q133.716 1077.1 131.771 1077.98 L131.771 1060.62 Z" fill="#000000" fill-rule="nonzero" fill-opacity="1" /><path clip-path="url(#clip340)" d="M65.3365 761.671 Q61.7254 761.671 59.8967 765.235 Q58.0912 768.777 58.0912 775.907 Q58.0912 783.013 59.8967 786.578 Q61.7254 790.12 65.3365 790.12 Q68.9707 790.12 70.7763 786.578 Q72.605 783.013 72.605 775.907 Q72.605 768.777 70.7763 765.235 Q68.9707 761.671 65.3365 761.671 M65.3365 757.967 Q71.1467 757.967 74.2022 762.573 Q77.2809 767.157 77.2809 775.907 Q77.2809 784.634 74.2022 789.24 Q71.1467 793.823 65.3365 793.823 Q59.5264 793.823 56.4477 789.24 Q53.3921 784.634 53.3921 775.907 Q53.3921 767.157 56.4477 762.573 Q59.5264 757.967 65.3365 757.967 Z" fill="#000000" fill-rule="nonzero" fill-opacity="1" /><path clip-path="url(#clip340)" d="M85.4984 787.272 L90.3827 787.272 L90.3827 793.152 L85.4984 793.152 L85.4984 787.272 Z" fill="#000000" fill-rule="nonzero" fill-opacity="1" /><path clip-path="url(#clip340)" d="M100.614 758.592 L118.97 758.592 L118.97 762.527 L104.896 762.527 L104.896 770.999 Q105.915 770.652 106.934 770.49 Q107.952 770.305 108.971 770.305 Q114.758 770.305 118.137 773.476 Q121.517 776.647 121.517 782.064 Q121.517 787.643 118.045 790.745 Q114.572 793.823 108.253 793.823 Q106.077 793.823 103.809 793.453 Q101.563 793.083 99.1558 792.342 L99.1558 787.643 Q101.239 788.777 103.461 789.333 Q105.684 789.888 108.16 789.888 Q112.165 789.888 114.503 787.782 Q116.841 785.675 116.841 782.064 Q116.841 778.453 114.503 776.347 Q112.165 774.24 108.16 774.24 Q106.285 774.24 104.41 774.657 Q102.559 775.073 100.614 775.953 L100.614 758.592 Z" fill="#000000" fill-rule="nonzero" fill-opacity="1" /><path clip-path="url(#clip340)" d="M140.73 761.671 Q137.119 761.671 135.29 765.235 Q133.484 768.777 133.484 775.907 Q133.484 783.013 135.29 786.578 Q137.119 790.12 140.73 790.12 Q144.364 790.12 146.169 786.578 Q147.998 783.013 147.998 775.907 Q147.998 768.777 146.169 765.235 Q144.364 761.671 140.73 761.671 M140.73 757.967 Q146.54 757.967 149.595 762.573 Q152.674 767.157 152.674 775.907 Q152.674 784.634 149.595 789.24 Q146.54 793.823 140.73 793.823 Q134.919 793.823 131.841 789.24 Q128.785 784.634 128.785 775.907 Q128.785 767.157 131.841 762.573 Q134.919 757.967 140.73 757.967 Z" fill="#000000" fill-rule="nonzero" fill-opacity="1" /><path clip-path="url(#clip340)" d="M66.3319 459.641 Q62.7208 459.641 60.8921 463.205 Q59.0865 466.747 59.0865 473.877 Q59.0865 480.983 60.8921 484.548 Q62.7208 488.089 66.3319 488.089 Q69.9661 488.089 71.7717 484.548 Q73.6004 480.983 73.6004 473.877 Q73.6004 466.747 71.7717 463.205 Q69.9661 459.641 66.3319 459.641 M66.3319 455.937 Q72.142 455.937 75.1976 460.543 Q78.2763 465.127 78.2763 473.877 Q78.2763 482.603 75.1976 487.21 Q72.142 491.793 66.3319 491.793 Q60.5217 491.793 57.443 487.21 Q54.3875 482.603 54.3875 473.877 Q54.3875 465.127 57.443 460.543 Q60.5217 455.937 66.3319 455.937 Z" fill="#000000" fill-rule="nonzero" fill-opacity="1" /><path clip-path="url(#clip340)" d="M86.4938 485.242 L91.378 485.242 L91.378 491.122 L86.4938 491.122 L86.4938 485.242 Z" fill="#000000" fill-rule="nonzero" fill-opacity="1" /><path clip-path="url(#clip340)" d="M100.383 456.562 L122.605 456.562 L122.605 458.553 L110.058 491.122 L105.174 491.122 L116.98 460.497 L100.383 460.497 L100.383 456.562 Z" fill="#000000" fill-rule="nonzero" fill-opacity="1" /><path clip-path="url(#clip340)" d="M131.771 456.562 L150.128 456.562 L150.128 460.497 L136.054 460.497 L136.054 468.969 Q137.072 468.622 138.091 468.46 Q139.109 468.275 140.128 468.275 Q145.915 468.275 149.294 471.446 Q152.674 474.617 152.674 480.034 Q152.674 485.613 149.202 488.714 Q145.73 491.793 139.41 491.793 Q137.234 491.793 134.966 491.423 Q132.72 491.052 130.313 490.312 L130.313 485.613 Q132.396 486.747 134.619 487.302 Q136.841 487.858 139.318 487.858 Q143.322 487.858 145.66 485.752 Q147.998 483.645 147.998 480.034 Q147.998 476.423 145.66 474.316 Q143.322 472.21 139.318 472.21 Q137.443 472.21 135.568 472.627 Q133.716 473.043 131.771 473.923 L131.771 456.562 Z" fill="#000000" fill-rule="nonzero" fill-opacity="1" /><path clip-path="url(#clip340)" d="M56.1467 185.157 L63.7856 185.157 L63.7856 158.791 L55.4754 160.458 L55.4754 156.198 L63.7393 154.532 L68.4152 154.532 L68.4152 185.157 L76.054 185.157 L76.054 189.092 L56.1467 189.092 L56.1467 185.157 Z" fill="#000000" fill-rule="nonzero" fill-opacity="1" /><path clip-path="url(#clip340)" d="M85.4984 183.212 L90.3827 183.212 L90.3827 189.092 L85.4984 189.092 L85.4984 183.212 Z" fill="#000000" fill-rule="nonzero" fill-opacity="1" /><path clip-path="url(#clip340)" d="M110.568 157.61 Q106.957 157.61 105.128 161.175 Q103.322 164.717 103.322 171.846 Q103.322 178.953 105.128 182.518 Q106.957 186.059 110.568 186.059 Q114.202 186.059 116.008 182.518 Q117.836 178.953 117.836 171.846 Q117.836 164.717 116.008 161.175 Q114.202 157.61 110.568 157.61 M110.568 153.907 Q116.378 153.907 119.433 158.513 Q122.512 163.097 122.512 171.846 Q122.512 180.573 119.433 185.18 Q116.378 189.763 110.568 189.763 Q104.758 189.763 101.679 185.18 Q98.6234 180.573 98.6234 171.846 Q98.6234 163.097 101.679 158.513 Q104.758 153.907 110.568 153.907 Z" fill="#000000" fill-rule="nonzero" fill-opacity="1" /><path clip-path="url(#clip340)" d="M140.73 157.61 Q137.119 157.61 135.29 161.175 Q133.484 164.717 133.484 171.846 Q133.484 178.953 135.29 182.518 Q137.119 186.059 140.73 186.059 Q144.364 186.059 146.169 182.518 Q147.998 178.953 147.998 171.846 Q147.998 164.717 146.169 161.175 Q144.364 157.61 140.73 157.61 M140.73 153.907 Q146.54 153.907 149.595 158.513 Q152.674 163.097 152.674 171.846 Q152.674 180.573 149.595 185.18 Q146.54 189.763 140.73 189.763 Q134.919 189.763 131.841 185.18 Q128.785 180.573 128.785 171.846 Q128.785 163.097 131.841 158.513 Q134.919 153.907 140.73 153.907 Z" fill="#000000" fill-rule="nonzero" fill-opacity="1" /><path clip-path="url(#clip340)" d="M746.549 18.8205 L746.549 41.5461 L756.839 41.5461 Q762.55 41.5461 765.67 38.5889 Q768.789 35.6318 768.789 30.163 Q768.789 24.7348 765.67 21.7777 Q762.55 18.8205 756.839 18.8205 L746.549 18.8205 M738.367 12.096 L756.839 12.096 Q767.006 12.096 772.192 16.714 Q777.417 21.2916 777.417 30.163 Q777.417 39.1155 772.192 43.6931 Q767.006 48.2706 756.839 48.2706 L746.549 48.2706 L746.549 72.576 L738.367 72.576 L738.367 12.096 Z" fill="#000000" fill-rule="nonzero" fill-opacity="1" /><path clip-path="url(#clip340)" d="M802.695 32.4315 Q796.7 32.4315 793.216 37.1306 Q789.732 41.7891 789.732 49.9314 Q789.732 58.0738 793.175 62.7728 Q796.659 67.4314 802.695 67.4314 Q808.65 67.4314 812.133 62.7323 Q815.617 58.0333 815.617 49.9314 Q815.617 41.8701 812.133 37.1711 Q808.65 32.4315 802.695 32.4315 M802.695 26.1121 Q812.417 26.1121 817.967 32.4315 Q823.517 38.7509 823.517 49.9314 Q823.517 61.0714 817.967 67.4314 Q812.417 73.7508 802.695 73.7508 Q792.932 73.7508 787.382 67.4314 Q781.873 61.0714 781.873 49.9314 Q781.873 38.7509 787.382 32.4315 Q792.932 26.1121 802.695 26.1121 Z" fill="#000000" fill-rule="nonzero" fill-opacity="1" /><path clip-path="url(#clip340)" d="M835.872 9.54393 L843.325 9.54393 L843.325 72.576 L835.872 72.576 L835.872 9.54393 Z" fill="#000000" fill-rule="nonzero" fill-opacity="1" /><path clip-path="url(#clip340)" d="M897.729 48.0275 L897.729 51.6733 L863.458 51.6733 Q863.945 59.3701 868.076 63.421 Q872.249 67.4314 879.662 67.4314 Q883.956 67.4314 887.966 66.3781 Q892.017 65.3249 895.987 63.2184 L895.987 70.267 Q891.977 71.9684 887.764 72.8596 Q883.551 73.7508 879.216 73.7508 Q868.36 73.7508 862 67.4314 Q855.681 61.1119 855.681 50.3365 Q855.681 39.1965 861.676 32.6746 Q867.712 26.1121 877.92 26.1121 Q887.075 26.1121 892.382 32.0264 Q897.729 37.9003 897.729 48.0275 M890.275 45.84 Q890.194 39.7232 886.832 36.0774 Q883.51 32.4315 878.001 32.4315 Q871.763 32.4315 867.995 35.9558 Q864.269 39.4801 863.701 45.8805 L890.275 45.84 Z" fill="#000000" fill-rule="nonzero" fill-opacity="1" /><path clip-path="url(#clip340)" d="M906.195 46.5287 L928.03 46.5287 L928.03 53.1722 L906.195 53.1722 L906.195 46.5287 Z" fill="#000000" fill-rule="nonzero" fill-opacity="1" /><path clip-path="url(#clip340)" d="M936.658 27.2059 L972.063 27.2059 L972.063 34.0114 L944.031 66.6212 L972.063 66.6212 L972.063 72.576 L935.646 72.576 L935.646 65.7705 L963.678 33.1607 L936.658 33.1607 L936.658 27.2059 Z" fill="#000000" fill-rule="nonzero" fill-opacity="1" /><path clip-path="url(#clip340)" d="M1022.25 48.0275 L1022.25 51.6733 L987.983 51.6733 Q988.469 59.3701 992.601 63.421 Q996.774 67.4314 1004.19 67.4314 Q1008.48 67.4314 1012.49 66.3781 Q1016.54 65.3249 1020.51 63.2184 L1020.51 70.267 Q1016.5 71.9684 1012.29 72.8596 Q1008.08 73.7508 1003.74 73.7508 Q992.885 73.7508 986.525 67.4314 Q980.205 61.1119 980.205 50.3365 Q980.205 39.1965 986.201 32.6746 Q992.237 26.1121 1002.44 26.1121 Q1011.6 26.1121 1016.91 32.0264 Q1022.25 37.9003 1022.25 48.0275 M1014.8 45.84 Q1014.72 39.7232 1011.36 36.0774 Q1008.04 32.4315 1002.53 32.4315 Q996.288 32.4315 992.52 35.9558 Q988.793 39.4801 988.226 45.8805 L1014.8 45.84 Z" fill="#000000" fill-rule="nonzero" fill-opacity="1" /><path clip-path="url(#clip340)" d="M1060.78 34.1734 Q1059.52 33.4443 1058.02 33.1202 Q1056.57 32.7556 1054.78 32.7556 Q1048.46 32.7556 1045.06 36.8875 Q1041.7 40.9789 1041.7 48.6757 L1041.7 72.576 L1034.2 72.576 L1034.2 27.2059 L1041.7 27.2059 L1041.7 34.2544 Q1044.05 30.1225 1047.82 28.1376 Q1051.58 26.1121 1056.97 26.1121 Q1057.74 26.1121 1058.67 26.2337 Q1059.6 26.3147 1060.74 26.5172 L1060.78 34.1734 Z" fill="#000000" fill-rule="nonzero" fill-opacity="1" /><path clip-path="url(#clip340)" d="M1084.35 32.4315 Q1078.36 32.4315 1074.88 37.1306 Q1071.39 41.7891 1071.39 49.9314 Q1071.39 58.0738 1074.83 62.7728 Q1078.32 67.4314 1084.35 67.4314 Q1090.31 67.4314 1093.79 62.7323 Q1097.28 58.0333 1097.28 49.9314 Q1097.28 41.8701 1093.79 37.1711 Q1090.31 32.4315 1084.35 32.4315 M1084.35 26.1121 Q1094.08 26.1121 1099.63 32.4315 Q1105.18 38.7509 1105.18 49.9314 Q1105.18 61.0714 1099.63 67.4314 Q1094.08 73.7508 1084.35 73.7508 Q1074.59 73.7508 1069.04 67.4314 Q1063.53 61.0714 1063.53 49.9314 Q1063.53 38.7509 1069.04 32.4315 Q1074.59 26.1121 1084.35 26.1121 Z" fill="#000000" fill-rule="nonzero" fill-opacity="1" /><path clip-path="url(#clip340)" d="M1179.23 35.9153 Q1182.02 30.8922 1185.91 28.5022 Q1189.8 26.1121 1195.07 26.1121 Q1202.15 26.1121 1206 31.0947 Q1209.85 36.0368 1209.85 45.1919 L1209.85 72.576 L1202.36 72.576 L1202.36 45.4349 Q1202.36 38.913 1200.05 35.7533 Q1197.74 32.5936 1193 32.5936 Q1187.21 32.5936 1183.84 36.4419 Q1180.48 40.2903 1180.48 46.9338 L1180.48 72.576 L1172.99 72.576 L1172.99 45.4349 Q1172.99 38.8725 1170.68 35.7533 Q1168.37 32.5936 1163.55 32.5936 Q1157.84 32.5936 1154.48 36.4824 Q1151.11 40.3308 1151.11 46.9338 L1151.11 72.576 L1143.62 72.576 L1143.62 27.2059 L1151.11 27.2059 L1151.11 34.2544 Q1153.67 30.082 1157.23 28.0971 Q1160.79 26.1121 1165.7 26.1121 Q1170.64 26.1121 1174.08 28.6237 Q1177.57 31.1352 1179.23 35.9153 Z" fill="#000000" fill-rule="nonzero" fill-opacity="1" /><path clip-path="url(#clip340)" d="M1245.34 49.7694 Q1236.3 49.7694 1232.82 51.8354 Q1229.34 53.9013 1229.34 58.8839 Q1229.34 62.8538 1231.93 65.2034 Q1234.56 67.5124 1239.06 67.5124 Q1245.26 67.5124 1248.98 63.1374 Q1252.75 58.7219 1252.75 51.4303 L1252.75 49.7694 L1245.34 49.7694 M1260.2 46.6907 L1260.2 72.576 L1252.75 72.576 L1252.75 65.6895 Q1250.2 69.8214 1246.39 71.8063 Q1242.58 73.7508 1237.07 73.7508 Q1230.11 73.7508 1225.97 69.8619 Q1221.88 65.9325 1221.88 59.3701 Q1221.88 51.7138 1226.99 47.825 Q1232.13 43.9361 1242.3 43.9361 L1252.75 43.9361 L1252.75 43.2069 Q1252.75 38.0623 1249.35 35.2672 Q1245.99 32.4315 1239.87 32.4315 Q1235.98 32.4315 1232.29 33.3632 Q1228.61 34.295 1225.2 36.1584 L1225.2 29.2718 Q1229.3 27.692 1233.14 26.9223 Q1236.99 26.1121 1240.64 26.1121 Q1250.48 26.1121 1255.34 31.2163 Q1260.2 36.3204 1260.2 46.6907 Z" fill="#000000" fill-rule="nonzero" fill-opacity="1" /><path clip-path="url(#clip340)" d="M1282.77 65.7705 L1282.77 89.8329 L1275.27 89.8329 L1275.27 27.2059 L1282.77 27.2059 L1282.77 34.0924 Q1285.12 30.0415 1288.68 28.0971 Q1292.29 26.1121 1297.27 26.1121 Q1305.53 26.1121 1310.68 32.6746 Q1315.86 39.2371 1315.86 49.9314 Q1315.86 60.6258 1310.68 67.1883 Q1305.53 73.7508 1297.27 73.7508 Q1292.29 73.7508 1288.68 71.8063 Q1285.12 69.8214 1282.77 65.7705 M1308.13 49.9314 Q1308.13 41.7081 1304.72 37.0496 Q1301.36 32.3505 1295.45 32.3505 Q1289.53 32.3505 1286.13 37.0496 Q1282.77 41.7081 1282.77 49.9314 Q1282.77 58.1548 1286.13 62.8538 Q1289.53 67.5124 1295.45 67.5124 Q1301.36 67.5124 1304.72 62.8538 Q1308.13 58.1548 1308.13 49.9314 Z" fill="#000000" fill-rule="nonzero" fill-opacity="1" /><line clip-path="url(#clip342)" x1="229.34" y1="1379.93" x2="169.34" y2="1319.93" style="stroke:#009af9; stroke-width:3.072; stroke-opacity:0.5"/>
<line clip-path="url(#clip342)" x1="229.34" y1="1379.93" x2="169.34" y2="1439.93" style="stroke:#009af9; stroke-width:3.072; stroke-opacity:0.5"/>
<line clip-path="url(#clip342)" x1="229.34" y1="1379.93" x2="289.34" y2="1439.93" style="stroke:#009af9; stroke-width:3.072; stroke-opacity:0.5"/>
<line clip-path="url(#clip342)" x1="229.34" y1="1379.93" x2="289.34" y2="1319.93" style="stroke:#009af9; stroke-width:3.072; stroke-opacity:0.5"/>
<line clip-path="url(#clip342)" x1="231.466" y1="1379.93" x2="171.466" y2="1319.93" style="stroke:#009af9; stroke-width:3.072; stroke-opacity:0.5"/>
<line clip-path="url(#clip342)" x1="231.466" y1="1379.93" x2="171.466" y2="1439.93" style="stroke:#009af9; stroke-width:3.072; stroke-opacity:0.5"/>
<line clip-path="url(#clip342)" x1="231.466" y1="1379.93" x2="291.466" y2="1439.93" style="stroke:#009af9; stroke-width:3.072; stroke-opacity:0.5"/>
<line clip-path="url(#clip342)" x1="231.466" y1="1379.93" x2="291.466" y2="1319.93" style="stroke:#009af9; stroke-width:3.072; stroke-opacity:0.5"/>
<line clip-path="url(#clip342)" x1="1745.17" y1="1379.93" x2="1685.17" y2="1319.93" style="stroke:#009af9; stroke-width:3.072; stroke-opacity:0.5"/>
<line clip-path="url(#clip342)" x1="1745.17" y1="1379.93" x2="1685.17" y2="1439.93" style="stroke:#009af9; stroke-width:3.072; stroke-opacity:0.5"/>
<line clip-path="url(#clip342)" x1="1745.17" y1="1379.93" x2="1805.17" y2="1439.93" style="stroke:#009af9; stroke-width:3.072; stroke-opacity:0.5"/>
<line clip-path="url(#clip342)" x1="1745.17" y1="1379.93" x2="1805.17" y2="1319.93" style="stroke:#009af9; stroke-width:3.072; stroke-opacity:0.5"/>
<line clip-path="url(#clip342)" x1="1506.2" y1="1379.93" x2="1446.2" y2="1319.93" style="stroke:#009af9; stroke-width:3.072; stroke-opacity:0.5"/>
<line clip-path="url(#clip342)" x1="1506.2" y1="1379.93" x2="1446.2" y2="1439.93" style="stroke:#009af9; stroke-width:3.072; stroke-opacity:0.5"/>
<line clip-path="url(#clip342)" x1="1506.2" y1="1379.93" x2="1566.2" y2="1439.93" style="stroke:#009af9; stroke-width:3.072; stroke-opacity:0.5"/>
<line clip-path="url(#clip342)" x1="1506.2" y1="1379.93" x2="1566.2" y2="1319.93" style="stroke:#009af9; stroke-width:3.072; stroke-opacity:0.5"/>
<line clip-path="url(#clip342)" x1="1505.78" y1="1379.93" x2="1445.78" y2="1319.93" style="stroke:#009af9; stroke-width:3.072; stroke-opacity:0.5"/>
<line clip-path="url(#clip342)" x1="1505.78" y1="1379.93" x2="1445.78" y2="1439.93" style="stroke:#009af9; stroke-width:3.072; stroke-opacity:0.5"/>
<line clip-path="url(#clip342)" x1="1505.78" y1="1379.93" x2="1565.78" y2="1439.93" style="stroke:#009af9; stroke-width:3.072; stroke-opacity:0.5"/>
<line clip-path="url(#clip342)" x1="1505.78" y1="1379.93" x2="1565.78" y2="1319.93" style="stroke:#009af9; stroke-width:3.072; stroke-opacity:0.5"/>
<line clip-path="url(#clip342)" x1="1426.27" y1="1379.93" x2="1366.27" y2="1319.93" style="stroke:#009af9; stroke-width:3.072; stroke-opacity:0.5"/>
<line clip-path="url(#clip342)" x1="1426.27" y1="1379.93" x2="1366.27" y2="1439.93" style="stroke:#009af9; stroke-width:3.072; stroke-opacity:0.5"/>
<line clip-path="url(#clip342)" x1="1426.27" y1="1379.93" x2="1486.27" y2="1439.93" style="stroke:#009af9; stroke-width:3.072; stroke-opacity:0.5"/>
<line clip-path="url(#clip342)" x1="1426.27" y1="1379.93" x2="1486.27" y2="1319.93" style="stroke:#009af9; stroke-width:3.072; stroke-opacity:0.5"/>
</svg>
