<?xml version="1.0" encoding="utf-8"?>
<svg xmlns="http://www.w3.org/2000/svg" xmlns:xlink="http://www.w3.org/1999/xlink" width="672" height="480" viewBox="0 0 2688 1920">
<defs>
  <clipPath id="clip420">
    <rect x="0" y="0" width="2688" height="1920"/>
  </clipPath>
</defs>
<path clip-path="url(#clip420)" d="M0 1920 L2688 1920 L2688 0 L0 0  Z" fill="#ffffff" fill-rule="evenodd" fill-opacity="1"/>
<defs>
  <clipPath id="clip421">
    <rect x="537" y="0" width="1883" height="1883"/>
  </clipPath>
</defs>
<path clip-path="url(#clip420)" d="M189.154 1800.78 L2640.76 1800.78 L2640.76 127.792 L189.154 127.792  Z" fill="#ffffff" fill-rule="evenodd" fill-opacity="1"/>
<defs>
  <clipPath id="clip422">
    <rect x="189" y="127" width="2453" height="1674"/>
  </clipPath>
</defs>
<polyline clip-path="url(#clip422)" style="stroke:#000000; stroke-linecap:round; stroke-linejoin:round; stroke-width:2; stroke-opacity:0.1; fill:none" points="258.539,1800.78 258.539,127.792 "/>
<polyline clip-path="url(#clip422)" style="stroke:#000000; stroke-linecap:round; stroke-linejoin:round; stroke-width:2; stroke-opacity:0.1; fill:none" points="836.747,1800.78 836.747,127.792 "/>
<polyline clip-path="url(#clip422)" style="stroke:#000000; stroke-linecap:round; stroke-linejoin:round; stroke-width:2; stroke-opacity:0.1; fill:none" points="1414.95,1800.78 1414.95,127.792 "/>
<polyline clip-path="url(#clip422)" style="stroke:#000000; stroke-linecap:round; stroke-linejoin:round; stroke-width:2; stroke-opacity:0.1; fill:none" points="1993.16,1800.78 1993.16,127.792 "/>
<polyline clip-path="url(#clip422)" style="stroke:#000000; stroke-linecap:round; stroke-linejoin:round; stroke-width:2; stroke-opacity:0.1; fill:none" points="2571.37,1800.78 2571.37,127.792 "/>
<polyline clip-path="url(#clip422)" style="stroke:#000000; stroke-linecap:round; stroke-linejoin:round; stroke-width:2; stroke-opacity:0.1; fill:none" points="189.154,1753.43 2640.76,1753.43 "/>
<polyline clip-path="url(#clip422)" style="stroke:#000000; stroke-linecap:round; stroke-linejoin:round; stroke-width:2; stroke-opacity:0.1; fill:none" points="189.154,1358.86 2640.76,1358.86 "/>
<polyline clip-path="url(#clip422)" style="stroke:#000000; stroke-linecap:round; stroke-linejoin:round; stroke-width:2; stroke-opacity:0.1; fill:none" points="189.154,964.286 2640.76,964.286 "/>
<polyline clip-path="url(#clip422)" style="stroke:#000000; stroke-linecap:round; stroke-linejoin:round; stroke-width:2; stroke-opacity:0.1; fill:none" points="189.154,569.713 2640.76,569.713 "/>
<polyline clip-path="url(#clip422)" style="stroke:#000000; stroke-linecap:round; stroke-linejoin:round; stroke-width:2; stroke-opacity:0.1; fill:none" points="189.154,175.141 2640.76,175.141 "/>
<polyline clip-path="url(#clip420)" style="stroke:#000000; stroke-linecap:round; stroke-linejoin:round; stroke-width:4; stroke-opacity:1; fill:none" points="189.154,1753.43 2640.76,1753.43 "/>
<polyline clip-path="url(#clip420)" style="stroke:#000000; stroke-linecap:round; stroke-linejoin:round; stroke-width:4; stroke-opacity:0; fill:none" points="258.539,1753.43 258.539,1753.43 "/>
<polyline clip-path="url(#clip420)" style="stroke:#000000; stroke-linecap:round; stroke-linejoin:round; stroke-width:4; stroke-opacity:0; fill:none" points="836.747,1753.43 836.747,1753.43 "/>
<polyline clip-path="url(#clip420)" style="stroke:#000000; stroke-linecap:round; stroke-linejoin:round; stroke-width:4; stroke-opacity:0; fill:none" points="1414.95,1753.43 1414.95,1753.43 "/>
<polyline clip-path="url(#clip420)" style="stroke:#000000; stroke-linecap:round; stroke-linejoin:round; stroke-width:4; stroke-opacity:0; fill:none" points="1993.16,1753.43 1993.16,1753.43 "/>
<polyline clip-path="url(#clip420)" style="stroke:#000000; stroke-linecap:round; stroke-linejoin:round; stroke-width:4; stroke-opacity:0; fill:none" points="2571.37,1753.43 2571.37,1753.43 "/>
<path clip-path="url(#clip420)" d="M212.602 1848.65 L242.277 1848.65 L242.277 1852.59 L212.602 1852.59 L212.602 1848.65 Z" fill="#000000" fill-rule="nonzero" fill-opacity="1" /><path clip-path="url(#clip420)" d="M256.398 1861.55 L272.717 1861.55 L272.717 1865.48 L250.773 1865.48 L250.773 1861.55 Q253.435 1858.79 258.018 1854.16 Q262.625 1849.51 263.805 1848.17 Q266.05 1845.65 266.93 1843.91 Q267.833 1842.15 267.833 1840.46 Q267.833 1837.71 265.888 1835.97 Q263.967 1834.23 260.865 1834.23 Q258.666 1834.23 256.213 1835 Q253.782 1835.76 251.004 1837.31 L251.004 1832.59 Q253.828 1831.46 256.282 1830.88 Q258.736 1830.3 260.773 1830.3 Q266.143 1830.3 269.338 1832.98 Q272.532 1835.67 272.532 1840.16 Q272.532 1842.29 271.722 1844.21 Q270.935 1846.11 268.828 1848.7 Q268.25 1849.37 265.148 1852.59 Q262.046 1855.78 256.398 1861.55 Z" fill="#000000" fill-rule="nonzero" fill-opacity="1" /><path clip-path="url(#clip420)" d="M292.532 1834 Q288.921 1834 287.092 1837.57 Q285.287 1841.11 285.287 1848.24 Q285.287 1855.34 287.092 1858.91 Q288.921 1862.45 292.532 1862.45 Q296.166 1862.45 297.972 1858.91 Q299.8 1855.34 299.8 1848.24 Q299.8 1841.11 297.972 1837.57 Q296.166 1834 292.532 1834 M292.532 1830.3 Q298.342 1830.3 301.398 1834.9 Q304.476 1839.49 304.476 1848.24 Q304.476 1856.96 301.398 1861.57 Q298.342 1866.15 292.532 1866.15 Q286.722 1866.15 283.643 1861.57 Q280.587 1856.96 280.587 1848.24 Q280.587 1839.49 283.643 1834.9 Q286.722 1830.3 292.532 1830.3 Z" fill="#000000" fill-rule="nonzero" fill-opacity="1" /><path clip-path="url(#clip420)" d="M791.307 1848.65 L820.983 1848.65 L820.983 1852.59 L791.307 1852.59 L791.307 1848.65 Z" fill="#000000" fill-rule="nonzero" fill-opacity="1" /><path clip-path="url(#clip420)" d="M831.886 1861.55 L839.525 1861.55 L839.525 1835.18 L831.215 1836.85 L831.215 1832.59 L839.478 1830.92 L844.154 1830.92 L844.154 1861.55 L851.793 1861.55 L851.793 1865.48 L831.886 1865.48 L831.886 1861.55 Z" fill="#000000" fill-rule="nonzero" fill-opacity="1" /><path clip-path="url(#clip420)" d="M861.284 1830.92 L879.64 1830.92 L879.64 1834.86 L865.566 1834.86 L865.566 1843.33 Q866.585 1842.98 867.603 1842.82 Q868.622 1842.64 869.64 1842.64 Q875.427 1842.64 878.807 1845.81 Q882.187 1848.98 882.187 1854.4 Q882.187 1859.97 878.714 1863.08 Q875.242 1866.15 868.923 1866.15 Q866.747 1866.15 864.478 1865.78 Q862.233 1865.41 859.826 1864.67 L859.826 1859.97 Q861.909 1861.11 864.131 1861.66 Q866.353 1862.22 868.83 1862.22 Q872.835 1862.22 875.173 1860.11 Q877.511 1858.01 877.511 1854.4 Q877.511 1850.78 875.173 1848.68 Q872.835 1846.57 868.83 1846.57 Q866.955 1846.57 865.08 1846.99 Q863.228 1847.4 861.284 1848.28 L861.284 1830.92 Z" fill="#000000" fill-rule="nonzero" fill-opacity="1" /><path clip-path="url(#clip420)" d="M1369.02 1848.65 L1398.69 1848.65 L1398.69 1852.59 L1369.02 1852.59 L1369.02 1848.65 Z" fill="#000000" fill-rule="nonzero" fill-opacity="1" /><path clip-path="url(#clip420)" d="M1409.6 1861.55 L1417.24 1861.55 L1417.24 1835.18 L1408.92 1836.85 L1408.92 1832.59 L1417.19 1830.92 L1421.86 1830.92 L1421.86 1861.55 L1429.5 1861.55 L1429.5 1865.48 L1409.6 1865.48 L1409.6 1861.55 Z" fill="#000000" fill-rule="nonzero" fill-opacity="1" /><path clip-path="url(#clip420)" d="M1448.95 1834 Q1445.34 1834 1443.51 1837.57 Q1441.7 1841.11 1441.7 1848.24 Q1441.7 1855.34 1443.51 1858.91 Q1445.34 1862.45 1448.95 1862.45 Q1452.58 1862.45 1454.39 1858.91 Q1456.22 1855.34 1456.22 1848.24 Q1456.22 1841.11 1454.39 1837.57 Q1452.58 1834 1448.95 1834 M1448.95 1830.3 Q1454.76 1830.3 1457.81 1834.9 Q1460.89 1839.49 1460.89 1848.24 Q1460.89 1856.96 1457.81 1861.57 Q1454.76 1866.15 1448.95 1866.15 Q1443.14 1866.15 1440.06 1861.57 Q1437 1856.96 1437 1848.24 Q1437 1839.49 1440.06 1834.9 Q1443.14 1830.3 1448.95 1830.3 Z" fill="#000000" fill-rule="nonzero" fill-opacity="1" /><path clip-path="url(#clip420)" d="M1962.8 1848.65 L1992.48 1848.65 L1992.48 1852.59 L1962.8 1852.59 L1962.8 1848.65 Z" fill="#000000" fill-rule="nonzero" fill-opacity="1" /><path clip-path="url(#clip420)" d="M2002.62 1830.92 L2020.98 1830.92 L2020.98 1834.86 L2006.9 1834.86 L2006.9 1843.33 Q2007.92 1842.98 2008.94 1842.82 Q2009.96 1842.64 2010.98 1842.64 Q2016.76 1842.64 2020.14 1845.81 Q2023.52 1848.98 2023.52 1854.4 Q2023.52 1859.97 2020.05 1863.08 Q2016.58 1866.15 2010.26 1866.15 Q2008.08 1866.15 2005.81 1865.78 Q2003.57 1865.41 2001.16 1864.67 L2001.16 1859.97 Q2003.24 1861.11 2005.47 1861.66 Q2007.69 1862.22 2010.17 1862.22 Q2014.17 1862.22 2016.51 1860.11 Q2018.85 1858.01 2018.85 1854.4 Q2018.85 1850.78 2016.51 1848.68 Q2014.17 1846.57 2010.17 1846.57 Q2008.29 1846.57 2006.42 1846.99 Q2004.56 1847.4 2002.62 1848.28 L2002.62 1830.92 Z" fill="#000000" fill-rule="nonzero" fill-opacity="1" /><path clip-path="url(#clip420)" d="M2571.37 1834 Q2567.76 1834 2565.93 1837.57 Q2564.13 1841.11 2564.13 1848.24 Q2564.13 1855.34 2565.93 1858.91 Q2567.76 1862.45 2571.37 1862.45 Q2575.01 1862.45 2576.81 1858.91 Q2578.64 1855.34 2578.64 1848.24 Q2578.64 1841.11 2576.81 1837.57 Q2575.01 1834 2571.37 1834 M2571.37 1830.3 Q2577.18 1830.3 2580.24 1834.9 Q2583.32 1839.49 2583.32 1848.24 Q2583.32 1856.96 2580.24 1861.57 Q2577.18 1866.15 2571.37 1866.15 Q2565.56 1866.15 2562.48 1861.57 Q2559.43 1856.96 2559.43 1848.24 Q2559.43 1839.49 2562.48 1834.9 Q2565.56 1830.3 2571.37 1830.3 Z" fill="#000000" fill-rule="nonzero" fill-opacity="1" /><polyline clip-path="url(#clip420)" style="stroke:#000000; stroke-linecap:round; stroke-linejoin:round; stroke-width:4; stroke-opacity:1; fill:none" points="2571.37,1800.78 2571.37,127.792 "/>
<polyline clip-path="url(#clip420)" style="stroke:#000000; stroke-linecap:round; stroke-linejoin:round; stroke-width:4; stroke-opacity:0; fill:none" points="2571.37,1753.43 2571.37,1753.43 "/>
<polyline clip-path="url(#clip420)" style="stroke:#000000; stroke-linecap:round; stroke-linejoin:round; stroke-width:4; stroke-opacity:0; fill:none" points="2571.37,1358.86 2571.37,1358.86 "/>
<polyline clip-path="url(#clip420)" style="stroke:#000000; stroke-linecap:round; stroke-linejoin:round; stroke-width:4; stroke-opacity:0; fill:none" points="2571.37,964.286 2571.37,964.286 "/>
<polyline clip-path="url(#clip420)" style="stroke:#000000; stroke-linecap:round; stroke-linejoin:round; stroke-width:4; stroke-opacity:0; fill:none" points="2571.37,569.713 2571.37,569.713 "/>
<polyline clip-path="url(#clip420)" style="stroke:#000000; stroke-linecap:round; stroke-linejoin:round; stroke-width:4; stroke-opacity:0; fill:none" points="2571.37,175.141 2571.37,175.141 "/>
<path clip-path="url(#clip420)" d="M61.4965 1739.23 Q57.8854 1739.23 56.0567 1742.79 Q54.2512 1746.34 54.2512 1753.47 Q54.2512 1760.57 56.0567 1764.14 Q57.8854 1767.68 61.4965 1767.68 Q65.1307 1767.68 66.9363 1764.14 Q68.765 1760.57 68.765 1753.47 Q68.765 1746.34 66.9363 1742.79 Q65.1307 1739.23 61.4965 1739.23 M61.4965 1735.53 Q67.3067 1735.53 70.3622 1740.13 Q73.4409 1744.72 73.4409 1753.47 Q73.4409 1762.19 70.3622 1766.8 Q67.3067 1771.38 61.4965 1771.38 Q55.6864 1771.38 52.6077 1766.8 Q49.5521 1762.19 49.5521 1753.47 Q49.5521 1744.72 52.6077 1740.13 Q55.6864 1735.53 61.4965 1735.53 Z" fill="#000000" fill-rule="nonzero" fill-opacity="1" /><path clip-path="url(#clip420)" d="M81.6584 1764.83 L86.5427 1764.83 L86.5427 1770.71 L81.6584 1770.71 L81.6584 1764.83 Z" fill="#000000" fill-rule="nonzero" fill-opacity="1" /><path clip-path="url(#clip420)" d="M106.728 1739.23 Q103.117 1739.23 101.288 1742.79 Q99.4824 1746.34 99.4824 1753.47 Q99.4824 1760.57 101.288 1764.14 Q103.117 1767.68 106.728 1767.68 Q110.362 1767.68 112.168 1764.14 Q113.996 1760.57 113.996 1753.47 Q113.996 1746.34 112.168 1742.79 Q110.362 1739.23 106.728 1739.23 M106.728 1735.53 Q112.538 1735.53 115.593 1740.13 Q118.672 1744.72 118.672 1753.47 Q118.672 1762.19 115.593 1766.8 Q112.538 1771.38 106.728 1771.38 Q100.918 1771.38 97.8389 1766.8 Q94.7834 1762.19 94.7834 1753.47 Q94.7834 1744.72 97.8389 1740.13 Q100.918 1735.53 106.728 1735.53 Z" fill="#000000" fill-rule="nonzero" fill-opacity="1" /><path clip-path="url(#clip420)" d="M136.89 1739.23 Q133.279 1739.23 131.45 1742.79 Q129.644 1746.34 129.644 1753.47 Q129.644 1760.57 131.45 1764.14 Q133.279 1767.68 136.89 1767.68 Q140.524 1767.68 142.329 1764.14 Q144.158 1760.57 144.158 1753.47 Q144.158 1746.34 142.329 1742.79 Q140.524 1739.23 136.89 1739.23 M136.89 1735.53 Q142.7 1735.53 145.755 1740.13 Q148.834 1744.72 148.834 1753.47 Q148.834 1762.19 145.755 1766.8 Q142.7 1771.38 136.89 1771.38 Q131.079 1771.38 128.001 1766.8 Q124.945 1762.19 124.945 1753.47 Q124.945 1744.72 128.001 1740.13 Q131.079 1735.53 136.89 1735.53 Z" fill="#000000" fill-rule="nonzero" fill-opacity="1" /><path clip-path="url(#clip420)" d="M62.4919 1344.66 Q58.8808 1344.66 57.0521 1348.22 Q55.2465 1351.76 55.2465 1358.89 Q55.2465 1366 57.0521 1369.56 Q58.8808 1373.11 62.4919 1373.11 Q66.1261 1373.11 67.9317 1369.56 Q69.7604 1366 69.7604 1358.89 Q69.7604 1351.76 67.9317 1348.22 Q66.1261 1344.66 62.4919 1344.66 M62.4919 1340.95 Q68.302 1340.95 71.3576 1345.56 Q74.4363 1350.14 74.4363 1358.89 Q74.4363 1367.62 71.3576 1372.23 Q68.302 1376.81 62.4919 1376.81 Q56.6817 1376.81 53.603 1372.23 Q50.5475 1367.62 50.5475 1358.89 Q50.5475 1350.14 53.603 1345.56 Q56.6817 1340.95 62.4919 1340.95 Z" fill="#000000" fill-rule="nonzero" fill-opacity="1" /><path clip-path="url(#clip420)" d="M82.6538 1370.26 L87.538 1370.26 L87.538 1376.14 L82.6538 1376.14 L82.6538 1370.26 Z" fill="#000000" fill-rule="nonzero" fill-opacity="1" /><path clip-path="url(#clip420)" d="M101.751 1372.2 L118.07 1372.2 L118.07 1376.14 L96.126 1376.14 L96.126 1372.2 Q98.788 1369.45 103.371 1364.82 Q107.978 1360.17 109.158 1358.82 Q111.404 1356.3 112.283 1354.56 Q113.186 1352.8 113.186 1351.12 Q113.186 1348.36 111.242 1346.62 Q109.32 1344.89 106.218 1344.89 Q104.019 1344.89 101.566 1345.65 Q99.1352 1346.42 96.3574 1347.97 L96.3574 1343.24 Q99.1815 1342.11 101.635 1341.53 Q104.089 1340.95 106.126 1340.95 Q111.496 1340.95 114.691 1343.64 Q117.885 1346.32 117.885 1350.81 Q117.885 1352.94 117.075 1354.87 Q116.288 1356.76 114.181 1359.36 Q113.603 1360.03 110.501 1363.24 Q107.399 1366.44 101.751 1372.2 Z" fill="#000000" fill-rule="nonzero" fill-opacity="1" /><path clip-path="url(#clip420)" d="M127.931 1341.58 L146.288 1341.58 L146.288 1345.51 L132.214 1345.51 L132.214 1353.99 Q133.232 1353.64 134.251 1353.48 Q135.269 1353.29 136.288 1353.29 Q142.075 1353.29 145.454 1356.46 Q148.834 1359.63 148.834 1365.05 Q148.834 1370.63 145.362 1373.73 Q141.89 1376.81 135.57 1376.81 Q133.394 1376.81 131.126 1376.44 Q128.88 1376.07 126.473 1375.33 L126.473 1370.63 Q128.556 1371.76 130.779 1372.32 Q133.001 1372.87 135.478 1372.87 Q139.482 1372.87 141.82 1370.77 Q144.158 1368.66 144.158 1365.05 Q144.158 1361.44 141.82 1359.33 Q139.482 1357.23 135.478 1357.23 Q133.603 1357.23 131.728 1357.64 Q129.876 1358.06 127.931 1358.94 L127.931 1341.58 Z" fill="#000000" fill-rule="nonzero" fill-opacity="1" /><path clip-path="url(#clip420)" d="M61.4965 950.084 Q57.8854 950.084 56.0567 953.649 Q54.2512 957.191 54.2512 964.32 Q54.2512 971.427 56.0567 974.992 Q57.8854 978.533 61.4965 978.533 Q65.1307 978.533 66.9363 974.992 Q68.765 971.427 68.765 964.32 Q68.765 957.191 66.9363 953.649 Q65.1307 950.084 61.4965 950.084 M61.4965 946.381 Q67.3067 946.381 70.3622 950.987 Q73.4409 955.57 73.4409 964.32 Q73.4409 973.047 70.3622 977.654 Q67.3067 982.237 61.4965 982.237 Q55.6864 982.237 52.6077 977.654 Q49.5521 973.047 49.5521 964.32 Q49.5521 955.57 52.6077 950.987 Q55.6864 946.381 61.4965 946.381 Z" fill="#000000" fill-rule="nonzero" fill-opacity="1" /><path clip-path="url(#clip420)" d="M81.6584 975.686 L86.5427 975.686 L86.5427 981.566 L81.6584 981.566 L81.6584 975.686 Z" fill="#000000" fill-rule="nonzero" fill-opacity="1" /><path clip-path="url(#clip420)" d="M96.7741 947.006 L115.13 947.006 L115.13 950.941 L101.056 950.941 L101.056 959.413 Q102.075 959.066 103.094 958.904 Q104.112 958.719 105.131 958.719 Q110.918 958.719 114.297 961.89 Q117.677 965.061 117.677 970.478 Q117.677 976.056 114.205 979.158 Q110.732 982.237 104.413 982.237 Q102.237 982.237 99.9685 981.867 Q97.7232 981.496 95.3158 980.756 L95.3158 976.056 Q97.3991 977.191 99.6213 977.746 Q101.844 978.302 104.32 978.302 Q108.325 978.302 110.663 976.195 Q113.001 974.089 113.001 970.478 Q113.001 966.867 110.663 964.76 Q108.325 962.654 104.32 962.654 Q102.445 962.654 100.57 963.07 Q98.7185 963.487 96.7741 964.367 L96.7741 947.006 Z" fill="#000000" fill-rule="nonzero" fill-opacity="1" /><path clip-path="url(#clip420)" d="M136.89 950.084 Q133.279 950.084 131.45 953.649 Q129.644 957.191 129.644 964.32 Q129.644 971.427 131.45 974.992 Q133.279 978.533 136.89 978.533 Q140.524 978.533 142.329 974.992 Q144.158 971.427 144.158 964.32 Q144.158 957.191 142.329 953.649 Q140.524 950.084 136.89 950.084 M136.89 946.381 Q142.7 946.381 145.755 950.987 Q148.834 955.57 148.834 964.32 Q148.834 973.047 145.755 977.654 Q142.7 982.237 136.89 982.237 Q131.079 982.237 128.001 977.654 Q124.945 973.047 124.945 964.32 Q124.945 955.57 128.001 950.987 Q131.079 946.381 136.89 946.381 Z" fill="#000000" fill-rule="nonzero" fill-opacity="1" /><path clip-path="url(#clip420)" d="M62.4919 555.512 Q58.8808 555.512 57.0521 559.077 Q55.2465 562.618 55.2465 569.748 Q55.2465 576.854 57.0521 580.419 Q58.8808 583.961 62.4919 583.961 Q66.1261 583.961 67.9317 580.419 Q69.7604 576.854 69.7604 569.748 Q69.7604 562.618 67.9317 559.077 Q66.1261 555.512 62.4919 555.512 M62.4919 551.808 Q68.302 551.808 71.3576 556.415 Q74.4363 560.998 74.4363 569.748 Q74.4363 578.475 71.3576 583.081 Q68.302 587.665 62.4919 587.665 Q56.6817 587.665 53.603 583.081 Q50.5475 578.475 50.5475 569.748 Q50.5475 560.998 53.603 556.415 Q56.6817 551.808 62.4919 551.808 Z" fill="#000000" fill-rule="nonzero" fill-opacity="1" /><path clip-path="url(#clip420)" d="M82.6538 581.114 L87.538 581.114 L87.538 586.993 L82.6538 586.993 L82.6538 581.114 Z" fill="#000000" fill-rule="nonzero" fill-opacity="1" /><path clip-path="url(#clip420)" d="M96.5426 552.433 L118.765 552.433 L118.765 554.424 L106.218 586.993 L101.334 586.993 L113.14 556.368 L96.5426 556.368 L96.5426 552.433 Z" fill="#000000" fill-rule="nonzero" fill-opacity="1" /><path clip-path="url(#clip420)" d="M127.931 552.433 L146.288 552.433 L146.288 556.368 L132.214 556.368 L132.214 564.841 Q133.232 564.493 134.251 564.331 Q135.269 564.146 136.288 564.146 Q142.075 564.146 145.454 567.317 Q148.834 570.489 148.834 575.905 Q148.834 581.484 145.362 584.586 Q141.89 587.665 135.57 587.665 Q133.394 587.665 131.126 587.294 Q128.88 586.924 126.473 586.183 L126.473 581.484 Q128.556 582.618 130.779 583.174 Q133.001 583.729 135.478 583.729 Q139.482 583.729 141.82 581.623 Q144.158 579.516 144.158 575.905 Q144.158 572.294 141.82 570.188 Q139.482 568.081 135.478 568.081 Q133.603 568.081 131.728 568.498 Q129.876 568.915 127.931 569.794 L127.931 552.433 Z" fill="#000000" fill-rule="nonzero" fill-opacity="1" /><path clip-path="url(#clip420)" d="M52.3067 188.486 L59.9456 188.486 L59.9456 162.12 L51.6354 163.787 L51.6354 159.527 L59.8993 157.861 L64.5752 157.861 L64.5752 188.486 L72.214 188.486 L72.214 192.421 L52.3067 192.421 L52.3067 188.486 Z" fill="#000000" fill-rule="nonzero" fill-opacity="1" /><path clip-path="url(#clip420)" d="M81.6584 186.541 L86.5427 186.541 L86.5427 192.421 L81.6584 192.421 L81.6584 186.541 Z" fill="#000000" fill-rule="nonzero" fill-opacity="1" /><path clip-path="url(#clip420)" d="M106.728 160.94 Q103.117 160.94 101.288 164.504 Q99.4824 168.046 99.4824 175.176 Q99.4824 182.282 101.288 185.847 Q103.117 189.388 106.728 189.388 Q110.362 189.388 112.168 185.847 Q113.996 182.282 113.996 175.176 Q113.996 168.046 112.168 164.504 Q110.362 160.94 106.728 160.94 M106.728 157.236 Q112.538 157.236 115.593 161.842 Q118.672 166.426 118.672 175.176 Q118.672 183.902 115.593 188.509 Q112.538 193.092 106.728 193.092 Q100.918 193.092 97.8389 188.509 Q94.7834 183.902 94.7834 175.176 Q94.7834 166.426 97.8389 161.842 Q100.918 157.236 106.728 157.236 Z" fill="#000000" fill-rule="nonzero" fill-opacity="1" /><path clip-path="url(#clip420)" d="M136.89 160.94 Q133.279 160.94 131.45 164.504 Q129.644 168.046 129.644 175.176 Q129.644 182.282 131.45 185.847 Q133.279 189.388 136.89 189.388 Q140.524 189.388 142.329 185.847 Q144.158 182.282 144.158 175.176 Q144.158 168.046 142.329 164.504 Q140.524 160.94 136.89 160.94 M136.89 157.236 Q142.7 157.236 145.755 161.842 Q148.834 166.426 148.834 175.176 Q148.834 183.902 145.755 188.509 Q142.7 193.092 136.89 193.092 Q131.079 193.092 128.001 188.509 Q124.945 183.902 124.945 175.176 Q124.945 166.426 128.001 161.842 Q131.079 157.236 136.89 157.236 Z" fill="#000000" fill-rule="nonzero" fill-opacity="1" /><path clip-path="url(#clip420)" d="M1134.39 18.8205 L1134.39 41.5461 L1144.68 41.5461 Q1150.39 41.5461 1153.51 38.5889 Q1156.63 35.6318 1156.63 30.163 Q1156.63 24.7348 1153.51 21.7777 Q1150.39 18.8205 1144.68 18.8205 L1134.39 18.8205 M1126.21 12.096 L1144.68 12.096 Q1154.85 12.096 1160.03 16.714 Q1165.26 21.2916 1165.26 30.163 Q1165.26 39.1155 1160.03 43.6931 Q1154.85 48.2706 1144.68 48.2706 L1134.39 48.2706 L1134.39 72.576 L1126.21 72.576 L1126.21 12.096 Z" fill="#000000" fill-rule="nonzero" fill-opacity="1" /><path clip-path="url(#clip420)" d="M1190.53 32.4315 Q1184.54 32.4315 1181.06 37.1306 Q1177.57 41.7891 1177.57 49.9314 Q1177.57 58.0738 1181.02 62.7728 Q1184.5 67.4314 1190.53 67.4314 Q1196.49 67.4314 1199.97 62.7323 Q1203.46 58.0333 1203.46 49.9314 Q1203.46 41.8701 1199.97 37.1711 Q1196.49 32.4315 1190.53 32.4315 M1190.53 26.1121 Q1200.26 26.1121 1205.81 32.4315 Q1211.36 38.7509 1211.36 49.9314 Q1211.36 61.0714 1205.81 67.4314 Q1200.26 73.7508 1190.53 73.7508 Q1180.77 73.7508 1175.22 67.4314 Q1169.71 61.0714 1169.71 49.9314 Q1169.71 38.7509 1175.22 32.4315 Q1180.77 26.1121 1190.53 26.1121 Z" fill="#000000" fill-rule="nonzero" fill-opacity="1" /><path clip-path="url(#clip420)" d="M1223.71 9.54393 L1231.17 9.54393 L1231.17 72.576 L1223.71 72.576 L1223.71 9.54393 Z" fill="#000000" fill-rule="nonzero" fill-opacity="1" /><path clip-path="url(#clip420)" d="M1285.57 48.0275 L1285.57 51.6733 L1251.3 51.6733 Q1251.78 59.3701 1255.92 63.421 Q1260.09 67.4314 1267.5 67.4314 Q1271.8 67.4314 1275.81 66.3781 Q1279.86 65.3249 1283.83 63.2184 L1283.83 70.267 Q1279.82 71.9684 1275.6 72.8596 Q1271.39 73.7508 1267.06 73.7508 Q1256.2 73.7508 1249.84 67.4314 Q1243.52 61.1119 1243.52 50.3365 Q1243.52 39.1965 1249.52 32.6746 Q1255.55 26.1121 1265.76 26.1121 Q1274.92 26.1121 1280.22 32.0264 Q1285.57 37.9003 1285.57 48.0275 M1278.12 45.84 Q1278.03 39.7232 1274.67 36.0774 Q1271.35 32.4315 1265.84 32.4315 Q1259.6 32.4315 1255.84 35.9558 Q1252.11 39.4801 1251.54 45.8805 L1278.12 45.84 Z" fill="#000000" fill-rule="nonzero" fill-opacity="1" /><path clip-path="url(#clip420)" d="M1294.04 46.5287 L1315.87 46.5287 L1315.87 53.1722 L1294.04 53.1722 L1294.04 46.5287 Z" fill="#000000" fill-rule="nonzero" fill-opacity="1" /><path clip-path="url(#clip420)" d="M1324.5 27.2059 L1359.9 27.2059 L1359.9 34.0114 L1331.87 66.6212 L1359.9 66.6212 L1359.9 72.576 L1323.49 72.576 L1323.49 65.7705 L1351.52 33.1607 L1324.5 33.1607 L1324.5 27.2059 Z" fill="#000000" fill-rule="nonzero" fill-opacity="1" /><path clip-path="url(#clip420)" d="M1410.09 48.0275 L1410.09 51.6733 L1375.82 51.6733 Q1376.31 59.3701 1380.44 63.421 Q1384.61 67.4314 1392.03 67.4314 Q1396.32 67.4314 1400.33 66.3781 Q1404.38 65.3249 1408.35 63.2184 L1408.35 70.267 Q1404.34 71.9684 1400.13 72.8596 Q1395.92 73.7508 1391.58 73.7508 Q1380.72 73.7508 1374.36 67.4314 Q1368.05 61.1119 1368.05 50.3365 Q1368.05 39.1965 1374.04 32.6746 Q1380.08 26.1121 1390.28 26.1121 Q1399.44 26.1121 1404.75 32.0264 Q1410.09 37.9003 1410.09 48.0275 M1402.64 45.84 Q1402.56 39.7232 1399.2 36.0774 Q1395.88 32.4315 1390.37 32.4315 Q1384.13 32.4315 1380.36 35.9558 Q1376.63 39.4801 1376.07 45.8805 L1402.64 45.84 Z" fill="#000000" fill-rule="nonzero" fill-opacity="1" /><path clip-path="url(#clip420)" d="M1448.62 34.1734 Q1447.36 33.4443 1445.86 33.1202 Q1444.41 32.7556 1442.62 32.7556 Q1436.3 32.7556 1432.9 36.8875 Q1429.54 40.9789 1429.54 48.6757 L1429.54 72.576 L1422.04 72.576 L1422.04 27.2059 L1429.54 27.2059 L1429.54 34.2544 Q1431.89 30.1225 1435.66 28.1376 Q1439.42 26.1121 1444.81 26.1121 Q1445.58 26.1121 1446.51 26.2337 Q1447.44 26.3147 1448.58 26.5172 L1448.62 34.1734 Z" fill="#000000" fill-rule="nonzero" fill-opacity="1" /><path clip-path="url(#clip420)" d="M1472.19 32.4315 Q1466.2 32.4315 1462.72 37.1306 Q1459.23 41.7891 1459.23 49.9314 Q1459.23 58.0738 1462.67 62.7728 Q1466.16 67.4314 1472.19 67.4314 Q1478.15 67.4314 1481.63 62.7323 Q1485.12 58.0333 1485.12 49.9314 Q1485.12 41.8701 1481.63 37.1711 Q1478.15 32.4315 1472.19 32.4315 M1472.19 26.1121 Q1481.92 26.1121 1487.47 32.4315 Q1493.02 38.7509 1493.02 49.9314 Q1493.02 61.0714 1487.47 67.4314 Q1481.92 73.7508 1472.19 73.7508 Q1462.43 73.7508 1456.88 67.4314 Q1451.37 61.0714 1451.37 49.9314 Q1451.37 38.7509 1456.88 32.4315 Q1462.43 26.1121 1472.19 26.1121 Z" fill="#000000" fill-rule="nonzero" fill-opacity="1" /><path clip-path="url(#clip420)" d="M1567.07 35.9153 Q1569.86 30.8922 1573.75 28.5022 Q1577.64 26.1121 1582.91 26.1121 Q1589.99 26.1121 1593.84 31.0947 Q1597.69 36.0368 1597.69 45.1919 L1597.69 72.576 L1590.2 72.576 L1590.2 45.4349 Q1590.2 38.913 1587.89 35.7533 Q1585.58 32.5936 1580.84 32.5936 Q1575.05 32.5936 1571.68 36.4419 Q1568.32 40.2903 1568.32 46.9338 L1568.32 72.576 L1560.83 72.576 L1560.83 45.4349 Q1560.83 38.8725 1558.52 35.7533 Q1556.21 32.5936 1551.39 32.5936 Q1545.68 32.5936 1542.32 36.4824 Q1538.95 40.3308 1538.95 46.9338 L1538.95 72.576 L1531.46 72.576 L1531.46 27.2059 L1538.95 27.2059 L1538.95 34.2544 Q1541.51 30.082 1545.07 28.0971 Q1548.63 26.1121 1553.54 26.1121 Q1558.48 26.1121 1561.92 28.6237 Q1565.41 31.1352 1567.07 35.9153 Z" fill="#000000" fill-rule="nonzero" fill-opacity="1" /><path clip-path="url(#clip420)" d="M1633.18 49.7694 Q1624.14 49.7694 1620.66 51.8354 Q1617.18 53.9013 1617.18 58.8839 Q1617.18 62.8538 1619.77 65.2034 Q1622.4 67.5124 1626.9 67.5124 Q1633.1 67.5124 1636.82 63.1374 Q1640.59 58.7219 1640.59 51.4303 L1640.59 49.7694 L1633.18 49.7694 M1648.04 46.6907 L1648.04 72.576 L1640.59 72.576 L1640.59 65.6895 Q1638.04 69.8214 1634.23 71.8063 Q1630.42 73.7508 1624.91 73.7508 Q1617.95 73.7508 1613.81 69.8619 Q1609.72 65.9325 1609.72 59.3701 Q1609.72 51.7138 1614.83 47.825 Q1619.97 43.9361 1630.14 43.9361 L1640.59 43.9361 L1640.59 43.2069 Q1640.59 38.0623 1637.19 35.2672 Q1633.83 32.4315 1627.71 32.4315 Q1623.82 32.4315 1620.13 33.3632 Q1616.45 34.295 1613.04 36.1584 L1613.04 29.2718 Q1617.14 27.692 1620.98 26.9223 Q1624.83 26.1121 1628.48 26.1121 Q1638.32 26.1121 1643.18 31.2163 Q1648.04 36.3204 1648.04 46.6907 Z" fill="#000000" fill-rule="nonzero" fill-opacity="1" /><path clip-path="url(#clip420)" d="M1670.61 65.7705 L1670.61 89.8329 L1663.11 89.8329 L1663.11 27.2059 L1670.61 27.2059 L1670.61 34.0924 Q1672.96 30.0415 1676.52 28.0971 Q1680.13 26.1121 1685.11 26.1121 Q1693.37 26.1121 1698.52 32.6746 Q1703.7 39.2371 1703.7 49.9314 Q1703.7 60.6258 1698.52 67.1883 Q1693.37 73.7508 1685.11 73.7508 Q1680.13 73.7508 1676.52 71.8063 Q1672.96 69.8214 1670.61 65.7705 M1695.97 49.9314 Q1695.97 41.7081 1692.56 37.0496 Q1689.2 32.3505 1683.29 32.3505 Q1677.37 32.3505 1673.97 37.0496 Q1670.61 41.7081 1670.61 49.9314 Q1670.61 58.1548 1673.97 62.8538 Q1677.37 67.5124 1683.29 67.5124 Q1689.2 67.5124 1692.56 62.8538 Q1695.97 58.1548 1695.97 49.9314 Z" fill="#000000" fill-rule="nonzero" fill-opacity="1" /><line clip-path="url(#clip422)" x1="2571.37" y1="1753.43" x2="2511.37" y2="1693.43" style="stroke:#009af9; stroke-width:3.84; stroke-opacity:0.5"/>
<line clip-path="url(#clip422)" x1="2571.37" y1="1753.43" x2="2511.37" y2="1813.43" style="stroke:#009af9; stroke-width:3.84; stroke-opacity:0.5"/>
<line clip-path="url(#clip422)" x1="2571.37" y1="1753.43" x2="2631.37" y2="1813.43" style="stroke:#009af9; stroke-width:3.84; stroke-opacity:0.5"/>
<line clip-path="url(#clip422)" x1="2571.37" y1="1753.43" x2="2631.37" y2="1693.43" style="stroke:#009af9; stroke-width:3.84; stroke-opacity:0.5"/>
<line clip-path="url(#clip422)" x1="2455.73" y1="1753.43" x2="2395.73" y2="1693.43" style="stroke:#009af9; stroke-width:3.84; stroke-opacity:0.5"/>
<line clip-path="url(#clip422)" x1="2455.73" y1="1753.43" x2="2395.73" y2="1813.43" style="stroke:#009af9; stroke-width:3.84; stroke-opacity:0.5"/>
<line clip-path="url(#clip422)" x1="2455.73" y1="1753.43" x2="2515.73" y2="1813.43" style="stroke:#009af9; stroke-width:3.84; stroke-opacity:0.5"/>
<line clip-path="url(#clip422)" x1="2455.73" y1="1753.43" x2="2515.73" y2="1693.43" style="stroke:#009af9; stroke-width:3.84; stroke-opacity:0.5"/>
<line clip-path="url(#clip422)" x1="258.539" y1="1753.43" x2="198.539" y2="1693.43" style="stroke:#009af9; stroke-width:3.84; stroke-opacity:0.5"/>
<line clip-path="url(#clip422)" x1="258.539" y1="1753.43" x2="198.539" y2="1813.43" style="stroke:#009af9; stroke-width:3.84; stroke-opacity:0.5"/>
<line clip-path="url(#clip422)" x1="258.539" y1="1753.43" x2="318.539" y2="1813.43" style="stroke:#009af9; stroke-width:3.84; stroke-opacity:0.5"/>
<line clip-path="url(#clip422)" x1="258.539" y1="1753.43" x2="318.539" y2="1693.43" style="stroke:#009af9; stroke-width:3.84; stroke-opacity:0.5"/>
</svg>
