<?xml version="1.0" encoding="utf-8"?>
<svg xmlns="http://www.w3.org/2000/svg" xmlns:xlink="http://www.w3.org/1999/xlink" width="672" height="480" viewBox="0 0 2688 1920">
<defs>
  <clipPath id="clip530">
    <rect x="0" y="0" width="2688" height="1920"/>
  </clipPath>
</defs>
<path clip-path="url(#clip530)" d="M0 1920 L2688 1920 L2688 0 L0 0  Z" fill="#ffffff" fill-rule="evenodd" fill-opacity="1"/>
<defs>
  <clipPath id="clip531">
    <rect x="537" y="0" width="1883" height="1883"/>
  </clipPath>
</defs>
<path clip-path="url(#clip530)" d="M278.571 314.288 L2640.76 314.288 L2640.76 47.2441 L278.571 47.2441  Z" fill="#ffffff" fill-rule="evenodd" fill-opacity="1"/>
<defs>
  <clipPath id="clip532">
    <rect x="278" y="47" width="2363" height="268"/>
  </clipPath>
</defs>
<polyline clip-path="url(#clip532)" style="stroke:#000000; stroke-linecap:round; stroke-linejoin:round; stroke-width:2; stroke-opacity:0.1; fill:none" points="1236.82,314.288 1236.82,47.2441 "/>
<polyline clip-path="url(#clip532)" style="stroke:#000000; stroke-linecap:round; stroke-linejoin:round; stroke-width:2; stroke-opacity:0.1; fill:none" points="2573.9,314.288 2573.9,47.2441 "/>
<polyline clip-path="url(#clip532)" style="stroke:#000000; stroke-linecap:round; stroke-linejoin:round; stroke-width:2; stroke-opacity:0.1; fill:none" points="278.571,236.623 2640.76,236.623 "/>
<polyline clip-path="url(#clip532)" style="stroke:#000000; stroke-linecap:round; stroke-linejoin:round; stroke-width:2; stroke-opacity:0.1; fill:none" points="278.571,106.75 2640.76,106.75 "/>
<polyline clip-path="url(#clip530)" style="stroke:#000000; stroke-linecap:round; stroke-linejoin:round; stroke-width:4; stroke-opacity:1; fill:none" points="278.571,314.288 2640.76,314.288 "/>
<polyline clip-path="url(#clip530)" style="stroke:#000000; stroke-linecap:round; stroke-linejoin:round; stroke-width:4; stroke-opacity:1; fill:none" points="1236.82,314.288 1236.82,295.39 "/>
<polyline clip-path="url(#clip530)" style="stroke:#000000; stroke-linecap:round; stroke-linejoin:round; stroke-width:4; stroke-opacity:1; fill:none" points="2573.9,314.288 2573.9,295.39 "/>
<path clip-path="url(#clip530)" d="M1201.8 390.716 L1209.44 390.716 L1209.44 364.351 L1201.13 366.017 L1201.13 361.758 L1209.39 360.092 L1214.07 360.092 L1214.07 390.716 L1221.71 390.716 L1221.71 394.652 L1201.8 394.652 L1201.8 390.716 Z" fill="#000000" fill-rule="nonzero" fill-opacity="1" /><path clip-path="url(#clip530)" d="M1241.15 363.17 Q1237.54 363.17 1235.71 366.735 Q1233.9 370.277 1233.9 377.406 Q1233.9 384.513 1235.71 388.078 Q1237.54 391.619 1241.15 391.619 Q1244.78 391.619 1246.59 388.078 Q1248.42 384.513 1248.42 377.406 Q1248.42 370.277 1246.59 366.735 Q1244.78 363.17 1241.15 363.17 M1241.15 359.467 Q1246.96 359.467 1250.02 364.073 Q1253.09 368.656 1253.09 377.406 Q1253.09 386.133 1250.02 390.74 Q1246.96 395.323 1241.15 395.323 Q1235.34 395.323 1232.26 390.74 Q1229.21 386.133 1229.21 377.406 Q1229.21 368.656 1232.26 364.073 Q1235.34 359.467 1241.15 359.467 Z" fill="#000000" fill-rule="nonzero" fill-opacity="1" /><path clip-path="url(#clip530)" d="M1262.8 341.663 Q1259.87 341.663 1258.38 344.559 Q1256.91 347.437 1256.91 353.229 Q1256.91 359.003 1258.38 361.9 Q1259.87 364.777 1262.8 364.777 Q1265.75 364.777 1267.22 361.9 Q1268.71 359.003 1268.71 353.229 Q1268.71 347.437 1267.22 344.559 Q1265.75 341.663 1262.8 341.663 M1262.8 338.653 Q1267.52 338.653 1270 342.396 Q1272.5 346.12 1272.5 353.229 Q1272.5 360.32 1270 364.063 Q1267.52 367.787 1262.8 367.787 Q1258.08 367.787 1255.58 364.063 Q1253.09 360.32 1253.09 353.229 Q1253.09 346.12 1255.58 342.396 Q1258.08 338.653 1262.8 338.653 Z" fill="#000000" fill-rule="nonzero" fill-opacity="1" /><path clip-path="url(#clip530)" d="M2539.35 390.716 L2546.98 390.716 L2546.98 364.351 L2538.67 366.017 L2538.67 361.758 L2546.94 360.092 L2551.61 360.092 L2551.61 390.716 L2559.25 390.716 L2559.25 394.652 L2539.35 394.652 L2539.35 390.716 Z" fill="#000000" fill-rule="nonzero" fill-opacity="1" /><path clip-path="url(#clip530)" d="M2578.7 363.17 Q2575.09 363.17 2573.26 366.735 Q2571.45 370.277 2571.45 377.406 Q2571.45 384.513 2573.26 388.078 Q2575.09 391.619 2578.7 391.619 Q2582.33 391.619 2584.14 388.078 Q2585.97 384.513 2585.97 377.406 Q2585.97 370.277 2584.14 366.735 Q2582.33 363.17 2578.7 363.17 M2578.7 359.467 Q2584.51 359.467 2587.56 364.073 Q2590.64 368.656 2590.64 377.406 Q2590.64 386.133 2587.56 390.74 Q2584.51 395.323 2578.7 395.323 Q2572.89 395.323 2569.81 390.74 Q2566.75 386.133 2566.75 377.406 Q2566.75 368.656 2569.81 364.073 Q2572.89 359.467 2578.7 359.467 Z" fill="#000000" fill-rule="nonzero" fill-opacity="1" /><path clip-path="url(#clip530)" d="M2603.34 352.101 Q2606.06 352.684 2607.59 354.527 Q2609.13 356.37 2609.13 359.079 Q2609.13 363.235 2606.27 365.511 Q2603.41 367.787 2598.15 367.787 Q2596.38 367.787 2594.5 367.429 Q2592.63 367.091 2590.64 366.395 L2590.64 362.727 Q2592.22 363.649 2594.1 364.119 Q2595.98 364.589 2598.03 364.589 Q2601.61 364.589 2603.47 363.179 Q2605.35 361.768 2605.35 359.079 Q2605.35 356.596 2603.6 355.204 Q2601.87 353.794 2598.77 353.794 L2595.49 353.794 L2595.49 350.672 L2598.92 350.672 Q2601.72 350.672 2603.2 349.562 Q2604.69 348.433 2604.69 346.327 Q2604.69 344.164 2603.15 343.017 Q2601.62 341.851 2598.77 341.851 Q2597.21 341.851 2595.42 342.189 Q2593.63 342.528 2591.49 343.242 L2591.49 339.857 Q2593.65 339.255 2595.53 338.954 Q2597.43 338.653 2599.1 338.653 Q2603.43 338.653 2605.95 340.628 Q2608.47 342.584 2608.47 345.932 Q2608.47 348.264 2607.14 349.882 Q2605.8 351.48 2603.34 352.101 Z" fill="#000000" fill-rule="nonzero" fill-opacity="1" /><polyline clip-path="url(#clip530)" style="stroke:#000000; stroke-linecap:round; stroke-linejoin:round; stroke-width:4; stroke-opacity:1; fill:none" points="278.571,314.288 278.571,47.2441 "/>
<polyline clip-path="url(#clip530)" style="stroke:#000000; stroke-linecap:round; stroke-linejoin:round; stroke-width:4; stroke-opacity:1; fill:none" points="278.571,236.623 297.468,236.623 "/>
<polyline clip-path="url(#clip530)" style="stroke:#000000; stroke-linecap:round; stroke-linejoin:round; stroke-width:4; stroke-opacity:1; fill:none" points="278.571,106.75 297.468,106.75 "/>
<path clip-path="url(#clip530)" d="M137.622 256.415 L145.261 256.415 L145.261 230.05 L136.951 231.717 L136.951 227.457 L145.215 225.791 L149.89 225.791 L149.89 256.415 L157.529 256.415 L157.529 260.351 L137.622 260.351 L137.622 256.415 Z" fill="#000000" fill-rule="nonzero" fill-opacity="1" /><path clip-path="url(#clip530)" d="M176.974 228.869 Q173.363 228.869 171.534 232.434 Q169.728 235.976 169.728 243.105 Q169.728 250.212 171.534 253.777 Q173.363 257.318 176.974 257.318 Q180.608 257.318 182.413 253.777 Q184.242 250.212 184.242 243.105 Q184.242 235.976 182.413 232.434 Q180.608 228.869 176.974 228.869 M176.974 225.166 Q182.784 225.166 185.839 229.772 Q188.918 234.355 188.918 243.105 Q188.918 251.832 185.839 256.439 Q182.784 261.022 176.974 261.022 Q171.164 261.022 168.085 256.439 Q165.029 251.832 165.029 243.105 Q165.029 234.355 168.085 229.772 Q171.164 225.166 176.974 225.166 Z" fill="#000000" fill-rule="nonzero" fill-opacity="1" /><path clip-path="url(#clip530)" d="M188.918 219.267 L213.03 219.267 L213.03 222.464 L188.918 222.464 L188.918 219.267 Z" fill="#000000" fill-rule="nonzero" fill-opacity="1" /><path clip-path="url(#clip530)" d="M221.267 204.86 L236.182 204.86 L236.182 208.058 L224.747 208.058 L224.747 214.941 Q225.574 214.659 226.402 214.527 Q227.229 214.377 228.057 214.377 Q232.759 214.377 235.505 216.954 Q238.251 219.53 238.251 223.931 Q238.251 228.464 235.43 230.984 Q232.608 233.486 227.474 233.486 Q225.706 233.486 223.863 233.185 Q222.039 232.884 220.083 232.282 L220.083 228.464 Q221.775 229.386 223.581 229.837 Q225.386 230.288 227.399 230.288 Q230.652 230.288 232.552 228.577 Q234.452 226.865 234.452 223.931 Q234.452 220.997 232.552 219.286 Q230.652 217.574 227.399 217.574 Q225.875 217.574 224.352 217.913 Q222.847 218.251 221.267 218.966 L221.267 204.86 Z" fill="#000000" fill-rule="nonzero" fill-opacity="1" /><path clip-path="url(#clip530)" d="M167.545 126.543 L175.184 126.543 L175.184 100.177 L166.874 101.844 L166.874 97.5847 L175.138 95.918 L179.814 95.918 L179.814 126.543 L187.452 126.543 L187.452 130.478 L167.545 130.478 L167.545 126.543 Z" fill="#000000" fill-rule="nonzero" fill-opacity="1" /><path clip-path="url(#clip530)" d="M206.897 98.9967 Q203.286 98.9967 201.457 102.561 Q199.651 106.103 199.651 113.233 Q199.651 120.339 201.457 123.904 Q203.286 127.446 206.897 127.446 Q210.531 127.446 212.337 123.904 Q214.165 120.339 214.165 113.233 Q214.165 106.103 212.337 102.561 Q210.531 98.9967 206.897 98.9967 M206.897 95.293 Q212.707 95.293 215.763 99.8995 Q218.841 104.483 218.841 113.233 Q218.841 121.96 215.763 126.566 Q212.707 131.149 206.897 131.149 Q201.087 131.149 198.008 126.566 Q194.952 121.96 194.952 113.233 Q194.952 104.483 198.008 99.8995 Q201.087 95.293 206.897 95.293 Z" fill="#000000" fill-rule="nonzero" fill-opacity="1" /><path clip-path="url(#clip530)" d="M228.546 77.489 Q225.612 77.489 224.126 80.3854 Q222.659 83.263 222.659 89.0558 Q222.659 94.8298 224.126 97.7262 Q225.612 100.604 228.546 100.604 Q231.499 100.604 232.966 97.7262 Q234.452 94.8298 234.452 89.0558 Q234.452 83.263 232.966 80.3854 Q231.499 77.489 228.546 77.489 M228.546 74.4798 Q233.267 74.4798 235.749 78.2225 Q238.251 81.9465 238.251 89.0558 Q238.251 96.1463 235.749 99.8891 Q233.267 103.613 228.546 103.613 Q223.825 103.613 221.324 99.8891 Q218.841 96.1463 218.841 89.0558 Q218.841 81.9465 221.324 78.2225 Q223.825 74.4798 228.546 74.4798 Z" fill="#000000" fill-rule="nonzero" fill-opacity="1" /><path clip-path="url(#clip530)" d="M34.8547 360.597 L34.8547 351.017 L67.1925 338.89 L34.8547 326.7 L34.8547 317.119 L82.3747 317.119 L82.3747 323.389 L40.6475 323.389 L73.2399 335.643 L73.2399 342.105 L40.6475 354.359 L82.3747 354.359 L82.3747 360.597 L34.8547 360.597 Z" fill="#000000" fill-rule="nonzero" fill-opacity="1" /><path clip-path="url(#clip530)" d="M64.4553 288.41 Q64.4553 295.508 66.0785 298.245 Q67.7018 300.982 71.6167 300.982 Q74.7359 300.982 76.5819 298.945 Q78.3962 296.876 78.3962 293.343 Q78.3962 288.474 74.9587 285.545 Q71.4894 282.585 65.7602 282.585 L64.4553 282.585 L64.4553 288.41 M62.0363 276.729 L82.3747 276.729 L82.3747 282.585 L76.9639 282.585 Q80.2104 284.591 81.77 287.582 Q83.2978 290.574 83.2978 294.903 Q83.2978 300.377 80.2422 303.624 Q77.1549 306.839 71.9986 306.839 Q65.983 306.839 62.9275 302.828 Q59.872 298.786 59.872 290.797 L59.872 282.585 L59.299 282.585 Q55.2568 282.585 53.0607 285.259 Q50.8327 287.901 50.8327 292.707 Q50.8327 295.762 51.5647 298.659 Q52.2968 301.555 53.7609 304.229 L48.35 304.229 Q47.1087 301.014 46.504 297.99 Q45.8674 294.967 45.8674 292.102 Q45.8674 284.368 49.8778 280.548 Q53.8882 276.729 62.0363 276.729 Z" fill="#000000" fill-rule="nonzero" fill-opacity="1" /><path clip-path="url(#clip530)" d="M64.137 241.208 Q57.7713 241.208 54.2701 243.85 Q50.769 246.46 50.769 251.202 Q50.769 255.913 54.2701 258.555 Q57.7713 261.165 64.137 261.165 Q70.4709 261.165 73.972 258.555 Q77.4731 255.913 77.4731 251.202 Q77.4731 246.46 73.972 243.85 Q70.4709 241.208 64.137 241.208 M77.9506 235.352 Q87.0535 235.352 91.4777 239.394 Q95.9337 243.436 95.9337 251.775 Q95.9337 254.863 95.4563 257.6 Q95.0107 260.337 94.0558 262.915 L88.3585 262.915 Q89.759 260.337 90.4274 257.823 Q91.0958 255.308 91.0958 252.698 Q91.0958 246.937 88.072 244.073 Q85.0802 241.208 79.0009 241.208 L76.1045 241.208 Q79.2555 243.022 80.8151 245.855 Q82.3747 248.688 82.3747 252.635 Q82.3747 259.191 77.3777 263.202 Q72.3806 267.212 64.137 267.212 Q55.8616 267.212 50.8645 263.202 Q45.8674 259.191 45.8674 252.635 Q45.8674 248.688 47.427 245.855 Q48.9866 243.022 52.1376 241.208 L46.7268 241.208 L46.7268 235.352 L77.9506 235.352 Z" fill="#000000" fill-rule="nonzero" fill-opacity="1" /><path clip-path="url(#clip530)" d="M60.8586 193.656 L82.3747 193.656 L82.3747 199.513 L61.0496 199.513 Q55.9889 199.513 53.4744 201.486 Q50.96 203.46 50.96 207.406 Q50.96 212.149 53.9837 214.886 Q57.0074 217.623 62.2273 217.623 L82.3747 217.623 L82.3747 223.512 L46.7268 223.512 L46.7268 217.623 L52.2649 217.623 Q49.0503 215.523 47.4588 212.69 Q45.8674 209.825 45.8674 206.101 Q45.8674 199.958 49.6868 196.807 Q53.4744 193.656 60.8586 193.656 Z" fill="#000000" fill-rule="nonzero" fill-opacity="1" /><path clip-path="url(#clip530)" d="M46.7268 181.975 L46.7268 176.119 L82.3747 176.119 L82.3747 181.975 L46.7268 181.975 M32.8495 181.975 L32.8495 176.119 L40.2656 176.119 L40.2656 181.975 L32.8495 181.975 Z" fill="#000000" fill-rule="nonzero" fill-opacity="1" /><path clip-path="url(#clip530)" d="M36.6053 158.072 L46.7268 158.072 L46.7268 146.009 L51.2783 146.009 L51.2783 158.072 L70.63 158.072 Q74.9905 158.072 76.2318 156.894 Q77.4731 155.685 77.4731 152.025 L77.4731 146.009 L82.3747 146.009 L82.3747 152.025 Q82.3747 158.804 79.8603 161.382 Q77.314 163.96 70.63 163.96 L51.2783 163.96 L51.2783 168.257 L46.7268 168.257 L46.7268 163.96 L36.6053 163.96 L36.6053 158.072 Z" fill="#000000" fill-rule="nonzero" fill-opacity="1" /><path clip-path="url(#clip530)" d="M68.3065 138.911 L46.7268 138.911 L46.7268 133.055 L68.0837 133.055 Q73.1445 133.055 75.6907 131.081 Q78.2052 129.108 78.2052 125.161 Q78.2052 120.419 75.1815 117.682 Q72.1578 114.913 66.9379 114.913 L46.7268 114.913 L46.7268 109.056 L82.3747 109.056 L82.3747 114.913 L76.9002 114.913 Q80.1467 117.045 81.7382 119.878 Q83.2978 122.679 83.2978 126.403 Q83.2978 132.546 79.4783 135.728 Q75.6589 138.911 68.3065 138.911 M45.8674 124.175 L45.8674 124.175 Z" fill="#000000" fill-rule="nonzero" fill-opacity="1" /><path clip-path="url(#clip530)" d="M52.1376 73.5355 L32.8495 73.5355 L32.8495 67.6791 L82.3747 67.6791 L82.3747 73.5355 L77.0275 73.5355 Q80.2104 75.3816 81.77 78.2143 Q83.2978 81.0152 83.2978 84.9619 Q83.2978 91.4231 78.1415 95.4972 Q72.9853 99.5394 64.5826 99.5394 Q56.1798 99.5394 51.0236 95.4972 Q45.8674 91.4231 45.8674 84.9619 Q45.8674 81.0152 47.427 78.2143 Q48.9548 75.3816 52.1376 73.5355 M64.5826 93.492 Q71.0438 93.492 74.7359 90.8502 Q78.3962 88.1766 78.3962 83.5297 Q78.3962 78.8827 74.7359 76.2091 Q71.0438 73.5355 64.5826 73.5355 Q58.1214 73.5355 54.4611 76.2091 Q50.769 78.8827 50.769 83.5297 Q50.769 88.1766 54.4611 90.8502 Q58.1214 93.492 64.5826 93.492 Z" fill="#000000" fill-rule="nonzero" fill-opacity="1" /><path clip-path="url(#clip530)" d="M63.0866 25.1243 L65.9512 25.1243 L65.9512 52.0512 Q71.9986 51.6693 75.1815 48.4228 Q78.3325 45.1445 78.3325 39.3198 Q78.3325 35.946 77.505 32.795 Q76.6774 29.6121 75.0223 26.4929 L80.5605 26.4929 Q81.8973 29.644 82.5975 32.9541 Q83.2978 36.2643 83.2978 39.6699 Q83.2978 48.2 78.3325 53.1971 Q73.3673 58.1623 64.9009 58.1623 Q56.148 58.1623 51.0236 53.4517 Q45.8674 48.7092 45.8674 40.6885 Q45.8674 33.4952 50.5144 29.3257 Q55.1295 25.1243 63.0866 25.1243 M61.3679 30.9808 Q56.5618 31.0444 53.6972 33.6862 Q50.8327 36.2961 50.8327 40.6248 Q50.8327 45.5264 53.6017 48.4864 Q56.3708 51.4147 61.3997 51.8603 L61.3679 30.9808 Z" fill="#000000" fill-rule="nonzero" fill-opacity="1" /><polyline clip-path="url(#clip532)" style="stroke:#009af9; stroke-linecap:round; stroke-linejoin:round; stroke-width:4; stroke-opacity:1; fill:none" points="345.425,54.8019 1110.56,100.75 1277.86,114.395 1465.24,134.031 1703.93,162.772 1886.84,188.84 2089.84,222.422 2573.9,306.73 "/>
<path clip-path="url(#clip530)" d="M2273.37 159.826 L2562.02 159.826 L2562.02 56.1455 L2273.37 56.1455  Z" fill="#ffffff" fill-rule="evenodd" fill-opacity="1"/>
<polyline clip-path="url(#clip530)" style="stroke:#000000; stroke-linecap:round; stroke-linejoin:round; stroke-width:4; stroke-opacity:1; fill:none" points="2273.37,159.826 2562.02,159.826 2562.02,56.1455 2273.37,56.1455 2273.37,159.826 "/>
<polyline clip-path="url(#clip530)" style="stroke:#009af9; stroke-linecap:round; stroke-linejoin:round; stroke-width:4; stroke-opacity:1; fill:none" points="2299.61,107.986 2457.09,107.986 "/>
<path clip-path="url(#clip530)" d="M2497.18 127.673 Q2495.38 132.303 2493.66 133.715 Q2491.95 135.127 2489.08 135.127 L2485.68 135.127 L2485.68 131.562 L2488.18 131.562 Q2489.94 131.562 2490.91 130.728 Q2491.88 129.895 2493.06 126.793 L2493.83 124.849 L2483.34 99.3398 L2487.85 99.3398 L2495.96 119.617 L2504.06 99.3398 L2508.57 99.3398 L2497.18 127.673 Z" fill="#000000" fill-rule="nonzero" fill-opacity="1" /><path clip-path="url(#clip530)" d="M2515.86 121.33 L2523.5 121.33 L2523.5 94.9648 L2515.19 96.6314 L2515.19 92.3722 L2523.46 90.7055 L2528.13 90.7055 L2528.13 121.33 L2535.77 121.33 L2535.77 125.266 L2515.86 125.266 L2515.86 121.33 Z" fill="#000000" fill-rule="nonzero" fill-opacity="1" /><path clip-path="url(#clip530)" d="M278.571 760.956 L2640.76 760.956 L2640.76 493.913 L278.571 493.913  Z" fill="#ffffff" fill-rule="evenodd" fill-opacity="1"/>
<defs>
  <clipPath id="clip533">
    <rect x="278" y="493" width="2363" height="268"/>
  </clipPath>
</defs>
<polyline clip-path="url(#clip533)" style="stroke:#000000; stroke-linecap:round; stroke-linejoin:round; stroke-width:2; stroke-opacity:0.1; fill:none" points="1236.82,760.956 1236.82,493.913 "/>
<polyline clip-path="url(#clip533)" style="stroke:#000000; stroke-linecap:round; stroke-linejoin:round; stroke-width:2; stroke-opacity:0.1; fill:none" points="2573.9,760.956 2573.9,493.913 "/>
<polyline clip-path="url(#clip533)" style="stroke:#000000; stroke-linecap:round; stroke-linejoin:round; stroke-width:2; stroke-opacity:0.1; fill:none" points="278.571,726.824 2640.76,726.824 "/>
<polyline clip-path="url(#clip533)" style="stroke:#000000; stroke-linecap:round; stroke-linejoin:round; stroke-width:2; stroke-opacity:0.1; fill:none" points="278.571,656.135 2640.76,656.135 "/>
<polyline clip-path="url(#clip533)" style="stroke:#000000; stroke-linecap:round; stroke-linejoin:round; stroke-width:2; stroke-opacity:0.1; fill:none" points="278.571,585.447 2640.76,585.447 "/>
<polyline clip-path="url(#clip533)" style="stroke:#000000; stroke-linecap:round; stroke-linejoin:round; stroke-width:2; stroke-opacity:0.1; fill:none" points="278.571,514.758 2640.76,514.758 "/>
<polyline clip-path="url(#clip530)" style="stroke:#000000; stroke-linecap:round; stroke-linejoin:round; stroke-width:4; stroke-opacity:1; fill:none" points="278.571,760.956 2640.76,760.956 "/>
<polyline clip-path="url(#clip530)" style="stroke:#000000; stroke-linecap:round; stroke-linejoin:round; stroke-width:4; stroke-opacity:1; fill:none" points="1236.82,760.956 1236.82,742.059 "/>
<polyline clip-path="url(#clip530)" style="stroke:#000000; stroke-linecap:round; stroke-linejoin:round; stroke-width:4; stroke-opacity:1; fill:none" points="2573.9,760.956 2573.9,742.059 "/>
<path clip-path="url(#clip530)" d="M1201.8 837.385 L1209.44 837.385 L1209.44 811.02 L1201.13 812.686 L1201.13 808.427 L1209.39 806.76 L1214.07 806.76 L1214.07 837.385 L1221.71 837.385 L1221.71 841.32 L1201.8 841.32 L1201.8 837.385 Z" fill="#000000" fill-rule="nonzero" fill-opacity="1" /><path clip-path="url(#clip530)" d="M1241.15 809.839 Q1237.54 809.839 1235.71 813.404 Q1233.9 816.946 1233.9 824.075 Q1233.9 831.182 1235.71 834.746 Q1237.54 838.288 1241.15 838.288 Q1244.78 838.288 1246.59 834.746 Q1248.42 831.182 1248.42 824.075 Q1248.42 816.946 1246.59 813.404 Q1244.78 809.839 1241.15 809.839 M1241.15 806.135 Q1246.96 806.135 1250.02 810.742 Q1253.09 815.325 1253.09 824.075 Q1253.09 832.802 1250.02 837.408 Q1246.96 841.992 1241.15 841.992 Q1235.34 841.992 1232.26 837.408 Q1229.21 832.802 1229.21 824.075 Q1229.21 815.325 1232.26 810.742 Q1235.34 806.135 1241.15 806.135 Z" fill="#000000" fill-rule="nonzero" fill-opacity="1" /><path clip-path="url(#clip530)" d="M1262.8 788.331 Q1259.87 788.331 1258.38 791.228 Q1256.91 794.105 1256.91 799.898 Q1256.91 805.672 1258.38 808.569 Q1259.87 811.446 1262.8 811.446 Q1265.75 811.446 1267.22 808.569 Q1268.71 805.672 1268.71 799.898 Q1268.71 794.105 1267.22 791.228 Q1265.75 788.331 1262.8 788.331 M1262.8 785.322 Q1267.52 785.322 1270 789.065 Q1272.5 792.789 1272.5 799.898 Q1272.5 806.989 1270 810.732 Q1267.52 814.455 1262.8 814.455 Q1258.08 814.455 1255.58 810.732 Q1253.09 806.989 1253.09 799.898 Q1253.09 792.789 1255.58 789.065 Q1258.08 785.322 1262.8 785.322 Z" fill="#000000" fill-rule="nonzero" fill-opacity="1" /><path clip-path="url(#clip530)" d="M2539.35 837.385 L2546.98 837.385 L2546.98 811.02 L2538.67 812.686 L2538.67 808.427 L2546.94 806.76 L2551.61 806.76 L2551.61 837.385 L2559.25 837.385 L2559.25 841.32 L2539.35 841.32 L2539.35 837.385 Z" fill="#000000" fill-rule="nonzero" fill-opacity="1" /><path clip-path="url(#clip530)" d="M2578.7 809.839 Q2575.09 809.839 2573.26 813.404 Q2571.45 816.946 2571.45 824.075 Q2571.45 831.182 2573.26 834.746 Q2575.09 838.288 2578.7 838.288 Q2582.33 838.288 2584.14 834.746 Q2585.97 831.182 2585.97 824.075 Q2585.97 816.946 2584.14 813.404 Q2582.33 809.839 2578.7 809.839 M2578.7 806.135 Q2584.51 806.135 2587.56 810.742 Q2590.64 815.325 2590.64 824.075 Q2590.64 832.802 2587.56 837.408 Q2584.51 841.992 2578.7 841.992 Q2572.89 841.992 2569.81 837.408 Q2566.75 832.802 2566.75 824.075 Q2566.75 815.325 2569.81 810.742 Q2572.89 806.135 2578.7 806.135 Z" fill="#000000" fill-rule="nonzero" fill-opacity="1" /><path clip-path="url(#clip530)" d="M2603.34 798.77 Q2606.06 799.353 2607.59 801.196 Q2609.13 803.039 2609.13 805.747 Q2609.13 809.904 2606.27 812.18 Q2603.41 814.455 2598.15 814.455 Q2596.38 814.455 2594.5 814.098 Q2592.63 813.76 2590.64 813.064 L2590.64 809.396 Q2592.22 810.318 2594.1 810.788 Q2595.98 811.258 2598.03 811.258 Q2601.61 811.258 2603.47 809.848 Q2605.35 808.437 2605.35 805.747 Q2605.35 803.265 2603.6 801.873 Q2601.87 800.462 2598.77 800.462 L2595.49 800.462 L2595.49 797.34 L2598.92 797.34 Q2601.72 797.34 2603.2 796.231 Q2604.69 795.102 2604.69 792.996 Q2604.69 790.833 2603.15 789.686 Q2601.62 788.52 2598.77 788.52 Q2597.21 788.52 2595.42 788.858 Q2593.63 789.197 2591.49 789.911 L2591.49 786.526 Q2593.65 785.924 2595.53 785.623 Q2597.43 785.322 2599.1 785.322 Q2603.43 785.322 2605.95 787.297 Q2608.47 789.253 2608.47 792.601 Q2608.47 794.933 2607.14 796.55 Q2605.8 798.149 2603.34 798.77 Z" fill="#000000" fill-rule="nonzero" fill-opacity="1" /><path clip-path="url(#clip530)" d="M1179.48 881.045 L1206.79 881.045 L1206.79 886.456 L1185.91 886.456 L1185.91 900.461 L1204.75 900.461 L1204.75 905.871 L1185.91 905.871 L1185.91 928.565 L1179.48 928.565 L1179.48 881.045 Z" fill="#000000" fill-rule="nonzero" fill-opacity="1" /><path clip-path="url(#clip530)" d="M1232.63 898.392 Q1231.64 897.819 1230.47 897.564 Q1229.32 897.278 1227.92 897.278 Q1222.95 897.278 1220.28 900.524 Q1217.64 903.739 1217.64 909.786 L1217.64 928.565 L1211.75 928.565 L1211.75 892.917 L1217.64 892.917 L1217.64 898.455 Q1219.49 895.209 1222.45 893.649 Q1225.41 892.058 1229.64 892.058 Q1230.24 892.058 1230.98 892.153 Q1231.71 892.217 1232.6 892.376 L1232.63 898.392 Z" fill="#000000" fill-rule="nonzero" fill-opacity="1" /><path clip-path="url(#clip530)" d="M1267.83 909.277 L1267.83 912.142 L1240.91 912.142 Q1241.29 918.189 1244.53 921.372 Q1247.81 924.523 1253.64 924.523 Q1257.01 924.523 1260.16 923.695 Q1263.34 922.868 1266.46 921.213 L1266.46 926.751 Q1263.31 928.088 1260 928.788 Q1256.69 929.488 1253.29 929.488 Q1244.76 929.488 1239.76 924.523 Q1234.79 919.558 1234.79 911.091 Q1234.79 902.339 1239.51 897.214 Q1244.25 892.058 1252.27 892.058 Q1259.46 892.058 1263.63 896.705 Q1267.83 901.32 1267.83 909.277 M1261.98 907.558 Q1261.91 902.752 1259.27 899.888 Q1256.66 897.023 1252.33 897.023 Q1247.43 897.023 1244.47 899.792 Q1241.54 902.561 1241.1 907.59 L1261.98 907.558 Z" fill="#000000" fill-rule="nonzero" fill-opacity="1" /><path clip-path="url(#clip530)" d="M1280.95 910.773 Q1280.95 917.234 1283.59 920.926 Q1286.26 924.587 1290.91 924.587 Q1295.56 924.587 1298.23 920.926 Q1300.9 917.234 1300.9 910.773 Q1300.9 904.312 1298.23 900.652 Q1295.56 896.959 1290.91 896.959 Q1286.26 896.959 1283.59 900.652 Q1280.95 904.312 1280.95 910.773 M1300.9 923.218 Q1299.06 926.401 1296.22 927.96 Q1293.42 929.488 1289.48 929.488 Q1283.02 929.488 1278.94 924.332 Q1274.9 919.176 1274.9 910.773 Q1274.9 902.37 1278.94 897.214 Q1283.02 892.058 1289.48 892.058 Q1293.42 892.058 1296.22 893.617 Q1299.06 895.145 1300.9 898.328 L1300.9 892.917 L1306.76 892.917 L1306.76 942.124 L1300.9 942.124 L1300.9 923.218 Z" fill="#000000" fill-rule="nonzero" fill-opacity="1" /><path clip-path="url(#clip530)" d="M1318.22 914.497 L1318.22 892.917 L1324.07 892.917 L1324.07 914.274 Q1324.07 919.335 1326.05 921.881 Q1328.02 924.396 1331.97 924.396 Q1336.71 924.396 1339.45 921.372 Q1342.22 918.348 1342.22 913.128 L1342.22 892.917 L1348.07 892.917 L1348.07 928.565 L1342.22 928.565 L1342.22 923.091 Q1340.08 926.337 1337.25 927.929 Q1334.45 929.488 1330.73 929.488 Q1324.58 929.488 1321.4 925.669 Q1318.22 921.849 1318.22 914.497 M1332.95 892.058 L1332.95 892.058 Z" fill="#000000" fill-rule="nonzero" fill-opacity="1" /><path clip-path="url(#clip530)" d="M1390.63 909.277 L1390.63 912.142 L1363.7 912.142 Q1364.08 918.189 1367.33 921.372 Q1370.61 924.523 1376.43 924.523 Q1379.81 924.523 1382.96 923.695 Q1386.14 922.868 1389.26 921.213 L1389.26 926.751 Q1386.11 928.088 1382.8 928.788 Q1379.49 929.488 1376.08 929.488 Q1367.55 929.488 1362.55 924.523 Q1357.59 919.558 1357.59 911.091 Q1357.59 902.339 1362.3 897.214 Q1367.04 892.058 1375.06 892.058 Q1382.26 892.058 1386.43 896.705 Q1390.63 901.32 1390.63 909.277 M1384.77 907.558 Q1384.71 902.752 1382.07 899.888 Q1379.46 897.023 1375.13 897.023 Q1370.23 897.023 1367.27 899.792 Q1364.34 902.561 1363.89 907.59 L1384.77 907.558 Z" fill="#000000" fill-rule="nonzero" fill-opacity="1" /><path clip-path="url(#clip530)" d="M1429.87 907.049 L1429.87 928.565 L1424.02 928.565 L1424.02 907.24 Q1424.02 902.179 1422.04 899.665 Q1420.07 897.15 1416.12 897.15 Q1411.38 897.15 1408.64 900.174 Q1405.9 903.198 1405.9 908.418 L1405.9 928.565 L1400.02 928.565 L1400.02 892.917 L1405.9 892.917 L1405.9 898.455 Q1408.01 895.241 1410.84 893.649 Q1413.7 892.058 1417.43 892.058 Q1423.57 892.058 1426.72 895.877 Q1429.87 899.665 1429.87 907.049 Z" fill="#000000" fill-rule="nonzero" fill-opacity="1" /><path clip-path="url(#clip530)" d="M1467.21 894.286 L1467.21 899.76 Q1464.72 898.392 1462.21 897.723 Q1459.73 897.023 1457.18 897.023 Q1451.48 897.023 1448.33 900.652 Q1445.18 904.248 1445.18 910.773 Q1445.18 917.298 1448.33 920.926 Q1451.48 924.523 1457.18 924.523 Q1459.73 924.523 1462.21 923.855 Q1464.72 923.154 1467.21 921.786 L1467.21 927.197 Q1464.76 928.342 1462.11 928.915 Q1459.5 929.488 1456.54 929.488 Q1448.49 929.488 1443.75 924.428 Q1439.01 919.367 1439.01 910.773 Q1439.01 902.052 1443.78 897.055 Q1448.59 892.058 1456.93 892.058 Q1459.63 892.058 1462.21 892.631 Q1464.79 893.172 1467.21 894.286 Z" fill="#000000" fill-rule="nonzero" fill-opacity="1" /><path clip-path="url(#clip530)" d="M1492.22 931.875 Q1489.74 938.241 1487.39 940.183 Q1485.03 942.124 1481.08 942.124 L1476.41 942.124 L1476.41 937.223 L1479.84 937.223 Q1482.26 937.223 1483.6 936.077 Q1484.94 934.931 1486.56 930.666 L1487.61 927.992 L1473.19 892.917 L1479.4 892.917 L1490.54 920.799 L1501.68 892.917 L1507.88 892.917 L1492.22 931.875 Z" fill="#000000" fill-rule="nonzero" fill-opacity="1" /><path clip-path="url(#clip530)" d="M1536.15 879.04 L1549.64 879.04 L1549.64 883.591 L1542 883.591 L1542 932.607 L1549.64 932.607 L1549.64 937.159 L1536.15 937.159 L1536.15 879.04 Z" fill="#000000" fill-rule="nonzero" fill-opacity="1" /><path clip-path="url(#clip530)" d="M1582.78 898.392 Q1581.79 897.819 1580.61 897.564 Q1579.47 897.278 1578.07 897.278 Q1573.1 897.278 1570.43 900.524 Q1567.78 903.739 1567.78 909.786 L1567.78 928.565 L1561.9 928.565 L1561.9 892.917 L1567.78 892.917 L1567.78 898.455 Q1569.63 895.209 1572.59 893.649 Q1575.55 892.058 1579.78 892.058 Q1580.39 892.058 1581.12 892.153 Q1581.85 892.217 1582.74 892.376 L1582.78 898.392 Z" fill="#000000" fill-rule="nonzero" fill-opacity="1" /><path clip-path="url(#clip530)" d="M1605.12 910.646 Q1598.02 910.646 1595.28 912.269 Q1592.55 913.892 1592.55 917.807 Q1592.55 920.926 1594.58 922.772 Q1596.65 924.587 1600.19 924.587 Q1605.06 924.587 1607.98 921.149 Q1610.94 917.68 1610.94 911.951 L1610.94 910.646 L1605.12 910.646 M1616.8 908.227 L1616.8 928.565 L1610.94 928.565 L1610.94 923.154 Q1608.94 926.401 1605.95 927.96 Q1602.96 929.488 1598.63 929.488 Q1593.15 929.488 1589.91 926.433 Q1586.69 923.345 1586.69 918.189 Q1586.69 912.174 1590.7 909.118 Q1594.74 906.062 1602.73 906.062 L1610.94 906.062 L1610.94 905.49 Q1610.94 901.447 1608.27 899.251 Q1605.63 897.023 1600.82 897.023 Q1597.77 897.023 1594.87 897.755 Q1591.97 898.487 1589.3 899.951 L1589.3 894.541 Q1592.52 893.299 1595.54 892.694 Q1598.56 892.058 1601.43 892.058 Q1609.16 892.058 1612.98 896.068 Q1616.8 900.079 1616.8 908.227 Z" fill="#000000" fill-rule="nonzero" fill-opacity="1" /><path clip-path="url(#clip530)" d="M1652.32 898.328 L1652.32 879.04 L1658.18 879.04 L1658.18 928.565 L1652.32 928.565 L1652.32 923.218 Q1650.48 926.401 1647.64 927.96 Q1644.84 929.488 1640.9 929.488 Q1634.43 929.488 1630.36 924.332 Q1626.32 919.176 1626.32 910.773 Q1626.32 902.37 1630.36 897.214 Q1634.43 892.058 1640.9 892.058 Q1644.84 892.058 1647.64 893.617 Q1650.48 895.145 1652.32 898.328 M1632.36 910.773 Q1632.36 917.234 1635.01 920.926 Q1637.68 924.587 1642.33 924.587 Q1646.97 924.587 1649.65 920.926 Q1652.32 917.234 1652.32 910.773 Q1652.32 904.312 1649.65 900.652 Q1646.97 896.959 1642.33 896.959 Q1637.68 896.959 1635.01 900.652 Q1632.36 904.312 1632.36 910.773 Z" fill="#000000" fill-rule="nonzero" fill-opacity="1" /><path clip-path="url(#clip530)" d="M1680.65 881.045 L1686.06 881.045 L1669.51 934.613 L1664.1 934.613 L1680.65 881.045 Z" fill="#000000" fill-rule="nonzero" fill-opacity="1" /><path clip-path="url(#clip530)" d="M1714.93 893.968 L1714.93 899.506 Q1712.45 898.233 1709.77 897.596 Q1707.1 896.959 1704.23 896.959 Q1699.87 896.959 1697.68 898.296 Q1695.51 899.633 1695.51 902.307 Q1695.51 904.344 1697.07 905.521 Q1698.63 906.667 1703.34 907.718 L1705.35 908.163 Q1711.59 909.5 1714.2 911.951 Q1716.84 914.37 1716.84 918.73 Q1716.84 923.695 1712.89 926.592 Q1708.98 929.488 1702.1 929.488 Q1699.24 929.488 1696.12 928.915 Q1693.03 928.374 1689.59 927.26 L1689.59 921.213 Q1692.84 922.9 1695.99 923.759 Q1699.14 924.587 1702.23 924.587 Q1706.37 924.587 1708.59 923.186 Q1710.82 921.754 1710.82 919.176 Q1710.82 916.789 1709.2 915.516 Q1707.61 914.242 1702.16 913.065 L1700.13 912.587 Q1694.69 911.441 1692.27 909.086 Q1689.85 906.699 1689.85 902.561 Q1689.85 897.532 1693.41 894.795 Q1696.98 892.058 1703.53 892.058 Q1706.78 892.058 1709.64 892.535 Q1712.51 893.013 1714.93 893.968 Z" fill="#000000" fill-rule="nonzero" fill-opacity="1" /><path clip-path="url(#clip530)" d="M1739.85 879.04 L1739.85 937.159 L1726.35 937.159 L1726.35 932.607 L1733.96 932.607 L1733.96 883.591 L1726.35 883.591 L1726.35 879.04 L1739.85 879.04 Z" fill="#000000" fill-rule="nonzero" fill-opacity="1" /><polyline clip-path="url(#clip530)" style="stroke:#000000; stroke-linecap:round; stroke-linejoin:round; stroke-width:4; stroke-opacity:1; fill:none" points="278.571,760.956 278.571,493.913 "/>
<polyline clip-path="url(#clip530)" style="stroke:#000000; stroke-linecap:round; stroke-linejoin:round; stroke-width:4; stroke-opacity:1; fill:none" points="278.571,726.824 297.468,726.824 "/>
<polyline clip-path="url(#clip530)" style="stroke:#000000; stroke-linecap:round; stroke-linejoin:round; stroke-width:4; stroke-opacity:1; fill:none" points="278.571,656.135 297.468,656.135 "/>
<polyline clip-path="url(#clip530)" style="stroke:#000000; stroke-linecap:round; stroke-linejoin:round; stroke-width:4; stroke-opacity:1; fill:none" points="278.571,585.447 297.468,585.447 "/>
<polyline clip-path="url(#clip530)" style="stroke:#000000; stroke-linecap:round; stroke-linejoin:round; stroke-width:4; stroke-opacity:1; fill:none" points="278.571,514.758 297.468,514.758 "/>
<path clip-path="url(#clip530)" d="M116.214 727.275 L145.89 727.275 L145.89 731.211 L116.214 731.211 L116.214 727.275 Z" fill="#000000" fill-rule="nonzero" fill-opacity="1" /><path clip-path="url(#clip530)" d="M160.011 740.169 L176.33 740.169 L176.33 744.104 L154.386 744.104 L154.386 740.169 Q157.048 737.414 161.631 732.785 Q166.237 728.132 167.418 726.789 Q169.663 724.266 170.543 722.53 Q171.446 720.771 171.446 719.081 Q171.446 716.326 169.501 714.59 Q167.58 712.854 164.478 712.854 Q162.279 712.854 159.825 713.618 Q157.395 714.382 154.617 715.933 L154.617 711.211 Q157.441 710.076 159.895 709.498 Q162.348 708.919 164.385 708.919 Q169.756 708.919 172.95 711.604 Q176.145 714.289 176.145 718.78 Q176.145 720.91 175.334 722.831 Q174.547 724.729 172.441 727.322 Q171.862 727.993 168.76 731.211 Q165.659 734.405 160.011 740.169 Z" fill="#000000" fill-rule="nonzero" fill-opacity="1" /><path clip-path="url(#clip530)" d="M186.191 709.544 L204.547 709.544 L204.547 713.479 L190.473 713.479 L190.473 721.951 Q191.492 721.604 192.51 721.442 Q193.529 721.257 194.547 721.257 Q200.334 721.257 203.714 724.428 Q207.094 727.599 207.094 733.016 Q207.094 738.595 203.621 741.697 Q200.149 744.775 193.83 744.775 Q191.654 744.775 189.385 744.405 Q187.14 744.035 184.733 743.294 L184.733 738.595 Q186.816 739.729 189.038 740.285 Q191.26 740.84 193.737 740.84 Q197.742 740.84 200.08 738.734 Q202.418 736.627 202.418 733.016 Q202.418 729.405 200.08 727.299 Q197.742 725.192 193.737 725.192 Q191.862 725.192 189.987 725.609 Q188.135 726.025 186.191 726.905 L186.191 709.544 Z" fill="#000000" fill-rule="nonzero" fill-opacity="1" /><path clip-path="url(#clip530)" d="M226.306 712.623 Q222.695 712.623 220.867 716.187 Q219.061 719.729 219.061 726.859 Q219.061 733.965 220.867 737.53 Q222.695 741.072 226.306 741.072 Q229.941 741.072 231.746 737.53 Q233.575 733.965 233.575 726.859 Q233.575 719.729 231.746 716.187 Q229.941 712.623 226.306 712.623 M226.306 708.919 Q232.117 708.919 235.172 713.525 Q238.251 718.109 238.251 726.859 Q238.251 735.585 235.172 740.192 Q232.117 744.775 226.306 744.775 Q220.496 744.775 217.418 740.192 Q214.362 735.585 214.362 726.859 Q214.362 718.109 217.418 713.525 Q220.496 708.919 226.306 708.919 Z" fill="#000000" fill-rule="nonzero" fill-opacity="1" /><path clip-path="url(#clip530)" d="M116.214 656.587 L145.89 656.587 L145.89 660.522 L116.214 660.522 L116.214 656.587 Z" fill="#000000" fill-rule="nonzero" fill-opacity="1" /><path clip-path="url(#clip530)" d="M160.011 669.48 L176.33 669.48 L176.33 673.415 L154.386 673.415 L154.386 669.48 Q157.048 666.726 161.631 662.096 Q166.237 657.443 167.418 656.101 Q169.663 653.577 170.543 651.841 Q171.446 650.082 171.446 648.392 Q171.446 645.638 169.501 643.902 Q167.58 642.165 164.478 642.165 Q162.279 642.165 159.825 642.929 Q157.395 643.693 154.617 645.244 L154.617 640.522 Q157.441 639.388 159.895 638.809 Q162.348 638.23 164.385 638.23 Q169.756 638.23 172.95 640.915 Q176.145 643.601 176.145 648.091 Q176.145 650.221 175.334 652.142 Q174.547 654.04 172.441 656.633 Q171.862 657.304 168.76 660.522 Q165.659 663.716 160.011 669.48 Z" fill="#000000" fill-rule="nonzero" fill-opacity="1" /><path clip-path="url(#clip530)" d="M196.145 641.934 Q192.533 641.934 190.705 645.499 Q188.899 649.04 188.899 656.17 Q188.899 663.276 190.705 666.841 Q192.533 670.383 196.145 670.383 Q199.779 670.383 201.584 666.841 Q203.413 663.276 203.413 656.17 Q203.413 649.04 201.584 645.499 Q199.779 641.934 196.145 641.934 M196.145 638.23 Q201.955 638.23 205.01 642.837 Q208.089 647.42 208.089 656.17 Q208.089 664.897 205.01 669.503 Q201.955 674.087 196.145 674.087 Q190.334 674.087 187.256 669.503 Q184.2 664.897 184.2 656.17 Q184.2 647.42 187.256 642.837 Q190.334 638.23 196.145 638.23 Z" fill="#000000" fill-rule="nonzero" fill-opacity="1" /><path clip-path="url(#clip530)" d="M226.306 641.934 Q222.695 641.934 220.867 645.499 Q219.061 649.04 219.061 656.17 Q219.061 663.276 220.867 666.841 Q222.695 670.383 226.306 670.383 Q229.941 670.383 231.746 666.841 Q233.575 663.276 233.575 656.17 Q233.575 649.04 231.746 645.499 Q229.941 641.934 226.306 641.934 M226.306 638.23 Q232.117 638.23 235.172 642.837 Q238.251 647.42 238.251 656.17 Q238.251 664.897 235.172 669.503 Q232.117 674.087 226.306 674.087 Q220.496 674.087 217.418 669.503 Q214.362 664.897 214.362 656.17 Q214.362 647.42 217.418 642.837 Q220.496 638.23 226.306 638.23 Z" fill="#000000" fill-rule="nonzero" fill-opacity="1" /><path clip-path="url(#clip530)" d="M116.214 585.898 L145.89 585.898 L145.89 589.833 L116.214 589.833 L116.214 585.898 Z" fill="#000000" fill-rule="nonzero" fill-opacity="1" /><path clip-path="url(#clip530)" d="M156.793 598.791 L164.432 598.791 L164.432 572.426 L156.122 574.093 L156.122 569.833 L164.385 568.167 L169.061 568.167 L169.061 598.791 L176.7 598.791 L176.7 602.727 L156.793 602.727 L156.793 598.791 Z" fill="#000000" fill-rule="nonzero" fill-opacity="1" /><path clip-path="url(#clip530)" d="M186.191 568.167 L204.547 568.167 L204.547 572.102 L190.473 572.102 L190.473 580.574 Q191.492 580.227 192.51 580.065 Q193.529 579.88 194.547 579.88 Q200.334 579.88 203.714 583.051 Q207.094 586.222 207.094 591.639 Q207.094 597.217 203.621 600.319 Q200.149 603.398 193.83 603.398 Q191.654 603.398 189.385 603.028 Q187.14 602.657 184.733 601.916 L184.733 597.217 Q186.816 598.352 189.038 598.907 Q191.26 599.463 193.737 599.463 Q197.742 599.463 200.08 597.356 Q202.418 595.25 202.418 591.639 Q202.418 588.028 200.08 585.921 Q197.742 583.815 193.737 583.815 Q191.862 583.815 189.987 584.231 Q188.135 584.648 186.191 585.528 L186.191 568.167 Z" fill="#000000" fill-rule="nonzero" fill-opacity="1" /><path clip-path="url(#clip530)" d="M226.306 571.245 Q222.695 571.245 220.867 574.81 Q219.061 578.352 219.061 585.481 Q219.061 592.588 220.867 596.153 Q222.695 599.694 226.306 599.694 Q229.941 599.694 231.746 596.153 Q233.575 592.588 233.575 585.481 Q233.575 578.352 231.746 574.81 Q229.941 571.245 226.306 571.245 M226.306 567.542 Q232.117 567.542 235.172 572.148 Q238.251 576.731 238.251 585.481 Q238.251 594.208 235.172 598.815 Q232.117 603.398 226.306 603.398 Q220.496 603.398 217.418 598.815 Q214.362 594.208 214.362 585.481 Q214.362 576.731 217.418 572.148 Q220.496 567.542 226.306 567.542 Z" fill="#000000" fill-rule="nonzero" fill-opacity="1" /><path clip-path="url(#clip530)" d="M116.214 515.209 L145.89 515.209 L145.89 519.145 L116.214 519.145 L116.214 515.209 Z" fill="#000000" fill-rule="nonzero" fill-opacity="1" /><path clip-path="url(#clip530)" d="M156.793 528.103 L164.432 528.103 L164.432 501.737 L156.122 503.404 L156.122 499.145 L164.385 497.478 L169.061 497.478 L169.061 528.103 L176.7 528.103 L176.7 532.038 L156.793 532.038 L156.793 528.103 Z" fill="#000000" fill-rule="nonzero" fill-opacity="1" /><path clip-path="url(#clip530)" d="M196.145 500.557 Q192.533 500.557 190.705 504.121 Q188.899 507.663 188.899 514.793 Q188.899 521.899 190.705 525.464 Q192.533 529.006 196.145 529.006 Q199.779 529.006 201.584 525.464 Q203.413 521.899 203.413 514.793 Q203.413 507.663 201.584 504.121 Q199.779 500.557 196.145 500.557 M196.145 496.853 Q201.955 496.853 205.01 501.459 Q208.089 506.043 208.089 514.793 Q208.089 523.52 205.01 528.126 Q201.955 532.709 196.145 532.709 Q190.334 532.709 187.256 528.126 Q184.2 523.52 184.2 514.793 Q184.2 506.043 187.256 501.459 Q190.334 496.853 196.145 496.853 Z" fill="#000000" fill-rule="nonzero" fill-opacity="1" /><path clip-path="url(#clip530)" d="M226.306 500.557 Q222.695 500.557 220.867 504.121 Q219.061 507.663 219.061 514.793 Q219.061 521.899 220.867 525.464 Q222.695 529.006 226.306 529.006 Q229.941 529.006 231.746 525.464 Q233.575 521.899 233.575 514.793 Q233.575 507.663 231.746 504.121 Q229.941 500.557 226.306 500.557 M226.306 496.853 Q232.117 496.853 235.172 501.459 Q238.251 506.043 238.251 514.793 Q238.251 523.52 235.172 528.126 Q232.117 532.709 226.306 532.709 Q220.496 532.709 217.418 528.126 Q214.362 523.52 214.362 514.793 Q214.362 506.043 217.418 501.459 Q220.496 496.853 226.306 496.853 Z" fill="#000000" fill-rule="nonzero" fill-opacity="1" /><path clip-path="url(#clip530)" d="M19.402 809.542 L37.2578 809.542 L37.2578 801.457 Q37.2578 796.969 34.9343 794.519 Q32.6108 792.068 28.314 792.068 Q24.0489 792.068 21.7255 794.519 Q19.402 796.969 19.402 801.457 L19.402 809.542 M14.1184 815.971 L14.1184 801.457 Q14.1184 793.468 17.7469 789.394 Q21.3435 785.288 28.314 785.288 Q35.3481 785.288 38.9447 789.394 Q42.5413 793.468 42.5413 801.457 L42.5413 809.542 L61.6384 809.542 L61.6384 815.971 L14.1184 815.971 Z" fill="#000000" fill-rule="nonzero" fill-opacity="1" /><path clip-path="url(#clip530)" d="M40.1224 747.285 L61.6384 747.285 L61.6384 753.141 L40.3133 753.141 Q35.2526 753.141 32.7381 755.115 Q30.2237 757.088 30.2237 761.035 Q30.2237 765.777 33.2474 768.515 Q36.2711 771.252 41.491 771.252 L61.6384 771.252 L61.6384 777.14 L12.1132 777.14 L12.1132 771.252 L31.5287 771.252 Q28.314 769.151 26.7225 766.318 Q25.1311 763.454 25.1311 759.73 Q25.1311 753.587 28.9505 750.436 Q32.7381 747.285 40.1224 747.285 Z" fill="#000000" fill-rule="nonzero" fill-opacity="1" /><path clip-path="url(#clip530)" d="M43.719 719.403 Q43.719 726.501 45.3422 729.238 Q46.9655 731.975 50.8804 731.975 Q53.9996 731.975 55.8457 729.938 Q57.6599 727.87 57.6599 724.337 Q57.6599 719.467 54.2224 716.539 Q50.7531 713.579 45.0239 713.579 L43.719 713.579 L43.719 719.403 M41.3 707.722 L61.6384 707.722 L61.6384 713.579 L56.2276 713.579 Q59.4741 715.584 61.0337 718.576 Q62.5615 721.568 62.5615 725.896 Q62.5615 731.371 59.5059 734.617 Q56.4186 737.832 51.2623 737.832 Q45.2467 737.832 42.1912 733.822 Q39.1357 729.779 39.1357 721.79 L39.1357 713.579 L38.5628 713.579 Q34.5205 713.579 32.3244 716.252 Q30.0964 718.894 30.0964 723.7 Q30.0964 726.756 30.8284 729.652 Q31.5605 732.548 33.0246 735.222 L27.6137 735.222 Q26.3724 732.007 25.7677 728.984 Q25.1311 725.96 25.1311 723.095 Q25.1311 715.361 29.1415 711.542 Q33.1519 707.722 41.3 707.722 Z" fill="#000000" fill-rule="nonzero" fill-opacity="1" /><path clip-path="url(#clip530)" d="M27.0408 672.934 L32.579 672.934 Q31.3059 675.416 30.6693 678.09 Q30.0327 680.763 30.0327 683.628 Q30.0327 687.988 31.3695 690.185 Q32.7063 692.349 35.3799 692.349 Q37.4169 692.349 38.5946 690.789 Q39.7404 689.23 40.7908 684.519 L41.2364 682.514 Q42.5732 676.276 45.0239 673.666 Q47.4429 671.024 51.8034 671.024 Q56.7687 671.024 59.6651 674.971 Q62.5615 678.885 62.5615 685.76 Q62.5615 688.625 61.9886 691.744 Q61.4475 694.832 60.3335 698.269 L54.2861 698.269 Q55.973 695.023 56.8323 691.872 Q57.6599 688.721 57.6599 685.633 Q57.6599 681.495 56.2594 679.267 Q54.8271 677.039 52.249 677.039 Q49.8619 677.039 48.5887 678.663 Q47.3156 680.254 46.1379 685.697 L45.6605 687.734 Q44.5147 693.177 42.1594 695.595 Q39.7722 698.014 35.6345 698.014 Q30.6056 698.014 27.8684 694.45 Q25.1311 690.885 25.1311 684.328 Q25.1311 681.082 25.6085 678.217 Q26.086 675.353 27.0408 672.934 Z" fill="#000000" fill-rule="nonzero" fill-opacity="1" /><path clip-path="url(#clip530)" d="M42.3504 631.206 L45.2149 631.206 L45.2149 658.133 Q51.2623 657.751 54.4452 654.505 Q57.5962 651.227 57.5962 645.402 Q57.5962 642.028 56.7687 638.877 Q55.9411 635.694 54.2861 632.575 L59.8242 632.575 Q61.161 635.726 61.8612 639.036 Q62.5615 642.346 62.5615 645.752 Q62.5615 654.282 57.5962 659.279 Q52.631 664.244 44.1646 664.244 Q35.4117 664.244 30.2873 659.534 Q25.1311 654.791 25.1311 646.771 Q25.1311 639.577 29.7781 635.408 Q34.3932 631.206 42.3504 631.206 M40.6316 637.063 Q35.8255 637.126 32.9609 639.768 Q30.0964 642.378 30.0964 646.707 Q30.0964 651.608 32.8654 654.568 Q35.6345 657.497 40.6634 657.942 L40.6316 637.063 Z" fill="#000000" fill-rule="nonzero" fill-opacity="1" /><path clip-path="url(#clip530)" d="M12.1769 586.806 Q19.4975 591.071 26.6589 593.139 Q33.8203 595.208 41.1727 595.208 Q48.5251 595.208 55.7502 593.139 Q62.9434 591.039 70.2321 586.806 L70.2321 591.898 Q62.7524 596.672 55.5274 599.06 Q48.3023 601.415 41.1727 601.415 Q34.0749 601.415 26.8817 599.06 Q19.6884 596.704 12.1769 591.898 L12.1769 586.806 Z" fill="#000000" fill-rule="nonzero" fill-opacity="1" /><path clip-path="url(#clip530)" d="M31.4013 551.985 L12.1132 551.985 L12.1132 546.129 L61.6384 546.129 L61.6384 551.985 L56.2912 551.985 Q59.4741 553.831 61.0337 556.664 Q62.5615 559.465 62.5615 563.412 Q62.5615 569.873 57.4052 573.947 Q52.249 577.989 43.8463 577.989 Q35.4436 577.989 30.2873 573.947 Q25.1311 569.873 25.1311 563.412 Q25.1311 559.465 26.6907 556.664 Q28.2185 553.831 31.4013 551.985 M43.8463 571.942 Q50.3075 571.942 53.9996 569.3 Q57.6599 566.626 57.6599 561.979 Q57.6599 557.332 53.9996 554.659 Q50.3075 551.985 43.8463 551.985 Q37.3851 551.985 33.7248 554.659 Q30.0327 557.332 30.0327 561.979 Q30.0327 566.626 33.7248 569.3 Q37.3851 571.942 43.8463 571.942 Z" fill="#000000" fill-rule="nonzero" fill-opacity="1" /><path clip-path="url(#clip530)" d="M42.3504 503.574 L45.2149 503.574 L45.2149 530.501 Q51.2623 530.119 54.4452 526.872 Q57.5962 523.594 57.5962 517.769 Q57.5962 514.396 56.7687 511.245 Q55.9411 508.062 54.2861 504.943 L59.8242 504.943 Q61.161 508.094 61.8612 511.404 Q62.5615 514.714 62.5615 518.12 Q62.5615 526.65 57.5962 531.647 Q52.631 536.612 44.1646 536.612 Q35.4117 536.612 30.2873 531.901 Q25.1311 527.159 25.1311 519.138 Q25.1311 511.945 29.7781 507.775 Q34.3932 503.574 42.3504 503.574 M40.6316 509.43 Q35.8255 509.494 32.9609 512.136 Q30.0964 514.746 30.0964 519.074 Q30.0964 523.976 32.8654 526.936 Q35.6345 529.864 40.6634 530.31 L40.6316 509.43 Z" fill="#000000" fill-rule="nonzero" fill-opacity="1" /><path clip-path="url(#clip530)" d="M43.4007 470.504 Q37.035 470.504 33.5338 473.146 Q30.0327 475.756 30.0327 480.498 Q30.0327 485.209 33.5338 487.851 Q37.035 490.461 43.4007 490.461 Q49.7346 490.461 53.2357 487.851 Q56.7368 485.209 56.7368 480.498 Q56.7368 475.756 53.2357 473.146 Q49.7346 470.504 43.4007 470.504 M57.2143 464.648 Q66.3172 464.648 70.7414 468.69 Q75.1974 472.732 75.1974 481.071 Q75.1974 484.159 74.72 486.896 Q74.2744 489.633 73.3195 492.211 L67.6222 492.211 Q69.0227 489.633 69.6911 487.119 Q70.3595 484.604 70.3595 481.994 Q70.3595 476.233 67.3358 473.369 Q64.3439 470.504 58.2646 470.504 L55.3682 470.504 Q58.5192 472.318 60.0788 475.151 Q61.6384 477.984 61.6384 481.931 Q61.6384 488.487 56.6414 492.498 Q51.6443 496.508 43.4007 496.508 Q35.1253 496.508 30.1282 492.498 Q25.1311 488.487 25.1311 481.931 Q25.1311 477.984 26.6907 475.151 Q28.2503 472.318 31.4013 470.504 L25.9905 470.504 L25.9905 464.648 L57.2143 464.648 Z" fill="#000000" fill-rule="nonzero" fill-opacity="1" /><path clip-path="url(#clip530)" d="M12.1769 453.508 L12.1769 448.415 Q19.6884 443.641 26.8817 441.285 Q34.0749 438.898 41.1727 438.898 Q48.3023 438.898 55.5274 441.285 Q62.7524 443.641 70.2321 448.415 L70.2321 453.508 Q62.9434 449.274 55.7502 447.206 Q48.5251 445.105 41.1727 445.105 Q33.8203 445.105 26.6589 447.206 Q19.4975 449.274 12.1769 453.508 Z" fill="#000000" fill-rule="nonzero" fill-opacity="1" /><polyline clip-path="url(#clip533)" style="stroke:#009af9; stroke-linecap:round; stroke-linejoin:round; stroke-width:4; stroke-opacity:1; fill:none" points="345.425,501.471 577.419,503.439 744.722,507.3 876.333,513.73 987.869,523.579 1063.71,533.718 1137.33,546.705 1384.93,601.26 1648.16,650.351 1895.77,704.895 1951.53,715.64 2007.3,724.631 2112.15,736.887 2232.6,745.222 2379.83,750.468 2573.9,753.399 "/>
<path clip-path="url(#clip530)" d="M278.571 1274.29 L2640.76 1274.29 L2640.76 1007.24 L278.571 1007.24  Z" fill="#ffffff" fill-rule="evenodd" fill-opacity="1"/>
<defs>
  <clipPath id="clip534">
    <rect x="278" y="1007" width="2363" height="268"/>
  </clipPath>
</defs>
<polyline clip-path="url(#clip534)" style="stroke:#000000; stroke-linecap:round; stroke-linejoin:round; stroke-width:2; stroke-opacity:0.1; fill:none" points="1236.82,1274.29 1236.82,1007.24 "/>
<polyline clip-path="url(#clip534)" style="stroke:#000000; stroke-linecap:round; stroke-linejoin:round; stroke-width:2; stroke-opacity:0.1; fill:none" points="2573.9,1274.29 2573.9,1007.24 "/>
<polyline clip-path="url(#clip534)" style="stroke:#000000; stroke-linecap:round; stroke-linejoin:round; stroke-width:2; stroke-opacity:0.1; fill:none" points="278.571,1229.25 2640.76,1229.25 "/>
<polyline clip-path="url(#clip534)" style="stroke:#000000; stroke-linecap:round; stroke-linejoin:round; stroke-width:2; stroke-opacity:0.1; fill:none" points="278.571,1175.64 2640.76,1175.64 "/>
<polyline clip-path="url(#clip534)" style="stroke:#000000; stroke-linecap:round; stroke-linejoin:round; stroke-width:2; stroke-opacity:0.1; fill:none" points="278.571,1122.03 2640.76,1122.03 "/>
<polyline clip-path="url(#clip534)" style="stroke:#000000; stroke-linecap:round; stroke-linejoin:round; stroke-width:2; stroke-opacity:0.1; fill:none" points="278.571,1068.41 2640.76,1068.41 "/>
<polyline clip-path="url(#clip534)" style="stroke:#000000; stroke-linecap:round; stroke-linejoin:round; stroke-width:2; stroke-opacity:0.1; fill:none" points="278.571,1014.8 2640.76,1014.8 "/>
<polyline clip-path="url(#clip530)" style="stroke:#000000; stroke-linecap:round; stroke-linejoin:round; stroke-width:4; stroke-opacity:1; fill:none" points="278.571,1274.29 2640.76,1274.29 "/>
<polyline clip-path="url(#clip530)" style="stroke:#000000; stroke-linecap:round; stroke-linejoin:round; stroke-width:4; stroke-opacity:1; fill:none" points="1236.82,1274.29 1236.82,1255.39 "/>
<polyline clip-path="url(#clip530)" style="stroke:#000000; stroke-linecap:round; stroke-linejoin:round; stroke-width:4; stroke-opacity:1; fill:none" points="2573.9,1274.29 2573.9,1255.39 "/>
<path clip-path="url(#clip530)" d="M1201.8 1350.72 L1209.44 1350.72 L1209.44 1324.35 L1201.13 1326.02 L1201.13 1321.76 L1209.39 1320.09 L1214.07 1320.09 L1214.07 1350.72 L1221.71 1350.72 L1221.71 1354.65 L1201.8 1354.65 L1201.8 1350.72 Z" fill="#000000" fill-rule="nonzero" fill-opacity="1" /><path clip-path="url(#clip530)" d="M1241.15 1323.17 Q1237.54 1323.17 1235.71 1326.74 Q1233.9 1330.28 1233.9 1337.41 Q1233.9 1344.51 1235.71 1348.08 Q1237.54 1351.62 1241.15 1351.62 Q1244.78 1351.62 1246.59 1348.08 Q1248.42 1344.51 1248.42 1337.41 Q1248.42 1330.28 1246.59 1326.74 Q1244.78 1323.17 1241.15 1323.17 M1241.15 1319.47 Q1246.96 1319.47 1250.02 1324.07 Q1253.09 1328.66 1253.09 1337.41 Q1253.09 1346.13 1250.02 1350.74 Q1246.96 1355.32 1241.15 1355.32 Q1235.34 1355.32 1232.26 1350.74 Q1229.21 1346.13 1229.21 1337.41 Q1229.21 1328.66 1232.26 1324.07 Q1235.34 1319.47 1241.15 1319.47 Z" fill="#000000" fill-rule="nonzero" fill-opacity="1" /><path clip-path="url(#clip530)" d="M1262.8 1301.66 Q1259.87 1301.66 1258.38 1304.56 Q1256.91 1307.44 1256.91 1313.23 Q1256.91 1319 1258.38 1321.9 Q1259.87 1324.78 1262.8 1324.78 Q1265.75 1324.78 1267.22 1321.9 Q1268.71 1319 1268.71 1313.23 Q1268.71 1307.44 1267.22 1304.56 Q1265.75 1301.66 1262.8 1301.66 M1262.8 1298.65 Q1267.52 1298.65 1270 1302.4 Q1272.5 1306.12 1272.5 1313.23 Q1272.5 1320.32 1270 1324.06 Q1267.52 1327.79 1262.8 1327.79 Q1258.08 1327.79 1255.58 1324.06 Q1253.09 1320.32 1253.09 1313.23 Q1253.09 1306.12 1255.58 1302.4 Q1258.08 1298.65 1262.8 1298.65 Z" fill="#000000" fill-rule="nonzero" fill-opacity="1" /><path clip-path="url(#clip530)" d="M2539.35 1350.72 L2546.98 1350.72 L2546.98 1324.35 L2538.67 1326.02 L2538.67 1321.76 L2546.94 1320.09 L2551.61 1320.09 L2551.61 1350.72 L2559.25 1350.72 L2559.25 1354.65 L2539.35 1354.65 L2539.35 1350.72 Z" fill="#000000" fill-rule="nonzero" fill-opacity="1" /><path clip-path="url(#clip530)" d="M2578.7 1323.17 Q2575.09 1323.17 2573.26 1326.74 Q2571.45 1330.28 2571.45 1337.41 Q2571.45 1344.51 2573.26 1348.08 Q2575.09 1351.62 2578.7 1351.62 Q2582.33 1351.62 2584.14 1348.08 Q2585.97 1344.51 2585.97 1337.41 Q2585.97 1330.28 2584.14 1326.74 Q2582.33 1323.17 2578.7 1323.17 M2578.7 1319.47 Q2584.51 1319.47 2587.56 1324.07 Q2590.64 1328.66 2590.64 1337.41 Q2590.64 1346.13 2587.56 1350.74 Q2584.51 1355.32 2578.7 1355.32 Q2572.89 1355.32 2569.81 1350.74 Q2566.75 1346.13 2566.75 1337.41 Q2566.75 1328.66 2569.81 1324.07 Q2572.89 1319.47 2578.7 1319.47 Z" fill="#000000" fill-rule="nonzero" fill-opacity="1" /><path clip-path="url(#clip530)" d="M2603.34 1312.1 Q2606.06 1312.68 2607.59 1314.53 Q2609.13 1316.37 2609.13 1319.08 Q2609.13 1323.24 2606.27 1325.51 Q2603.41 1327.79 2598.15 1327.79 Q2596.38 1327.79 2594.5 1327.43 Q2592.63 1327.09 2590.64 1326.39 L2590.64 1322.73 Q2592.22 1323.65 2594.1 1324.12 Q2595.98 1324.59 2598.03 1324.59 Q2601.61 1324.59 2603.47 1323.18 Q2605.35 1321.77 2605.35 1319.08 Q2605.35 1316.6 2603.6 1315.2 Q2601.87 1313.79 2598.77 1313.79 L2595.49 1313.79 L2595.49 1310.67 L2598.92 1310.67 Q2601.72 1310.67 2603.2 1309.56 Q2604.69 1308.43 2604.69 1306.33 Q2604.69 1304.16 2603.15 1303.02 Q2601.62 1301.85 2598.77 1301.85 Q2597.21 1301.85 2595.42 1302.19 Q2593.63 1302.53 2591.49 1303.24 L2591.49 1299.86 Q2593.65 1299.26 2595.53 1298.95 Q2597.43 1298.65 2599.1 1298.65 Q2603.43 1298.65 2605.95 1300.63 Q2608.47 1302.58 2608.47 1305.93 Q2608.47 1308.26 2607.14 1309.88 Q2605.8 1311.48 2603.34 1312.1 Z" fill="#000000" fill-rule="nonzero" fill-opacity="1" /><polyline clip-path="url(#clip530)" style="stroke:#000000; stroke-linecap:round; stroke-linejoin:round; stroke-width:4; stroke-opacity:1; fill:none" points="278.571,1274.29 278.571,1007.24 "/>
<polyline clip-path="url(#clip530)" style="stroke:#000000; stroke-linecap:round; stroke-linejoin:round; stroke-width:4; stroke-opacity:1; fill:none" points="278.571,1229.25 297.468,1229.25 "/>
<polyline clip-path="url(#clip530)" style="stroke:#000000; stroke-linecap:round; stroke-linejoin:round; stroke-width:4; stroke-opacity:1; fill:none" points="278.571,1175.64 297.468,1175.64 "/>
<polyline clip-path="url(#clip530)" style="stroke:#000000; stroke-linecap:round; stroke-linejoin:round; stroke-width:4; stroke-opacity:1; fill:none" points="278.571,1122.03 297.468,1122.03 "/>
<polyline clip-path="url(#clip530)" style="stroke:#000000; stroke-linecap:round; stroke-linejoin:round; stroke-width:4; stroke-opacity:1; fill:none" points="278.571,1068.41 297.468,1068.41 "/>
<polyline clip-path="url(#clip530)" style="stroke:#000000; stroke-linecap:round; stroke-linejoin:round; stroke-width:4; stroke-opacity:1; fill:none" points="278.571,1014.8 297.468,1014.8 "/>
<path clip-path="url(#clip530)" d="M136.418 1249.04 L144.057 1249.04 L144.057 1222.68 L135.747 1224.34 L135.747 1220.09 L144.011 1218.42 L148.687 1218.42 L148.687 1249.04 L156.326 1249.04 L156.326 1252.98 L136.418 1252.98 L136.418 1249.04 Z" fill="#000000" fill-rule="nonzero" fill-opacity="1" /><path clip-path="url(#clip530)" d="M175.77 1221.5 Q172.159 1221.5 170.33 1225.06 Q168.525 1228.6 168.525 1235.73 Q168.525 1242.84 170.33 1246.4 Q172.159 1249.95 175.77 1249.95 Q179.404 1249.95 181.21 1246.4 Q183.038 1242.84 183.038 1235.73 Q183.038 1228.6 181.21 1225.06 Q179.404 1221.5 175.77 1221.5 M175.77 1217.79 Q181.58 1217.79 184.636 1222.4 Q187.714 1226.98 187.714 1235.73 Q187.714 1244.46 184.636 1249.07 Q181.58 1253.65 175.77 1253.65 Q169.96 1253.65 166.881 1249.07 Q163.826 1244.46 163.826 1235.73 Q163.826 1226.98 166.881 1222.4 Q169.96 1217.79 175.77 1217.79 Z" fill="#000000" fill-rule="nonzero" fill-opacity="1" /><path clip-path="url(#clip530)" d="M187.714 1211.9 L211.826 1211.9 L211.826 1215.09 L187.714 1215.09 L187.714 1211.9 Z" fill="#000000" fill-rule="nonzero" fill-opacity="1" /><path clip-path="url(#clip530)" d="M230.464 1200.8 L220.872 1215.79 L230.464 1215.79 L230.464 1200.8 M229.468 1197.49 L234.245 1197.49 L234.245 1215.79 L238.251 1215.79 L238.251 1218.95 L234.245 1218.95 L234.245 1225.57 L230.464 1225.57 L230.464 1218.95 L217.788 1218.95 L217.788 1215.28 L229.468 1197.49 Z" fill="#000000" fill-rule="nonzero" fill-opacity="1" /><path clip-path="url(#clip530)" d="M137.34 1195.43 L144.979 1195.43 L144.979 1169.07 L136.669 1170.73 L136.669 1166.47 L144.932 1164.81 L149.608 1164.81 L149.608 1195.43 L157.247 1195.43 L157.247 1199.37 L137.34 1199.37 L137.34 1195.43 Z" fill="#000000" fill-rule="nonzero" fill-opacity="1" /><path clip-path="url(#clip530)" d="M176.692 1167.89 Q173.08 1167.89 171.252 1171.45 Q169.446 1174.99 169.446 1182.12 Q169.446 1189.23 171.252 1192.79 Q173.08 1196.33 176.692 1196.33 Q180.326 1196.33 182.131 1192.79 Q183.96 1189.23 183.96 1182.12 Q183.96 1174.99 182.131 1171.45 Q180.326 1167.89 176.692 1167.89 M176.692 1164.18 Q182.502 1164.18 185.557 1168.79 Q188.636 1173.37 188.636 1182.12 Q188.636 1190.85 185.557 1195.45 Q182.502 1200.04 176.692 1200.04 Q170.881 1200.04 167.803 1195.45 Q164.747 1190.85 164.747 1182.12 Q164.747 1173.37 167.803 1168.79 Q170.881 1164.18 176.692 1164.18 Z" fill="#000000" fill-rule="nonzero" fill-opacity="1" /><path clip-path="url(#clip530)" d="M188.636 1158.28 L212.747 1158.28 L212.747 1161.48 L188.636 1161.48 L188.636 1158.28 Z" fill="#000000" fill-rule="nonzero" fill-opacity="1" /><path clip-path="url(#clip530)" d="M232.458 1156.82 Q235.185 1157.4 236.709 1159.24 Q238.251 1161.09 238.251 1163.79 Q238.251 1167.95 235.392 1170.23 Q232.533 1172.5 227.267 1172.5 Q225.499 1172.5 223.618 1172.14 Q221.756 1171.81 219.763 1171.11 L219.763 1167.44 Q221.343 1168.36 223.223 1168.83 Q225.104 1169.3 227.154 1169.3 Q230.728 1169.3 232.59 1167.89 Q234.47 1166.48 234.47 1163.79 Q234.47 1161.31 232.721 1159.92 Q230.991 1158.51 227.888 1158.51 L224.615 1158.51 L224.615 1155.39 L228.038 1155.39 Q230.841 1155.39 232.326 1154.28 Q233.812 1153.15 233.812 1151.04 Q233.812 1148.88 232.27 1147.73 Q230.747 1146.57 227.888 1146.57 Q226.327 1146.57 224.54 1146.9 Q222.753 1147.24 220.609 1147.96 L220.609 1144.57 Q222.772 1143.97 224.653 1143.67 Q226.552 1143.37 228.226 1143.37 Q232.552 1143.37 235.072 1145.34 Q237.593 1147.3 237.593 1150.65 Q237.593 1152.98 236.257 1154.6 Q234.922 1156.2 232.458 1156.82 Z" fill="#000000" fill-rule="nonzero" fill-opacity="1" /><path clip-path="url(#clip530)" d="M138.111 1141.82 L145.75 1141.82 L145.75 1115.45 L137.44 1117.12 L137.44 1112.86 L145.704 1111.19 L150.379 1111.19 L150.379 1141.82 L158.018 1141.82 L158.018 1145.75 L138.111 1145.75 L138.111 1141.82 Z" fill="#000000" fill-rule="nonzero" fill-opacity="1" /><path clip-path="url(#clip530)" d="M177.463 1114.27 Q173.852 1114.27 172.023 1117.84 Q170.217 1121.38 170.217 1128.51 Q170.217 1135.61 172.023 1139.18 Q173.852 1142.72 177.463 1142.72 Q181.097 1142.72 182.902 1139.18 Q184.731 1135.61 184.731 1128.51 Q184.731 1121.38 182.902 1117.84 Q181.097 1114.27 177.463 1114.27 M177.463 1110.57 Q183.273 1110.57 186.328 1115.18 Q189.407 1119.76 189.407 1128.51 Q189.407 1137.24 186.328 1141.84 Q183.273 1146.42 177.463 1146.42 Q171.653 1146.42 168.574 1141.84 Q165.518 1137.24 165.518 1128.51 Q165.518 1119.76 168.574 1115.18 Q171.653 1110.57 177.463 1110.57 Z" fill="#000000" fill-rule="nonzero" fill-opacity="1" /><path clip-path="url(#clip530)" d="M189.407 1104.67 L213.519 1104.67 L213.519 1107.87 L189.407 1107.87 L189.407 1104.67 Z" fill="#000000" fill-rule="nonzero" fill-opacity="1" /><path clip-path="url(#clip530)" d="M224.991 1115.15 L238.251 1115.15 L238.251 1118.34 L220.421 1118.34 L220.421 1115.15 Q222.584 1112.91 226.308 1109.15 Q230.051 1105.37 231.01 1104.28 Q232.834 1102.23 233.549 1100.81 Q234.282 1099.39 234.282 1098.01 Q234.282 1095.77 232.703 1094.36 Q231.141 1092.95 228.621 1092.95 Q226.835 1092.95 224.841 1093.57 Q222.866 1094.19 220.609 1095.45 L220.609 1091.62 Q222.904 1090.7 224.897 1090.23 Q226.891 1089.76 228.546 1089.76 Q232.909 1089.76 235.505 1091.94 Q238.1 1094.12 238.1 1097.77 Q238.1 1099.5 237.442 1101.06 Q236.803 1102.6 235.091 1104.71 Q234.621 1105.25 232.101 1107.87 Q229.58 1110.46 224.991 1115.15 Z" fill="#000000" fill-rule="nonzero" fill-opacity="1" /><path clip-path="url(#clip530)" d="M137.81 1088.21 L145.449 1088.21 L145.449 1061.84 L137.139 1063.51 L137.139 1059.25 L145.403 1057.58 L150.079 1057.58 L150.079 1088.21 L157.717 1088.21 L157.717 1092.14 L137.81 1092.14 L137.81 1088.21 Z" fill="#000000" fill-rule="nonzero" fill-opacity="1" /><path clip-path="url(#clip530)" d="M177.162 1060.66 Q173.551 1060.66 171.722 1064.22 Q169.916 1067.77 169.916 1074.9 Q169.916 1082 171.722 1085.57 Q173.551 1089.11 177.162 1089.11 Q180.796 1089.11 182.602 1085.57 Q184.43 1082 184.43 1074.9 Q184.43 1067.77 182.602 1064.22 Q180.796 1060.66 177.162 1060.66 M177.162 1056.96 Q182.972 1056.96 186.027 1061.56 Q189.106 1066.15 189.106 1074.9 Q189.106 1083.62 186.027 1088.23 Q182.972 1092.81 177.162 1092.81 Q171.352 1092.81 168.273 1088.23 Q165.217 1083.62 165.217 1074.9 Q165.217 1066.15 168.273 1061.56 Q171.352 1056.96 177.162 1056.96 Z" fill="#000000" fill-rule="nonzero" fill-opacity="1" /><path clip-path="url(#clip530)" d="M189.106 1051.06 L213.218 1051.06 L213.218 1054.25 L189.106 1054.25 L189.106 1051.06 Z" fill="#000000" fill-rule="nonzero" fill-opacity="1" /><path clip-path="url(#clip530)" d="M222.076 1061.53 L228.283 1061.53 L228.283 1040.11 L221.531 1041.47 L221.531 1038 L228.245 1036.65 L232.044 1036.65 L232.044 1061.53 L238.251 1061.53 L238.251 1064.73 L222.076 1064.73 L222.076 1061.53 Z" fill="#000000" fill-rule="nonzero" fill-opacity="1" /><path clip-path="url(#clip530)" d="M167.545 1034.59 L175.184 1034.59 L175.184 1008.23 L166.874 1009.89 L166.874 1005.64 L175.138 1003.97 L179.814 1003.97 L179.814 1034.59 L187.452 1034.59 L187.452 1038.53 L167.545 1038.53 L167.545 1034.59 Z" fill="#000000" fill-rule="nonzero" fill-opacity="1" /><path clip-path="url(#clip530)" d="M206.897 1007.05 Q203.286 1007.05 201.457 1010.61 Q199.651 1014.15 199.651 1021.28 Q199.651 1028.39 201.457 1031.95 Q203.286 1035.5 206.897 1035.5 Q210.531 1035.5 212.337 1031.95 Q214.165 1028.39 214.165 1021.28 Q214.165 1014.15 212.337 1010.61 Q210.531 1007.05 206.897 1007.05 M206.897 1003.34 Q212.707 1003.34 215.763 1007.95 Q218.841 1012.53 218.841 1021.28 Q218.841 1030.01 215.763 1034.62 Q212.707 1039.2 206.897 1039.2 Q201.087 1039.2 198.008 1034.62 Q194.952 1030.01 194.952 1021.28 Q194.952 1012.53 198.008 1007.95 Q201.087 1003.34 206.897 1003.34 Z" fill="#000000" fill-rule="nonzero" fill-opacity="1" /><path clip-path="url(#clip530)" d="M228.546 985.539 Q225.612 985.539 224.126 988.436 Q222.659 991.313 222.659 997.106 Q222.659 1002.88 224.126 1005.78 Q225.612 1008.65 228.546 1008.65 Q231.499 1008.65 232.966 1005.78 Q234.452 1002.88 234.452 997.106 Q234.452 991.313 232.966 988.436 Q231.499 985.539 228.546 985.539 M228.546 982.53 Q233.267 982.53 235.749 986.273 Q238.251 989.997 238.251 997.106 Q238.251 1004.2 235.749 1007.94 Q233.267 1011.66 228.546 1011.66 Q223.825 1011.66 221.324 1007.94 Q218.841 1004.2 218.841 997.106 Q218.841 989.997 221.324 986.273 Q223.825 982.53 228.546 982.53 Z" fill="#000000" fill-rule="nonzero" fill-opacity="1" /><path clip-path="url(#clip530)" d="M33.651 1320.6 L33.651 1311.02 L65.9888 1298.89 L33.651 1286.7 L33.651 1277.12 L81.171 1277.12 L81.171 1283.39 L39.4438 1283.39 L72.0362 1295.64 L72.0362 1302.1 L39.4438 1314.36 L81.171 1314.36 L81.171 1320.6 L33.651 1320.6 Z" fill="#000000" fill-rule="nonzero" fill-opacity="1" /><path clip-path="url(#clip530)" d="M63.2516 1248.41 Q63.2516 1255.51 64.8748 1258.24 Q66.4981 1260.98 70.413 1260.98 Q73.5322 1260.98 75.3782 1258.95 Q77.1925 1256.88 77.1925 1253.34 Q77.1925 1248.47 73.755 1245.55 Q70.2857 1242.59 64.5565 1242.59 L63.2516 1242.59 L63.2516 1248.41 M60.8326 1236.73 L81.171 1236.73 L81.171 1242.59 L75.7602 1242.59 Q79.0067 1244.59 80.5663 1247.58 Q82.0941 1250.57 82.0941 1254.9 Q82.0941 1260.38 79.0385 1263.62 Q75.9512 1266.84 70.7949 1266.84 Q64.7793 1266.84 61.7238 1262.83 Q58.6683 1258.79 58.6683 1250.8 L58.6683 1242.59 L58.0953 1242.59 Q54.0531 1242.59 51.857 1245.26 Q49.629 1247.9 49.629 1252.71 Q49.629 1255.76 50.361 1258.66 Q51.0931 1261.56 52.5572 1264.23 L47.1463 1264.23 Q45.905 1261.01 45.3003 1257.99 Q44.6637 1254.97 44.6637 1252.1 Q44.6637 1244.37 48.6741 1240.55 Q52.6845 1236.73 60.8326 1236.73 Z" fill="#000000" fill-rule="nonzero" fill-opacity="1" /><path clip-path="url(#clip530)" d="M62.9333 1201.21 Q56.5676 1201.21 53.0664 1203.85 Q49.5653 1206.46 49.5653 1211.2 Q49.5653 1215.91 53.0664 1218.55 Q56.5676 1221.16 62.9333 1221.16 Q69.2672 1221.16 72.7683 1218.55 Q76.2694 1215.91 76.2694 1211.2 Q76.2694 1206.46 72.7683 1203.85 Q69.2672 1201.21 62.9333 1201.21 M76.7469 1195.35 Q85.8498 1195.35 90.274 1199.39 Q94.73 1203.44 94.73 1211.78 Q94.73 1214.86 94.2526 1217.6 Q93.807 1220.34 92.8521 1222.92 L87.1548 1222.92 Q88.5553 1220.34 89.2237 1217.82 Q89.8921 1215.31 89.8921 1212.7 Q89.8921 1206.94 86.8683 1204.07 Q83.8765 1201.21 77.7972 1201.21 L74.9008 1201.21 Q78.0518 1203.02 79.6114 1205.86 Q81.171 1208.69 81.171 1212.63 Q81.171 1219.19 76.174 1223.2 Q71.1769 1227.21 62.9333 1227.21 Q54.6579 1227.21 49.6608 1223.2 Q44.6637 1219.19 44.6637 1212.63 Q44.6637 1208.69 46.2233 1205.86 Q47.7829 1203.02 50.9339 1201.21 L45.5231 1201.21 L45.5231 1195.35 L76.7469 1195.35 Z" fill="#000000" fill-rule="nonzero" fill-opacity="1" /><path clip-path="url(#clip530)" d="M59.6549 1153.66 L81.171 1153.66 L81.171 1159.51 L59.8459 1159.51 Q54.7852 1159.51 52.2707 1161.49 Q49.7563 1163.46 49.7563 1167.41 Q49.7563 1172.15 52.78 1174.89 Q55.8037 1177.62 61.0236 1177.62 L81.171 1177.62 L81.171 1183.51 L45.5231 1183.51 L45.5231 1177.62 L51.0612 1177.62 Q47.8466 1175.52 46.2551 1172.69 Q44.6637 1169.83 44.6637 1166.1 Q44.6637 1159.96 48.4831 1156.81 Q52.2707 1153.66 59.6549 1153.66 Z" fill="#000000" fill-rule="nonzero" fill-opacity="1" /><path clip-path="url(#clip530)" d="M45.5231 1141.98 L45.5231 1136.12 L81.171 1136.12 L81.171 1141.98 L45.5231 1141.98 M31.6458 1141.98 L31.6458 1136.12 L39.0619 1136.12 L39.0619 1141.98 L31.6458 1141.98 Z" fill="#000000" fill-rule="nonzero" fill-opacity="1" /><path clip-path="url(#clip530)" d="M35.4016 1118.07 L45.5231 1118.07 L45.5231 1106.01 L50.0746 1106.01 L50.0746 1118.07 L69.4263 1118.07 Q73.7868 1118.07 75.0281 1116.89 Q76.2694 1115.68 76.2694 1112.02 L76.2694 1106.01 L81.171 1106.01 L81.171 1112.02 Q81.171 1118.8 78.6566 1121.38 Q76.1103 1123.96 69.4263 1123.96 L50.0746 1123.96 L50.0746 1128.26 L45.5231 1128.26 L45.5231 1123.96 L35.4016 1123.96 L35.4016 1118.07 Z" fill="#000000" fill-rule="nonzero" fill-opacity="1" /><path clip-path="url(#clip530)" d="M67.1028 1098.91 L45.5231 1098.91 L45.5231 1093.05 L66.88 1093.05 Q71.9408 1093.05 74.487 1091.08 Q77.0015 1089.11 77.0015 1085.16 Q77.0015 1080.42 73.9778 1077.68 Q70.9541 1074.91 65.7342 1074.91 L45.5231 1074.91 L45.5231 1069.06 L81.171 1069.06 L81.171 1074.91 L75.6965 1074.91 Q78.943 1077.05 80.5345 1079.88 Q82.0941 1082.68 82.0941 1086.4 Q82.0941 1092.55 78.2746 1095.73 Q74.4552 1098.91 67.1028 1098.91 M44.6637 1084.17 L44.6637 1084.17 Z" fill="#000000" fill-rule="nonzero" fill-opacity="1" /><path clip-path="url(#clip530)" d="M50.9339 1033.54 L31.6458 1033.54 L31.6458 1027.68 L81.171 1027.68 L81.171 1033.54 L75.8238 1033.54 Q79.0067 1035.38 80.5663 1038.21 Q82.0941 1041.02 82.0941 1044.96 Q82.0941 1051.42 76.9378 1055.5 Q71.7816 1059.54 63.3789 1059.54 Q54.9762 1059.54 49.8199 1055.5 Q44.6637 1051.42 44.6637 1044.96 Q44.6637 1041.02 46.2233 1038.21 Q47.7511 1035.38 50.9339 1033.54 M63.3789 1053.49 Q69.8401 1053.49 73.5322 1050.85 Q77.1925 1048.18 77.1925 1043.53 Q77.1925 1038.88 73.5322 1036.21 Q69.8401 1033.54 63.3789 1033.54 Q56.9177 1033.54 53.2574 1036.21 Q49.5653 1038.88 49.5653 1043.53 Q49.5653 1048.18 53.2574 1050.85 Q56.9177 1053.49 63.3789 1053.49 Z" fill="#000000" fill-rule="nonzero" fill-opacity="1" /><path clip-path="url(#clip530)" d="M61.8829 985.124 L64.7475 985.124 L64.7475 1012.05 Q70.7949 1011.67 73.9778 1008.42 Q77.1288 1005.14 77.1288 999.32 Q77.1288 995.946 76.3013 992.795 Q75.4737 989.612 73.8186 986.493 L79.3568 986.493 Q80.6936 989.644 81.3938 992.954 Q82.0941 996.264 82.0941 999.67 Q82.0941 1008.2 77.1288 1013.2 Q72.1636 1018.16 63.6972 1018.16 Q54.9443 1018.16 49.8199 1013.45 Q44.6637 1008.71 44.6637 1000.69 Q44.6637 993.495 49.3107 989.326 Q53.9258 985.124 61.8829 985.124 M60.1642 990.981 Q55.3581 991.044 52.4935 993.686 Q49.629 996.296 49.629 1000.62 Q49.629 1005.53 52.398 1008.49 Q55.1671 1011.41 60.196 1011.86 L60.1642 990.981 Z" fill="#000000" fill-rule="nonzero" fill-opacity="1" /><polyline clip-path="url(#clip534)" style="stroke:#009af9; stroke-linecap:round; stroke-linejoin:round; stroke-width:4; stroke-opacity:1; fill:none" points="345.425,1014.8 900.871,1015.16 1110.56,1017.6 1197.56,1020.77 1277.86,1025.64 1364.86,1033.06 1465.24,1043.63 1592.39,1058.96 1703.93,1074.24 1797.62,1089.27 1886.84,1106.04 2089.84,1150.94 2573.9,1266.73 "/>
<path clip-path="url(#clip530)" d="M2272.79 1119.83 L2562.02 1119.83 L2562.02 1016.15 L2272.79 1016.15  Z" fill="#ffffff" fill-rule="evenodd" fill-opacity="1"/>
<polyline clip-path="url(#clip530)" style="stroke:#000000; stroke-linecap:round; stroke-linejoin:round; stroke-width:4; stroke-opacity:1; fill:none" points="2272.79,1119.83 2562.02,1119.83 2562.02,1016.15 2272.79,1016.15 2272.79,1119.83 "/>
<polyline clip-path="url(#clip530)" style="stroke:#009af9; stroke-linecap:round; stroke-linejoin:round; stroke-width:4; stroke-opacity:1; fill:none" points="2299.04,1067.99 2456.51,1067.99 "/>
<path clip-path="url(#clip530)" d="M2496.6 1087.67 Q2494.8 1092.3 2493.08 1093.71 Q2491.37 1095.13 2488.5 1095.13 L2485.1 1095.13 L2485.1 1091.56 L2487.6 1091.56 Q2489.36 1091.56 2490.33 1090.73 Q2491.3 1089.9 2492.48 1086.79 L2493.25 1084.85 L2482.76 1059.34 L2487.27 1059.34 L2495.38 1079.62 L2503.48 1059.34 L2507.99 1059.34 L2496.6 1087.67 Z" fill="#000000" fill-rule="nonzero" fill-opacity="1" /><path clip-path="url(#clip530)" d="M2528.64 1066.63 Q2532 1067.35 2533.87 1069.62 Q2535.77 1071.89 2535.77 1075.22 Q2535.77 1080.34 2532.25 1083.14 Q2528.73 1085.94 2522.25 1085.94 Q2520.08 1085.94 2517.76 1085.5 Q2515.47 1085.08 2513.02 1084.22 L2513.02 1079.71 Q2514.96 1080.84 2517.27 1081.42 Q2519.59 1082 2522.11 1082 Q2526.51 1082 2528.8 1080.27 Q2531.12 1078.53 2531.12 1075.22 Q2531.12 1072.16 2528.96 1070.45 Q2526.83 1068.71 2523.02 1068.71 L2518.99 1068.71 L2518.99 1064.87 L2523.2 1064.87 Q2526.65 1064.87 2528.48 1063.51 Q2530.31 1062.12 2530.31 1059.52 Q2530.31 1056.86 2528.41 1055.45 Q2526.53 1054.02 2523.02 1054.02 Q2521.09 1054.02 2518.89 1054.43 Q2516.7 1054.85 2514.06 1055.73 L2514.06 1051.56 Q2516.72 1050.82 2519.03 1050.45 Q2521.37 1050.08 2523.43 1050.08 Q2528.76 1050.08 2531.86 1052.51 Q2534.96 1054.92 2534.96 1059.04 Q2534.96 1061.91 2533.32 1063.9 Q2531.67 1065.87 2528.64 1066.63 Z" fill="#000000" fill-rule="nonzero" fill-opacity="1" /><path clip-path="url(#clip530)" d="M278.571 1720.96 L2640.76 1720.96 L2640.76 1453.91 L278.571 1453.91  Z" fill="#ffffff" fill-rule="evenodd" fill-opacity="1"/>
<defs>
  <clipPath id="clip535">
    <rect x="278" y="1453" width="2363" height="268"/>
  </clipPath>
</defs>
<polyline clip-path="url(#clip535)" style="stroke:#000000; stroke-linecap:round; stroke-linejoin:round; stroke-width:2; stroke-opacity:0.1; fill:none" points="1236.82,1720.96 1236.82,1453.91 "/>
<polyline clip-path="url(#clip535)" style="stroke:#000000; stroke-linecap:round; stroke-linejoin:round; stroke-width:2; stroke-opacity:0.1; fill:none" points="2573.9,1720.96 2573.9,1453.91 "/>
<polyline clip-path="url(#clip535)" style="stroke:#000000; stroke-linecap:round; stroke-linejoin:round; stroke-width:2; stroke-opacity:0.1; fill:none" points="278.571,1672.69 2640.76,1672.69 "/>
<polyline clip-path="url(#clip535)" style="stroke:#000000; stroke-linecap:round; stroke-linejoin:round; stroke-width:2; stroke-opacity:0.1; fill:none" points="278.571,1602 2640.76,1602 "/>
<polyline clip-path="url(#clip535)" style="stroke:#000000; stroke-linecap:round; stroke-linejoin:round; stroke-width:2; stroke-opacity:0.1; fill:none" points="278.571,1531.31 2640.76,1531.31 "/>
<polyline clip-path="url(#clip535)" style="stroke:#000000; stroke-linecap:round; stroke-linejoin:round; stroke-width:2; stroke-opacity:0.1; fill:none" points="278.571,1460.62 2640.76,1460.62 "/>
<polyline clip-path="url(#clip530)" style="stroke:#000000; stroke-linecap:round; stroke-linejoin:round; stroke-width:4; stroke-opacity:1; fill:none" points="278.571,1720.96 2640.76,1720.96 "/>
<polyline clip-path="url(#clip530)" style="stroke:#000000; stroke-linecap:round; stroke-linejoin:round; stroke-width:4; stroke-opacity:1; fill:none" points="1236.82,1720.96 1236.82,1702.06 "/>
<polyline clip-path="url(#clip530)" style="stroke:#000000; stroke-linecap:round; stroke-linejoin:round; stroke-width:4; stroke-opacity:1; fill:none" points="2573.9,1720.96 2573.9,1702.06 "/>
<path clip-path="url(#clip530)" d="M1201.8 1797.39 L1209.44 1797.39 L1209.44 1771.02 L1201.13 1772.69 L1201.13 1768.43 L1209.39 1766.76 L1214.07 1766.76 L1214.07 1797.39 L1221.71 1797.39 L1221.71 1801.32 L1201.8 1801.32 L1201.8 1797.39 Z" fill="#000000" fill-rule="nonzero" fill-opacity="1" /><path clip-path="url(#clip530)" d="M1241.15 1769.84 Q1237.54 1769.84 1235.71 1773.4 Q1233.9 1776.95 1233.9 1784.08 Q1233.9 1791.18 1235.71 1794.75 Q1237.54 1798.29 1241.15 1798.29 Q1244.78 1798.29 1246.59 1794.75 Q1248.42 1791.18 1248.42 1784.08 Q1248.42 1776.95 1246.59 1773.4 Q1244.78 1769.84 1241.15 1769.84 M1241.15 1766.14 Q1246.96 1766.14 1250.02 1770.74 Q1253.09 1775.33 1253.09 1784.08 Q1253.09 1792.8 1250.02 1797.41 Q1246.96 1801.99 1241.15 1801.99 Q1235.34 1801.99 1232.26 1797.41 Q1229.21 1792.8 1229.21 1784.08 Q1229.21 1775.33 1232.26 1770.74 Q1235.34 1766.14 1241.15 1766.14 Z" fill="#000000" fill-rule="nonzero" fill-opacity="1" /><path clip-path="url(#clip530)" d="M1262.8 1748.33 Q1259.87 1748.33 1258.38 1751.23 Q1256.91 1754.11 1256.91 1759.9 Q1256.91 1765.67 1258.38 1768.57 Q1259.87 1771.45 1262.8 1771.45 Q1265.75 1771.45 1267.22 1768.57 Q1268.71 1765.67 1268.71 1759.9 Q1268.71 1754.11 1267.22 1751.23 Q1265.75 1748.33 1262.8 1748.33 M1262.8 1745.32 Q1267.52 1745.32 1270 1749.06 Q1272.5 1752.79 1272.5 1759.9 Q1272.5 1766.99 1270 1770.73 Q1267.52 1774.46 1262.8 1774.46 Q1258.08 1774.46 1255.58 1770.73 Q1253.09 1766.99 1253.09 1759.9 Q1253.09 1752.79 1255.58 1749.06 Q1258.08 1745.32 1262.8 1745.32 Z" fill="#000000" fill-rule="nonzero" fill-opacity="1" /><path clip-path="url(#clip530)" d="M2539.35 1797.39 L2546.98 1797.39 L2546.98 1771.02 L2538.67 1772.69 L2538.67 1768.43 L2546.94 1766.76 L2551.61 1766.76 L2551.61 1797.39 L2559.25 1797.39 L2559.25 1801.32 L2539.35 1801.32 L2539.35 1797.39 Z" fill="#000000" fill-rule="nonzero" fill-opacity="1" /><path clip-path="url(#clip530)" d="M2578.7 1769.84 Q2575.09 1769.84 2573.26 1773.4 Q2571.45 1776.95 2571.45 1784.08 Q2571.45 1791.18 2573.26 1794.75 Q2575.09 1798.29 2578.7 1798.29 Q2582.33 1798.29 2584.14 1794.75 Q2585.97 1791.18 2585.97 1784.08 Q2585.97 1776.95 2584.14 1773.4 Q2582.33 1769.84 2578.7 1769.84 M2578.7 1766.14 Q2584.51 1766.14 2587.56 1770.74 Q2590.64 1775.33 2590.64 1784.08 Q2590.64 1792.8 2587.56 1797.41 Q2584.51 1801.99 2578.7 1801.99 Q2572.89 1801.99 2569.81 1797.41 Q2566.75 1792.8 2566.75 1784.08 Q2566.75 1775.33 2569.81 1770.74 Q2572.89 1766.14 2578.7 1766.14 Z" fill="#000000" fill-rule="nonzero" fill-opacity="1" /><path clip-path="url(#clip530)" d="M2603.34 1758.77 Q2606.06 1759.35 2607.59 1761.2 Q2609.13 1763.04 2609.13 1765.75 Q2609.13 1769.9 2606.27 1772.18 Q2603.41 1774.46 2598.15 1774.46 Q2596.38 1774.46 2594.5 1774.1 Q2592.63 1773.76 2590.64 1773.06 L2590.64 1769.4 Q2592.22 1770.32 2594.1 1770.79 Q2595.98 1771.26 2598.03 1771.26 Q2601.61 1771.26 2603.47 1769.85 Q2605.35 1768.44 2605.35 1765.75 Q2605.35 1763.26 2603.6 1761.87 Q2601.87 1760.46 2598.77 1760.46 L2595.49 1760.46 L2595.49 1757.34 L2598.92 1757.34 Q2601.72 1757.34 2603.2 1756.23 Q2604.69 1755.1 2604.69 1753 Q2604.69 1750.83 2603.15 1749.69 Q2601.62 1748.52 2598.77 1748.52 Q2597.21 1748.52 2595.42 1748.86 Q2593.63 1749.2 2591.49 1749.91 L2591.49 1746.53 Q2593.65 1745.92 2595.53 1745.62 Q2597.43 1745.32 2599.1 1745.32 Q2603.43 1745.32 2605.95 1747.3 Q2608.47 1749.25 2608.47 1752.6 Q2608.47 1754.93 2607.14 1756.55 Q2605.8 1758.15 2603.34 1758.77 Z" fill="#000000" fill-rule="nonzero" fill-opacity="1" /><path clip-path="url(#clip530)" d="M1179.48 1841.05 L1206.79 1841.05 L1206.79 1846.46 L1185.91 1846.46 L1185.91 1860.46 L1204.75 1860.46 L1204.75 1865.87 L1185.91 1865.87 L1185.91 1888.57 L1179.48 1888.57 L1179.48 1841.05 Z" fill="#000000" fill-rule="nonzero" fill-opacity="1" /><path clip-path="url(#clip530)" d="M1232.63 1858.39 Q1231.64 1857.82 1230.47 1857.56 Q1229.32 1857.28 1227.92 1857.28 Q1222.95 1857.28 1220.28 1860.52 Q1217.64 1863.74 1217.64 1869.79 L1217.64 1888.57 L1211.75 1888.57 L1211.75 1852.92 L1217.64 1852.92 L1217.64 1858.46 Q1219.49 1855.21 1222.45 1853.65 Q1225.41 1852.06 1229.64 1852.06 Q1230.24 1852.06 1230.98 1852.15 Q1231.71 1852.22 1232.6 1852.38 L1232.63 1858.39 Z" fill="#000000" fill-rule="nonzero" fill-opacity="1" /><path clip-path="url(#clip530)" d="M1267.83 1869.28 L1267.83 1872.14 L1240.91 1872.14 Q1241.29 1878.19 1244.53 1881.37 Q1247.81 1884.52 1253.64 1884.52 Q1257.01 1884.52 1260.16 1883.7 Q1263.34 1882.87 1266.46 1881.21 L1266.46 1886.75 Q1263.31 1888.09 1260 1888.79 Q1256.69 1889.49 1253.29 1889.49 Q1244.76 1889.49 1239.76 1884.52 Q1234.79 1879.56 1234.79 1871.09 Q1234.79 1862.34 1239.51 1857.21 Q1244.25 1852.06 1252.27 1852.06 Q1259.46 1852.06 1263.63 1856.7 Q1267.83 1861.32 1267.83 1869.28 M1261.98 1867.56 Q1261.91 1862.75 1259.27 1859.89 Q1256.66 1857.02 1252.33 1857.02 Q1247.43 1857.02 1244.47 1859.79 Q1241.54 1862.56 1241.1 1867.59 L1261.98 1867.56 Z" fill="#000000" fill-rule="nonzero" fill-opacity="1" /><path clip-path="url(#clip530)" d="M1280.95 1870.77 Q1280.95 1877.23 1283.59 1880.93 Q1286.26 1884.59 1290.91 1884.59 Q1295.56 1884.59 1298.23 1880.93 Q1300.9 1877.23 1300.9 1870.77 Q1300.9 1864.31 1298.23 1860.65 Q1295.56 1856.96 1290.91 1856.96 Q1286.26 1856.96 1283.59 1860.65 Q1280.95 1864.31 1280.95 1870.77 M1300.9 1883.22 Q1299.06 1886.4 1296.22 1887.96 Q1293.42 1889.49 1289.48 1889.49 Q1283.02 1889.49 1278.94 1884.33 Q1274.9 1879.18 1274.9 1870.77 Q1274.9 1862.37 1278.94 1857.21 Q1283.02 1852.06 1289.48 1852.06 Q1293.42 1852.06 1296.22 1853.62 Q1299.06 1855.15 1300.9 1858.33 L1300.9 1852.92 L1306.76 1852.92 L1306.76 1902.12 L1300.9 1902.12 L1300.9 1883.22 Z" fill="#000000" fill-rule="nonzero" fill-opacity="1" /><path clip-path="url(#clip530)" d="M1318.22 1874.5 L1318.22 1852.92 L1324.07 1852.92 L1324.07 1874.27 Q1324.07 1879.33 1326.05 1881.88 Q1328.02 1884.4 1331.97 1884.4 Q1336.71 1884.4 1339.45 1881.37 Q1342.22 1878.35 1342.22 1873.13 L1342.22 1852.92 L1348.07 1852.92 L1348.07 1888.57 L1342.22 1888.57 L1342.22 1883.09 Q1340.08 1886.34 1337.25 1887.93 Q1334.45 1889.49 1330.73 1889.49 Q1324.58 1889.49 1321.4 1885.67 Q1318.22 1881.85 1318.22 1874.5 M1332.95 1852.06 L1332.95 1852.06 Z" fill="#000000" fill-rule="nonzero" fill-opacity="1" /><path clip-path="url(#clip530)" d="M1390.63 1869.28 L1390.63 1872.14 L1363.7 1872.14 Q1364.08 1878.19 1367.33 1881.37 Q1370.61 1884.52 1376.43 1884.52 Q1379.81 1884.52 1382.96 1883.7 Q1386.14 1882.87 1389.26 1881.21 L1389.26 1886.75 Q1386.11 1888.09 1382.8 1888.79 Q1379.49 1889.49 1376.08 1889.49 Q1367.55 1889.49 1362.55 1884.52 Q1357.59 1879.56 1357.59 1871.09 Q1357.59 1862.34 1362.3 1857.21 Q1367.04 1852.06 1375.06 1852.06 Q1382.26 1852.06 1386.43 1856.7 Q1390.63 1861.32 1390.63 1869.28 M1384.77 1867.56 Q1384.71 1862.75 1382.07 1859.89 Q1379.46 1857.02 1375.13 1857.02 Q1370.23 1857.02 1367.27 1859.79 Q1364.34 1862.56 1363.89 1867.59 L1384.77 1867.56 Z" fill="#000000" fill-rule="nonzero" fill-opacity="1" /><path clip-path="url(#clip530)" d="M1429.87 1867.05 L1429.87 1888.57 L1424.02 1888.57 L1424.02 1867.24 Q1424.02 1862.18 1422.04 1859.66 Q1420.07 1857.15 1416.12 1857.15 Q1411.38 1857.15 1408.64 1860.17 Q1405.9 1863.2 1405.9 1868.42 L1405.9 1888.57 L1400.02 1888.57 L1400.02 1852.92 L1405.9 1852.92 L1405.9 1858.46 Q1408.01 1855.24 1410.84 1853.65 Q1413.7 1852.06 1417.43 1852.06 Q1423.57 1852.06 1426.72 1855.88 Q1429.87 1859.66 1429.87 1867.05 Z" fill="#000000" fill-rule="nonzero" fill-opacity="1" /><path clip-path="url(#clip530)" d="M1467.21 1854.29 L1467.21 1859.76 Q1464.72 1858.39 1462.21 1857.72 Q1459.73 1857.02 1457.18 1857.02 Q1451.48 1857.02 1448.33 1860.65 Q1445.18 1864.25 1445.18 1870.77 Q1445.18 1877.3 1448.33 1880.93 Q1451.48 1884.52 1457.18 1884.52 Q1459.73 1884.52 1462.21 1883.85 Q1464.72 1883.15 1467.21 1881.79 L1467.21 1887.2 Q1464.76 1888.34 1462.11 1888.92 Q1459.5 1889.49 1456.54 1889.49 Q1448.49 1889.49 1443.75 1884.43 Q1439.01 1879.37 1439.01 1870.77 Q1439.01 1862.05 1443.78 1857.05 Q1448.59 1852.06 1456.93 1852.06 Q1459.63 1852.06 1462.21 1852.63 Q1464.79 1853.17 1467.21 1854.29 Z" fill="#000000" fill-rule="nonzero" fill-opacity="1" /><path clip-path="url(#clip530)" d="M1492.22 1891.88 Q1489.74 1898.24 1487.39 1900.18 Q1485.03 1902.12 1481.08 1902.12 L1476.41 1902.12 L1476.41 1897.22 L1479.84 1897.22 Q1482.26 1897.22 1483.6 1896.08 Q1484.94 1894.93 1486.56 1890.67 L1487.61 1887.99 L1473.19 1852.92 L1479.4 1852.92 L1490.54 1880.8 L1501.68 1852.92 L1507.88 1852.92 L1492.22 1891.88 Z" fill="#000000" fill-rule="nonzero" fill-opacity="1" /><path clip-path="url(#clip530)" d="M1536.15 1839.04 L1549.64 1839.04 L1549.64 1843.59 L1542 1843.59 L1542 1892.61 L1549.64 1892.61 L1549.64 1897.16 L1536.15 1897.16 L1536.15 1839.04 Z" fill="#000000" fill-rule="nonzero" fill-opacity="1" /><path clip-path="url(#clip530)" d="M1582.78 1858.39 Q1581.79 1857.82 1580.61 1857.56 Q1579.47 1857.28 1578.07 1857.28 Q1573.1 1857.28 1570.43 1860.52 Q1567.78 1863.74 1567.78 1869.79 L1567.78 1888.57 L1561.9 1888.57 L1561.9 1852.92 L1567.78 1852.92 L1567.78 1858.46 Q1569.63 1855.21 1572.59 1853.65 Q1575.55 1852.06 1579.78 1852.06 Q1580.39 1852.06 1581.12 1852.15 Q1581.85 1852.22 1582.74 1852.38 L1582.78 1858.39 Z" fill="#000000" fill-rule="nonzero" fill-opacity="1" /><path clip-path="url(#clip530)" d="M1605.12 1870.65 Q1598.02 1870.65 1595.28 1872.27 Q1592.55 1873.89 1592.55 1877.81 Q1592.55 1880.93 1594.58 1882.77 Q1596.65 1884.59 1600.19 1884.59 Q1605.06 1884.59 1607.98 1881.15 Q1610.94 1877.68 1610.94 1871.95 L1610.94 1870.65 L1605.12 1870.65 M1616.8 1868.23 L1616.8 1888.57 L1610.94 1888.57 L1610.94 1883.15 Q1608.94 1886.4 1605.95 1887.96 Q1602.96 1889.49 1598.63 1889.49 Q1593.15 1889.49 1589.91 1886.43 Q1586.69 1883.35 1586.69 1878.19 Q1586.69 1872.17 1590.7 1869.12 Q1594.74 1866.06 1602.73 1866.06 L1610.94 1866.06 L1610.94 1865.49 Q1610.94 1861.45 1608.27 1859.25 Q1605.63 1857.02 1600.82 1857.02 Q1597.77 1857.02 1594.87 1857.76 Q1591.97 1858.49 1589.3 1859.95 L1589.3 1854.54 Q1592.52 1853.3 1595.54 1852.69 Q1598.56 1852.06 1601.43 1852.06 Q1609.16 1852.06 1612.98 1856.07 Q1616.8 1860.08 1616.8 1868.23 Z" fill="#000000" fill-rule="nonzero" fill-opacity="1" /><path clip-path="url(#clip530)" d="M1652.32 1858.33 L1652.32 1839.04 L1658.18 1839.04 L1658.18 1888.57 L1652.32 1888.57 L1652.32 1883.22 Q1650.48 1886.4 1647.64 1887.96 Q1644.84 1889.49 1640.9 1889.49 Q1634.43 1889.49 1630.36 1884.33 Q1626.32 1879.18 1626.32 1870.77 Q1626.32 1862.37 1630.36 1857.21 Q1634.43 1852.06 1640.9 1852.06 Q1644.84 1852.06 1647.64 1853.62 Q1650.48 1855.15 1652.32 1858.33 M1632.36 1870.77 Q1632.36 1877.23 1635.01 1880.93 Q1637.68 1884.59 1642.33 1884.59 Q1646.97 1884.59 1649.65 1880.93 Q1652.32 1877.23 1652.32 1870.77 Q1652.32 1864.31 1649.65 1860.65 Q1646.97 1856.96 1642.33 1856.96 Q1637.68 1856.96 1635.01 1860.65 Q1632.36 1864.31 1632.36 1870.77 Z" fill="#000000" fill-rule="nonzero" fill-opacity="1" /><path clip-path="url(#clip530)" d="M1680.65 1841.05 L1686.06 1841.05 L1669.51 1894.61 L1664.1 1894.61 L1680.65 1841.05 Z" fill="#000000" fill-rule="nonzero" fill-opacity="1" /><path clip-path="url(#clip530)" d="M1714.93 1853.97 L1714.93 1859.51 Q1712.45 1858.23 1709.77 1857.6 Q1707.1 1856.96 1704.23 1856.96 Q1699.87 1856.96 1697.68 1858.3 Q1695.51 1859.63 1695.51 1862.31 Q1695.51 1864.34 1697.07 1865.52 Q1698.63 1866.67 1703.34 1867.72 L1705.35 1868.16 Q1711.59 1869.5 1714.2 1871.95 Q1716.84 1874.37 1716.84 1878.73 Q1716.84 1883.7 1712.89 1886.59 Q1708.98 1889.49 1702.1 1889.49 Q1699.24 1889.49 1696.12 1888.92 Q1693.03 1888.37 1689.59 1887.26 L1689.59 1881.21 Q1692.84 1882.9 1695.99 1883.76 Q1699.14 1884.59 1702.23 1884.59 Q1706.37 1884.59 1708.59 1883.19 Q1710.82 1881.75 1710.82 1879.18 Q1710.82 1876.79 1709.2 1875.52 Q1707.61 1874.24 1702.16 1873.06 L1700.13 1872.59 Q1694.69 1871.44 1692.27 1869.09 Q1689.85 1866.7 1689.85 1862.56 Q1689.85 1857.53 1693.41 1854.8 Q1696.98 1852.06 1703.53 1852.06 Q1706.78 1852.06 1709.64 1852.54 Q1712.51 1853.01 1714.93 1853.97 Z" fill="#000000" fill-rule="nonzero" fill-opacity="1" /><path clip-path="url(#clip530)" d="M1739.85 1839.04 L1739.85 1897.16 L1726.35 1897.16 L1726.35 1892.61 L1733.96 1892.61 L1733.96 1843.59 L1726.35 1843.59 L1726.35 1839.04 L1739.85 1839.04 Z" fill="#000000" fill-rule="nonzero" fill-opacity="1" /><polyline clip-path="url(#clip530)" style="stroke:#000000; stroke-linecap:round; stroke-linejoin:round; stroke-width:4; stroke-opacity:1; fill:none" points="278.571,1720.96 278.571,1453.91 "/>
<polyline clip-path="url(#clip530)" style="stroke:#000000; stroke-linecap:round; stroke-linejoin:round; stroke-width:4; stroke-opacity:1; fill:none" points="278.571,1672.69 297.468,1672.69 "/>
<polyline clip-path="url(#clip530)" style="stroke:#000000; stroke-linecap:round; stroke-linejoin:round; stroke-width:4; stroke-opacity:1; fill:none" points="278.571,1602 297.468,1602 "/>
<polyline clip-path="url(#clip530)" style="stroke:#000000; stroke-linecap:round; stroke-linejoin:round; stroke-width:4; stroke-opacity:1; fill:none" points="278.571,1531.31 297.468,1531.31 "/>
<polyline clip-path="url(#clip530)" style="stroke:#000000; stroke-linecap:round; stroke-linejoin:round; stroke-width:4; stroke-opacity:1; fill:none" points="278.571,1460.62 297.468,1460.62 "/>
<path clip-path="url(#clip530)" d="M116.214 1673.14 L145.89 1673.14 L145.89 1677.07 L116.214 1677.07 L116.214 1673.14 Z" fill="#000000" fill-rule="nonzero" fill-opacity="1" /><path clip-path="url(#clip530)" d="M156.793 1686.03 L164.432 1686.03 L164.432 1659.67 L156.122 1661.33 L156.122 1657.07 L164.385 1655.41 L169.061 1655.41 L169.061 1686.03 L176.7 1686.03 L176.7 1689.97 L156.793 1689.97 L156.793 1686.03 Z" fill="#000000" fill-rule="nonzero" fill-opacity="1" /><path clip-path="url(#clip530)" d="M186.191 1655.41 L204.547 1655.41 L204.547 1659.34 L190.473 1659.34 L190.473 1667.81 Q191.492 1667.47 192.51 1667.3 Q193.529 1667.12 194.547 1667.12 Q200.334 1667.12 203.714 1670.29 Q207.094 1673.46 207.094 1678.88 Q207.094 1684.46 203.621 1687.56 Q200.149 1690.64 193.83 1690.64 Q191.654 1690.64 189.385 1690.27 Q187.14 1689.9 184.733 1689.16 L184.733 1684.46 Q186.816 1685.59 189.038 1686.15 Q191.26 1686.7 193.737 1686.7 Q197.742 1686.7 200.08 1684.6 Q202.418 1682.49 202.418 1678.88 Q202.418 1675.27 200.08 1673.16 Q197.742 1671.05 193.737 1671.05 Q191.862 1671.05 189.987 1671.47 Q188.135 1671.89 186.191 1672.77 L186.191 1655.41 Z" fill="#000000" fill-rule="nonzero" fill-opacity="1" /><path clip-path="url(#clip530)" d="M226.306 1658.48 Q222.695 1658.48 220.867 1662.05 Q219.061 1665.59 219.061 1672.72 Q219.061 1679.83 220.867 1683.39 Q222.695 1686.93 226.306 1686.93 Q229.941 1686.93 231.746 1683.39 Q233.575 1679.83 233.575 1672.72 Q233.575 1665.59 231.746 1662.05 Q229.941 1658.48 226.306 1658.48 M226.306 1654.78 Q232.117 1654.78 235.172 1659.39 Q238.251 1663.97 238.251 1672.72 Q238.251 1681.45 235.172 1686.05 Q232.117 1690.64 226.306 1690.64 Q220.496 1690.64 217.418 1686.05 Q214.362 1681.45 214.362 1672.72 Q214.362 1663.97 217.418 1659.39 Q220.496 1654.78 226.306 1654.78 Z" fill="#000000" fill-rule="nonzero" fill-opacity="1" /><path clip-path="url(#clip530)" d="M116.214 1602.45 L145.89 1602.45 L145.89 1606.38 L116.214 1606.38 L116.214 1602.45 Z" fill="#000000" fill-rule="nonzero" fill-opacity="1" /><path clip-path="url(#clip530)" d="M156.793 1615.34 L164.432 1615.34 L164.432 1588.98 L156.122 1590.64 L156.122 1586.38 L164.385 1584.72 L169.061 1584.72 L169.061 1615.34 L176.7 1615.34 L176.7 1619.28 L156.793 1619.28 L156.793 1615.34 Z" fill="#000000" fill-rule="nonzero" fill-opacity="1" /><path clip-path="url(#clip530)" d="M196.145 1587.8 Q192.533 1587.8 190.705 1591.36 Q188.899 1594.9 188.899 1602.03 Q188.899 1609.14 190.705 1612.7 Q192.533 1616.25 196.145 1616.25 Q199.779 1616.25 201.584 1612.7 Q203.413 1609.14 203.413 1602.03 Q203.413 1594.9 201.584 1591.36 Q199.779 1587.8 196.145 1587.8 M196.145 1584.09 Q201.955 1584.09 205.01 1588.7 Q208.089 1593.28 208.089 1602.03 Q208.089 1610.76 205.01 1615.37 Q201.955 1619.95 196.145 1619.95 Q190.334 1619.95 187.256 1615.37 Q184.2 1610.76 184.2 1602.03 Q184.2 1593.28 187.256 1588.7 Q190.334 1584.09 196.145 1584.09 Z" fill="#000000" fill-rule="nonzero" fill-opacity="1" /><path clip-path="url(#clip530)" d="M226.306 1587.8 Q222.695 1587.8 220.867 1591.36 Q219.061 1594.9 219.061 1602.03 Q219.061 1609.14 220.867 1612.7 Q222.695 1616.25 226.306 1616.25 Q229.941 1616.25 231.746 1612.7 Q233.575 1609.14 233.575 1602.03 Q233.575 1594.9 231.746 1591.36 Q229.941 1587.8 226.306 1587.8 M226.306 1584.09 Q232.117 1584.09 235.172 1588.7 Q238.251 1593.28 238.251 1602.03 Q238.251 1610.76 235.172 1615.37 Q232.117 1619.95 226.306 1619.95 Q220.496 1619.95 217.418 1615.37 Q214.362 1610.76 214.362 1602.03 Q214.362 1593.28 217.418 1588.7 Q220.496 1584.09 226.306 1584.09 Z" fill="#000000" fill-rule="nonzero" fill-opacity="1" /><path clip-path="url(#clip530)" d="M146.376 1531.76 L176.052 1531.76 L176.052 1535.7 L146.376 1535.7 L146.376 1531.76 Z" fill="#000000" fill-rule="nonzero" fill-opacity="1" /><path clip-path="url(#clip530)" d="M186.191 1514.03 L204.547 1514.03 L204.547 1517.96 L190.473 1517.96 L190.473 1526.44 Q191.492 1526.09 192.51 1525.93 Q193.529 1525.74 194.547 1525.74 Q200.334 1525.74 203.714 1528.91 Q207.094 1532.08 207.094 1537.5 Q207.094 1543.08 203.621 1546.18 Q200.149 1549.26 193.83 1549.26 Q191.654 1549.26 189.385 1548.89 Q187.14 1548.52 184.733 1547.78 L184.733 1543.08 Q186.816 1544.21 189.038 1544.77 Q191.26 1545.33 193.737 1545.33 Q197.742 1545.33 200.08 1543.22 Q202.418 1541.11 202.418 1537.5 Q202.418 1533.89 200.08 1531.78 Q197.742 1529.68 193.737 1529.68 Q191.862 1529.68 189.987 1530.09 Q188.135 1530.51 186.191 1531.39 L186.191 1514.03 Z" fill="#000000" fill-rule="nonzero" fill-opacity="1" /><path clip-path="url(#clip530)" d="M226.306 1517.11 Q222.695 1517.11 220.867 1520.67 Q219.061 1524.21 219.061 1531.34 Q219.061 1538.45 220.867 1542.01 Q222.695 1545.56 226.306 1545.56 Q229.941 1545.56 231.746 1542.01 Q233.575 1538.45 233.575 1531.34 Q233.575 1524.21 231.746 1520.67 Q229.941 1517.11 226.306 1517.11 M226.306 1513.4 Q232.117 1513.4 235.172 1518.01 Q238.251 1522.59 238.251 1531.34 Q238.251 1540.07 235.172 1544.68 Q232.117 1549.26 226.306 1549.26 Q220.496 1549.26 217.418 1544.68 Q214.362 1540.07 214.362 1531.34 Q214.362 1522.59 217.418 1518.01 Q220.496 1513.4 226.306 1513.4 Z" fill="#000000" fill-rule="nonzero" fill-opacity="1" /><path clip-path="url(#clip530)" d="M226.306 1446.42 Q222.695 1446.42 220.867 1449.98 Q219.061 1453.53 219.061 1460.65 Q219.061 1467.76 220.867 1471.33 Q222.695 1474.87 226.306 1474.87 Q229.941 1474.87 231.746 1471.33 Q233.575 1467.76 233.575 1460.65 Q233.575 1453.53 231.746 1449.98 Q229.941 1446.42 226.306 1446.42 M226.306 1442.72 Q232.117 1442.72 235.172 1447.32 Q238.251 1451.91 238.251 1460.65 Q238.251 1469.38 235.172 1473.99 Q232.117 1478.57 226.306 1478.57 Q220.496 1478.57 217.418 1473.99 Q214.362 1469.38 214.362 1460.65 Q214.362 1451.91 217.418 1447.32 Q220.496 1442.72 226.306 1442.72 Z" fill="#000000" fill-rule="nonzero" fill-opacity="1" /><path clip-path="url(#clip530)" d="M19.402 1769.54 L37.2578 1769.54 L37.2578 1761.46 Q37.2578 1756.97 34.9343 1754.52 Q32.6108 1752.07 28.314 1752.07 Q24.0489 1752.07 21.7255 1754.52 Q19.402 1756.97 19.402 1761.46 L19.402 1769.54 M14.1184 1775.97 L14.1184 1761.46 Q14.1184 1753.47 17.7469 1749.39 Q21.3435 1745.29 28.314 1745.29 Q35.3481 1745.29 38.9447 1749.39 Q42.5413 1753.47 42.5413 1761.46 L42.5413 1769.54 L61.6384 1769.54 L61.6384 1775.97 L14.1184 1775.97 Z" fill="#000000" fill-rule="nonzero" fill-opacity="1" /><path clip-path="url(#clip530)" d="M40.1224 1707.29 L61.6384 1707.29 L61.6384 1713.14 L40.3133 1713.14 Q35.2526 1713.14 32.7381 1715.11 Q30.2237 1717.09 30.2237 1721.03 Q30.2237 1725.78 33.2474 1728.51 Q36.2711 1731.25 41.491 1731.25 L61.6384 1731.25 L61.6384 1737.14 L12.1132 1737.14 L12.1132 1731.25 L31.5287 1731.25 Q28.314 1729.15 26.7225 1726.32 Q25.1311 1723.45 25.1311 1719.73 Q25.1311 1713.59 28.9505 1710.44 Q32.7381 1707.29 40.1224 1707.29 Z" fill="#000000" fill-rule="nonzero" fill-opacity="1" /><path clip-path="url(#clip530)" d="M43.719 1679.4 Q43.719 1686.5 45.3422 1689.24 Q46.9655 1691.98 50.8804 1691.98 Q53.9996 1691.98 55.8457 1689.94 Q57.6599 1687.87 57.6599 1684.34 Q57.6599 1679.47 54.2224 1676.54 Q50.7531 1673.58 45.0239 1673.58 L43.719 1673.58 L43.719 1679.4 M41.3 1667.72 L61.6384 1667.72 L61.6384 1673.58 L56.2276 1673.58 Q59.4741 1675.58 61.0337 1678.58 Q62.5615 1681.57 62.5615 1685.9 Q62.5615 1691.37 59.5059 1694.62 Q56.4186 1697.83 51.2623 1697.83 Q45.2467 1697.83 42.1912 1693.82 Q39.1357 1689.78 39.1357 1681.79 L39.1357 1673.58 L38.5628 1673.58 Q34.5205 1673.58 32.3244 1676.25 Q30.0964 1678.89 30.0964 1683.7 Q30.0964 1686.76 30.8284 1689.65 Q31.5605 1692.55 33.0246 1695.22 L27.6137 1695.22 Q26.3724 1692.01 25.7677 1688.98 Q25.1311 1685.96 25.1311 1683.1 Q25.1311 1675.36 29.1415 1671.54 Q33.1519 1667.72 41.3 1667.72 Z" fill="#000000" fill-rule="nonzero" fill-opacity="1" /><path clip-path="url(#clip530)" d="M27.0408 1632.93 L32.579 1632.93 Q31.3059 1635.42 30.6693 1638.09 Q30.0327 1640.76 30.0327 1643.63 Q30.0327 1647.99 31.3695 1650.18 Q32.7063 1652.35 35.3799 1652.35 Q37.4169 1652.35 38.5946 1650.79 Q39.7404 1649.23 40.7908 1644.52 L41.2364 1642.51 Q42.5732 1636.28 45.0239 1633.67 Q47.4429 1631.02 51.8034 1631.02 Q56.7687 1631.02 59.6651 1634.97 Q62.5615 1638.89 62.5615 1645.76 Q62.5615 1648.63 61.9886 1651.74 Q61.4475 1654.83 60.3335 1658.27 L54.2861 1658.27 Q55.973 1655.02 56.8323 1651.87 Q57.6599 1648.72 57.6599 1645.63 Q57.6599 1641.5 56.2594 1639.27 Q54.8271 1637.04 52.249 1637.04 Q49.8619 1637.04 48.5887 1638.66 Q47.3156 1640.25 46.1379 1645.7 L45.6605 1647.73 Q44.5147 1653.18 42.1594 1655.6 Q39.7722 1658.01 35.6345 1658.01 Q30.6056 1658.01 27.8684 1654.45 Q25.1311 1650.88 25.1311 1644.33 Q25.1311 1641.08 25.6085 1638.22 Q26.086 1635.35 27.0408 1632.93 Z" fill="#000000" fill-rule="nonzero" fill-opacity="1" /><path clip-path="url(#clip530)" d="M42.3504 1591.21 L45.2149 1591.21 L45.2149 1618.13 Q51.2623 1617.75 54.4452 1614.5 Q57.5962 1611.23 57.5962 1605.4 Q57.5962 1602.03 56.7687 1598.88 Q55.9411 1595.69 54.2861 1592.57 L59.8242 1592.57 Q61.161 1595.73 61.8612 1599.04 Q62.5615 1602.35 62.5615 1605.75 Q62.5615 1614.28 57.5962 1619.28 Q52.631 1624.24 44.1646 1624.24 Q35.4117 1624.24 30.2873 1619.53 Q25.1311 1614.79 25.1311 1606.77 Q25.1311 1599.58 29.7781 1595.41 Q34.3932 1591.21 42.3504 1591.21 M40.6316 1597.06 Q35.8255 1597.13 32.9609 1599.77 Q30.0964 1602.38 30.0964 1606.71 Q30.0964 1611.61 32.8654 1614.57 Q35.6345 1617.5 40.6634 1617.94 L40.6316 1597.06 Z" fill="#000000" fill-rule="nonzero" fill-opacity="1" /><path clip-path="url(#clip530)" d="M12.1769 1546.81 Q19.4975 1551.07 26.6589 1553.14 Q33.8203 1555.21 41.1727 1555.21 Q48.5251 1555.21 55.7502 1553.14 Q62.9434 1551.04 70.2321 1546.81 L70.2321 1551.9 Q62.7524 1556.67 55.5274 1559.06 Q48.3023 1561.41 41.1727 1561.41 Q34.0749 1561.41 26.8817 1559.06 Q19.6884 1556.7 12.1769 1551.9 L12.1769 1546.81 Z" fill="#000000" fill-rule="nonzero" fill-opacity="1" /><path clip-path="url(#clip530)" d="M31.4013 1511.99 L12.1132 1511.99 L12.1132 1506.13 L61.6384 1506.13 L61.6384 1511.99 L56.2912 1511.99 Q59.4741 1513.83 61.0337 1516.66 Q62.5615 1519.46 62.5615 1523.41 Q62.5615 1529.87 57.4052 1533.95 Q52.249 1537.99 43.8463 1537.99 Q35.4436 1537.99 30.2873 1533.95 Q25.1311 1529.87 25.1311 1523.41 Q25.1311 1519.46 26.6907 1516.66 Q28.2185 1513.83 31.4013 1511.99 M43.8463 1531.94 Q50.3075 1531.94 53.9996 1529.3 Q57.6599 1526.63 57.6599 1521.98 Q57.6599 1517.33 53.9996 1514.66 Q50.3075 1511.99 43.8463 1511.99 Q37.3851 1511.99 33.7248 1514.66 Q30.0327 1517.33 30.0327 1521.98 Q30.0327 1526.63 33.7248 1529.3 Q37.3851 1531.94 43.8463 1531.94 Z" fill="#000000" fill-rule="nonzero" fill-opacity="1" /><path clip-path="url(#clip530)" d="M42.3504 1463.57 L45.2149 1463.57 L45.2149 1490.5 Q51.2623 1490.12 54.4452 1486.87 Q57.5962 1483.59 57.5962 1477.77 Q57.5962 1474.4 56.7687 1471.24 Q55.9411 1468.06 54.2861 1464.94 L59.8242 1464.94 Q61.161 1468.09 61.8612 1471.4 Q62.5615 1474.71 62.5615 1478.12 Q62.5615 1486.65 57.5962 1491.65 Q52.631 1496.61 44.1646 1496.61 Q35.4117 1496.61 30.2873 1491.9 Q25.1311 1487.16 25.1311 1479.14 Q25.1311 1471.94 29.7781 1467.78 Q34.3932 1463.57 42.3504 1463.57 M40.6316 1469.43 Q35.8255 1469.49 32.9609 1472.14 Q30.0964 1474.75 30.0964 1479.07 Q30.0964 1483.98 32.8654 1486.94 Q35.6345 1489.86 40.6634 1490.31 L40.6316 1469.43 Z" fill="#000000" fill-rule="nonzero" fill-opacity="1" /><path clip-path="url(#clip530)" d="M43.4007 1430.5 Q37.035 1430.5 33.5338 1433.15 Q30.0327 1435.76 30.0327 1440.5 Q30.0327 1445.21 33.5338 1447.85 Q37.035 1450.46 43.4007 1450.46 Q49.7346 1450.46 53.2357 1447.85 Q56.7368 1445.21 56.7368 1440.5 Q56.7368 1435.76 53.2357 1433.15 Q49.7346 1430.5 43.4007 1430.5 M57.2143 1424.65 Q66.3172 1424.65 70.7414 1428.69 Q75.1974 1432.73 75.1974 1441.07 Q75.1974 1444.16 74.72 1446.9 Q74.2744 1449.63 73.3195 1452.21 L67.6222 1452.21 Q69.0227 1449.63 69.6911 1447.12 Q70.3595 1444.6 70.3595 1441.99 Q70.3595 1436.23 67.3358 1433.37 Q64.3439 1430.5 58.2646 1430.5 L55.3682 1430.5 Q58.5192 1432.32 60.0788 1435.15 Q61.6384 1437.98 61.6384 1441.93 Q61.6384 1448.49 56.6414 1452.5 Q51.6443 1456.51 43.4007 1456.51 Q35.1253 1456.51 30.1282 1452.5 Q25.1311 1448.49 25.1311 1441.93 Q25.1311 1437.98 26.6907 1435.15 Q28.2503 1432.32 31.4013 1430.5 L25.9905 1430.5 L25.9905 1424.65 L57.2143 1424.65 Z" fill="#000000" fill-rule="nonzero" fill-opacity="1" /><path clip-path="url(#clip530)" d="M12.1769 1413.51 L12.1769 1408.42 Q19.6884 1403.64 26.8817 1401.29 Q34.0749 1398.9 41.1727 1398.9 Q48.3023 1398.9 55.5274 1401.29 Q62.7524 1403.64 70.2321 1408.42 L70.2321 1413.51 Q62.9434 1409.27 55.7502 1407.21 Q48.5251 1405.1 41.1727 1405.1 Q33.8203 1405.1 26.6589 1407.21 Q19.4975 1409.27 12.1769 1413.51 Z" fill="#000000" fill-rule="nonzero" fill-opacity="1" /><polyline clip-path="url(#clip535)" style="stroke:#009af9; stroke-linecap:round; stroke-linejoin:round; stroke-width:4; stroke-opacity:1; fill:none" points="345.425,1461.47 577.419,1463.44 744.722,1467.3 876.333,1473.73 987.869,1483.58 1063.71,1493.72 1137.33,1506.7 1384.93,1561.26 1648.16,1610.35 1895.77,1664.9 1951.53,1675.64 2007.3,1684.63 2112.15,1696.89 2232.6,1705.22 2379.83,1710.47 2573.9,1713.4 "/>
</svg>
