<?xml version="1.0" encoding="utf-8"?>
<svg xmlns="http://www.w3.org/2000/svg" xmlns:xlink="http://www.w3.org/1999/xlink" width="480" height="384" viewBox="0 0 1920 1536">
<defs>
  <clipPath id="clip160">
    <rect x="0" y="0" width="1920" height="1536"/>
  </clipPath>
</defs>
<path clip-path="url(#clip160)" d="M0 1536 L1920 1536 L1920 0 L0 0  Z" fill="#ffffff" fill-rule="evenodd" fill-opacity="1"/>
<defs>
  <clipPath id="clip161">
    <rect x="384" y="0" width="1345" height="1345"/>
  </clipPath>
</defs>
<path clip-path="url(#clip160)" d="M277.001 213.05 L1872.76 213.05 L1872.76 47.2441 L277.001 47.2441  Z" fill="#ffffff" fill-rule="evenodd" fill-opacity="1"/>
<defs>
  <clipPath id="clip162">
    <rect x="277" y="47" width="1597" height="167"/>
  </clipPath>
</defs>
<polyline clip-path="url(#clip162)" style="stroke:#000000; stroke-linecap:round; stroke-linejoin:round; stroke-width:2; stroke-opacity:0.1; fill:none" points="924.335,213.05 924.335,47.2441 "/>
<polyline clip-path="url(#clip162)" style="stroke:#000000; stroke-linecap:round; stroke-linejoin:round; stroke-width:2; stroke-opacity:0.1; fill:none" points="1827.59,213.05 1827.59,47.2441 "/>
<polyline clip-path="url(#clip162)" style="stroke:#000000; stroke-linecap:round; stroke-linejoin:round; stroke-width:2; stroke-opacity:0.1; fill:none" points="277.001,164.828 1872.76,164.828 "/>
<polyline clip-path="url(#clip162)" style="stroke:#000000; stroke-linecap:round; stroke-linejoin:round; stroke-width:2; stroke-opacity:0.1; fill:none" points="277.001,84.1913 1872.76,84.1913 "/>
<polyline clip-path="url(#clip160)" style="stroke:#000000; stroke-linecap:round; stroke-linejoin:round; stroke-width:4; stroke-opacity:1; fill:none" points="277.001,213.05 1872.76,213.05 "/>
<polyline clip-path="url(#clip160)" style="stroke:#000000; stroke-linecap:round; stroke-linejoin:round; stroke-width:4; stroke-opacity:1; fill:none" points="924.335,213.05 924.335,194.152 "/>
<polyline clip-path="url(#clip160)" style="stroke:#000000; stroke-linecap:round; stroke-linejoin:round; stroke-width:4; stroke-opacity:1; fill:none" points="1827.59,213.05 1827.59,194.152 "/>
<path clip-path="url(#clip160)" d="M889.318 283.335 L896.957 283.335 L896.957 256.969 L888.647 258.636 L888.647 254.377 L896.911 252.71 L901.587 252.71 L901.587 283.335 L909.225 283.335 L909.225 287.27 L889.318 287.27 L889.318 283.335 Z" fill="#000000" fill-rule="nonzero" fill-opacity="1" /><path clip-path="url(#clip160)" d="M928.67 255.789 Q925.059 255.789 923.23 259.354 Q921.424 262.895 921.424 270.025 Q921.424 277.131 923.23 280.696 Q925.059 284.238 928.67 284.238 Q932.304 284.238 934.11 280.696 Q935.938 277.131 935.938 270.025 Q935.938 262.895 934.11 259.354 Q932.304 255.789 928.67 255.789 M928.67 252.085 Q934.48 252.085 937.535 256.691 Q940.614 261.275 940.614 270.025 Q940.614 278.752 937.535 283.358 Q934.48 287.941 928.67 287.941 Q922.86 287.941 919.781 283.358 Q916.725 278.752 916.725 270.025 Q916.725 261.275 919.781 256.691 Q922.86 252.085 928.67 252.085 Z" fill="#000000" fill-rule="nonzero" fill-opacity="1" /><path clip-path="url(#clip160)" d="M950.319 234.281 Q947.385 234.281 945.899 237.177 Q944.432 240.055 944.432 245.848 Q944.432 251.622 945.899 254.518 Q947.385 257.396 950.319 257.396 Q953.272 257.396 954.739 254.518 Q956.225 251.622 956.225 245.848 Q956.225 240.055 954.739 237.177 Q953.272 234.281 950.319 234.281 M950.319 231.272 Q955.04 231.272 957.522 235.015 Q960.024 238.738 960.024 245.848 Q960.024 252.938 957.522 256.681 Q955.04 260.405 950.319 260.405 Q945.598 260.405 943.097 256.681 Q940.614 252.938 940.614 245.848 Q940.614 238.738 943.097 235.015 Q945.598 231.272 950.319 231.272 Z" fill="#000000" fill-rule="nonzero" fill-opacity="1" /><path clip-path="url(#clip160)" d="M1793.04 283.335 L1800.68 283.335 L1800.68 256.969 L1792.37 258.636 L1792.37 254.377 L1800.63 252.71 L1805.31 252.71 L1805.31 283.335 L1812.94 283.335 L1812.94 287.27 L1793.04 287.27 L1793.04 283.335 Z" fill="#000000" fill-rule="nonzero" fill-opacity="1" /><path clip-path="url(#clip160)" d="M1832.39 255.789 Q1828.78 255.789 1826.95 259.354 Q1825.14 262.895 1825.14 270.025 Q1825.14 277.131 1826.95 280.696 Q1828.78 284.238 1832.39 284.238 Q1836.02 284.238 1837.83 280.696 Q1839.66 277.131 1839.66 270.025 Q1839.66 262.895 1837.83 259.354 Q1836.02 255.789 1832.39 255.789 M1832.39 252.085 Q1838.2 252.085 1841.25 256.691 Q1844.33 261.275 1844.33 270.025 Q1844.33 278.752 1841.25 283.358 Q1838.2 287.941 1832.39 287.941 Q1826.58 287.941 1823.5 283.358 Q1820.44 278.752 1820.44 270.025 Q1820.44 261.275 1823.5 256.691 Q1826.58 252.085 1832.39 252.085 Z" fill="#000000" fill-rule="nonzero" fill-opacity="1" /><path clip-path="url(#clip160)" d="M1857.03 244.719 Q1859.76 245.302 1861.28 247.146 Q1862.82 248.989 1862.82 251.697 Q1862.82 255.854 1859.96 258.129 Q1857.1 260.405 1851.84 260.405 Q1850.07 260.405 1848.19 260.048 Q1846.33 259.709 1844.33 259.013 L1844.33 255.346 Q1845.91 256.267 1847.79 256.738 Q1849.67 257.208 1851.72 257.208 Q1855.3 257.208 1857.16 255.797 Q1859.04 254.387 1859.04 251.697 Q1859.04 249.214 1857.29 247.823 Q1855.56 246.412 1852.46 246.412 L1849.19 246.412 L1849.19 243.29 L1852.61 243.29 Q1855.41 243.29 1856.9 242.18 Q1858.38 241.052 1858.38 238.945 Q1858.38 236.782 1856.84 235.635 Q1855.32 234.469 1852.46 234.469 Q1850.9 234.469 1849.11 234.808 Q1847.32 235.146 1845.18 235.861 L1845.18 232.476 Q1847.34 231.874 1849.22 231.573 Q1851.12 231.272 1852.8 231.272 Q1857.12 231.272 1859.64 233.247 Q1862.16 235.203 1862.16 238.55 Q1862.16 240.883 1860.83 242.5 Q1859.49 244.099 1857.03 244.719 Z" fill="#000000" fill-rule="nonzero" fill-opacity="1" /><polyline clip-path="url(#clip160)" style="stroke:#000000; stroke-linecap:round; stroke-linejoin:round; stroke-width:4; stroke-opacity:1; fill:none" points="277.001,213.05 277.001,47.2441 "/>
<polyline clip-path="url(#clip160)" style="stroke:#000000; stroke-linecap:round; stroke-linejoin:round; stroke-width:4; stroke-opacity:1; fill:none" points="277.001,164.828 295.898,164.828 "/>
<polyline clip-path="url(#clip160)" style="stroke:#000000; stroke-linecap:round; stroke-linejoin:round; stroke-width:4; stroke-opacity:1; fill:none" points="277.001,84.1913 295.898,84.1913 "/>
<path clip-path="url(#clip160)" d="M147.572 184.621 L155.211 184.621 L155.211 158.255 L146.9 159.922 L146.9 155.663 L155.164 153.996 L159.84 153.996 L159.84 184.621 L167.479 184.621 L167.479 188.556 L147.572 188.556 L147.572 184.621 Z" fill="#000000" fill-rule="nonzero" fill-opacity="1" /><path clip-path="url(#clip160)" d="M186.923 157.075 Q183.312 157.075 181.484 160.64 Q179.678 164.181 179.678 171.311 Q179.678 178.417 181.484 181.982 Q183.312 185.524 186.923 185.524 Q190.558 185.524 192.363 181.982 Q194.192 178.417 194.192 171.311 Q194.192 164.181 192.363 160.64 Q190.558 157.075 186.923 157.075 M186.923 153.371 Q192.734 153.371 195.789 157.978 Q198.868 162.561 198.868 171.311 Q198.868 180.038 195.789 184.644 Q192.734 189.227 186.923 189.227 Q181.113 189.227 178.035 184.644 Q174.979 180.038 174.979 171.311 Q174.979 162.561 178.035 157.978 Q181.113 153.371 186.923 153.371 Z" fill="#000000" fill-rule="nonzero" fill-opacity="1" /><path clip-path="url(#clip160)" d="M198.868 147.472 L222.979 147.472 L222.979 150.67 L198.868 150.67 L198.868 147.472 Z" fill="#000000" fill-rule="nonzero" fill-opacity="1" /><path clip-path="url(#clip160)" d="M231.217 133.066 L246.132 133.066 L246.132 136.263 L234.697 136.263 L234.697 143.147 Q235.524 142.865 236.352 142.733 Q237.179 142.582 238.007 142.582 Q242.709 142.582 245.455 145.159 Q248.201 147.736 248.201 152.137 Q248.201 156.669 245.379 159.19 Q242.558 161.691 237.424 161.691 Q235.656 161.691 233.813 161.39 Q231.988 161.089 230.032 160.487 L230.032 156.669 Q231.725 157.591 233.53 158.042 Q235.336 158.494 237.348 158.494 Q240.602 158.494 242.502 156.782 Q244.401 155.071 244.401 152.137 Q244.401 149.203 242.502 147.491 Q240.602 145.78 237.348 145.78 Q235.825 145.78 234.302 146.118 Q232.797 146.457 231.217 147.172 L231.217 133.066 Z" fill="#000000" fill-rule="nonzero" fill-opacity="1" /><path clip-path="url(#clip160)" d="M177.495 103.984 L185.134 103.984 L185.134 77.6181 L176.824 79.2848 L176.824 75.0255 L185.087 73.3589 L189.763 73.3589 L189.763 103.984 L197.402 103.984 L197.402 107.919 L177.495 107.919 L177.495 103.984 Z" fill="#000000" fill-rule="nonzero" fill-opacity="1" /><path clip-path="url(#clip160)" d="M216.847 76.4375 Q213.235 76.4375 211.407 80.0023 Q209.601 83.544 209.601 90.6736 Q209.601 97.78 211.407 101.345 Q213.235 104.886 216.847 104.886 Q220.481 104.886 222.286 101.345 Q224.115 97.78 224.115 90.6736 Q224.115 83.544 222.286 80.0023 Q220.481 76.4375 216.847 76.4375 M216.847 72.7339 Q222.657 72.7339 225.712 77.3403 Q228.791 81.9236 228.791 90.6736 Q228.791 99.4004 225.712 104.007 Q222.657 108.59 216.847 108.59 Q211.036 108.59 207.958 104.007 Q204.902 99.4004 204.902 90.6736 Q204.902 81.9236 207.958 77.3403 Q211.036 72.7339 216.847 72.7339 Z" fill="#000000" fill-rule="nonzero" fill-opacity="1" /><path clip-path="url(#clip160)" d="M238.496 54.9299 Q235.562 54.9299 234.076 57.8263 Q232.609 60.7039 232.609 66.4967 Q232.609 72.2707 234.076 75.1671 Q235.562 78.0446 238.496 78.0446 Q241.449 78.0446 242.916 75.1671 Q244.401 72.2707 244.401 66.4967 Q244.401 60.7039 242.916 57.8263 Q241.449 54.9299 238.496 54.9299 M238.496 51.9206 Q243.216 51.9206 245.699 55.6634 Q248.201 59.3873 248.201 66.4967 Q248.201 73.5872 245.699 77.3299 Q243.216 81.0539 238.496 81.0539 Q233.775 81.0539 231.274 77.3299 Q228.791 73.5872 228.791 66.4967 Q228.791 59.3873 231.274 55.6634 Q233.775 51.9206 238.496 51.9206 Z" fill="#000000" fill-rule="nonzero" fill-opacity="1" /><path clip-path="url(#clip160)" d="M56.3244 309.978 L56.3244 300.398 L88.6622 288.271 L56.3244 276.081 L56.3244 266.5 L103.844 266.5 L103.844 272.771 L62.1172 272.771 L94.7097 285.025 L94.7097 291.486 L62.1172 303.74 L103.844 303.74 L103.844 309.978 L56.3244 309.978 Z" fill="#000000" fill-rule="nonzero" fill-opacity="1" /><path clip-path="url(#clip160)" d="M85.925 237.791 Q85.925 244.889 87.5482 247.626 Q89.1715 250.363 93.0864 250.363 Q96.2056 250.363 98.0517 248.326 Q99.8659 246.258 99.8659 242.725 Q99.8659 237.855 96.4284 234.927 Q92.9591 231.967 87.23 231.967 L85.925 231.967 L85.925 237.791 M83.506 226.11 L103.844 226.11 L103.844 231.967 L98.4336 231.967 Q101.68 233.972 103.24 236.964 Q104.767 239.955 104.767 244.284 Q104.767 249.759 101.712 253.005 Q98.6246 256.22 93.4683 256.22 Q87.4528 256.22 84.3972 252.209 Q81.3417 248.167 81.3417 240.178 L81.3417 231.967 L80.7688 231.967 Q76.7265 231.967 74.5304 234.64 Q72.3024 237.282 72.3024 242.088 Q72.3024 245.144 73.0344 248.04 Q73.7665 250.936 75.2306 253.61 L69.8197 253.61 Q68.5784 250.395 67.9737 247.372 Q67.3371 244.348 67.3371 241.483 Q67.3371 233.749 71.3475 229.93 Q75.3579 226.11 83.506 226.11 Z" fill="#000000" fill-rule="nonzero" fill-opacity="1" /><path clip-path="url(#clip160)" d="M85.6067 190.589 Q79.241 190.589 75.7399 193.231 Q72.2387 195.841 72.2387 200.584 Q72.2387 205.294 75.7399 207.936 Q79.241 210.546 85.6067 210.546 Q91.9406 210.546 95.4417 207.936 Q98.9429 205.294 98.9429 200.584 Q98.9429 195.841 95.4417 193.231 Q91.9406 190.589 85.6067 190.589 M99.4203 184.733 Q108.523 184.733 112.947 188.775 Q117.403 192.817 117.403 201.157 Q117.403 204.244 116.926 206.981 Q116.48 209.718 115.526 212.297 L109.828 212.297 Q111.229 209.718 111.897 207.204 Q112.565 204.689 112.565 202.08 Q112.565 196.319 109.542 193.454 Q106.55 190.589 100.471 190.589 L97.5742 190.589 Q100.725 192.404 102.285 195.236 Q103.844 198.069 103.844 202.016 Q103.844 208.573 98.8474 212.583 Q93.8503 216.593 85.6067 216.593 Q77.3313 216.593 72.3342 212.583 Q67.3371 208.573 67.3371 202.016 Q67.3371 198.069 68.8967 195.236 Q70.4563 192.404 73.6073 190.589 L68.1965 190.589 L68.1965 184.733 L99.4203 184.733 Z" fill="#000000" fill-rule="nonzero" fill-opacity="1" /><path clip-path="url(#clip160)" d="M82.3284 143.038 L103.844 143.038 L103.844 148.894 L82.5193 148.894 Q77.4586 148.894 74.9441 150.867 Q72.4297 152.841 72.4297 156.788 Q72.4297 161.53 75.4534 164.267 Q78.4771 167.004 83.697 167.004 L103.844 167.004 L103.844 172.893 L68.1965 172.893 L68.1965 167.004 L73.7347 167.004 Q70.52 164.904 68.9285 162.071 Q67.3371 159.207 67.3371 155.483 Q67.3371 149.34 71.1565 146.189 Q74.9441 143.038 82.3284 143.038 Z" fill="#000000" fill-rule="nonzero" fill-opacity="1" /><path clip-path="url(#clip160)" d="M68.1965 131.357 L68.1965 125.5 L103.844 125.5 L103.844 131.357 L68.1965 131.357 M54.3192 131.357 L54.3192 125.5 L61.7353 125.5 L61.7353 131.357 L54.3192 131.357 Z" fill="#000000" fill-rule="nonzero" fill-opacity="1" /><path clip-path="url(#clip160)" d="M58.075 107.453 L68.1965 107.453 L68.1965 95.3903 L72.748 95.3903 L72.748 107.453 L92.0997 107.453 Q96.4602 107.453 97.7015 106.276 Q98.9429 105.066 98.9429 101.406 L98.9429 95.3903 L103.844 95.3903 L103.844 101.406 Q103.844 108.185 101.33 110.763 Q98.7837 113.342 92.0997 113.342 L72.748 113.342 L72.748 117.638 L68.1965 117.638 L68.1965 113.342 L58.075 113.342 L58.075 107.453 Z" fill="#000000" fill-rule="nonzero" fill-opacity="1" /><path clip-path="url(#clip160)" d="M89.7762 88.2925 L68.1965 88.2925 L68.1965 82.4361 L89.5534 82.4361 Q94.6142 82.4361 97.1605 80.4627 Q99.6749 78.4893 99.6749 74.5426 Q99.6749 69.8002 96.6512 67.0629 Q93.6275 64.2938 88.4076 64.2938 L68.1965 64.2938 L68.1965 58.4374 L103.844 58.4374 L103.844 64.2938 L98.3699 64.2938 Q101.616 66.4263 103.208 69.2591 Q104.767 72.06 104.767 75.7839 Q104.767 81.9268 100.948 85.1097 Q97.1286 88.2925 89.7762 88.2925 M67.3371 73.5559 L67.3371 73.5559 Z" fill="#000000" fill-rule="nonzero" fill-opacity="1" /><path clip-path="url(#clip160)" d="M73.6073 22.9167 L54.3192 22.9167 L54.3192 17.0603 L103.844 17.0603 L103.844 22.9167 L98.4973 22.9167 Q101.68 24.7628 103.24 27.5955 Q104.767 30.3964 104.767 34.3432 Q104.767 40.8044 99.6113 44.8784 Q94.455 48.9206 86.0523 48.9206 Q77.6496 48.9206 72.4933 44.8784 Q67.3371 40.8044 67.3371 34.3432 Q67.3371 30.3964 68.8967 27.5955 Q70.4245 24.7628 73.6073 22.9167 M86.0523 42.8732 Q92.5135 42.8732 96.2056 40.2315 Q99.8659 37.5579 99.8659 32.9109 Q99.8659 28.2639 96.2056 25.5903 Q92.5135 22.9167 86.0523 22.9167 Q79.5911 22.9167 75.9308 25.5903 Q72.2387 28.2639 72.2387 32.9109 Q72.2387 37.5579 75.9308 40.2315 Q79.5911 42.8732 86.0523 42.8732 Z" fill="#000000" fill-rule="nonzero" fill-opacity="1" /><path clip-path="url(#clip160)" d="M84.5564 -25.4945 L87.4209 -25.4945 L87.4209 1.43247 Q93.4683 1.05053 96.6512 -2.19598 Q99.8022 -5.47432 99.8022 -11.2989 Q99.8022 -14.6728 98.9747 -17.8238 Q98.1471 -21.0066 96.4921 -24.1258 L102.03 -24.1258 Q103.367 -20.9748 104.067 -17.6647 Q104.767 -14.3545 104.767 -10.9488 Q104.767 -2.41878 99.8022 2.5783 Q94.837 7.54355 86.3706 7.54355 Q77.6177 7.54355 72.4933 2.83292 Q67.3371 -1.90953 67.3371 -9.93032 Q67.3371 -17.1236 71.9841 -21.2931 Q76.5992 -25.4945 84.5564 -25.4945 M82.8376 -19.638 Q78.0315 -19.5744 75.1669 -16.9326 Q72.3024 -14.3227 72.3024 -9.99398 Q72.3024 -5.09238 75.0715 -2.13233 Q77.8405 0.795898 82.8694 1.2415 L82.8376 -19.638 Z" fill="#000000" fill-rule="nonzero" fill-opacity="1" /><polyline clip-path="url(#clip162)" style="stroke:#009af9; stroke-linecap:round; stroke-linejoin:round; stroke-width:4; stroke-opacity:1; fill:none" points="322.163,51.9367 839.043,80.4656 952.063,88.938 1078.65,101.13 1239.89,118.975 1363.46,135.16 1500.59,156.011 1827.59,208.357 "/>
<path clip-path="url(#clip160)" d="M1607.56 156.451 L1819.56 156.451 L1819.56 52.771 L1607.56 52.771  Z" fill="#ffffff" fill-rule="evenodd" fill-opacity="1"/>
<polyline clip-path="url(#clip160)" style="stroke:#000000; stroke-linecap:round; stroke-linejoin:round; stroke-width:4; stroke-opacity:1; fill:none" points="1607.56,156.451 1819.56,156.451 1819.56,52.771 1607.56,52.771 1607.56,156.451 "/>
<polyline clip-path="url(#clip160)" style="stroke:#009af9; stroke-linecap:round; stroke-linejoin:round; stroke-width:4; stroke-opacity:1; fill:none" points="1625.29,104.611 1731.67,104.611 "/>
<path clip-path="url(#clip160)" d="M1763.25 124.298 Q1761.44 128.928 1759.73 130.34 Q1758.01 131.752 1755.14 131.752 L1751.74 131.752 L1751.74 128.187 L1754.24 128.187 Q1756 128.187 1756.97 127.354 Q1757.94 126.521 1759.13 123.419 L1759.89 121.474 L1749.4 95.9652 L1753.92 95.9652 L1762.02 116.243 L1770.12 95.9652 L1774.63 95.9652 L1763.25 124.298 Z" fill="#000000" fill-rule="nonzero" fill-opacity="1" /><path clip-path="url(#clip160)" d="M1781.93 117.956 L1789.56 117.956 L1789.56 91.5902 L1781.25 93.2569 L1781.25 88.9976 L1789.52 87.331 L1794.19 87.331 L1794.19 117.956 L1801.83 117.956 L1801.83 121.891 L1781.93 121.891 L1781.93 117.956 Z" fill="#000000" fill-rule="nonzero" fill-opacity="1" /><path clip-path="url(#clip160)" d="M277.001 560.664 L1872.76 560.664 L1872.76 394.858 L277.001 394.858  Z" fill="#ffffff" fill-rule="evenodd" fill-opacity="1"/>
<defs>
  <clipPath id="clip163">
    <rect x="277" y="394" width="1597" height="167"/>
  </clipPath>
</defs>
<polyline clip-path="url(#clip163)" style="stroke:#000000; stroke-linecap:round; stroke-linejoin:round; stroke-width:2; stroke-opacity:0.1; fill:none" points="924.335,560.664 924.335,394.858 "/>
<polyline clip-path="url(#clip163)" style="stroke:#000000; stroke-linecap:round; stroke-linejoin:round; stroke-width:2; stroke-opacity:0.1; fill:none" points="1827.59,560.664 1827.59,394.858 "/>
<polyline clip-path="url(#clip163)" style="stroke:#000000; stroke-linecap:round; stroke-linejoin:round; stroke-width:2; stroke-opacity:0.1; fill:none" points="277.001,539.471 1872.76,539.471 "/>
<polyline clip-path="url(#clip163)" style="stroke:#000000; stroke-linecap:round; stroke-linejoin:round; stroke-width:2; stroke-opacity:0.1; fill:none" points="277.001,495.581 1872.76,495.581 "/>
<polyline clip-path="url(#clip163)" style="stroke:#000000; stroke-linecap:round; stroke-linejoin:round; stroke-width:2; stroke-opacity:0.1; fill:none" points="277.001,451.691 1872.76,451.691 "/>
<polyline clip-path="url(#clip163)" style="stroke:#000000; stroke-linecap:round; stroke-linejoin:round; stroke-width:2; stroke-opacity:0.1; fill:none" points="277.001,407.801 1872.76,407.801 "/>
<polyline clip-path="url(#clip160)" style="stroke:#000000; stroke-linecap:round; stroke-linejoin:round; stroke-width:4; stroke-opacity:1; fill:none" points="277.001,560.664 1872.76,560.664 "/>
<polyline clip-path="url(#clip160)" style="stroke:#000000; stroke-linecap:round; stroke-linejoin:round; stroke-width:4; stroke-opacity:1; fill:none" points="924.335,560.664 924.335,541.766 "/>
<polyline clip-path="url(#clip160)" style="stroke:#000000; stroke-linecap:round; stroke-linejoin:round; stroke-width:4; stroke-opacity:1; fill:none" points="1827.59,560.664 1827.59,541.766 "/>
<path clip-path="url(#clip160)" d="M889.318 630.949 L896.957 630.949 L896.957 604.583 L888.647 606.25 L888.647 601.991 L896.911 600.324 L901.587 600.324 L901.587 630.949 L909.225 630.949 L909.225 634.884 L889.318 634.884 L889.318 630.949 Z" fill="#000000" fill-rule="nonzero" fill-opacity="1" /><path clip-path="url(#clip160)" d="M928.67 603.403 Q925.059 603.403 923.23 606.967 Q921.424 610.509 921.424 617.639 Q921.424 624.745 923.23 628.31 Q925.059 631.852 928.67 631.852 Q932.304 631.852 934.11 628.31 Q935.938 624.745 935.938 617.639 Q935.938 610.509 934.11 606.967 Q932.304 603.403 928.67 603.403 M928.67 599.699 Q934.48 599.699 937.535 604.305 Q940.614 608.889 940.614 617.639 Q940.614 626.366 937.535 630.972 Q934.48 635.555 928.67 635.555 Q922.86 635.555 919.781 630.972 Q916.725 626.366 916.725 617.639 Q916.725 608.889 919.781 604.305 Q922.86 599.699 928.67 599.699 Z" fill="#000000" fill-rule="nonzero" fill-opacity="1" /><path clip-path="url(#clip160)" d="M950.319 581.895 Q947.385 581.895 945.899 584.791 Q944.432 587.669 944.432 593.462 Q944.432 599.236 945.899 602.132 Q947.385 605.01 950.319 605.01 Q953.272 605.01 954.739 602.132 Q956.225 599.236 956.225 593.462 Q956.225 587.669 954.739 584.791 Q953.272 581.895 950.319 581.895 M950.319 578.886 Q955.04 578.886 957.522 582.629 Q960.024 586.352 960.024 593.462 Q960.024 600.552 957.522 604.295 Q955.04 608.019 950.319 608.019 Q945.598 608.019 943.097 604.295 Q940.614 600.552 940.614 593.462 Q940.614 586.352 943.097 582.629 Q945.598 578.886 950.319 578.886 Z" fill="#000000" fill-rule="nonzero" fill-opacity="1" /><path clip-path="url(#clip160)" d="M1793.04 630.949 L1800.68 630.949 L1800.68 604.583 L1792.37 606.25 L1792.37 601.991 L1800.63 600.324 L1805.31 600.324 L1805.31 630.949 L1812.94 630.949 L1812.94 634.884 L1793.04 634.884 L1793.04 630.949 Z" fill="#000000" fill-rule="nonzero" fill-opacity="1" /><path clip-path="url(#clip160)" d="M1832.39 603.403 Q1828.78 603.403 1826.95 606.967 Q1825.14 610.509 1825.14 617.639 Q1825.14 624.745 1826.95 628.31 Q1828.78 631.852 1832.39 631.852 Q1836.02 631.852 1837.83 628.31 Q1839.66 624.745 1839.66 617.639 Q1839.66 610.509 1837.83 606.967 Q1836.02 603.403 1832.39 603.403 M1832.39 599.699 Q1838.2 599.699 1841.25 604.305 Q1844.33 608.889 1844.33 617.639 Q1844.33 626.366 1841.25 630.972 Q1838.2 635.555 1832.39 635.555 Q1826.58 635.555 1823.5 630.972 Q1820.44 626.366 1820.44 617.639 Q1820.44 608.889 1823.5 604.305 Q1826.58 599.699 1832.39 599.699 Z" fill="#000000" fill-rule="nonzero" fill-opacity="1" /><path clip-path="url(#clip160)" d="M1857.03 592.333 Q1859.76 592.916 1861.28 594.76 Q1862.82 596.603 1862.82 599.311 Q1862.82 603.468 1859.96 605.743 Q1857.1 608.019 1851.84 608.019 Q1850.07 608.019 1848.19 607.662 Q1846.33 607.323 1844.33 606.627 L1844.33 602.96 Q1845.91 603.881 1847.79 604.352 Q1849.67 604.822 1851.72 604.822 Q1855.3 604.822 1857.16 603.411 Q1859.04 602.001 1859.04 599.311 Q1859.04 596.828 1857.29 595.437 Q1855.56 594.026 1852.46 594.026 L1849.19 594.026 L1849.19 590.904 L1852.61 590.904 Q1855.41 590.904 1856.9 589.794 Q1858.38 588.666 1858.38 586.559 Q1858.38 584.396 1856.84 583.249 Q1855.32 582.083 1852.46 582.083 Q1850.9 582.083 1849.11 582.422 Q1847.32 582.76 1845.18 583.475 L1845.18 580.089 Q1847.34 579.488 1849.22 579.187 Q1851.12 578.886 1852.8 578.886 Q1857.12 578.886 1859.64 580.861 Q1862.16 582.817 1862.16 586.164 Q1862.16 588.497 1860.83 590.114 Q1859.49 591.713 1857.03 592.333 Z" fill="#000000" fill-rule="nonzero" fill-opacity="1" /><path clip-path="url(#clip160)" d="M794.692 669.233 L822.001 669.233 L822.001 674.644 L801.121 674.644 L801.121 688.648 L819.964 688.648 L819.964 694.059 L801.121 694.059 L801.121 716.753 L794.692 716.753 L794.692 669.233 Z" fill="#000000" fill-rule="nonzero" fill-opacity="1" /><path clip-path="url(#clip160)" d="M847.845 686.579 Q846.859 686.006 845.681 685.752 Q844.535 685.465 843.135 685.465 Q838.169 685.465 835.496 688.712 Q832.854 691.927 832.854 697.974 L832.854 716.753 L826.966 716.753 L826.966 681.105 L832.854 681.105 L832.854 686.643 Q834.7 683.396 837.66 681.837 Q840.62 680.245 844.853 680.245 Q845.458 680.245 846.19 680.341 Q846.922 680.405 847.813 680.564 L847.845 686.579 Z" fill="#000000" fill-rule="nonzero" fill-opacity="1" /><path clip-path="url(#clip160)" d="M883.048 697.465 L883.048 700.329 L856.121 700.329 Q856.503 706.377 859.749 709.56 Q863.028 712.711 868.852 712.711 Q872.226 712.711 875.377 711.883 Q878.56 711.055 881.679 709.4 L881.679 714.939 Q878.528 716.275 875.218 716.976 Q871.908 717.676 868.502 717.676 Q859.972 717.676 854.975 712.711 Q850.01 707.745 850.01 699.279 Q850.01 690.526 854.72 685.402 Q859.463 680.245 867.484 680.245 Q874.677 680.245 878.846 684.892 Q883.048 689.508 883.048 697.465 M877.191 695.746 Q877.128 690.94 874.486 688.075 Q871.876 685.211 867.547 685.211 Q862.646 685.211 859.686 687.98 Q856.757 690.749 856.312 695.778 L877.191 695.746 Z" fill="#000000" fill-rule="nonzero" fill-opacity="1" /><path clip-path="url(#clip160)" d="M896.161 698.961 Q896.161 705.422 898.803 709.114 Q901.476 712.774 906.123 712.774 Q910.77 712.774 913.444 709.114 Q916.117 705.422 916.117 698.961 Q916.117 692.499 913.444 688.839 Q910.77 685.147 906.123 685.147 Q901.476 685.147 898.803 688.839 Q896.161 692.499 896.161 698.961 M916.117 711.406 Q914.271 714.588 911.439 716.148 Q908.638 717.676 904.691 717.676 Q898.23 717.676 894.156 712.52 Q890.114 707.363 890.114 698.961 Q890.114 690.558 894.156 685.402 Q898.23 680.245 904.691 680.245 Q908.638 680.245 911.439 681.805 Q914.271 683.333 916.117 686.516 L916.117 681.105 L921.974 681.105 L921.974 730.312 L916.117 730.312 L916.117 711.406 Z" fill="#000000" fill-rule="nonzero" fill-opacity="1" /><path clip-path="url(#clip160)" d="M933.432 702.685 L933.432 681.105 L939.289 681.105 L939.289 702.462 Q939.289 707.523 941.262 710.069 Q943.235 712.583 947.182 712.583 Q951.925 712.583 954.662 709.56 Q957.431 706.536 957.431 701.316 L957.431 681.105 L963.287 681.105 L963.287 716.753 L957.431 716.753 L957.431 711.278 Q955.298 714.525 952.466 716.116 Q949.665 717.676 945.941 717.676 Q939.798 717.676 936.615 713.856 Q933.432 710.037 933.432 702.685 M948.169 680.245 L948.169 680.245 Z" fill="#000000" fill-rule="nonzero" fill-opacity="1" /><path clip-path="url(#clip160)" d="M1005.84 697.465 L1005.84 700.329 L978.915 700.329 Q979.297 706.377 982.544 709.56 Q985.822 712.711 991.647 712.711 Q995.02 712.711 998.171 711.883 Q1001.35 711.055 1004.47 709.4 L1004.47 714.939 Q1001.32 716.275 998.012 716.976 Q994.702 717.676 991.296 717.676 Q982.766 717.676 977.769 712.711 Q972.804 707.745 972.804 699.279 Q972.804 690.526 977.515 685.402 Q982.257 680.245 990.278 680.245 Q997.471 680.245 1001.64 684.892 Q1005.84 689.508 1005.84 697.465 M999.986 695.746 Q999.922 690.94 997.28 688.075 Q994.67 685.211 990.342 685.211 Q985.44 685.211 982.48 687.98 Q979.552 690.749 979.106 695.778 L999.986 695.746 Z" fill="#000000" fill-rule="nonzero" fill-opacity="1" /><path clip-path="url(#clip160)" d="M1045.09 695.237 L1045.09 716.753 L1039.23 716.753 L1039.23 695.428 Q1039.23 690.367 1037.26 687.852 Q1035.28 685.338 1031.34 685.338 Q1026.59 685.338 1023.86 688.362 Q1021.12 691.385 1021.12 696.605 L1021.12 716.753 L1015.23 716.753 L1015.23 681.105 L1021.12 681.105 L1021.12 686.643 Q1023.22 683.428 1026.05 681.837 Q1028.92 680.245 1032.64 680.245 Q1038.78 680.245 1041.94 684.065 Q1045.09 687.852 1045.09 695.237 Z" fill="#000000" fill-rule="nonzero" fill-opacity="1" /><path clip-path="url(#clip160)" d="M1082.42 682.473 L1082.42 687.948 Q1079.94 686.579 1077.42 685.911 Q1074.94 685.211 1072.4 685.211 Q1066.7 685.211 1063.55 688.839 Q1060.4 692.436 1060.4 698.961 Q1060.4 705.486 1063.55 709.114 Q1066.7 712.711 1072.4 712.711 Q1074.94 712.711 1077.42 712.042 Q1079.94 711.342 1082.42 709.973 L1082.42 715.384 Q1079.97 716.53 1077.33 717.103 Q1074.72 717.676 1071.76 717.676 Q1063.71 717.676 1058.96 712.615 Q1054.22 707.554 1054.22 698.961 Q1054.22 690.24 1059 685.243 Q1063.8 680.245 1072.14 680.245 Q1074.85 680.245 1077.42 680.818 Q1080 681.359 1082.42 682.473 Z" fill="#000000" fill-rule="nonzero" fill-opacity="1" /><path clip-path="url(#clip160)" d="M1107.44 720.063 Q1104.96 726.429 1102.6 728.37 Q1100.25 730.312 1096.3 730.312 L1091.62 730.312 L1091.62 725.41 L1095.06 725.41 Q1097.48 725.41 1098.81 724.264 Q1100.15 723.119 1101.77 718.853 L1102.82 716.18 L1088.41 681.105 L1094.61 681.105 L1105.75 708.987 L1116.89 681.105 L1123.1 681.105 L1107.44 720.063 Z" fill="#000000" fill-rule="nonzero" fill-opacity="1" /><path clip-path="url(#clip160)" d="M1151.36 667.228 L1164.86 667.228 L1164.86 671.779 L1157.22 671.779 L1157.22 720.795 L1164.86 720.795 L1164.86 725.347 L1151.36 725.347 L1151.36 667.228 Z" fill="#000000" fill-rule="nonzero" fill-opacity="1" /><path clip-path="url(#clip160)" d="M1197.99 686.579 Q1197 686.006 1195.83 685.752 Q1194.68 685.465 1193.28 685.465 Q1188.32 685.465 1185.64 688.712 Q1183 691.927 1183 697.974 L1183 716.753 L1177.11 716.753 L1177.11 681.105 L1183 681.105 L1183 686.643 Q1184.85 683.396 1187.81 681.837 Q1190.77 680.245 1195 680.245 Q1195.6 680.245 1196.34 680.341 Q1197.07 680.405 1197.96 680.564 L1197.99 686.579 Z" fill="#000000" fill-rule="nonzero" fill-opacity="1" /><path clip-path="url(#clip160)" d="M1220.33 698.833 Q1213.24 698.833 1210.5 700.457 Q1207.76 702.08 1207.76 705.995 Q1207.76 709.114 1209.8 710.96 Q1211.87 712.774 1215.4 712.774 Q1220.27 712.774 1223.2 709.337 Q1226.16 705.867 1226.16 700.138 L1226.16 698.833 L1220.33 698.833 M1232.02 696.414 L1232.02 716.753 L1226.16 716.753 L1226.16 711.342 Q1224.15 714.588 1221.16 716.148 Q1218.17 717.676 1213.84 717.676 Q1208.37 717.676 1205.12 714.62 Q1201.91 711.533 1201.91 706.377 Q1201.91 700.361 1205.92 697.306 Q1209.96 694.25 1217.95 694.25 L1226.16 694.25 L1226.16 693.677 Q1226.16 689.635 1223.49 687.439 Q1220.84 685.211 1216.04 685.211 Q1212.98 685.211 1210.09 685.943 Q1207.19 686.675 1204.52 688.139 L1204.52 682.728 Q1207.73 681.487 1210.75 680.882 Q1213.78 680.245 1216.64 680.245 Q1224.38 680.245 1228.2 684.256 Q1232.02 688.266 1232.02 696.414 Z" fill="#000000" fill-rule="nonzero" fill-opacity="1" /><path clip-path="url(#clip160)" d="M1267.54 686.516 L1267.54 667.228 L1273.39 667.228 L1273.39 716.753 L1267.54 716.753 L1267.54 711.406 Q1265.69 714.588 1262.86 716.148 Q1260.06 717.676 1256.11 717.676 Q1249.65 717.676 1245.57 712.52 Q1241.53 707.363 1241.53 698.961 Q1241.53 690.558 1245.57 685.402 Q1249.65 680.245 1256.11 680.245 Q1260.06 680.245 1262.86 681.805 Q1265.69 683.333 1267.54 686.516 M1247.58 698.961 Q1247.58 705.422 1250.22 709.114 Q1252.9 712.774 1257.54 712.774 Q1262.19 712.774 1264.86 709.114 Q1267.54 705.422 1267.54 698.961 Q1267.54 692.499 1264.86 688.839 Q1262.19 685.147 1257.54 685.147 Q1252.9 685.147 1250.22 688.839 Q1247.58 692.499 1247.58 698.961 Z" fill="#000000" fill-rule="nonzero" fill-opacity="1" /><path clip-path="url(#clip160)" d="M1295.86 669.233 L1301.27 669.233 L1284.72 722.8 L1279.31 722.8 L1295.86 669.233 Z" fill="#000000" fill-rule="nonzero" fill-opacity="1" /><path clip-path="url(#clip160)" d="M1330.14 682.155 L1330.14 687.693 Q1327.66 686.42 1324.99 685.784 Q1322.31 685.147 1319.45 685.147 Q1315.09 685.147 1312.89 686.484 Q1310.73 687.821 1310.73 690.494 Q1310.73 692.531 1312.29 693.709 Q1313.85 694.855 1318.56 695.905 L1320.56 696.351 Q1326.8 697.688 1329.41 700.138 Q1332.05 702.557 1332.05 706.918 Q1332.05 711.883 1328.11 714.779 Q1324.19 717.676 1317.32 717.676 Q1314.45 717.676 1311.33 717.103 Q1308.25 716.562 1304.81 715.448 L1304.81 709.4 Q1308.05 711.087 1311.21 711.947 Q1314.36 712.774 1317.44 712.774 Q1321.58 712.774 1323.81 711.374 Q1326.04 709.941 1326.04 707.363 Q1326.04 704.976 1324.41 703.703 Q1322.82 702.43 1317.38 701.252 L1315.34 700.775 Q1309.9 699.629 1307.48 697.274 Q1305.06 694.887 1305.06 690.749 Q1305.06 685.72 1308.63 682.983 Q1312.19 680.245 1318.75 680.245 Q1321.99 680.245 1324.86 680.723 Q1327.72 681.2 1330.14 682.155 Z" fill="#000000" fill-rule="nonzero" fill-opacity="1" /><path clip-path="url(#clip160)" d="M1355.06 667.228 L1355.06 725.347 L1341.57 725.347 L1341.57 720.795 L1349.18 720.795 L1349.18 671.779 L1341.57 671.779 L1341.57 667.228 L1355.06 667.228 Z" fill="#000000" fill-rule="nonzero" fill-opacity="1" /><polyline clip-path="url(#clip160)" style="stroke:#000000; stroke-linecap:round; stroke-linejoin:round; stroke-width:4; stroke-opacity:1; fill:none" points="277.001,560.664 277.001,394.858 "/>
<polyline clip-path="url(#clip160)" style="stroke:#000000; stroke-linecap:round; stroke-linejoin:round; stroke-width:4; stroke-opacity:1; fill:none" points="277.001,539.471 295.898,539.471 "/>
<polyline clip-path="url(#clip160)" style="stroke:#000000; stroke-linecap:round; stroke-linejoin:round; stroke-width:4; stroke-opacity:1; fill:none" points="277.001,495.581 295.898,495.581 "/>
<polyline clip-path="url(#clip160)" style="stroke:#000000; stroke-linecap:round; stroke-linejoin:round; stroke-width:4; stroke-opacity:1; fill:none" points="277.001,451.691 295.898,451.691 "/>
<polyline clip-path="url(#clip160)" style="stroke:#000000; stroke-linecap:round; stroke-linejoin:round; stroke-width:4; stroke-opacity:1; fill:none" points="277.001,407.801 295.898,407.801 "/>
<path clip-path="url(#clip160)" d="M126.164 539.923 L155.84 539.923 L155.84 543.858 L126.164 543.858 L126.164 539.923 Z" fill="#000000" fill-rule="nonzero" fill-opacity="1" /><path clip-path="url(#clip160)" d="M169.96 552.816 L186.28 552.816 L186.28 556.751 L164.335 556.751 L164.335 552.816 Q166.997 550.062 171.581 545.432 Q176.187 540.779 177.368 539.437 Q179.613 536.913 180.493 535.177 Q181.395 533.418 181.395 531.728 Q181.395 528.974 179.451 527.238 Q177.53 525.502 174.428 525.502 Q172.229 525.502 169.775 526.265 Q167.344 527.029 164.567 528.58 L164.567 523.858 Q167.391 522.724 169.844 522.145 Q172.298 521.566 174.335 521.566 Q179.706 521.566 182.9 524.252 Q186.094 526.937 186.094 531.427 Q186.094 533.557 185.284 535.478 Q184.497 537.376 182.391 539.969 Q181.812 540.64 178.71 543.858 Q175.608 547.052 169.96 552.816 Z" fill="#000000" fill-rule="nonzero" fill-opacity="1" /><path clip-path="url(#clip160)" d="M196.141 522.191 L214.497 522.191 L214.497 526.127 L200.423 526.127 L200.423 534.599 Q201.442 534.251 202.46 534.089 Q203.479 533.904 204.497 533.904 Q210.284 533.904 213.664 537.076 Q217.043 540.247 217.043 545.663 Q217.043 551.242 213.571 554.344 Q210.099 557.423 203.779 557.423 Q201.604 557.423 199.335 557.052 Q197.09 556.682 194.682 555.941 L194.682 551.242 Q196.766 552.376 198.988 552.932 Q201.21 553.487 203.687 553.487 Q207.691 553.487 210.029 551.381 Q212.367 549.275 212.367 545.663 Q212.367 542.052 210.029 539.946 Q207.691 537.839 203.687 537.839 Q201.812 537.839 199.937 538.256 Q198.085 538.673 196.141 539.552 L196.141 522.191 Z" fill="#000000" fill-rule="nonzero" fill-opacity="1" /><path clip-path="url(#clip160)" d="M236.256 525.27 Q232.645 525.27 230.816 528.835 Q229.011 532.376 229.011 539.506 Q229.011 546.613 230.816 550.177 Q232.645 553.719 236.256 553.719 Q239.89 553.719 241.696 550.177 Q243.525 546.613 243.525 539.506 Q243.525 532.376 241.696 528.835 Q239.89 525.27 236.256 525.27 M236.256 521.566 Q242.066 521.566 245.122 526.173 Q248.201 530.756 248.201 539.506 Q248.201 548.233 245.122 552.839 Q242.066 557.423 236.256 557.423 Q230.446 557.423 227.367 552.839 Q224.312 548.233 224.312 539.506 Q224.312 530.756 227.367 526.173 Q230.446 521.566 236.256 521.566 Z" fill="#000000" fill-rule="nonzero" fill-opacity="1" /><path clip-path="url(#clip160)" d="M126.164 496.033 L155.84 496.033 L155.84 499.968 L126.164 499.968 L126.164 496.033 Z" fill="#000000" fill-rule="nonzero" fill-opacity="1" /><path clip-path="url(#clip160)" d="M169.96 508.926 L186.28 508.926 L186.28 512.861 L164.335 512.861 L164.335 508.926 Q166.997 506.171 171.581 501.542 Q176.187 496.889 177.368 495.546 Q179.613 493.023 180.493 491.287 Q181.395 489.528 181.395 487.838 Q181.395 485.083 179.451 483.347 Q177.53 481.611 174.428 481.611 Q172.229 481.611 169.775 482.375 Q167.344 483.139 164.567 484.69 L164.567 479.968 Q167.391 478.834 169.844 478.255 Q172.298 477.676 174.335 477.676 Q179.706 477.676 182.9 480.361 Q186.094 483.046 186.094 487.537 Q186.094 489.667 185.284 491.588 Q184.497 493.486 182.391 496.079 Q181.812 496.75 178.71 499.968 Q175.608 503.162 169.96 508.926 Z" fill="#000000" fill-rule="nonzero" fill-opacity="1" /><path clip-path="url(#clip160)" d="M206.094 481.38 Q202.483 481.38 200.654 484.945 Q198.849 488.486 198.849 495.616 Q198.849 502.722 200.654 506.287 Q202.483 509.829 206.094 509.829 Q209.729 509.829 211.534 506.287 Q213.363 502.722 213.363 495.616 Q213.363 488.486 211.534 484.945 Q209.729 481.38 206.094 481.38 M206.094 477.676 Q211.904 477.676 214.96 482.283 Q218.039 486.866 218.039 495.616 Q218.039 504.343 214.96 508.949 Q211.904 513.532 206.094 513.532 Q200.284 513.532 197.205 508.949 Q194.15 504.343 194.15 495.616 Q194.15 486.866 197.205 482.283 Q200.284 477.676 206.094 477.676 Z" fill="#000000" fill-rule="nonzero" fill-opacity="1" /><path clip-path="url(#clip160)" d="M236.256 481.38 Q232.645 481.38 230.816 484.945 Q229.011 488.486 229.011 495.616 Q229.011 502.722 230.816 506.287 Q232.645 509.829 236.256 509.829 Q239.89 509.829 241.696 506.287 Q243.525 502.722 243.525 495.616 Q243.525 488.486 241.696 484.945 Q239.89 481.38 236.256 481.38 M236.256 477.676 Q242.066 477.676 245.122 482.283 Q248.201 486.866 248.201 495.616 Q248.201 504.343 245.122 508.949 Q242.066 513.532 236.256 513.532 Q230.446 513.532 227.367 508.949 Q224.312 504.343 224.312 495.616 Q224.312 486.866 227.367 482.283 Q230.446 477.676 236.256 477.676 Z" fill="#000000" fill-rule="nonzero" fill-opacity="1" /><path clip-path="url(#clip160)" d="M126.164 452.142 L155.84 452.142 L155.84 456.077 L126.164 456.077 L126.164 452.142 Z" fill="#000000" fill-rule="nonzero" fill-opacity="1" /><path clip-path="url(#clip160)" d="M166.743 465.036 L174.381 465.036 L174.381 438.67 L166.071 440.337 L166.071 436.078 L174.335 434.411 L179.011 434.411 L179.011 465.036 L186.65 465.036 L186.65 468.971 L166.743 468.971 L166.743 465.036 Z" fill="#000000" fill-rule="nonzero" fill-opacity="1" /><path clip-path="url(#clip160)" d="M196.141 434.411 L214.497 434.411 L214.497 438.346 L200.423 438.346 L200.423 446.818 Q201.442 446.471 202.46 446.309 Q203.479 446.124 204.497 446.124 Q210.284 446.124 213.664 449.295 Q217.043 452.466 217.043 457.883 Q217.043 463.462 213.571 466.563 Q210.099 469.642 203.779 469.642 Q201.604 469.642 199.335 469.272 Q197.09 468.901 194.682 468.161 L194.682 463.462 Q196.766 464.596 198.988 465.151 Q201.21 465.707 203.687 465.707 Q207.691 465.707 210.029 463.601 Q212.367 461.494 212.367 457.883 Q212.367 454.272 210.029 452.165 Q207.691 450.059 203.687 450.059 Q201.812 450.059 199.937 450.476 Q198.085 450.892 196.141 451.772 L196.141 434.411 Z" fill="#000000" fill-rule="nonzero" fill-opacity="1" /><path clip-path="url(#clip160)" d="M236.256 437.49 Q232.645 437.49 230.816 441.054 Q229.011 444.596 229.011 451.726 Q229.011 458.832 230.816 462.397 Q232.645 465.939 236.256 465.939 Q239.89 465.939 241.696 462.397 Q243.525 458.832 243.525 451.726 Q243.525 444.596 241.696 441.054 Q239.89 437.49 236.256 437.49 M236.256 433.786 Q242.066 433.786 245.122 438.392 Q248.201 442.976 248.201 451.726 Q248.201 460.452 245.122 465.059 Q242.066 469.642 236.256 469.642 Q230.446 469.642 227.367 465.059 Q224.312 460.452 224.312 451.726 Q224.312 442.976 227.367 438.392 Q230.446 433.786 236.256 433.786 Z" fill="#000000" fill-rule="nonzero" fill-opacity="1" /><path clip-path="url(#clip160)" d="M126.164 408.252 L155.84 408.252 L155.84 412.187 L126.164 412.187 L126.164 408.252 Z" fill="#000000" fill-rule="nonzero" fill-opacity="1" /><path clip-path="url(#clip160)" d="M166.743 421.146 L174.381 421.146 L174.381 394.78 L166.071 396.447 L166.071 392.187 L174.335 390.521 L179.011 390.521 L179.011 421.146 L186.65 421.146 L186.65 425.081 L166.743 425.081 L166.743 421.146 Z" fill="#000000" fill-rule="nonzero" fill-opacity="1" /><path clip-path="url(#clip160)" d="M206.094 393.599 Q202.483 393.599 200.654 397.164 Q198.849 400.706 198.849 407.835 Q198.849 414.942 200.654 418.507 Q202.483 422.048 206.094 422.048 Q209.729 422.048 211.534 418.507 Q213.363 414.942 213.363 407.835 Q213.363 400.706 211.534 397.164 Q209.729 393.599 206.094 393.599 M206.094 389.896 Q211.904 389.896 214.96 394.502 Q218.039 399.085 218.039 407.835 Q218.039 416.562 214.96 421.169 Q211.904 425.752 206.094 425.752 Q200.284 425.752 197.205 421.169 Q194.15 416.562 194.15 407.835 Q194.15 399.085 197.205 394.502 Q200.284 389.896 206.094 389.896 Z" fill="#000000" fill-rule="nonzero" fill-opacity="1" /><path clip-path="url(#clip160)" d="M236.256 393.599 Q232.645 393.599 230.816 397.164 Q229.011 400.706 229.011 407.835 Q229.011 414.942 230.816 418.507 Q232.645 422.048 236.256 422.048 Q239.89 422.048 241.696 418.507 Q243.525 414.942 243.525 407.835 Q243.525 400.706 241.696 397.164 Q239.89 393.599 236.256 393.599 M236.256 389.896 Q242.066 389.896 245.122 394.502 Q248.201 399.085 248.201 407.835 Q248.201 416.562 245.122 421.169 Q242.066 425.752 236.256 425.752 Q230.446 425.752 227.367 421.169 Q224.312 416.562 224.312 407.835 Q224.312 399.085 227.367 394.502 Q230.446 389.896 236.256 389.896 Z" fill="#000000" fill-rule="nonzero" fill-opacity="1" /><path clip-path="url(#clip160)" d="M40.8717 659.868 L58.7275 659.868 L58.7275 651.784 Q58.7275 647.296 56.404 644.845 Q54.0805 642.394 49.7837 642.394 Q45.5187 642.394 43.1952 644.845 Q40.8717 647.296 40.8717 651.784 L40.8717 659.868 M35.5882 666.297 L35.5882 651.784 Q35.5882 643.795 39.2166 639.721 Q42.8132 635.615 49.7837 635.615 Q56.8178 635.615 60.4144 639.721 Q64.011 643.795 64.011 651.784 L64.011 659.868 L83.1082 659.868 L83.1082 666.297 L35.5882 666.297 Z" fill="#000000" fill-rule="nonzero" fill-opacity="1" /><path clip-path="url(#clip160)" d="M61.5921 597.611 L83.1082 597.611 L83.1082 603.468 L61.783 603.468 Q56.7223 603.468 54.2078 605.441 Q51.6934 607.415 51.6934 611.361 Q51.6934 616.104 54.7171 618.841 Q57.7408 621.578 62.9607 621.578 L83.1082 621.578 L83.1082 627.467 L33.583 627.467 L33.583 621.578 L52.9984 621.578 Q49.7837 619.478 48.1923 616.645 Q46.6008 613.78 46.6008 610.056 Q46.6008 603.913 50.4203 600.762 Q54.2078 597.611 61.5921 597.611 Z" fill="#000000" fill-rule="nonzero" fill-opacity="1" /><path clip-path="url(#clip160)" d="M65.1887 569.73 Q65.1887 576.827 66.8119 579.565 Q68.4352 582.302 72.3501 582.302 Q75.4693 582.302 77.3154 580.265 Q79.1296 578.196 79.1296 574.663 Q79.1296 569.793 75.6921 566.865 Q72.2228 563.905 66.4937 563.905 L65.1887 563.905 L65.1887 569.73 M62.7697 558.049 L83.1082 558.049 L83.1082 563.905 L77.6973 563.905 Q80.9438 565.91 82.5034 568.902 Q84.0312 571.894 84.0312 576.223 Q84.0312 581.697 80.9756 584.944 Q77.8883 588.158 72.7321 588.158 Q66.7165 588.158 63.6609 584.148 Q60.6054 580.106 60.6054 572.117 L60.6054 563.905 L60.0325 563.905 Q55.9902 563.905 53.7941 566.579 Q51.5661 569.22 51.5661 574.026 Q51.5661 577.082 52.2981 579.978 Q53.0302 582.875 54.4943 585.548 L49.0835 585.548 Q47.8421 582.334 47.2374 579.31 Q46.6008 576.286 46.6008 573.422 Q46.6008 565.687 50.6112 561.868 Q54.6216 558.049 62.7697 558.049 Z" fill="#000000" fill-rule="nonzero" fill-opacity="1" /><path clip-path="url(#clip160)" d="M48.5105 523.26 L54.0487 523.26 Q52.7756 525.743 52.139 528.416 Q51.5024 531.09 51.5024 533.954 Q51.5024 538.315 52.8392 540.511 Q54.176 542.675 56.8496 542.675 Q58.8866 542.675 60.0643 541.116 Q61.2101 539.556 62.2605 534.846 L62.7061 532.84 Q64.0429 526.602 66.4937 523.992 Q68.9126 521.35 73.2731 521.35 Q78.2384 521.35 81.1348 525.297 Q84.0312 529.212 84.0312 536.087 Q84.0312 538.951 83.4583 542.071 Q82.9172 545.158 81.8032 548.595 L75.7558 548.595 Q77.4427 545.349 78.302 542.198 Q79.1296 539.047 79.1296 535.96 Q79.1296 531.822 77.7291 529.594 Q76.2969 527.366 73.7187 527.366 Q71.3316 527.366 70.0585 528.989 Q68.7853 530.58 67.6077 536.023 L67.1302 538.06 Q65.9844 543.503 63.6291 545.922 Q61.242 548.341 57.1042 548.341 Q52.0753 548.341 49.3381 544.776 Q46.6008 541.211 46.6008 534.655 Q46.6008 531.408 47.0783 528.543 Q47.5557 525.679 48.5105 523.26 Z" fill="#000000" fill-rule="nonzero" fill-opacity="1" /><path clip-path="url(#clip160)" d="M63.8201 481.533 L66.6846 481.533 L66.6846 508.46 Q72.7321 508.078 75.9149 504.831 Q79.0659 501.553 79.0659 495.728 Q79.0659 492.354 78.2384 489.203 Q77.4109 486.021 75.7558 482.901 L81.2939 482.901 Q82.6307 486.052 83.331 489.363 Q84.0312 492.673 84.0312 496.078 Q84.0312 504.608 79.0659 509.605 Q74.1007 514.571 65.6343 514.571 Q56.8814 514.571 51.7571 509.86 Q46.6008 505.118 46.6008 497.097 Q46.6008 489.904 51.2478 485.734 Q55.8629 481.533 63.8201 481.533 M62.1013 487.389 Q57.2952 487.453 54.4306 490.095 Q51.5661 492.705 51.5661 497.033 Q51.5661 501.935 54.3352 504.895 Q57.1042 507.823 62.1332 508.269 L62.1013 487.389 Z" fill="#000000" fill-rule="nonzero" fill-opacity="1" /><path clip-path="url(#clip160)" d="M33.6466 437.132 Q40.9672 441.397 48.1286 443.466 Q55.29 445.535 62.6424 445.535 Q69.9948 445.535 77.2199 443.466 Q84.4131 441.365 91.7019 437.132 L91.7019 442.224 Q84.2222 446.999 76.9971 449.386 Q69.772 451.741 62.6424 451.741 Q55.5446 451.741 48.3514 449.386 Q41.1582 447.031 33.6466 442.224 L33.6466 437.132 Z" fill="#000000" fill-rule="nonzero" fill-opacity="1" /><path clip-path="url(#clip160)" d="M52.8711 402.312 L33.583 402.312 L33.583 396.455 L83.1082 396.455 L83.1082 402.312 L77.761 402.312 Q80.9438 404.158 82.5034 406.99 Q84.0312 409.791 84.0312 413.738 Q84.0312 420.199 78.875 424.273 Q73.7187 428.315 65.316 428.315 Q56.9133 428.315 51.7571 424.273 Q46.6008 420.199 46.6008 413.738 Q46.6008 409.791 48.1604 406.99 Q49.6882 404.158 52.8711 402.312 M65.316 422.268 Q71.7772 422.268 75.4693 419.626 Q79.1296 416.953 79.1296 412.306 Q79.1296 407.659 75.4693 404.985 Q71.7772 402.312 65.316 402.312 Q58.8548 402.312 55.1945 404.985 Q51.5024 407.659 51.5024 412.306 Q51.5024 416.953 55.1945 419.626 Q58.8548 422.268 65.316 422.268 Z" fill="#000000" fill-rule="nonzero" fill-opacity="1" /><path clip-path="url(#clip160)" d="M63.8201 353.9 L66.6846 353.9 L66.6846 380.827 Q72.7321 380.445 75.9149 377.199 Q79.0659 373.92 79.0659 368.096 Q79.0659 364.722 78.2384 361.571 Q77.4109 358.388 75.7558 355.269 L81.2939 355.269 Q82.6307 358.42 83.331 361.73 Q84.0312 365.04 84.0312 368.446 Q84.0312 376.976 79.0659 381.973 Q74.1007 386.938 65.6343 386.938 Q56.8814 386.938 51.7571 382.228 Q46.6008 377.485 46.6008 369.464 Q46.6008 362.271 51.2478 358.102 Q55.8629 353.9 63.8201 353.9 M62.1013 359.757 Q57.2952 359.82 54.4306 362.462 Q51.5661 365.072 51.5661 369.401 Q51.5661 374.302 54.3352 377.262 Q57.1042 380.191 62.1332 380.636 L62.1013 359.757 Z" fill="#000000" fill-rule="nonzero" fill-opacity="1" /><path clip-path="url(#clip160)" d="M64.8704 320.83 Q58.5047 320.83 55.0036 323.472 Q51.5024 326.082 51.5024 330.825 Q51.5024 335.535 55.0036 338.177 Q58.5047 340.787 64.8704 340.787 Q71.2043 340.787 74.7054 338.177 Q78.2066 335.535 78.2066 330.825 Q78.2066 326.082 74.7054 323.472 Q71.2043 320.83 64.8704 320.83 M78.684 314.974 Q87.787 314.974 92.2111 319.016 Q96.6671 323.058 96.6671 331.398 Q96.6671 334.485 96.1897 337.222 Q95.7441 339.959 94.7892 342.538 L89.0919 342.538 Q90.4924 339.959 91.1608 337.445 Q91.8292 334.93 91.8292 332.321 Q91.8292 326.56 88.8055 323.695 Q85.8136 320.83 79.7343 320.83 L76.8379 320.83 Q79.989 322.645 81.5486 325.477 Q83.1082 328.31 83.1082 332.257 Q83.1082 338.814 78.1111 342.824 Q73.114 346.834 64.8704 346.834 Q56.595 346.834 51.5979 342.824 Q46.6008 338.814 46.6008 332.257 Q46.6008 328.31 48.1604 325.477 Q49.72 322.645 52.8711 320.83 L47.4602 320.83 L47.4602 314.974 L78.684 314.974 Z" fill="#000000" fill-rule="nonzero" fill-opacity="1" /><path clip-path="url(#clip160)" d="M33.6466 303.834 L33.6466 298.741 Q41.1582 293.967 48.3514 291.612 Q55.5446 289.225 62.6424 289.225 Q69.772 289.225 76.9971 291.612 Q84.2222 293.967 91.7019 298.741 L91.7019 303.834 Q84.4131 299.601 77.2199 297.532 Q69.9948 295.431 62.6424 295.431 Q55.29 295.431 48.1286 297.532 Q40.9672 299.601 33.6466 303.834 Z" fill="#000000" fill-rule="nonzero" fill-opacity="1" /><polyline clip-path="url(#clip163)" style="stroke:#009af9; stroke-linecap:round; stroke-linejoin:round; stroke-width:4; stroke-opacity:1; fill:none" points="322.163,399.551 478.885,400.773 591.905,403.17 680.814,407.162 756.161,413.277 807.397,419.573 857.126,427.636 1024.4,461.509 1202.21,491.99 1369.48,525.856 1407.16,532.527 1444.83,538.11 1515.66,545.719 1597.03,550.895 1696.49,554.152 1827.59,555.971 "/>
<path clip-path="url(#clip160)" d="M277.001 981.05 L1872.76 981.05 L1872.76 815.244 L277.001 815.244  Z" fill="#ffffff" fill-rule="evenodd" fill-opacity="1"/>
<defs>
  <clipPath id="clip164">
    <rect x="277" y="815" width="1597" height="167"/>
  </clipPath>
</defs>
<polyline clip-path="url(#clip164)" style="stroke:#000000; stroke-linecap:round; stroke-linejoin:round; stroke-width:2; stroke-opacity:0.1; fill:none" points="924.335,981.05 924.335,815.244 "/>
<polyline clip-path="url(#clip164)" style="stroke:#000000; stroke-linecap:round; stroke-linejoin:round; stroke-width:2; stroke-opacity:0.1; fill:none" points="1827.59,981.05 1827.59,815.244 "/>
<polyline clip-path="url(#clip164)" style="stroke:#000000; stroke-linecap:round; stroke-linejoin:round; stroke-width:2; stroke-opacity:0.1; fill:none" points="277.001,953.087 1872.76,953.087 "/>
<polyline clip-path="url(#clip164)" style="stroke:#000000; stroke-linecap:round; stroke-linejoin:round; stroke-width:2; stroke-opacity:0.1; fill:none" points="277.001,919.799 1872.76,919.799 "/>
<polyline clip-path="url(#clip164)" style="stroke:#000000; stroke-linecap:round; stroke-linejoin:round; stroke-width:2; stroke-opacity:0.1; fill:none" points="277.001,886.512 1872.76,886.512 "/>
<polyline clip-path="url(#clip164)" style="stroke:#000000; stroke-linecap:round; stroke-linejoin:round; stroke-width:2; stroke-opacity:0.1; fill:none" points="277.001,853.224 1872.76,853.224 "/>
<polyline clip-path="url(#clip164)" style="stroke:#000000; stroke-linecap:round; stroke-linejoin:round; stroke-width:2; stroke-opacity:0.1; fill:none" points="277.001,819.936 1872.76,819.936 "/>
<polyline clip-path="url(#clip160)" style="stroke:#000000; stroke-linecap:round; stroke-linejoin:round; stroke-width:4; stroke-opacity:1; fill:none" points="277.001,981.05 1872.76,981.05 "/>
<polyline clip-path="url(#clip160)" style="stroke:#000000; stroke-linecap:round; stroke-linejoin:round; stroke-width:4; stroke-opacity:1; fill:none" points="924.335,981.05 924.335,962.152 "/>
<polyline clip-path="url(#clip160)" style="stroke:#000000; stroke-linecap:round; stroke-linejoin:round; stroke-width:4; stroke-opacity:1; fill:none" points="1827.59,981.05 1827.59,962.152 "/>
<path clip-path="url(#clip160)" d="M889.318 1051.33 L896.957 1051.33 L896.957 1024.97 L888.647 1026.64 L888.647 1022.38 L896.911 1020.71 L901.587 1020.71 L901.587 1051.33 L909.225 1051.33 L909.225 1055.27 L889.318 1055.27 L889.318 1051.33 Z" fill="#000000" fill-rule="nonzero" fill-opacity="1" /><path clip-path="url(#clip160)" d="M928.67 1023.79 Q925.059 1023.79 923.23 1027.35 Q921.424 1030.9 921.424 1038.02 Q921.424 1045.13 923.23 1048.7 Q925.059 1052.24 928.67 1052.24 Q932.304 1052.24 934.11 1048.7 Q935.938 1045.13 935.938 1038.02 Q935.938 1030.9 934.11 1027.35 Q932.304 1023.79 928.67 1023.79 M928.67 1020.09 Q934.48 1020.09 937.535 1024.69 Q940.614 1029.27 940.614 1038.02 Q940.614 1046.75 937.535 1051.36 Q934.48 1055.94 928.67 1055.94 Q922.86 1055.94 919.781 1051.36 Q916.725 1046.75 916.725 1038.02 Q916.725 1029.27 919.781 1024.69 Q922.86 1020.09 928.67 1020.09 Z" fill="#000000" fill-rule="nonzero" fill-opacity="1" /><path clip-path="url(#clip160)" d="M950.319 1002.28 Q947.385 1002.28 945.899 1005.18 Q944.432 1008.06 944.432 1013.85 Q944.432 1019.62 945.899 1022.52 Q947.385 1025.4 950.319 1025.4 Q953.272 1025.4 954.739 1022.52 Q956.225 1019.62 956.225 1013.85 Q956.225 1008.06 954.739 1005.18 Q953.272 1002.28 950.319 1002.28 M950.319 999.272 Q955.04 999.272 957.522 1003.01 Q960.024 1006.74 960.024 1013.85 Q960.024 1020.94 957.522 1024.68 Q955.04 1028.41 950.319 1028.41 Q945.598 1028.41 943.097 1024.68 Q940.614 1020.94 940.614 1013.85 Q940.614 1006.74 943.097 1003.01 Q945.598 999.272 950.319 999.272 Z" fill="#000000" fill-rule="nonzero" fill-opacity="1" /><path clip-path="url(#clip160)" d="M1793.04 1051.33 L1800.68 1051.33 L1800.68 1024.97 L1792.37 1026.64 L1792.37 1022.38 L1800.63 1020.71 L1805.31 1020.71 L1805.31 1051.33 L1812.94 1051.33 L1812.94 1055.27 L1793.04 1055.27 L1793.04 1051.33 Z" fill="#000000" fill-rule="nonzero" fill-opacity="1" /><path clip-path="url(#clip160)" d="M1832.39 1023.79 Q1828.78 1023.79 1826.95 1027.35 Q1825.14 1030.9 1825.14 1038.02 Q1825.14 1045.13 1826.95 1048.7 Q1828.78 1052.24 1832.39 1052.24 Q1836.02 1052.24 1837.83 1048.7 Q1839.66 1045.13 1839.66 1038.02 Q1839.66 1030.9 1837.83 1027.35 Q1836.02 1023.79 1832.39 1023.79 M1832.39 1020.09 Q1838.2 1020.09 1841.25 1024.69 Q1844.33 1029.27 1844.33 1038.02 Q1844.33 1046.75 1841.25 1051.36 Q1838.2 1055.94 1832.39 1055.94 Q1826.58 1055.94 1823.5 1051.36 Q1820.44 1046.75 1820.44 1038.02 Q1820.44 1029.27 1823.5 1024.69 Q1826.58 1020.09 1832.39 1020.09 Z" fill="#000000" fill-rule="nonzero" fill-opacity="1" /><path clip-path="url(#clip160)" d="M1857.03 1012.72 Q1859.76 1013.3 1861.28 1015.15 Q1862.82 1016.99 1862.82 1019.7 Q1862.82 1023.85 1859.96 1026.13 Q1857.1 1028.41 1851.84 1028.41 Q1850.07 1028.41 1848.19 1028.05 Q1846.33 1027.71 1844.33 1027.01 L1844.33 1023.35 Q1845.91 1024.27 1847.79 1024.74 Q1849.67 1025.21 1851.72 1025.21 Q1855.3 1025.21 1857.16 1023.8 Q1859.04 1022.39 1859.04 1019.7 Q1859.04 1017.21 1857.29 1015.82 Q1855.56 1014.41 1852.46 1014.41 L1849.19 1014.41 L1849.19 1011.29 L1852.61 1011.29 Q1855.41 1011.29 1856.9 1010.18 Q1858.38 1009.05 1858.38 1006.95 Q1858.38 1004.78 1856.84 1003.64 Q1855.32 1002.47 1852.46 1002.47 Q1850.9 1002.47 1849.11 1002.81 Q1847.32 1003.15 1845.18 1003.86 L1845.18 1000.48 Q1847.34 999.874 1849.22 999.573 Q1851.12 999.272 1852.8 999.272 Q1857.12 999.272 1859.64 1001.25 Q1862.16 1003.2 1862.16 1006.55 Q1862.16 1008.88 1860.83 1010.5 Q1859.49 1012.1 1857.03 1012.72 Z" fill="#000000" fill-rule="nonzero" fill-opacity="1" /><polyline clip-path="url(#clip160)" style="stroke:#000000; stroke-linecap:round; stroke-linejoin:round; stroke-width:4; stroke-opacity:1; fill:none" points="277.001,981.05 277.001,815.244 "/>
<polyline clip-path="url(#clip160)" style="stroke:#000000; stroke-linecap:round; stroke-linejoin:round; stroke-width:4; stroke-opacity:1; fill:none" points="277.001,953.087 295.898,953.087 "/>
<polyline clip-path="url(#clip160)" style="stroke:#000000; stroke-linecap:round; stroke-linejoin:round; stroke-width:4; stroke-opacity:1; fill:none" points="277.001,919.799 295.898,919.799 "/>
<polyline clip-path="url(#clip160)" style="stroke:#000000; stroke-linecap:round; stroke-linejoin:round; stroke-width:4; stroke-opacity:1; fill:none" points="277.001,886.512 295.898,886.512 "/>
<polyline clip-path="url(#clip160)" style="stroke:#000000; stroke-linecap:round; stroke-linejoin:round; stroke-width:4; stroke-opacity:1; fill:none" points="277.001,853.224 295.898,853.224 "/>
<polyline clip-path="url(#clip160)" style="stroke:#000000; stroke-linecap:round; stroke-linejoin:round; stroke-width:4; stroke-opacity:1; fill:none" points="277.001,819.936 295.898,819.936 "/>
<path clip-path="url(#clip160)" d="M146.368 972.88 L154.007 972.88 L154.007 946.514 L145.697 948.181 L145.697 943.922 L153.961 942.255 L158.636 942.255 L158.636 972.88 L166.275 972.88 L166.275 976.815 L146.368 976.815 L146.368 972.88 Z" fill="#000000" fill-rule="nonzero" fill-opacity="1" /><path clip-path="url(#clip160)" d="M185.72 945.334 Q182.109 945.334 180.28 948.898 Q178.474 952.44 178.474 959.57 Q178.474 966.676 180.28 970.241 Q182.109 973.783 185.72 973.783 Q189.354 973.783 191.159 970.241 Q192.988 966.676 192.988 959.57 Q192.988 952.44 191.159 948.898 Q189.354 945.334 185.72 945.334 M185.72 941.63 Q191.53 941.63 194.585 946.236 Q197.664 950.82 197.664 959.57 Q197.664 968.296 194.585 972.903 Q191.53 977.486 185.72 977.486 Q179.91 977.486 176.831 972.903 Q173.775 968.296 173.775 959.57 Q173.775 950.82 176.831 946.236 Q179.91 941.63 185.72 941.63 Z" fill="#000000" fill-rule="nonzero" fill-opacity="1" /><path clip-path="url(#clip160)" d="M197.664 935.731 L221.776 935.731 L221.776 938.929 L197.664 938.929 L197.664 935.731 Z" fill="#000000" fill-rule="nonzero" fill-opacity="1" /><path clip-path="url(#clip160)" d="M240.414 924.635 L230.822 939.624 L240.414 939.624 L240.414 924.635 M239.417 921.325 L244.194 921.325 L244.194 939.624 L248.201 939.624 L248.201 942.784 L244.194 942.784 L244.194 949.405 L240.414 949.405 L240.414 942.784 L227.738 942.784 L227.738 939.117 L239.417 921.325 Z" fill="#000000" fill-rule="nonzero" fill-opacity="1" /><path clip-path="url(#clip160)" d="M147.29 939.592 L154.928 939.592 L154.928 913.226 L146.618 914.893 L146.618 910.634 L154.882 908.967 L159.558 908.967 L159.558 939.592 L167.197 939.592 L167.197 943.527 L147.29 943.527 L147.29 939.592 Z" fill="#000000" fill-rule="nonzero" fill-opacity="1" /><path clip-path="url(#clip160)" d="M186.641 912.046 Q183.03 912.046 181.201 915.611 Q179.396 919.152 179.396 926.282 Q179.396 933.388 181.201 936.953 Q183.03 940.495 186.641 940.495 Q190.276 940.495 192.081 936.953 Q193.91 933.388 193.91 926.282 Q193.91 919.152 192.081 915.611 Q190.276 912.046 186.641 912.046 M186.641 908.342 Q192.451 908.342 195.507 912.949 Q198.586 917.532 198.586 926.282 Q198.586 935.009 195.507 939.615 Q192.451 944.198 186.641 944.198 Q180.831 944.198 177.752 939.615 Q174.697 935.009 174.697 926.282 Q174.697 917.532 177.752 912.949 Q180.831 908.342 186.641 908.342 Z" fill="#000000" fill-rule="nonzero" fill-opacity="1" /><path clip-path="url(#clip160)" d="M198.586 902.443 L222.697 902.443 L222.697 905.641 L198.586 905.641 L198.586 902.443 Z" fill="#000000" fill-rule="nonzero" fill-opacity="1" /><path clip-path="url(#clip160)" d="M242.408 900.976 Q245.135 901.559 246.658 903.403 Q248.201 905.246 248.201 907.954 Q248.201 912.111 245.342 914.386 Q242.483 916.662 237.217 916.662 Q235.449 916.662 233.568 916.305 Q231.706 915.966 229.713 915.27 L229.713 911.603 Q231.292 912.524 233.173 912.995 Q235.054 913.465 237.104 913.465 Q240.677 913.465 242.539 912.054 Q244.42 910.644 244.42 907.954 Q244.42 905.471 242.671 904.08 Q240.941 902.669 237.837 902.669 L234.565 902.669 L234.565 899.547 L237.988 899.547 Q240.79 899.547 242.276 898.437 Q243.762 897.309 243.762 895.202 Q243.762 893.04 242.22 891.892 Q240.696 890.726 237.837 890.726 Q236.276 890.726 234.49 891.065 Q232.703 891.403 230.559 892.118 L230.559 888.733 Q232.722 888.131 234.603 887.83 Q236.502 887.529 238.176 887.529 Q242.502 887.529 245.022 889.504 Q247.542 891.46 247.542 894.807 Q247.542 897.14 246.207 898.757 Q244.872 900.356 242.408 900.976 Z" fill="#000000" fill-rule="nonzero" fill-opacity="1" /><path clip-path="url(#clip160)" d="M148.061 906.304 L155.7 906.304 L155.7 879.938 L147.389 881.605 L147.389 877.346 L155.653 875.679 L160.329 875.679 L160.329 906.304 L167.968 906.304 L167.968 910.239 L148.061 910.239 L148.061 906.304 Z" fill="#000000" fill-rule="nonzero" fill-opacity="1" /><path clip-path="url(#clip160)" d="M187.412 878.758 Q183.801 878.758 181.973 882.323 Q180.167 885.864 180.167 892.994 Q180.167 900.1 181.973 903.665 Q183.801 907.207 187.412 907.207 Q191.047 907.207 192.852 903.665 Q194.681 900.1 194.681 892.994 Q194.681 885.864 192.852 882.323 Q191.047 878.758 187.412 878.758 M187.412 875.054 Q193.223 875.054 196.278 879.661 Q199.357 884.244 199.357 892.994 Q199.357 901.721 196.278 906.327 Q193.223 910.911 187.412 910.911 Q181.602 910.911 178.524 906.327 Q175.468 901.721 175.468 892.994 Q175.468 884.244 178.524 879.661 Q181.602 875.054 187.412 875.054 Z" fill="#000000" fill-rule="nonzero" fill-opacity="1" /><path clip-path="url(#clip160)" d="M199.357 869.156 L223.468 869.156 L223.468 872.353 L199.357 872.353 L199.357 869.156 Z" fill="#000000" fill-rule="nonzero" fill-opacity="1" /><path clip-path="url(#clip160)" d="M234.941 879.632 L248.201 879.632 L248.201 882.829 L230.371 882.829 L230.371 879.632 Q232.534 877.393 236.258 873.632 Q240 869.851 240.96 868.761 Q242.784 866.711 243.499 865.3 Q244.232 863.871 244.232 862.498 Q244.232 860.26 242.652 858.849 Q241.091 857.438 238.571 857.438 Q236.784 857.438 234.791 858.059 Q232.816 858.68 230.559 859.94 L230.559 856.103 Q232.853 855.181 234.847 854.711 Q236.841 854.241 238.496 854.241 Q242.859 854.241 245.455 856.423 Q248.05 858.604 248.05 862.253 Q248.05 863.983 247.392 865.545 Q246.752 867.087 245.041 869.193 Q244.571 869.739 242.05 872.353 Q239.53 874.948 234.941 879.632 Z" fill="#000000" fill-rule="nonzero" fill-opacity="1" /><path clip-path="url(#clip160)" d="M147.76 873.016 L155.399 873.016 L155.399 846.651 L147.089 848.317 L147.089 844.058 L155.352 842.391 L160.028 842.391 L160.028 873.016 L167.667 873.016 L167.667 876.951 L147.76 876.951 L147.76 873.016 Z" fill="#000000" fill-rule="nonzero" fill-opacity="1" /><path clip-path="url(#clip160)" d="M187.111 845.47 Q183.5 845.47 181.672 849.035 Q179.866 852.577 179.866 859.706 Q179.866 866.813 181.672 870.377 Q183.5 873.919 187.111 873.919 Q190.746 873.919 192.551 870.377 Q194.38 866.813 194.38 859.706 Q194.38 852.577 192.551 849.035 Q190.746 845.47 187.111 845.47 M187.111 841.766 Q192.922 841.766 195.977 846.373 Q199.056 850.956 199.056 859.706 Q199.056 868.433 195.977 873.039 Q192.922 877.623 187.111 877.623 Q181.301 877.623 178.223 873.039 Q175.167 868.433 175.167 859.706 Q175.167 850.956 178.223 846.373 Q181.301 841.766 187.111 841.766 Z" fill="#000000" fill-rule="nonzero" fill-opacity="1" /><path clip-path="url(#clip160)" d="M199.056 835.868 L223.167 835.868 L223.167 839.065 L199.056 839.065 L199.056 835.868 Z" fill="#000000" fill-rule="nonzero" fill-opacity="1" /><path clip-path="url(#clip160)" d="M232.026 846.344 L238.232 846.344 L238.232 824.922 L231.48 826.276 L231.48 822.815 L238.195 821.461 L241.994 821.461 L241.994 846.344 L248.201 846.344 L248.201 849.541 L232.026 849.541 L232.026 846.344 Z" fill="#000000" fill-rule="nonzero" fill-opacity="1" /><path clip-path="url(#clip160)" d="M177.495 839.728 L185.134 839.728 L185.134 813.363 L176.824 815.029 L176.824 810.77 L185.087 809.104 L189.763 809.104 L189.763 839.728 L197.402 839.728 L197.402 843.664 L177.495 843.664 L177.495 839.728 Z" fill="#000000" fill-rule="nonzero" fill-opacity="1" /><path clip-path="url(#clip160)" d="M216.847 812.182 Q213.235 812.182 211.407 815.747 Q209.601 819.289 209.601 826.418 Q209.601 833.525 211.407 837.09 Q213.235 840.631 216.847 840.631 Q220.481 840.631 222.286 837.09 Q224.115 833.525 224.115 826.418 Q224.115 819.289 222.286 815.747 Q220.481 812.182 216.847 812.182 M216.847 808.479 Q222.657 808.479 225.712 813.085 Q228.791 817.668 228.791 826.418 Q228.791 835.145 225.712 839.752 Q222.657 844.335 216.847 844.335 Q211.036 844.335 207.958 839.752 Q204.902 835.145 204.902 826.418 Q204.902 817.668 207.958 813.085 Q211.036 808.479 216.847 808.479 Z" fill="#000000" fill-rule="nonzero" fill-opacity="1" /><path clip-path="url(#clip160)" d="M238.496 790.675 Q235.562 790.675 234.076 793.571 Q232.609 796.449 232.609 802.241 Q232.609 808.015 234.076 810.912 Q235.562 813.789 238.496 813.789 Q241.449 813.789 242.916 810.912 Q244.401 808.015 244.401 802.241 Q244.401 796.449 242.916 793.571 Q241.449 790.675 238.496 790.675 M238.496 787.665 Q243.216 787.665 245.699 791.408 Q248.201 795.132 248.201 802.241 Q248.201 809.332 245.699 813.075 Q243.216 816.799 238.496 816.799 Q233.775 816.799 231.274 813.075 Q228.791 809.332 228.791 802.241 Q228.791 795.132 231.274 791.408 Q233.775 787.665 238.496 787.665 Z" fill="#000000" fill-rule="nonzero" fill-opacity="1" /><path clip-path="url(#clip160)" d="M55.1207 1077.98 L55.1207 1068.4 L87.4585 1056.27 L55.1207 1044.08 L55.1207 1034.5 L102.641 1034.5 L102.641 1040.77 L60.9135 1040.77 L93.506 1053.02 L93.506 1059.49 L60.9135 1071.74 L102.641 1071.74 L102.641 1077.98 L55.1207 1077.98 Z" fill="#000000" fill-rule="nonzero" fill-opacity="1" /><path clip-path="url(#clip160)" d="M84.7213 1005.79 Q84.7213 1012.89 86.3445 1015.63 Q87.9678 1018.36 91.8827 1018.36 Q95.0019 1018.36 96.848 1016.33 Q98.6622 1014.26 98.6622 1010.72 Q98.6622 1005.85 95.2247 1002.93 Q91.7554 999.967 86.0263 999.967 L84.7213 999.967 L84.7213 1005.79 M82.3023 994.11 L102.641 994.11 L102.641 999.967 L97.2299 999.967 Q100.476 1001.97 102.036 1004.96 Q103.564 1007.96 103.564 1012.28 Q103.564 1017.76 100.508 1021.01 Q97.4209 1024.22 92.2646 1024.22 Q86.2491 1024.22 83.1935 1020.21 Q80.138 1016.17 80.138 1008.18 L80.138 999.967 L79.5651 999.967 Q75.5228 999.967 73.3267 1002.64 Q71.0987 1005.28 71.0987 1010.09 Q71.0987 1013.14 71.8307 1016.04 Q72.5628 1018.94 74.0269 1021.61 L68.616 1021.61 Q67.3747 1018.4 66.77 1015.37 Q66.1334 1012.35 66.1334 1009.48 Q66.1334 1001.75 70.1438 997.93 Q74.1542 994.11 82.3023 994.11 Z" fill="#000000" fill-rule="nonzero" fill-opacity="1" /><path clip-path="url(#clip160)" d="M84.403 958.589 Q78.0373 958.589 74.5362 961.231 Q71.035 963.841 71.035 968.584 Q71.035 973.294 74.5362 975.936 Q78.0373 978.546 84.403 978.546 Q90.7369 978.546 94.238 975.936 Q97.7392 973.294 97.7392 968.584 Q97.7392 963.841 94.238 961.231 Q90.7369 958.589 84.403 958.589 M98.2166 952.733 Q107.32 952.733 111.744 956.775 Q116.2 960.817 116.2 969.157 Q116.2 972.244 115.722 974.981 Q115.277 977.718 114.322 980.297 L108.625 980.297 Q110.025 977.718 110.693 975.204 Q111.362 972.689 111.362 970.08 Q111.362 964.319 108.338 961.454 Q105.346 958.589 99.2669 958.589 L96.3705 958.589 Q99.5216 960.404 101.081 963.236 Q102.641 966.069 102.641 970.016 Q102.641 976.573 97.6437 980.583 Q92.6466 984.593 84.403 984.593 Q76.1276 984.593 71.1305 980.583 Q66.1334 976.573 66.1334 970.016 Q66.1334 966.069 67.693 963.236 Q69.2526 960.404 72.4036 958.589 L66.9928 958.589 L66.9928 952.733 L98.2166 952.733 Z" fill="#000000" fill-rule="nonzero" fill-opacity="1" /><path clip-path="url(#clip160)" d="M81.1247 911.038 L102.641 911.038 L102.641 916.894 L81.3156 916.894 Q76.2549 916.894 73.7404 918.867 Q71.226 920.841 71.226 924.788 Q71.226 929.53 74.2497 932.267 Q77.2734 935.004 82.4933 935.004 L102.641 935.004 L102.641 940.893 L66.9928 940.893 L66.9928 935.004 L72.531 935.004 Q69.3163 932.904 67.7248 930.071 Q66.1334 927.207 66.1334 923.483 Q66.1334 917.34 69.9528 914.189 Q73.7404 911.038 81.1247 911.038 Z" fill="#000000" fill-rule="nonzero" fill-opacity="1" /><path clip-path="url(#clip160)" d="M66.9928 899.357 L66.9928 893.5 L102.641 893.5 L102.641 899.357 L66.9928 899.357 M53.1156 899.357 L53.1156 893.5 L60.5316 893.5 L60.5316 899.357 L53.1156 899.357 Z" fill="#000000" fill-rule="nonzero" fill-opacity="1" /><path clip-path="url(#clip160)" d="M56.8713 875.453 L66.9928 875.453 L66.9928 863.39 L71.5443 863.39 L71.5443 875.453 L90.896 875.453 Q95.2565 875.453 96.4978 874.276 Q97.7392 873.066 97.7392 869.406 L97.7392 863.39 L102.641 863.39 L102.641 869.406 Q102.641 876.185 100.126 878.763 Q97.58 881.342 90.896 881.342 L71.5443 881.342 L71.5443 885.638 L66.9928 885.638 L66.9928 881.342 L56.8713 881.342 L56.8713 875.453 Z" fill="#000000" fill-rule="nonzero" fill-opacity="1" /><path clip-path="url(#clip160)" d="M88.5725 856.293 L66.9928 856.293 L66.9928 850.436 L88.3497 850.436 Q93.4105 850.436 95.9568 848.463 Q98.4712 846.489 98.4712 842.543 Q98.4712 837.8 95.4475 835.063 Q92.4238 832.294 87.2039 832.294 L66.9928 832.294 L66.9928 826.437 L102.641 826.437 L102.641 832.294 L97.1662 832.294 Q100.413 834.426 102.004 837.259 Q103.564 840.06 103.564 843.784 Q103.564 849.927 99.7444 853.11 Q95.9249 856.293 88.5725 856.293 M66.1334 841.556 L66.1334 841.556 Z" fill="#000000" fill-rule="nonzero" fill-opacity="1" /><path clip-path="url(#clip160)" d="M72.4036 790.917 L53.1156 790.917 L53.1156 785.06 L102.641 785.06 L102.641 790.917 L97.2936 790.917 Q100.476 792.763 102.036 795.596 Q103.564 798.396 103.564 802.343 Q103.564 808.804 98.4076 812.878 Q93.2513 816.921 84.8486 816.921 Q76.4459 816.921 71.2896 812.878 Q66.1334 808.804 66.1334 802.343 Q66.1334 798.396 67.693 795.596 Q69.2208 792.763 72.4036 790.917 M84.8486 810.873 Q91.3098 810.873 95.0019 808.231 Q98.6622 805.558 98.6622 800.911 Q98.6622 796.264 95.0019 793.59 Q91.3098 790.917 84.8486 790.917 Q78.3874 790.917 74.7271 793.59 Q71.035 796.264 71.035 800.911 Q71.035 805.558 74.7271 808.231 Q78.3874 810.873 84.8486 810.873 Z" fill="#000000" fill-rule="nonzero" fill-opacity="1" /><path clip-path="url(#clip160)" d="M83.3527 742.506 L86.2172 742.506 L86.2172 769.432 Q92.2646 769.051 95.4475 765.804 Q98.5985 762.526 98.5985 756.701 Q98.5985 753.327 97.771 750.176 Q96.9434 746.993 95.2884 743.874 L100.827 743.874 Q102.163 747.025 102.864 750.335 Q103.564 753.646 103.564 757.051 Q103.564 765.581 98.5985 770.578 Q93.6333 775.544 85.1669 775.544 Q76.414 775.544 71.2896 770.833 Q66.1334 766.09 66.1334 758.07 Q66.1334 750.876 70.7804 746.707 Q75.3955 742.506 83.3527 742.506 M81.6339 748.362 Q76.8278 748.426 73.9632 751.067 Q71.0987 753.677 71.0987 758.006 Q71.0987 762.908 73.8678 765.868 Q76.6368 768.796 81.6657 769.241 L81.6339 748.362 Z" fill="#000000" fill-rule="nonzero" fill-opacity="1" /><polyline clip-path="url(#clip164)" style="stroke:#009af9; stroke-linecap:round; stroke-linejoin:round; stroke-width:4; stroke-opacity:1; fill:none" points="322.163,819.937 697.391,820.158 839.043,821.676 897.813,823.64 952.063,826.668 1010.83,831.273 1078.65,837.837 1164.54,847.353 1239.89,856.843 1303.18,866.176 1363.46,876.589 1500.59,904.466 1827.59,976.357 "/>
<path clip-path="url(#clip160)" d="M1606.98 924.451 L1819.56 924.451 L1819.56 820.771 L1606.98 820.771  Z" fill="#ffffff" fill-rule="evenodd" fill-opacity="1"/>
<polyline clip-path="url(#clip160)" style="stroke:#000000; stroke-linecap:round; stroke-linejoin:round; stroke-width:4; stroke-opacity:1; fill:none" points="1606.98,924.451 1819.56,924.451 1819.56,820.771 1606.98,820.771 1606.98,924.451 "/>
<polyline clip-path="url(#clip160)" style="stroke:#009af9; stroke-linecap:round; stroke-linejoin:round; stroke-width:4; stroke-opacity:1; fill:none" points="1624.71,872.611 1731.09,872.611 "/>
<path clip-path="url(#clip160)" d="M1762.67 892.298 Q1760.86 896.928 1759.15 898.34 Q1757.44 899.752 1754.57 899.752 L1751.16 899.752 L1751.16 896.187 L1753.66 896.187 Q1755.42 896.187 1756.39 895.354 Q1757.37 894.521 1758.55 891.419 L1759.31 889.474 L1748.82 863.965 L1753.34 863.965 L1761.44 884.243 L1769.54 863.965 L1774.06 863.965 L1762.67 892.298 Z" fill="#000000" fill-rule="nonzero" fill-opacity="1" /><path clip-path="url(#clip160)" d="M1794.7 871.257 Q1798.06 871.974 1799.94 874.243 Q1801.83 876.511 1801.83 879.845 Q1801.83 884.96 1798.31 887.761 Q1794.8 890.562 1788.31 890.562 Q1786.14 890.562 1783.82 890.122 Q1781.53 889.706 1779.08 888.849 L1779.08 884.335 Q1781.02 885.47 1783.34 886.048 Q1785.65 886.627 1788.18 886.627 Q1792.57 886.627 1794.87 884.891 Q1797.18 883.155 1797.18 879.845 Q1797.18 876.789 1795.03 875.076 Q1792.9 873.34 1789.08 873.34 L1785.05 873.34 L1785.05 869.498 L1789.26 869.498 Q1792.71 869.498 1794.54 868.132 Q1796.37 866.743 1796.37 864.15 Q1796.37 861.488 1794.47 860.076 Q1792.6 858.641 1789.08 858.641 Q1787.16 858.641 1784.96 859.058 Q1782.76 859.474 1780.12 860.354 L1780.12 856.187 Q1782.78 855.447 1785.1 855.076 Q1787.44 854.706 1789.5 854.706 Q1794.82 854.706 1797.92 857.137 Q1801.02 859.544 1801.02 863.664 Q1801.02 866.535 1799.38 868.525 Q1797.74 870.493 1794.7 871.257 Z" fill="#000000" fill-rule="nonzero" fill-opacity="1" /><path clip-path="url(#clip160)" d="M277.001 1328.66 L1872.76 1328.66 L1872.76 1162.86 L277.001 1162.86  Z" fill="#ffffff" fill-rule="evenodd" fill-opacity="1"/>
<defs>
  <clipPath id="clip165">
    <rect x="277" y="1162" width="1597" height="167"/>
  </clipPath>
</defs>
<polyline clip-path="url(#clip165)" style="stroke:#000000; stroke-linecap:round; stroke-linejoin:round; stroke-width:2; stroke-opacity:0.1; fill:none" points="924.335,1328.66 924.335,1162.86 "/>
<polyline clip-path="url(#clip165)" style="stroke:#000000; stroke-linecap:round; stroke-linejoin:round; stroke-width:2; stroke-opacity:0.1; fill:none" points="1827.59,1328.66 1827.59,1162.86 "/>
<polyline clip-path="url(#clip165)" style="stroke:#000000; stroke-linecap:round; stroke-linejoin:round; stroke-width:2; stroke-opacity:0.1; fill:none" points="277.001,1298.69 1872.76,1298.69 "/>
<polyline clip-path="url(#clip165)" style="stroke:#000000; stroke-linecap:round; stroke-linejoin:round; stroke-width:2; stroke-opacity:0.1; fill:none" points="277.001,1254.8 1872.76,1254.8 "/>
<polyline clip-path="url(#clip165)" style="stroke:#000000; stroke-linecap:round; stroke-linejoin:round; stroke-width:2; stroke-opacity:0.1; fill:none" points="277.001,1210.91 1872.76,1210.91 "/>
<polyline clip-path="url(#clip165)" style="stroke:#000000; stroke-linecap:round; stroke-linejoin:round; stroke-width:2; stroke-opacity:0.1; fill:none" points="277.001,1167.02 1872.76,1167.02 "/>
<polyline clip-path="url(#clip160)" style="stroke:#000000; stroke-linecap:round; stroke-linejoin:round; stroke-width:4; stroke-opacity:1; fill:none" points="277.001,1328.66 1872.76,1328.66 "/>
<polyline clip-path="url(#clip160)" style="stroke:#000000; stroke-linecap:round; stroke-linejoin:round; stroke-width:4; stroke-opacity:1; fill:none" points="924.335,1328.66 924.335,1309.77 "/>
<polyline clip-path="url(#clip160)" style="stroke:#000000; stroke-linecap:round; stroke-linejoin:round; stroke-width:4; stroke-opacity:1; fill:none" points="1827.59,1328.66 1827.59,1309.77 "/>
<path clip-path="url(#clip160)" d="M889.318 1398.95 L896.957 1398.95 L896.957 1372.58 L888.647 1374.25 L888.647 1369.99 L896.911 1368.32 L901.587 1368.32 L901.587 1398.95 L909.225 1398.95 L909.225 1402.88 L889.318 1402.88 L889.318 1398.95 Z" fill="#000000" fill-rule="nonzero" fill-opacity="1" /><path clip-path="url(#clip160)" d="M928.67 1371.4 Q925.059 1371.4 923.23 1374.97 Q921.424 1378.51 921.424 1385.64 Q921.424 1392.75 923.23 1396.31 Q925.059 1399.85 928.67 1399.85 Q932.304 1399.85 934.11 1396.31 Q935.938 1392.75 935.938 1385.64 Q935.938 1378.51 934.11 1374.97 Q932.304 1371.4 928.67 1371.4 M928.67 1367.7 Q934.48 1367.7 937.535 1372.31 Q940.614 1376.89 940.614 1385.64 Q940.614 1394.37 937.535 1398.97 Q934.48 1403.56 928.67 1403.56 Q922.86 1403.56 919.781 1398.97 Q916.725 1394.37 916.725 1385.64 Q916.725 1376.89 919.781 1372.31 Q922.86 1367.7 928.67 1367.7 Z" fill="#000000" fill-rule="nonzero" fill-opacity="1" /><path clip-path="url(#clip160)" d="M950.319 1349.9 Q947.385 1349.9 945.899 1352.79 Q944.432 1355.67 944.432 1361.46 Q944.432 1367.24 945.899 1370.13 Q947.385 1373.01 950.319 1373.01 Q953.272 1373.01 954.739 1370.13 Q956.225 1367.24 956.225 1361.46 Q956.225 1355.67 954.739 1352.79 Q953.272 1349.9 950.319 1349.9 M950.319 1346.89 Q955.04 1346.89 957.522 1350.63 Q960.024 1354.35 960.024 1361.46 Q960.024 1368.55 957.522 1372.3 Q955.04 1376.02 950.319 1376.02 Q945.598 1376.02 943.097 1372.3 Q940.614 1368.55 940.614 1361.46 Q940.614 1354.35 943.097 1350.63 Q945.598 1346.89 950.319 1346.89 Z" fill="#000000" fill-rule="nonzero" fill-opacity="1" /><path clip-path="url(#clip160)" d="M1793.04 1398.95 L1800.68 1398.95 L1800.68 1372.58 L1792.37 1374.25 L1792.37 1369.99 L1800.63 1368.32 L1805.31 1368.32 L1805.31 1398.95 L1812.94 1398.95 L1812.94 1402.88 L1793.04 1402.88 L1793.04 1398.95 Z" fill="#000000" fill-rule="nonzero" fill-opacity="1" /><path clip-path="url(#clip160)" d="M1832.39 1371.4 Q1828.78 1371.4 1826.95 1374.97 Q1825.14 1378.51 1825.14 1385.64 Q1825.14 1392.75 1826.95 1396.31 Q1828.78 1399.85 1832.39 1399.85 Q1836.02 1399.85 1837.83 1396.31 Q1839.66 1392.75 1839.66 1385.64 Q1839.66 1378.51 1837.83 1374.97 Q1836.02 1371.4 1832.39 1371.4 M1832.39 1367.7 Q1838.2 1367.7 1841.25 1372.31 Q1844.33 1376.89 1844.33 1385.64 Q1844.33 1394.37 1841.25 1398.97 Q1838.2 1403.56 1832.39 1403.56 Q1826.58 1403.56 1823.5 1398.97 Q1820.44 1394.37 1820.44 1385.64 Q1820.44 1376.89 1823.5 1372.31 Q1826.58 1367.7 1832.39 1367.7 Z" fill="#000000" fill-rule="nonzero" fill-opacity="1" /><path clip-path="url(#clip160)" d="M1857.03 1360.33 Q1859.76 1360.92 1861.28 1362.76 Q1862.82 1364.6 1862.82 1367.31 Q1862.82 1371.47 1859.96 1373.74 Q1857.1 1376.02 1851.84 1376.02 Q1850.07 1376.02 1848.19 1375.66 Q1846.33 1375.32 1844.33 1374.63 L1844.33 1370.96 Q1845.91 1371.88 1847.79 1372.35 Q1849.67 1372.82 1851.72 1372.82 Q1855.3 1372.82 1857.16 1371.41 Q1859.04 1370 1859.04 1367.31 Q1859.04 1364.83 1857.29 1363.44 Q1855.56 1362.03 1852.46 1362.03 L1849.19 1362.03 L1849.19 1358.9 L1852.61 1358.9 Q1855.41 1358.9 1856.9 1357.79 Q1858.38 1356.67 1858.38 1354.56 Q1858.38 1352.4 1856.84 1351.25 Q1855.32 1350.08 1852.46 1350.08 Q1850.9 1350.08 1849.11 1350.42 Q1847.32 1350.76 1845.18 1351.47 L1845.18 1348.09 Q1847.34 1347.49 1849.22 1347.19 Q1851.12 1346.89 1852.8 1346.89 Q1857.12 1346.89 1859.64 1348.86 Q1862.16 1350.82 1862.16 1354.16 Q1862.16 1356.5 1860.83 1358.11 Q1859.49 1359.71 1857.03 1360.33 Z" fill="#000000" fill-rule="nonzero" fill-opacity="1" /><path clip-path="url(#clip160)" d="M794.692 1437.23 L822.001 1437.23 L822.001 1442.64 L801.121 1442.64 L801.121 1456.65 L819.964 1456.65 L819.964 1462.06 L801.121 1462.06 L801.121 1484.75 L794.692 1484.75 L794.692 1437.23 Z" fill="#000000" fill-rule="nonzero" fill-opacity="1" /><path clip-path="url(#clip160)" d="M847.845 1454.58 Q846.859 1454.01 845.681 1453.75 Q844.535 1453.47 843.135 1453.47 Q838.169 1453.47 835.496 1456.71 Q832.854 1459.93 832.854 1465.97 L832.854 1484.75 L826.966 1484.75 L826.966 1449.1 L832.854 1449.1 L832.854 1454.64 Q834.7 1451.4 837.66 1449.84 Q840.62 1448.25 844.853 1448.25 Q845.458 1448.25 846.19 1448.34 Q846.922 1448.4 847.813 1448.56 L847.845 1454.58 Z" fill="#000000" fill-rule="nonzero" fill-opacity="1" /><path clip-path="url(#clip160)" d="M883.048 1465.46 L883.048 1468.33 L856.121 1468.33 Q856.503 1474.38 859.749 1477.56 Q863.028 1480.71 868.852 1480.71 Q872.226 1480.71 875.377 1479.88 Q878.56 1479.06 881.679 1477.4 L881.679 1482.94 Q878.528 1484.28 875.218 1484.98 Q871.908 1485.68 868.502 1485.68 Q859.972 1485.68 854.975 1480.71 Q850.01 1475.75 850.01 1467.28 Q850.01 1458.53 854.72 1453.4 Q859.463 1448.25 867.484 1448.25 Q874.677 1448.25 878.846 1452.89 Q883.048 1457.51 883.048 1465.46 M877.191 1463.75 Q877.128 1458.94 874.486 1456.08 Q871.876 1453.21 867.547 1453.21 Q862.646 1453.21 859.686 1455.98 Q856.757 1458.75 856.312 1463.78 L877.191 1463.75 Z" fill="#000000" fill-rule="nonzero" fill-opacity="1" /><path clip-path="url(#clip160)" d="M896.161 1466.96 Q896.161 1473.42 898.803 1477.11 Q901.476 1480.77 906.123 1480.77 Q910.77 1480.77 913.444 1477.11 Q916.117 1473.42 916.117 1466.96 Q916.117 1460.5 913.444 1456.84 Q910.77 1453.15 906.123 1453.15 Q901.476 1453.15 898.803 1456.84 Q896.161 1460.5 896.161 1466.96 M916.117 1479.41 Q914.271 1482.59 911.439 1484.15 Q908.638 1485.68 904.691 1485.68 Q898.23 1485.68 894.156 1480.52 Q890.114 1475.36 890.114 1466.96 Q890.114 1458.56 894.156 1453.4 Q898.23 1448.25 904.691 1448.25 Q908.638 1448.25 911.439 1449.81 Q914.271 1451.33 916.117 1454.52 L916.117 1449.1 L921.974 1449.1 L921.974 1498.31 L916.117 1498.31 L916.117 1479.41 Z" fill="#000000" fill-rule="nonzero" fill-opacity="1" /><path clip-path="url(#clip160)" d="M933.432 1470.68 L933.432 1449.1 L939.289 1449.1 L939.289 1470.46 Q939.289 1475.52 941.262 1478.07 Q943.235 1480.58 947.182 1480.58 Q951.925 1480.58 954.662 1477.56 Q957.431 1474.54 957.431 1469.32 L957.431 1449.1 L963.287 1449.1 L963.287 1484.75 L957.431 1484.75 L957.431 1479.28 Q955.298 1482.52 952.466 1484.12 Q949.665 1485.68 945.941 1485.68 Q939.798 1485.68 936.615 1481.86 Q933.432 1478.04 933.432 1470.68 M948.169 1448.25 L948.169 1448.25 Z" fill="#000000" fill-rule="nonzero" fill-opacity="1" /><path clip-path="url(#clip160)" d="M1005.84 1465.46 L1005.84 1468.33 L978.915 1468.33 Q979.297 1474.38 982.544 1477.56 Q985.822 1480.71 991.647 1480.71 Q995.02 1480.71 998.171 1479.88 Q1001.35 1479.06 1004.47 1477.4 L1004.47 1482.94 Q1001.32 1484.28 998.012 1484.98 Q994.702 1485.68 991.296 1485.68 Q982.766 1485.68 977.769 1480.71 Q972.804 1475.75 972.804 1467.28 Q972.804 1458.53 977.515 1453.4 Q982.257 1448.25 990.278 1448.25 Q997.471 1448.25 1001.64 1452.89 Q1005.84 1457.51 1005.84 1465.46 M999.986 1463.75 Q999.922 1458.94 997.28 1456.08 Q994.67 1453.21 990.342 1453.21 Q985.44 1453.21 982.48 1455.98 Q979.552 1458.75 979.106 1463.78 L999.986 1463.75 Z" fill="#000000" fill-rule="nonzero" fill-opacity="1" /><path clip-path="url(#clip160)" d="M1045.09 1463.24 L1045.09 1484.75 L1039.23 1484.75 L1039.23 1463.43 Q1039.23 1458.37 1037.26 1455.85 Q1035.28 1453.34 1031.34 1453.34 Q1026.59 1453.34 1023.86 1456.36 Q1021.12 1459.39 1021.12 1464.61 L1021.12 1484.75 L1015.23 1484.75 L1015.23 1449.1 L1021.12 1449.1 L1021.12 1454.64 Q1023.22 1451.43 1026.05 1449.84 Q1028.92 1448.25 1032.64 1448.25 Q1038.78 1448.25 1041.94 1452.06 Q1045.09 1455.85 1045.09 1463.24 Z" fill="#000000" fill-rule="nonzero" fill-opacity="1" /><path clip-path="url(#clip160)" d="M1082.42 1450.47 L1082.42 1455.95 Q1079.94 1454.58 1077.42 1453.91 Q1074.94 1453.21 1072.4 1453.21 Q1066.7 1453.21 1063.55 1456.84 Q1060.4 1460.44 1060.4 1466.96 Q1060.4 1473.49 1063.55 1477.11 Q1066.7 1480.71 1072.4 1480.71 Q1074.94 1480.71 1077.42 1480.04 Q1079.94 1479.34 1082.42 1477.97 L1082.42 1483.38 Q1079.97 1484.53 1077.33 1485.1 Q1074.72 1485.68 1071.76 1485.68 Q1063.71 1485.68 1058.96 1480.62 Q1054.22 1475.55 1054.22 1466.96 Q1054.22 1458.24 1059 1453.24 Q1063.8 1448.25 1072.14 1448.25 Q1074.85 1448.25 1077.42 1448.82 Q1080 1449.36 1082.42 1450.47 Z" fill="#000000" fill-rule="nonzero" fill-opacity="1" /><path clip-path="url(#clip160)" d="M1107.44 1488.06 Q1104.96 1494.43 1102.6 1496.37 Q1100.25 1498.31 1096.3 1498.31 L1091.62 1498.31 L1091.62 1493.41 L1095.06 1493.41 Q1097.48 1493.41 1098.81 1492.26 Q1100.15 1491.12 1101.77 1486.85 L1102.82 1484.18 L1088.41 1449.1 L1094.61 1449.1 L1105.75 1476.99 L1116.89 1449.1 L1123.1 1449.1 L1107.44 1488.06 Z" fill="#000000" fill-rule="nonzero" fill-opacity="1" /><path clip-path="url(#clip160)" d="M1151.36 1435.23 L1164.86 1435.23 L1164.86 1439.78 L1157.22 1439.78 L1157.22 1488.8 L1164.86 1488.8 L1164.86 1493.35 L1151.36 1493.35 L1151.36 1435.23 Z" fill="#000000" fill-rule="nonzero" fill-opacity="1" /><path clip-path="url(#clip160)" d="M1197.99 1454.58 Q1197 1454.01 1195.83 1453.75 Q1194.68 1453.47 1193.28 1453.47 Q1188.32 1453.47 1185.64 1456.71 Q1183 1459.93 1183 1465.97 L1183 1484.75 L1177.11 1484.75 L1177.11 1449.1 L1183 1449.1 L1183 1454.64 Q1184.85 1451.4 1187.81 1449.84 Q1190.77 1448.25 1195 1448.25 Q1195.6 1448.25 1196.34 1448.34 Q1197.07 1448.4 1197.96 1448.56 L1197.99 1454.58 Z" fill="#000000" fill-rule="nonzero" fill-opacity="1" /><path clip-path="url(#clip160)" d="M1220.33 1466.83 Q1213.24 1466.83 1210.5 1468.46 Q1207.76 1470.08 1207.76 1473.99 Q1207.76 1477.11 1209.8 1478.96 Q1211.87 1480.77 1215.4 1480.77 Q1220.27 1480.77 1223.2 1477.34 Q1226.16 1473.87 1226.16 1468.14 L1226.16 1466.83 L1220.33 1466.83 M1232.02 1464.41 L1232.02 1484.75 L1226.16 1484.75 L1226.16 1479.34 Q1224.15 1482.59 1221.16 1484.15 Q1218.17 1485.68 1213.84 1485.68 Q1208.37 1485.68 1205.12 1482.62 Q1201.91 1479.53 1201.91 1474.38 Q1201.91 1468.36 1205.92 1465.31 Q1209.96 1462.25 1217.95 1462.25 L1226.16 1462.25 L1226.16 1461.68 Q1226.16 1457.63 1223.49 1455.44 Q1220.84 1453.21 1216.04 1453.21 Q1212.98 1453.21 1210.09 1453.94 Q1207.19 1454.67 1204.52 1456.14 L1204.52 1450.73 Q1207.73 1449.49 1210.75 1448.88 Q1213.78 1448.25 1216.64 1448.25 Q1224.38 1448.25 1228.2 1452.26 Q1232.02 1456.27 1232.02 1464.41 Z" fill="#000000" fill-rule="nonzero" fill-opacity="1" /><path clip-path="url(#clip160)" d="M1267.54 1454.52 L1267.54 1435.23 L1273.39 1435.23 L1273.39 1484.75 L1267.54 1484.75 L1267.54 1479.41 Q1265.69 1482.59 1262.86 1484.15 Q1260.06 1485.68 1256.11 1485.68 Q1249.65 1485.68 1245.57 1480.52 Q1241.53 1475.36 1241.53 1466.96 Q1241.53 1458.56 1245.57 1453.4 Q1249.65 1448.25 1256.11 1448.25 Q1260.06 1448.25 1262.86 1449.81 Q1265.69 1451.33 1267.54 1454.52 M1247.58 1466.96 Q1247.58 1473.42 1250.22 1477.11 Q1252.9 1480.77 1257.54 1480.77 Q1262.19 1480.77 1264.86 1477.11 Q1267.54 1473.42 1267.54 1466.96 Q1267.54 1460.5 1264.86 1456.84 Q1262.19 1453.15 1257.54 1453.15 Q1252.9 1453.15 1250.22 1456.84 Q1247.58 1460.5 1247.58 1466.96 Z" fill="#000000" fill-rule="nonzero" fill-opacity="1" /><path clip-path="url(#clip160)" d="M1295.86 1437.23 L1301.27 1437.23 L1284.72 1490.8 L1279.31 1490.8 L1295.86 1437.23 Z" fill="#000000" fill-rule="nonzero" fill-opacity="1" /><path clip-path="url(#clip160)" d="M1330.14 1450.16 L1330.14 1455.69 Q1327.66 1454.42 1324.99 1453.78 Q1322.31 1453.15 1319.45 1453.15 Q1315.09 1453.15 1312.89 1454.48 Q1310.73 1455.82 1310.73 1458.49 Q1310.73 1460.53 1312.29 1461.71 Q1313.85 1462.85 1318.56 1463.91 L1320.56 1464.35 Q1326.8 1465.69 1329.41 1468.14 Q1332.05 1470.56 1332.05 1474.92 Q1332.05 1479.88 1328.11 1482.78 Q1324.19 1485.68 1317.32 1485.68 Q1314.45 1485.68 1311.33 1485.1 Q1308.25 1484.56 1304.81 1483.45 L1304.81 1477.4 Q1308.05 1479.09 1311.21 1479.95 Q1314.36 1480.77 1317.44 1480.77 Q1321.58 1480.77 1323.81 1479.37 Q1326.04 1477.94 1326.04 1475.36 Q1326.04 1472.98 1324.41 1471.7 Q1322.82 1470.43 1317.38 1469.25 L1315.34 1468.77 Q1309.9 1467.63 1307.48 1465.27 Q1305.06 1462.89 1305.06 1458.75 Q1305.06 1453.72 1308.63 1450.98 Q1312.19 1448.25 1318.75 1448.25 Q1321.99 1448.25 1324.86 1448.72 Q1327.72 1449.2 1330.14 1450.16 Z" fill="#000000" fill-rule="nonzero" fill-opacity="1" /><path clip-path="url(#clip160)" d="M1355.06 1435.23 L1355.06 1493.35 L1341.57 1493.35 L1341.57 1488.8 L1349.18 1488.8 L1349.18 1439.78 L1341.57 1439.78 L1341.57 1435.23 L1355.06 1435.23 Z" fill="#000000" fill-rule="nonzero" fill-opacity="1" /><polyline clip-path="url(#clip160)" style="stroke:#000000; stroke-linecap:round; stroke-linejoin:round; stroke-width:4; stroke-opacity:1; fill:none" points="277.001,1328.66 277.001,1162.86 "/>
<polyline clip-path="url(#clip160)" style="stroke:#000000; stroke-linecap:round; stroke-linejoin:round; stroke-width:4; stroke-opacity:1; fill:none" points="277.001,1298.69 295.898,1298.69 "/>
<polyline clip-path="url(#clip160)" style="stroke:#000000; stroke-linecap:round; stroke-linejoin:round; stroke-width:4; stroke-opacity:1; fill:none" points="277.001,1254.8 295.898,1254.8 "/>
<polyline clip-path="url(#clip160)" style="stroke:#000000; stroke-linecap:round; stroke-linejoin:round; stroke-width:4; stroke-opacity:1; fill:none" points="277.001,1210.91 295.898,1210.91 "/>
<polyline clip-path="url(#clip160)" style="stroke:#000000; stroke-linecap:round; stroke-linejoin:round; stroke-width:4; stroke-opacity:1; fill:none" points="277.001,1167.02 295.898,1167.02 "/>
<path clip-path="url(#clip160)" d="M126.164 1299.14 L155.84 1299.14 L155.84 1303.08 L126.164 1303.08 L126.164 1299.14 Z" fill="#000000" fill-rule="nonzero" fill-opacity="1" /><path clip-path="url(#clip160)" d="M166.743 1312.04 L174.381 1312.04 L174.381 1285.67 L166.071 1287.34 L166.071 1283.08 L174.335 1281.41 L179.011 1281.41 L179.011 1312.04 L186.65 1312.04 L186.65 1315.97 L166.743 1315.97 L166.743 1312.04 Z" fill="#000000" fill-rule="nonzero" fill-opacity="1" /><path clip-path="url(#clip160)" d="M196.141 1281.41 L214.497 1281.41 L214.497 1285.35 L200.423 1285.35 L200.423 1293.82 Q201.442 1293.47 202.46 1293.31 Q203.479 1293.13 204.497 1293.13 Q210.284 1293.13 213.664 1296.3 Q217.043 1299.47 217.043 1304.89 Q217.043 1310.46 213.571 1313.57 Q210.099 1316.64 203.779 1316.64 Q201.604 1316.64 199.335 1316.27 Q197.09 1315.9 194.682 1315.16 L194.682 1310.46 Q196.766 1311.6 198.988 1312.15 Q201.21 1312.71 203.687 1312.71 Q207.691 1312.71 210.029 1310.6 Q212.367 1308.5 212.367 1304.89 Q212.367 1301.27 210.029 1299.17 Q207.691 1297.06 203.687 1297.06 Q201.812 1297.06 199.937 1297.48 Q198.085 1297.89 196.141 1298.77 L196.141 1281.41 Z" fill="#000000" fill-rule="nonzero" fill-opacity="1" /><path clip-path="url(#clip160)" d="M236.256 1284.49 Q232.645 1284.49 230.816 1288.06 Q229.011 1291.6 229.011 1298.73 Q229.011 1305.83 230.816 1309.4 Q232.645 1312.94 236.256 1312.94 Q239.89 1312.94 241.696 1309.4 Q243.525 1305.83 243.525 1298.73 Q243.525 1291.6 241.696 1288.06 Q239.89 1284.49 236.256 1284.49 M236.256 1280.79 Q242.066 1280.79 245.122 1285.39 Q248.201 1289.98 248.201 1298.73 Q248.201 1307.45 245.122 1312.06 Q242.066 1316.64 236.256 1316.64 Q230.446 1316.64 227.367 1312.06 Q224.312 1307.45 224.312 1298.73 Q224.312 1289.98 227.367 1285.39 Q230.446 1280.79 236.256 1280.79 Z" fill="#000000" fill-rule="nonzero" fill-opacity="1" /><path clip-path="url(#clip160)" d="M126.164 1255.25 L155.84 1255.25 L155.84 1259.19 L126.164 1259.19 L126.164 1255.25 Z" fill="#000000" fill-rule="nonzero" fill-opacity="1" /><path clip-path="url(#clip160)" d="M166.743 1268.15 L174.381 1268.15 L174.381 1241.78 L166.071 1243.45 L166.071 1239.19 L174.335 1237.52 L179.011 1237.52 L179.011 1268.15 L186.65 1268.15 L186.65 1272.08 L166.743 1272.08 L166.743 1268.15 Z" fill="#000000" fill-rule="nonzero" fill-opacity="1" /><path clip-path="url(#clip160)" d="M206.094 1240.6 Q202.483 1240.6 200.654 1244.17 Q198.849 1247.71 198.849 1254.84 Q198.849 1261.94 200.654 1265.51 Q202.483 1269.05 206.094 1269.05 Q209.729 1269.05 211.534 1265.51 Q213.363 1261.94 213.363 1254.84 Q213.363 1247.71 211.534 1244.17 Q209.729 1240.6 206.094 1240.6 M206.094 1236.9 Q211.904 1236.9 214.96 1241.5 Q218.039 1246.09 218.039 1254.84 Q218.039 1263.56 214.96 1268.17 Q211.904 1272.75 206.094 1272.75 Q200.284 1272.75 197.205 1268.17 Q194.15 1263.56 194.15 1254.84 Q194.15 1246.09 197.205 1241.5 Q200.284 1236.9 206.094 1236.9 Z" fill="#000000" fill-rule="nonzero" fill-opacity="1" /><path clip-path="url(#clip160)" d="M236.256 1240.6 Q232.645 1240.6 230.816 1244.17 Q229.011 1247.71 229.011 1254.84 Q229.011 1261.94 230.816 1265.51 Q232.645 1269.05 236.256 1269.05 Q239.89 1269.05 241.696 1265.51 Q243.525 1261.94 243.525 1254.84 Q243.525 1247.71 241.696 1244.17 Q239.89 1240.6 236.256 1240.6 M236.256 1236.9 Q242.066 1236.9 245.122 1241.5 Q248.201 1246.09 248.201 1254.84 Q248.201 1263.56 245.122 1268.17 Q242.066 1272.75 236.256 1272.75 Q230.446 1272.75 227.367 1268.17 Q224.312 1263.56 224.312 1254.84 Q224.312 1246.09 227.367 1241.5 Q230.446 1236.9 236.256 1236.9 Z" fill="#000000" fill-rule="nonzero" fill-opacity="1" /><path clip-path="url(#clip160)" d="M156.326 1211.36 L186.002 1211.36 L186.002 1215.3 L156.326 1215.3 L156.326 1211.36 Z" fill="#000000" fill-rule="nonzero" fill-opacity="1" /><path clip-path="url(#clip160)" d="M196.141 1193.63 L214.497 1193.63 L214.497 1197.57 L200.423 1197.57 L200.423 1206.04 Q201.442 1205.69 202.46 1205.53 Q203.479 1205.35 204.497 1205.35 Q210.284 1205.35 213.664 1208.52 Q217.043 1211.69 217.043 1217.1 Q217.043 1222.68 213.571 1225.79 Q210.099 1228.86 203.779 1228.86 Q201.604 1228.86 199.335 1228.49 Q197.09 1228.12 194.682 1227.38 L194.682 1222.68 Q196.766 1223.82 198.988 1224.37 Q201.21 1224.93 203.687 1224.93 Q207.691 1224.93 210.029 1222.82 Q212.367 1220.72 212.367 1217.1 Q212.367 1213.49 210.029 1211.39 Q207.691 1209.28 203.687 1209.28 Q201.812 1209.28 199.937 1209.7 Q198.085 1210.11 196.141 1210.99 L196.141 1193.63 Z" fill="#000000" fill-rule="nonzero" fill-opacity="1" /><path clip-path="url(#clip160)" d="M236.256 1196.71 Q232.645 1196.71 230.816 1200.28 Q229.011 1203.82 229.011 1210.95 Q229.011 1218.05 230.816 1221.62 Q232.645 1225.16 236.256 1225.16 Q239.89 1225.16 241.696 1221.62 Q243.525 1218.05 243.525 1210.95 Q243.525 1203.82 241.696 1200.28 Q239.89 1196.71 236.256 1196.71 M236.256 1193.01 Q242.066 1193.01 245.122 1197.61 Q248.201 1202.2 248.201 1210.95 Q248.201 1219.67 245.122 1224.28 Q242.066 1228.86 236.256 1228.86 Q230.446 1228.86 227.367 1224.28 Q224.312 1219.67 224.312 1210.95 Q224.312 1202.2 227.367 1197.61 Q230.446 1193.01 236.256 1193.01 Z" fill="#000000" fill-rule="nonzero" fill-opacity="1" /><path clip-path="url(#clip160)" d="M236.256 1152.82 Q232.645 1152.82 230.816 1156.39 Q229.011 1159.93 229.011 1167.06 Q229.011 1174.16 230.816 1177.73 Q232.645 1181.27 236.256 1181.27 Q239.89 1181.27 241.696 1177.73 Q243.525 1174.16 243.525 1167.06 Q243.525 1159.93 241.696 1156.39 Q239.89 1152.82 236.256 1152.82 M236.256 1149.12 Q242.066 1149.12 245.122 1153.72 Q248.201 1158.31 248.201 1167.06 Q248.201 1175.78 245.122 1180.39 Q242.066 1184.97 236.256 1184.97 Q230.446 1184.97 227.367 1180.39 Q224.312 1175.78 224.312 1167.06 Q224.312 1158.31 227.367 1153.72 Q230.446 1149.12 236.256 1149.12 Z" fill="#000000" fill-rule="nonzero" fill-opacity="1" /><path clip-path="url(#clip160)" d="M40.8717 1427.87 L58.7275 1427.87 L58.7275 1419.78 Q58.7275 1415.3 56.404 1412.84 Q54.0805 1410.39 49.7837 1410.39 Q45.5187 1410.39 43.1952 1412.84 Q40.8717 1415.3 40.8717 1419.78 L40.8717 1427.87 M35.5882 1434.3 L35.5882 1419.78 Q35.5882 1411.79 39.2166 1407.72 Q42.8132 1403.61 49.7837 1403.61 Q56.8178 1403.61 60.4144 1407.72 Q64.011 1411.79 64.011 1419.78 L64.011 1427.87 L83.1082 1427.87 L83.1082 1434.3 L35.5882 1434.3 Z" fill="#000000" fill-rule="nonzero" fill-opacity="1" /><path clip-path="url(#clip160)" d="M61.5921 1365.61 L83.1082 1365.61 L83.1082 1371.47 L61.783 1371.47 Q56.7223 1371.47 54.2078 1373.44 Q51.6934 1375.41 51.6934 1379.36 Q51.6934 1384.1 54.7171 1386.84 Q57.7408 1389.58 62.9607 1389.58 L83.1082 1389.58 L83.1082 1395.47 L33.583 1395.47 L33.583 1389.58 L52.9984 1389.58 Q49.7837 1387.48 48.1923 1384.64 Q46.6008 1381.78 46.6008 1378.06 Q46.6008 1371.91 50.4203 1368.76 Q54.2078 1365.61 61.5921 1365.61 Z" fill="#000000" fill-rule="nonzero" fill-opacity="1" /><path clip-path="url(#clip160)" d="M65.1887 1337.73 Q65.1887 1344.83 66.8119 1347.56 Q68.4352 1350.3 72.3501 1350.3 Q75.4693 1350.3 77.3154 1348.26 Q79.1296 1346.2 79.1296 1342.66 Q79.1296 1337.79 75.6921 1334.87 Q72.2228 1331.9 66.4937 1331.9 L65.1887 1331.9 L65.1887 1337.73 M62.7697 1326.05 L83.1082 1326.05 L83.1082 1331.9 L77.6973 1331.9 Q80.9438 1333.91 82.5034 1336.9 Q84.0312 1339.89 84.0312 1344.22 Q84.0312 1349.7 80.9756 1352.94 Q77.8883 1356.16 72.7321 1356.16 Q66.7165 1356.16 63.6609 1352.15 Q60.6054 1348.11 60.6054 1340.12 L60.6054 1331.9 L60.0325 1331.9 Q55.9902 1331.9 53.7941 1334.58 Q51.5661 1337.22 51.5661 1342.03 Q51.5661 1345.08 52.2981 1347.98 Q53.0302 1350.87 54.4943 1353.55 L49.0835 1353.55 Q47.8421 1350.33 47.2374 1347.31 Q46.6008 1344.29 46.6008 1341.42 Q46.6008 1333.69 50.6112 1329.87 Q54.6216 1326.05 62.7697 1326.05 Z" fill="#000000" fill-rule="nonzero" fill-opacity="1" /><path clip-path="url(#clip160)" d="M48.5105 1291.26 L54.0487 1291.26 Q52.7756 1293.74 52.139 1296.42 Q51.5024 1299.09 51.5024 1301.95 Q51.5024 1306.31 52.8392 1308.51 Q54.176 1310.68 56.8496 1310.68 Q58.8866 1310.68 60.0643 1309.12 Q61.2101 1307.56 62.2605 1302.85 L62.7061 1300.84 Q64.0429 1294.6 66.4937 1291.99 Q68.9126 1289.35 73.2731 1289.35 Q78.2384 1289.35 81.1348 1293.3 Q84.0312 1297.21 84.0312 1304.09 Q84.0312 1306.95 83.4583 1310.07 Q82.9172 1313.16 81.8032 1316.6 L75.7558 1316.6 Q77.4427 1313.35 78.302 1310.2 Q79.1296 1307.05 79.1296 1303.96 Q79.1296 1299.82 77.7291 1297.59 Q76.2969 1295.37 73.7187 1295.37 Q71.3316 1295.37 70.0585 1296.99 Q68.7853 1298.58 67.6077 1304.02 L67.1302 1306.06 Q65.9844 1311.5 63.6291 1313.92 Q61.242 1316.34 57.1042 1316.34 Q52.0753 1316.34 49.3381 1312.78 Q46.6008 1309.21 46.6008 1302.65 Q46.6008 1299.41 47.0783 1296.54 Q47.5557 1293.68 48.5105 1291.26 Z" fill="#000000" fill-rule="nonzero" fill-opacity="1" /><path clip-path="url(#clip160)" d="M63.8201 1249.53 L66.6846 1249.53 L66.6846 1276.46 Q72.7321 1276.08 75.9149 1272.83 Q79.0659 1269.55 79.0659 1263.73 Q79.0659 1260.35 78.2384 1257.2 Q77.4109 1254.02 75.7558 1250.9 L81.2939 1250.9 Q82.6307 1254.05 83.331 1257.36 Q84.0312 1260.67 84.0312 1264.08 Q84.0312 1272.61 79.0659 1277.61 Q74.1007 1282.57 65.6343 1282.57 Q56.8814 1282.57 51.7571 1277.86 Q46.6008 1273.12 46.6008 1265.1 Q46.6008 1257.9 51.2478 1253.73 Q55.8629 1249.53 63.8201 1249.53 M62.1013 1255.39 Q57.2952 1255.45 54.4306 1258.09 Q51.5661 1260.7 51.5661 1265.03 Q51.5661 1269.93 54.3352 1272.89 Q57.1042 1275.82 62.1332 1276.27 L62.1013 1255.39 Z" fill="#000000" fill-rule="nonzero" fill-opacity="1" /><path clip-path="url(#clip160)" d="M33.6466 1205.13 Q40.9672 1209.4 48.1286 1211.47 Q55.29 1213.53 62.6424 1213.53 Q69.9948 1213.53 77.2199 1211.47 Q84.4131 1209.37 91.7019 1205.13 L91.7019 1210.22 Q84.2222 1215 76.9971 1217.39 Q69.772 1219.74 62.6424 1219.74 Q55.5446 1219.74 48.3514 1217.39 Q41.1582 1215.03 33.6466 1210.22 L33.6466 1205.13 Z" fill="#000000" fill-rule="nonzero" fill-opacity="1" /><path clip-path="url(#clip160)" d="M52.8711 1170.31 L33.583 1170.31 L33.583 1164.46 L83.1082 1164.46 L83.1082 1170.31 L77.761 1170.31 Q80.9438 1172.16 82.5034 1174.99 Q84.0312 1177.79 84.0312 1181.74 Q84.0312 1188.2 78.875 1192.27 Q73.7187 1196.32 65.316 1196.32 Q56.9133 1196.32 51.7571 1192.27 Q46.6008 1188.2 46.6008 1181.74 Q46.6008 1177.79 48.1604 1174.99 Q49.6882 1172.16 52.8711 1170.31 M65.316 1190.27 Q71.7772 1190.27 75.4693 1187.63 Q79.1296 1184.95 79.1296 1180.31 Q79.1296 1175.66 75.4693 1172.99 Q71.7772 1170.31 65.316 1170.31 Q58.8548 1170.31 55.1945 1172.99 Q51.5024 1175.66 51.5024 1180.31 Q51.5024 1184.95 55.1945 1187.63 Q58.8548 1190.27 65.316 1190.27 Z" fill="#000000" fill-rule="nonzero" fill-opacity="1" /><path clip-path="url(#clip160)" d="M63.8201 1121.9 L66.6846 1121.9 L66.6846 1148.83 Q72.7321 1148.45 75.9149 1145.2 Q79.0659 1141.92 79.0659 1136.1 Q79.0659 1132.72 78.2384 1129.57 Q77.4109 1126.39 75.7558 1123.27 L81.2939 1123.27 Q82.6307 1126.42 83.331 1129.73 Q84.0312 1133.04 84.0312 1136.45 Q84.0312 1144.98 79.0659 1149.97 Q74.1007 1154.94 65.6343 1154.94 Q56.8814 1154.94 51.7571 1150.23 Q46.6008 1145.49 46.6008 1137.46 Q46.6008 1130.27 51.2478 1126.1 Q55.8629 1121.9 63.8201 1121.9 M62.1013 1127.76 Q57.2952 1127.82 54.4306 1130.46 Q51.5661 1133.07 51.5661 1137.4 Q51.5661 1142.3 54.3352 1145.26 Q57.1042 1148.19 62.1332 1148.64 L62.1013 1127.76 Z" fill="#000000" fill-rule="nonzero" fill-opacity="1" /><path clip-path="url(#clip160)" d="M64.8704 1088.83 Q58.5047 1088.83 55.0036 1091.47 Q51.5024 1094.08 51.5024 1098.82 Q51.5024 1103.54 55.0036 1106.18 Q58.5047 1108.79 64.8704 1108.79 Q71.2043 1108.79 74.7054 1106.18 Q78.2066 1103.54 78.2066 1098.82 Q78.2066 1094.08 74.7054 1091.47 Q71.2043 1088.83 64.8704 1088.83 M78.684 1082.97 Q87.787 1082.97 92.2111 1087.02 Q96.6671 1091.06 96.6671 1099.4 Q96.6671 1102.48 96.1897 1105.22 Q95.7441 1107.96 94.7892 1110.54 L89.0919 1110.54 Q90.4924 1107.96 91.1608 1105.44 Q91.8292 1102.93 91.8292 1100.32 Q91.8292 1094.56 88.8055 1091.7 Q85.8136 1088.83 79.7343 1088.83 L76.8379 1088.83 Q79.989 1090.64 81.5486 1093.48 Q83.1082 1096.31 83.1082 1100.26 Q83.1082 1106.81 78.1111 1110.82 Q73.114 1114.83 64.8704 1114.83 Q56.595 1114.83 51.5979 1110.82 Q46.6008 1106.81 46.6008 1100.26 Q46.6008 1096.31 48.1604 1093.48 Q49.72 1090.64 52.8711 1088.83 L47.4602 1088.83 L47.4602 1082.97 L78.684 1082.97 Z" fill="#000000" fill-rule="nonzero" fill-opacity="1" /><path clip-path="url(#clip160)" d="M33.6466 1071.83 L33.6466 1066.74 Q41.1582 1061.97 48.3514 1059.61 Q55.5446 1057.22 62.6424 1057.22 Q69.772 1057.22 76.9971 1059.61 Q84.2222 1061.97 91.7019 1066.74 L91.7019 1071.83 Q84.4131 1067.6 77.2199 1065.53 Q69.9948 1063.43 62.6424 1063.43 Q55.29 1063.43 48.1286 1065.53 Q40.9672 1067.6 33.6466 1071.83 Z" fill="#000000" fill-rule="nonzero" fill-opacity="1" /><polyline clip-path="url(#clip165)" style="stroke:#009af9; stroke-linecap:round; stroke-linejoin:round; stroke-width:4; stroke-opacity:1; fill:none" points="322.163,1167.55 478.885,1168.77 591.905,1171.17 680.814,1175.16 756.161,1181.28 807.397,1187.57 857.126,1195.64 1024.4,1229.51 1202.21,1259.99 1369.48,1293.86 1407.16,1300.53 1444.83,1306.11 1515.66,1313.72 1597.03,1318.89 1696.49,1322.15 1827.59,1323.97 "/>
</svg>
