<?xml version="1.0" encoding="utf-8"?>
<svg xmlns="http://www.w3.org/2000/svg" xmlns:xlink="http://www.w3.org/1999/xlink" width="672" height="480" viewBox="0 0 2688 1920">
<defs>
  <clipPath id="clip570">
    <rect x="0" y="0" width="2688" height="1920"/>
  </clipPath>
</defs>
<path clip-path="url(#clip570)" d="M0 1920 L2688 1920 L2688 0 L0 0  Z" fill="#ffffff" fill-rule="evenodd" fill-opacity="1"/>
<defs>
  <clipPath id="clip571">
    <rect x="537" y="0" width="1883" height="1883"/>
  </clipPath>
</defs>
<path clip-path="url(#clip570)" d="M286.761 884.751 L2640.76 884.751 L2640.76 127.792 L286.761 127.792  Z" fill="#ffffff" fill-rule="evenodd" fill-opacity="1"/>
<defs>
  <clipPath id="clip572">
    <rect x="286" y="127" width="2355" height="758"/>
  </clipPath>
</defs>
<path clip-path="url(#clip570)" d="Mnan nan Lnan nan Lnan nan Lnan nan Lnan nan Lnan nan Lnan nan Lnan nan Lnan nan Lnan nan Lnan nan Lnan nan Z" fill="#000000" fill-rule="nonzero" fill-opacity="1" /><path clip-path="url(#clip570)" d="Mnan nan Qnan nan nan nan Qnan nan nan nan Qnan nan nan nan Qnan nan nan nan Qnan nan nan nan Qnan nan nan nan Qnan nan nan nan Qnan nan nan nan Mnan nan Qnan nan nan nan Qnan nan nan nan Qnan nan nan nan Qnan nan nan nan Qnan nan nan nan Qnan nan nan nan Qnan nan nan nan Qnan nan nan nan Z" fill="#000000" fill-rule="nonzero" fill-opacity="1" /><path clip-path="url(#clip570)" d="Mnan nan Lnan nan Lnan nan Lnan nan Lnan nan Z" fill="#000000" fill-rule="nonzero" fill-opacity="1" /><path clip-path="url(#clip570)" d="Mnan nan Lnan nan Lnan nan Lnan nan Lnan nan Z" fill="#000000" fill-rule="nonzero" fill-opacity="1" /><path clip-path="url(#clip570)" d="Mnan nan Lnan nan Lnan nan Lnan nan Qnan nan nan nan Qnan nan nan nan Qnan nan nan nan Qnan nan nan nan Lnan nan Lnan nan Lnan nan Lnan nan Lnan nan Qnan nan nan nan Qnan nan nan nan Qnan nan nan nan Qnan nan nan nan Z" fill="#000000" fill-rule="nonzero" fill-opacity="1" /><path clip-path="url(#clip570)" d="Mnan nan Lnan nan Lnan nan Qnan nan nan nan Qnan nan nan nan Lnan nan Lnan nan Lnan nan Lnan nan Lnan nan Lnan nan Lnan nan Lnan nan Lnan nan Lnan nan Lnan nan Qnan nan nan nan Qnan nan nan nan Lnan nan Z" fill="#000000" fill-rule="nonzero" fill-opacity="1" /><path clip-path="url(#clip570)" d="Mnan nan Lnan nan Lnan nan Lnan nan Lnan nan Lnan nan Lnan nan Lnan nan Lnan nan Lnan nan Lnan nan Lnan nan Z" fill="#000000" fill-rule="nonzero" fill-opacity="1" /><path clip-path="url(#clip570)" d="Mnan nan Qnan nan nan nan Qnan nan nan nan Qnan nan nan nan Qnan nan nan nan Qnan nan nan nan Qnan nan nan nan Qnan nan nan nan Qnan nan nan nan Mnan nan Qnan nan nan nan Qnan nan nan nan Qnan nan nan nan Qnan nan nan nan Qnan nan nan nan Qnan nan nan nan Qnan nan nan nan Qnan nan nan nan Z" fill="#000000" fill-rule="nonzero" fill-opacity="1" /><path clip-path="url(#clip570)" d="Mnan nan Lnan nan Lnan nan Lnan nan Lnan nan Lnan nan Lnan nan Lnan nan Lnan nan Lnan nan Lnan nan Z" fill="#000000" fill-rule="nonzero" fill-opacity="1" /><path clip-path="url(#clip570)" d="Mnan nan Qnan nan nan nan Qnan nan nan nan Qnan nan nan nan Qnan nan nan nan Qnan nan nan nan Qnan nan nan nan Lnan nan Lnan nan Mnan nan Lnan nan Lnan nan Lnan nan Qnan nan nan nan Qnan nan nan nan Qnan nan nan nan Qnan nan nan nan Qnan nan nan nan Qnan nan nan nan Lnan nan Lnan nan Qnan nan nan nan Qnan nan nan nan Qnan nan nan nan Qnan nan nan nan Lnan nan Qnan nan nan nan Qnan nan nan nan Qnan nan nan nan Qnan nan nan nan Z" fill="#000000" fill-rule="nonzero" fill-opacity="1" /><path clip-path="url(#clip570)" d="Mnan nan Lnan nan Lnan nan Lnan nan Lnan nan Lnan nan Lnan nan Lnan nan Lnan nan Lnan nan Lnan nan Z" fill="#000000" fill-rule="nonzero" fill-opacity="1" /><path clip-path="url(#clip570)" d="M14.1184 686.103 L14.1184 676.522 L46.4562 664.396 L14.1184 652.205 L14.1184 642.625 L61.6384 642.625 L61.6384 648.895 L19.9112 648.895 L52.5037 661.149 L52.5037 667.61 L19.9112 679.864 L61.6384 679.864 L61.6384 686.103 L14.1184 686.103 Z" fill="#000000" fill-rule="nonzero" fill-opacity="1" /><path clip-path="url(#clip570)" d="M43.719 613.916 Q43.719 621.013 45.3422 623.751 Q46.9655 626.488 50.8804 626.488 Q53.9996 626.488 55.8457 624.451 Q57.6599 622.382 57.6599 618.849 Q57.6599 613.979 54.2224 611.051 Q50.7531 608.091 45.0239 608.091 L43.719 608.091 L43.719 613.916 M41.3 602.234 L61.6384 602.234 L61.6384 608.091 L56.2276 608.091 Q59.4741 610.096 61.0337 613.088 Q62.5615 616.08 62.5615 620.409 Q62.5615 625.883 59.5059 629.13 Q56.4186 632.344 51.2623 632.344 Q45.2467 632.344 42.1912 628.334 Q39.1357 624.292 39.1357 616.303 L39.1357 608.091 L38.5628 608.091 Q34.5205 608.091 32.3244 610.765 Q30.0964 613.406 30.0964 618.212 Q30.0964 621.268 30.8284 624.164 Q31.5605 627.061 33.0246 629.734 L27.6137 629.734 Q26.3724 626.52 25.7677 623.496 Q25.1311 620.472 25.1311 617.608 Q25.1311 609.873 29.1415 606.054 Q33.1519 602.234 41.3 602.234 Z" fill="#000000" fill-rule="nonzero" fill-opacity="1" /><path clip-path="url(#clip570)" d="M43.4007 566.714 Q37.035 566.714 33.5338 569.356 Q30.0327 571.966 30.0327 576.708 Q30.0327 581.419 33.5338 584.06 Q37.035 586.67 43.4007 586.67 Q49.7346 586.67 53.2357 584.06 Q56.7368 581.419 56.7368 576.708 Q56.7368 571.966 53.2357 569.356 Q49.7346 566.714 43.4007 566.714 M57.2143 560.857 Q66.3172 560.857 70.7414 564.9 Q75.1974 568.942 75.1974 577.281 Q75.1974 580.368 74.72 583.106 Q74.2744 585.843 73.3195 588.421 L67.6222 588.421 Q69.0227 585.843 69.6911 583.328 Q70.3595 580.814 70.3595 578.204 Q70.3595 572.443 67.3358 569.578 Q64.3439 566.714 58.2646 566.714 L55.3682 566.714 Q58.5192 568.528 60.0788 571.361 Q61.6384 574.194 61.6384 578.14 Q61.6384 584.697 56.6414 588.707 Q51.6443 592.718 43.4007 592.718 Q35.1253 592.718 30.1282 588.707 Q25.1311 584.697 25.1311 578.14 Q25.1311 574.194 26.6907 571.361 Q28.2503 568.528 31.4013 566.714 L25.9905 566.714 L25.9905 560.857 L57.2143 560.857 Z" fill="#000000" fill-rule="nonzero" fill-opacity="1" /><path clip-path="url(#clip570)" d="M40.1224 519.162 L61.6384 519.162 L61.6384 525.018 L40.3133 525.018 Q35.2526 525.018 32.7381 526.992 Q30.2237 528.965 30.2237 532.912 Q30.2237 537.654 33.2474 540.392 Q36.2711 543.129 41.491 543.129 L61.6384 543.129 L61.6384 549.017 L25.9905 549.017 L25.9905 543.129 L31.5287 543.129 Q28.314 541.028 26.7225 538.195 Q25.1311 535.331 25.1311 531.607 Q25.1311 525.464 28.9505 522.313 Q32.7381 519.162 40.1224 519.162 Z" fill="#000000" fill-rule="nonzero" fill-opacity="1" /><path clip-path="url(#clip570)" d="M25.9905 507.481 L25.9905 501.624 L61.6384 501.624 L61.6384 507.481 L25.9905 507.481 M12.1132 507.481 L12.1132 501.624 L19.5293 501.624 L19.5293 507.481 L12.1132 507.481 Z" fill="#000000" fill-rule="nonzero" fill-opacity="1" /><path clip-path="url(#clip570)" d="M15.869 483.578 L25.9905 483.578 L25.9905 471.515 L30.542 471.515 L30.542 483.578 L49.8937 483.578 Q54.2542 483.578 55.4955 482.4 Q56.7368 481.191 56.7368 477.53 L56.7368 471.515 L61.6384 471.515 L61.6384 477.53 Q61.6384 484.31 59.124 486.888 Q56.5777 489.466 49.8937 489.466 L30.542 489.466 L30.542 493.763 L25.9905 493.763 L25.9905 489.466 L15.869 489.466 L15.869 483.578 Z" fill="#000000" fill-rule="nonzero" fill-opacity="1" /><path clip-path="url(#clip570)" d="M47.5702 464.417 L25.9905 464.417 L25.9905 458.56 L47.3474 458.56 Q52.4082 458.56 54.9545 456.587 Q57.4689 454.614 57.4689 450.667 Q57.4689 445.925 54.4452 443.187 Q51.4215 440.418 46.2016 440.418 L25.9905 440.418 L25.9905 434.562 L61.6384 434.562 L61.6384 440.418 L56.1639 440.418 Q59.4104 442.551 61.0019 445.383 Q62.5615 448.184 62.5615 451.908 Q62.5615 458.051 58.742 461.234 Q54.9226 464.417 47.5702 464.417 M25.1311 449.68 L25.1311 449.68 Z" fill="#000000" fill-rule="nonzero" fill-opacity="1" /><path clip-path="url(#clip570)" d="M31.4013 399.041 L12.1132 399.041 L12.1132 393.185 L61.6384 393.185 L61.6384 399.041 L56.2912 399.041 Q59.4741 400.887 61.0337 403.72 Q62.5615 406.521 62.5615 410.468 Q62.5615 416.929 57.4052 421.003 Q52.249 425.045 43.8463 425.045 Q35.4436 425.045 30.2873 421.003 Q25.1311 416.929 25.1311 410.468 Q25.1311 406.521 26.6907 403.72 Q28.2185 400.887 31.4013 399.041 M43.8463 418.998 Q50.3075 418.998 53.9996 416.356 Q57.6599 413.682 57.6599 409.035 Q57.6599 404.388 53.9996 401.715 Q50.3075 399.041 43.8463 399.041 Q37.3851 399.041 33.7248 401.715 Q30.0327 404.388 30.0327 409.035 Q30.0327 413.682 33.7248 416.356 Q37.3851 418.998 43.8463 418.998 Z" fill="#000000" fill-rule="nonzero" fill-opacity="1" /><path clip-path="url(#clip570)" d="M42.3504 350.63 L45.2149 350.63 L45.2149 377.557 Q51.2623 377.175 54.4452 373.928 Q57.5962 370.65 57.5962 364.825 Q57.5962 361.452 56.7687 358.301 Q55.9411 355.118 54.2861 351.999 L59.8242 351.999 Q61.161 355.15 61.8612 358.46 Q62.5615 361.77 62.5615 365.176 Q62.5615 373.706 57.5962 378.703 Q52.631 383.668 44.1646 383.668 Q35.4117 383.668 30.2873 378.957 Q25.1311 374.215 25.1311 366.194 Q25.1311 359.001 29.7781 354.831 Q34.3932 350.63 42.3504 350.63 M40.6316 356.486 Q35.8255 356.55 32.9609 359.192 Q30.0964 361.802 30.0964 366.13 Q30.0964 371.032 32.8654 373.992 Q35.6345 376.92 40.6634 377.366 L40.6316 356.486 Z" fill="#000000" fill-rule="nonzero" fill-opacity="1" /><path clip-path="url(#clip570)" d="M1183.19 18.8205 L1183.19 41.5461 L1193.48 41.5461 Q1199.19 41.5461 1202.31 38.5889 Q1205.43 35.6318 1205.43 30.163 Q1205.43 24.7348 1202.31 21.7777 Q1199.19 18.8205 1193.48 18.8205 L1183.19 18.8205 M1175.01 12.096 L1193.48 12.096 Q1203.65 12.096 1208.83 16.714 Q1214.06 21.2916 1214.06 30.163 Q1214.06 39.1155 1208.83 43.6931 Q1203.65 48.2706 1193.48 48.2706 L1183.19 48.2706 L1183.19 72.576 L1175.01 72.576 L1175.01 12.096 Z" fill="#000000" fill-rule="nonzero" fill-opacity="1" /><path clip-path="url(#clip570)" d="M1239.34 32.4315 Q1233.34 32.4315 1229.86 37.1306 Q1226.38 41.7891 1226.38 49.9314 Q1226.38 58.0738 1229.82 62.7728 Q1233.3 67.4314 1239.34 67.4314 Q1245.29 67.4314 1248.78 62.7323 Q1252.26 58.0333 1252.26 49.9314 Q1252.26 41.8701 1248.78 37.1711 Q1245.29 32.4315 1239.34 32.4315 M1239.34 26.1121 Q1249.06 26.1121 1254.61 32.4315 Q1260.16 38.7509 1260.16 49.9314 Q1260.16 61.0714 1254.61 67.4314 Q1249.06 73.7508 1239.34 73.7508 Q1229.58 73.7508 1224.03 67.4314 Q1218.52 61.0714 1218.52 49.9314 Q1218.52 38.7509 1224.03 32.4315 Q1229.58 26.1121 1239.34 26.1121 Z" fill="#000000" fill-rule="nonzero" fill-opacity="1" /><path clip-path="url(#clip570)" d="M1272.52 9.54393 L1279.97 9.54393 L1279.97 72.576 L1272.52 72.576 L1272.52 9.54393 Z" fill="#000000" fill-rule="nonzero" fill-opacity="1" /><path clip-path="url(#clip570)" d="M1334.37 48.0275 L1334.37 51.6733 L1300.1 51.6733 Q1300.59 59.3701 1304.72 63.421 Q1308.89 67.4314 1316.31 67.4314 Q1320.6 67.4314 1324.61 66.3781 Q1328.66 65.3249 1332.63 63.2184 L1332.63 70.267 Q1328.62 71.9684 1324.41 72.8596 Q1320.19 73.7508 1315.86 73.7508 Q1305 73.7508 1298.64 67.4314 Q1292.32 61.1119 1292.32 50.3365 Q1292.32 39.1965 1298.32 32.6746 Q1304.36 26.1121 1314.56 26.1121 Q1323.72 26.1121 1329.03 32.0264 Q1334.37 37.9003 1334.37 48.0275 M1326.92 45.84 Q1326.84 39.7232 1323.48 36.0774 Q1320.15 32.4315 1314.64 32.4315 Q1308.41 32.4315 1304.64 35.9558 Q1300.91 39.4801 1300.34 45.8805 L1326.92 45.84 Z" fill="#000000" fill-rule="nonzero" fill-opacity="1" /><path clip-path="url(#clip570)" d="M1342.84 46.5287 L1364.67 46.5287 L1364.67 53.1722 L1342.84 53.1722 L1342.84 46.5287 Z" fill="#000000" fill-rule="nonzero" fill-opacity="1" /><path clip-path="url(#clip570)" d="M1373.3 27.2059 L1408.71 27.2059 L1408.71 34.0114 L1380.67 66.6212 L1408.71 66.6212 L1408.71 72.576 L1372.29 72.576 L1372.29 65.7705 L1400.32 33.1607 L1373.3 33.1607 L1373.3 27.2059 Z" fill="#000000" fill-rule="nonzero" fill-opacity="1" /><path clip-path="url(#clip570)" d="M1458.9 48.0275 L1458.9 51.6733 L1424.63 51.6733 Q1425.11 59.3701 1429.24 63.421 Q1433.42 67.4314 1440.83 67.4314 Q1445.12 67.4314 1449.13 66.3781 Q1453.19 65.3249 1457.16 63.2184 L1457.16 70.267 Q1453.15 71.9684 1448.93 72.8596 Q1444.72 73.7508 1440.38 73.7508 Q1429.53 73.7508 1423.17 67.4314 Q1416.85 61.1119 1416.85 50.3365 Q1416.85 39.1965 1422.84 32.6746 Q1428.88 26.1121 1439.09 26.1121 Q1448.24 26.1121 1453.55 32.0264 Q1458.9 37.9003 1458.9 48.0275 M1451.44 45.84 Q1451.36 39.7232 1448 36.0774 Q1444.68 32.4315 1439.17 32.4315 Q1432.93 32.4315 1429.16 35.9558 Q1425.44 39.4801 1424.87 45.8805 L1451.44 45.84 Z" fill="#000000" fill-rule="nonzero" fill-opacity="1" /><path clip-path="url(#clip570)" d="M1497.42 34.1734 Q1496.17 33.4443 1494.67 33.1202 Q1493.21 32.7556 1491.43 32.7556 Q1485.11 32.7556 1481.7 36.8875 Q1478.34 40.9789 1478.34 48.6757 L1478.34 72.576 L1470.85 72.576 L1470.85 27.2059 L1478.34 27.2059 L1478.34 34.2544 Q1480.69 30.1225 1484.46 28.1376 Q1488.23 26.1121 1493.61 26.1121 Q1494.38 26.1121 1495.31 26.2337 Q1496.25 26.3147 1497.38 26.5172 L1497.42 34.1734 Z" fill="#000000" fill-rule="nonzero" fill-opacity="1" /><path clip-path="url(#clip570)" d="M1521 32.4315 Q1515 32.4315 1511.52 37.1306 Q1508.03 41.7891 1508.03 49.9314 Q1508.03 58.0738 1511.48 62.7728 Q1514.96 67.4314 1521 67.4314 Q1526.95 67.4314 1530.44 62.7323 Q1533.92 58.0333 1533.92 49.9314 Q1533.92 41.8701 1530.44 37.1711 Q1526.95 32.4315 1521 32.4315 M1521 26.1121 Q1530.72 26.1121 1536.27 32.4315 Q1541.82 38.7509 1541.82 49.9314 Q1541.82 61.0714 1536.27 67.4314 Q1530.72 73.7508 1521 73.7508 Q1511.23 73.7508 1505.69 67.4314 Q1500.18 61.0714 1500.18 49.9314 Q1500.18 38.7509 1505.69 32.4315 Q1511.23 26.1121 1521 26.1121 Z" fill="#000000" fill-rule="nonzero" fill-opacity="1" /><path clip-path="url(#clip570)" d="M1615.87 35.9153 Q1618.66 30.8922 1622.55 28.5022 Q1626.44 26.1121 1631.71 26.1121 Q1638.8 26.1121 1642.65 31.0947 Q1646.49 36.0368 1646.49 45.1919 L1646.49 72.576 L1639 72.576 L1639 45.4349 Q1639 38.913 1636.69 35.7533 Q1634.38 32.5936 1629.64 32.5936 Q1623.85 32.5936 1620.49 36.4419 Q1617.13 40.2903 1617.13 46.9338 L1617.13 72.576 L1609.63 72.576 L1609.63 45.4349 Q1609.63 38.8725 1607.32 35.7533 Q1605.01 32.5936 1600.19 32.5936 Q1594.48 32.5936 1591.12 36.4824 Q1587.76 40.3308 1587.76 46.9338 L1587.76 72.576 L1580.26 72.576 L1580.26 27.2059 L1587.76 27.2059 L1587.76 34.2544 Q1590.31 30.082 1593.87 28.0971 Q1597.44 26.1121 1602.34 26.1121 Q1607.28 26.1121 1610.73 28.6237 Q1614.21 31.1352 1615.87 35.9153 Z" fill="#000000" fill-rule="nonzero" fill-opacity="1" /><path clip-path="url(#clip570)" d="M1681.98 49.7694 Q1672.95 49.7694 1669.46 51.8354 Q1665.98 53.9013 1665.98 58.8839 Q1665.98 62.8538 1668.57 65.2034 Q1671.21 67.5124 1675.7 67.5124 Q1681.9 67.5124 1685.63 63.1374 Q1689.39 58.7219 1689.39 51.4303 L1689.39 49.7694 L1681.98 49.7694 M1696.85 46.6907 L1696.85 72.576 L1689.39 72.576 L1689.39 65.6895 Q1686.84 69.8214 1683.03 71.8063 Q1679.23 73.7508 1673.72 73.7508 Q1666.75 73.7508 1662.62 69.8619 Q1658.53 65.9325 1658.53 59.3701 Q1658.53 51.7138 1663.63 47.825 Q1668.77 43.9361 1678.94 43.9361 L1689.39 43.9361 L1689.39 43.2069 Q1689.39 38.0623 1685.99 35.2672 Q1682.63 32.4315 1676.51 32.4315 Q1672.62 32.4315 1668.94 33.3632 Q1665.25 34.295 1661.85 36.1584 L1661.85 29.2718 Q1665.94 27.692 1669.79 26.9223 Q1673.64 26.1121 1677.28 26.1121 Q1687.13 26.1121 1691.99 31.2163 Q1696.85 36.3204 1696.85 46.6907 Z" fill="#000000" fill-rule="nonzero" fill-opacity="1" /><path clip-path="url(#clip570)" d="M1719.41 65.7705 L1719.41 89.8329 L1711.92 89.8329 L1711.92 27.2059 L1719.41 27.2059 L1719.41 34.0924 Q1721.76 30.0415 1725.33 28.0971 Q1728.93 26.1121 1733.91 26.1121 Q1742.18 26.1121 1747.32 32.6746 Q1752.51 39.2371 1752.51 49.9314 Q1752.51 60.6258 1747.32 67.1883 Q1742.18 73.7508 1733.91 73.7508 Q1728.93 73.7508 1725.33 71.8063 Q1721.76 69.8214 1719.41 65.7705 M1744.77 49.9314 Q1744.77 41.7081 1741.37 37.0496 Q1738 32.3505 1732.09 32.3505 Q1726.18 32.3505 1722.77 37.0496 Q1719.41 41.7081 1719.41 49.9314 Q1719.41 58.1548 1722.77 62.8538 Q1726.18 67.5124 1732.09 67.5124 Q1738 67.5124 1741.37 62.8538 Q1744.77 58.1548 1744.77 49.9314 Z" fill="#000000" fill-rule="nonzero" fill-opacity="1" /><polyline clip-path="url(#clip572)" style="stroke:#009af9; stroke-linecap:round; stroke-linejoin:round; stroke-width:4; stroke-opacity:1; fill:none" points="310.301,-74807.3 1512.85,-403.754 3196.79,500.385 7948.34,817.332 26580.6,879.475 67936.2,884.227 193359,884.724 2.35428e+06,884.751 "/>
<line clip-path="url(#clip572)" x1="286.761" y1="884.751" x2="226.761" y2="824.751" style="stroke:#e26f46; stroke-width:3.84; stroke-opacity:0.5"/>
<line clip-path="url(#clip572)" x1="286.761" y1="884.751" x2="226.761" y2="944.751" style="stroke:#e26f46; stroke-width:3.84; stroke-opacity:0.5"/>
<line clip-path="url(#clip572)" x1="286.761" y1="884.751" x2="346.761" y2="944.751" style="stroke:#e26f46; stroke-width:3.84; stroke-opacity:0.5"/>
<line clip-path="url(#clip572)" x1="286.761" y1="884.751" x2="346.761" y2="824.751" style="stroke:#e26f46; stroke-width:3.84; stroke-opacity:0.5"/>
<path clip-path="url(#clip570)" d="M286.761 1771.15 L2640.76 1771.15 L2640.76 1014.19 L286.761 1014.19  Z" fill="#ffffff" fill-rule="evenodd" fill-opacity="1"/>
<defs>
  <clipPath id="clip573">
    <rect x="286" y="1014" width="2355" height="758"/>
  </clipPath>
</defs>
<path clip-path="url(#clip570)" d="M1183.57 1820.97 L1210.88 1820.97 L1210.88 1826.38 L1190 1826.38 L1190 1840.38 L1208.84 1840.38 L1208.84 1845.8 L1190 1845.8 L1190 1868.49 L1183.57 1868.49 L1183.57 1820.97 Z" fill="#000000" fill-rule="nonzero" fill-opacity="1" /><path clip-path="url(#clip570)" d="M1236.73 1838.32 Q1235.74 1837.74 1234.56 1837.49 Q1233.42 1837.2 1232.01 1837.2 Q1227.05 1837.2 1224.38 1840.45 Q1221.73 1843.66 1221.73 1849.71 L1221.73 1868.49 L1215.85 1868.49 L1215.85 1832.84 L1221.73 1832.84 L1221.73 1838.38 Q1223.58 1835.13 1226.54 1833.57 Q1229.5 1831.98 1233.73 1831.98 Q1234.34 1831.98 1235.07 1832.08 Q1235.8 1832.14 1236.69 1832.3 L1236.73 1838.32 Z" fill="#000000" fill-rule="nonzero" fill-opacity="1" /><path clip-path="url(#clip570)" d="M1271.93 1849.2 L1271.93 1852.07 L1245 1852.07 Q1245.38 1858.11 1248.63 1861.3 Q1251.91 1864.45 1257.73 1864.45 Q1261.11 1864.45 1264.26 1863.62 Q1267.44 1862.79 1270.56 1861.14 L1270.56 1866.68 Q1267.41 1868.01 1264.1 1868.71 Q1260.79 1869.41 1257.38 1869.41 Q1248.85 1869.41 1243.86 1864.45 Q1238.89 1859.48 1238.89 1851.02 Q1238.89 1842.26 1243.6 1837.14 Q1248.34 1831.98 1256.36 1831.98 Q1263.56 1831.98 1267.73 1836.63 Q1271.93 1841.24 1271.93 1849.2 M1266.07 1847.48 Q1266.01 1842.68 1263.37 1839.81 Q1260.76 1836.95 1256.43 1836.95 Q1251.53 1836.95 1248.57 1839.72 Q1245.64 1842.49 1245.19 1847.51 L1266.07 1847.48 Z" fill="#000000" fill-rule="nonzero" fill-opacity="1" /><path clip-path="url(#clip570)" d="M1285.04 1850.7 Q1285.04 1857.16 1287.68 1860.85 Q1290.36 1864.51 1295 1864.51 Q1299.65 1864.51 1302.32 1860.85 Q1305 1857.16 1305 1850.7 Q1305 1844.24 1302.32 1840.58 Q1299.65 1836.88 1295 1836.88 Q1290.36 1836.88 1287.68 1840.58 Q1285.04 1844.24 1285.04 1850.7 M1305 1863.14 Q1303.15 1866.33 1300.32 1867.88 Q1297.52 1869.41 1293.57 1869.41 Q1287.11 1869.41 1283.04 1864.26 Q1278.99 1859.1 1278.99 1850.7 Q1278.99 1842.29 1283.04 1837.14 Q1287.11 1831.98 1293.57 1831.98 Q1297.52 1831.98 1300.32 1833.54 Q1303.15 1835.07 1305 1838.25 L1305 1832.84 L1310.85 1832.84 L1310.85 1882.05 L1305 1882.05 L1305 1863.14 Z" fill="#000000" fill-rule="nonzero" fill-opacity="1" /><path clip-path="url(#clip570)" d="M1322.31 1854.42 L1322.31 1832.84 L1328.17 1832.84 L1328.17 1854.2 Q1328.17 1859.26 1330.14 1861.81 Q1332.12 1864.32 1336.06 1864.32 Q1340.8 1864.32 1343.54 1861.3 Q1346.31 1858.27 1346.31 1853.05 L1346.31 1832.84 L1352.17 1832.84 L1352.17 1868.49 L1346.31 1868.49 L1346.31 1863.02 Q1344.18 1866.26 1341.35 1867.85 Q1338.54 1869.41 1334.82 1869.41 Q1328.68 1869.41 1325.5 1865.59 Q1322.31 1861.77 1322.31 1854.42 M1337.05 1831.98 L1337.05 1831.98 Z" fill="#000000" fill-rule="nonzero" fill-opacity="1" /><path clip-path="url(#clip570)" d="M1394.72 1849.2 L1394.72 1852.07 L1367.8 1852.07 Q1368.18 1858.11 1371.42 1861.3 Q1374.7 1864.45 1380.53 1864.45 Q1383.9 1864.45 1387.05 1863.62 Q1390.23 1862.79 1393.35 1861.14 L1393.35 1866.68 Q1390.2 1868.01 1386.89 1868.71 Q1383.58 1869.41 1380.18 1869.41 Q1371.65 1869.41 1366.65 1864.45 Q1361.68 1859.48 1361.68 1851.02 Q1361.68 1842.26 1366.39 1837.14 Q1371.14 1831.98 1379.16 1831.98 Q1386.35 1831.98 1390.52 1836.63 Q1394.72 1841.24 1394.72 1849.2 M1388.87 1847.48 Q1388.8 1842.68 1386.16 1839.81 Q1383.55 1836.95 1379.22 1836.95 Q1374.32 1836.95 1371.36 1839.72 Q1368.43 1842.49 1367.99 1847.51 L1388.87 1847.48 Z" fill="#000000" fill-rule="nonzero" fill-opacity="1" /><path clip-path="url(#clip570)" d="M1433.97 1846.97 L1433.97 1868.49 L1428.11 1868.49 L1428.11 1847.16 Q1428.11 1842.1 1426.14 1839.59 Q1424.16 1837.07 1420.22 1837.07 Q1415.47 1837.07 1412.74 1840.1 Q1410 1843.12 1410 1848.34 L1410 1868.49 L1404.11 1868.49 L1404.11 1832.84 L1410 1832.84 L1410 1838.38 Q1412.1 1835.17 1414.93 1833.57 Q1417.8 1831.98 1421.52 1831.98 Q1427.66 1831.98 1430.82 1835.8 Q1433.97 1839.59 1433.97 1846.97 Z" fill="#000000" fill-rule="nonzero" fill-opacity="1" /><path clip-path="url(#clip570)" d="M1471.3 1834.21 L1471.3 1839.68 Q1468.82 1838.32 1466.3 1837.65 Q1463.82 1836.95 1461.28 1836.95 Q1455.58 1836.95 1452.43 1840.58 Q1449.28 1844.17 1449.28 1850.7 Q1449.28 1857.22 1452.43 1860.85 Q1455.58 1864.45 1461.28 1864.45 Q1463.82 1864.45 1466.3 1863.78 Q1468.82 1863.08 1471.3 1861.71 L1471.3 1867.12 Q1468.85 1868.27 1466.21 1868.84 Q1463.6 1869.41 1460.64 1869.41 Q1452.59 1869.41 1447.84 1864.35 Q1443.1 1859.29 1443.1 1850.7 Q1443.1 1841.98 1447.88 1836.98 Q1452.68 1831.98 1461.02 1831.98 Q1463.73 1831.98 1466.3 1832.56 Q1468.88 1833.1 1471.3 1834.21 Z" fill="#000000" fill-rule="nonzero" fill-opacity="1" /><path clip-path="url(#clip570)" d="M1496.32 1871.8 Q1493.84 1878.17 1491.48 1880.11 Q1489.13 1882.05 1485.18 1882.05 L1480.5 1882.05 L1480.5 1877.15 L1483.94 1877.15 Q1486.36 1877.15 1487.69 1876 Q1489.03 1874.86 1490.65 1870.59 L1491.7 1867.92 L1477.29 1832.84 L1483.49 1832.84 L1494.63 1860.72 L1505.77 1832.84 L1511.98 1832.84 L1496.32 1871.8 Z" fill="#000000" fill-rule="nonzero" fill-opacity="1" /><path clip-path="url(#clip570)" d="M1540.24 1818.96 L1553.74 1818.96 L1553.74 1823.52 L1546.1 1823.52 L1546.1 1872.53 L1553.74 1872.53 L1553.74 1877.08 L1540.24 1877.08 L1540.24 1818.96 Z" fill="#000000" fill-rule="nonzero" fill-opacity="1" /><path clip-path="url(#clip570)" d="M1586.87 1838.32 Q1585.88 1837.74 1584.71 1837.49 Q1583.56 1837.2 1582.16 1837.2 Q1577.2 1837.2 1574.52 1840.45 Q1571.88 1843.66 1571.88 1849.71 L1571.88 1868.49 L1565.99 1868.49 L1565.99 1832.84 L1571.88 1832.84 L1571.88 1838.38 Q1573.73 1835.13 1576.69 1833.57 Q1579.65 1831.98 1583.88 1831.98 Q1584.48 1831.98 1585.22 1832.08 Q1585.95 1832.14 1586.84 1832.3 L1586.87 1838.32 Z" fill="#000000" fill-rule="nonzero" fill-opacity="1" /><path clip-path="url(#clip570)" d="M1609.21 1850.57 Q1602.12 1850.57 1599.38 1852.19 Q1596.64 1853.82 1596.64 1857.73 Q1596.64 1860.85 1598.68 1862.7 Q1600.75 1864.51 1604.28 1864.51 Q1609.15 1864.51 1612.08 1861.07 Q1615.04 1857.6 1615.04 1851.88 L1615.04 1850.57 L1609.21 1850.57 M1620.9 1848.15 L1620.9 1868.49 L1615.04 1868.49 L1615.04 1863.08 Q1613.03 1866.33 1610.04 1867.88 Q1607.05 1869.41 1602.72 1869.41 Q1597.25 1869.41 1594 1866.36 Q1590.79 1863.27 1590.79 1858.11 Q1590.79 1852.1 1594.8 1849.04 Q1598.84 1845.99 1606.83 1845.99 L1615.04 1845.99 L1615.04 1845.41 Q1615.04 1841.37 1612.37 1839.18 Q1609.72 1836.95 1604.92 1836.95 Q1601.86 1836.95 1598.97 1837.68 Q1596.07 1838.41 1593.4 1839.88 L1593.4 1834.46 Q1596.61 1833.22 1599.63 1832.62 Q1602.66 1831.98 1605.52 1831.98 Q1613.26 1831.98 1617.08 1835.99 Q1620.9 1840 1620.9 1848.15 Z" fill="#000000" fill-rule="nonzero" fill-opacity="1" /><path clip-path="url(#clip570)" d="M1656.42 1838.25 L1656.42 1818.96 L1662.27 1818.96 L1662.27 1868.49 L1656.42 1868.49 L1656.42 1863.14 Q1654.57 1866.33 1651.74 1867.88 Q1648.94 1869.41 1644.99 1869.41 Q1638.53 1869.41 1634.45 1864.26 Q1630.41 1859.1 1630.41 1850.7 Q1630.41 1842.29 1634.45 1837.14 Q1638.53 1831.98 1644.99 1831.98 Q1648.94 1831.98 1651.74 1833.54 Q1654.57 1835.07 1656.42 1838.25 M1636.46 1850.7 Q1636.46 1857.16 1639.1 1860.85 Q1641.78 1864.51 1646.42 1864.51 Q1651.07 1864.51 1653.74 1860.85 Q1656.42 1857.16 1656.42 1850.7 Q1656.42 1844.24 1653.74 1840.58 Q1651.07 1836.88 1646.42 1836.88 Q1641.78 1836.88 1639.1 1840.58 Q1636.46 1844.24 1636.46 1850.7 Z" fill="#000000" fill-rule="nonzero" fill-opacity="1" /><path clip-path="url(#clip570)" d="M1684.74 1820.97 L1690.15 1820.97 L1673.6 1874.54 L1668.19 1874.54 L1684.74 1820.97 Z" fill="#000000" fill-rule="nonzero" fill-opacity="1" /><path clip-path="url(#clip570)" d="M1719.02 1833.89 L1719.02 1839.43 Q1716.54 1838.16 1713.87 1837.52 Q1711.19 1836.88 1708.33 1836.88 Q1703.97 1836.88 1701.77 1838.22 Q1699.61 1839.56 1699.61 1842.23 Q1699.61 1844.27 1701.17 1845.45 Q1702.73 1846.59 1707.44 1847.64 L1709.44 1848.09 Q1715.68 1849.42 1718.29 1851.88 Q1720.93 1854.29 1720.93 1858.65 Q1720.93 1863.62 1716.99 1866.52 Q1713.07 1869.41 1706.2 1869.41 Q1703.33 1869.41 1700.21 1868.84 Q1697.13 1868.3 1693.69 1867.18 L1693.69 1861.14 Q1696.93 1862.82 1700.09 1863.68 Q1703.24 1864.51 1706.32 1864.51 Q1710.46 1864.51 1712.69 1863.11 Q1714.92 1861.68 1714.92 1859.1 Q1714.92 1856.71 1713.29 1855.44 Q1711.7 1854.17 1706.26 1852.99 L1704.22 1852.51 Q1698.78 1851.37 1696.36 1849.01 Q1693.94 1846.62 1693.94 1842.49 Q1693.94 1837.46 1697.51 1834.72 Q1701.07 1831.98 1707.63 1831.98 Q1710.88 1831.98 1713.74 1832.46 Q1716.6 1832.94 1719.02 1833.89 Z" fill="#000000" fill-rule="nonzero" fill-opacity="1" /><path clip-path="url(#clip570)" d="M1743.94 1818.96 L1743.94 1877.08 L1730.45 1877.08 L1730.45 1872.53 L1738.06 1872.53 L1738.06 1823.52 L1730.45 1823.52 L1730.45 1818.96 L1743.94 1818.96 Z" fill="#000000" fill-rule="nonzero" fill-opacity="1" /><path clip-path="url(#clip570)" d="Mnan nan Lnan nan Lnan nan Lnan nan Lnan nan Z" fill="#000000" fill-rule="nonzero" fill-opacity="1" /><path clip-path="url(#clip570)" d="Mnan nan Lnan nan Lnan nan Lnan nan Lnan nan Qnan nan nan nan Qnan nan nan nan Qnan nan nan nan Qnan nan nan nan Qnan nan nan nan Qnan nan nan nan Qnan nan nan nan Qnan nan nan nan Lnan nan Qnan nan nan nan Qnan nan nan nan Qnan nan nan nan Qnan nan nan nan Qnan nan nan nan Qnan nan nan nan Qnan nan nan nan Qnan nan nan nan Z" fill="#000000" fill-rule="nonzero" fill-opacity="1" /><path clip-path="url(#clip570)" d="Mnan nan Lnan nan Lnan nan Lnan nan Lnan nan Qnan nan nan nan Qnan nan nan nan Qnan nan nan nan Qnan nan nan nan Qnan nan nan nan Qnan nan nan nan Qnan nan nan nan Qnan nan nan nan Lnan nan Qnan nan nan nan Qnan nan nan nan Qnan nan nan nan Qnan nan nan nan Qnan nan nan nan Qnan nan nan nan Qnan nan nan nan Qnan nan nan nan Lnan nan Z" fill="#000000" fill-rule="nonzero" fill-opacity="1" /><path clip-path="url(#clip570)" d="Mnan nan Qnan nan nan nan Qnan nan nan nan Qnan nan nan nan Qnan nan nan nan Qnan nan nan nan Qnan nan nan nan Qnan nan nan nan Qnan nan nan nan Mnan nan Qnan nan nan nan Qnan nan nan nan Qnan nan nan nan Qnan nan nan nan Qnan nan nan nan Qnan nan nan nan Qnan nan nan nan Qnan nan nan nan Z" fill="#000000" fill-rule="nonzero" fill-opacity="1" /><path clip-path="url(#clip570)" d="Mnan nan Lnan nan Lnan nan Lnan nan Lnan nan Z" fill="#000000" fill-rule="nonzero" fill-opacity="1" /><path clip-path="url(#clip570)" d="Mnan nan Lnan nan Lnan nan Lnan nan Lnan nan Qnan nan nan nan Qnan nan nan nan Qnan nan nan nan Qnan nan nan nan Qnan nan nan nan Qnan nan nan nan Qnan nan nan nan Qnan nan nan nan Lnan nan Qnan nan nan nan Qnan nan nan nan Qnan nan nan nan Qnan nan nan nan Qnan nan nan nan Qnan nan nan nan Qnan nan nan nan Qnan nan nan nan Z" fill="#000000" fill-rule="nonzero" fill-opacity="1" /><path clip-path="url(#clip570)" d="Mnan nan Qnan nan nan nan Qnan nan nan nan Qnan nan nan nan Qnan nan nan nan Qnan nan nan nan Qnan nan nan nan Qnan nan nan nan Qnan nan nan nan Mnan nan Qnan nan nan nan Qnan nan nan nan Qnan nan nan nan Qnan nan nan nan Qnan nan nan nan Qnan nan nan nan Qnan nan nan nan Qnan nan nan nan Z" fill="#000000" fill-rule="nonzero" fill-opacity="1" /><path clip-path="url(#clip570)" d="Mnan nan Qnan nan nan nan Qnan nan nan nan Qnan nan nan nan Qnan nan nan nan Qnan nan nan nan Qnan nan nan nan Qnan nan nan nan Qnan nan nan nan Mnan nan Qnan nan nan nan Qnan nan nan nan Qnan nan nan nan Qnan nan nan nan Qnan nan nan nan Qnan nan nan nan Qnan nan nan nan Qnan nan nan nan Z" fill="#000000" fill-rule="nonzero" fill-opacity="1" /><path clip-path="url(#clip570)" d="Mnan nan Lnan nan Lnan nan Lnan nan Lnan nan Z" fill="#000000" fill-rule="nonzero" fill-opacity="1" /><path clip-path="url(#clip570)" d="Mnan nan Lnan nan Lnan nan Lnan nan Lnan nan Lnan nan Lnan nan Lnan nan Lnan nan Lnan nan Lnan nan Lnan nan Z" fill="#000000" fill-rule="nonzero" fill-opacity="1" /><path clip-path="url(#clip570)" d="Mnan nan Lnan nan Lnan nan Lnan nan Lnan nan Qnan nan nan nan Qnan nan nan nan Qnan nan nan nan Qnan nan nan nan Qnan nan nan nan Qnan nan nan nan Qnan nan nan nan Qnan nan nan nan Lnan nan Qnan nan nan nan Qnan nan nan nan Qnan nan nan nan Qnan nan nan nan Qnan nan nan nan Qnan nan nan nan Qnan nan nan nan Qnan nan nan nan Lnan nan Z" fill="#000000" fill-rule="nonzero" fill-opacity="1" /><path clip-path="url(#clip570)" d="Mnan nan Qnan nan nan nan Qnan nan nan nan Qnan nan nan nan Qnan nan nan nan Qnan nan nan nan Qnan nan nan nan Qnan nan nan nan Qnan nan nan nan Mnan nan Qnan nan nan nan Qnan nan nan nan Qnan nan nan nan Qnan nan nan nan Qnan nan nan nan Qnan nan nan nan Qnan nan nan nan Qnan nan nan nan Z" fill="#000000" fill-rule="nonzero" fill-opacity="1" /><path clip-path="url(#clip570)" d="Mnan nan Lnan nan Lnan nan Lnan nan Lnan nan Z" fill="#000000" fill-rule="nonzero" fill-opacity="1" /><path clip-path="url(#clip570)" d="Mnan nan Lnan nan Lnan nan Lnan nan Lnan nan Lnan nan Lnan nan Lnan nan Lnan nan Lnan nan Lnan nan Lnan nan Z" fill="#000000" fill-rule="nonzero" fill-opacity="1" /><path clip-path="url(#clip570)" d="Mnan nan Qnan nan nan nan Qnan nan nan nan Qnan nan nan nan Qnan nan nan nan Qnan nan nan nan Qnan nan nan nan Qnan nan nan nan Qnan nan nan nan Mnan nan Qnan nan nan nan Qnan nan nan nan Qnan nan nan nan Qnan nan nan nan Qnan nan nan nan Qnan nan nan nan Qnan nan nan nan Qnan nan nan nan Z" fill="#000000" fill-rule="nonzero" fill-opacity="1" /><path clip-path="url(#clip570)" d="Mnan nan Qnan nan nan nan Qnan nan nan nan Qnan nan nan nan Qnan nan nan nan Qnan nan nan nan Qnan nan nan nan Qnan nan nan nan Qnan nan nan nan Mnan nan Qnan nan nan nan Qnan nan nan nan Qnan nan nan nan Qnan nan nan nan Qnan nan nan nan Qnan nan nan nan Qnan nan nan nan Qnan nan nan nan Z" fill="#000000" fill-rule="nonzero" fill-opacity="1" /><path clip-path="url(#clip570)" d="Mnan nan Lnan nan Lnan nan Qnan nan nan nan Qnan nan nan nan Qnan nan nan nan Qnan nan nan nan Lnan nan Mnan nan Lnan nan Qnan nan nan nan Qnan nan nan nan Qnan nan nan nan Qnan nan nan nan Lnan nan Lnan nan Lnan nan Lnan nan Z" fill="#000000" fill-rule="nonzero" fill-opacity="1" /><path clip-path="url(#clip570)" d="Mnan nan Lnan nan Lnan nan Lnan nan Qnan nan nan nan Qnan nan nan nan Qnan nan nan nan Qnan nan nan nan Lnan nan Lnan nan Lnan nan Lnan nan Lnan nan Qnan nan nan nan Qnan nan nan nan Qnan nan nan nan Qnan nan nan nan Z" fill="#000000" fill-rule="nonzero" fill-opacity="1" /><path clip-path="url(#clip570)" d="Mnan nan Qnan nan nan nan Qnan nan nan nan Qnan nan nan nan Qnan nan nan nan Qnan nan nan nan Qnan nan nan nan Lnan nan Lnan nan Mnan nan Lnan nan Lnan nan Lnan nan Qnan nan nan nan Qnan nan nan nan Qnan nan nan nan Qnan nan nan nan Qnan nan nan nan Qnan nan nan nan Lnan nan Lnan nan Qnan nan nan nan Qnan nan nan nan Qnan nan nan nan Qnan nan nan nan Lnan nan Qnan nan nan nan Qnan nan nan nan Qnan nan nan nan Qnan nan nan nan Z" fill="#000000" fill-rule="nonzero" fill-opacity="1" /><path clip-path="url(#clip570)" d="Mnan nan Lnan nan Qnan nan nan nan Qnan nan nan nan Qnan nan nan nan Qnan nan nan nan Qnan nan nan nan Qnan nan nan nan Lnan nan Qnan nan nan nan Qnan nan nan nan Qnan nan nan nan Qnan nan nan nan Qnan nan nan nan Qnan nan nan nan Lnan nan Qnan nan nan nan Qnan nan nan nan Qnan nan nan nan Qnan nan nan nan Qnan nan nan nan Qnan nan nan nan Lnan nan Qnan nan nan nan Qnan nan nan nan Qnan nan nan nan Qnan nan nan nan Qnan nan nan nan Qnan nan nan nan Z" fill="#000000" fill-rule="nonzero" fill-opacity="1" /><path clip-path="url(#clip570)" d="Mnan nan Lnan nan Lnan nan Qnan nan nan nan Qnan nan nan nan Qnan nan nan nan Qnan nan nan nan Lnan nan Qnan nan nan nan Qnan nan nan nan Qnan nan nan nan Qnan nan nan nan Qnan nan nan nan Qnan nan nan nan Qnan nan nan nan Qnan nan nan nan Mnan nan Qnan nan nan nan Qnan nan nan nan Qnan nan nan nan Qnan nan nan nan Lnan nan Z" fill="#000000" fill-rule="nonzero" fill-opacity="1" /><path clip-path="url(#clip570)" d="Mnan nan Qnan nan nan nan Qnan nan nan nan Qnan nan nan nan Qnan nan nan nan Lnan nan Qnan nan nan nan Qnan nan nan nan Qnan nan nan nan Qnan nan nan nan Lnan nan Z" fill="#000000" fill-rule="nonzero" fill-opacity="1" /><path clip-path="url(#clip570)" d="Mnan nan Lnan nan Lnan nan Lnan nan Lnan nan Lnan nan Qnan nan nan nan Qnan nan nan nan Qnan nan nan nan Qnan nan nan nan Qnan nan nan nan Qnan nan nan nan Qnan nan nan nan Qnan nan nan nan Mnan nan Qnan nan nan nan Qnan nan nan nan Qnan nan nan nan Qnan nan nan nan Qnan nan nan nan Qnan nan nan nan Qnan nan nan nan Qnan nan nan nan Z" fill="#000000" fill-rule="nonzero" fill-opacity="1" /><path clip-path="url(#clip570)" d="Mnan nan Lnan nan Lnan nan Qnan nan nan nan Qnan nan nan nan Qnan nan nan nan Qnan nan nan nan Lnan nan Qnan nan nan nan Qnan nan nan nan Qnan nan nan nan Qnan nan nan nan Qnan nan nan nan Qnan nan nan nan Qnan nan nan nan Qnan nan nan nan Mnan nan Qnan nan nan nan Qnan nan nan nan Qnan nan nan nan Qnan nan nan nan Lnan nan Z" fill="#000000" fill-rule="nonzero" fill-opacity="1" /><path clip-path="url(#clip570)" d="Mnan nan Qnan nan nan nan Qnan nan nan nan Qnan nan nan nan Qnan nan nan nan Qnan nan nan nan Qnan nan nan nan Qnan nan nan nan Qnan nan nan nan Mnan nan Qnan nan nan nan Qnan nan nan nan Qnan nan nan nan Qnan nan nan nan Lnan nan Qnan nan nan nan Qnan nan nan nan Qnan nan nan nan Qnan nan nan nan Lnan nan Qnan nan nan nan Qnan nan nan nan Qnan nan nan nan Qnan nan nan nan Qnan nan nan nan Qnan nan nan nan Qnan nan nan nan Qnan nan nan nan Lnan nan Lnan nan Lnan nan Z" fill="#000000" fill-rule="nonzero" fill-opacity="1" /><path clip-path="url(#clip570)" d="Mnan nan Lnan nan Qnan nan nan nan Qnan nan nan nan Qnan nan nan nan Qnan nan nan nan Lnan nan Qnan nan nan nan Qnan nan nan nan Qnan nan nan nan Qnan nan nan nan Z" fill="#000000" fill-rule="nonzero" fill-opacity="1" /><polyline clip-path="url(#clip573)" style="stroke:#009af9; stroke-linecap:round; stroke-linejoin:round; stroke-width:4; stroke-opacity:1; fill:none" points="310.301,70352.8 364.802,71406.6 471.987,73473.7 652.353,76916.6 937.26,82189.8 1249.3,87618.3 1694.69,94571.8 5346.61,123782 19998.7,150066 71127.7,179270 94781.8,185023 126334,189837 216942,196398 403969,200862 864001,203670 2.35428e+06,205239 "/>
</svg>
