<?xml version="1.0" encoding="utf-8"?>
<svg xmlns="http://www.w3.org/2000/svg" xmlns:xlink="http://www.w3.org/1999/xlink" width="480" height="384" viewBox="0 0 1920 1536">
<defs>
  <clipPath id="clip280">
    <rect x="0" y="0" width="1920" height="1536"/>
  </clipPath>
</defs>
<path clip-path="url(#clip280)" d="M0 1536 L1920 1536 L1920 0 L0 0  Z" fill="#ffffff" fill-rule="evenodd" fill-opacity="1"/>
<defs>
  <clipPath id="clip281">
    <rect x="384" y="0" width="1345" height="1345"/>
  </clipPath>
</defs>
<path clip-path="url(#clip280)" d="M277.001 597.05 L1872.76 597.05 L1872.76 47.2441 L277.001 47.2441  Z" fill="#ffffff" fill-rule="evenodd" fill-opacity="1"/>
<defs>
  <clipPath id="clip282">
    <rect x="277" y="47" width="1597" height="551"/>
  </clipPath>
</defs>
<polyline clip-path="url(#clip282)" style="stroke:#000000; stroke-linecap:round; stroke-linejoin:round; stroke-width:2; stroke-opacity:0.1; fill:none" points="322.163,597.05 322.163,47.2441 "/>
<polyline clip-path="url(#clip282)" style="stroke:#000000; stroke-linecap:round; stroke-linejoin:round; stroke-width:2; stroke-opacity:0.1; fill:none" points="902.922,597.05 902.922,47.2441 "/>
<polyline clip-path="url(#clip282)" style="stroke:#000000; stroke-linecap:round; stroke-linejoin:round; stroke-width:2; stroke-opacity:0.1; fill:none" points="1483.68,597.05 1483.68,47.2441 "/>
<polyline clip-path="url(#clip282)" style="stroke:#000000; stroke-linecap:round; stroke-linejoin:round; stroke-width:2; stroke-opacity:0.1; fill:none" points="277.001,505.978 1872.76,505.978 "/>
<polyline clip-path="url(#clip282)" style="stroke:#000000; stroke-linecap:round; stroke-linejoin:round; stroke-width:2; stroke-opacity:0.1; fill:none" points="277.001,395.18 1872.76,395.18 "/>
<polyline clip-path="url(#clip282)" style="stroke:#000000; stroke-linecap:round; stroke-linejoin:round; stroke-width:2; stroke-opacity:0.1; fill:none" points="277.001,284.382 1872.76,284.382 "/>
<polyline clip-path="url(#clip282)" style="stroke:#000000; stroke-linecap:round; stroke-linejoin:round; stroke-width:2; stroke-opacity:0.1; fill:none" points="277.001,173.584 1872.76,173.584 "/>
<polyline clip-path="url(#clip282)" style="stroke:#000000; stroke-linecap:round; stroke-linejoin:round; stroke-width:2; stroke-opacity:0.1; fill:none" points="277.001,62.7854 1872.76,62.7854 "/>
<polyline clip-path="url(#clip280)" style="stroke:#000000; stroke-linecap:round; stroke-linejoin:round; stroke-width:4; stroke-opacity:1; fill:none" points="277.001,597.05 1872.76,597.05 "/>
<polyline clip-path="url(#clip280)" style="stroke:#000000; stroke-linecap:round; stroke-linejoin:round; stroke-width:4; stroke-opacity:1; fill:none" points="322.163,597.05 322.163,578.152 "/>
<polyline clip-path="url(#clip280)" style="stroke:#000000; stroke-linecap:round; stroke-linejoin:round; stroke-width:4; stroke-opacity:1; fill:none" points="902.922,597.05 902.922,578.152 "/>
<polyline clip-path="url(#clip280)" style="stroke:#000000; stroke-linecap:round; stroke-linejoin:round; stroke-width:4; stroke-opacity:1; fill:none" points="1483.68,597.05 1483.68,578.152 "/>
<path clip-path="url(#clip280)" d="M272.279 667.335 L279.918 667.335 L279.918 640.969 L271.607 642.636 L271.607 638.377 L279.871 636.71 L284.547 636.71 L284.547 667.335 L292.186 667.335 L292.186 671.27 L272.279 671.27 L272.279 667.335 Z" fill="#000000" fill-rule="nonzero" fill-opacity="1" /><path clip-path="url(#clip280)" d="M311.63 639.789 Q308.019 639.789 306.191 643.354 Q304.385 646.895 304.385 654.025 Q304.385 661.131 306.191 664.696 Q308.019 668.238 311.63 668.238 Q315.265 668.238 317.07 664.696 Q318.899 661.131 318.899 654.025 Q318.899 646.895 317.07 643.354 Q315.265 639.789 311.63 639.789 M311.63 636.085 Q317.441 636.085 320.496 640.691 Q323.575 645.275 323.575 654.025 Q323.575 662.752 320.496 667.358 Q317.441 671.941 311.63 671.941 Q305.82 671.941 302.742 667.358 Q299.686 662.752 299.686 654.025 Q299.686 645.275 302.742 640.691 Q305.82 636.085 311.63 636.085 Z" fill="#000000" fill-rule="nonzero" fill-opacity="1" /><path clip-path="url(#clip280)" d="M323.575 630.186 L347.686 630.186 L347.686 633.384 L323.575 633.384 L323.575 630.186 Z" fill="#000000" fill-rule="nonzero" fill-opacity="1" /><path clip-path="url(#clip280)" d="M356.545 640.662 L362.751 640.662 L362.751 619.24 L355.999 620.594 L355.999 617.134 L362.714 615.78 L366.513 615.78 L366.513 640.662 L372.719 640.662 L372.719 643.86 L356.545 643.86 L356.545 640.662 Z" fill="#000000" fill-rule="nonzero" fill-opacity="1" /><path clip-path="url(#clip280)" d="M867.905 667.335 L875.544 667.335 L875.544 640.969 L867.234 642.636 L867.234 638.377 L875.498 636.71 L880.174 636.71 L880.174 667.335 L887.812 667.335 L887.812 671.27 L867.905 671.27 L867.905 667.335 Z" fill="#000000" fill-rule="nonzero" fill-opacity="1" /><path clip-path="url(#clip280)" d="M907.257 639.789 Q903.646 639.789 901.817 643.354 Q900.011 646.895 900.011 654.025 Q900.011 661.131 901.817 664.696 Q903.646 668.238 907.257 668.238 Q910.891 668.238 912.697 664.696 Q914.525 661.131 914.525 654.025 Q914.525 646.895 912.697 643.354 Q910.891 639.789 907.257 639.789 M907.257 636.085 Q913.067 636.085 916.122 640.691 Q919.201 645.275 919.201 654.025 Q919.201 662.752 916.122 667.358 Q913.067 671.941 907.257 671.941 Q901.447 671.941 898.368 667.358 Q895.312 662.752 895.312 654.025 Q895.312 645.275 898.368 640.691 Q901.447 636.085 907.257 636.085 Z" fill="#000000" fill-rule="nonzero" fill-opacity="1" /><path clip-path="url(#clip280)" d="M928.906 618.281 Q925.972 618.281 924.486 621.177 Q923.019 624.055 923.019 629.848 Q923.019 635.622 924.486 638.518 Q925.972 641.396 928.906 641.396 Q931.859 641.396 933.326 638.518 Q934.812 635.622 934.812 629.848 Q934.812 624.055 933.326 621.177 Q931.859 618.281 928.906 618.281 M928.906 615.272 Q933.627 615.272 936.109 619.015 Q938.611 622.738 938.611 629.848 Q938.611 636.938 936.109 640.681 Q933.627 644.405 928.906 644.405 Q924.185 644.405 921.684 640.681 Q919.201 636.938 919.201 629.848 Q919.201 622.738 921.684 619.015 Q924.185 615.272 928.906 615.272 Z" fill="#000000" fill-rule="nonzero" fill-opacity="1" /><path clip-path="url(#clip280)" d="M1450.01 667.335 L1457.65 667.335 L1457.65 640.969 L1449.34 642.636 L1449.34 638.377 L1457.6 636.71 L1462.28 636.71 L1462.28 667.335 L1469.92 667.335 L1469.92 671.27 L1450.01 671.27 L1450.01 667.335 Z" fill="#000000" fill-rule="nonzero" fill-opacity="1" /><path clip-path="url(#clip280)" d="M1489.36 639.789 Q1485.75 639.789 1483.92 643.354 Q1482.12 646.895 1482.12 654.025 Q1482.12 661.131 1483.92 664.696 Q1485.75 668.238 1489.36 668.238 Q1492.99 668.238 1494.8 664.696 Q1496.63 661.131 1496.63 654.025 Q1496.63 646.895 1494.8 643.354 Q1492.99 639.789 1489.36 639.789 M1489.36 636.085 Q1495.17 636.085 1498.23 640.691 Q1501.3 645.275 1501.3 654.025 Q1501.3 662.752 1498.23 667.358 Q1495.17 671.941 1489.36 671.941 Q1483.55 671.941 1480.47 667.358 Q1477.42 662.752 1477.42 654.025 Q1477.42 645.275 1480.47 640.691 Q1483.55 636.085 1489.36 636.085 Z" fill="#000000" fill-rule="nonzero" fill-opacity="1" /><path clip-path="url(#clip280)" d="M1501.85 640.662 L1508.06 640.662 L1508.06 619.24 L1501.3 620.594 L1501.3 617.134 L1508.02 615.78 L1511.82 615.78 L1511.82 640.662 L1518.02 640.662 L1518.02 643.86 L1501.85 643.86 L1501.85 640.662 Z" fill="#000000" fill-rule="nonzero" fill-opacity="1" /><polyline clip-path="url(#clip280)" style="stroke:#000000; stroke-linecap:round; stroke-linejoin:round; stroke-width:4; stroke-opacity:1; fill:none" points="277.001,597.05 277.001,47.2441 "/>
<polyline clip-path="url(#clip280)" style="stroke:#000000; stroke-linecap:round; stroke-linejoin:round; stroke-width:4; stroke-opacity:1; fill:none" points="277.001,505.978 295.898,505.978 "/>
<polyline clip-path="url(#clip280)" style="stroke:#000000; stroke-linecap:round; stroke-linejoin:round; stroke-width:4; stroke-opacity:1; fill:none" points="277.001,395.18 295.898,395.18 "/>
<polyline clip-path="url(#clip280)" style="stroke:#000000; stroke-linecap:round; stroke-linejoin:round; stroke-width:4; stroke-opacity:1; fill:none" points="277.001,284.382 295.898,284.382 "/>
<polyline clip-path="url(#clip280)" style="stroke:#000000; stroke-linecap:round; stroke-linejoin:round; stroke-width:4; stroke-opacity:1; fill:none" points="277.001,173.584 295.898,173.584 "/>
<polyline clip-path="url(#clip280)" style="stroke:#000000; stroke-linecap:round; stroke-linejoin:round; stroke-width:4; stroke-opacity:1; fill:none" points="277.001,62.7854 295.898,62.7854 "/>
<path clip-path="url(#clip280)" d="M156.326 506.43 L186.002 506.43 L186.002 510.365 L156.326 510.365 L156.326 506.43 Z" fill="#000000" fill-rule="nonzero" fill-opacity="1" /><path clip-path="url(#clip280)" d="M200.122 519.323 L216.441 519.323 L216.441 523.258 L194.497 523.258 L194.497 519.323 Q197.159 516.569 201.742 511.939 Q206.349 507.286 207.529 505.944 Q209.775 503.42 210.654 501.684 Q211.557 499.925 211.557 498.235 Q211.557 495.481 209.613 493.745 Q207.691 492.009 204.59 492.009 Q202.391 492.009 199.937 492.772 Q197.506 493.536 194.729 495.087 L194.729 490.365 Q197.553 489.231 200.006 488.652 Q202.46 488.073 204.497 488.073 Q209.867 488.073 213.062 490.759 Q216.256 493.444 216.256 497.934 Q216.256 500.064 215.446 501.985 Q214.659 503.883 212.553 506.476 Q211.974 507.147 208.872 510.365 Q205.77 513.559 200.122 519.323 Z" fill="#000000" fill-rule="nonzero" fill-opacity="1" /><path clip-path="url(#clip280)" d="M236.256 491.777 Q232.645 491.777 230.816 495.342 Q229.011 498.883 229.011 506.013 Q229.011 513.12 230.816 516.684 Q232.645 520.226 236.256 520.226 Q239.89 520.226 241.696 516.684 Q243.525 513.12 243.525 506.013 Q243.525 498.883 241.696 495.342 Q239.89 491.777 236.256 491.777 M236.256 488.073 Q242.066 488.073 245.122 492.68 Q248.201 497.263 248.201 506.013 Q248.201 514.74 245.122 519.346 Q242.066 523.93 236.256 523.93 Q230.446 523.93 227.367 519.346 Q224.312 514.74 224.312 506.013 Q224.312 497.263 227.367 492.68 Q230.446 488.073 236.256 488.073 Z" fill="#000000" fill-rule="nonzero" fill-opacity="1" /><path clip-path="url(#clip280)" d="M157.321 395.631 L186.997 395.631 L186.997 399.567 L157.321 399.567 L157.321 395.631 Z" fill="#000000" fill-rule="nonzero" fill-opacity="1" /><path clip-path="url(#clip280)" d="M197.9 408.525 L205.539 408.525 L205.539 382.159 L197.229 383.826 L197.229 379.567 L205.492 377.9 L210.168 377.9 L210.168 408.525 L217.807 408.525 L217.807 412.46 L197.9 412.46 L197.9 408.525 Z" fill="#000000" fill-rule="nonzero" fill-opacity="1" /><path clip-path="url(#clip280)" d="M227.298 377.9 L245.654 377.9 L245.654 381.835 L231.58 381.835 L231.58 390.307 Q232.599 389.96 233.617 389.798 Q234.636 389.613 235.654 389.613 Q241.441 389.613 244.821 392.784 Q248.201 395.956 248.201 401.372 Q248.201 406.951 244.728 410.053 Q241.256 413.131 234.937 413.131 Q232.761 413.131 230.492 412.761 Q228.247 412.391 225.84 411.65 L225.84 406.951 Q227.923 408.085 230.145 408.641 Q232.367 409.196 234.844 409.196 Q238.849 409.196 241.187 407.09 Q243.525 404.983 243.525 401.372 Q243.525 397.761 241.187 395.655 Q238.849 393.548 234.844 393.548 Q232.969 393.548 231.094 393.965 Q229.242 394.381 227.298 395.261 L227.298 377.9 Z" fill="#000000" fill-rule="nonzero" fill-opacity="1" /><path clip-path="url(#clip280)" d="M156.326 284.833 L186.002 284.833 L186.002 288.768 L156.326 288.768 L156.326 284.833 Z" fill="#000000" fill-rule="nonzero" fill-opacity="1" /><path clip-path="url(#clip280)" d="M196.905 297.727 L204.543 297.727 L204.543 271.361 L196.233 273.028 L196.233 268.769 L204.497 267.102 L209.173 267.102 L209.173 297.727 L216.812 297.727 L216.812 301.662 L196.905 301.662 L196.905 297.727 Z" fill="#000000" fill-rule="nonzero" fill-opacity="1" /><path clip-path="url(#clip280)" d="M236.256 270.181 Q232.645 270.181 230.816 273.745 Q229.011 277.287 229.011 284.417 Q229.011 291.523 230.816 295.088 Q232.645 298.629 236.256 298.629 Q239.89 298.629 241.696 295.088 Q243.525 291.523 243.525 284.417 Q243.525 277.287 241.696 273.745 Q239.89 270.181 236.256 270.181 M236.256 266.477 Q242.066 266.477 245.122 271.083 Q248.201 275.667 248.201 284.417 Q248.201 293.143 245.122 297.75 Q242.066 302.333 236.256 302.333 Q230.446 302.333 227.367 297.75 Q224.312 293.143 224.312 284.417 Q224.312 275.667 227.367 271.083 Q230.446 266.477 236.256 266.477 Z" fill="#000000" fill-rule="nonzero" fill-opacity="1" /><path clip-path="url(#clip280)" d="M187.483 174.035 L217.159 174.035 L217.159 177.97 L187.483 177.97 L187.483 174.035 Z" fill="#000000" fill-rule="nonzero" fill-opacity="1" /><path clip-path="url(#clip280)" d="M227.298 156.304 L245.654 156.304 L245.654 160.239 L231.58 160.239 L231.58 168.711 Q232.599 168.364 233.617 168.202 Q234.636 168.017 235.654 168.017 Q241.441 168.017 244.821 171.188 Q248.201 174.359 248.201 179.776 Q248.201 185.354 244.728 188.456 Q241.256 191.535 234.937 191.535 Q232.761 191.535 230.492 191.165 Q228.247 190.794 225.84 190.053 L225.84 185.354 Q227.923 186.489 230.145 187.044 Q232.367 187.6 234.844 187.6 Q238.849 187.6 241.187 185.493 Q243.525 183.387 243.525 179.776 Q243.525 176.165 241.187 174.058 Q238.849 171.952 234.844 171.952 Q232.969 171.952 231.094 172.368 Q229.242 172.785 227.298 173.665 L227.298 156.304 Z" fill="#000000" fill-rule="nonzero" fill-opacity="1" /><path clip-path="url(#clip280)" d="M236.256 48.584 Q232.645 48.584 230.816 52.1488 Q229.011 55.6905 229.011 62.8201 Q229.011 69.9265 230.816 73.4913 Q232.645 77.033 236.256 77.033 Q239.89 77.033 241.696 73.4913 Q243.525 69.9265 243.525 62.8201 Q243.525 55.6905 241.696 52.1488 Q239.89 48.584 236.256 48.584 M236.256 44.8804 Q242.066 44.8804 245.122 49.4868 Q248.201 54.0701 248.201 62.8201 Q248.201 71.5469 245.122 76.1533 Q242.066 80.7366 236.256 80.7366 Q230.446 80.7366 227.367 76.1533 Q224.312 71.5469 224.312 62.8201 Q224.312 54.0701 227.367 49.4868 Q230.446 44.8804 236.256 44.8804 Z" fill="#000000" fill-rule="nonzero" fill-opacity="1" /><path clip-path="url(#clip280)" d="M65.75 567.656 L65.75 558.076 L98.0878 545.949 L65.75 533.759 L65.75 524.179 L113.27 524.179 L113.27 530.449 L71.5428 530.449 L104.135 542.703 L104.135 549.164 L71.5428 561.418 L113.27 561.418 L113.27 567.656 L65.75 567.656 Z" fill="#000000" fill-rule="nonzero" fill-opacity="1" /><path clip-path="url(#clip280)" d="M95.3506 495.469 Q95.3506 502.567 96.9738 505.304 Q98.5971 508.042 102.512 508.042 Q105.631 508.042 107.477 506.005 Q109.291 503.936 109.291 500.403 Q109.291 495.533 105.854 492.605 Q102.385 489.645 96.6555 489.645 L95.3506 489.645 L95.3506 495.469 M92.9316 483.788 L113.27 483.788 L113.27 489.645 L107.859 489.645 Q111.106 491.65 112.665 494.642 Q114.193 497.634 114.193 501.962 Q114.193 507.437 111.138 510.683 Q108.05 513.898 102.894 513.898 Q96.8783 513.898 93.8228 509.888 Q90.7673 505.845 90.7673 497.856 L90.7673 489.645 L90.1943 489.645 Q86.1521 489.645 83.956 492.318 Q81.728 494.96 81.728 499.766 Q81.728 502.822 82.46 505.718 Q83.1921 508.615 84.6562 511.288 L79.2453 511.288 Q78.004 508.073 77.3993 505.05 Q76.7627 502.026 76.7627 499.161 Q76.7627 491.427 80.7731 487.608 Q84.7835 483.788 92.9316 483.788 Z" fill="#000000" fill-rule="nonzero" fill-opacity="1" /><path clip-path="url(#clip280)" d="M95.0323 448.268 Q88.6666 448.268 85.1654 450.909 Q81.6643 453.519 81.6643 458.262 Q81.6643 462.972 85.1654 465.614 Q88.6666 468.224 95.0323 468.224 Q101.366 468.224 104.867 465.614 Q108.368 462.972 108.368 458.262 Q108.368 453.519 104.867 450.909 Q101.366 448.268 95.0323 448.268 M108.846 442.411 Q117.949 442.411 122.373 446.453 Q126.829 450.496 126.829 458.835 Q126.829 461.922 126.352 464.659 Q125.906 467.397 124.951 469.975 L119.254 469.975 Q120.654 467.397 121.323 464.882 Q121.991 462.368 121.991 459.758 Q121.991 453.997 118.967 451.132 Q115.975 448.268 109.896 448.268 L107 448.268 Q110.151 450.082 111.71 452.915 Q113.27 455.747 113.27 459.694 Q113.27 466.251 108.273 470.261 Q103.276 474.272 95.0323 474.272 Q86.7569 474.272 81.7598 470.261 Q76.7627 466.251 76.7627 459.694 Q76.7627 455.747 78.3223 452.915 Q79.8819 450.082 83.0329 448.268 L77.6221 448.268 L77.6221 442.411 L108.846 442.411 Z" fill="#000000" fill-rule="nonzero" fill-opacity="1" /><path clip-path="url(#clip280)" d="M91.7539 400.716 L113.27 400.716 L113.27 406.572 L91.9449 406.572 Q86.8842 406.572 84.3697 408.546 Q81.8553 410.519 81.8553 414.466 Q81.8553 419.208 84.879 421.945 Q87.9027 424.683 93.1226 424.683 L113.27 424.683 L113.27 430.571 L77.6221 430.571 L77.6221 424.683 L83.1602 424.683 Q79.9456 422.582 78.3541 419.749 Q76.7627 416.885 76.7627 413.161 Q76.7627 407.018 80.5821 403.867 Q84.3697 400.716 91.7539 400.716 Z" fill="#000000" fill-rule="nonzero" fill-opacity="1" /><path clip-path="url(#clip280)" d="M77.6221 389.035 L77.6221 383.178 L113.27 383.178 L113.27 389.035 L77.6221 389.035 M63.7448 389.035 L63.7448 383.178 L71.1609 383.178 L71.1609 389.035 L63.7448 389.035 Z" fill="#000000" fill-rule="nonzero" fill-opacity="1" /><path clip-path="url(#clip280)" d="M67.5006 365.131 L77.6221 365.131 L77.6221 353.068 L82.1736 353.068 L82.1736 365.131 L101.525 365.131 Q105.886 365.131 107.127 363.954 Q108.368 362.744 108.368 359.084 L108.368 353.068 L113.27 353.068 L113.27 359.084 Q113.27 365.864 110.756 368.442 Q108.209 371.02 101.525 371.02 L82.1736 371.02 L82.1736 375.317 L77.6221 375.317 L77.6221 371.02 L67.5006 371.02 L67.5006 365.131 Z" fill="#000000" fill-rule="nonzero" fill-opacity="1" /><path clip-path="url(#clip280)" d="M99.2018 345.971 L77.6221 345.971 L77.6221 340.114 L98.979 340.114 Q104.04 340.114 106.586 338.141 Q109.1 336.168 109.1 332.221 Q109.1 327.478 106.077 324.741 Q103.053 321.972 97.8332 321.972 L77.6221 321.972 L77.6221 316.116 L113.27 316.116 L113.27 321.972 L107.796 321.972 Q111.042 324.105 112.633 326.937 Q114.193 329.738 114.193 333.462 Q114.193 339.605 110.374 342.788 Q106.554 345.971 99.2018 345.971 M76.7627 331.234 L76.7627 331.234 Z" fill="#000000" fill-rule="nonzero" fill-opacity="1" /><path clip-path="url(#clip280)" d="M83.0329 280.595 L63.7448 280.595 L63.7448 274.738 L113.27 274.738 L113.27 280.595 L107.923 280.595 Q111.106 282.441 112.665 285.274 Q114.193 288.075 114.193 292.021 Q114.193 298.483 109.037 302.557 Q103.881 306.599 95.4779 306.599 Q87.0752 306.599 81.9189 302.557 Q76.7627 298.483 76.7627 292.021 Q76.7627 288.075 78.3223 285.274 Q79.8501 282.441 83.0329 280.595 M95.4779 300.551 Q101.939 300.551 105.631 297.91 Q109.291 295.236 109.291 290.589 Q109.291 285.942 105.631 283.269 Q101.939 280.595 95.4779 280.595 Q89.0167 280.595 85.3564 283.269 Q81.6643 285.942 81.6643 290.589 Q81.6643 295.236 85.3564 297.91 Q89.0167 300.551 95.4779 300.551 Z" fill="#000000" fill-rule="nonzero" fill-opacity="1" /><path clip-path="url(#clip280)" d="M93.9819 232.184 L96.8465 232.184 L96.8465 259.111 Q102.894 258.729 106.077 255.482 Q109.228 252.204 109.228 246.379 Q109.228 243.005 108.4 239.854 Q107.573 236.672 105.918 233.552 L111.456 233.552 Q112.793 236.703 113.493 240.014 Q114.193 243.324 114.193 246.729 Q114.193 255.259 109.228 260.256 Q104.263 265.222 95.7962 265.222 Q87.0433 265.222 81.9189 260.511 Q76.7627 255.769 76.7627 247.748 Q76.7627 240.555 81.4097 236.385 Q86.0248 232.184 93.9819 232.184 M92.2632 238.04 Q87.4571 238.104 84.5925 240.746 Q81.728 243.356 81.728 247.684 Q81.728 252.586 84.497 255.546 Q87.2661 258.474 92.295 258.92 L92.2632 238.04 Z" fill="#000000" fill-rule="nonzero" fill-opacity="1" /><path clip-path="url(#clip280)" d="M63.8085 187.783 Q71.1291 192.048 78.2905 194.117 Q85.4519 196.186 92.8043 196.186 Q100.157 196.186 107.382 194.117 Q114.575 192.016 121.864 187.783 L121.864 192.875 Q114.384 197.65 107.159 200.037 Q99.9339 202.392 92.8043 202.392 Q85.7065 202.392 78.5133 200.037 Q71.32 197.682 63.8085 192.875 L63.8085 187.783 Z" fill="#000000" fill-rule="nonzero" fill-opacity="1" /><path clip-path="url(#clip280)" d="M83.0329 152.962 L63.7448 152.962 L63.7448 147.106 L113.27 147.106 L113.27 152.962 L107.923 152.962 Q111.106 154.809 112.665 157.641 Q114.193 160.442 114.193 164.389 Q114.193 170.85 109.037 174.924 Q103.881 178.966 95.4779 178.966 Q87.0752 178.966 81.9189 174.924 Q76.7627 170.85 76.7627 164.389 Q76.7627 160.442 78.3223 157.641 Q79.8501 154.809 83.0329 152.962 M95.4779 172.919 Q101.939 172.919 105.631 170.277 Q109.291 167.604 109.291 162.957 Q109.291 158.31 105.631 155.636 Q101.939 152.962 95.4779 152.962 Q89.0167 152.962 85.3564 155.636 Q81.6643 158.31 81.6643 162.957 Q81.6643 167.604 85.3564 170.277 Q89.0167 172.919 95.4779 172.919 Z" fill="#000000" fill-rule="nonzero" fill-opacity="1" /><path clip-path="url(#clip280)" d="M90.5763 128.359 L107.986 128.359 L107.986 118.047 Q107.986 112.859 105.854 110.376 Q103.69 107.861 99.2655 107.861 Q94.8095 107.861 92.7088 110.376 Q90.5763 112.859 90.5763 118.047 L90.5763 128.359 M71.0336 128.359 L85.3564 128.359 L85.3564 118.842 Q85.3564 114.132 83.6058 111.84 Q81.8234 109.517 78.195 109.517 Q74.5984 109.517 72.816 111.84 Q71.0336 114.132 71.0336 118.842 L71.0336 128.359 M65.75 134.788 L65.75 118.365 Q65.75 111.012 68.8056 107.034 Q71.8611 103.055 77.4948 103.055 Q81.8553 103.055 84.4334 105.092 Q87.0115 107.129 87.6481 111.076 Q88.6666 106.334 91.9131 103.724 Q95.1278 101.082 99.9657 101.082 Q106.331 101.082 109.801 105.411 Q113.27 109.739 113.27 117.728 L113.27 134.788 L65.75 134.788 Z" fill="#000000" fill-rule="nonzero" fill-opacity="1" /><path clip-path="url(#clip280)" d="M63.8085 91.247 L63.8085 86.1544 Q71.32 81.3801 78.5133 79.0248 Q85.7065 76.6377 92.8043 76.6377 Q99.9339 76.6377 107.159 79.0248 Q114.384 81.3801 121.864 86.1544 L121.864 91.247 Q114.575 87.0138 107.382 84.9449 Q100.157 82.8442 92.8043 82.8442 Q85.4519 82.8442 78.2905 84.9449 Q71.1291 87.0138 63.8085 91.247 Z" fill="#000000" fill-rule="nonzero" fill-opacity="1" /><polyline clip-path="url(#clip282)" style="stroke:#009af9; stroke-linecap:round; stroke-linejoin:round; stroke-width:4; stroke-opacity:1; fill:none" points="322.163,62.8046 926.961,65.0974 1090.05,71.0089 1258.8,91.5829 1397.3,135.067 1603.8,278.539 1694.85,380.815 1769.86,486.504 1827.59,581.489 "/>
<path clip-path="url(#clip280)" d="M1607.56 169.251 L1819.56 169.251 L1819.56 65.571 L1607.56 65.571  Z" fill="#ffffff" fill-rule="evenodd" fill-opacity="1"/>
<polyline clip-path="url(#clip280)" style="stroke:#000000; stroke-linecap:round; stroke-linejoin:round; stroke-width:4; stroke-opacity:1; fill:none" points="1607.56,169.251 1819.56,169.251 1819.56,65.571 1607.56,65.571 1607.56,169.251 "/>
<polyline clip-path="url(#clip280)" style="stroke:#009af9; stroke-linecap:round; stroke-linejoin:round; stroke-width:4; stroke-opacity:1; fill:none" points="1625.29,117.411 1731.67,117.411 "/>
<path clip-path="url(#clip280)" d="M1763.25 137.098 Q1761.44 141.728 1759.73 143.14 Q1758.01 144.552 1755.14 144.552 L1751.74 144.552 L1751.74 140.987 L1754.24 140.987 Q1756 140.987 1756.97 140.154 Q1757.94 139.321 1759.13 136.219 L1759.89 134.274 L1749.4 108.765 L1753.92 108.765 L1762.02 129.043 L1770.12 108.765 L1774.63 108.765 L1763.25 137.098 Z" fill="#000000" fill-rule="nonzero" fill-opacity="1" /><path clip-path="url(#clip280)" d="M1781.93 130.756 L1789.56 130.756 L1789.56 104.39 L1781.25 106.057 L1781.25 101.798 L1789.52 100.131 L1794.19 100.131 L1794.19 130.756 L1801.83 130.756 L1801.83 134.691 L1781.93 134.691 L1781.93 130.756 Z" fill="#000000" fill-rule="nonzero" fill-opacity="1" /><path clip-path="url(#clip280)" d="M277.001 1328.66 L1872.76 1328.66 L1872.76 778.858 L277.001 778.858  Z" fill="#ffffff" fill-rule="evenodd" fill-opacity="1"/>
<defs>
  <clipPath id="clip283">
    <rect x="277" y="778" width="1597" height="551"/>
  </clipPath>
</defs>
<polyline clip-path="url(#clip283)" style="stroke:#000000; stroke-linecap:round; stroke-linejoin:round; stroke-width:2; stroke-opacity:0.1; fill:none" points="322.163,1328.66 322.163,778.858 "/>
<polyline clip-path="url(#clip283)" style="stroke:#000000; stroke-linecap:round; stroke-linejoin:round; stroke-width:2; stroke-opacity:0.1; fill:none" points="902.922,1328.66 902.922,778.858 "/>
<polyline clip-path="url(#clip283)" style="stroke:#000000; stroke-linecap:round; stroke-linejoin:round; stroke-width:2; stroke-opacity:0.1; fill:none" points="1483.68,1328.66 1483.68,778.858 "/>
<polyline clip-path="url(#clip283)" style="stroke:#000000; stroke-linecap:round; stroke-linejoin:round; stroke-width:2; stroke-opacity:0.1; fill:none" points="277.001,1316.38 1872.76,1316.38 "/>
<polyline clip-path="url(#clip283)" style="stroke:#000000; stroke-linecap:round; stroke-linejoin:round; stroke-width:2; stroke-opacity:0.1; fill:none" points="277.001,1185.11 1872.76,1185.11 "/>
<polyline clip-path="url(#clip283)" style="stroke:#000000; stroke-linecap:round; stroke-linejoin:round; stroke-width:2; stroke-opacity:0.1; fill:none" points="277.001,1053.84 1872.76,1053.84 "/>
<polyline clip-path="url(#clip283)" style="stroke:#000000; stroke-linecap:round; stroke-linejoin:round; stroke-width:2; stroke-opacity:0.1; fill:none" points="277.001,922.577 1872.76,922.577 "/>
<polyline clip-path="url(#clip283)" style="stroke:#000000; stroke-linecap:round; stroke-linejoin:round; stroke-width:2; stroke-opacity:0.1; fill:none" points="277.001,791.31 1872.76,791.31 "/>
<polyline clip-path="url(#clip280)" style="stroke:#000000; stroke-linecap:round; stroke-linejoin:round; stroke-width:4; stroke-opacity:1; fill:none" points="277.001,1328.66 1872.76,1328.66 "/>
<polyline clip-path="url(#clip280)" style="stroke:#000000; stroke-linecap:round; stroke-linejoin:round; stroke-width:4; stroke-opacity:1; fill:none" points="322.163,1328.66 322.163,1309.77 "/>
<polyline clip-path="url(#clip280)" style="stroke:#000000; stroke-linecap:round; stroke-linejoin:round; stroke-width:4; stroke-opacity:1; fill:none" points="902.922,1328.66 902.922,1309.77 "/>
<polyline clip-path="url(#clip280)" style="stroke:#000000; stroke-linecap:round; stroke-linejoin:round; stroke-width:4; stroke-opacity:1; fill:none" points="1483.68,1328.66 1483.68,1309.77 "/>
<path clip-path="url(#clip280)" d="M272.279 1398.95 L279.918 1398.95 L279.918 1372.58 L271.607 1374.25 L271.607 1369.99 L279.871 1368.32 L284.547 1368.32 L284.547 1398.95 L292.186 1398.95 L292.186 1402.88 L272.279 1402.88 L272.279 1398.95 Z" fill="#000000" fill-rule="nonzero" fill-opacity="1" /><path clip-path="url(#clip280)" d="M311.63 1371.4 Q308.019 1371.4 306.191 1374.97 Q304.385 1378.51 304.385 1385.64 Q304.385 1392.75 306.191 1396.31 Q308.019 1399.85 311.63 1399.85 Q315.265 1399.85 317.07 1396.31 Q318.899 1392.75 318.899 1385.64 Q318.899 1378.51 317.07 1374.97 Q315.265 1371.4 311.63 1371.4 M311.63 1367.7 Q317.441 1367.7 320.496 1372.31 Q323.575 1376.89 323.575 1385.64 Q323.575 1394.37 320.496 1398.97 Q317.441 1403.56 311.63 1403.56 Q305.82 1403.56 302.742 1398.97 Q299.686 1394.37 299.686 1385.64 Q299.686 1376.89 302.742 1372.31 Q305.82 1367.7 311.63 1367.7 Z" fill="#000000" fill-rule="nonzero" fill-opacity="1" /><path clip-path="url(#clip280)" d="M323.575 1361.8 L347.686 1361.8 L347.686 1365 L323.575 1365 L323.575 1361.8 Z" fill="#000000" fill-rule="nonzero" fill-opacity="1" /><path clip-path="url(#clip280)" d="M356.545 1372.28 L362.751 1372.28 L362.751 1350.85 L355.999 1352.21 L355.999 1348.75 L362.714 1347.39 L366.513 1347.39 L366.513 1372.28 L372.719 1372.28 L372.719 1375.47 L356.545 1375.47 L356.545 1372.28 Z" fill="#000000" fill-rule="nonzero" fill-opacity="1" /><path clip-path="url(#clip280)" d="M867.905 1398.95 L875.544 1398.95 L875.544 1372.58 L867.234 1374.25 L867.234 1369.99 L875.498 1368.32 L880.174 1368.32 L880.174 1398.95 L887.812 1398.95 L887.812 1402.88 L867.905 1402.88 L867.905 1398.95 Z" fill="#000000" fill-rule="nonzero" fill-opacity="1" /><path clip-path="url(#clip280)" d="M907.257 1371.4 Q903.646 1371.4 901.817 1374.97 Q900.011 1378.51 900.011 1385.64 Q900.011 1392.75 901.817 1396.31 Q903.646 1399.85 907.257 1399.85 Q910.891 1399.85 912.697 1396.31 Q914.525 1392.75 914.525 1385.64 Q914.525 1378.51 912.697 1374.97 Q910.891 1371.4 907.257 1371.4 M907.257 1367.7 Q913.067 1367.7 916.122 1372.31 Q919.201 1376.89 919.201 1385.64 Q919.201 1394.37 916.122 1398.97 Q913.067 1403.56 907.257 1403.56 Q901.447 1403.56 898.368 1398.97 Q895.312 1394.37 895.312 1385.64 Q895.312 1376.89 898.368 1372.31 Q901.447 1367.7 907.257 1367.7 Z" fill="#000000" fill-rule="nonzero" fill-opacity="1" /><path clip-path="url(#clip280)" d="M928.906 1349.9 Q925.972 1349.9 924.486 1352.79 Q923.019 1355.67 923.019 1361.46 Q923.019 1367.24 924.486 1370.13 Q925.972 1373.01 928.906 1373.01 Q931.859 1373.01 933.326 1370.13 Q934.812 1367.24 934.812 1361.46 Q934.812 1355.67 933.326 1352.79 Q931.859 1349.9 928.906 1349.9 M928.906 1346.89 Q933.627 1346.89 936.109 1350.63 Q938.611 1354.35 938.611 1361.46 Q938.611 1368.55 936.109 1372.3 Q933.627 1376.02 928.906 1376.02 Q924.185 1376.02 921.684 1372.3 Q919.201 1368.55 919.201 1361.46 Q919.201 1354.35 921.684 1350.63 Q924.185 1346.89 928.906 1346.89 Z" fill="#000000" fill-rule="nonzero" fill-opacity="1" /><path clip-path="url(#clip280)" d="M1450.01 1398.95 L1457.65 1398.95 L1457.65 1372.58 L1449.34 1374.25 L1449.34 1369.99 L1457.6 1368.32 L1462.28 1368.32 L1462.28 1398.95 L1469.92 1398.95 L1469.92 1402.88 L1450.01 1402.88 L1450.01 1398.95 Z" fill="#000000" fill-rule="nonzero" fill-opacity="1" /><path clip-path="url(#clip280)" d="M1489.36 1371.4 Q1485.75 1371.4 1483.92 1374.97 Q1482.12 1378.51 1482.12 1385.64 Q1482.12 1392.75 1483.92 1396.31 Q1485.75 1399.85 1489.36 1399.85 Q1492.99 1399.85 1494.8 1396.31 Q1496.63 1392.75 1496.63 1385.64 Q1496.63 1378.51 1494.8 1374.97 Q1492.99 1371.4 1489.36 1371.4 M1489.36 1367.7 Q1495.17 1367.7 1498.23 1372.31 Q1501.3 1376.89 1501.3 1385.64 Q1501.3 1394.37 1498.23 1398.97 Q1495.17 1403.56 1489.36 1403.56 Q1483.55 1403.56 1480.47 1398.97 Q1477.42 1394.37 1477.42 1385.64 Q1477.42 1376.89 1480.47 1372.31 Q1483.55 1367.7 1489.36 1367.7 Z" fill="#000000" fill-rule="nonzero" fill-opacity="1" /><path clip-path="url(#clip280)" d="M1501.85 1372.28 L1508.06 1372.28 L1508.06 1350.85 L1501.3 1352.21 L1501.3 1348.75 L1508.02 1347.39 L1511.82 1347.39 L1511.82 1372.28 L1518.02 1372.28 L1518.02 1375.47 L1501.85 1375.47 L1501.85 1372.28 Z" fill="#000000" fill-rule="nonzero" fill-opacity="1" /><path clip-path="url(#clip280)" d="M794.692 1437.23 L822.001 1437.23 L822.001 1442.64 L801.121 1442.64 L801.121 1456.65 L819.964 1456.65 L819.964 1462.06 L801.121 1462.06 L801.121 1484.75 L794.692 1484.75 L794.692 1437.23 Z" fill="#000000" fill-rule="nonzero" fill-opacity="1" /><path clip-path="url(#clip280)" d="M847.845 1454.58 Q846.859 1454.01 845.681 1453.75 Q844.535 1453.47 843.135 1453.47 Q838.169 1453.47 835.496 1456.71 Q832.854 1459.93 832.854 1465.97 L832.854 1484.75 L826.966 1484.75 L826.966 1449.1 L832.854 1449.1 L832.854 1454.64 Q834.7 1451.4 837.66 1449.84 Q840.62 1448.25 844.853 1448.25 Q845.458 1448.25 846.19 1448.34 Q846.922 1448.4 847.813 1448.56 L847.845 1454.58 Z" fill="#000000" fill-rule="nonzero" fill-opacity="1" /><path clip-path="url(#clip280)" d="M883.048 1465.46 L883.048 1468.33 L856.121 1468.33 Q856.503 1474.38 859.749 1477.56 Q863.028 1480.71 868.852 1480.71 Q872.226 1480.71 875.377 1479.88 Q878.56 1479.06 881.679 1477.4 L881.679 1482.94 Q878.528 1484.28 875.218 1484.98 Q871.908 1485.68 868.502 1485.68 Q859.972 1485.68 854.975 1480.71 Q850.01 1475.75 850.01 1467.28 Q850.01 1458.53 854.72 1453.4 Q859.463 1448.25 867.484 1448.25 Q874.677 1448.25 878.846 1452.89 Q883.048 1457.51 883.048 1465.46 M877.191 1463.75 Q877.128 1458.94 874.486 1456.08 Q871.876 1453.21 867.547 1453.21 Q862.646 1453.21 859.686 1455.98 Q856.757 1458.75 856.312 1463.78 L877.191 1463.75 Z" fill="#000000" fill-rule="nonzero" fill-opacity="1" /><path clip-path="url(#clip280)" d="M896.161 1466.96 Q896.161 1473.42 898.803 1477.11 Q901.476 1480.77 906.123 1480.77 Q910.77 1480.77 913.444 1477.11 Q916.117 1473.42 916.117 1466.96 Q916.117 1460.5 913.444 1456.84 Q910.77 1453.15 906.123 1453.15 Q901.476 1453.15 898.803 1456.84 Q896.161 1460.5 896.161 1466.96 M916.117 1479.41 Q914.271 1482.59 911.439 1484.15 Q908.638 1485.68 904.691 1485.68 Q898.23 1485.68 894.156 1480.52 Q890.114 1475.36 890.114 1466.96 Q890.114 1458.56 894.156 1453.4 Q898.23 1448.25 904.691 1448.25 Q908.638 1448.25 911.439 1449.81 Q914.271 1451.33 916.117 1454.52 L916.117 1449.1 L921.974 1449.1 L921.974 1498.31 L916.117 1498.31 L916.117 1479.41 Z" fill="#000000" fill-rule="nonzero" fill-opacity="1" /><path clip-path="url(#clip280)" d="M933.432 1470.68 L933.432 1449.1 L939.289 1449.1 L939.289 1470.46 Q939.289 1475.52 941.262 1478.07 Q943.235 1480.58 947.182 1480.58 Q951.925 1480.58 954.662 1477.56 Q957.431 1474.54 957.431 1469.32 L957.431 1449.1 L963.287 1449.1 L963.287 1484.75 L957.431 1484.75 L957.431 1479.28 Q955.298 1482.52 952.466 1484.12 Q949.665 1485.68 945.941 1485.68 Q939.798 1485.68 936.615 1481.86 Q933.432 1478.04 933.432 1470.68 M948.169 1448.25 L948.169 1448.25 Z" fill="#000000" fill-rule="nonzero" fill-opacity="1" /><path clip-path="url(#clip280)" d="M1005.84 1465.46 L1005.84 1468.33 L978.915 1468.33 Q979.297 1474.38 982.544 1477.56 Q985.822 1480.71 991.647 1480.71 Q995.02 1480.71 998.171 1479.88 Q1001.35 1479.06 1004.47 1477.4 L1004.47 1482.94 Q1001.32 1484.28 998.012 1484.98 Q994.702 1485.68 991.296 1485.68 Q982.766 1485.68 977.769 1480.71 Q972.804 1475.75 972.804 1467.28 Q972.804 1458.53 977.515 1453.4 Q982.257 1448.25 990.278 1448.25 Q997.471 1448.25 1001.64 1452.89 Q1005.84 1457.51 1005.84 1465.46 M999.986 1463.75 Q999.922 1458.94 997.28 1456.08 Q994.67 1453.21 990.342 1453.21 Q985.44 1453.21 982.48 1455.98 Q979.552 1458.75 979.106 1463.78 L999.986 1463.75 Z" fill="#000000" fill-rule="nonzero" fill-opacity="1" /><path clip-path="url(#clip280)" d="M1045.09 1463.24 L1045.09 1484.75 L1039.23 1484.75 L1039.23 1463.43 Q1039.23 1458.37 1037.26 1455.85 Q1035.28 1453.34 1031.34 1453.34 Q1026.59 1453.34 1023.86 1456.36 Q1021.12 1459.39 1021.12 1464.61 L1021.12 1484.75 L1015.23 1484.75 L1015.23 1449.1 L1021.12 1449.1 L1021.12 1454.64 Q1023.22 1451.43 1026.05 1449.84 Q1028.92 1448.25 1032.64 1448.25 Q1038.78 1448.25 1041.94 1452.06 Q1045.09 1455.85 1045.09 1463.24 Z" fill="#000000" fill-rule="nonzero" fill-opacity="1" /><path clip-path="url(#clip280)" d="M1082.42 1450.47 L1082.42 1455.95 Q1079.94 1454.58 1077.42 1453.91 Q1074.94 1453.21 1072.4 1453.21 Q1066.7 1453.21 1063.55 1456.84 Q1060.4 1460.44 1060.4 1466.96 Q1060.4 1473.49 1063.55 1477.11 Q1066.7 1480.71 1072.4 1480.71 Q1074.94 1480.71 1077.42 1480.04 Q1079.94 1479.34 1082.42 1477.97 L1082.42 1483.38 Q1079.97 1484.53 1077.33 1485.1 Q1074.72 1485.68 1071.76 1485.68 Q1063.71 1485.68 1058.96 1480.62 Q1054.22 1475.55 1054.22 1466.96 Q1054.22 1458.24 1059 1453.24 Q1063.8 1448.25 1072.14 1448.25 Q1074.85 1448.25 1077.42 1448.82 Q1080 1449.36 1082.42 1450.47 Z" fill="#000000" fill-rule="nonzero" fill-opacity="1" /><path clip-path="url(#clip280)" d="M1107.44 1488.06 Q1104.96 1494.43 1102.6 1496.37 Q1100.25 1498.31 1096.3 1498.31 L1091.62 1498.31 L1091.62 1493.41 L1095.06 1493.41 Q1097.48 1493.41 1098.81 1492.26 Q1100.15 1491.12 1101.77 1486.85 L1102.82 1484.18 L1088.41 1449.1 L1094.61 1449.1 L1105.75 1476.99 L1116.89 1449.1 L1123.1 1449.1 L1107.44 1488.06 Z" fill="#000000" fill-rule="nonzero" fill-opacity="1" /><path clip-path="url(#clip280)" d="M1151.36 1435.23 L1164.86 1435.23 L1164.86 1439.78 L1157.22 1439.78 L1157.22 1488.8 L1164.86 1488.8 L1164.86 1493.35 L1151.36 1493.35 L1151.36 1435.23 Z" fill="#000000" fill-rule="nonzero" fill-opacity="1" /><path clip-path="url(#clip280)" d="M1197.99 1454.58 Q1197 1454.01 1195.83 1453.75 Q1194.68 1453.47 1193.28 1453.47 Q1188.32 1453.47 1185.64 1456.71 Q1183 1459.93 1183 1465.97 L1183 1484.75 L1177.11 1484.75 L1177.11 1449.1 L1183 1449.1 L1183 1454.64 Q1184.85 1451.4 1187.81 1449.84 Q1190.77 1448.25 1195 1448.25 Q1195.6 1448.25 1196.34 1448.34 Q1197.07 1448.4 1197.96 1448.56 L1197.99 1454.58 Z" fill="#000000" fill-rule="nonzero" fill-opacity="1" /><path clip-path="url(#clip280)" d="M1220.33 1466.83 Q1213.24 1466.83 1210.5 1468.46 Q1207.76 1470.08 1207.76 1473.99 Q1207.76 1477.11 1209.8 1478.96 Q1211.87 1480.77 1215.4 1480.77 Q1220.27 1480.77 1223.2 1477.34 Q1226.16 1473.87 1226.16 1468.14 L1226.16 1466.83 L1220.33 1466.83 M1232.02 1464.41 L1232.02 1484.75 L1226.16 1484.75 L1226.16 1479.34 Q1224.15 1482.59 1221.16 1484.15 Q1218.17 1485.68 1213.84 1485.68 Q1208.37 1485.68 1205.12 1482.62 Q1201.91 1479.53 1201.91 1474.38 Q1201.91 1468.36 1205.92 1465.31 Q1209.96 1462.25 1217.95 1462.25 L1226.16 1462.25 L1226.16 1461.68 Q1226.16 1457.63 1223.49 1455.44 Q1220.84 1453.21 1216.04 1453.21 Q1212.98 1453.21 1210.09 1453.94 Q1207.19 1454.67 1204.52 1456.14 L1204.52 1450.73 Q1207.73 1449.49 1210.75 1448.88 Q1213.78 1448.25 1216.64 1448.25 Q1224.38 1448.25 1228.2 1452.26 Q1232.02 1456.27 1232.02 1464.41 Z" fill="#000000" fill-rule="nonzero" fill-opacity="1" /><path clip-path="url(#clip280)" d="M1267.54 1454.52 L1267.54 1435.23 L1273.39 1435.23 L1273.39 1484.75 L1267.54 1484.75 L1267.54 1479.41 Q1265.69 1482.59 1262.86 1484.15 Q1260.06 1485.68 1256.11 1485.68 Q1249.65 1485.68 1245.57 1480.52 Q1241.53 1475.36 1241.53 1466.96 Q1241.53 1458.56 1245.57 1453.4 Q1249.65 1448.25 1256.11 1448.25 Q1260.06 1448.25 1262.86 1449.81 Q1265.69 1451.33 1267.54 1454.52 M1247.58 1466.96 Q1247.58 1473.42 1250.22 1477.11 Q1252.9 1480.77 1257.54 1480.77 Q1262.19 1480.77 1264.86 1477.11 Q1267.54 1473.42 1267.54 1466.96 Q1267.54 1460.5 1264.86 1456.84 Q1262.19 1453.15 1257.54 1453.15 Q1252.9 1453.15 1250.22 1456.84 Q1247.58 1460.5 1247.58 1466.96 Z" fill="#000000" fill-rule="nonzero" fill-opacity="1" /><path clip-path="url(#clip280)" d="M1295.86 1437.23 L1301.27 1437.23 L1284.72 1490.8 L1279.31 1490.8 L1295.86 1437.23 Z" fill="#000000" fill-rule="nonzero" fill-opacity="1" /><path clip-path="url(#clip280)" d="M1330.14 1450.16 L1330.14 1455.69 Q1327.66 1454.42 1324.99 1453.78 Q1322.31 1453.15 1319.45 1453.15 Q1315.09 1453.15 1312.89 1454.48 Q1310.73 1455.82 1310.73 1458.49 Q1310.73 1460.53 1312.29 1461.71 Q1313.85 1462.85 1318.56 1463.91 L1320.56 1464.35 Q1326.8 1465.69 1329.41 1468.14 Q1332.05 1470.56 1332.05 1474.92 Q1332.05 1479.88 1328.11 1482.78 Q1324.19 1485.68 1317.32 1485.68 Q1314.45 1485.68 1311.33 1485.1 Q1308.25 1484.56 1304.81 1483.45 L1304.81 1477.4 Q1308.05 1479.09 1311.21 1479.95 Q1314.36 1480.77 1317.44 1480.77 Q1321.58 1480.77 1323.81 1479.37 Q1326.04 1477.94 1326.04 1475.36 Q1326.04 1472.98 1324.41 1471.7 Q1322.82 1470.43 1317.38 1469.25 L1315.34 1468.77 Q1309.9 1467.63 1307.48 1465.27 Q1305.06 1462.89 1305.06 1458.75 Q1305.06 1453.72 1308.63 1450.98 Q1312.19 1448.25 1318.75 1448.25 Q1321.99 1448.25 1324.86 1448.72 Q1327.72 1449.2 1330.14 1450.16 Z" fill="#000000" fill-rule="nonzero" fill-opacity="1" /><path clip-path="url(#clip280)" d="M1355.06 1435.23 L1355.06 1493.35 L1341.57 1493.35 L1341.57 1488.8 L1349.18 1488.8 L1349.18 1439.78 L1341.57 1439.78 L1341.57 1435.23 L1355.06 1435.23 Z" fill="#000000" fill-rule="nonzero" fill-opacity="1" /><polyline clip-path="url(#clip280)" style="stroke:#000000; stroke-linecap:round; stroke-linejoin:round; stroke-width:4; stroke-opacity:1; fill:none" points="277.001,1328.66 277.001,778.858 "/>
<polyline clip-path="url(#clip280)" style="stroke:#000000; stroke-linecap:round; stroke-linejoin:round; stroke-width:4; stroke-opacity:1; fill:none" points="277.001,1316.38 295.898,1316.38 "/>
<polyline clip-path="url(#clip280)" style="stroke:#000000; stroke-linecap:round; stroke-linejoin:round; stroke-width:4; stroke-opacity:1; fill:none" points="277.001,1185.11 295.898,1185.11 "/>
<polyline clip-path="url(#clip280)" style="stroke:#000000; stroke-linecap:round; stroke-linejoin:round; stroke-width:4; stroke-opacity:1; fill:none" points="277.001,1053.84 295.898,1053.84 "/>
<polyline clip-path="url(#clip280)" style="stroke:#000000; stroke-linecap:round; stroke-linejoin:round; stroke-width:4; stroke-opacity:1; fill:none" points="277.001,922.577 295.898,922.577 "/>
<polyline clip-path="url(#clip280)" style="stroke:#000000; stroke-linecap:round; stroke-linejoin:round; stroke-width:4; stroke-opacity:1; fill:none" points="277.001,791.31 295.898,791.31 "/>
<path clip-path="url(#clip280)" d="M126.164 1316.83 L155.84 1316.83 L155.84 1320.76 L126.164 1320.76 L126.164 1316.83 Z" fill="#000000" fill-rule="nonzero" fill-opacity="1" /><path clip-path="url(#clip280)" d="M169.96 1329.72 L186.28 1329.72 L186.28 1333.66 L164.335 1333.66 L164.335 1329.72 Q166.997 1326.97 171.581 1322.34 Q176.187 1317.68 177.368 1316.34 Q179.613 1313.82 180.493 1312.08 Q181.395 1310.32 181.395 1308.63 Q181.395 1305.88 179.451 1304.14 Q177.53 1302.41 174.428 1302.41 Q172.229 1302.41 169.775 1303.17 Q167.344 1303.93 164.567 1305.48 L164.567 1300.76 Q167.391 1299.63 169.844 1299.05 Q172.298 1298.47 174.335 1298.47 Q179.706 1298.47 182.9 1301.16 Q186.094 1303.84 186.094 1308.33 Q186.094 1310.46 185.284 1312.38 Q184.497 1314.28 182.391 1316.87 Q181.812 1317.54 178.71 1320.76 Q175.608 1323.96 169.96 1329.72 Z" fill="#000000" fill-rule="nonzero" fill-opacity="1" /><path clip-path="url(#clip280)" d="M206.094 1302.17 Q202.483 1302.17 200.654 1305.74 Q198.849 1309.28 198.849 1316.41 Q198.849 1323.52 200.654 1327.08 Q202.483 1330.62 206.094 1330.62 Q209.729 1330.62 211.534 1327.08 Q213.363 1323.52 213.363 1316.41 Q213.363 1309.28 211.534 1305.74 Q209.729 1302.17 206.094 1302.17 M206.094 1298.47 Q211.904 1298.47 214.96 1303.08 Q218.039 1307.66 218.039 1316.41 Q218.039 1325.14 214.96 1329.74 Q211.904 1334.33 206.094 1334.33 Q200.284 1334.33 197.205 1329.74 Q194.15 1325.14 194.15 1316.41 Q194.15 1307.66 197.205 1303.08 Q200.284 1298.47 206.094 1298.47 Z" fill="#000000" fill-rule="nonzero" fill-opacity="1" /><path clip-path="url(#clip280)" d="M236.256 1302.17 Q232.645 1302.17 230.816 1305.74 Q229.011 1309.28 229.011 1316.41 Q229.011 1323.52 230.816 1327.08 Q232.645 1330.62 236.256 1330.62 Q239.89 1330.62 241.696 1327.08 Q243.525 1323.52 243.525 1316.41 Q243.525 1309.28 241.696 1305.74 Q239.89 1302.17 236.256 1302.17 M236.256 1298.47 Q242.066 1298.47 245.122 1303.08 Q248.201 1307.66 248.201 1316.41 Q248.201 1325.14 245.122 1329.74 Q242.066 1334.33 236.256 1334.33 Q230.446 1334.33 227.367 1329.74 Q224.312 1325.14 224.312 1316.41 Q224.312 1307.66 227.367 1303.08 Q230.446 1298.47 236.256 1298.47 Z" fill="#000000" fill-rule="nonzero" fill-opacity="1" /><path clip-path="url(#clip280)" d="M126.164 1185.56 L155.84 1185.56 L155.84 1189.5 L126.164 1189.5 L126.164 1185.56 Z" fill="#000000" fill-rule="nonzero" fill-opacity="1" /><path clip-path="url(#clip280)" d="M166.743 1198.45 L174.381 1198.45 L174.381 1172.09 L166.071 1173.76 L166.071 1169.5 L174.335 1167.83 L179.011 1167.83 L179.011 1198.45 L186.65 1198.45 L186.65 1202.39 L166.743 1202.39 L166.743 1198.45 Z" fill="#000000" fill-rule="nonzero" fill-opacity="1" /><path clip-path="url(#clip280)" d="M196.141 1167.83 L214.497 1167.83 L214.497 1171.76 L200.423 1171.76 L200.423 1180.24 Q201.442 1179.89 202.46 1179.73 Q203.479 1179.54 204.497 1179.54 Q210.284 1179.54 213.664 1182.71 Q217.043 1185.88 217.043 1191.3 Q217.043 1196.88 213.571 1199.98 Q210.099 1203.06 203.779 1203.06 Q201.604 1203.06 199.335 1202.69 Q197.09 1202.32 194.682 1201.58 L194.682 1196.88 Q196.766 1198.01 198.988 1198.57 Q201.21 1199.13 203.687 1199.13 Q207.691 1199.13 210.029 1197.02 Q212.367 1194.91 212.367 1191.3 Q212.367 1187.69 210.029 1185.58 Q207.691 1183.48 203.687 1183.48 Q201.812 1183.48 199.937 1183.89 Q198.085 1184.31 196.141 1185.19 L196.141 1167.83 Z" fill="#000000" fill-rule="nonzero" fill-opacity="1" /><path clip-path="url(#clip280)" d="M236.256 1170.91 Q232.645 1170.91 230.816 1174.47 Q229.011 1178.01 229.011 1185.14 Q229.011 1192.25 230.816 1195.82 Q232.645 1199.36 236.256 1199.36 Q239.89 1199.36 241.696 1195.82 Q243.525 1192.25 243.525 1185.14 Q243.525 1178.01 241.696 1174.47 Q239.89 1170.91 236.256 1170.91 M236.256 1167.2 Q242.066 1167.2 245.122 1171.81 Q248.201 1176.39 248.201 1185.14 Q248.201 1193.87 245.122 1198.48 Q242.066 1203.06 236.256 1203.06 Q230.446 1203.06 227.367 1198.48 Q224.312 1193.87 224.312 1185.14 Q224.312 1176.39 227.367 1171.81 Q230.446 1167.2 236.256 1167.2 Z" fill="#000000" fill-rule="nonzero" fill-opacity="1" /><path clip-path="url(#clip280)" d="M126.164 1054.29 L155.84 1054.29 L155.84 1058.23 L126.164 1058.23 L126.164 1054.29 Z" fill="#000000" fill-rule="nonzero" fill-opacity="1" /><path clip-path="url(#clip280)" d="M166.743 1067.19 L174.381 1067.19 L174.381 1040.82 L166.071 1042.49 L166.071 1038.23 L174.335 1036.56 L179.011 1036.56 L179.011 1067.19 L186.65 1067.19 L186.65 1071.12 L166.743 1071.12 L166.743 1067.19 Z" fill="#000000" fill-rule="nonzero" fill-opacity="1" /><path clip-path="url(#clip280)" d="M206.094 1039.64 Q202.483 1039.64 200.654 1043.21 Q198.849 1046.75 198.849 1053.88 Q198.849 1060.98 200.654 1064.55 Q202.483 1068.09 206.094 1068.09 Q209.729 1068.09 211.534 1064.55 Q213.363 1060.98 213.363 1053.88 Q213.363 1046.75 211.534 1043.21 Q209.729 1039.64 206.094 1039.64 M206.094 1035.94 Q211.904 1035.94 214.96 1040.54 Q218.039 1045.13 218.039 1053.88 Q218.039 1062.6 214.96 1067.21 Q211.904 1071.79 206.094 1071.79 Q200.284 1071.79 197.205 1067.21 Q194.15 1062.6 194.15 1053.88 Q194.15 1045.13 197.205 1040.54 Q200.284 1035.94 206.094 1035.94 Z" fill="#000000" fill-rule="nonzero" fill-opacity="1" /><path clip-path="url(#clip280)" d="M236.256 1039.64 Q232.645 1039.64 230.816 1043.21 Q229.011 1046.75 229.011 1053.88 Q229.011 1060.98 230.816 1064.55 Q232.645 1068.09 236.256 1068.09 Q239.89 1068.09 241.696 1064.55 Q243.525 1060.98 243.525 1053.88 Q243.525 1046.75 241.696 1043.21 Q239.89 1039.64 236.256 1039.64 M236.256 1035.94 Q242.066 1035.94 245.122 1040.54 Q248.201 1045.13 248.201 1053.88 Q248.201 1062.6 245.122 1067.21 Q242.066 1071.79 236.256 1071.79 Q230.446 1071.79 227.367 1067.21 Q224.312 1062.6 224.312 1053.88 Q224.312 1045.13 227.367 1040.54 Q230.446 1035.94 236.256 1035.94 Z" fill="#000000" fill-rule="nonzero" fill-opacity="1" /><path clip-path="url(#clip280)" d="M156.326 923.028 L186.002 923.028 L186.002 926.963 L156.326 926.963 L156.326 923.028 Z" fill="#000000" fill-rule="nonzero" fill-opacity="1" /><path clip-path="url(#clip280)" d="M196.141 905.297 L214.497 905.297 L214.497 909.232 L200.423 909.232 L200.423 917.704 Q201.442 917.357 202.46 917.195 Q203.479 917.009 204.497 917.009 Q210.284 917.009 213.664 920.181 Q217.043 923.352 217.043 928.769 Q217.043 934.347 213.571 937.449 Q210.099 940.528 203.779 940.528 Q201.604 940.528 199.335 940.157 Q197.09 939.787 194.682 939.046 L194.682 934.347 Q196.766 935.482 198.988 936.037 Q201.21 936.593 203.687 936.593 Q207.691 936.593 210.029 934.486 Q212.367 932.38 212.367 928.769 Q212.367 925.158 210.029 923.051 Q207.691 920.945 203.687 920.945 Q201.812 920.945 199.937 921.361 Q198.085 921.778 196.141 922.658 L196.141 905.297 Z" fill="#000000" fill-rule="nonzero" fill-opacity="1" /><path clip-path="url(#clip280)" d="M236.256 908.375 Q232.645 908.375 230.816 911.94 Q229.011 915.482 229.011 922.611 Q229.011 929.718 230.816 933.282 Q232.645 936.824 236.256 936.824 Q239.89 936.824 241.696 933.282 Q243.525 929.718 243.525 922.611 Q243.525 915.482 241.696 911.94 Q239.89 908.375 236.256 908.375 M236.256 904.672 Q242.066 904.672 245.122 909.278 Q248.201 913.861 248.201 922.611 Q248.201 931.338 245.122 935.945 Q242.066 940.528 236.256 940.528 Q230.446 940.528 227.367 935.945 Q224.312 931.338 224.312 922.611 Q224.312 913.861 227.367 909.278 Q230.446 904.672 236.256 904.672 Z" fill="#000000" fill-rule="nonzero" fill-opacity="1" /><path clip-path="url(#clip280)" d="M236.256 777.109 Q232.645 777.109 230.816 780.674 Q229.011 784.215 229.011 791.345 Q229.011 798.451 230.816 802.016 Q232.645 805.558 236.256 805.558 Q239.89 805.558 241.696 802.016 Q243.525 798.451 243.525 791.345 Q243.525 784.215 241.696 780.674 Q239.89 777.109 236.256 777.109 M236.256 773.405 Q242.066 773.405 245.122 778.012 Q248.201 782.595 248.201 791.345 Q248.201 800.072 245.122 804.678 Q242.066 809.261 236.256 809.261 Q230.446 809.261 227.367 804.678 Q224.312 800.072 224.312 791.345 Q224.312 782.595 227.367 778.012 Q230.446 773.405 236.256 773.405 Z" fill="#000000" fill-rule="nonzero" fill-opacity="1" /><path clip-path="url(#clip280)" d="M40.8717 1235.87 L58.7275 1235.87 L58.7275 1227.78 Q58.7275 1223.3 56.404 1220.84 Q54.0805 1218.39 49.7837 1218.39 Q45.5187 1218.39 43.1952 1220.84 Q40.8717 1223.3 40.8717 1227.78 L40.8717 1235.87 M35.5882 1242.3 L35.5882 1227.78 Q35.5882 1219.79 39.2166 1215.72 Q42.8132 1211.61 49.7837 1211.61 Q56.8178 1211.61 60.4144 1215.72 Q64.011 1219.79 64.011 1227.78 L64.011 1235.87 L83.1082 1235.87 L83.1082 1242.3 L35.5882 1242.3 Z" fill="#000000" fill-rule="nonzero" fill-opacity="1" /><path clip-path="url(#clip280)" d="M61.5921 1173.61 L83.1082 1173.61 L83.1082 1179.47 L61.783 1179.47 Q56.7223 1179.47 54.2078 1181.44 Q51.6934 1183.41 51.6934 1187.36 Q51.6934 1192.1 54.7171 1194.84 Q57.7408 1197.58 62.9607 1197.58 L83.1082 1197.58 L83.1082 1203.47 L33.583 1203.47 L33.583 1197.58 L52.9984 1197.58 Q49.7837 1195.48 48.1923 1192.64 Q46.6008 1189.78 46.6008 1186.06 Q46.6008 1179.91 50.4203 1176.76 Q54.2078 1173.61 61.5921 1173.61 Z" fill="#000000" fill-rule="nonzero" fill-opacity="1" /><path clip-path="url(#clip280)" d="M65.1887 1145.73 Q65.1887 1152.83 66.8119 1155.56 Q68.4352 1158.3 72.3501 1158.3 Q75.4693 1158.3 77.3154 1156.26 Q79.1296 1154.2 79.1296 1150.66 Q79.1296 1145.79 75.6921 1142.87 Q72.2228 1139.9 66.4937 1139.9 L65.1887 1139.9 L65.1887 1145.73 M62.7697 1134.05 L83.1082 1134.05 L83.1082 1139.9 L77.6973 1139.9 Q80.9438 1141.91 82.5034 1144.9 Q84.0312 1147.89 84.0312 1152.22 Q84.0312 1157.7 80.9756 1160.94 Q77.8883 1164.16 72.7321 1164.16 Q66.7165 1164.16 63.6609 1160.15 Q60.6054 1156.11 60.6054 1148.12 L60.6054 1139.9 L60.0325 1139.9 Q55.9902 1139.9 53.7941 1142.58 Q51.5661 1145.22 51.5661 1150.03 Q51.5661 1153.08 52.2981 1155.98 Q53.0302 1158.87 54.4943 1161.55 L49.0835 1161.55 Q47.8421 1158.33 47.2374 1155.31 Q46.6008 1152.29 46.6008 1149.42 Q46.6008 1141.69 50.6112 1137.87 Q54.6216 1134.05 62.7697 1134.05 Z" fill="#000000" fill-rule="nonzero" fill-opacity="1" /><path clip-path="url(#clip280)" d="M48.5105 1099.26 L54.0487 1099.26 Q52.7756 1101.74 52.139 1104.42 Q51.5024 1107.09 51.5024 1109.95 Q51.5024 1114.31 52.8392 1116.51 Q54.176 1118.68 56.8496 1118.68 Q58.8866 1118.68 60.0643 1117.12 Q61.2101 1115.56 62.2605 1110.85 L62.7061 1108.84 Q64.0429 1102.6 66.4937 1099.99 Q68.9126 1097.35 73.2731 1097.35 Q78.2384 1097.35 81.1348 1101.3 Q84.0312 1105.21 84.0312 1112.09 Q84.0312 1114.95 83.4583 1118.07 Q82.9172 1121.16 81.8032 1124.6 L75.7558 1124.6 Q77.4427 1121.35 78.302 1118.2 Q79.1296 1115.05 79.1296 1111.96 Q79.1296 1107.82 77.7291 1105.59 Q76.2969 1103.37 73.7187 1103.37 Q71.3316 1103.37 70.0585 1104.99 Q68.7853 1106.58 67.6077 1112.02 L67.1302 1114.06 Q65.9844 1119.5 63.6291 1121.92 Q61.242 1124.34 57.1042 1124.34 Q52.0753 1124.34 49.3381 1120.78 Q46.6008 1117.21 46.6008 1110.65 Q46.6008 1107.41 47.0783 1104.54 Q47.5557 1101.68 48.5105 1099.26 Z" fill="#000000" fill-rule="nonzero" fill-opacity="1" /><path clip-path="url(#clip280)" d="M63.8201 1057.53 L66.6846 1057.53 L66.6846 1084.46 Q72.7321 1084.08 75.9149 1080.83 Q79.0659 1077.55 79.0659 1071.73 Q79.0659 1068.35 78.2384 1065.2 Q77.4109 1062.02 75.7558 1058.9 L81.2939 1058.9 Q82.6307 1062.05 83.331 1065.36 Q84.0312 1068.67 84.0312 1072.08 Q84.0312 1080.61 79.0659 1085.61 Q74.1007 1090.57 65.6343 1090.57 Q56.8814 1090.57 51.7571 1085.86 Q46.6008 1081.12 46.6008 1073.1 Q46.6008 1065.9 51.2478 1061.73 Q55.8629 1057.53 63.8201 1057.53 M62.1013 1063.39 Q57.2952 1063.45 54.4306 1066.09 Q51.5661 1068.7 51.5661 1073.03 Q51.5661 1077.93 54.3352 1080.89 Q57.1042 1083.82 62.1332 1084.27 L62.1013 1063.39 Z" fill="#000000" fill-rule="nonzero" fill-opacity="1" /><path clip-path="url(#clip280)" d="M33.6466 1013.13 Q40.9672 1017.4 48.1286 1019.47 Q55.29 1021.53 62.6424 1021.53 Q69.9948 1021.53 77.2199 1019.47 Q84.4131 1017.37 91.7019 1013.13 L91.7019 1018.22 Q84.2222 1023 76.9971 1025.39 Q69.772 1027.74 62.6424 1027.74 Q55.5446 1027.74 48.3514 1025.39 Q41.1582 1023.03 33.6466 1018.22 L33.6466 1013.13 Z" fill="#000000" fill-rule="nonzero" fill-opacity="1" /><path clip-path="url(#clip280)" d="M52.8711 978.312 L33.583 978.312 L33.583 972.455 L83.1082 972.455 L83.1082 978.312 L77.761 978.312 Q80.9438 980.158 82.5034 982.99 Q84.0312 985.791 84.0312 989.738 Q84.0312 996.199 78.875 1000.27 Q73.7187 1004.32 65.316 1004.32 Q56.9133 1004.32 51.7571 1000.27 Q46.6008 996.199 46.6008 989.738 Q46.6008 985.791 48.1604 982.99 Q49.6882 980.158 52.8711 978.312 M65.316 998.268 Q71.7772 998.268 75.4693 995.626 Q79.1296 992.953 79.1296 988.306 Q79.1296 983.659 75.4693 980.985 Q71.7772 978.312 65.316 978.312 Q58.8548 978.312 55.1945 980.985 Q51.5024 983.659 51.5024 988.306 Q51.5024 992.953 55.1945 995.626 Q58.8548 998.268 65.316 998.268 Z" fill="#000000" fill-rule="nonzero" fill-opacity="1" /><path clip-path="url(#clip280)" d="M63.8201 929.9 L66.6846 929.9 L66.6846 956.827 Q72.7321 956.445 75.9149 953.199 Q79.0659 949.92 79.0659 944.096 Q79.0659 940.722 78.2384 937.571 Q77.4109 934.388 75.7558 931.269 L81.2939 931.269 Q82.6307 934.42 83.331 937.73 Q84.0312 941.04 84.0312 944.446 Q84.0312 952.976 79.0659 957.973 Q74.1007 962.938 65.6343 962.938 Q56.8814 962.938 51.7571 958.228 Q46.6008 953.485 46.6008 945.464 Q46.6008 938.271 51.2478 934.102 Q55.8629 929.9 63.8201 929.9 M62.1013 935.757 Q57.2952 935.82 54.4306 938.462 Q51.5661 941.072 51.5661 945.401 Q51.5661 950.302 54.3352 953.262 Q57.1042 956.191 62.1332 956.636 L62.1013 935.757 Z" fill="#000000" fill-rule="nonzero" fill-opacity="1" /><path clip-path="url(#clip280)" d="M64.8704 896.83 Q58.5047 896.83 55.0036 899.472 Q51.5024 902.082 51.5024 906.825 Q51.5024 911.535 55.0036 914.177 Q58.5047 916.787 64.8704 916.787 Q71.2043 916.787 74.7054 914.177 Q78.2066 911.535 78.2066 906.825 Q78.2066 902.082 74.7054 899.472 Q71.2043 896.83 64.8704 896.83 M78.684 890.974 Q87.787 890.974 92.2111 895.016 Q96.6671 899.058 96.6671 907.398 Q96.6671 910.485 96.1897 913.222 Q95.7441 915.959 94.7892 918.538 L89.0919 918.538 Q90.4924 915.959 91.1608 913.445 Q91.8292 910.93 91.8292 908.321 Q91.8292 902.56 88.8055 899.695 Q85.8136 896.83 79.7343 896.83 L76.8379 896.83 Q79.989 898.645 81.5486 901.477 Q83.1082 904.31 83.1082 908.257 Q83.1082 914.814 78.1111 918.824 Q73.114 922.834 64.8704 922.834 Q56.595 922.834 51.5979 918.824 Q46.6008 914.814 46.6008 908.257 Q46.6008 904.31 48.1604 901.477 Q49.72 898.645 52.8711 896.83 L47.4602 896.83 L47.4602 890.974 L78.684 890.974 Z" fill="#000000" fill-rule="nonzero" fill-opacity="1" /><path clip-path="url(#clip280)" d="M33.6466 879.834 L33.6466 874.741 Q41.1582 869.967 48.3514 867.612 Q55.5446 865.225 62.6424 865.225 Q69.772 865.225 76.9971 867.612 Q84.2222 869.967 91.7019 874.741 L91.7019 879.834 Q84.4131 875.601 77.2199 873.532 Q69.9948 871.431 62.6424 871.431 Q55.29 871.431 48.1286 873.532 Q40.9672 875.601 33.6466 879.834 Z" fill="#000000" fill-rule="nonzero" fill-opacity="1" /><polyline clip-path="url(#clip283)" style="stroke:#009af9; stroke-linecap:round; stroke-linejoin:round; stroke-width:4; stroke-opacity:1; fill:none" points="322.163,794.419 1090.05,855.506 1258.8,911.534 1313.85,936.907 1397.3,982.355 1486.19,1039.32 1531.76,1071.57 1570.34,1100.33 1646.89,1160.91 1715.8,1218.44 1777.84,1271.22 1827.59,1313.1 "/>
</svg>
