<?xml version="1.0" encoding="utf-8"?>
<svg xmlns="http://www.w3.org/2000/svg" xmlns:xlink="http://www.w3.org/1999/xlink" width="528" height="336" viewBox="0 0 2112 1344">
<defs>
  <clipPath id="clip640">
    <rect x="0" y="0" width="2112" height="1344"/>
  </clipPath>
</defs>
<path clip-path="url(#clip640)" d="M0 1344 L2112 1344 L2112 0 L0 0  Z" fill="#ffffff" fill-rule="evenodd" fill-opacity="1"/>
<defs>
  <clipPath id="clip641">
    <rect x="422" y="0" width="1479" height="1344"/>
  </clipPath>
</defs>
<path clip-path="url(#clip640)" d="M183.394 1234.58 L2064.76 1234.58 L2064.76 120.723 L183.394 120.723  Z" fill="#ffffff" fill-rule="evenodd" fill-opacity="1"/>
<defs>
  <clipPath id="clip642">
    <rect x="183" y="120" width="1882" height="1115"/>
  </clipPath>
</defs>
<polyline clip-path="url(#clip642)" style="stroke:#000000; stroke-linecap:round; stroke-linejoin:round; stroke-width:2; stroke-opacity:0.1; fill:none" points="236.64,1234.58 236.64,120.723 "/>
<polyline clip-path="url(#clip642)" style="stroke:#000000; stroke-linecap:round; stroke-linejoin:round; stroke-width:2; stroke-opacity:0.1; fill:none" points="680.358,1234.58 680.358,120.723 "/>
<polyline clip-path="url(#clip642)" style="stroke:#000000; stroke-linecap:round; stroke-linejoin:round; stroke-width:2; stroke-opacity:0.1; fill:none" points="1124.07,1234.58 1124.07,120.723 "/>
<polyline clip-path="url(#clip642)" style="stroke:#000000; stroke-linecap:round; stroke-linejoin:round; stroke-width:2; stroke-opacity:0.1; fill:none" points="1567.79,1234.58 1567.79,120.723 "/>
<polyline clip-path="url(#clip642)" style="stroke:#000000; stroke-linecap:round; stroke-linejoin:round; stroke-width:2; stroke-opacity:0.1; fill:none" points="2011.51,1234.58 2011.51,120.723 "/>
<polyline clip-path="url(#clip642)" style="stroke:#000000; stroke-linecap:round; stroke-linejoin:round; stroke-width:2; stroke-opacity:0.1; fill:none" points="183.394,1203.05 2064.76,1203.05 "/>
<polyline clip-path="url(#clip642)" style="stroke:#000000; stroke-linecap:round; stroke-linejoin:round; stroke-width:2; stroke-opacity:0.1; fill:none" points="183.394,940.353 2064.76,940.353 "/>
<polyline clip-path="url(#clip642)" style="stroke:#000000; stroke-linecap:round; stroke-linejoin:round; stroke-width:2; stroke-opacity:0.1; fill:none" points="183.394,677.651 2064.76,677.651 "/>
<polyline clip-path="url(#clip642)" style="stroke:#000000; stroke-linecap:round; stroke-linejoin:round; stroke-width:2; stroke-opacity:0.1; fill:none" points="183.394,414.949 2064.76,414.949 "/>
<polyline clip-path="url(#clip642)" style="stroke:#000000; stroke-linecap:round; stroke-linejoin:round; stroke-width:2; stroke-opacity:0.1; fill:none" points="183.394,152.247 2064.76,152.247 "/>
<polyline clip-path="url(#clip640)" style="stroke:#000000; stroke-linecap:round; stroke-linejoin:round; stroke-width:4; stroke-opacity:1; fill:none" points="183.394,1203.05 2064.76,1203.05 "/>
<polyline clip-path="url(#clip640)" style="stroke:#000000; stroke-linecap:round; stroke-linejoin:round; stroke-width:4; stroke-opacity:0; fill:none" points="236.64,1203.05 236.64,1203.05 "/>
<polyline clip-path="url(#clip640)" style="stroke:#000000; stroke-linecap:round; stroke-linejoin:round; stroke-width:4; stroke-opacity:0; fill:none" points="680.358,1203.05 680.358,1203.05 "/>
<polyline clip-path="url(#clip640)" style="stroke:#000000; stroke-linecap:round; stroke-linejoin:round; stroke-width:4; stroke-opacity:0; fill:none" points="1124.07,1203.05 1124.07,1203.05 "/>
<polyline clip-path="url(#clip640)" style="stroke:#000000; stroke-linecap:round; stroke-linejoin:round; stroke-width:4; stroke-opacity:0; fill:none" points="1567.79,1203.05 1567.79,1203.05 "/>
<polyline clip-path="url(#clip640)" style="stroke:#000000; stroke-linecap:round; stroke-linejoin:round; stroke-width:4; stroke-opacity:0; fill:none" points="2011.51,1203.05 2011.51,1203.05 "/>
<path clip-path="url(#clip640)" d="M190.703 1277.85 L220.379 1277.85 L220.379 1281.78 L190.703 1281.78 L190.703 1277.85 Z" fill="#000000" fill-rule="nonzero" fill-opacity="1" /><path clip-path="url(#clip640)" d="M234.499 1290.74 L250.818 1290.74 L250.818 1294.67 L228.874 1294.67 L228.874 1290.74 Q231.536 1287.99 236.119 1283.36 Q240.726 1278.7 241.906 1277.36 Q244.152 1274.84 245.031 1273.1 Q245.934 1271.34 245.934 1269.65 Q245.934 1266.9 243.99 1265.16 Q242.068 1263.42 238.966 1263.42 Q236.767 1263.42 234.314 1264.19 Q231.883 1264.95 229.105 1266.5 L229.105 1261.78 Q231.929 1260.65 234.383 1260.07 Q236.837 1259.49 238.874 1259.49 Q244.244 1259.49 247.439 1262.17 Q250.633 1264.86 250.633 1269.35 Q250.633 1271.48 249.823 1273.4 Q249.036 1275.3 246.929 1277.89 Q246.351 1278.56 243.249 1281.78 Q240.147 1284.98 234.499 1290.74 Z" fill="#000000" fill-rule="nonzero" fill-opacity="1" /><path clip-path="url(#clip640)" d="M270.633 1263.19 Q267.022 1263.19 265.193 1266.76 Q263.388 1270.3 263.388 1277.43 Q263.388 1284.54 265.193 1288.1 Q267.022 1291.64 270.633 1291.64 Q274.267 1291.64 276.073 1288.1 Q277.901 1284.54 277.901 1277.43 Q277.901 1270.3 276.073 1266.76 Q274.267 1263.19 270.633 1263.19 M270.633 1259.49 Q276.443 1259.49 279.499 1264.1 Q282.577 1268.68 282.577 1277.43 Q282.577 1286.16 279.499 1290.76 Q276.443 1295.35 270.633 1295.35 Q264.823 1295.35 261.744 1290.76 Q258.689 1286.16 258.689 1277.43 Q258.689 1268.68 261.744 1264.1 Q264.823 1259.49 270.633 1259.49 Z" fill="#000000" fill-rule="nonzero" fill-opacity="1" /><path clip-path="url(#clip640)" d="M634.918 1277.85 L664.594 1277.85 L664.594 1281.78 L634.918 1281.78 L634.918 1277.85 Z" fill="#000000" fill-rule="nonzero" fill-opacity="1" /><path clip-path="url(#clip640)" d="M675.496 1290.74 L683.135 1290.74 L683.135 1264.37 L674.825 1266.04 L674.825 1261.78 L683.089 1260.11 L687.765 1260.11 L687.765 1290.74 L695.404 1290.74 L695.404 1294.67 L675.496 1294.67 L675.496 1290.74 Z" fill="#000000" fill-rule="nonzero" fill-opacity="1" /><path clip-path="url(#clip640)" d="M704.894 1260.11 L723.251 1260.11 L723.251 1264.05 L709.177 1264.05 L709.177 1272.52 Q710.195 1272.17 711.214 1272.01 Q712.232 1271.83 713.251 1271.83 Q719.038 1271.83 722.417 1275 Q725.797 1278.17 725.797 1283.59 Q725.797 1289.17 722.325 1292.27 Q718.853 1295.35 712.533 1295.35 Q710.357 1295.35 708.089 1294.98 Q705.843 1294.61 703.436 1293.86 L703.436 1289.17 Q705.519 1290.3 707.742 1290.86 Q709.964 1291.41 712.441 1291.41 Q716.445 1291.41 718.783 1289.3 Q721.121 1287.2 721.121 1283.59 Q721.121 1279.98 718.783 1277.87 Q716.445 1275.76 712.441 1275.76 Q710.566 1275.76 708.691 1276.18 Q706.839 1276.6 704.894 1277.48 L704.894 1260.11 Z" fill="#000000" fill-rule="nonzero" fill-opacity="1" /><path clip-path="url(#clip640)" d="M1078.14 1277.85 L1107.81 1277.85 L1107.81 1281.78 L1078.14 1281.78 L1078.14 1277.85 Z" fill="#000000" fill-rule="nonzero" fill-opacity="1" /><path clip-path="url(#clip640)" d="M1118.72 1290.74 L1126.36 1290.74 L1126.36 1264.37 L1118.04 1266.04 L1118.04 1261.78 L1126.31 1260.11 L1130.98 1260.11 L1130.98 1290.74 L1138.62 1290.74 L1138.62 1294.67 L1118.72 1294.67 L1118.72 1290.74 Z" fill="#000000" fill-rule="nonzero" fill-opacity="1" /><path clip-path="url(#clip640)" d="M1158.07 1263.19 Q1154.46 1263.19 1152.63 1266.76 Q1150.82 1270.3 1150.82 1277.43 Q1150.82 1284.54 1152.63 1288.1 Q1154.46 1291.64 1158.07 1291.64 Q1161.7 1291.64 1163.51 1288.1 Q1165.34 1284.54 1165.34 1277.43 Q1165.34 1270.3 1163.51 1266.76 Q1161.7 1263.19 1158.07 1263.19 M1158.07 1259.49 Q1163.88 1259.49 1166.93 1264.1 Q1170.01 1268.68 1170.01 1277.43 Q1170.01 1286.16 1166.93 1290.76 Q1163.88 1295.35 1158.07 1295.35 Q1152.26 1295.35 1149.18 1290.76 Q1146.12 1286.16 1146.12 1277.43 Q1146.12 1268.68 1149.18 1264.1 Q1152.26 1259.49 1158.07 1259.49 Z" fill="#000000" fill-rule="nonzero" fill-opacity="1" /><path clip-path="url(#clip640)" d="M1537.43 1277.85 L1567.11 1277.85 L1567.11 1281.78 L1537.43 1281.78 L1537.43 1277.85 Z" fill="#000000" fill-rule="nonzero" fill-opacity="1" /><path clip-path="url(#clip640)" d="M1577.25 1260.11 L1595.6 1260.11 L1595.6 1264.05 L1581.53 1264.05 L1581.53 1272.52 Q1582.55 1272.17 1583.57 1272.01 Q1584.59 1271.83 1585.6 1271.83 Q1591.39 1271.83 1594.77 1275 Q1598.15 1278.17 1598.15 1283.59 Q1598.15 1289.17 1594.68 1292.27 Q1591.21 1295.35 1584.89 1295.35 Q1582.71 1295.35 1580.44 1294.98 Q1578.2 1294.61 1575.79 1293.86 L1575.79 1289.17 Q1577.87 1290.3 1580.1 1290.86 Q1582.32 1291.41 1584.79 1291.41 Q1588.8 1291.41 1591.14 1289.3 Q1593.48 1287.2 1593.48 1283.59 Q1593.48 1279.98 1591.14 1277.87 Q1588.8 1275.76 1584.79 1275.76 Q1582.92 1275.76 1581.04 1276.18 Q1579.19 1276.6 1577.25 1277.48 L1577.25 1260.11 Z" fill="#000000" fill-rule="nonzero" fill-opacity="1" /><path clip-path="url(#clip640)" d="M2011.51 1263.19 Q2007.9 1263.19 2006.07 1266.76 Q2004.26 1270.3 2004.26 1277.43 Q2004.26 1284.54 2006.07 1288.1 Q2007.9 1291.64 2011.51 1291.64 Q2015.14 1291.64 2016.95 1288.1 Q2018.78 1284.54 2018.78 1277.43 Q2018.78 1270.3 2016.95 1266.76 Q2015.14 1263.19 2011.51 1263.19 M2011.51 1259.49 Q2017.32 1259.49 2020.38 1264.1 Q2023.45 1268.68 2023.45 1277.43 Q2023.45 1286.16 2020.38 1290.76 Q2017.32 1295.35 2011.51 1295.35 Q2005.7 1295.35 2002.62 1290.76 Q1999.57 1286.16 1999.57 1277.43 Q1999.57 1268.68 2002.62 1264.1 Q2005.7 1259.49 2011.51 1259.49 Z" fill="#000000" fill-rule="nonzero" fill-opacity="1" /><polyline clip-path="url(#clip640)" style="stroke:#000000; stroke-linecap:round; stroke-linejoin:round; stroke-width:4; stroke-opacity:1; fill:none" points="2011.51,1234.58 2011.51,120.723 "/>
<polyline clip-path="url(#clip640)" style="stroke:#000000; stroke-linecap:round; stroke-linejoin:round; stroke-width:4; stroke-opacity:0; fill:none" points="2011.51,1203.05 2011.51,1203.05 "/>
<polyline clip-path="url(#clip640)" style="stroke:#000000; stroke-linecap:round; stroke-linejoin:round; stroke-width:4; stroke-opacity:0; fill:none" points="2011.51,940.353 2011.51,940.353 "/>
<polyline clip-path="url(#clip640)" style="stroke:#000000; stroke-linecap:round; stroke-linejoin:round; stroke-width:4; stroke-opacity:0; fill:none" points="2011.51,677.651 2011.51,677.651 "/>
<polyline clip-path="url(#clip640)" style="stroke:#000000; stroke-linecap:round; stroke-linejoin:round; stroke-width:4; stroke-opacity:0; fill:none" points="2011.51,414.949 2011.51,414.949 "/>
<polyline clip-path="url(#clip640)" style="stroke:#000000; stroke-linecap:round; stroke-linejoin:round; stroke-width:4; stroke-opacity:0; fill:none" points="2011.51,152.247 2011.51,152.247 "/>
<path clip-path="url(#clip640)" d="M64.3765 1188.85 Q60.7654 1188.85 58.9367 1192.42 Q57.1312 1195.96 57.1312 1203.09 Q57.1312 1210.2 58.9367 1213.76 Q60.7654 1217.3 64.3765 1217.3 Q68.0107 1217.3 69.8163 1213.76 Q71.645 1210.2 71.645 1203.09 Q71.645 1195.96 69.8163 1192.42 Q68.0107 1188.85 64.3765 1188.85 M64.3765 1185.15 Q70.1867 1185.15 73.2422 1189.76 Q76.3209 1194.34 76.3209 1203.09 Q76.3209 1211.82 73.2422 1216.42 Q70.1867 1221.01 64.3765 1221.01 Q58.5664 1221.01 55.4877 1216.42 Q52.4321 1211.82 52.4321 1203.09 Q52.4321 1194.34 55.4877 1189.76 Q58.5664 1185.15 64.3765 1185.15 Z" fill="#000000" fill-rule="nonzero" fill-opacity="1" /><path clip-path="url(#clip640)" d="M84.5384 1214.45 L89.4227 1214.45 L89.4227 1220.33 L84.5384 1220.33 L84.5384 1214.45 Z" fill="#000000" fill-rule="nonzero" fill-opacity="1" /><path clip-path="url(#clip640)" d="M109.608 1188.85 Q105.997 1188.85 104.168 1192.42 Q102.362 1195.96 102.362 1203.09 Q102.362 1210.2 104.168 1213.76 Q105.997 1217.3 109.608 1217.3 Q113.242 1217.3 115.048 1213.76 Q116.876 1210.2 116.876 1203.09 Q116.876 1195.96 115.048 1192.42 Q113.242 1188.85 109.608 1188.85 M109.608 1185.15 Q115.418 1185.15 118.473 1189.76 Q121.552 1194.34 121.552 1203.09 Q121.552 1211.82 118.473 1216.42 Q115.418 1221.01 109.608 1221.01 Q103.798 1221.01 100.719 1216.42 Q97.6634 1211.82 97.6634 1203.09 Q97.6634 1194.34 100.719 1189.76 Q103.798 1185.15 109.608 1185.15 Z" fill="#000000" fill-rule="nonzero" fill-opacity="1" /><path clip-path="url(#clip640)" d="M139.77 1188.85 Q136.159 1188.85 134.33 1192.42 Q132.524 1195.96 132.524 1203.09 Q132.524 1210.2 134.33 1213.76 Q136.159 1217.3 139.77 1217.3 Q143.404 1217.3 145.209 1213.76 Q147.038 1210.2 147.038 1203.09 Q147.038 1195.96 145.209 1192.42 Q143.404 1188.85 139.77 1188.85 M139.77 1185.15 Q145.58 1185.15 148.635 1189.76 Q151.714 1194.34 151.714 1203.09 Q151.714 1211.82 148.635 1216.42 Q145.58 1221.01 139.77 1221.01 Q133.959 1221.01 130.881 1216.42 Q127.825 1211.82 127.825 1203.09 Q127.825 1194.34 130.881 1189.76 Q133.959 1185.15 139.77 1185.15 Z" fill="#000000" fill-rule="nonzero" fill-opacity="1" /><path clip-path="url(#clip640)" d="M65.3719 926.151 Q61.7608 926.151 59.9321 929.716 Q58.1265 933.258 58.1265 940.387 Q58.1265 947.494 59.9321 951.059 Q61.7608 954.6 65.3719 954.6 Q69.0061 954.6 70.8117 951.059 Q72.6404 947.494 72.6404 940.387 Q72.6404 933.258 70.8117 929.716 Q69.0061 926.151 65.3719 926.151 M65.3719 922.448 Q71.182 922.448 74.2376 927.054 Q77.3163 931.638 77.3163 940.387 Q77.3163 949.114 74.2376 953.721 Q71.182 958.304 65.3719 958.304 Q59.5617 958.304 56.483 953.721 Q53.4275 949.114 53.4275 940.387 Q53.4275 931.638 56.483 927.054 Q59.5617 922.448 65.3719 922.448 Z" fill="#000000" fill-rule="nonzero" fill-opacity="1" /><path clip-path="url(#clip640)" d="M85.5338 951.753 L90.418 951.753 L90.418 957.633 L85.5338 957.633 L85.5338 951.753 Z" fill="#000000" fill-rule="nonzero" fill-opacity="1" /><path clip-path="url(#clip640)" d="M104.631 953.698 L120.95 953.698 L120.95 957.633 L99.006 957.633 L99.006 953.698 Q101.668 950.943 106.251 946.313 Q110.858 941.661 112.038 940.318 Q114.284 937.795 115.163 936.059 Q116.066 934.3 116.066 932.61 Q116.066 929.855 114.122 928.119 Q112.2 926.383 109.098 926.383 Q106.899 926.383 104.446 927.147 Q102.015 927.911 99.2374 929.462 L99.2374 924.739 Q102.061 923.605 104.515 923.026 Q106.969 922.448 109.006 922.448 Q114.376 922.448 117.571 925.133 Q120.765 927.818 120.765 932.309 Q120.765 934.438 119.955 936.36 Q119.168 938.258 117.061 940.85 Q116.483 941.522 113.381 944.739 Q110.279 947.934 104.631 953.698 Z" fill="#000000" fill-rule="nonzero" fill-opacity="1" /><path clip-path="url(#clip640)" d="M130.811 923.073 L149.168 923.073 L149.168 927.008 L135.094 927.008 L135.094 935.48 Q136.112 935.133 137.131 934.971 Q138.149 934.786 139.168 934.786 Q144.955 934.786 148.334 937.957 Q151.714 941.128 151.714 946.545 Q151.714 952.124 148.242 955.225 Q144.77 958.304 138.45 958.304 Q136.274 958.304 134.006 957.934 Q131.76 957.563 129.353 956.823 L129.353 952.124 Q131.436 953.258 133.659 953.813 Q135.881 954.369 138.358 954.369 Q142.362 954.369 144.7 952.262 Q147.038 950.156 147.038 946.545 Q147.038 942.934 144.7 940.827 Q142.362 938.721 138.358 938.721 Q136.483 938.721 134.608 939.137 Q132.756 939.554 130.811 940.434 L130.811 923.073 Z" fill="#000000" fill-rule="nonzero" fill-opacity="1" /><path clip-path="url(#clip640)" d="M64.3765 663.45 Q60.7654 663.45 58.9367 667.014 Q57.1312 670.556 57.1312 677.686 Q57.1312 684.792 58.9367 688.357 Q60.7654 691.899 64.3765 691.899 Q68.0107 691.899 69.8163 688.357 Q71.645 684.792 71.645 677.686 Q71.645 670.556 69.8163 667.014 Q68.0107 663.45 64.3765 663.45 M64.3765 659.746 Q70.1867 659.746 73.2422 664.352 Q76.3209 668.936 76.3209 677.686 Q76.3209 686.412 73.2422 691.019 Q70.1867 695.602 64.3765 695.602 Q58.5664 695.602 55.4877 691.019 Q52.4321 686.412 52.4321 677.686 Q52.4321 668.936 55.4877 664.352 Q58.5664 659.746 64.3765 659.746 Z" fill="#000000" fill-rule="nonzero" fill-opacity="1" /><path clip-path="url(#clip640)" d="M84.5384 689.051 L89.4227 689.051 L89.4227 694.931 L84.5384 694.931 L84.5384 689.051 Z" fill="#000000" fill-rule="nonzero" fill-opacity="1" /><path clip-path="url(#clip640)" d="M99.6541 660.371 L118.01 660.371 L118.01 664.306 L103.936 664.306 L103.936 672.778 Q104.955 672.431 105.974 672.269 Q106.992 672.084 108.011 672.084 Q113.798 672.084 117.177 675.255 Q120.557 678.426 120.557 683.843 Q120.557 689.422 117.085 692.524 Q113.612 695.602 107.293 695.602 Q105.117 695.602 102.849 695.232 Q100.603 694.861 98.1958 694.121 L98.1958 689.422 Q100.279 690.556 102.501 691.111 Q104.724 691.667 107.2 691.667 Q111.205 691.667 113.543 689.561 Q115.881 687.454 115.881 683.843 Q115.881 680.232 113.543 678.125 Q111.205 676.019 107.2 676.019 Q105.325 676.019 103.45 676.436 Q101.599 676.852 99.6541 677.732 L99.6541 660.371 Z" fill="#000000" fill-rule="nonzero" fill-opacity="1" /><path clip-path="url(#clip640)" d="M139.77 663.45 Q136.159 663.45 134.33 667.014 Q132.524 670.556 132.524 677.686 Q132.524 684.792 134.33 688.357 Q136.159 691.899 139.77 691.899 Q143.404 691.899 145.209 688.357 Q147.038 684.792 147.038 677.686 Q147.038 670.556 145.209 667.014 Q143.404 663.45 139.77 663.45 M139.77 659.746 Q145.58 659.746 148.635 664.352 Q151.714 668.936 151.714 677.686 Q151.714 686.412 148.635 691.019 Q145.58 695.602 139.77 695.602 Q133.959 695.602 130.881 691.019 Q127.825 686.412 127.825 677.686 Q127.825 668.936 130.881 664.352 Q133.959 659.746 139.77 659.746 Z" fill="#000000" fill-rule="nonzero" fill-opacity="1" /><path clip-path="url(#clip640)" d="M65.3719 400.748 Q61.7608 400.748 59.9321 404.313 Q58.1265 407.854 58.1265 414.984 Q58.1265 422.09 59.9321 425.655 Q61.7608 429.197 65.3719 429.197 Q69.0061 429.197 70.8117 425.655 Q72.6404 422.09 72.6404 414.984 Q72.6404 407.854 70.8117 404.313 Q69.0061 400.748 65.3719 400.748 M65.3719 397.044 Q71.182 397.044 74.2376 401.651 Q77.3163 406.234 77.3163 414.984 Q77.3163 423.711 74.2376 428.317 Q71.182 432.9 65.3719 432.9 Q59.5617 432.9 56.483 428.317 Q53.4275 423.711 53.4275 414.984 Q53.4275 406.234 56.483 401.651 Q59.5617 397.044 65.3719 397.044 Z" fill="#000000" fill-rule="nonzero" fill-opacity="1" /><path clip-path="url(#clip640)" d="M85.5338 426.349 L90.418 426.349 L90.418 432.229 L85.5338 432.229 L85.5338 426.349 Z" fill="#000000" fill-rule="nonzero" fill-opacity="1" /><path clip-path="url(#clip640)" d="M99.4226 397.669 L121.645 397.669 L121.645 399.66 L109.098 432.229 L104.214 432.229 L116.02 401.604 L99.4226 401.604 L99.4226 397.669 Z" fill="#000000" fill-rule="nonzero" fill-opacity="1" /><path clip-path="url(#clip640)" d="M130.811 397.669 L149.168 397.669 L149.168 401.604 L135.094 401.604 L135.094 410.076 Q136.112 409.729 137.131 409.567 Q138.149 409.382 139.168 409.382 Q144.955 409.382 148.334 412.553 Q151.714 415.725 151.714 421.141 Q151.714 426.72 148.242 429.822 Q144.77 432.9 138.45 432.9 Q136.274 432.9 134.006 432.53 Q131.76 432.16 129.353 431.419 L129.353 426.72 Q131.436 427.854 133.659 428.41 Q135.881 428.965 138.358 428.965 Q142.362 428.965 144.7 426.859 Q147.038 424.752 147.038 421.141 Q147.038 417.53 144.7 415.424 Q142.362 413.317 138.358 413.317 Q136.483 413.317 134.608 413.734 Q132.756 414.15 130.811 415.03 L130.811 397.669 Z" fill="#000000" fill-rule="nonzero" fill-opacity="1" /><path clip-path="url(#clip640)" d="M55.1867 165.592 L62.8256 165.592 L62.8256 139.226 L54.5154 140.893 L54.5154 136.634 L62.7793 134.967 L67.4552 134.967 L67.4552 165.592 L75.094 165.592 L75.094 169.527 L55.1867 169.527 L55.1867 165.592 Z" fill="#000000" fill-rule="nonzero" fill-opacity="1" /><path clip-path="url(#clip640)" d="M84.5384 163.648 L89.4227 163.648 L89.4227 169.527 L84.5384 169.527 L84.5384 163.648 Z" fill="#000000" fill-rule="nonzero" fill-opacity="1" /><path clip-path="url(#clip640)" d="M109.608 138.046 Q105.997 138.046 104.168 141.611 Q102.362 145.152 102.362 152.282 Q102.362 159.388 104.168 162.953 Q105.997 166.495 109.608 166.495 Q113.242 166.495 115.048 162.953 Q116.876 159.388 116.876 152.282 Q116.876 145.152 115.048 141.611 Q113.242 138.046 109.608 138.046 M109.608 134.342 Q115.418 134.342 118.473 138.949 Q121.552 143.532 121.552 152.282 Q121.552 161.009 118.473 165.615 Q115.418 170.199 109.608 170.199 Q103.798 170.199 100.719 165.615 Q97.6634 161.009 97.6634 152.282 Q97.6634 143.532 100.719 138.949 Q103.798 134.342 109.608 134.342 Z" fill="#000000" fill-rule="nonzero" fill-opacity="1" /><path clip-path="url(#clip640)" d="M139.77 138.046 Q136.159 138.046 134.33 141.611 Q132.524 145.152 132.524 152.282 Q132.524 159.388 134.33 162.953 Q136.159 166.495 139.77 166.495 Q143.404 166.495 145.209 162.953 Q147.038 159.388 147.038 152.282 Q147.038 145.152 145.209 141.611 Q143.404 138.046 139.77 138.046 M139.77 134.342 Q145.58 134.342 148.635 138.949 Q151.714 143.532 151.714 152.282 Q151.714 161.009 148.635 165.615 Q145.58 170.199 139.77 170.199 Q133.959 170.199 130.881 165.615 Q127.825 161.009 127.825 152.282 Q127.825 143.532 130.881 138.949 Q133.959 134.342 139.77 134.342 Z" fill="#000000" fill-rule="nonzero" fill-opacity="1" /><path clip-path="url(#clip640)" d="M843.509 18.8205 L843.509 41.5461 L853.799 41.5461 Q859.51 41.5461 862.63 38.5889 Q865.749 35.6318 865.749 30.163 Q865.749 24.7348 862.63 21.7777 Q859.51 18.8205 853.799 18.8205 L843.509 18.8205 M835.327 12.096 L853.799 12.096 Q863.966 12.096 869.152 16.714 Q874.377 21.2916 874.377 30.163 Q874.377 39.1155 869.152 43.6931 Q863.966 48.2706 853.799 48.2706 L843.509 48.2706 L843.509 72.576 L835.327 72.576 L835.327 12.096 Z" fill="#000000" fill-rule="nonzero" fill-opacity="1" /><path clip-path="url(#clip640)" d="M899.655 32.4315 Q893.66 32.4315 890.176 37.1306 Q886.692 41.7891 886.692 49.9314 Q886.692 58.0738 890.135 62.7728 Q893.619 67.4314 899.655 67.4314 Q905.61 67.4314 909.093 62.7323 Q912.577 58.0333 912.577 49.9314 Q912.577 41.8701 909.093 37.1711 Q905.61 32.4315 899.655 32.4315 M899.655 26.1121 Q909.377 26.1121 914.927 32.4315 Q920.477 38.7509 920.477 49.9314 Q920.477 61.0714 914.927 67.4314 Q909.377 73.7508 899.655 73.7508 Q889.892 73.7508 884.342 67.4314 Q878.833 61.0714 878.833 49.9314 Q878.833 38.7509 884.342 32.4315 Q889.892 26.1121 899.655 26.1121 Z" fill="#000000" fill-rule="nonzero" fill-opacity="1" /><path clip-path="url(#clip640)" d="M932.832 9.54393 L940.285 9.54393 L940.285 72.576 L932.832 72.576 L932.832 9.54393 Z" fill="#000000" fill-rule="nonzero" fill-opacity="1" /><path clip-path="url(#clip640)" d="M994.689 48.0275 L994.689 51.6733 L960.418 51.6733 Q960.905 59.3701 965.036 63.421 Q969.209 67.4314 976.622 67.4314 Q980.916 67.4314 984.926 66.3781 Q988.977 65.3249 992.947 63.2184 L992.947 70.267 Q988.937 71.9684 984.724 72.8596 Q980.511 73.7508 976.176 73.7508 Q965.32 73.7508 958.96 67.4314 Q952.641 61.1119 952.641 50.3365 Q952.641 39.1965 958.636 32.6746 Q964.672 26.1121 974.88 26.1121 Q984.035 26.1121 989.342 32.0264 Q994.689 37.9003 994.689 48.0275 M987.235 45.84 Q987.154 39.7232 983.792 36.0774 Q980.47 32.4315 974.961 32.4315 Q968.723 32.4315 964.955 35.9558 Q961.229 39.4801 960.661 45.8805 L987.235 45.84 Z" fill="#000000" fill-rule="nonzero" fill-opacity="1" /><path clip-path="url(#clip640)" d="M1003.16 46.5287 L1024.99 46.5287 L1024.99 53.1722 L1003.16 53.1722 L1003.16 46.5287 Z" fill="#000000" fill-rule="nonzero" fill-opacity="1" /><path clip-path="url(#clip640)" d="M1033.62 27.2059 L1069.02 27.2059 L1069.02 34.0114 L1040.99 66.6212 L1069.02 66.6212 L1069.02 72.576 L1032.61 72.576 L1032.61 65.7705 L1060.64 33.1607 L1033.62 33.1607 L1033.62 27.2059 Z" fill="#000000" fill-rule="nonzero" fill-opacity="1" /><path clip-path="url(#clip640)" d="M1119.21 48.0275 L1119.21 51.6733 L1084.94 51.6733 Q1085.43 59.3701 1089.56 63.421 Q1093.73 67.4314 1101.15 67.4314 Q1105.44 67.4314 1109.45 66.3781 Q1113.5 65.3249 1117.47 63.2184 L1117.47 70.267 Q1113.46 71.9684 1109.25 72.8596 Q1105.04 73.7508 1100.7 73.7508 Q1089.84 73.7508 1083.48 67.4314 Q1077.17 61.1119 1077.17 50.3365 Q1077.17 39.1965 1083.16 32.6746 Q1089.2 26.1121 1099.4 26.1121 Q1108.56 26.1121 1113.87 32.0264 Q1119.21 37.9003 1119.21 48.0275 M1111.76 45.84 Q1111.68 39.7232 1108.32 36.0774 Q1105 32.4315 1099.49 32.4315 Q1093.25 32.4315 1089.48 35.9558 Q1085.75 39.4801 1085.19 45.8805 L1111.76 45.84 Z" fill="#000000" fill-rule="nonzero" fill-opacity="1" /><path clip-path="url(#clip640)" d="M1157.74 34.1734 Q1156.48 33.4443 1154.98 33.1202 Q1153.53 32.7556 1151.74 32.7556 Q1145.42 32.7556 1142.02 36.8875 Q1138.66 40.9789 1138.66 48.6757 L1138.66 72.576 L1131.16 72.576 L1131.16 27.2059 L1138.66 27.2059 L1138.66 34.2544 Q1141.01 30.1225 1144.78 28.1376 Q1148.54 26.1121 1153.93 26.1121 Q1154.7 26.1121 1155.63 26.2337 Q1156.56 26.3147 1157.7 26.5172 L1157.74 34.1734 Z" fill="#000000" fill-rule="nonzero" fill-opacity="1" /><path clip-path="url(#clip640)" d="M1181.31 32.4315 Q1175.32 32.4315 1171.84 37.1306 Q1168.35 41.7891 1168.35 49.9314 Q1168.35 58.0738 1171.79 62.7728 Q1175.28 67.4314 1181.31 67.4314 Q1187.27 67.4314 1190.75 62.7323 Q1194.24 58.0333 1194.24 49.9314 Q1194.24 41.8701 1190.75 37.1711 Q1187.27 32.4315 1181.31 32.4315 M1181.31 26.1121 Q1191.04 26.1121 1196.59 32.4315 Q1202.14 38.7509 1202.14 49.9314 Q1202.14 61.0714 1196.59 67.4314 Q1191.04 73.7508 1181.31 73.7508 Q1171.55 73.7508 1166 67.4314 Q1160.49 61.0714 1160.49 49.9314 Q1160.49 38.7509 1166 32.4315 Q1171.55 26.1121 1181.31 26.1121 Z" fill="#000000" fill-rule="nonzero" fill-opacity="1" /><path clip-path="url(#clip640)" d="M1276.19 35.9153 Q1278.98 30.8922 1282.87 28.5022 Q1286.76 26.1121 1292.03 26.1121 Q1299.11 26.1121 1302.96 31.0947 Q1306.81 36.0368 1306.81 45.1919 L1306.81 72.576 L1299.32 72.576 L1299.32 45.4349 Q1299.32 38.913 1297.01 35.7533 Q1294.7 32.5936 1289.96 32.5936 Q1284.17 32.5936 1280.8 36.4419 Q1277.44 40.2903 1277.44 46.9338 L1277.44 72.576 L1269.95 72.576 L1269.95 45.4349 Q1269.95 38.8725 1267.64 35.7533 Q1265.33 32.5936 1260.51 32.5936 Q1254.8 32.5936 1251.44 36.4824 Q1248.07 40.3308 1248.07 46.9338 L1248.07 72.576 L1240.58 72.576 L1240.58 27.2059 L1248.07 27.2059 L1248.07 34.2544 Q1250.63 30.082 1254.19 28.0971 Q1257.75 26.1121 1262.66 26.1121 Q1267.6 26.1121 1271.04 28.6237 Q1274.53 31.1352 1276.19 35.9153 Z" fill="#000000" fill-rule="nonzero" fill-opacity="1" /><path clip-path="url(#clip640)" d="M1342.3 49.7694 Q1333.26 49.7694 1329.78 51.8354 Q1326.3 53.9013 1326.3 58.8839 Q1326.3 62.8538 1328.89 65.2034 Q1331.52 67.5124 1336.02 67.5124 Q1342.22 67.5124 1345.94 63.1374 Q1349.71 58.7219 1349.71 51.4303 L1349.71 49.7694 L1342.3 49.7694 M1357.16 46.6907 L1357.16 72.576 L1349.71 72.576 L1349.71 65.6895 Q1347.16 69.8214 1343.35 71.8063 Q1339.54 73.7508 1334.03 73.7508 Q1327.07 73.7508 1322.93 69.8619 Q1318.84 65.9325 1318.84 59.3701 Q1318.84 51.7138 1323.95 47.825 Q1329.09 43.9361 1339.26 43.9361 L1349.71 43.9361 L1349.71 43.2069 Q1349.71 38.0623 1346.31 35.2672 Q1342.95 32.4315 1336.83 32.4315 Q1332.94 32.4315 1329.25 33.3632 Q1325.57 34.295 1322.16 36.1584 L1322.16 29.2718 Q1326.26 27.692 1330.1 26.9223 Q1333.95 26.1121 1337.6 26.1121 Q1347.44 26.1121 1352.3 31.2163 Q1357.16 36.3204 1357.16 46.6907 Z" fill="#000000" fill-rule="nonzero" fill-opacity="1" /><path clip-path="url(#clip640)" d="M1379.73 65.7705 L1379.73 89.8329 L1372.23 89.8329 L1372.23 27.2059 L1379.73 27.2059 L1379.73 34.0924 Q1382.08 30.0415 1385.64 28.0971 Q1389.25 26.1121 1394.23 26.1121 Q1402.49 26.1121 1407.64 32.6746 Q1412.82 39.2371 1412.82 49.9314 Q1412.82 60.6258 1407.64 67.1883 Q1402.49 73.7508 1394.23 73.7508 Q1389.25 73.7508 1385.64 71.8063 Q1382.08 69.8214 1379.73 65.7705 M1405.09 49.9314 Q1405.09 41.7081 1401.68 37.0496 Q1398.32 32.3505 1392.41 32.3505 Q1386.49 32.3505 1383.09 37.0496 Q1379.73 41.7081 1379.73 49.9314 Q1379.73 58.1548 1383.09 62.8538 Q1386.49 67.5124 1392.41 67.5124 Q1398.32 67.5124 1401.68 62.8538 Q1405.09 58.1548 1405.09 49.9314 Z" fill="#000000" fill-rule="nonzero" fill-opacity="1" /><line clip-path="url(#clip642)" x1="2011.51" y1="1203.05" x2="1951.51" y2="1143.05" style="stroke:#009af9; stroke-width:2.688; stroke-opacity:0.5"/>
<line clip-path="url(#clip642)" x1="2011.51" y1="1203.05" x2="1951.51" y2="1263.05" style="stroke:#009af9; stroke-width:2.688; stroke-opacity:0.5"/>
<line clip-path="url(#clip642)" x1="2011.51" y1="1203.05" x2="2071.51" y2="1263.05" style="stroke:#009af9; stroke-width:2.688; stroke-opacity:0.5"/>
<line clip-path="url(#clip642)" x1="2011.51" y1="1203.05" x2="2071.51" y2="1143.05" style="stroke:#009af9; stroke-width:2.688; stroke-opacity:0.5"/>
<line clip-path="url(#clip642)" x1="1922.77" y1="1203.05" x2="1862.77" y2="1143.05" style="stroke:#009af9; stroke-width:2.688; stroke-opacity:0.5"/>
<line clip-path="url(#clip642)" x1="1922.77" y1="1203.05" x2="1862.77" y2="1263.05" style="stroke:#009af9; stroke-width:2.688; stroke-opacity:0.5"/>
<line clip-path="url(#clip642)" x1="1922.77" y1="1203.05" x2="1982.77" y2="1263.05" style="stroke:#009af9; stroke-width:2.688; stroke-opacity:0.5"/>
<line clip-path="url(#clip642)" x1="1922.77" y1="1203.05" x2="1982.77" y2="1143.05" style="stroke:#009af9; stroke-width:2.688; stroke-opacity:0.5"/>
<line clip-path="url(#clip642)" x1="236.64" y1="1203.05" x2="176.64" y2="1143.05" style="stroke:#009af9; stroke-width:2.688; stroke-opacity:0.5"/>
<line clip-path="url(#clip642)" x1="236.64" y1="1203.05" x2="176.64" y2="1263.05" style="stroke:#009af9; stroke-width:2.688; stroke-opacity:0.5"/>
<line clip-path="url(#clip642)" x1="236.64" y1="1203.05" x2="296.64" y2="1263.05" style="stroke:#009af9; stroke-width:2.688; stroke-opacity:0.5"/>
<line clip-path="url(#clip642)" x1="236.64" y1="1203.05" x2="296.64" y2="1143.05" style="stroke:#009af9; stroke-width:2.688; stroke-opacity:0.5"/>
</svg>
