<?xml version="1.0" encoding="utf-8"?>
<svg xmlns="http://www.w3.org/2000/svg" xmlns:xlink="http://www.w3.org/1999/xlink" width="672" height="480" viewBox="0 0 2688 1920">
<defs>
  <clipPath id="clip100">
    <rect x="0" y="0" width="2688" height="1920"/>
  </clipPath>
</defs>
<path clip-path="url(#clip100)" d="M0 1920 L2688 1920 L2688 0 L0 0  Z" fill="#ffffff" fill-rule="evenodd" fill-opacity="1"/>
<defs>
  <clipPath id="clip101">
    <rect x="537" y="0" width="1883" height="1883"/>
  </clipPath>
</defs>
<path clip-path="url(#clip100)" d="M278.571 834.562 L1341.46 834.562 L1341.46 127.792 L278.571 127.792  Z" fill="#ffffff" fill-rule="evenodd" fill-opacity="1"/>
<defs>
  <clipPath id="clip102">
    <rect x="278" y="127" width="1064" height="708"/>
  </clipPath>
</defs>
<polyline clip-path="url(#clip102)" style="stroke:#000000; stroke-linecap:round; stroke-linejoin:round; stroke-width:2; stroke-opacity:0.1; fill:none" points="709.745,834.562 709.745,127.792 "/>
<polyline clip-path="url(#clip102)" style="stroke:#000000; stroke-linecap:round; stroke-linejoin:round; stroke-width:2; stroke-opacity:0.1; fill:none" points="1311.38,834.562 1311.38,127.792 "/>
<polyline clip-path="url(#clip102)" style="stroke:#000000; stroke-linecap:round; stroke-linejoin:round; stroke-width:2; stroke-opacity:0.1; fill:none" points="278.571,800.874 1341.46,800.874 "/>
<polyline clip-path="url(#clip102)" style="stroke:#000000; stroke-linecap:round; stroke-linejoin:round; stroke-width:2; stroke-opacity:0.1; fill:none" points="278.571,629.011 1341.46,629.011 "/>
<polyline clip-path="url(#clip102)" style="stroke:#000000; stroke-linecap:round; stroke-linejoin:round; stroke-width:2; stroke-opacity:0.1; fill:none" points="278.571,457.148 1341.46,457.148 "/>
<polyline clip-path="url(#clip102)" style="stroke:#000000; stroke-linecap:round; stroke-linejoin:round; stroke-width:2; stroke-opacity:0.1; fill:none" points="278.571,285.284 1341.46,285.284 "/>
<polyline clip-path="url(#clip100)" style="stroke:#000000; stroke-linecap:round; stroke-linejoin:round; stroke-width:4; stroke-opacity:1; fill:none" points="278.571,834.562 1341.46,834.562 "/>
<polyline clip-path="url(#clip100)" style="stroke:#000000; stroke-linecap:round; stroke-linejoin:round; stroke-width:4; stroke-opacity:1; fill:none" points="709.745,834.562 709.745,815.664 "/>
<polyline clip-path="url(#clip100)" style="stroke:#000000; stroke-linecap:round; stroke-linejoin:round; stroke-width:4; stroke-opacity:1; fill:none" points="1311.38,834.562 1311.38,815.664 "/>
<path clip-path="url(#clip100)" d="M674.727 910.99 L682.366 910.99 L682.366 884.625 L674.056 886.291 L674.056 882.032 L682.32 880.366 L686.996 880.366 L686.996 910.99 L694.635 910.99 L694.635 914.926 L674.727 914.926 L674.727 910.99 Z" fill="#000000" fill-rule="nonzero" fill-opacity="1" /><path clip-path="url(#clip100)" d="M714.079 883.444 Q710.468 883.444 708.639 887.009 Q706.834 890.551 706.834 897.68 Q706.834 904.787 708.639 908.352 Q710.468 911.893 714.079 911.893 Q717.713 911.893 719.519 908.352 Q721.348 904.787 721.348 897.68 Q721.348 890.551 719.519 887.009 Q717.713 883.444 714.079 883.444 M714.079 879.741 Q719.889 879.741 722.945 884.347 Q726.023 888.93 726.023 897.68 Q726.023 906.407 722.945 911.014 Q719.889 915.597 714.079 915.597 Q708.269 915.597 705.19 911.014 Q702.135 906.407 702.135 897.68 Q702.135 888.93 705.19 884.347 Q708.269 879.741 714.079 879.741 Z" fill="#000000" fill-rule="nonzero" fill-opacity="1" /><path clip-path="url(#clip100)" d="M735.728 861.937 Q732.794 861.937 731.308 864.833 Q729.841 867.711 729.841 873.503 Q729.841 879.277 731.308 882.174 Q732.794 885.051 735.728 885.051 Q738.681 885.051 740.148 882.174 Q741.634 879.277 741.634 873.503 Q741.634 867.711 740.148 864.833 Q738.681 861.937 735.728 861.937 M735.728 858.927 Q740.449 858.927 742.932 862.67 Q745.433 866.394 745.433 873.503 Q745.433 880.594 742.932 884.337 Q740.449 888.061 735.728 888.061 Q731.008 888.061 728.506 884.337 Q726.023 880.594 726.023 873.503 Q726.023 866.394 728.506 862.67 Q731.008 858.927 735.728 858.927 Z" fill="#000000" fill-rule="nonzero" fill-opacity="1" /><path clip-path="url(#clip100)" d="M1276.83 910.99 L1284.46 910.99 L1284.46 884.625 L1276.15 886.291 L1276.15 882.032 L1284.42 880.366 L1289.09 880.366 L1289.09 910.99 L1296.73 910.99 L1296.73 914.926 L1276.83 914.926 L1276.83 910.99 Z" fill="#000000" fill-rule="nonzero" fill-opacity="1" /><path clip-path="url(#clip100)" d="M1316.18 883.444 Q1312.57 883.444 1310.74 887.009 Q1308.93 890.551 1308.93 897.68 Q1308.93 904.787 1310.74 908.352 Q1312.57 911.893 1316.18 911.893 Q1319.81 911.893 1321.62 908.352 Q1323.45 904.787 1323.45 897.68 Q1323.45 890.551 1321.62 887.009 Q1319.81 883.444 1316.18 883.444 M1316.18 879.741 Q1321.99 879.741 1325.04 884.347 Q1328.12 888.93 1328.12 897.68 Q1328.12 906.407 1325.04 911.014 Q1321.99 915.597 1316.18 915.597 Q1310.37 915.597 1307.29 911.014 Q1304.23 906.407 1304.23 897.68 Q1304.23 888.93 1307.29 884.347 Q1310.37 879.741 1316.18 879.741 Z" fill="#000000" fill-rule="nonzero" fill-opacity="1" /><path clip-path="url(#clip100)" d="M1340.82 872.375 Q1343.54 872.958 1345.07 874.801 Q1346.61 876.644 1346.61 879.353 Q1346.61 883.509 1343.75 885.785 Q1340.89 888.061 1335.63 888.061 Q1333.86 888.061 1331.98 887.703 Q1330.12 887.365 1328.12 886.669 L1328.12 883.001 Q1329.7 883.923 1331.58 884.393 Q1333.46 884.863 1335.51 884.863 Q1339.09 884.863 1340.95 883.453 Q1342.83 882.042 1342.83 879.353 Q1342.83 876.87 1341.08 875.478 Q1339.35 874.068 1336.25 874.068 L1332.97 874.068 L1332.97 870.946 L1336.4 870.946 Q1339.2 870.946 1340.69 869.836 Q1342.17 868.707 1342.17 866.601 Q1342.17 864.438 1340.63 863.291 Q1339.11 862.125 1336.25 862.125 Q1334.69 862.125 1332.9 862.463 Q1331.11 862.802 1328.97 863.516 L1328.97 860.131 Q1331.13 859.529 1333.01 859.228 Q1334.91 858.927 1336.59 858.927 Q1340.91 858.927 1343.43 860.902 Q1345.95 862.858 1345.95 866.206 Q1345.95 868.538 1344.62 870.156 Q1343.28 871.754 1340.82 872.375 Z" fill="#000000" fill-rule="nonzero" fill-opacity="1" /><polyline clip-path="url(#clip100)" style="stroke:#000000; stroke-linecap:round; stroke-linejoin:round; stroke-width:4; stroke-opacity:1; fill:none" points="278.571,834.562 278.571,127.792 "/>
<polyline clip-path="url(#clip100)" style="stroke:#000000; stroke-linecap:round; stroke-linejoin:round; stroke-width:4; stroke-opacity:1; fill:none" points="278.571,800.874 297.468,800.874 "/>
<polyline clip-path="url(#clip100)" style="stroke:#000000; stroke-linecap:round; stroke-linejoin:round; stroke-width:4; stroke-opacity:1; fill:none" points="278.571,629.011 297.468,629.011 "/>
<polyline clip-path="url(#clip100)" style="stroke:#000000; stroke-linecap:round; stroke-linejoin:round; stroke-width:4; stroke-opacity:1; fill:none" points="278.571,457.148 297.468,457.148 "/>
<polyline clip-path="url(#clip100)" style="stroke:#000000; stroke-linecap:round; stroke-linejoin:round; stroke-width:4; stroke-opacity:1; fill:none" points="278.571,285.284 297.468,285.284 "/>
<path clip-path="url(#clip100)" d="M116.214 801.326 L145.89 801.326 L145.89 805.261 L116.214 805.261 L116.214 801.326 Z" fill="#000000" fill-rule="nonzero" fill-opacity="1" /><path clip-path="url(#clip100)" d="M156.793 814.219 L164.432 814.219 L164.432 787.854 L156.122 789.52 L156.122 785.261 L164.385 783.594 L169.061 783.594 L169.061 814.219 L176.7 814.219 L176.7 818.154 L156.793 818.154 L156.793 814.219 Z" fill="#000000" fill-rule="nonzero" fill-opacity="1" /><path clip-path="url(#clip100)" d="M186.191 783.594 L204.547 783.594 L204.547 787.53 L190.473 787.53 L190.473 796.002 Q191.492 795.655 192.51 795.493 Q193.529 795.307 194.547 795.307 Q200.334 795.307 203.714 798.479 Q207.094 801.65 207.094 807.067 Q207.094 812.645 203.621 815.747 Q200.149 818.826 193.83 818.826 Q191.654 818.826 189.385 818.455 Q187.14 818.085 184.733 817.344 L184.733 812.645 Q186.816 813.779 189.038 814.335 Q191.26 814.891 193.737 814.891 Q197.742 814.891 200.08 812.784 Q202.418 810.678 202.418 807.067 Q202.418 803.455 200.08 801.349 Q197.742 799.242 193.737 799.242 Q191.862 799.242 189.987 799.659 Q188.135 800.076 186.191 800.955 L186.191 783.594 Z" fill="#000000" fill-rule="nonzero" fill-opacity="1" /><path clip-path="url(#clip100)" d="M226.306 786.673 Q222.695 786.673 220.867 790.238 Q219.061 793.78 219.061 800.909 Q219.061 808.016 220.867 811.58 Q222.695 815.122 226.306 815.122 Q229.941 815.122 231.746 811.58 Q233.575 808.016 233.575 800.909 Q233.575 793.78 231.746 790.238 Q229.941 786.673 226.306 786.673 M226.306 782.969 Q232.117 782.969 235.172 787.576 Q238.251 792.159 238.251 800.909 Q238.251 809.636 235.172 814.242 Q232.117 818.826 226.306 818.826 Q220.496 818.826 217.418 814.242 Q214.362 809.636 214.362 800.909 Q214.362 792.159 217.418 787.576 Q220.496 782.969 226.306 782.969 Z" fill="#000000" fill-rule="nonzero" fill-opacity="1" /><path clip-path="url(#clip100)" d="M116.214 629.462 L145.89 629.462 L145.89 633.398 L116.214 633.398 L116.214 629.462 Z" fill="#000000" fill-rule="nonzero" fill-opacity="1" /><path clip-path="url(#clip100)" d="M156.793 642.356 L164.432 642.356 L164.432 615.99 L156.122 617.657 L156.122 613.398 L164.385 611.731 L169.061 611.731 L169.061 642.356 L176.7 642.356 L176.7 646.291 L156.793 646.291 L156.793 642.356 Z" fill="#000000" fill-rule="nonzero" fill-opacity="1" /><path clip-path="url(#clip100)" d="M196.145 614.81 Q192.533 614.81 190.705 618.375 Q188.899 621.916 188.899 629.046 Q188.899 636.152 190.705 639.717 Q192.533 643.259 196.145 643.259 Q199.779 643.259 201.584 639.717 Q203.413 636.152 203.413 629.046 Q203.413 621.916 201.584 618.375 Q199.779 614.81 196.145 614.81 M196.145 611.106 Q201.955 611.106 205.01 615.712 Q208.089 620.296 208.089 629.046 Q208.089 637.773 205.01 642.379 Q201.955 646.962 196.145 646.962 Q190.334 646.962 187.256 642.379 Q184.2 637.773 184.2 629.046 Q184.2 620.296 187.256 615.712 Q190.334 611.106 196.145 611.106 Z" fill="#000000" fill-rule="nonzero" fill-opacity="1" /><path clip-path="url(#clip100)" d="M226.306 614.81 Q222.695 614.81 220.867 618.375 Q219.061 621.916 219.061 629.046 Q219.061 636.152 220.867 639.717 Q222.695 643.259 226.306 643.259 Q229.941 643.259 231.746 639.717 Q233.575 636.152 233.575 629.046 Q233.575 621.916 231.746 618.375 Q229.941 614.81 226.306 614.81 M226.306 611.106 Q232.117 611.106 235.172 615.712 Q238.251 620.296 238.251 629.046 Q238.251 637.773 235.172 642.379 Q232.117 646.962 226.306 646.962 Q220.496 646.962 217.418 642.379 Q214.362 637.773 214.362 629.046 Q214.362 620.296 217.418 615.712 Q220.496 611.106 226.306 611.106 Z" fill="#000000" fill-rule="nonzero" fill-opacity="1" /><path clip-path="url(#clip100)" d="M146.376 457.599 L176.052 457.599 L176.052 461.534 L146.376 461.534 L146.376 457.599 Z" fill="#000000" fill-rule="nonzero" fill-opacity="1" /><path clip-path="url(#clip100)" d="M186.191 439.868 L204.547 439.868 L204.547 443.803 L190.473 443.803 L190.473 452.275 Q191.492 451.928 192.51 451.766 Q193.529 451.581 194.547 451.581 Q200.334 451.581 203.714 454.752 Q207.094 457.923 207.094 463.34 Q207.094 468.918 203.621 472.02 Q200.149 475.099 193.83 475.099 Q191.654 475.099 189.385 474.729 Q187.14 474.358 184.733 473.617 L184.733 468.918 Q186.816 470.053 189.038 470.608 Q191.26 471.164 193.737 471.164 Q197.742 471.164 200.08 469.057 Q202.418 466.951 202.418 463.34 Q202.418 459.729 200.08 457.622 Q197.742 455.516 193.737 455.516 Q191.862 455.516 189.987 455.932 Q188.135 456.349 186.191 457.229 L186.191 439.868 Z" fill="#000000" fill-rule="nonzero" fill-opacity="1" /><path clip-path="url(#clip100)" d="M226.306 442.946 Q222.695 442.946 220.867 446.511 Q219.061 450.053 219.061 457.182 Q219.061 464.289 220.867 467.854 Q222.695 471.395 226.306 471.395 Q229.941 471.395 231.746 467.854 Q233.575 464.289 233.575 457.182 Q233.575 450.053 231.746 446.511 Q229.941 442.946 226.306 442.946 M226.306 439.243 Q232.117 439.243 235.172 443.849 Q238.251 448.432 238.251 457.182 Q238.251 465.909 235.172 470.516 Q232.117 475.099 226.306 475.099 Q220.496 475.099 217.418 470.516 Q214.362 465.909 214.362 457.182 Q214.362 448.432 217.418 443.849 Q220.496 439.243 226.306 439.243 Z" fill="#000000" fill-rule="nonzero" fill-opacity="1" /><path clip-path="url(#clip100)" d="M226.306 271.083 Q222.695 271.083 220.867 274.648 Q219.061 278.189 219.061 285.319 Q219.061 292.425 220.867 295.99 Q222.695 299.532 226.306 299.532 Q229.941 299.532 231.746 295.99 Q233.575 292.425 233.575 285.319 Q233.575 278.189 231.746 274.648 Q229.941 271.083 226.306 271.083 M226.306 267.379 Q232.117 267.379 235.172 271.986 Q238.251 276.569 238.251 285.319 Q238.251 294.046 235.172 298.652 Q232.117 303.236 226.306 303.236 Q220.496 303.236 217.418 298.652 Q214.362 294.046 214.362 285.319 Q214.362 276.569 217.418 271.986 Q220.496 267.379 226.306 267.379 Z" fill="#000000" fill-rule="nonzero" fill-opacity="1" /><path clip-path="url(#clip100)" d="M14.1184 726.686 L14.1184 717.106 L46.4562 704.979 L14.1184 692.789 L14.1184 683.208 L61.6384 683.208 L61.6384 689.479 L19.9112 689.479 L52.5037 701.733 L52.5037 708.194 L19.9112 720.448 L61.6384 720.448 L61.6384 726.686 L14.1184 726.686 Z" fill="#000000" fill-rule="nonzero" fill-opacity="1" /><path clip-path="url(#clip100)" d="M43.719 654.499 Q43.719 661.597 45.3422 664.334 Q46.9655 667.071 50.8804 667.071 Q53.9996 667.071 55.8457 665.034 Q57.6599 662.966 57.6599 659.433 Q57.6599 654.563 54.2224 651.635 Q50.7531 648.675 45.0239 648.675 L43.719 648.675 L43.719 654.499 M41.3 642.818 L61.6384 642.818 L61.6384 648.675 L56.2276 648.675 Q59.4741 650.68 61.0337 653.672 Q62.5615 656.663 62.5615 660.992 Q62.5615 666.467 59.5059 669.713 Q56.4186 672.928 51.2623 672.928 Q45.2467 672.928 42.1912 668.917 Q39.1357 664.875 39.1357 656.886 L39.1357 648.675 L38.5628 648.675 Q34.5205 648.675 32.3244 651.348 Q30.0964 653.99 30.0964 658.796 Q30.0964 661.852 30.8284 664.748 Q31.5605 667.644 33.0246 670.318 L27.6137 670.318 Q26.3724 667.103 25.7677 664.08 Q25.1311 661.056 25.1311 658.191 Q25.1311 650.457 29.1415 646.637 Q33.1519 642.818 41.3 642.818 Z" fill="#000000" fill-rule="nonzero" fill-opacity="1" /><path clip-path="url(#clip100)" d="M43.4007 607.297 Q37.035 607.297 33.5338 609.939 Q30.0327 612.549 30.0327 617.292 Q30.0327 622.002 33.5338 624.644 Q37.035 627.254 43.4007 627.254 Q49.7346 627.254 53.2357 624.644 Q56.7368 622.002 56.7368 617.292 Q56.7368 612.549 53.2357 609.939 Q49.7346 607.297 43.4007 607.297 M57.2143 601.441 Q66.3172 601.441 70.7414 605.483 Q75.1974 609.525 75.1974 617.864 Q75.1974 620.952 74.72 623.689 Q74.2744 626.426 73.3195 629.004 L67.6222 629.004 Q69.0227 626.426 69.6911 623.912 Q70.3595 621.397 70.3595 618.788 Q70.3595 613.027 67.3358 610.162 Q64.3439 607.297 58.2646 607.297 L55.3682 607.297 Q58.5192 609.112 60.0788 611.944 Q61.6384 614.777 61.6384 618.724 Q61.6384 625.281 56.6414 629.291 Q51.6443 633.301 43.4007 633.301 Q35.1253 633.301 30.1282 629.291 Q25.1311 625.281 25.1311 618.724 Q25.1311 614.777 26.6907 611.944 Q28.2503 609.112 31.4013 607.297 L25.9905 607.297 L25.9905 601.441 L57.2143 601.441 Z" fill="#000000" fill-rule="nonzero" fill-opacity="1" /><path clip-path="url(#clip100)" d="M40.1224 559.746 L61.6384 559.746 L61.6384 565.602 L40.3133 565.602 Q35.2526 565.602 32.7381 567.575 Q30.2237 569.549 30.2237 573.496 Q30.2237 578.238 33.2474 580.975 Q36.2711 583.712 41.491 583.712 L61.6384 583.712 L61.6384 589.601 L25.9905 589.601 L25.9905 583.712 L31.5287 583.712 Q28.314 581.612 26.7225 578.779 Q25.1311 575.914 25.1311 572.191 Q25.1311 566.048 28.9505 562.897 Q32.7381 559.746 40.1224 559.746 Z" fill="#000000" fill-rule="nonzero" fill-opacity="1" /><path clip-path="url(#clip100)" d="M25.9905 548.065 L25.9905 542.208 L61.6384 542.208 L61.6384 548.065 L25.9905 548.065 M12.1132 548.065 L12.1132 542.208 L19.5293 542.208 L19.5293 548.065 L12.1132 548.065 Z" fill="#000000" fill-rule="nonzero" fill-opacity="1" /><path clip-path="url(#clip100)" d="M15.869 524.161 L25.9905 524.161 L25.9905 512.098 L30.542 512.098 L30.542 524.161 L49.8937 524.161 Q54.2542 524.161 55.4955 522.984 Q56.7368 521.774 56.7368 518.114 L56.7368 512.098 L61.6384 512.098 L61.6384 518.114 Q61.6384 524.893 59.124 527.471 Q56.5777 530.05 49.8937 530.05 L30.542 530.05 L30.542 534.346 L25.9905 534.346 L25.9905 530.05 L15.869 530.05 L15.869 524.161 Z" fill="#000000" fill-rule="nonzero" fill-opacity="1" /><path clip-path="url(#clip100)" d="M47.5702 505.001 L25.9905 505.001 L25.9905 499.144 L47.3474 499.144 Q52.4082 499.144 54.9545 497.171 Q57.4689 495.197 57.4689 491.251 Q57.4689 486.508 54.4452 483.771 Q51.4215 481.002 46.2016 481.002 L25.9905 481.002 L25.9905 475.145 L61.6384 475.145 L61.6384 481.002 L56.1639 481.002 Q59.4104 483.134 61.0019 485.967 Q62.5615 488.768 62.5615 492.492 Q62.5615 498.635 58.742 501.818 Q54.9226 505.001 47.5702 505.001 M25.1311 490.264 L25.1311 490.264 Z" fill="#000000" fill-rule="nonzero" fill-opacity="1" /><path clip-path="url(#clip100)" d="M31.4013 439.625 L12.1132 439.625 L12.1132 433.768 L61.6384 433.768 L61.6384 439.625 L56.2912 439.625 Q59.4741 441.471 61.0337 444.304 Q62.5615 447.104 62.5615 451.051 Q62.5615 457.512 57.4052 461.586 Q52.249 465.629 43.8463 465.629 Q35.4436 465.629 30.2873 461.586 Q25.1311 457.512 25.1311 451.051 Q25.1311 447.104 26.6907 444.304 Q28.2185 441.471 31.4013 439.625 M43.8463 459.581 Q50.3075 459.581 53.9996 456.939 Q57.6599 454.266 57.6599 449.619 Q57.6599 444.972 53.9996 442.298 Q50.3075 439.625 43.8463 439.625 Q37.3851 439.625 33.7248 442.298 Q30.0327 444.972 30.0327 449.619 Q30.0327 454.266 33.7248 456.939 Q37.3851 459.581 43.8463 459.581 Z" fill="#000000" fill-rule="nonzero" fill-opacity="1" /><path clip-path="url(#clip100)" d="M42.3504 391.214 L45.2149 391.214 L45.2149 418.14 Q51.2623 417.759 54.4452 414.512 Q57.5962 411.234 57.5962 405.409 Q57.5962 402.035 56.7687 398.884 Q55.9411 395.701 54.2861 392.582 L59.8242 392.582 Q61.161 395.733 61.8612 399.043 Q62.5615 402.353 62.5615 405.759 Q62.5615 414.289 57.5962 419.286 Q52.631 424.252 44.1646 424.252 Q35.4117 424.252 30.2873 419.541 Q25.1311 414.798 25.1311 406.778 Q25.1311 399.584 29.7781 395.415 Q34.3932 391.214 42.3504 391.214 M40.6316 397.07 Q35.8255 397.134 32.9609 399.775 Q30.0964 402.385 30.0964 406.714 Q30.0964 411.616 32.8654 414.576 Q35.6345 417.504 40.6634 417.949 L40.6316 397.07 Z" fill="#000000" fill-rule="nonzero" fill-opacity="1" /><path clip-path="url(#clip100)" d="M12.1769 346.813 Q19.4975 351.078 26.6589 353.147 Q33.8203 355.215 41.1727 355.215 Q48.5251 355.215 55.7502 353.147 Q62.9434 351.046 70.2321 346.813 L70.2321 351.905 Q62.7524 356.68 55.5274 359.067 Q48.3023 361.422 41.1727 361.422 Q34.0749 361.422 26.8817 359.067 Q19.6884 356.711 12.1769 351.905 L12.1769 346.813 Z" fill="#000000" fill-rule="nonzero" fill-opacity="1" /><path clip-path="url(#clip100)" d="M31.4013 311.992 L12.1132 311.992 L12.1132 306.136 L61.6384 306.136 L61.6384 311.992 L56.2912 311.992 Q59.4741 313.838 61.0337 316.671 Q62.5615 319.472 62.5615 323.419 Q62.5615 329.88 57.4052 333.954 Q52.249 337.996 43.8463 337.996 Q35.4436 337.996 30.2873 333.954 Q25.1311 329.88 25.1311 323.419 Q25.1311 319.472 26.6907 316.671 Q28.2185 313.838 31.4013 311.992 M43.8463 331.949 Q50.3075 331.949 53.9996 329.307 Q57.6599 326.633 57.6599 321.986 Q57.6599 317.339 53.9996 314.666 Q50.3075 311.992 43.8463 311.992 Q37.3851 311.992 33.7248 314.666 Q30.0327 317.339 30.0327 321.986 Q30.0327 326.633 33.7248 329.307 Q37.3851 331.949 43.8463 331.949 Z" fill="#000000" fill-rule="nonzero" fill-opacity="1" /><path clip-path="url(#clip100)" d="M38.9447 287.389 L56.3549 287.389 L56.3549 277.076 Q56.3549 271.888 54.2224 269.406 Q52.0581 266.891 47.6339 266.891 Q43.1779 266.891 41.0772 269.406 Q38.9447 271.888 38.9447 277.076 L38.9447 287.389 M19.402 287.389 L33.7248 287.389 L33.7248 277.872 Q33.7248 273.161 31.9743 270.87 Q30.1919 268.546 26.5634 268.546 Q22.9668 268.546 21.1844 270.87 Q19.402 273.161 19.402 277.872 L19.402 287.389 M14.1184 293.818 L14.1184 277.395 Q14.1184 270.042 17.174 266.064 Q20.2295 262.085 25.8632 262.085 Q30.2237 262.085 32.8018 264.122 Q35.3799 266.159 36.0165 270.106 Q37.035 265.363 40.2815 262.754 Q43.4962 260.112 48.3341 260.112 Q54.6998 260.112 58.1691 264.44 Q61.6384 268.769 61.6384 276.758 L61.6384 293.818 L14.1184 293.818 Z" fill="#000000" fill-rule="nonzero" fill-opacity="1" /><path clip-path="url(#clip100)" d="M12.1769 250.277 L12.1769 245.184 Q19.6884 240.41 26.8817 238.055 Q34.0749 235.667 41.1727 235.667 Q48.3023 235.667 55.5274 238.055 Q62.7524 240.41 70.2321 245.184 L70.2321 250.277 Q62.9434 246.044 55.7502 243.975 Q48.5251 241.874 41.1727 241.874 Q33.8203 241.874 26.6589 243.975 Q19.4975 246.044 12.1769 250.277 Z" fill="#000000" fill-rule="nonzero" fill-opacity="1" /><polyline clip-path="url(#clip102)" style="stroke:#009af9; stroke-linecap:round; stroke-linejoin:round; stroke-width:4; stroke-opacity:1; fill:none" points="308.653,147.795 558.582,233.925 652.933,269.403 728.213,305.518 812.527,357.487 919.926,433.553 962.083,467.278 1002.23,502.545 1093.57,591.427 1311.38,814.559 "/>
<path clip-path="url(#clip100)" d="M1076.41 255.031 L1306.03 255.031 L1306.03 151.351 L1076.41 151.351  Z" fill="#ffffff" fill-rule="evenodd" fill-opacity="1"/>
<polyline clip-path="url(#clip100)" style="stroke:#000000; stroke-linecap:round; stroke-linejoin:round; stroke-width:4; stroke-opacity:1; fill:none" points="1076.41,255.031 1306.03,255.031 1306.03,151.351 1076.41,151.351 1076.41,255.031 "/>
<polyline clip-path="url(#clip100)" style="stroke:#009af9; stroke-linecap:round; stroke-linejoin:round; stroke-width:4; stroke-opacity:1; fill:none" points="1088.22,203.191 1159.08,203.191 "/>
<path clip-path="url(#clip100)" d="M1170.89 210.24 L1170.89 194.545 L1175.15 194.545 L1175.15 210.078 Q1175.15 213.758 1176.59 215.61 Q1178.02 217.439 1180.89 217.439 Q1184.34 217.439 1186.33 215.24 Q1188.35 213.041 1188.35 209.244 L1188.35 194.545 L1192.6 194.545 L1192.6 220.471 L1188.35 220.471 L1188.35 216.49 Q1186.79 218.851 1184.73 220.008 Q1182.7 221.142 1179.99 221.142 Q1175.52 221.142 1173.21 218.365 Q1170.89 215.587 1170.89 210.24 M1181.61 193.92 L1181.61 193.92 Z" fill="#000000" fill-rule="nonzero" fill-opacity="1" /><path clip-path="url(#clip100)" d="M1249.39 204.568 L1249.39 206.652 L1240.29 215.749 L1237.51 212.971 L1242.91 207.578 L1214.69 207.578 L1214.69 203.642 L1242.91 203.642 L1237.51 198.249 L1240.29 195.471 L1249.39 204.568 Z" fill="#000000" fill-rule="nonzero" fill-opacity="1" /><path clip-path="url(#clip100)" d="M1292.14 187.045 L1292.14 191.606 Q1289.48 190.332 1287.12 189.707 Q1284.76 189.082 1282.56 189.082 Q1278.74 189.082 1276.66 190.564 Q1274.6 192.045 1274.6 194.777 Q1274.6 197.068 1275.96 198.249 Q1277.35 199.406 1281.19 200.124 L1284.02 200.703 Q1289.25 201.698 1291.72 204.221 Q1294.22 206.721 1294.22 210.934 Q1294.22 215.957 1290.84 218.55 Q1287.49 221.142 1280.98 221.142 Q1278.53 221.142 1275.75 220.587 Q1273 220.031 1270.03 218.943 L1270.03 214.129 Q1272.88 215.726 1275.61 216.536 Q1278.35 217.346 1280.98 217.346 Q1284.99 217.346 1287.16 215.772 Q1289.34 214.198 1289.34 211.281 Q1289.34 208.735 1287.77 207.3 Q1286.22 205.865 1282.65 205.147 L1279.8 204.592 Q1274.57 203.55 1272.23 201.328 Q1269.9 199.105 1269.9 195.147 Q1269.9 190.564 1273.11 187.925 Q1276.35 185.286 1282.03 185.286 Q1284.46 185.286 1286.98 185.726 Q1289.5 186.166 1292.14 187.045 Z" fill="#000000" fill-rule="nonzero" fill-opacity="1" /><path clip-path="url(#clip100)" d="M278.571 1720.96 L1341.46 1720.96 L1341.46 1014.19 L278.571 1014.19  Z" fill="#ffffff" fill-rule="evenodd" fill-opacity="1"/>
<defs>
  <clipPath id="clip103">
    <rect x="278" y="1014" width="1064" height="708"/>
  </clipPath>
</defs>
<polyline clip-path="url(#clip103)" style="stroke:#000000; stroke-linecap:round; stroke-linejoin:round; stroke-width:2; stroke-opacity:0.1; fill:none" points="709.745,1720.96 709.745,1014.19 "/>
<polyline clip-path="url(#clip103)" style="stroke:#000000; stroke-linecap:round; stroke-linejoin:round; stroke-width:2; stroke-opacity:0.1; fill:none" points="1311.38,1720.96 1311.38,1014.19 "/>
<polyline clip-path="url(#clip103)" style="stroke:#000000; stroke-linecap:round; stroke-linejoin:round; stroke-width:2; stroke-opacity:0.1; fill:none" points="278.571,1630.62 1341.46,1630.62 "/>
<polyline clip-path="url(#clip103)" style="stroke:#000000; stroke-linecap:round; stroke-linejoin:round; stroke-width:2; stroke-opacity:0.1; fill:none" points="278.571,1443.53 1341.46,1443.53 "/>
<polyline clip-path="url(#clip103)" style="stroke:#000000; stroke-linecap:round; stroke-linejoin:round; stroke-width:2; stroke-opacity:0.1; fill:none" points="278.571,1256.44 1341.46,1256.44 "/>
<polyline clip-path="url(#clip103)" style="stroke:#000000; stroke-linecap:round; stroke-linejoin:round; stroke-width:2; stroke-opacity:0.1; fill:none" points="278.571,1069.36 1341.46,1069.36 "/>
<polyline clip-path="url(#clip100)" style="stroke:#000000; stroke-linecap:round; stroke-linejoin:round; stroke-width:4; stroke-opacity:1; fill:none" points="278.571,1720.96 1341.46,1720.96 "/>
<polyline clip-path="url(#clip100)" style="stroke:#000000; stroke-linecap:round; stroke-linejoin:round; stroke-width:4; stroke-opacity:1; fill:none" points="709.745,1720.96 709.745,1702.06 "/>
<polyline clip-path="url(#clip100)" style="stroke:#000000; stroke-linecap:round; stroke-linejoin:round; stroke-width:4; stroke-opacity:1; fill:none" points="1311.38,1720.96 1311.38,1702.06 "/>
<path clip-path="url(#clip100)" d="M674.727 1797.39 L682.366 1797.39 L682.366 1771.02 L674.056 1772.69 L674.056 1768.43 L682.32 1766.76 L686.996 1766.76 L686.996 1797.39 L694.635 1797.39 L694.635 1801.32 L674.727 1801.32 L674.727 1797.39 Z" fill="#000000" fill-rule="nonzero" fill-opacity="1" /><path clip-path="url(#clip100)" d="M714.079 1769.84 Q710.468 1769.84 708.639 1773.4 Q706.834 1776.95 706.834 1784.08 Q706.834 1791.18 708.639 1794.75 Q710.468 1798.29 714.079 1798.29 Q717.713 1798.29 719.519 1794.75 Q721.348 1791.18 721.348 1784.08 Q721.348 1776.95 719.519 1773.4 Q717.713 1769.84 714.079 1769.84 M714.079 1766.14 Q719.889 1766.14 722.945 1770.74 Q726.023 1775.33 726.023 1784.08 Q726.023 1792.8 722.945 1797.41 Q719.889 1801.99 714.079 1801.99 Q708.269 1801.99 705.19 1797.41 Q702.135 1792.8 702.135 1784.08 Q702.135 1775.33 705.19 1770.74 Q708.269 1766.14 714.079 1766.14 Z" fill="#000000" fill-rule="nonzero" fill-opacity="1" /><path clip-path="url(#clip100)" d="M735.728 1748.33 Q732.794 1748.33 731.308 1751.23 Q729.841 1754.11 729.841 1759.9 Q729.841 1765.67 731.308 1768.57 Q732.794 1771.45 735.728 1771.45 Q738.681 1771.45 740.148 1768.57 Q741.634 1765.67 741.634 1759.9 Q741.634 1754.11 740.148 1751.23 Q738.681 1748.33 735.728 1748.33 M735.728 1745.32 Q740.449 1745.32 742.932 1749.06 Q745.433 1752.79 745.433 1759.9 Q745.433 1766.99 742.932 1770.73 Q740.449 1774.46 735.728 1774.46 Q731.008 1774.46 728.506 1770.73 Q726.023 1766.99 726.023 1759.9 Q726.023 1752.79 728.506 1749.06 Q731.008 1745.32 735.728 1745.32 Z" fill="#000000" fill-rule="nonzero" fill-opacity="1" /><path clip-path="url(#clip100)" d="M1276.83 1797.39 L1284.46 1797.39 L1284.46 1771.02 L1276.15 1772.69 L1276.15 1768.43 L1284.42 1766.76 L1289.09 1766.76 L1289.09 1797.39 L1296.73 1797.39 L1296.73 1801.32 L1276.83 1801.32 L1276.83 1797.39 Z" fill="#000000" fill-rule="nonzero" fill-opacity="1" /><path clip-path="url(#clip100)" d="M1316.18 1769.84 Q1312.57 1769.84 1310.74 1773.4 Q1308.93 1776.95 1308.93 1784.08 Q1308.93 1791.18 1310.74 1794.75 Q1312.57 1798.29 1316.18 1798.29 Q1319.81 1798.29 1321.62 1794.75 Q1323.45 1791.18 1323.45 1784.08 Q1323.45 1776.95 1321.62 1773.4 Q1319.81 1769.84 1316.18 1769.84 M1316.18 1766.14 Q1321.99 1766.14 1325.04 1770.74 Q1328.12 1775.33 1328.12 1784.08 Q1328.12 1792.8 1325.04 1797.41 Q1321.99 1801.99 1316.18 1801.99 Q1310.37 1801.99 1307.29 1797.41 Q1304.23 1792.8 1304.23 1784.08 Q1304.23 1775.33 1307.29 1770.74 Q1310.37 1766.14 1316.18 1766.14 Z" fill="#000000" fill-rule="nonzero" fill-opacity="1" /><path clip-path="url(#clip100)" d="M1340.82 1758.77 Q1343.54 1759.35 1345.07 1761.2 Q1346.61 1763.04 1346.61 1765.75 Q1346.61 1769.9 1343.75 1772.18 Q1340.89 1774.46 1335.63 1774.46 Q1333.86 1774.46 1331.98 1774.1 Q1330.12 1773.76 1328.12 1773.06 L1328.12 1769.4 Q1329.7 1770.32 1331.58 1770.79 Q1333.46 1771.26 1335.51 1771.26 Q1339.09 1771.26 1340.95 1769.85 Q1342.83 1768.44 1342.83 1765.75 Q1342.83 1763.26 1341.08 1761.87 Q1339.35 1760.46 1336.25 1760.46 L1332.97 1760.46 L1332.97 1757.34 L1336.4 1757.34 Q1339.2 1757.34 1340.69 1756.23 Q1342.17 1755.1 1342.17 1753 Q1342.17 1750.83 1340.63 1749.69 Q1339.11 1748.52 1336.25 1748.52 Q1334.69 1748.52 1332.9 1748.86 Q1331.11 1749.2 1328.97 1749.91 L1328.97 1746.53 Q1331.13 1745.92 1333.01 1745.62 Q1334.91 1745.32 1336.59 1745.32 Q1340.91 1745.32 1343.43 1747.3 Q1345.95 1749.25 1345.95 1752.6 Q1345.95 1754.93 1344.62 1756.55 Q1343.28 1758.15 1340.82 1758.77 Z" fill="#000000" fill-rule="nonzero" fill-opacity="1" /><path clip-path="url(#clip100)" d="M529.831 1841.05 L557.14 1841.05 L557.14 1846.46 L536.26 1846.46 L536.26 1860.46 L555.103 1860.46 L555.103 1865.87 L536.26 1865.87 L536.26 1888.57 L529.831 1888.57 L529.831 1841.05 Z" fill="#000000" fill-rule="nonzero" fill-opacity="1" /><path clip-path="url(#clip100)" d="M582.985 1858.39 Q581.998 1857.82 580.82 1857.56 Q579.674 1857.28 578.274 1857.28 Q573.309 1857.28 570.635 1860.52 Q567.993 1863.74 567.993 1869.79 L567.993 1888.57 L562.105 1888.57 L562.105 1852.92 L567.993 1852.92 L567.993 1858.46 Q569.839 1855.21 572.8 1853.65 Q575.76 1852.06 579.993 1852.06 Q580.598 1852.06 581.33 1852.15 Q582.062 1852.22 582.953 1852.38 L582.985 1858.39 Z" fill="#000000" fill-rule="nonzero" fill-opacity="1" /><path clip-path="url(#clip100)" d="M618.187 1869.28 L618.187 1872.14 L591.26 1872.14 Q591.642 1878.19 594.889 1881.37 Q598.167 1884.52 603.991 1884.52 Q607.365 1884.52 610.516 1883.7 Q613.699 1882.87 616.818 1881.21 L616.818 1886.75 Q613.667 1888.09 610.357 1888.79 Q607.047 1889.49 603.641 1889.49 Q595.111 1889.49 590.114 1884.52 Q585.149 1879.56 585.149 1871.09 Q585.149 1862.34 589.86 1857.21 Q594.602 1852.06 602.623 1852.06 Q609.816 1852.06 613.986 1856.7 Q618.187 1861.32 618.187 1869.28 M612.331 1867.56 Q612.267 1862.75 609.625 1859.89 Q607.015 1857.02 602.687 1857.02 Q597.785 1857.02 594.825 1859.79 Q591.897 1862.56 591.451 1867.59 L612.331 1867.56 Z" fill="#000000" fill-rule="nonzero" fill-opacity="1" /><path clip-path="url(#clip100)" d="M631.3 1870.77 Q631.3 1877.23 633.942 1880.93 Q636.616 1884.59 641.263 1884.59 Q645.91 1884.59 648.583 1880.93 Q651.257 1877.23 651.257 1870.77 Q651.257 1864.31 648.583 1860.65 Q645.91 1856.96 641.263 1856.96 Q636.616 1856.96 633.942 1860.65 Q631.3 1864.31 631.3 1870.77 M651.257 1883.22 Q649.411 1886.4 646.578 1887.96 Q643.777 1889.49 639.83 1889.49 Q633.369 1889.49 629.295 1884.33 Q625.253 1879.18 625.253 1870.77 Q625.253 1862.37 629.295 1857.21 Q633.369 1852.06 639.83 1852.06 Q643.777 1852.06 646.578 1853.62 Q649.411 1855.15 651.257 1858.33 L651.257 1852.92 L657.113 1852.92 L657.113 1902.12 L651.257 1902.12 L651.257 1883.22 Z" fill="#000000" fill-rule="nonzero" fill-opacity="1" /><path clip-path="url(#clip100)" d="M668.572 1874.5 L668.572 1852.92 L674.428 1852.92 L674.428 1874.27 Q674.428 1879.33 676.401 1881.88 Q678.375 1884.4 682.321 1884.4 Q687.064 1884.4 689.801 1881.37 Q692.57 1878.35 692.57 1873.13 L692.57 1852.92 L698.427 1852.92 L698.427 1888.57 L692.57 1888.57 L692.57 1883.09 Q690.438 1886.34 687.605 1887.93 Q684.804 1889.49 681.08 1889.49 Q674.937 1889.49 671.754 1885.67 Q668.572 1881.85 668.572 1874.5 M683.308 1852.06 L683.308 1852.06 Z" fill="#000000" fill-rule="nonzero" fill-opacity="1" /><path clip-path="url(#clip100)" d="M740.981 1869.28 L740.981 1872.14 L714.055 1872.14 Q714.436 1878.19 717.683 1881.37 Q720.961 1884.52 726.786 1884.52 Q730.16 1884.52 733.311 1883.7 Q736.494 1882.87 739.613 1881.21 L739.613 1886.75 Q736.462 1888.09 733.152 1888.79 Q729.841 1889.49 726.436 1889.49 Q717.906 1889.49 712.909 1884.52 Q707.943 1879.56 707.943 1871.09 Q707.943 1862.34 712.654 1857.21 Q717.397 1852.06 725.417 1852.06 Q732.611 1852.06 736.78 1856.7 Q740.981 1861.32 740.981 1869.28 M735.125 1867.56 Q735.061 1862.75 732.42 1859.89 Q729.81 1857.02 725.481 1857.02 Q720.579 1857.02 717.619 1859.79 Q714.691 1862.56 714.246 1867.59 L735.125 1867.56 Z" fill="#000000" fill-rule="nonzero" fill-opacity="1" /><path clip-path="url(#clip100)" d="M780.226 1867.05 L780.226 1888.57 L774.37 1888.57 L774.37 1867.24 Q774.37 1862.18 772.396 1859.66 Q770.423 1857.15 766.476 1857.15 Q761.734 1857.15 758.996 1860.17 Q756.259 1863.2 756.259 1868.42 L756.259 1888.57 L750.371 1888.57 L750.371 1852.92 L756.259 1852.92 L756.259 1858.46 Q758.36 1855.24 761.193 1853.65 Q764.057 1852.06 767.781 1852.06 Q773.924 1852.06 777.075 1855.88 Q780.226 1859.66 780.226 1867.05 Z" fill="#000000" fill-rule="nonzero" fill-opacity="1" /><path clip-path="url(#clip100)" d="M817.561 1854.29 L817.561 1859.76 Q815.078 1858.39 812.564 1857.72 Q810.081 1857.02 807.535 1857.02 Q801.838 1857.02 798.687 1860.65 Q795.536 1864.25 795.536 1870.77 Q795.536 1877.3 798.687 1880.93 Q801.838 1884.52 807.535 1884.52 Q810.081 1884.52 812.564 1883.85 Q815.078 1883.15 817.561 1881.79 L817.561 1887.2 Q815.11 1888.34 812.468 1888.92 Q809.858 1889.49 806.898 1889.49 Q798.846 1889.49 794.103 1884.43 Q789.361 1879.37 789.361 1870.77 Q789.361 1862.05 794.135 1857.05 Q798.941 1852.06 807.28 1852.06 Q809.986 1852.06 812.564 1852.63 Q815.142 1853.17 817.561 1854.29 Z" fill="#000000" fill-rule="nonzero" fill-opacity="1" /><path clip-path="url(#clip100)" d="M842.578 1891.88 Q840.096 1898.24 837.74 1900.18 Q835.385 1902.12 831.438 1902.12 L826.759 1902.12 L826.759 1897.22 L830.197 1897.22 Q832.616 1897.22 833.953 1896.08 Q835.289 1894.93 836.913 1890.67 L837.963 1887.99 L823.545 1852.92 L829.751 1852.92 L840.891 1880.8 L852.031 1852.92 L858.238 1852.92 L842.578 1891.88 Z" fill="#000000" fill-rule="nonzero" fill-opacity="1" /><path clip-path="url(#clip100)" d="M886.502 1839.04 L899.997 1839.04 L899.997 1843.59 L892.358 1843.59 L892.358 1892.61 L899.997 1892.61 L899.997 1897.16 L886.502 1897.16 L886.502 1839.04 Z" fill="#000000" fill-rule="nonzero" fill-opacity="1" /><path clip-path="url(#clip100)" d="M933.13 1858.39 Q932.144 1857.82 930.966 1857.56 Q929.82 1857.28 928.42 1857.28 Q923.454 1857.28 920.781 1860.52 Q918.139 1863.74 918.139 1869.79 L918.139 1888.57 L912.251 1888.57 L912.251 1852.92 L918.139 1852.92 L918.139 1858.46 Q919.985 1855.21 922.945 1853.65 Q925.905 1852.06 930.138 1852.06 Q930.743 1852.06 931.475 1852.15 Q932.207 1852.22 933.099 1852.38 L933.13 1858.39 Z" fill="#000000" fill-rule="nonzero" fill-opacity="1" /><path clip-path="url(#clip100)" d="M955.474 1870.65 Q948.376 1870.65 945.639 1872.27 Q942.902 1873.89 942.902 1877.81 Q942.902 1880.93 944.939 1882.77 Q947.008 1884.59 950.541 1884.59 Q955.41 1884.59 958.339 1881.15 Q961.299 1877.68 961.299 1871.95 L961.299 1870.65 L955.474 1870.65 M967.155 1868.23 L967.155 1888.57 L961.299 1888.57 L961.299 1883.15 Q959.293 1886.4 956.302 1887.96 Q953.31 1889.49 948.981 1889.49 Q943.506 1889.49 940.26 1886.43 Q937.045 1883.35 937.045 1878.19 Q937.045 1872.17 941.056 1869.12 Q945.098 1866.06 953.087 1866.06 L961.299 1866.06 L961.299 1865.49 Q961.299 1861.45 958.625 1859.25 Q955.983 1857.02 951.177 1857.02 Q948.122 1857.02 945.225 1857.76 Q942.329 1858.49 939.655 1859.95 L939.655 1854.54 Q942.87 1853.3 945.894 1852.69 Q948.917 1852.06 951.782 1852.06 Q959.516 1852.06 963.336 1856.07 Q967.155 1860.08 967.155 1868.23 Z" fill="#000000" fill-rule="nonzero" fill-opacity="1" /><path clip-path="url(#clip100)" d="M1002.68 1858.33 L1002.68 1839.04 L1008.53 1839.04 L1008.53 1888.57 L1002.68 1888.57 L1002.68 1883.22 Q1000.83 1886.4 997.997 1887.96 Q995.196 1889.49 991.249 1889.49 Q984.788 1889.49 980.714 1884.33 Q976.672 1879.18 976.672 1870.77 Q976.672 1862.37 980.714 1857.21 Q984.788 1852.06 991.249 1852.06 Q995.196 1852.06 997.997 1853.62 Q1000.83 1855.15 1002.68 1858.33 M982.719 1870.77 Q982.719 1877.23 985.361 1880.93 Q988.035 1884.59 992.682 1884.59 Q997.328 1884.59 1000 1880.93 Q1002.68 1877.23 1002.68 1870.77 Q1002.68 1864.31 1000 1860.65 Q997.328 1856.96 992.682 1856.96 Q988.035 1856.96 985.361 1860.65 Q982.719 1864.31 982.719 1870.77 Z" fill="#000000" fill-rule="nonzero" fill-opacity="1" /><path clip-path="url(#clip100)" d="M1031 1841.05 L1036.41 1841.05 L1019.86 1894.61 L1014.45 1894.61 L1031 1841.05 Z" fill="#000000" fill-rule="nonzero" fill-opacity="1" /><path clip-path="url(#clip100)" d="M1065.28 1853.97 L1065.28 1859.51 Q1062.8 1858.23 1060.13 1857.6 Q1057.45 1856.96 1054.59 1856.96 Q1050.23 1856.96 1048.03 1858.3 Q1045.87 1859.63 1045.87 1862.31 Q1045.87 1864.34 1047.43 1865.52 Q1048.99 1866.67 1053.7 1867.72 L1055.7 1868.16 Q1061.94 1869.5 1064.55 1871.95 Q1067.19 1874.37 1067.19 1878.73 Q1067.19 1883.7 1063.25 1886.59 Q1059.33 1889.49 1052.46 1889.49 Q1049.59 1889.49 1046.47 1888.92 Q1043.38 1888.37 1039.95 1887.26 L1039.95 1881.21 Q1043.19 1882.9 1046.34 1883.76 Q1049.5 1884.59 1052.58 1884.59 Q1056.72 1884.59 1058.95 1883.19 Q1061.18 1881.75 1061.18 1879.18 Q1061.18 1876.79 1059.55 1875.52 Q1057.96 1874.24 1052.52 1873.06 L1050.48 1872.59 Q1045.04 1871.44 1042.62 1869.09 Q1040.2 1866.7 1040.2 1862.56 Q1040.2 1857.53 1043.77 1854.8 Q1047.33 1852.06 1053.89 1852.06 Q1057.13 1852.06 1060 1852.54 Q1062.86 1853.01 1065.28 1853.97 Z" fill="#000000" fill-rule="nonzero" fill-opacity="1" /><path clip-path="url(#clip100)" d="M1090.2 1839.04 L1090.2 1897.16 L1076.71 1897.16 L1076.71 1892.61 L1084.32 1892.61 L1084.32 1843.59 L1076.71 1843.59 L1076.71 1839.04 L1090.2 1839.04 Z" fill="#000000" fill-rule="nonzero" fill-opacity="1" /><polyline clip-path="url(#clip100)" style="stroke:#000000; stroke-linecap:round; stroke-linejoin:round; stroke-width:4; stroke-opacity:1; fill:none" points="278.571,1720.96 278.571,1014.19 "/>
<polyline clip-path="url(#clip100)" style="stroke:#000000; stroke-linecap:round; stroke-linejoin:round; stroke-width:4; stroke-opacity:1; fill:none" points="278.571,1630.62 297.468,1630.62 "/>
<polyline clip-path="url(#clip100)" style="stroke:#000000; stroke-linecap:round; stroke-linejoin:round; stroke-width:4; stroke-opacity:1; fill:none" points="278.571,1443.53 297.468,1443.53 "/>
<polyline clip-path="url(#clip100)" style="stroke:#000000; stroke-linecap:round; stroke-linejoin:round; stroke-width:4; stroke-opacity:1; fill:none" points="278.571,1256.44 297.468,1256.44 "/>
<polyline clip-path="url(#clip100)" style="stroke:#000000; stroke-linecap:round; stroke-linejoin:round; stroke-width:4; stroke-opacity:1; fill:none" points="278.571,1069.36 297.468,1069.36 "/>
<path clip-path="url(#clip100)" d="M116.214 1631.07 L145.89 1631.07 L145.89 1635.01 L116.214 1635.01 L116.214 1631.07 Z" fill="#000000" fill-rule="nonzero" fill-opacity="1" /><path clip-path="url(#clip100)" d="M160.011 1643.96 L176.33 1643.96 L176.33 1647.9 L154.386 1647.9 L154.386 1643.96 Q157.048 1641.21 161.631 1636.58 Q166.237 1631.93 167.418 1630.59 Q169.663 1628.06 170.543 1626.33 Q171.446 1624.57 171.446 1622.88 Q171.446 1620.12 169.501 1618.39 Q167.58 1616.65 164.478 1616.65 Q162.279 1616.65 159.825 1617.41 Q157.395 1618.18 154.617 1619.73 L154.617 1615.01 Q157.441 1613.87 159.895 1613.29 Q162.348 1612.71 164.385 1612.71 Q169.756 1612.71 172.95 1615.4 Q176.145 1618.09 176.145 1622.58 Q176.145 1624.71 175.334 1626.63 Q174.547 1628.53 172.441 1631.12 Q171.862 1631.79 168.76 1635.01 Q165.659 1638.2 160.011 1643.96 Z" fill="#000000" fill-rule="nonzero" fill-opacity="1" /><path clip-path="url(#clip100)" d="M186.191 1613.34 L204.547 1613.34 L204.547 1617.28 L190.473 1617.28 L190.473 1625.75 Q191.492 1625.4 192.51 1625.24 Q193.529 1625.05 194.547 1625.05 Q200.334 1625.05 203.714 1628.22 Q207.094 1631.4 207.094 1636.81 Q207.094 1642.39 203.621 1645.49 Q200.149 1648.57 193.83 1648.57 Q191.654 1648.57 189.385 1648.2 Q187.14 1647.83 184.733 1647.09 L184.733 1642.39 Q186.816 1643.52 189.038 1644.08 Q191.26 1644.64 193.737 1644.64 Q197.742 1644.64 200.08 1642.53 Q202.418 1640.42 202.418 1636.81 Q202.418 1633.2 200.08 1631.09 Q197.742 1628.99 193.737 1628.99 Q191.862 1628.99 189.987 1629.4 Q188.135 1629.82 186.191 1630.7 L186.191 1613.34 Z" fill="#000000" fill-rule="nonzero" fill-opacity="1" /><path clip-path="url(#clip100)" d="M226.306 1616.42 Q222.695 1616.42 220.867 1619.98 Q219.061 1623.53 219.061 1630.65 Q219.061 1637.76 220.867 1641.33 Q222.695 1644.87 226.306 1644.87 Q229.941 1644.87 231.746 1641.33 Q233.575 1637.76 233.575 1630.65 Q233.575 1623.53 231.746 1619.98 Q229.941 1616.42 226.306 1616.42 M226.306 1612.71 Q232.117 1612.71 235.172 1617.32 Q238.251 1621.9 238.251 1630.65 Q238.251 1639.38 235.172 1643.99 Q232.117 1648.57 226.306 1648.57 Q220.496 1648.57 217.418 1643.99 Q214.362 1639.38 214.362 1630.65 Q214.362 1621.9 217.418 1617.32 Q220.496 1612.71 226.306 1612.71 Z" fill="#000000" fill-rule="nonzero" fill-opacity="1" /><path clip-path="url(#clip100)" d="M116.214 1443.98 L145.89 1443.98 L145.89 1447.92 L116.214 1447.92 L116.214 1443.98 Z" fill="#000000" fill-rule="nonzero" fill-opacity="1" /><path clip-path="url(#clip100)" d="M160.011 1456.88 L176.33 1456.88 L176.33 1460.81 L154.386 1460.81 L154.386 1456.88 Q157.048 1454.12 161.631 1449.49 Q166.237 1444.84 167.418 1443.5 Q169.663 1440.97 170.543 1439.24 Q171.446 1437.48 171.446 1435.79 Q171.446 1433.03 169.501 1431.3 Q167.58 1429.56 164.478 1429.56 Q162.279 1429.56 159.825 1430.33 Q157.395 1431.09 154.617 1432.64 L154.617 1427.92 Q157.441 1426.78 159.895 1426.21 Q162.348 1425.63 164.385 1425.63 Q169.756 1425.63 172.95 1428.31 Q176.145 1431 176.145 1435.49 Q176.145 1437.62 175.334 1439.54 Q174.547 1441.44 172.441 1444.03 Q171.862 1444.7 168.76 1447.92 Q165.659 1451.11 160.011 1456.88 Z" fill="#000000" fill-rule="nonzero" fill-opacity="1" /><path clip-path="url(#clip100)" d="M196.145 1429.33 Q192.533 1429.33 190.705 1432.9 Q188.899 1436.44 188.899 1443.57 Q188.899 1450.67 190.705 1454.24 Q192.533 1457.78 196.145 1457.78 Q199.779 1457.78 201.584 1454.24 Q203.413 1450.67 203.413 1443.57 Q203.413 1436.44 201.584 1432.9 Q199.779 1429.33 196.145 1429.33 M196.145 1425.63 Q201.955 1425.63 205.01 1430.23 Q208.089 1434.82 208.089 1443.57 Q208.089 1452.29 205.01 1456.9 Q201.955 1461.48 196.145 1461.48 Q190.334 1461.48 187.256 1456.9 Q184.2 1452.29 184.2 1443.57 Q184.2 1434.82 187.256 1430.23 Q190.334 1425.63 196.145 1425.63 Z" fill="#000000" fill-rule="nonzero" fill-opacity="1" /><path clip-path="url(#clip100)" d="M226.306 1429.33 Q222.695 1429.33 220.867 1432.9 Q219.061 1436.44 219.061 1443.57 Q219.061 1450.67 220.867 1454.24 Q222.695 1457.78 226.306 1457.78 Q229.941 1457.78 231.746 1454.24 Q233.575 1450.67 233.575 1443.57 Q233.575 1436.44 231.746 1432.9 Q229.941 1429.33 226.306 1429.33 M226.306 1425.63 Q232.117 1425.63 235.172 1430.23 Q238.251 1434.82 238.251 1443.57 Q238.251 1452.29 235.172 1456.9 Q232.117 1461.48 226.306 1461.48 Q220.496 1461.48 217.418 1456.9 Q214.362 1452.29 214.362 1443.57 Q214.362 1434.82 217.418 1430.23 Q220.496 1425.63 226.306 1425.63 Z" fill="#000000" fill-rule="nonzero" fill-opacity="1" /><path clip-path="url(#clip100)" d="M116.214 1256.9 L145.89 1256.9 L145.89 1260.83 L116.214 1260.83 L116.214 1256.9 Z" fill="#000000" fill-rule="nonzero" fill-opacity="1" /><path clip-path="url(#clip100)" d="M156.793 1269.79 L164.432 1269.79 L164.432 1243.42 L156.122 1245.09 L156.122 1240.83 L164.385 1239.16 L169.061 1239.16 L169.061 1269.79 L176.7 1269.79 L176.7 1273.72 L156.793 1273.72 L156.793 1269.79 Z" fill="#000000" fill-rule="nonzero" fill-opacity="1" /><path clip-path="url(#clip100)" d="M186.191 1239.16 L204.547 1239.16 L204.547 1243.1 L190.473 1243.1 L190.473 1251.57 Q191.492 1251.22 192.51 1251.06 Q193.529 1250.88 194.547 1250.88 Q200.334 1250.88 203.714 1254.05 Q207.094 1257.22 207.094 1262.64 Q207.094 1268.22 203.621 1271.32 Q200.149 1274.4 193.83 1274.4 Q191.654 1274.4 189.385 1274.03 Q187.14 1273.65 184.733 1272.91 L184.733 1268.22 Q186.816 1269.35 189.038 1269.9 Q191.26 1270.46 193.737 1270.46 Q197.742 1270.46 200.08 1268.35 Q202.418 1266.25 202.418 1262.64 Q202.418 1259.03 200.08 1256.92 Q197.742 1254.81 193.737 1254.81 Q191.862 1254.81 189.987 1255.23 Q188.135 1255.65 186.191 1256.53 L186.191 1239.16 Z" fill="#000000" fill-rule="nonzero" fill-opacity="1" /><path clip-path="url(#clip100)" d="M226.306 1242.24 Q222.695 1242.24 220.867 1245.81 Q219.061 1249.35 219.061 1256.48 Q219.061 1263.59 220.867 1267.15 Q222.695 1270.69 226.306 1270.69 Q229.941 1270.69 231.746 1267.15 Q233.575 1263.59 233.575 1256.48 Q233.575 1249.35 231.746 1245.81 Q229.941 1242.24 226.306 1242.24 M226.306 1238.54 Q232.117 1238.54 235.172 1243.15 Q238.251 1247.73 238.251 1256.48 Q238.251 1265.21 235.172 1269.81 Q232.117 1274.4 226.306 1274.4 Q220.496 1274.4 217.418 1269.81 Q214.362 1265.21 214.362 1256.48 Q214.362 1247.73 217.418 1243.15 Q220.496 1238.54 226.306 1238.54 Z" fill="#000000" fill-rule="nonzero" fill-opacity="1" /><path clip-path="url(#clip100)" d="M116.214 1069.81 L145.89 1069.81 L145.89 1073.74 L116.214 1073.74 L116.214 1069.81 Z" fill="#000000" fill-rule="nonzero" fill-opacity="1" /><path clip-path="url(#clip100)" d="M156.793 1082.7 L164.432 1082.7 L164.432 1056.34 L156.122 1058 L156.122 1053.74 L164.385 1052.08 L169.061 1052.08 L169.061 1082.7 L176.7 1082.7 L176.7 1086.64 L156.793 1086.64 L156.793 1082.7 Z" fill="#000000" fill-rule="nonzero" fill-opacity="1" /><path clip-path="url(#clip100)" d="M196.145 1055.16 Q192.533 1055.16 190.705 1058.72 Q188.899 1062.26 188.899 1069.39 Q188.899 1076.5 190.705 1080.06 Q192.533 1083.6 196.145 1083.6 Q199.779 1083.6 201.584 1080.06 Q203.413 1076.5 203.413 1069.39 Q203.413 1062.26 201.584 1058.72 Q199.779 1055.16 196.145 1055.16 M196.145 1051.45 Q201.955 1051.45 205.01 1056.06 Q208.089 1060.64 208.089 1069.39 Q208.089 1078.12 205.01 1082.72 Q201.955 1087.31 196.145 1087.31 Q190.334 1087.31 187.256 1082.72 Q184.2 1078.12 184.2 1069.39 Q184.2 1060.64 187.256 1056.06 Q190.334 1051.45 196.145 1051.45 Z" fill="#000000" fill-rule="nonzero" fill-opacity="1" /><path clip-path="url(#clip100)" d="M226.306 1055.16 Q222.695 1055.16 220.867 1058.72 Q219.061 1062.26 219.061 1069.39 Q219.061 1076.5 220.867 1080.06 Q222.695 1083.6 226.306 1083.6 Q229.941 1083.6 231.746 1080.06 Q233.575 1076.5 233.575 1069.39 Q233.575 1062.26 231.746 1058.72 Q229.941 1055.16 226.306 1055.16 M226.306 1051.45 Q232.117 1051.45 235.172 1056.06 Q238.251 1060.64 238.251 1069.39 Q238.251 1078.12 235.172 1082.72 Q232.117 1087.31 226.306 1087.31 Q220.496 1087.31 217.418 1082.72 Q214.362 1078.12 214.362 1069.39 Q214.362 1060.64 217.418 1056.06 Q220.496 1051.45 226.306 1051.45 Z" fill="#000000" fill-rule="nonzero" fill-opacity="1" /><path clip-path="url(#clip100)" d="M19.402 1549.68 L37.2578 1549.68 L37.2578 1541.59 Q37.2578 1537.11 34.9343 1534.66 Q32.6108 1532.2 28.314 1532.2 Q24.0489 1532.2 21.7255 1534.66 Q19.402 1537.11 19.402 1541.59 L19.402 1549.68 M14.1184 1556.11 L14.1184 1541.59 Q14.1184 1533.61 17.7469 1529.53 Q21.3435 1525.43 28.314 1525.43 Q35.3481 1525.43 38.9447 1529.53 Q42.5413 1533.61 42.5413 1541.59 L42.5413 1549.68 L61.6384 1549.68 L61.6384 1556.11 L14.1184 1556.11 Z" fill="#000000" fill-rule="nonzero" fill-opacity="1" /><path clip-path="url(#clip100)" d="M40.1224 1487.42 L61.6384 1487.42 L61.6384 1493.28 L40.3133 1493.28 Q35.2526 1493.28 32.7381 1495.25 Q30.2237 1497.23 30.2237 1501.17 Q30.2237 1505.91 33.2474 1508.65 Q36.2711 1511.39 41.491 1511.39 L61.6384 1511.39 L61.6384 1517.28 L12.1132 1517.28 L12.1132 1511.39 L31.5287 1511.39 Q28.314 1509.29 26.7225 1506.46 Q25.1311 1503.59 25.1311 1499.87 Q25.1311 1493.72 28.9505 1490.57 Q32.7381 1487.42 40.1224 1487.42 Z" fill="#000000" fill-rule="nonzero" fill-opacity="1" /><path clip-path="url(#clip100)" d="M43.719 1459.54 Q43.719 1466.64 45.3422 1469.38 Q46.9655 1472.11 50.8804 1472.11 Q53.9996 1472.11 55.8457 1470.08 Q57.6599 1468.01 57.6599 1464.47 Q57.6599 1459.6 54.2224 1456.68 Q50.7531 1453.72 45.0239 1453.72 L43.719 1453.72 L43.719 1459.54 M41.3 1447.86 L61.6384 1447.86 L61.6384 1453.72 L56.2276 1453.72 Q59.4741 1455.72 61.0337 1458.71 Q62.5615 1461.7 62.5615 1466.03 Q62.5615 1471.51 59.5059 1474.75 Q56.4186 1477.97 51.2623 1477.97 Q45.2467 1477.97 42.1912 1473.96 Q39.1357 1469.92 39.1357 1461.93 L39.1357 1453.72 L38.5628 1453.72 Q34.5205 1453.72 32.3244 1456.39 Q30.0964 1459.03 30.0964 1463.84 Q30.0964 1466.89 30.8284 1469.79 Q31.5605 1472.69 33.0246 1475.36 L27.6137 1475.36 Q26.3724 1472.14 25.7677 1469.12 Q25.1311 1466.1 25.1311 1463.23 Q25.1311 1455.5 29.1415 1451.68 Q33.1519 1447.86 41.3 1447.86 Z" fill="#000000" fill-rule="nonzero" fill-opacity="1" /><path clip-path="url(#clip100)" d="M27.0408 1413.07 L32.579 1413.07 Q31.3059 1415.55 30.6693 1418.23 Q30.0327 1420.9 30.0327 1423.76 Q30.0327 1428.13 31.3695 1430.32 Q32.7063 1432.49 35.3799 1432.49 Q37.4169 1432.49 38.5946 1430.93 Q39.7404 1429.37 40.7908 1424.66 L41.2364 1422.65 Q42.5732 1416.41 45.0239 1413.8 Q47.4429 1411.16 51.8034 1411.16 Q56.7687 1411.16 59.6651 1415.11 Q62.5615 1419.02 62.5615 1425.9 Q62.5615 1428.76 61.9886 1431.88 Q61.4475 1434.97 60.3335 1438.41 L54.2861 1438.41 Q55.973 1435.16 56.8323 1432.01 Q57.6599 1428.86 57.6599 1425.77 Q57.6599 1421.63 56.2594 1419.4 Q54.8271 1417.18 52.249 1417.18 Q49.8619 1417.18 48.5887 1418.8 Q47.3156 1420.39 46.1379 1425.83 L45.6605 1427.87 Q44.5147 1433.31 42.1594 1435.73 Q39.7722 1438.15 35.6345 1438.15 Q30.6056 1438.15 27.8684 1434.59 Q25.1311 1431.02 25.1311 1424.47 Q25.1311 1421.22 25.6085 1418.35 Q26.086 1415.49 27.0408 1413.07 Z" fill="#000000" fill-rule="nonzero" fill-opacity="1" /><path clip-path="url(#clip100)" d="M42.3504 1371.34 L45.2149 1371.34 L45.2149 1398.27 Q51.2623 1397.89 54.4452 1394.64 Q57.5962 1391.36 57.5962 1385.54 Q57.5962 1382.17 56.7687 1379.01 Q55.9411 1375.83 54.2861 1372.71 L59.8242 1372.71 Q61.161 1375.86 61.8612 1379.17 Q62.5615 1382.48 62.5615 1385.89 Q62.5615 1394.42 57.5962 1399.42 Q52.631 1404.38 44.1646 1404.38 Q35.4117 1404.38 30.2873 1399.67 Q25.1311 1394.93 25.1311 1386.91 Q25.1311 1379.71 29.7781 1375.54 Q34.3932 1371.34 42.3504 1371.34 M40.6316 1377.2 Q35.8255 1377.26 32.9609 1379.91 Q30.0964 1382.52 30.0964 1386.84 Q30.0964 1391.75 32.8654 1394.71 Q35.6345 1397.63 40.6634 1398.08 L40.6316 1377.2 Z" fill="#000000" fill-rule="nonzero" fill-opacity="1" /><path clip-path="url(#clip100)" d="M12.1769 1326.94 Q19.4975 1331.21 26.6589 1333.28 Q33.8203 1335.35 41.1727 1335.35 Q48.5251 1335.35 55.7502 1333.28 Q62.9434 1331.18 70.2321 1326.94 L70.2321 1332.04 Q62.7524 1336.81 55.5274 1339.2 Q48.3023 1341.55 41.1727 1341.55 Q34.0749 1341.55 26.8817 1339.2 Q19.6884 1336.84 12.1769 1332.04 L12.1769 1326.94 Z" fill="#000000" fill-rule="nonzero" fill-opacity="1" /><path clip-path="url(#clip100)" d="M31.4013 1292.12 L12.1132 1292.12 L12.1132 1286.27 L61.6384 1286.27 L61.6384 1292.12 L56.2912 1292.12 Q59.4741 1293.97 61.0337 1296.8 Q62.5615 1299.6 62.5615 1303.55 Q62.5615 1310.01 57.4052 1314.08 Q52.249 1318.13 43.8463 1318.13 Q35.4436 1318.13 30.2873 1314.08 Q25.1311 1310.01 25.1311 1303.55 Q25.1311 1299.6 26.6907 1296.8 Q28.2185 1293.97 31.4013 1292.12 M43.8463 1312.08 Q50.3075 1312.08 53.9996 1309.44 Q57.6599 1306.76 57.6599 1302.12 Q57.6599 1297.47 53.9996 1294.8 Q50.3075 1292.12 43.8463 1292.12 Q37.3851 1292.12 33.7248 1294.8 Q30.0327 1297.47 30.0327 1302.12 Q30.0327 1306.76 33.7248 1309.44 Q37.3851 1312.08 43.8463 1312.08 Z" fill="#000000" fill-rule="nonzero" fill-opacity="1" /><path clip-path="url(#clip100)" d="M42.3504 1243.71 L45.2149 1243.71 L45.2149 1270.64 Q51.2623 1270.26 54.4452 1267.01 Q57.5962 1263.73 57.5962 1257.91 Q57.5962 1254.53 56.7687 1251.38 Q55.9411 1248.2 54.2861 1245.08 L59.8242 1245.08 Q61.161 1248.23 61.8612 1251.54 Q62.5615 1254.85 62.5615 1258.26 Q62.5615 1266.79 57.5962 1271.78 Q52.631 1276.75 44.1646 1276.75 Q35.4117 1276.75 30.2873 1272.04 Q25.1311 1267.3 25.1311 1259.28 Q25.1311 1252.08 29.7781 1247.91 Q34.3932 1243.71 42.3504 1243.71 M40.6316 1249.57 Q35.8255 1249.63 32.9609 1252.27 Q30.0964 1254.88 30.0964 1259.21 Q30.0964 1264.11 32.8654 1267.07 Q35.6345 1270 40.6634 1270.45 L40.6316 1249.57 Z" fill="#000000" fill-rule="nonzero" fill-opacity="1" /><path clip-path="url(#clip100)" d="M43.4007 1210.64 Q37.035 1210.64 33.5338 1213.28 Q30.0327 1215.89 30.0327 1220.64 Q30.0327 1225.35 33.5338 1227.99 Q37.035 1230.6 43.4007 1230.6 Q49.7346 1230.6 53.2357 1227.99 Q56.7368 1225.35 56.7368 1220.64 Q56.7368 1215.89 53.2357 1213.28 Q49.7346 1210.64 43.4007 1210.64 M57.2143 1204.78 Q66.3172 1204.78 70.7414 1208.83 Q75.1974 1212.87 75.1974 1221.21 Q75.1974 1224.3 74.72 1227.03 Q74.2744 1229.77 73.3195 1232.35 L67.6222 1232.35 Q69.0227 1229.77 69.6911 1227.26 Q70.3595 1224.74 70.3595 1222.13 Q70.3595 1216.37 67.3358 1213.51 Q64.3439 1210.64 58.2646 1210.64 L55.3682 1210.64 Q58.5192 1212.46 60.0788 1215.29 Q61.6384 1218.12 61.6384 1222.07 Q61.6384 1228.62 56.6414 1232.63 Q51.6443 1236.65 43.4007 1236.65 Q35.1253 1236.65 30.1282 1232.63 Q25.1311 1228.62 25.1311 1222.07 Q25.1311 1218.12 26.6907 1215.29 Q28.2503 1212.46 31.4013 1210.64 L25.9905 1210.64 L25.9905 1204.78 L57.2143 1204.78 Z" fill="#000000" fill-rule="nonzero" fill-opacity="1" /><path clip-path="url(#clip100)" d="M12.1769 1193.64 L12.1769 1188.55 Q19.6884 1183.78 26.8817 1181.42 Q34.0749 1179.04 41.1727 1179.04 Q48.3023 1179.04 55.5274 1181.42 Q62.7524 1183.78 70.2321 1188.55 L70.2321 1193.64 Q62.9434 1189.41 55.7502 1187.34 Q48.5251 1185.24 41.1727 1185.24 Q33.8203 1185.24 26.6589 1187.34 Q19.4975 1189.41 12.1769 1193.64 Z" fill="#000000" fill-rule="nonzero" fill-opacity="1" /><polyline clip-path="url(#clip103)" style="stroke:#009af9; stroke-linecap:round; stroke-linejoin:round; stroke-width:4; stroke-opacity:1; fill:none" points="308.653,1034.19 413.041,1039.4 488.321,1049.62 519.437,1057.16 547.541,1066.64 573.638,1078.47 597.728,1092.7 631.855,1119.54 664.978,1153.91 690.071,1184.86 747.284,1261.62 776.393,1298.3 806.505,1332.82 894.833,1428.22 927.956,1469.04 1006.25,1572.58 1031.34,1601.02 1056.43,1624.82 1079.52,1642.56 1103.61,1657.25 1129.71,1669.5 1157.81,1679.31 1224.06,1693.2 1311.38,1700.95 "/>
<path clip-path="url(#clip100)" d="M1577.86 1720.96 L2640.76 1720.96 L2640.76 127.792 L1577.86 127.792  Z" fill="#ffffff" fill-rule="evenodd" fill-opacity="1"/>
<defs>
  <clipPath id="clip104">
    <rect x="1577" y="127" width="1064" height="1594"/>
  </clipPath>
</defs>
<polyline clip-path="url(#clip104)" style="stroke:#000000; stroke-linecap:round; stroke-linejoin:round; stroke-width:2; stroke-opacity:0.1; fill:none" points="1607.94,1720.96 1607.94,127.792 "/>
<polyline clip-path="url(#clip104)" style="stroke:#000000; stroke-linecap:round; stroke-linejoin:round; stroke-width:2; stroke-opacity:0.1; fill:none" points="1858.63,1720.96 1858.63,127.792 "/>
<polyline clip-path="url(#clip104)" style="stroke:#000000; stroke-linecap:round; stroke-linejoin:round; stroke-width:2; stroke-opacity:0.1; fill:none" points="2109.31,1720.96 2109.31,127.792 "/>
<polyline clip-path="url(#clip104)" style="stroke:#000000; stroke-linecap:round; stroke-linejoin:round; stroke-width:2; stroke-opacity:0.1; fill:none" points="2359.99,1720.96 2359.99,127.792 "/>
<polyline clip-path="url(#clip104)" style="stroke:#000000; stroke-linecap:round; stroke-linejoin:round; stroke-width:2; stroke-opacity:0.1; fill:none" points="2610.67,1720.96 2610.67,127.792 "/>
<polyline clip-path="url(#clip104)" style="stroke:#000000; stroke-linecap:round; stroke-linejoin:round; stroke-width:2; stroke-opacity:0.1; fill:none" points="1577.86,1675.87 2640.76,1675.87 "/>
<polyline clip-path="url(#clip104)" style="stroke:#000000; stroke-linecap:round; stroke-linejoin:round; stroke-width:2; stroke-opacity:0.1; fill:none" points="1577.86,1300.12 2640.76,1300.12 "/>
<polyline clip-path="url(#clip104)" style="stroke:#000000; stroke-linecap:round; stroke-linejoin:round; stroke-width:2; stroke-opacity:0.1; fill:none" points="1577.86,924.374 2640.76,924.374 "/>
<polyline clip-path="url(#clip104)" style="stroke:#000000; stroke-linecap:round; stroke-linejoin:round; stroke-width:2; stroke-opacity:0.1; fill:none" points="1577.86,548.628 2640.76,548.628 "/>
<polyline clip-path="url(#clip104)" style="stroke:#000000; stroke-linecap:round; stroke-linejoin:round; stroke-width:2; stroke-opacity:0.1; fill:none" points="1577.86,172.882 2640.76,172.882 "/>
<polyline clip-path="url(#clip100)" style="stroke:#000000; stroke-linecap:round; stroke-linejoin:round; stroke-width:4; stroke-opacity:1; fill:none" points="1577.86,1675.87 2640.76,1675.87 "/>
<polyline clip-path="url(#clip100)" style="stroke:#000000; stroke-linecap:round; stroke-linejoin:round; stroke-width:4; stroke-opacity:0; fill:none" points="1607.94,1675.87 1607.94,1675.87 "/>
<polyline clip-path="url(#clip100)" style="stroke:#000000; stroke-linecap:round; stroke-linejoin:round; stroke-width:4; stroke-opacity:0; fill:none" points="1858.63,1675.87 1858.63,1675.87 "/>
<polyline clip-path="url(#clip100)" style="stroke:#000000; stroke-linecap:round; stroke-linejoin:round; stroke-width:4; stroke-opacity:0; fill:none" points="2109.31,1675.87 2109.31,1675.87 "/>
<polyline clip-path="url(#clip100)" style="stroke:#000000; stroke-linecap:round; stroke-linejoin:round; stroke-width:4; stroke-opacity:0; fill:none" points="2359.99,1675.87 2359.99,1675.87 "/>
<polyline clip-path="url(#clip100)" style="stroke:#000000; stroke-linecap:round; stroke-linejoin:round; stroke-width:4; stroke-opacity:0; fill:none" points="2610.67,1675.87 2610.67,1675.87 "/>
<path clip-path="url(#clip100)" d="M1562.01 1768.83 L1591.68 1768.83 L1591.68 1772.77 L1562.01 1772.77 L1562.01 1768.83 Z" fill="#000000" fill-rule="nonzero" fill-opacity="1" /><path clip-path="url(#clip100)" d="M1605.8 1781.73 L1622.12 1781.73 L1622.12 1785.66 L1600.18 1785.66 L1600.18 1781.73 Q1602.84 1778.97 1607.42 1774.34 Q1612.03 1769.69 1613.21 1768.35 Q1615.46 1765.82 1616.34 1764.09 Q1617.24 1762.33 1617.24 1760.64 Q1617.24 1757.88 1615.29 1756.15 Q1613.37 1754.41 1610.27 1754.41 Q1608.07 1754.41 1605.62 1755.17 Q1603.19 1755.94 1600.41 1757.49 L1600.41 1752.77 Q1603.23 1751.63 1605.69 1751.05 Q1608.14 1750.48 1610.18 1750.48 Q1615.55 1750.48 1618.74 1753.16 Q1621.94 1755.85 1621.94 1760.34 Q1621.94 1762.47 1621.13 1764.39 Q1620.34 1766.29 1618.23 1768.88 Q1617.65 1769.55 1614.55 1772.77 Q1611.45 1775.96 1605.8 1781.73 Z" fill="#000000" fill-rule="nonzero" fill-opacity="1" /><path clip-path="url(#clip100)" d="M1641.94 1754.18 Q1638.33 1754.18 1636.5 1757.74 Q1634.69 1761.29 1634.69 1768.42 Q1634.69 1775.52 1636.5 1779.09 Q1638.33 1782.63 1641.94 1782.63 Q1645.57 1782.63 1647.38 1779.09 Q1649.21 1775.52 1649.21 1768.42 Q1649.21 1761.29 1647.38 1757.74 Q1645.57 1754.18 1641.94 1754.18 M1641.94 1750.48 Q1647.75 1750.48 1650.8 1755.08 Q1653.88 1759.67 1653.88 1768.42 Q1653.88 1777.14 1650.8 1781.75 Q1647.75 1786.33 1641.94 1786.33 Q1636.13 1786.33 1633.05 1781.75 Q1629.99 1777.14 1629.99 1768.42 Q1629.99 1759.67 1633.05 1755.08 Q1636.13 1750.48 1641.94 1750.48 Z" fill="#000000" fill-rule="nonzero" fill-opacity="1" /><path clip-path="url(#clip100)" d="M1813.19 1768.83 L1842.86 1768.83 L1842.86 1772.77 L1813.19 1772.77 L1813.19 1768.83 Z" fill="#000000" fill-rule="nonzero" fill-opacity="1" /><path clip-path="url(#clip100)" d="M1853.77 1781.73 L1861.4 1781.73 L1861.4 1755.36 L1853.09 1757.03 L1853.09 1752.77 L1861.36 1751.1 L1866.03 1751.1 L1866.03 1781.73 L1873.67 1781.73 L1873.67 1785.66 L1853.77 1785.66 L1853.77 1781.73 Z" fill="#000000" fill-rule="nonzero" fill-opacity="1" /><path clip-path="url(#clip100)" d="M1883.16 1751.1 L1901.52 1751.1 L1901.52 1755.04 L1887.45 1755.04 L1887.45 1763.51 Q1888.46 1763.16 1889.48 1763 Q1890.5 1762.81 1891.52 1762.81 Q1897.31 1762.81 1900.69 1765.98 Q1904.07 1769.16 1904.07 1774.57 Q1904.07 1780.15 1900.59 1783.25 Q1897.12 1786.33 1890.8 1786.33 Q1888.63 1786.33 1886.36 1785.96 Q1884.11 1785.59 1881.71 1784.85 L1881.71 1780.15 Q1883.79 1781.29 1886.01 1781.84 Q1888.23 1782.4 1890.71 1782.4 Q1894.71 1782.4 1897.05 1780.29 Q1899.39 1778.18 1899.39 1774.57 Q1899.39 1770.96 1897.05 1768.85 Q1894.71 1766.75 1890.71 1766.75 Q1888.83 1766.75 1886.96 1767.17 Q1885.11 1767.58 1883.16 1768.46 L1883.16 1751.1 Z" fill="#000000" fill-rule="nonzero" fill-opacity="1" /><path clip-path="url(#clip100)" d="M2063.37 1768.83 L2093.05 1768.83 L2093.05 1772.77 L2063.37 1772.77 L2063.37 1768.83 Z" fill="#000000" fill-rule="nonzero" fill-opacity="1" /><path clip-path="url(#clip100)" d="M2103.95 1781.73 L2111.59 1781.73 L2111.59 1755.36 L2103.28 1757.03 L2103.28 1752.77 L2111.54 1751.1 L2116.22 1751.1 L2116.22 1781.73 L2123.86 1781.73 L2123.86 1785.66 L2103.95 1785.66 L2103.95 1781.73 Z" fill="#000000" fill-rule="nonzero" fill-opacity="1" /><path clip-path="url(#clip100)" d="M2143.3 1754.18 Q2139.69 1754.18 2137.86 1757.74 Q2136.06 1761.29 2136.06 1768.42 Q2136.06 1775.52 2137.86 1779.09 Q2139.69 1782.63 2143.3 1782.63 Q2146.94 1782.63 2148.74 1779.09 Q2150.57 1775.52 2150.57 1768.42 Q2150.57 1761.29 2148.74 1757.74 Q2146.94 1754.18 2143.3 1754.18 M2143.3 1750.48 Q2149.11 1750.48 2152.17 1755.08 Q2155.25 1759.67 2155.25 1768.42 Q2155.25 1777.14 2152.17 1781.75 Q2149.11 1786.33 2143.3 1786.33 Q2137.49 1786.33 2134.41 1781.75 Q2131.36 1777.14 2131.36 1768.42 Q2131.36 1759.67 2134.41 1755.08 Q2137.49 1750.48 2143.3 1750.48 Z" fill="#000000" fill-rule="nonzero" fill-opacity="1" /><path clip-path="url(#clip100)" d="M2329.63 1768.83 L2359.31 1768.83 L2359.31 1772.77 L2329.63 1772.77 L2329.63 1768.83 Z" fill="#000000" fill-rule="nonzero" fill-opacity="1" /><path clip-path="url(#clip100)" d="M2369.45 1751.1 L2387.8 1751.1 L2387.8 1755.04 L2373.73 1755.04 L2373.73 1763.51 Q2374.75 1763.16 2375.77 1763 Q2376.79 1762.81 2377.8 1762.81 Q2383.59 1762.81 2386.97 1765.98 Q2390.35 1769.16 2390.35 1774.57 Q2390.35 1780.15 2386.88 1783.25 Q2383.41 1786.33 2377.09 1786.33 Q2374.91 1786.33 2372.64 1785.96 Q2370.4 1785.59 2367.99 1784.85 L2367.99 1780.15 Q2370.07 1781.29 2372.29 1781.84 Q2374.52 1782.4 2376.99 1782.4 Q2381 1782.4 2383.34 1780.29 Q2385.67 1778.18 2385.67 1774.57 Q2385.67 1770.96 2383.34 1768.85 Q2381 1766.75 2376.99 1766.75 Q2375.12 1766.75 2373.24 1767.17 Q2371.39 1767.58 2369.45 1768.46 L2369.45 1751.1 Z" fill="#000000" fill-rule="nonzero" fill-opacity="1" /><path clip-path="url(#clip100)" d="M2610.67 1754.18 Q2607.06 1754.18 2605.23 1757.74 Q2603.43 1761.29 2603.43 1768.42 Q2603.43 1775.52 2605.23 1779.09 Q2607.06 1782.63 2610.67 1782.63 Q2614.31 1782.63 2616.11 1779.09 Q2617.94 1775.52 2617.94 1768.42 Q2617.94 1761.29 2616.11 1757.74 Q2614.31 1754.18 2610.67 1754.18 M2610.67 1750.48 Q2616.48 1750.48 2619.54 1755.08 Q2622.62 1759.67 2622.62 1768.42 Q2622.62 1777.14 2619.54 1781.75 Q2616.48 1786.33 2610.67 1786.33 Q2604.86 1786.33 2601.79 1781.75 Q2598.73 1777.14 2598.73 1768.42 Q2598.73 1759.67 2601.79 1755.08 Q2604.86 1750.48 2610.67 1750.48 Z" fill="#000000" fill-rule="nonzero" fill-opacity="1" /><polyline clip-path="url(#clip100)" style="stroke:#000000; stroke-linecap:round; stroke-linejoin:round; stroke-width:4; stroke-opacity:1; fill:none" points="2610.67,1720.96 2610.67,127.792 "/>
<polyline clip-path="url(#clip100)" style="stroke:#000000; stroke-linecap:round; stroke-linejoin:round; stroke-width:4; stroke-opacity:0; fill:none" points="2610.67,1675.87 2610.67,1675.87 "/>
<polyline clip-path="url(#clip100)" style="stroke:#000000; stroke-linecap:round; stroke-linejoin:round; stroke-width:4; stroke-opacity:0; fill:none" points="2610.67,1300.12 2610.67,1300.12 "/>
<polyline clip-path="url(#clip100)" style="stroke:#000000; stroke-linecap:round; stroke-linejoin:round; stroke-width:4; stroke-opacity:0; fill:none" points="2610.67,924.374 2610.67,924.374 "/>
<polyline clip-path="url(#clip100)" style="stroke:#000000; stroke-linecap:round; stroke-linejoin:round; stroke-width:4; stroke-opacity:0; fill:none" points="2610.67,548.628 2610.67,548.628 "/>
<polyline clip-path="url(#clip100)" style="stroke:#000000; stroke-linecap:round; stroke-linejoin:round; stroke-width:4; stroke-opacity:0; fill:none" points="2610.67,172.882 2610.67,172.882 "/>
<path clip-path="url(#clip100)" d="M1450.2 1661.67 Q1446.59 1661.67 1444.77 1665.23 Q1442.96 1668.77 1442.96 1675.9 Q1442.96 1683.01 1444.77 1686.57 Q1446.59 1690.11 1450.2 1690.11 Q1453.84 1690.11 1455.64 1686.57 Q1457.47 1683.01 1457.47 1675.9 Q1457.47 1668.77 1455.64 1665.23 Q1453.84 1661.67 1450.2 1661.67 M1450.2 1657.96 Q1456.02 1657.96 1459.07 1662.57 Q1462.15 1667.15 1462.15 1675.9 Q1462.15 1684.63 1459.07 1689.23 Q1456.02 1693.82 1450.2 1693.82 Q1444.39 1693.82 1441.32 1689.23 Q1438.26 1684.63 1438.26 1675.9 Q1438.26 1667.15 1441.32 1662.57 Q1444.39 1657.96 1450.2 1657.96 Z" fill="#000000" fill-rule="nonzero" fill-opacity="1" /><path clip-path="url(#clip100)" d="M1470.37 1687.27 L1475.25 1687.27 L1475.25 1693.15 L1470.37 1693.15 L1470.37 1687.27 Z" fill="#000000" fill-rule="nonzero" fill-opacity="1" /><path clip-path="url(#clip100)" d="M1495.44 1661.67 Q1491.83 1661.67 1490 1665.23 Q1488.19 1668.77 1488.19 1675.9 Q1488.19 1683.01 1490 1686.57 Q1491.83 1690.11 1495.44 1690.11 Q1499.07 1690.11 1500.88 1686.57 Q1502.7 1683.01 1502.7 1675.9 Q1502.7 1668.77 1500.88 1665.23 Q1499.07 1661.67 1495.44 1661.67 M1495.44 1657.96 Q1501.25 1657.96 1504.3 1662.57 Q1507.38 1667.15 1507.38 1675.9 Q1507.38 1684.63 1504.3 1689.23 Q1501.25 1693.82 1495.44 1693.82 Q1489.63 1693.82 1486.55 1689.23 Q1483.49 1684.63 1483.49 1675.9 Q1483.49 1667.15 1486.55 1662.57 Q1489.63 1657.96 1495.44 1657.96 Z" fill="#000000" fill-rule="nonzero" fill-opacity="1" /><path clip-path="url(#clip100)" d="M1525.6 1661.67 Q1521.99 1661.67 1520.16 1665.23 Q1518.35 1668.77 1518.35 1675.9 Q1518.35 1683.01 1520.16 1686.57 Q1521.99 1690.11 1525.6 1690.11 Q1529.23 1690.11 1531.04 1686.57 Q1532.87 1683.01 1532.87 1675.9 Q1532.87 1668.77 1531.04 1665.23 Q1529.23 1661.67 1525.6 1661.67 M1525.6 1657.96 Q1531.41 1657.96 1534.46 1662.57 Q1537.54 1667.15 1537.54 1675.9 Q1537.54 1684.63 1534.46 1689.23 Q1531.41 1693.82 1525.6 1693.82 Q1519.79 1693.82 1516.71 1689.23 Q1513.65 1684.63 1513.65 1675.9 Q1513.65 1667.15 1516.71 1662.57 Q1519.79 1657.96 1525.6 1657.96 Z" fill="#000000" fill-rule="nonzero" fill-opacity="1" /><path clip-path="url(#clip100)" d="M1451.2 1285.92 Q1447.59 1285.92 1445.76 1289.48 Q1443.95 1293.03 1443.95 1300.16 Q1443.95 1307.26 1445.76 1310.83 Q1447.59 1314.37 1451.2 1314.37 Q1454.83 1314.37 1456.64 1310.83 Q1458.47 1307.26 1458.47 1300.16 Q1458.47 1293.03 1456.64 1289.48 Q1454.83 1285.92 1451.2 1285.92 M1451.2 1282.22 Q1457.01 1282.22 1460.07 1286.82 Q1463.14 1291.41 1463.14 1300.16 Q1463.14 1308.88 1460.07 1313.49 Q1457.01 1318.07 1451.2 1318.07 Q1445.39 1318.07 1442.31 1313.49 Q1439.26 1308.88 1439.26 1300.16 Q1439.26 1291.41 1442.31 1286.82 Q1445.39 1282.22 1451.2 1282.22 Z" fill="#000000" fill-rule="nonzero" fill-opacity="1" /><path clip-path="url(#clip100)" d="M1471.36 1311.52 L1476.25 1311.52 L1476.25 1317.4 L1471.36 1317.4 L1471.36 1311.52 Z" fill="#000000" fill-rule="nonzero" fill-opacity="1" /><path clip-path="url(#clip100)" d="M1490.46 1313.47 L1506.78 1313.47 L1506.78 1317.4 L1484.83 1317.4 L1484.83 1313.47 Q1487.5 1310.71 1492.08 1306.08 Q1496.69 1301.43 1497.87 1300.09 Q1500.11 1297.56 1500.99 1295.83 Q1501.89 1294.07 1501.89 1292.38 Q1501.89 1289.62 1499.95 1287.89 Q1498.03 1286.15 1494.93 1286.15 Q1492.73 1286.15 1490.27 1286.91 Q1487.84 1287.68 1485.07 1289.23 L1485.07 1284.51 Q1487.89 1283.37 1490.34 1282.79 Q1492.8 1282.22 1494.83 1282.22 Q1500.2 1282.22 1503.4 1284.9 Q1506.59 1287.59 1506.59 1292.08 Q1506.59 1294.21 1505.78 1296.13 Q1505 1298.03 1502.89 1300.62 Q1502.31 1301.29 1499.21 1304.51 Q1496.11 1307.7 1490.46 1313.47 Z" fill="#000000" fill-rule="nonzero" fill-opacity="1" /><path clip-path="url(#clip100)" d="M1516.64 1282.84 L1535 1282.84 L1535 1286.78 L1520.92 1286.78 L1520.92 1295.25 Q1521.94 1294.9 1522.96 1294.74 Q1523.98 1294.55 1525 1294.55 Q1530.78 1294.55 1534.16 1297.72 Q1537.54 1300.9 1537.54 1306.31 Q1537.54 1311.89 1534.07 1314.99 Q1530.6 1318.07 1524.28 1318.07 Q1522.1 1318.07 1519.83 1317.7 Q1517.59 1317.33 1515.18 1316.59 L1515.18 1311.89 Q1517.26 1313.03 1519.49 1313.58 Q1521.71 1314.14 1524.19 1314.14 Q1528.19 1314.14 1530.53 1312.03 Q1532.87 1309.92 1532.87 1306.31 Q1532.87 1302.7 1530.53 1300.6 Q1528.19 1298.49 1524.19 1298.49 Q1522.31 1298.49 1520.44 1298.91 Q1518.58 1299.32 1516.64 1300.2 L1516.64 1282.84 Z" fill="#000000" fill-rule="nonzero" fill-opacity="1" /><path clip-path="url(#clip100)" d="M1450.2 910.173 Q1446.59 910.173 1444.77 913.738 Q1442.96 917.279 1442.96 924.409 Q1442.96 931.515 1444.77 935.08 Q1446.59 938.622 1450.2 938.622 Q1453.84 938.622 1455.64 935.08 Q1457.47 931.515 1457.47 924.409 Q1457.47 917.279 1455.64 913.738 Q1453.84 910.173 1450.2 910.173 M1450.2 906.469 Q1456.02 906.469 1459.07 911.076 Q1462.15 915.659 1462.15 924.409 Q1462.15 933.136 1459.07 937.742 Q1456.02 942.326 1450.2 942.326 Q1444.39 942.326 1441.32 937.742 Q1438.26 933.136 1438.26 924.409 Q1438.26 915.659 1441.32 911.076 Q1444.39 906.469 1450.2 906.469 Z" fill="#000000" fill-rule="nonzero" fill-opacity="1" /><path clip-path="url(#clip100)" d="M1470.37 935.775 L1475.25 935.775 L1475.25 941.654 L1470.37 941.654 L1470.37 935.775 Z" fill="#000000" fill-rule="nonzero" fill-opacity="1" /><path clip-path="url(#clip100)" d="M1485.48 907.094 L1503.84 907.094 L1503.84 911.029 L1489.76 911.029 L1489.76 919.502 Q1490.78 919.154 1491.8 918.992 Q1492.82 918.807 1493.84 918.807 Q1499.63 918.807 1503.01 921.978 Q1506.39 925.15 1506.39 930.566 Q1506.39 936.145 1502.91 939.247 Q1499.44 942.326 1493.12 942.326 Q1490.95 942.326 1488.68 941.955 Q1486.43 941.585 1484.02 940.844 L1484.02 936.145 Q1486.11 937.279 1488.33 937.835 Q1490.55 938.39 1493.03 938.39 Q1497.03 938.39 1499.37 936.284 Q1501.71 934.177 1501.71 930.566 Q1501.71 926.955 1499.37 924.849 Q1497.03 922.742 1493.03 922.742 Q1491.15 922.742 1489.28 923.159 Q1487.43 923.576 1485.48 924.455 L1485.48 907.094 Z" fill="#000000" fill-rule="nonzero" fill-opacity="1" /><path clip-path="url(#clip100)" d="M1525.6 910.173 Q1521.99 910.173 1520.16 913.738 Q1518.35 917.279 1518.35 924.409 Q1518.35 931.515 1520.16 935.08 Q1521.99 938.622 1525.6 938.622 Q1529.23 938.622 1531.04 935.08 Q1532.87 931.515 1532.87 924.409 Q1532.87 917.279 1531.04 913.738 Q1529.23 910.173 1525.6 910.173 M1525.6 906.469 Q1531.41 906.469 1534.46 911.076 Q1537.54 915.659 1537.54 924.409 Q1537.54 933.136 1534.46 937.742 Q1531.41 942.326 1525.6 942.326 Q1519.79 942.326 1516.71 937.742 Q1513.65 933.136 1513.65 924.409 Q1513.65 915.659 1516.71 911.076 Q1519.79 906.469 1525.6 906.469 Z" fill="#000000" fill-rule="nonzero" fill-opacity="1" /><path clip-path="url(#clip100)" d="M1451.2 534.427 Q1447.59 534.427 1445.76 537.991 Q1443.95 541.533 1443.95 548.663 Q1443.95 555.769 1445.76 559.334 Q1447.59 562.876 1451.2 562.876 Q1454.83 562.876 1456.64 559.334 Q1458.47 555.769 1458.47 548.663 Q1458.47 541.533 1456.64 537.991 Q1454.83 534.427 1451.2 534.427 M1451.2 530.723 Q1457.01 530.723 1460.07 535.329 Q1463.14 539.913 1463.14 548.663 Q1463.14 557.39 1460.07 561.996 Q1457.01 566.579 1451.2 566.579 Q1445.39 566.579 1442.31 561.996 Q1439.26 557.39 1439.26 548.663 Q1439.26 539.913 1442.31 535.329 Q1445.39 530.723 1451.2 530.723 Z" fill="#000000" fill-rule="nonzero" fill-opacity="1" /><path clip-path="url(#clip100)" d="M1471.36 560.028 L1476.25 560.028 L1476.25 565.908 L1471.36 565.908 L1471.36 560.028 Z" fill="#000000" fill-rule="nonzero" fill-opacity="1" /><path clip-path="url(#clip100)" d="M1485.25 531.348 L1507.47 531.348 L1507.47 533.339 L1494.93 565.908 L1490.04 565.908 L1501.85 535.283 L1485.25 535.283 L1485.25 531.348 Z" fill="#000000" fill-rule="nonzero" fill-opacity="1" /><path clip-path="url(#clip100)" d="M1516.64 531.348 L1535 531.348 L1535 535.283 L1520.92 535.283 L1520.92 543.755 Q1521.94 543.408 1522.96 543.246 Q1523.98 543.061 1525 543.061 Q1530.78 543.061 1534.16 546.232 Q1537.54 549.403 1537.54 554.82 Q1537.54 560.399 1534.07 563.501 Q1530.6 566.579 1524.28 566.579 Q1522.1 566.579 1519.83 566.209 Q1517.59 565.839 1515.18 565.098 L1515.18 560.399 Q1517.26 561.533 1519.49 562.089 Q1521.71 562.644 1524.19 562.644 Q1528.19 562.644 1530.53 560.538 Q1532.87 558.431 1532.87 554.82 Q1532.87 551.209 1530.53 549.103 Q1528.19 546.996 1524.19 546.996 Q1522.31 546.996 1520.44 547.413 Q1518.58 547.829 1516.64 548.709 L1516.64 531.348 Z" fill="#000000" fill-rule="nonzero" fill-opacity="1" /><path clip-path="url(#clip100)" d="M1441.02 186.227 L1448.65 186.227 L1448.65 159.861 L1440.34 161.528 L1440.34 157.268 L1448.61 155.602 L1453.28 155.602 L1453.28 186.227 L1460.92 186.227 L1460.92 190.162 L1441.02 190.162 L1441.02 186.227 Z" fill="#000000" fill-rule="nonzero" fill-opacity="1" /><path clip-path="url(#clip100)" d="M1470.37 184.282 L1475.25 184.282 L1475.25 190.162 L1470.37 190.162 L1470.37 184.282 Z" fill="#000000" fill-rule="nonzero" fill-opacity="1" /><path clip-path="url(#clip100)" d="M1495.44 158.68 Q1491.83 158.68 1490 162.245 Q1488.19 165.787 1488.19 172.916 Q1488.19 180.023 1490 183.588 Q1491.83 187.129 1495.44 187.129 Q1499.07 187.129 1500.88 183.588 Q1502.7 180.023 1502.7 172.916 Q1502.7 165.787 1500.88 162.245 Q1499.07 158.68 1495.44 158.68 M1495.44 154.977 Q1501.25 154.977 1504.3 159.583 Q1507.38 164.166 1507.38 172.916 Q1507.38 181.643 1504.3 186.25 Q1501.25 190.833 1495.44 190.833 Q1489.63 190.833 1486.55 186.25 Q1483.49 181.643 1483.49 172.916 Q1483.49 164.166 1486.55 159.583 Q1489.63 154.977 1495.44 154.977 Z" fill="#000000" fill-rule="nonzero" fill-opacity="1" /><path clip-path="url(#clip100)" d="M1525.6 158.68 Q1521.99 158.68 1520.16 162.245 Q1518.35 165.787 1518.35 172.916 Q1518.35 180.023 1520.16 183.588 Q1521.99 187.129 1525.6 187.129 Q1529.23 187.129 1531.04 183.588 Q1532.87 180.023 1532.87 172.916 Q1532.87 165.787 1531.04 162.245 Q1529.23 158.68 1525.6 158.68 M1525.6 154.977 Q1531.41 154.977 1534.46 159.583 Q1537.54 164.166 1537.54 172.916 Q1537.54 181.643 1534.46 186.25 Q1531.41 190.833 1525.6 190.833 Q1519.79 190.833 1516.71 186.25 Q1513.65 181.643 1513.65 172.916 Q1513.65 164.166 1516.71 159.583 Q1519.79 154.977 1525.6 154.977 Z" fill="#000000" fill-rule="nonzero" fill-opacity="1" /><path clip-path="url(#clip100)" d="M1828.74 18.8205 L1828.74 41.5461 L1839.03 41.5461 Q1844.74 41.5461 1847.86 38.5889 Q1850.98 35.6318 1850.98 30.163 Q1850.98 24.7348 1847.86 21.7777 Q1844.74 18.8205 1839.03 18.8205 L1828.74 18.8205 M1820.56 12.096 L1839.03 12.096 Q1849.2 12.096 1854.39 16.714 Q1859.61 21.2916 1859.61 30.163 Q1859.61 39.1155 1854.39 43.6931 Q1849.2 48.2706 1839.03 48.2706 L1828.74 48.2706 L1828.74 72.576 L1820.56 72.576 L1820.56 12.096 Z" fill="#000000" fill-rule="nonzero" fill-opacity="1" /><path clip-path="url(#clip100)" d="M1884.89 32.4315 Q1878.89 32.4315 1875.41 37.1306 Q1871.93 41.7891 1871.93 49.9314 Q1871.93 58.0738 1875.37 62.7728 Q1878.85 67.4314 1884.89 67.4314 Q1890.84 67.4314 1894.33 62.7323 Q1897.81 58.0333 1897.81 49.9314 Q1897.81 41.8701 1894.33 37.1711 Q1890.84 32.4315 1884.89 32.4315 M1884.89 26.1121 Q1894.61 26.1121 1900.16 32.4315 Q1905.71 38.7509 1905.71 49.9314 Q1905.71 61.0714 1900.16 67.4314 Q1894.61 73.7508 1884.89 73.7508 Q1875.13 73.7508 1869.58 67.4314 Q1864.07 61.0714 1864.07 49.9314 Q1864.07 38.7509 1869.58 32.4315 Q1875.13 26.1121 1884.89 26.1121 Z" fill="#000000" fill-rule="nonzero" fill-opacity="1" /><path clip-path="url(#clip100)" d="M1918.07 9.54393 L1925.52 9.54393 L1925.52 72.576 L1918.07 72.576 L1918.07 9.54393 Z" fill="#000000" fill-rule="nonzero" fill-opacity="1" /><path clip-path="url(#clip100)" d="M1979.92 48.0275 L1979.92 51.6733 L1945.65 51.6733 Q1946.14 59.3701 1950.27 63.421 Q1954.44 67.4314 1961.86 67.4314 Q1966.15 67.4314 1970.16 66.3781 Q1974.21 65.3249 1978.18 63.2184 L1978.18 70.267 Q1974.17 71.9684 1969.96 72.8596 Q1965.75 73.7508 1961.41 73.7508 Q1950.55 73.7508 1944.19 67.4314 Q1937.87 61.1119 1937.87 50.3365 Q1937.87 39.1965 1943.87 32.6746 Q1949.91 26.1121 1960.11 26.1121 Q1969.27 26.1121 1974.58 32.0264 Q1979.92 37.9003 1979.92 48.0275 M1972.47 45.84 Q1972.39 39.7232 1969.03 36.0774 Q1965.7 32.4315 1960.2 32.4315 Q1953.96 32.4315 1950.19 35.9558 Q1946.46 39.4801 1945.9 45.8805 L1972.47 45.84 Z" fill="#000000" fill-rule="nonzero" fill-opacity="1" /><path clip-path="url(#clip100)" d="M1988.39 46.5287 L2010.22 46.5287 L2010.22 53.1722 L1988.39 53.1722 L1988.39 46.5287 Z" fill="#000000" fill-rule="nonzero" fill-opacity="1" /><path clip-path="url(#clip100)" d="M2018.85 27.2059 L2054.26 27.2059 L2054.26 34.0114 L2026.23 66.6212 L2054.26 66.6212 L2054.26 72.576 L2017.84 72.576 L2017.84 65.7705 L2045.87 33.1607 L2018.85 33.1607 L2018.85 27.2059 Z" fill="#000000" fill-rule="nonzero" fill-opacity="1" /><path clip-path="url(#clip100)" d="M2104.45 48.0275 L2104.45 51.6733 L2070.18 51.6733 Q2070.66 59.3701 2074.8 63.421 Q2078.97 67.4314 2086.38 67.4314 Q2090.68 67.4314 2094.69 66.3781 Q2098.74 65.3249 2102.71 63.2184 L2102.71 70.267 Q2098.7 71.9684 2094.48 72.8596 Q2090.27 73.7508 2085.94 73.7508 Q2075.08 73.7508 2068.72 67.4314 Q2062.4 61.1119 2062.4 50.3365 Q2062.4 39.1965 2068.4 32.6746 Q2074.43 26.1121 2084.64 26.1121 Q2093.79 26.1121 2099.1 32.0264 Q2104.45 37.9003 2104.45 48.0275 M2096.99 45.84 Q2096.91 39.7232 2093.55 36.0774 Q2090.23 32.4315 2084.72 32.4315 Q2078.48 32.4315 2074.71 35.9558 Q2070.99 39.4801 2070.42 45.8805 L2096.99 45.84 Z" fill="#000000" fill-rule="nonzero" fill-opacity="1" /><path clip-path="url(#clip100)" d="M2142.97 34.1734 Q2141.72 33.4443 2140.22 33.1202 Q2138.76 32.7556 2136.98 32.7556 Q2130.66 32.7556 2127.25 36.8875 Q2123.89 40.9789 2123.89 48.6757 L2123.89 72.576 L2116.4 72.576 L2116.4 27.2059 L2123.89 27.2059 L2123.89 34.2544 Q2126.24 30.1225 2130.01 28.1376 Q2133.78 26.1121 2139.16 26.1121 Q2139.93 26.1121 2140.87 26.2337 Q2141.8 26.3147 2142.93 26.5172 L2142.97 34.1734 Z" fill="#000000" fill-rule="nonzero" fill-opacity="1" /><path clip-path="url(#clip100)" d="M2166.55 32.4315 Q2160.55 32.4315 2157.07 37.1306 Q2153.59 41.7891 2153.59 49.9314 Q2153.59 58.0738 2157.03 62.7728 Q2160.51 67.4314 2166.55 67.4314 Q2172.5 67.4314 2175.99 62.7323 Q2179.47 58.0333 2179.47 49.9314 Q2179.47 41.8701 2175.99 37.1711 Q2172.5 32.4315 2166.55 32.4315 M2166.55 26.1121 Q2176.27 26.1121 2181.82 32.4315 Q2187.37 38.7509 2187.37 49.9314 Q2187.37 61.0714 2181.82 67.4314 Q2176.27 73.7508 2166.55 73.7508 Q2156.79 73.7508 2151.24 67.4314 Q2145.73 61.0714 2145.73 49.9314 Q2145.73 38.7509 2151.24 32.4315 Q2156.79 26.1121 2166.55 26.1121 Z" fill="#000000" fill-rule="nonzero" fill-opacity="1" /><path clip-path="url(#clip100)" d="M2261.42 35.9153 Q2264.22 30.8922 2268.1 28.5022 Q2271.99 26.1121 2277.26 26.1121 Q2284.35 26.1121 2288.2 31.0947 Q2292.05 36.0368 2292.05 45.1919 L2292.05 72.576 L2284.55 72.576 L2284.55 45.4349 Q2284.55 38.913 2282.24 35.7533 Q2279.93 32.5936 2275.19 32.5936 Q2269.4 32.5936 2266.04 36.4419 Q2262.68 40.2903 2262.68 46.9338 L2262.68 72.576 L2255.18 72.576 L2255.18 45.4349 Q2255.18 38.8725 2252.87 35.7533 Q2250.56 32.5936 2245.74 32.5936 Q2240.03 32.5936 2236.67 36.4824 Q2233.31 40.3308 2233.31 46.9338 L2233.31 72.576 L2225.81 72.576 L2225.81 27.2059 L2233.31 27.2059 L2233.31 34.2544 Q2235.86 30.082 2239.42 28.0971 Q2242.99 26.1121 2247.89 26.1121 Q2252.83 26.1121 2256.28 28.6237 Q2259.76 31.1352 2261.42 35.9153 Z" fill="#000000" fill-rule="nonzero" fill-opacity="1" /><path clip-path="url(#clip100)" d="M2327.53 49.7694 Q2318.5 49.7694 2315.01 51.8354 Q2311.53 53.9013 2311.53 58.8839 Q2311.53 62.8538 2314.12 65.2034 Q2316.76 67.5124 2321.25 67.5124 Q2327.45 67.5124 2331.18 63.1374 Q2334.94 58.7219 2334.94 51.4303 L2334.94 49.7694 L2327.53 49.7694 M2342.4 46.6907 L2342.4 72.576 L2334.94 72.576 L2334.94 65.6895 Q2332.39 69.8214 2328.58 71.8063 Q2324.78 73.7508 2319.27 73.7508 Q2312.3 73.7508 2308.17 69.8619 Q2304.08 65.9325 2304.08 59.3701 Q2304.08 51.7138 2309.18 47.825 Q2314.33 43.9361 2324.49 43.9361 L2334.94 43.9361 L2334.94 43.2069 Q2334.94 38.0623 2331.54 35.2672 Q2328.18 32.4315 2322.06 32.4315 Q2318.17 32.4315 2314.49 33.3632 Q2310.8 34.295 2307.4 36.1584 L2307.4 29.2718 Q2311.49 27.692 2315.34 26.9223 Q2319.19 26.1121 2322.83 26.1121 Q2332.68 26.1121 2337.54 31.2163 Q2342.4 36.3204 2342.4 46.6907 Z" fill="#000000" fill-rule="nonzero" fill-opacity="1" /><path clip-path="url(#clip100)" d="M2364.96 65.7705 L2364.96 89.8329 L2357.47 89.8329 L2357.47 27.2059 L2364.96 27.2059 L2364.96 34.0924 Q2367.31 30.0415 2370.88 28.0971 Q2374.48 26.1121 2379.46 26.1121 Q2387.73 26.1121 2392.87 32.6746 Q2398.06 39.2371 2398.06 49.9314 Q2398.06 60.6258 2392.87 67.1883 Q2387.73 73.7508 2379.46 73.7508 Q2374.48 73.7508 2370.88 71.8063 Q2367.31 69.8214 2364.96 65.7705 M2390.32 49.9314 Q2390.32 41.7081 2386.92 37.0496 Q2383.56 32.3505 2377.64 32.3505 Q2371.73 32.3505 2368.32 37.0496 Q2364.96 41.7081 2364.96 49.9314 Q2364.96 58.1548 2368.32 62.8538 Q2371.73 67.5124 2377.64 67.5124 Q2383.56 67.5124 2386.92 62.8538 Q2390.32 58.1548 2390.32 49.9314 Z" fill="#000000" fill-rule="nonzero" fill-opacity="1" /><line clip-path="url(#clip104)" x1="2610.67" y1="1675.87" x2="2550.67" y2="1615.87" style="stroke:#009af9; stroke-width:3.84; stroke-opacity:0.5"/>
<line clip-path="url(#clip104)" x1="2610.67" y1="1675.87" x2="2550.67" y2="1735.87" style="stroke:#009af9; stroke-width:3.84; stroke-opacity:0.5"/>
<line clip-path="url(#clip104)" x1="2610.67" y1="1675.87" x2="2670.67" y2="1735.87" style="stroke:#009af9; stroke-width:3.84; stroke-opacity:0.5"/>
<line clip-path="url(#clip104)" x1="2610.67" y1="1675.87" x2="2670.67" y2="1615.87" style="stroke:#009af9; stroke-width:3.84; stroke-opacity:0.5"/>
<line clip-path="url(#clip104)" x1="2560.54" y1="1675.87" x2="2500.54" y2="1615.87" style="stroke:#009af9; stroke-width:3.84; stroke-opacity:0.5"/>
<line clip-path="url(#clip104)" x1="2560.54" y1="1675.87" x2="2500.54" y2="1735.87" style="stroke:#009af9; stroke-width:3.84; stroke-opacity:0.5"/>
<line clip-path="url(#clip104)" x1="2560.54" y1="1675.87" x2="2620.54" y2="1735.87" style="stroke:#009af9; stroke-width:3.84; stroke-opacity:0.5"/>
<line clip-path="url(#clip104)" x1="2560.54" y1="1675.87" x2="2620.54" y2="1615.87" style="stroke:#009af9; stroke-width:3.84; stroke-opacity:0.5"/>
<line clip-path="url(#clip104)" x1="1607.94" y1="1675.87" x2="1547.94" y2="1615.87" style="stroke:#009af9; stroke-width:3.84; stroke-opacity:0.5"/>
<line clip-path="url(#clip104)" x1="1607.94" y1="1675.87" x2="1547.94" y2="1735.87" style="stroke:#009af9; stroke-width:3.84; stroke-opacity:0.5"/>
<line clip-path="url(#clip104)" x1="1607.94" y1="1675.87" x2="1667.94" y2="1735.87" style="stroke:#009af9; stroke-width:3.84; stroke-opacity:0.5"/>
<line clip-path="url(#clip104)" x1="1607.94" y1="1675.87" x2="1667.94" y2="1615.87" style="stroke:#009af9; stroke-width:3.84; stroke-opacity:0.5"/>
</svg>
