<?xml version="1.0" encoding="utf-8"?>
<svg xmlns="http://www.w3.org/2000/svg" xmlns:xlink="http://www.w3.org/1999/xlink" width="600" height="400" viewBox="0 0 2400 1600">
<defs>
  <clipPath id="clip180">
    <rect x="0" y="0" width="2400" height="1600"/>
  </clipPath>
</defs>
<path clip-path="url(#clip180)" d="M0 1600 L2400 1600 L2400 0 L0 0  Z" fill="#ffffff" fill-rule="evenodd" fill-opacity="1"/>
<defs>
  <clipPath id="clip181">
    <rect x="480" y="0" width="1681" height="1600"/>
  </clipPath>
</defs>
<path clip-path="url(#clip180)" d="M178.867 1423.18 L2352.76 1423.18 L2352.76 47.2441 L178.867 47.2441  Z" fill="#ffffff" fill-rule="evenodd" fill-opacity="1"/>
<defs>
  <clipPath id="clip182">
    <rect x="178" y="47" width="2175" height="1377"/>
  </clipPath>
</defs>
<polyline clip-path="url(#clip182)" style="stroke:#000000; stroke-linecap:round; stroke-linejoin:round; stroke-width:2; stroke-opacity:0.1; fill:none" points="240.392,1423.18 240.392,47.2441 "/>
<polyline clip-path="url(#clip182)" style="stroke:#000000; stroke-linecap:round; stroke-linejoin:round; stroke-width:2; stroke-opacity:0.1; fill:none" points="650.56,1423.18 650.56,47.2441 "/>
<polyline clip-path="url(#clip182)" style="stroke:#000000; stroke-linecap:round; stroke-linejoin:round; stroke-width:2; stroke-opacity:0.1; fill:none" points="1060.73,1423.18 1060.73,47.2441 "/>
<polyline clip-path="url(#clip182)" style="stroke:#000000; stroke-linecap:round; stroke-linejoin:round; stroke-width:2; stroke-opacity:0.1; fill:none" points="1470.9,1423.18 1470.9,47.2441 "/>
<polyline clip-path="url(#clip182)" style="stroke:#000000; stroke-linecap:round; stroke-linejoin:round; stroke-width:2; stroke-opacity:0.1; fill:none" points="1881.06,1423.18 1881.06,47.2441 "/>
<polyline clip-path="url(#clip182)" style="stroke:#000000; stroke-linecap:round; stroke-linejoin:round; stroke-width:2; stroke-opacity:0.1; fill:none" points="2291.23,1423.18 2291.23,47.2441 "/>
<polyline clip-path="url(#clip182)" style="stroke:#000000; stroke-linecap:round; stroke-linejoin:round; stroke-width:2; stroke-opacity:0.1; fill:none" points="178.867,1384.24 2352.76,1384.24 "/>
<polyline clip-path="url(#clip182)" style="stroke:#000000; stroke-linecap:round; stroke-linejoin:round; stroke-width:2; stroke-opacity:0.1; fill:none" points="178.867,1059.73 2352.76,1059.73 "/>
<polyline clip-path="url(#clip182)" style="stroke:#000000; stroke-linecap:round; stroke-linejoin:round; stroke-width:2; stroke-opacity:0.1; fill:none" points="178.867,735.212 2352.76,735.212 "/>
<polyline clip-path="url(#clip182)" style="stroke:#000000; stroke-linecap:round; stroke-linejoin:round; stroke-width:2; stroke-opacity:0.1; fill:none" points="178.867,410.699 2352.76,410.699 "/>
<polyline clip-path="url(#clip182)" style="stroke:#000000; stroke-linecap:round; stroke-linejoin:round; stroke-width:2; stroke-opacity:0.1; fill:none" points="178.867,86.1857 2352.76,86.1857 "/>
<polyline clip-path="url(#clip180)" style="stroke:#000000; stroke-linecap:round; stroke-linejoin:round; stroke-width:4; stroke-opacity:1; fill:none" points="178.867,1423.18 2352.76,1423.18 "/>
<polyline clip-path="url(#clip180)" style="stroke:#000000; stroke-linecap:round; stroke-linejoin:round; stroke-width:4; stroke-opacity:1; fill:none" points="240.392,1423.18 240.392,1404.28 "/>
<polyline clip-path="url(#clip180)" style="stroke:#000000; stroke-linecap:round; stroke-linejoin:round; stroke-width:4; stroke-opacity:1; fill:none" points="650.56,1423.18 650.56,1404.28 "/>
<polyline clip-path="url(#clip180)" style="stroke:#000000; stroke-linecap:round; stroke-linejoin:round; stroke-width:4; stroke-opacity:1; fill:none" points="1060.73,1423.18 1060.73,1404.28 "/>
<polyline clip-path="url(#clip180)" style="stroke:#000000; stroke-linecap:round; stroke-linejoin:round; stroke-width:4; stroke-opacity:1; fill:none" points="1470.9,1423.18 1470.9,1404.28 "/>
<polyline clip-path="url(#clip180)" style="stroke:#000000; stroke-linecap:round; stroke-linejoin:round; stroke-width:4; stroke-opacity:1; fill:none" points="1881.06,1423.18 1881.06,1404.28 "/>
<polyline clip-path="url(#clip180)" style="stroke:#000000; stroke-linecap:round; stroke-linejoin:round; stroke-width:4; stroke-opacity:1; fill:none" points="2291.23,1423.18 2291.23,1404.28 "/>
<path clip-path="url(#clip180)" d="M240.392 1454.1 Q236.781 1454.1 234.952 1457.66 Q233.146 1461.2 233.146 1468.33 Q233.146 1475.44 234.952 1479.01 Q236.781 1482.55 240.392 1482.55 Q244.026 1482.55 245.832 1479.01 Q247.66 1475.44 247.66 1468.33 Q247.66 1461.2 245.832 1457.66 Q244.026 1454.1 240.392 1454.1 M240.392 1450.39 Q246.202 1450.39 249.257 1455 Q252.336 1459.58 252.336 1468.33 Q252.336 1477.06 249.257 1481.67 Q246.202 1486.25 240.392 1486.25 Q234.582 1486.25 231.503 1481.67 Q228.447 1477.06 228.447 1468.33 Q228.447 1459.58 231.503 1455 Q234.582 1450.39 240.392 1450.39 Z" fill="#000000" fill-rule="nonzero" fill-opacity="1" /><path clip-path="url(#clip180)" d="M640.942 1481.64 L648.58 1481.64 L648.58 1455.28 L640.27 1456.95 L640.27 1452.69 L648.534 1451.02 L653.21 1451.02 L653.21 1481.64 L660.849 1481.64 L660.849 1485.58 L640.942 1485.58 L640.942 1481.64 Z" fill="#000000" fill-rule="nonzero" fill-opacity="1" /><path clip-path="url(#clip180)" d="M1055.38 1481.64 L1071.7 1481.64 L1071.7 1485.58 L1049.76 1485.58 L1049.76 1481.64 Q1052.42 1478.89 1057 1474.26 Q1061.61 1469.61 1062.79 1468.27 Q1065.03 1465.74 1065.91 1464.01 Q1066.82 1462.25 1066.82 1460.56 Q1066.82 1457.8 1064.87 1456.07 Q1062.95 1454.33 1059.85 1454.33 Q1057.65 1454.33 1055.19 1455.09 Q1052.76 1455.86 1049.99 1457.41 L1049.99 1452.69 Q1052.81 1451.55 1055.26 1450.97 Q1057.72 1450.39 1059.76 1450.39 Q1065.13 1450.39 1068.32 1453.08 Q1071.51 1455.77 1071.51 1460.26 Q1071.51 1462.39 1070.7 1464.31 Q1069.92 1466.2 1067.81 1468.8 Q1067.23 1469.47 1064.13 1472.69 Q1061.03 1475.88 1055.38 1481.64 Z" fill="#000000" fill-rule="nonzero" fill-opacity="1" /><path clip-path="url(#clip180)" d="M1475.14 1466.95 Q1478.5 1467.66 1480.37 1469.93 Q1482.27 1472.2 1482.27 1475.53 Q1482.27 1480.65 1478.75 1483.45 Q1475.24 1486.25 1468.75 1486.25 Q1466.58 1486.25 1464.26 1485.81 Q1461.97 1485.39 1459.52 1484.54 L1459.52 1480.02 Q1461.46 1481.16 1463.78 1481.74 Q1466.09 1482.32 1468.62 1482.32 Q1473.01 1482.32 1475.3 1480.58 Q1477.62 1478.84 1477.62 1475.53 Q1477.62 1472.48 1475.47 1470.77 Q1473.34 1469.03 1469.52 1469.03 L1465.49 1469.03 L1465.49 1465.19 L1469.7 1465.19 Q1473.15 1465.19 1474.98 1463.82 Q1476.81 1462.43 1476.81 1459.84 Q1476.81 1457.18 1474.91 1455.77 Q1473.04 1454.33 1469.52 1454.33 Q1467.6 1454.33 1465.4 1454.75 Q1463.2 1455.16 1460.56 1456.04 L1460.56 1451.88 Q1463.22 1451.14 1465.54 1450.77 Q1467.87 1450.39 1469.93 1450.39 Q1475.26 1450.39 1478.36 1452.83 Q1481.46 1455.23 1481.46 1459.35 Q1481.46 1462.22 1479.82 1464.21 Q1478.18 1466.18 1475.14 1466.95 Z" fill="#000000" fill-rule="nonzero" fill-opacity="1" /><path clip-path="url(#clip180)" d="M1884.07 1455.09 L1872.27 1473.54 L1884.07 1473.54 L1884.07 1455.09 M1882.85 1451.02 L1888.72 1451.02 L1888.72 1473.54 L1893.66 1473.54 L1893.66 1477.43 L1888.72 1477.43 L1888.72 1485.58 L1884.07 1485.58 L1884.07 1477.43 L1868.47 1477.43 L1868.47 1472.92 L1882.85 1451.02 Z" fill="#000000" fill-rule="nonzero" fill-opacity="1" /><path clip-path="url(#clip180)" d="M2281.51 1451.02 L2299.86 1451.02 L2299.86 1454.96 L2285.79 1454.96 L2285.79 1463.43 Q2286.81 1463.08 2287.83 1462.92 Q2288.85 1462.73 2289.87 1462.73 Q2295.65 1462.73 2299.03 1465.9 Q2302.41 1469.08 2302.41 1474.49 Q2302.41 1480.07 2298.94 1483.17 Q2295.47 1486.25 2289.15 1486.25 Q2286.97 1486.25 2284.7 1485.88 Q2282.46 1485.51 2280.05 1484.77 L2280.05 1480.07 Q2282.13 1481.2 2284.36 1481.76 Q2286.58 1482.32 2289.05 1482.32 Q2293.06 1482.32 2295.4 1480.21 Q2297.74 1478.1 2297.74 1474.49 Q2297.74 1470.88 2295.4 1468.77 Q2293.06 1466.67 2289.05 1466.67 Q2287.18 1466.67 2285.3 1467.08 Q2283.45 1467.5 2281.51 1468.38 L2281.51 1451.02 Z" fill="#000000" fill-rule="nonzero" fill-opacity="1" /><path clip-path="url(#clip180)" d="M1214.12 1522.27 L1214.12 1532.4 L1226.18 1532.4 L1226.18 1536.95 L1214.12 1536.95 L1214.12 1556.3 Q1214.12 1560.66 1215.3 1561.9 Q1216.51 1563.14 1220.17 1563.14 L1226.18 1563.14 L1226.18 1568.04 L1220.17 1568.04 Q1213.39 1568.04 1210.81 1565.53 Q1208.23 1562.98 1208.23 1556.3 L1208.23 1536.95 L1203.94 1536.95 L1203.94 1532.4 L1208.23 1532.4 L1208.23 1522.27 L1214.12 1522.27 Z" fill="#000000" fill-rule="nonzero" fill-opacity="1" /><path clip-path="url(#clip180)" d="M1254.07 1518.52 L1267.56 1518.52 L1267.56 1523.07 L1259.92 1523.07 L1259.92 1572.09 L1267.56 1572.09 L1267.56 1576.64 L1254.07 1576.64 L1254.07 1518.52 Z" fill="#000000" fill-rule="nonzero" fill-opacity="1" /><path clip-path="url(#clip180)" d="M1302.76 1533.45 L1302.76 1538.98 Q1300.28 1537.71 1297.61 1537.07 Q1294.93 1536.44 1292.07 1536.44 Q1287.71 1536.44 1285.51 1537.77 Q1283.35 1539.11 1283.35 1541.79 Q1283.35 1543.82 1284.91 1545 Q1286.47 1546.15 1291.18 1547.2 L1293.18 1547.64 Q1299.42 1548.98 1302.03 1551.43 Q1304.67 1553.85 1304.67 1558.21 Q1304.67 1563.17 1300.73 1566.07 Q1296.81 1568.97 1289.94 1568.97 Q1287.07 1568.97 1283.95 1568.39 Q1280.87 1567.85 1277.43 1566.74 L1277.43 1560.69 Q1280.68 1562.38 1283.83 1563.24 Q1286.98 1564.07 1290.06 1564.07 Q1294.2 1564.07 1296.43 1562.66 Q1298.66 1561.23 1298.66 1558.65 Q1298.66 1556.27 1297.04 1554.99 Q1295.44 1553.72 1290 1552.54 L1287.96 1552.07 Q1282.52 1550.92 1280.1 1548.56 Q1277.68 1546.18 1277.68 1542.04 Q1277.68 1537.01 1281.25 1534.27 Q1284.81 1531.54 1291.37 1531.54 Q1294.62 1531.54 1297.48 1532.01 Q1300.35 1532.49 1302.76 1533.45 Z" fill="#000000" fill-rule="nonzero" fill-opacity="1" /><path clip-path="url(#clip180)" d="M1327.69 1518.52 L1327.69 1576.64 L1314.19 1576.64 L1314.19 1572.09 L1321.8 1572.09 L1321.8 1523.07 L1314.19 1523.07 L1314.19 1518.52 L1327.69 1518.52 Z" fill="#000000" fill-rule="nonzero" fill-opacity="1" /><polyline clip-path="url(#clip180)" style="stroke:#000000; stroke-linecap:round; stroke-linejoin:round; stroke-width:4; stroke-opacity:1; fill:none" points="178.867,1423.18 178.867,47.2441 "/>
<polyline clip-path="url(#clip180)" style="stroke:#000000; stroke-linecap:round; stroke-linejoin:round; stroke-width:4; stroke-opacity:1; fill:none" points="178.867,1384.24 197.764,1384.24 "/>
<polyline clip-path="url(#clip180)" style="stroke:#000000; stroke-linecap:round; stroke-linejoin:round; stroke-width:4; stroke-opacity:1; fill:none" points="178.867,1059.73 197.764,1059.73 "/>
<polyline clip-path="url(#clip180)" style="stroke:#000000; stroke-linecap:round; stroke-linejoin:round; stroke-width:4; stroke-opacity:1; fill:none" points="178.867,735.212 197.764,735.212 "/>
<polyline clip-path="url(#clip180)" style="stroke:#000000; stroke-linecap:round; stroke-linejoin:round; stroke-width:4; stroke-opacity:1; fill:none" points="178.867,410.699 197.764,410.699 "/>
<polyline clip-path="url(#clip180)" style="stroke:#000000; stroke-linecap:round; stroke-linejoin:round; stroke-width:4; stroke-opacity:1; fill:none" points="178.867,86.1857 197.764,86.1857 "/>
<path clip-path="url(#clip180)" d="M50.9921 1384.69 L80.6679 1384.69 L80.6679 1388.62 L50.9921 1388.62 L50.9921 1384.69 Z" fill="#000000" fill-rule="nonzero" fill-opacity="1" /><path clip-path="url(#clip180)" d="M94.7882 1397.58 L111.108 1397.58 L111.108 1401.52 L89.1632 1401.52 L89.1632 1397.58 Q91.8252 1394.83 96.4085 1390.2 Q101.015 1385.55 102.196 1384.2 Q104.441 1381.68 105.321 1379.94 Q106.223 1378.19 106.223 1376.5 Q106.223 1373.74 104.279 1372 Q102.358 1370.27 99.2558 1370.27 Q97.0567 1370.27 94.603 1371.03 Q92.1725 1371.8 89.3947 1373.35 L89.3947 1368.62 Q92.2188 1367.49 94.6724 1366.91 Q97.1261 1366.33 99.1632 1366.33 Q104.534 1366.33 107.728 1369.02 Q110.922 1371.7 110.922 1376.19 Q110.922 1378.32 110.112 1380.25 Q109.325 1382.14 107.219 1384.74 Q106.64 1385.41 103.538 1388.62 Q100.436 1391.82 94.7882 1397.58 Z" fill="#000000" fill-rule="nonzero" fill-opacity="1" /><path clip-path="url(#clip180)" d="M130.922 1370.04 Q127.311 1370.04 125.482 1373.6 Q123.677 1377.14 123.677 1384.27 Q123.677 1391.38 125.482 1394.94 Q127.311 1398.49 130.922 1398.49 Q134.556 1398.49 136.362 1394.94 Q138.191 1391.38 138.191 1384.27 Q138.191 1377.14 136.362 1373.6 Q134.556 1370.04 130.922 1370.04 M130.922 1366.33 Q136.732 1366.33 139.788 1370.94 Q142.867 1375.52 142.867 1384.27 Q142.867 1393 139.788 1397.61 Q136.732 1402.19 130.922 1402.19 Q125.112 1402.19 122.033 1397.61 Q118.978 1393 118.978 1384.27 Q118.978 1375.52 122.033 1370.94 Q125.112 1366.33 130.922 1366.33 Z" fill="#000000" fill-rule="nonzero" fill-opacity="1" /><path clip-path="url(#clip180)" d="M50.9921 1060.18 L80.6679 1060.18 L80.6679 1064.11 L50.9921 1064.11 L50.9921 1060.18 Z" fill="#000000" fill-rule="nonzero" fill-opacity="1" /><path clip-path="url(#clip180)" d="M91.5706 1073.07 L99.2095 1073.07 L99.2095 1046.7 L90.8993 1048.37 L90.8993 1044.11 L99.1632 1042.45 L103.839 1042.45 L103.839 1073.07 L111.478 1073.07 L111.478 1077.01 L91.5706 1077.01 L91.5706 1073.07 Z" fill="#000000" fill-rule="nonzero" fill-opacity="1" /><path clip-path="url(#clip180)" d="M130.922 1045.52 Q127.311 1045.52 125.482 1049.09 Q123.677 1052.63 123.677 1059.76 Q123.677 1066.87 125.482 1070.43 Q127.311 1073.97 130.922 1073.97 Q134.556 1073.97 136.362 1070.43 Q138.191 1066.87 138.191 1059.76 Q138.191 1052.63 136.362 1049.09 Q134.556 1045.52 130.922 1045.52 M130.922 1041.82 Q136.732 1041.82 139.788 1046.43 Q142.867 1051.01 142.867 1059.76 Q142.867 1068.49 139.788 1073.09 Q136.732 1077.68 130.922 1077.68 Q125.112 1077.68 122.033 1073.09 Q118.978 1068.49 118.978 1059.76 Q118.978 1051.01 122.033 1046.43 Q125.112 1041.82 130.922 1041.82 Z" fill="#000000" fill-rule="nonzero" fill-opacity="1" /><path clip-path="url(#clip180)" d="M130.922 721.011 Q127.311 721.011 125.482 724.575 Q123.677 728.117 123.677 735.247 Q123.677 742.353 125.482 745.918 Q127.311 749.46 130.922 749.46 Q134.556 749.46 136.362 745.918 Q138.191 742.353 138.191 735.247 Q138.191 728.117 136.362 724.575 Q134.556 721.011 130.922 721.011 M130.922 717.307 Q136.732 717.307 139.788 721.913 Q142.867 726.497 142.867 735.247 Q142.867 743.973 139.788 748.58 Q136.732 753.163 130.922 753.163 Q125.112 753.163 122.033 748.58 Q118.978 743.973 118.978 735.247 Q118.978 726.497 122.033 721.913 Q125.112 717.307 130.922 717.307 Z" fill="#000000" fill-rule="nonzero" fill-opacity="1" /><path clip-path="url(#clip180)" d="M91.5706 424.044 L99.2095 424.044 L99.2095 397.678 L90.8993 399.345 L90.8993 395.085 L99.1632 393.419 L103.839 393.419 L103.839 424.044 L111.478 424.044 L111.478 427.979 L91.5706 427.979 L91.5706 424.044 Z" fill="#000000" fill-rule="nonzero" fill-opacity="1" /><path clip-path="url(#clip180)" d="M130.922 396.498 Q127.311 396.498 125.482 400.062 Q123.677 403.604 123.677 410.734 Q123.677 417.84 125.482 421.405 Q127.311 424.946 130.922 424.946 Q134.556 424.946 136.362 421.405 Q138.191 417.84 138.191 410.734 Q138.191 403.604 136.362 400.062 Q134.556 396.498 130.922 396.498 M130.922 392.794 Q136.732 392.794 139.788 397.4 Q142.867 401.984 142.867 410.734 Q142.867 419.46 139.788 424.067 Q136.732 428.65 130.922 428.65 Q125.112 428.65 122.033 424.067 Q118.978 419.46 118.978 410.734 Q118.978 401.984 122.033 397.4 Q125.112 392.794 130.922 392.794 Z" fill="#000000" fill-rule="nonzero" fill-opacity="1" /><path clip-path="url(#clip180)" d="M94.7882 99.5305 L111.108 99.5305 L111.108 103.466 L89.1632 103.466 L89.1632 99.5305 Q91.8252 96.7759 96.4085 92.1463 Q101.015 87.4935 102.196 86.151 Q104.441 83.6278 105.321 81.8917 Q106.223 80.1325 106.223 78.4427 Q106.223 75.688 104.279 73.9519 Q102.358 72.2158 99.2558 72.2158 Q97.0567 72.2158 94.603 72.9797 Q92.1725 73.7436 89.3947 75.2945 L89.3947 70.5723 Q92.2188 69.4381 94.6724 68.8594 Q97.1261 68.2807 99.1632 68.2807 Q104.534 68.2807 107.728 70.9658 Q110.922 73.651 110.922 78.1417 Q110.922 80.2714 110.112 82.1926 Q109.325 84.0908 107.219 86.6834 Q106.64 87.3546 103.538 90.5722 Q100.436 93.7667 94.7882 99.5305 Z" fill="#000000" fill-rule="nonzero" fill-opacity="1" /><path clip-path="url(#clip180)" d="M130.922 71.9844 Q127.311 71.9844 125.482 75.5492 Q123.677 79.0908 123.677 86.2204 Q123.677 93.3268 125.482 96.8916 Q127.311 100.433 130.922 100.433 Q134.556 100.433 136.362 96.8916 Q138.191 93.3268 138.191 86.2204 Q138.191 79.0908 136.362 75.5492 Q134.556 71.9844 130.922 71.9844 M130.922 68.2807 Q136.732 68.2807 139.788 72.8871 Q142.867 77.4704 142.867 86.2204 Q142.867 94.9472 139.788 99.5537 Q136.732 104.137 130.922 104.137 Q125.112 104.137 122.033 99.5537 Q118.978 94.9472 118.978 86.2204 Q118.978 77.4704 122.033 72.8871 Q125.112 68.2807 130.922 68.2807 Z" fill="#000000" fill-rule="nonzero" fill-opacity="1" /><polyline clip-path="url(#clip182)" style="stroke:#e69f00; stroke-linecap:round; stroke-linejoin:round; stroke-width:4; stroke-opacity:1; fill:none" points="240.392,735.212 240.433,735.212 240.843,735.212 244.945,735.212 248.595,735.212 256.799,735.212 265.002,735.212 273.205,735.212 281.409,735.212 289.612,735.212 297.815,735.212 306.019,735.212 314.222,735.212 322.425,735.212 330.629,735.212 338.832,735.212 347.035,735.212 355.239,735.212 363.442,735.212 371.645,735.212 379.849,735.212 388.052,735.212 396.256,735.212 404.459,735.212 412.662,735.212 420.866,735.212 429.069,735.212 437.272,735.212 445.476,735.212 453.679,735.212 461.882,735.212 470.086,735.212 478.289,735.212 486.492,735.212 494.696,735.212 502.899,735.212 511.103,735.212 519.306,735.212 527.509,735.212 535.713,735.212 543.916,735.212 552.119,735.212 560.323,735.212 568.526,735.212 576.729,735.212 584.933,735.212 593.136,735.212 601.339,735.212 609.543,735.212 617.746,735.212 625.95,735.212 634.153,735.212 642.356,735.212 650.56,735.212 650.56,735.212 650.56,735.212 650.56,735.212 650.56,735.212 650.56,735.212 650.56,735.212 650.56,735.212 650.56,735.212 650.56,735.212 650.56,735.212 650.561,735.212 650.57,735.212 650.661,735.212 651.197,735.212 652.158,735.212 653.379,735.211 654.939,735.209 656.818,735.205 658.763,735.196 661.218,735.179 663.922,735.148 666.966,735.098 670.354,735.02 674.076,734.903 675.17,734.862 678.132,734.736 680.687,734.608 683.373,734.453 686.772,734.226 690.531,733.935 691.576,733.846 694.695,733.561 697.678,733.26 699.78,733.03 703.35,732.607 706.988,732.134 707.983,731.997 711.183,731.534 714.589,731.004 716.186,730.743 719.857,730.11 723.621,729.415 724.39,729.267 727.555,728.638 731.378,727.836 732.593,727.571 736.332,726.725 740.584,725.708 740.797,725.655 742.924,725.124 746.74,724.133 749,723.525 753.701,722.207 757.203,721.181 763.162,719.347 765.407,718.628 771.36,716.647 773.61,715.87 779.711,713.687 781.813,712.909 788.007,710.543 790.017,709.751 796.321,707.192 798.22,706.399 804.622,703.65 806.423,702.856 811.853,700.418 814.321,699.297 814.627,699.158 816.102,698.487 817.657,697.78 819.581,696.907 821.624,695.984 822.83,695.441 824.929,694.502 826.995,693.585 829.599,692.443 831.033,691.821 833.639,690.704 836.114,689.661 839.237,688.373 842.581,687.028 846.388,685.545 847.44,685.145 850.442,684.025 853.098,683.063 855.643,682.167 859.089,680.996 862.824,679.781 863.847,679.459 866.973,678.499 870.038,677.599 872.05,677.029 875.652,676.052 879.266,675.126 880.254,674.883 883.465,674.121 886.944,673.344 888.457,673.023 892.128,672.282 895.956,671.571 896.66,671.447 899.784,670.921 903.645,670.327 904.864,670.152 908.636,669.651 912.944,669.15 913.067,669.136 914.295,669.008 917.558,668.697 921.27,668.395 926.339,668.072 929.474,667.923 935.402,667.747 937.677,667.716 943.542,667.728 945.88,667.77 951.975,667.971 954.084,668.07 958.445,668.311 961.293,668.488 962.287,668.553 964.513,668.699 966.336,668.82 968.618,668.972 970.49,669.094 973.064,669.258 975.721,669.42 978.694,669.588 981.979,669.755 985.571,669.912 986.897,669.962 989.927,670.06 992.516,670.125 995.101,670.171 998.402,670.202 1001.97,670.201 1003.3,670.193 1006.47,670.155 1008.61,670.118 1011.51,670.057 1014.36,669.987 1017.29,669.912 1019.71,669.85 1022.59,669.78 1025.65,669.715 1027.91,669.675 1031.1,669.632 1034.27,669.609 1036.12,669.606 1039.26,669.618 1042.41,669.651 1044.32,669.681 1047.63,669.749 1050.14,669.811 1052.52,669.877 1055.37,669.96 1058.04,670.04 1060.73,670.118 1063.8,670.202 1067.05,670.279 1068.93,670.316 1072.04,670.364 1075.18,670.395 1077.13,670.404 1080.43,670.401 1083.32,670.383 1085.34,670.361 1088.46,670.316 1091.05,670.271 1093.54,670.223 1096.4,670.165 1099.07,670.111 1101.74,670.06 1104.86,670.009 1108.15,669.967 1109.95,669.95 1113.06,669.934 1116.65,669.935 1118.15,669.942 1121.6,669.972 1123.95,670.002 1126.35,670.04 1129.27,670.093 1132.01,670.148 1134.56,670.201 1137.35,670.259 1140.16,670.314 1142.76,670.359 1145.94,670.406 1149.34,670.441 1150.96,670.453 1154.09,670.463 1157.37,670.458 1159.17,670.449 1162.61,670.419 1165.03,670.391 1167.37,670.358 1170.22,670.314 1172.91,670.271 1175.57,670.227 1178.45,670.183 1181.58,670.14 1183.78,670.115 1186.97,670.088 1190.32,670.073 1191.98,670.071 1195.19,670.077 1198,670.093 1200.18,670.111 1203.39,670.147 1206.08,670.182 1208.39,670.216 1211.26,670.26 1213.9,670.3 1216.59,670.34 1219.7,670.38 1222.99,670.416 1224.79,670.431 1227.92,670.448 1231.34,670.455 1233,670.454 1236.41,670.441 1238.92,670.425 1241.2,670.405 1244.19,670.373 1246.92,670.34 1249.4,670.309 1252.26,670.273 1254.98,670.239 1257.61,670.21 1260.76,670.181 1264.14,670.159 1265.81,670.151 1268.95,670.145 1272.63,670.15 1274.01,670.155 1277.52,670.176 1279.84,670.195 1282.22,670.218 1285.07,670.248 1287.8,670.28 1290.42,670.31 1293.27,670.341 1296.36,670.372 1298.62,670.392 1301.84,670.413 1305.2,670.427 1306.83,670.43 1310.02,670.429 1312.92,670.421 1315.03,670.412 1318.31,670.39 1320.98,670.368 1323.23,670.348 1326.13,670.32 1328.8,670.294 1331.44,670.269 1334.54,670.242 1337.8,670.219 1339.64,670.208 1342.77,670.196 1346.11,670.19 1347.84,670.191 1351.22,670.199 1353.88,670.21 1356.05,670.222 1359.11,670.244 1361.81,670.266 1364.25,670.287 1367.15,670.312 1369.86,670.335 1372.45,670.355 1375.59,670.376 1378.94,670.393 1380.66,670.399 1383.82,670.405 1388.86,670.401 1394.33,670.38 1397.06,670.364 1401.34,670.334 1404.63,670.309 1405.27,670.304 1407.33,670.289 1409.06,670.277 1411.5,670.261 1413.47,670.249 1416.27,670.236 1419.29,670.226 1421.68,670.222 1425.08,670.222 1428.71,670.228 1429.88,670.232 1432.97,670.245 1435.19,670.256 1438.08,670.273 1441.03,670.292 1444.04,670.312 1446.29,670.327 1449.38,670.345 1452.42,670.361 1454.49,670.369 1457.65,670.379 1461.07,670.384 1462.69,670.384 1466.02,670.38 1468.7,670.373 1470.9,670.366 1474.04,670.352 1476.78,670.338 1479.1,670.325 1482.04,670.308 1484.78,670.292 1487.3,670.279 1490.44,670.265 1493.74,670.253 1495.51,670.248 1498.68,670.244 1502.67,670.244 1503.71,670.245 1507.14,670.252 1509.58,670.259 1511.91,670.268 1514.9,670.281 1517.71,670.295 1520.12,670.307 1523.05,670.322 1526,670.335 1528.32,670.345 1531.51,670.355 1534.85,670.363 1536.52,670.365 1539.73,670.366 1542.99,670.364 1544.73,670.361 1548.14,670.352 1550.61,670.344 1552.93,670.335 1555.87,670.322 1558.67,670.31 1561.13,670.3 1564.2,670.287 1567.35,670.276 1569.34,670.27 1572.52,670.263 1575.84,670.259 1577.54,670.259 1580.86,670.261 1583.71,670.265 1585.74,670.269 1588.95,670.278 1591.64,670.287 1593.95,670.296 1596.93,670.307 1599.74,670.318 1602.15,670.326 1605.3,670.336 1608.54,670.345 1610.35,670.348 1613.54,670.352 1617.23,670.353 1618.56,670.352 1622,670.348 1624.52,670.343 1626.76,670.338 1629.81,670.329 1632.62,670.32 1634.96,670.313 1637.97,670.303 1640.9,670.293 1643.17,670.287 1646.35,670.28 1649.65,670.274 1651.37,670.272 1654.6,670.271 1658.16,670.273 1659.57,670.274 1663.03,670.279 1665.47,670.285 1667.78,670.29 1670.76,670.299 1673.6,670.307 1675.98,670.314 1679.06,670.322 1682.18,670.33 1684.18,670.334 1687.38,670.339 1690.7,670.342 1692.39,670.343 1695.7,670.342 1698.67,670.339 1700.59,670.337 1703.88,670.331 1706.54,670.325 1708.79,670.32 1711.82,670.312 1714.67,670.305 1717,670.299 1720.16,670.292 1723.37,670.287 1725.2,670.284 1728.4,670.281 1731.95,670.28 1733.4,670.28 1736.84,670.283 1739.45,670.286 1741.61,670.289 1744.74,670.295 1747.55,670.301 1749.81,670.306 1752.87,670.312 1755.79,670.319 1758.01,670.323 1761.21,670.328 1764.48,670.332 1766.22,670.333 1769.46,670.335 1773.52,670.334 1774.42,670.333 1777.82,670.33 1780.34,670.327 1782.62,670.323 1785.7,670.318 1788.61,670.312 1790.83,670.308 1793.91,670.302 1796.96,670.297 1799.03,670.294 1802.26,670.29 1805.61,670.288 1807.23,670.287 1810.53,670.287 1813.61,670.289 1815.44,670.29 1818.81,670.294 1821.46,670.298 1823.64,670.301 1826.7,670.306 1829.59,670.311 1831.84,670.315 1835.04,670.32 1838.24,670.324 1840.05,670.325 1843.27,670.328 1846.72,670.329 1848.25,670.329 1851.68,670.327 1854.42,670.325 1856.45,670.324 1859.66,670.32 1862.47,670.316 1864.66,670.313 1867.77,670.308 1870.71,670.304 1872.86,670.301 1876.07,670.298 1879.32,670.295 1881.06,670.294 1884.33,670.293 1889.27,670.293 1895,670.297 1897.47,670.299 1902,670.305 1905.42,670.309 1905.67,670.31 1907.47,670.312 1909.45,670.314 1912,670.317 1913.88,670.319 1916.83,670.321 1919.96,670.323 1922.08,670.324 1925.57,670.324 1929.27,670.323 1930.28,670.322 1933.45,670.32 1935.97,670.318 1938.49,670.315 1941.7,670.312 1944.85,670.308 1946.69,670.306 1949.87,670.303 1952.83,670.301 1954.89,670.299 1958.18,670.297 1961.8,670.296 1963.1,670.296 1966.44,670.297 1969.31,670.298 1971.3,670.299 1974.64,670.302 1977.49,670.304 1979.5,670.306 1982.65,670.309 1985.56,670.312 1987.71,670.314 1990.96,670.317 1994.25,670.319 1995.91,670.32 1999.19,670.32 2003.2,670.32 2004.11,670.32 2007.56,670.319 2010.34,670.318 2012.32,670.316 2015.54,670.314 2018.42,670.312 2020.52,670.31 2023.71,670.307 2026.78,670.305 2028.72,670.303 2032,670.301 2035.29,670.3 2036.93,670.3 2040.27,670.3 2043.79,670.3 2045.13,670.3 2048.63,670.302 2051.36,670.304 2053.33,670.305 2056.5,670.307 2059.41,670.309 2061.54,670.311 2064.8,670.313 2068,670.315 2069.74,670.316 2073.02,670.317 2076.37,670.318 2077.94,670.318 2081.39,670.318 2084.46,670.317 2086.15,670.316 2089.51,670.315 2092.21,670.313 2094.35,670.312 2097.56,670.31 2100.63,670.308 2102.55,670.306 2105.83,670.305 2109.02,670.303 2110.76,670.303 2114.08,670.302 2117.93,670.302 2118.96,670.302 2122.4,670.303 2125.34,670.304 2127.16,670.304 2130.47,670.306 2133.32,670.308 2135.37,670.309 2138.61,670.311 2141.7,670.312 2143.57,670.313 2146.88,670.314 2150.16,670.315 2151.77,670.316 2155.15,670.316 2159,670.316 2159.98,670.315 2163.45,670.314 2166.33,670.313 2168.18,670.313 2171.44,670.311 2174.35,670.31 2176.38,670.309 2179.67,670.307 2182.87,670.306 2184.59,670.305 2187.91,670.304 2191.26,670.304 2192.79,670.304 2196.25,670.304 2199.54,670.304 2200.99,670.305 2204.42,670.306 2207.25,670.307 2209.2,670.307 2212.47,670.309 2215.5,670.31 2217.4,670.311 2220.72,670.312 2223.94,670.313 2225.6,670.314 2228.96,670.314 2232.64,670.314 2233.81,670.314 2237.31,670.314 2240.44,670.313 2242.01,670.313 2245.36,670.312 2248.17,670.311 2250.21,670.31 2253.52,670.309 2256.69,670.308 2258.42,670.307 2261.75,670.306 2264.96,670.305 2266.62,670.305 2270.04,670.305 2274.65,670.305 2274.82,670.305 2276.59,670.305 2279.08,670.306 2282.04,670.307 2283.03,670.307 2285.85,670.308 2288.54,670.309 2291.23,670.31 2291.23,670.31 "/>
<polyline clip-path="url(#clip182)" style="stroke:#56b4e9; stroke-linecap:round; stroke-linejoin:round; stroke-width:4; stroke-opacity:1; fill:none" points="240.392,735.212 240.433,735.212 240.843,735.212 244.945,735.212 248.595,735.212 256.799,735.212 265.002,735.212 273.205,735.212 281.409,735.212 289.612,735.212 297.815,735.212 306.019,735.212 314.222,735.212 322.425,735.212 330.629,735.212 338.832,735.212 347.035,735.212 355.239,735.212 363.442,735.212 371.645,735.212 379.849,735.212 388.052,735.212 396.256,735.212 404.459,735.212 412.662,735.212 420.866,735.212 429.069,735.212 437.272,735.212 445.476,735.212 453.679,735.212 461.882,735.212 470.086,735.212 478.289,735.212 486.492,735.212 494.696,735.212 502.899,735.212 511.103,735.212 519.306,735.212 527.509,735.212 535.713,735.212 543.916,735.212 552.119,735.212 560.323,735.212 568.526,735.212 576.729,735.212 584.933,735.212 593.136,735.212 601.339,735.212 609.543,735.212 617.746,735.212 625.95,735.212 634.153,735.212 642.356,735.212 650.56,735.212 650.56,735.212 650.56,735.212 650.56,735.212 650.56,735.212 650.56,735.212 650.56,735.212 650.56,735.212 650.56,735.212 650.56,735.212 650.56,735.212 650.561,735.212 650.57,735.212 650.661,735.212 651.197,735.196 652.158,735.116 653.379,734.92 654.939,734.525 656.818,733.851 658.763,732.946 661.218,731.533 663.922,729.668 666.966,727.234 670.354,724.173 674.076,720.452 675.17,719.297 678.132,716.051 680.687,713.127 683.373,709.949 686.772,705.797 690.531,701.071 691.576,699.735 694.695,695.704 697.678,691.797 699.78,689.018 703.35,684.261 706.988,679.38 707.983,678.041 711.183,673.726 714.589,669.125 716.186,666.966 719.857,662.007 723.621,656.932 724.39,655.897 727.555,651.643 731.378,646.527 732.593,644.905 736.332,639.934 740.584,634.316 740.797,634.036 742.924,631.241 746.74,626.254 749,623.317 753.701,617.251 757.203,612.769 763.162,605.218 765.407,602.4 771.36,594.992 773.61,592.217 779.711,584.767 781.813,582.223 788.007,574.803 790.017,572.419 796.321,565.012 798.22,562.803 804.622,555.427 806.423,553.373 811.853,549.31 814.321,548.69 814.627,548.66 816.102,548.646 817.657,548.858 819.581,549.416 821.624,550.333 822.83,551.018 824.929,552.442 826.995,554.106 829.599,556.53 831.033,558.007 833.639,560.915 836.114,563.917 839.237,567.992 842.581,572.658 846.388,578.279 847.44,579.882 850.442,584.556 853.098,588.8 855.643,592.945 859.089,598.658 862.824,604.955 863.847,606.694 866.973,612.042 870.038,617.323 872.05,620.803 875.652,627.053 879.266,633.339 880.254,635.057 883.465,640.645 886.944,646.688 888.457,649.314 892.128,655.668 895.956,662.268 896.66,663.478 899.784,668.835 903.645,675.421 904.864,677.491 908.636,683.872 912.944,691.106 913.067,691.311 914.295,693.361 917.558,698.787 921.27,704.915 926.339,713.206 929.474,718.288 935.402,727.805 937.677,731.423 943.542,740.664 945.88,744.314 951.975,752.984 954.084,755.65 958.445,759.846 961.293,761.474 962.287,761.862 964.513,762.4 966.336,762.516 968.618,762.289 970.49,761.824 973.064,760.821 975.721,759.394 978.694,757.388 981.979,754.743 985.571,751.418 986.897,750.092 989.927,746.892 992.516,743.991 995.101,740.964 998.402,737.139 1001.97,733.243 1003.3,731.836 1006.47,728.939 1008.61,727.397 1011.51,725.776 1014.36,724.818 1017.29,724.588 1019.71,724.897 1022.59,725.776 1025.65,727.239 1027.91,728.624 1031.1,730.943 1034.27,733.611 1036.12,735.306 1039.26,738.177 1042.41,740.876 1044.32,742.431 1047.63,744.714 1050.14,745.99 1052.52,746.893 1055.37,747.457 1058.04,747.415 1060.73,746.887 1063.8,745.742 1067.05,743.969 1068.93,742.714 1072.04,740.416 1075.18,737.903 1077.13,736.267 1080.43,733.625 1083.32,731.544 1085.34,730.214 1088.46,728.544 1091.05,727.602 1093.54,727.024 1096.4,726.825 1099.07,727.124 1101.74,727.831 1104.86,729.098 1108.15,730.888 1109.95,732.031 1113.06,734.126 1116.65,736.595 1118.15,737.634 1121.6,739.816 1123.95,741.065 1126.35,742.176 1129.27,743.164 1132.01,743.655 1134.56,743.781 1137.35,743.531 1140.16,742.861 1142.76,741.914 1145.94,740.429 1149.34,738.537 1150.96,737.533 1154.09,735.594 1157.37,733.641 1159.17,732.599 1162.61,730.871 1165.03,729.926 1167.37,729.196 1170.22,728.634 1172.91,728.484 1175.57,728.651 1178.45,729.176 1181.58,730.135 1183.78,731.018 1186.97,732.501 1190.32,734.218 1191.98,735.125 1195.19,736.816 1198,738.165 1200.18,739.137 1203.39,740.303 1206.08,740.978 1208.39,741.365 1211.26,741.546 1213.9,741.393 1216.59,740.963 1219.7,740.162 1222.99,738.997 1224.79,738.242 1227.92,736.84 1231.34,735.252 1233,734.465 1236.41,732.971 1238.92,732.031 1241.2,731.273 1244.19,730.52 1246.92,730.122 1249.4,729.966 1252.26,730.054 1254.98,730.414 1257.61,730.983 1260.76,731.894 1264.14,733.094 1265.81,733.759 1268.95,735.036 1272.63,736.49 1274.01,737.027 1277.52,738.22 1279.84,738.851 1282.22,739.381 1285.07,739.802 1287.8,739.947 1290.42,739.881 1293.27,739.583 1296.36,738.999 1298.62,738.419 1301.84,737.45 1305.2,736.31 1306.83,735.717 1310.02,734.581 1312.92,733.628 1315.03,732.976 1318.31,732.134 1320.98,731.643 1323.23,731.347 1326.13,731.167 1328.8,731.22 1331.44,731.451 1334.54,731.93 1337.8,732.65 1339.64,733.143 1342.77,734.055 1346.11,735.076 1347.84,735.623 1351.22,736.621 1353.88,737.304 1356.05,737.803 1359.11,738.35 1361.81,738.645 1364.25,738.782 1367.15,738.764 1369.86,738.56 1372.45,738.217 1375.59,737.645 1378.94,736.878 1380.66,736.431 1383.82,735.581 1388.86,734.241 1394.33,733.036 1397.06,732.589 1401.34,732.179 1404.63,732.126 1405.27,732.139 1407.33,732.237 1409.06,732.386 1411.5,732.691 1413.47,733.009 1416.27,733.543 1419.29,734.195 1421.68,734.761 1425.08,735.567 1428.71,736.363 1429.88,736.608 1432.97,737.166 1435.19,737.472 1438.08,737.769 1441.03,737.923 1444.04,737.906 1446.29,737.794 1449.38,737.507 1452.42,737.088 1454.49,736.736 1457.65,736.138 1461.07,735.444 1462.69,735.101 1466.02,734.436 1468.7,733.96 1470.9,733.607 1474.04,733.208 1476.78,732.984 1479.1,732.874 1482.04,732.856 1484.78,732.968 1487.3,733.166 1490.44,733.521 1493.74,734.004 1495.51,734.302 1498.68,734.863 1502.67,735.574 1503.71,735.759 1507.14,736.312 1509.58,736.637 1511.91,736.905 1514.9,737.149 1517.71,737.261 1520.12,737.277 1523.05,737.192 1526,736.991 1528.32,736.762 1531.51,736.37 1534.85,735.891 1536.52,735.626 1539.73,735.12 1542.99,734.632 1544.73,734.382 1548.14,733.959 1550.61,733.727 1552.93,733.557 1555.87,733.43 1558.67,733.415 1561.13,733.474 1564.2,733.641 1567.35,733.912 1569.34,734.127 1572.52,734.517 1575.84,734.96 1577.54,735.199 1580.86,735.646 1583.71,735.991 1585.74,736.217 1588.95,736.505 1591.64,736.667 1593.95,736.756 1596.93,736.788 1599.74,736.729 1602.15,736.616 1605.3,736.396 1608.54,736.094 1610.35,735.896 1613.54,735.526 1617.23,735.088 1618.56,734.929 1622,734.55 1624.52,734.317 1626.76,734.135 1629.81,733.953 1632.62,733.864 1634.96,733.839 1637.97,733.88 1640.9,733.998 1643.17,734.137 1646.35,734.384 1649.65,734.691 1651.37,734.869 1654.6,735.207 1658.16,735.566 1659.57,735.704 1663.03,736 1665.47,736.163 1667.78,736.286 1670.76,736.386 1673.6,736.41 1675.98,736.384 1679.06,736.288 1682.18,736.122 1684.18,735.984 1687.38,735.731 1690.7,735.441 1692.39,735.283 1695.7,734.984 1698.67,734.739 1700.59,734.591 1703.88,734.384 1706.54,734.267 1708.79,734.2 1711.82,734.164 1714.67,734.193 1717,734.255 1720.16,734.39 1723.37,734.58 1725.2,734.709 1728.4,734.952 1731.95,735.232 1733.4,735.349 1736.84,735.605 1739.45,735.773 1741.61,735.895 1744.74,736.03 1747.55,736.099 1749.81,736.124 1752.87,736.108 1755.79,736.04 1758.01,735.957 1761.21,735.8 1764.48,735.604 1766.22,735.486 1769.46,735.261 1773.52,734.987 1774.42,734.927 1777.82,734.727 1780.34,734.608 1782.62,734.519 1785.7,734.441 1788.61,734.416 1790.83,734.425 1793.91,734.479 1796.96,734.578 1799.03,734.667 1802.26,734.831 1805.61,735.024 1807.23,735.124 1810.53,735.324 1813.61,735.496 1815.44,735.592 1818.81,735.741 1821.46,735.825 1823.64,735.875 1826.7,735.908 1829.59,735.896 1831.84,735.863 1835.04,735.78 1838.24,735.66 1840.05,735.578 1843.27,735.419 1846.72,735.239 1848.25,735.156 1851.68,734.982 1854.42,734.862 1856.45,734.781 1859.66,734.682 1862.47,734.63 1864.66,734.608 1867.77,734.611 1870.71,734.65 1872.86,734.699 1876.07,734.797 1879.32,734.923 1881.06,735 1884.33,735.149 1889.27,735.373 1895,735.588 1897.47,735.657 1902,735.732 1905.42,735.74 1905.67,735.739 1907.47,735.726 1909.45,735.699 1912,735.645 1913.88,735.594 1916.83,735.499 1919.96,735.383 1922.08,735.298 1925.57,735.157 1929.27,735.018 1930.28,734.981 1933.45,734.883 1935.97,734.824 1938.49,734.78 1941.7,734.751 1944.85,734.756 1946.69,734.771 1949.87,734.82 1952.83,734.889 1954.89,734.948 1958.18,735.054 1961.8,735.179 1963.1,735.226 1966.44,735.34 1969.31,735.427 1971.3,735.482 1974.64,735.555 1977.49,735.594 1979.5,735.61 1982.65,735.614 1985.56,735.593 1987.71,735.564 1990.96,735.502 1994.25,735.42 1995.91,735.373 1999.19,735.274 2003.2,735.152 2004.11,735.124 2007.56,735.029 2010.34,734.966 2012.32,734.927 2015.54,734.882 2018.42,734.863 2020.52,734.86 2023.71,734.876 2026.78,734.912 2028.72,734.945 2032,735.013 2035.29,735.093 2036.93,735.137 2040.27,735.227 2043.79,735.317 2045.13,735.35 2048.63,735.424 2051.36,735.468 2053.33,735.493 2056.5,735.516 2059.41,735.518 2061.54,735.509 2064.8,735.48 2068,735.433 2069.74,735.4 2073.02,735.332 2076.37,735.256 2077.94,735.218 2081.39,735.139 2084.46,735.076 2086.15,735.044 2089.51,734.992 2092.21,734.964 2094.35,734.95 2097.56,734.944 2100.63,734.956 2102.55,734.971 2105.83,735.01 2109.02,735.06 2110.76,735.092 2114.08,735.158 2117.93,735.236 2118.96,735.257 2122.4,735.322 2125.34,735.368 2127.16,735.393 2130.47,735.427 2133.32,735.442 2135.37,735.446 2138.61,735.439 2141.7,735.417 2143.57,735.397 2146.88,735.354 2150.16,735.302 2151.77,735.274 2155.15,735.213 2159,735.147 2159.98,735.131 2163.45,735.08 2166.33,735.047 2168.18,735.03 2171.44,735.012 2174.35,735.008 2176.38,735.012 2179.67,735.029 2182.87,735.058 2184.59,735.078 2187.91,735.123 2191.26,735.173 2192.79,735.197 2196.25,735.25 2199.54,735.297 2200.99,735.316 2204.42,735.353 2207.25,735.374 2209.2,735.384 2212.47,735.391 2215.5,735.385 2217.4,735.376 2220.72,735.352 2223.94,735.32 2225.6,735.3 2228.96,735.257 2232.64,735.207 2233.81,735.191 2237.31,735.146 2240.44,735.112 2242.01,735.097 2245.36,735.072 2248.17,735.061 2250.21,735.057 2253.52,735.059 2256.69,735.073 2258.42,735.084 2261.75,735.111 2264.96,735.144 2266.62,735.163 2270.04,735.204 2274.65,735.257 2274.82,735.259 2276.59,735.278 2279.08,735.301 2282.04,735.323 2283.03,735.329 2285.85,735.342 2288.54,735.347 2291.23,735.346 2291.23,735.346 "/>
<polyline clip-path="url(#clip182)" style="stroke:#009e73; stroke-linecap:round; stroke-linejoin:round; stroke-width:4; stroke-opacity:1; fill:none" points="240.392,735.212 240.433,735.212 240.843,735.212 244.945,735.212 248.595,735.212 256.799,735.212 265.002,735.212 273.205,735.212 281.409,735.212 289.612,735.212 297.815,735.212 306.019,735.212 314.222,735.212 322.425,735.212 330.629,735.212 338.832,735.212 347.035,735.212 355.239,735.212 363.442,735.212 371.645,735.212 379.849,735.212 388.052,735.212 396.256,735.212 404.459,735.212 412.662,735.212 420.866,735.212 429.069,735.212 437.272,735.212 445.476,735.212 453.679,735.212 461.882,735.212 470.086,735.212 478.289,735.212 486.492,735.212 494.696,735.212 502.899,735.212 511.103,735.212 519.306,735.212 527.509,735.212 535.713,735.212 543.916,735.212 552.119,735.212 560.323,735.212 568.526,735.212 576.729,735.212 584.933,735.212 593.136,735.212 601.339,735.212 609.543,735.212 617.746,735.212 625.95,735.212 634.153,735.212 642.356,735.212 650.56,735.212 650.56,86.1857 650.56,86.1857 650.56,86.1857 650.56,86.1857 650.56,86.1857 650.56,86.1857 650.56,86.1857 650.56,86.1857 650.56,86.1857 650.56,86.1857 650.561,86.1857 650.57,86.1857 650.661,86.1857 651.197,86.1857 652.158,86.1857 653.379,86.1857 654.939,86.1857 656.818,86.1857 658.763,86.1857 661.218,86.1857 663.922,86.1857 666.966,86.1857 670.354,86.1857 674.076,86.1857 675.17,86.1857 678.132,86.1857 680.687,86.1857 683.373,86.1857 686.772,86.1857 690.531,86.1857 691.576,86.1857 694.695,86.1857 697.678,86.1857 699.78,86.1857 703.35,86.1857 706.988,86.1857 707.983,86.1857 711.183,86.1857 714.589,86.1857 716.186,86.1857 719.857,86.1857 723.621,86.1857 724.39,86.1857 727.555,86.1857 731.378,86.1857 732.593,86.1857 736.332,86.1857 740.584,86.1857 740.797,86.1857 742.924,86.1857 746.74,86.1857 749,86.1857 753.701,86.1857 757.203,86.1857 763.162,86.1857 765.407,86.1857 771.36,86.1857 773.61,86.1857 779.711,86.1857 781.813,86.1857 788.007,86.1857 790.017,86.1857 796.321,86.1857 798.22,86.1857 804.622,86.1857 806.423,1384.24 811.853,1384.24 814.321,1384.24 814.627,1384.24 816.102,1384.24 817.657,1384.24 819.581,1384.24 821.624,1384.24 822.83,1384.24 824.929,1384.24 826.995,1384.24 829.599,1384.24 831.033,1384.24 833.639,1384.24 836.114,1384.24 839.237,1384.24 842.581,1384.24 846.388,1384.24 847.44,1384.24 850.442,1384.24 853.098,1384.24 855.643,1384.24 859.089,1384.24 862.824,1384.24 863.847,1384.24 866.973,1384.24 870.038,1384.24 872.05,1384.24 875.652,1384.24 879.266,1384.24 880.254,1384.24 883.465,1384.24 886.944,1384.24 888.457,1384.24 892.128,1384.24 895.956,1384.24 896.66,1384.24 899.784,1384.24 903.645,1384.24 904.864,1384.24 908.636,1384.24 912.944,1384.24 913.067,1384.24 914.295,1384.24 917.558,1384.24 921.27,1384.24 926.339,1384.24 929.474,1384.24 935.402,1384.24 937.677,1384.24 943.542,1384.24 945.88,1008.5 951.975,1008.5 954.084,181.954 958.445,181.954 961.293,181.954 962.287,86.1857 964.513,86.1857 966.336,86.1857 968.618,86.1857 970.49,86.1857 973.064,86.1857 975.721,86.1857 978.694,86.1857 981.979,86.1857 985.571,86.1857 986.897,86.1857 989.927,86.1857 992.516,86.1857 995.101,413.697 998.402,413.697 1001.97,413.697 1003.3,990.604 1006.47,990.604 1008.61,990.604 1011.51,1384.24 1014.36,1384.24 1017.29,1384.24 1019.71,1384.24 1022.59,1384.24 1025.65,1384.24 1027.91,1370.66 1031.1,1370.66 1034.27,1370.66 1036.12,966.225 1039.26,966.225 1042.41,966.225 1044.32,484.897 1047.63,484.897 1050.14,484.897 1052.52,133.426 1055.37,133.426 1058.04,133.426 1060.73,86.1857 1063.8,86.1857 1067.05,86.1857 1068.93,252.864 1072.04,252.864 1075.18,252.864 1077.13,635.914 1080.43,635.914 1083.32,635.914 1085.34,1037.61 1088.46,1037.61 1091.05,1037.61 1093.54,1288.37 1096.4,1288.37 1099.07,1288.37 1101.74,1291.52 1104.86,1291.52 1108.15,1291.52 1109.95,1059.81 1113.06,1059.81 1116.65,1059.81 1118.15,703.901 1121.6,703.901 1123.95,703.901 1126.35,380.352 1129.27,380.352 1132.01,380.352 1134.56,223.306 1137.35,223.306 1140.16,223.306 1142.76,289.414 1145.94,289.414 1149.34,289.414 1150.96,538.409 1154.09,538.409 1157.37,538.409 1159.17,855.481 1162.61,855.481 1165.03,855.481 1167.37,1103.69 1170.22,1103.69 1172.91,1103.69 1175.57,1182.74 1178.45,1182.74 1181.58,1182.74 1183.78,1069 1186.97,1069 1190.32,1069 1191.98,821.143 1195.19,821.143 1198,821.143 1200.18,550.855 1203.39,550.855 1206.08,550.855 1208.39,372.941 1211.26,372.941 1213.9,372.941 1216.59,356.942 1219.7,356.942 1222.99,356.942 1224.79,500.479 1227.92,500.479 1231.34,500.479 1233,734.306 1236.41,734.306 1238.92,734.306 1241.2,955.158 1244.19,955.158 1246.92,955.158 1249.4,1071.04 1252.26,1071.04 1254.98,1071.04 1257.61,1039.21 1260.76,1039.21 1264.14,1039.21 1265.81,881.382 1268.95,881.382 1272.63,881.382 1274.01,670.946 1277.52,670.946 1279.84,670.946 1282.22,499.254 1285.07,499.254 1287.8,499.254 1290.42,436.237 1293.27,436.237 1296.36,436.237 1298.62,502.246 1301.84,502.246 1305.2,502.246 1306.83,662.297 1310.02,662.297 1312.92,662.297 1315.03,843.885 1318.31,843.885 1320.98,843.885 1323.23,969.543 1326.13,969.543 1328.8,969.543 1331.44,989.658 1334.54,989.658 1337.8,989.658 1339.64,901.735 1342.77,901.735 1346.11,901.735 1347.84,748.791 1351.22,748.791 1353.88,748.791 1356.05,598.725 1359.11,598.725 1361.81,598.725 1364.25,514.399 1367.15,514.399 1369.86,514.399 1372.45,527.527 1375.59,527.527 1378.94,527.527 1380.66,627.107 1383.82,627.107 1388.86,766.451 1394.33,766.451 1397.06,884.802 1401.34,884.802 1404.63,884.802 1405.27,933.643 1407.33,933.643 1409.06,933.643 1411.5,933.643 1413.47,896.381 1416.27,896.381 1419.29,896.381 1421.68,793.519 1425.08,793.519 1428.71,793.519 1429.88,671.953 1432.97,671.953 1435.19,671.953 1438.08,583.79 1441.03,583.79 1444.04,583.79 1446.29,564.175 1449.38,564.175 1452.42,564.175 1454.49,617.484 1457.65,617.484 1461.07,617.484 1462.69,717.221 1466.02,717.221 1468.7,717.221 1470.9,818.885 1474.04,818.885 1476.78,818.885 1479.1,879.674 1482.04,879.674 1484.78,879.674 1487.3,876.363 1490.44,876.363 1493.74,876.363 1495.51,813.956 1498.68,813.956 1502.67,813.956 1503.71,721.99 1507.14,721.99 1509.58,721.99 1511.91,640.755 1514.9,640.755 1517.71,640.755 1520.12,603.761 1523.05,603.761 1526,603.761 1528.32,624.052 1531.51,624.052 1534.85,624.052 1536.52,689.879 1539.73,689.879 1542.99,689.879 1544.73,771.032 1548.14,771.032 1550.61,771.032 1552.93,832.566 1555.87,832.566 1558.67,832.566 1561.13,849.746 1564.2,849.746 1567.35,849.746 1569.34,817.856 1572.52,817.856 1575.84,817.856 1577.54,753.054 1580.86,753.054 1583.71,753.054 1585.74,684.409 1588.95,684.409 1591.64,684.409 1593.95,640.966 1596.93,640.966 1599.74,640.966 1602.15,639.548 1605.3,639.548 1608.54,639.548 1610.35,678.385 1613.54,678.385 1617.23,678.385 1618.56,738.897 1622,738.897 1624.52,738.897 1626.76,794.45 1629.81,794.45 1632.62,794.45 1634.96,821.995 1637.97,821.995 1640.9,821.995 1643.17,811.542 1646.35,811.542 1649.65,811.542 1651.37,769.621 1654.6,769.621 1658.16,769.621 1659.57,715.612 1663.03,715.612 1665.47,715.612 1667.78,672.876 1670.76,672.876 1673.6,672.876 1675.98,658.727 1679.06,658.727 1682.18,658.727 1684.18,677.495 1687.38,677.495 1690.7,677.495 1692.39,719.444 1695.7,719.444 1698.67,719.444 1700.59,765.65 1703.88,765.65 1706.54,765.65 1708.79,796.47 1711.82,796.47 1714.67,796.47 1717,799.827 1720.16,799.827 1723.37,799.827 1725.2,775.859 1728.4,775.859 1731.95,775.859 1733.4,736.171 1736.84,736.171 1739.45,736.171 1741.61,698.317 1744.74,698.317 1747.55,698.317 1749.81,678.09 1752.87,678.09 1755.79,678.09 1758.01,682.991 1761.21,682.991 1764.48,682.991 1766.22,709.547 1769.46,709.547 1773.52,709.547 1774.42,745.385 1777.82,745.385 1780.34,745.385 1782.62,774.931 1785.7,774.931 1788.61,774.931 1790.83,786.131 1793.91,786.131 1796.96,786.131 1799.03,775.317 1802.26,775.317 1805.61,775.317 1807.23,748.269 1810.53,748.269 1813.61,748.269 1815.44,717.262 1818.81,717.262 1821.46,717.262 1823.64,695.54 1826.7,695.54 1829.59,695.54 1831.84,691.703 1835.04,691.703 1838.24,691.703 1840.05,706.354 1843.27,706.354 1846.72,706.354 1848.25,732.298 1851.68,732.298 1854.42,732.298 1856.45,758.004 1859.66,758.004 1862.47,758.004 1864.66,772.69 1867.77,772.69 1870.71,772.69 1872.86,770.809 1876.07,770.809 1879.32,770.809 1881.06,754.085 1884.33,754.085 1889.27,730.377 1895,730.377 1897.47,710.036 1902,710.036 1905.42,710.036 1905.67,701.414 1907.47,701.414 1909.45,701.414 1912,701.414 1913.88,707.471 1916.83,707.471 1919.96,707.471 1922.08,724.838 1925.57,724.838 1929.27,724.838 1930.28,745.582 1933.45,745.582 1935.97,745.582 1938.49,760.803 1941.7,760.803 1944.85,760.803 1946.69,764.419 1949.87,764.419 1952.83,764.419 1954.89,755.565 1958.18,755.565 1961.8,755.565 1963.1,738.663 1966.44,738.663 1969.31,738.663 1971.3,721.264 1974.64,721.264 1977.49,721.264 1979.5,710.703 1982.65,710.703 1985.56,710.703 1987.71,711.03 1990.96,711.03 1994.25,711.03 1995.91,721.494 1999.19,721.494 2003.2,721.494 2004.11,737.129 2007.56,737.129 2010.34,737.129 2012.32,751.078 2015.54,751.078 2018.42,751.078 2020.52,757.578 2023.71,757.578 2026.78,757.578 2028.72,754.319 2032,754.319 2035.29,754.319 2036.93,743.219 2040.27,743.219 2043.79,743.219 2045.13,729.382 2048.63,729.382 2051.36,729.382 2053.33,718.773 2056.5,718.773 2059.41,718.773 2061.54,715.666 2064.8,715.666 2068,715.666 2069.74,720.942 2073.02,720.942 2076.37,720.942 2077.94,731.914 2081.39,731.914 2084.46,731.914 2086.15,743.652 2089.51,743.652 2092.21,743.652 2094.35,751.185 2097.56,751.185 2100.63,751.185 2102.55,751.585 2105.83,751.585 2109.02,751.585 2110.76,745.087 2114.08,745.087 2117.93,745.087 2118.96,734.808 2122.4,734.808 2125.34,734.808 2127.16,725.277 2130.47,725.277 2133.32,725.277 2135.37,720.456 2138.61,720.456 2141.7,720.456 2143.57,722.104 2146.88,722.104 2150.16,722.104 2151.77,729.163 2155.15,729.163 2159,729.163 2159.98,738.365 2163.45,738.365 2166.33,738.365 2168.18,745.724 2171.44,745.724 2174.35,745.724 2176.38,748.254 2179.67,748.254 2182.87,748.254 2184.59,745.164 2187.91,745.164 2191.26,745.164 2192.79,738.069 2196.25,738.069 2199.54,738.069 2200.99,730.174 2204.42,730.174 2207.25,730.174 2209.2,724.839 2212.47,724.839 2215.5,724.839 2217.4,724.161 2220.72,724.161 2223.94,724.161 2225.6,728.163 2228.96,728.163 2232.64,728.163 2233.81,734.899 2237.31,734.899 2240.44,734.899 2242.01,741.387 2245.36,741.387 2248.17,741.387 2250.21,744.916 2253.52,744.916 2256.69,744.916 2258.42,744.171 2261.75,744.171 2264.96,744.171 2266.62,739.706 2270.04,739.706 2274.65,739.706 2274.82,733.605 2276.59,733.605 2279.08,733.605 2282.04,733.605 2283.03,728.522 2285.85,728.522 2288.54,728.522 2291.23,726.536 2291.23,726.536 "/>
<polyline clip-path="url(#clip182)" style="stroke:#0000ff; stroke-linecap:round; stroke-linejoin:round; stroke-width:4; stroke-opacity:1; fill:none" stroke-dasharray="16, 10" points="650.56,1384.24 650.56,86.1857 "/>
<path clip-path="url(#clip180)" d="M1546.93 352.309 L2280.29 352.309 L2280.29 93.1086 L1546.93 93.1086  Z" fill="#ffffff" fill-rule="evenodd" fill-opacity="1"/>
<polyline clip-path="url(#clip180)" style="stroke:#000000; stroke-linecap:round; stroke-linejoin:round; stroke-width:4; stroke-opacity:1; fill:none" points="1546.93,352.309 2280.29,352.309 2280.29,93.1086 1546.93,93.1086 1546.93,352.309 "/>
<polyline clip-path="url(#clip180)" style="stroke:#e69f00; stroke-linecap:round; stroke-linejoin:round; stroke-width:4; stroke-opacity:1; fill:none" points="1571.09,144.949 1716.01,144.949 "/>
<path clip-path="url(#clip180)" d="M1758.94 149.289 Q1758.94 144.59 1757 141.928 Q1755.08 139.243 1751.7 139.243 Q1748.32 139.243 1746.37 141.928 Q1744.45 144.59 1744.45 149.289 Q1744.45 153.988 1746.37 156.673 Q1748.32 159.335 1751.7 159.335 Q1755.08 159.335 1757 156.673 Q1758.94 153.988 1758.94 149.289 M1744.45 140.238 Q1745.79 137.923 1747.83 136.812 Q1749.89 135.678 1752.74 135.678 Q1757.46 135.678 1760.4 139.428 Q1763.36 143.178 1763.36 149.289 Q1763.36 155.4 1760.4 159.15 Q1757.46 162.9 1752.74 162.9 Q1749.89 162.9 1747.83 161.789 Q1745.79 160.655 1744.45 158.34 L1744.45 162.229 L1740.17 162.229 L1740.17 126.21 L1744.45 126.21 L1744.45 140.238 Z" fill="#000000" fill-rule="nonzero" fill-opacity="1" /><path clip-path="url(#clip180)" d="M1770.42 126.21 L1774.68 126.21 L1774.68 162.229 L1770.42 162.229 L1770.42 126.21 Z" fill="#000000" fill-rule="nonzero" fill-opacity="1" /><path clip-path="url(#clip180)" d="M1793.64 139.289 Q1790.22 139.289 1788.22 141.974 Q1786.23 144.636 1786.23 149.289 Q1786.23 153.942 1788.2 156.627 Q1790.19 159.289 1793.64 159.289 Q1797.04 159.289 1799.03 156.604 Q1801.03 153.918 1801.03 149.289 Q1801.03 144.682 1799.03 141.997 Q1797.04 139.289 1793.64 139.289 M1793.64 135.678 Q1799.2 135.678 1802.37 139.289 Q1805.54 142.9 1805.54 149.289 Q1805.54 155.655 1802.37 159.289 Q1799.2 162.9 1793.64 162.9 Q1788.06 162.9 1784.89 159.289 Q1781.74 155.655 1781.74 149.289 Q1781.74 142.9 1784.89 139.289 Q1788.06 135.678 1793.64 135.678 Z" fill="#000000" fill-rule="nonzero" fill-opacity="1" /><path clip-path="url(#clip180)" d="M1831.26 137.298 L1831.26 141.28 Q1829.45 140.284 1827.62 139.798 Q1825.82 139.289 1823.96 139.289 Q1819.82 139.289 1817.53 141.928 Q1815.24 144.544 1815.24 149.289 Q1815.24 154.034 1817.53 156.673 Q1819.82 159.289 1823.96 159.289 Q1825.82 159.289 1827.62 158.803 Q1829.45 158.293 1831.26 157.298 L1831.26 161.233 Q1829.47 162.067 1827.55 162.483 Q1825.65 162.9 1823.5 162.9 Q1817.65 162.9 1814.2 159.219 Q1810.75 155.539 1810.75 149.289 Q1810.75 142.946 1814.22 139.312 Q1817.72 135.678 1823.78 135.678 Q1825.75 135.678 1827.62 136.095 Q1829.5 136.488 1831.26 137.298 Z" fill="#000000" fill-rule="nonzero" fill-opacity="1" /><path clip-path="url(#clip180)" d="M1838.5 126.21 L1842.78 126.21 L1842.78 147.483 L1855.49 136.303 L1860.93 136.303 L1847.18 148.432 L1861.51 162.229 L1855.96 162.229 L1842.78 149.567 L1842.78 162.229 L1838.5 162.229 L1838.5 126.21 Z" fill="#000000" fill-rule="nonzero" fill-opacity="1" /><path clip-path="url(#clip180)" d="M1880.33 130.84 Q1875.24 130.84 1872.23 134.636 Q1869.24 138.432 1869.24 144.983 Q1869.24 151.511 1872.23 155.307 Q1875.24 159.104 1880.33 159.104 Q1885.42 159.104 1888.39 155.307 Q1891.37 151.511 1891.37 144.983 Q1891.37 138.432 1888.39 134.636 Q1885.42 130.84 1880.33 130.84 M1880.33 127.044 Q1887.6 127.044 1891.95 131.928 Q1896.3 136.789 1896.3 144.983 Q1896.3 153.155 1891.95 158.039 Q1887.6 162.9 1880.33 162.9 Q1873.04 162.9 1868.66 158.039 Q1864.31 153.178 1864.31 144.983 Q1864.31 136.789 1868.66 131.928 Q1873.04 127.044 1880.33 127.044 Z" fill="#000000" fill-rule="nonzero" fill-opacity="1" /><path clip-path="url(#clip180)" d="M1924.98 146.581 L1924.98 162.229 L1920.72 162.229 L1920.72 146.719 Q1920.72 143.039 1919.29 141.21 Q1917.85 139.382 1914.98 139.382 Q1911.53 139.382 1909.54 141.581 Q1907.55 143.78 1907.55 147.576 L1907.55 162.229 L1903.27 162.229 L1903.27 136.303 L1907.55 136.303 L1907.55 140.331 Q1909.08 137.993 1911.14 136.835 Q1913.22 135.678 1915.93 135.678 Q1920.4 135.678 1922.69 138.456 Q1924.98 141.21 1924.98 146.581 Z" fill="#000000" fill-rule="nonzero" fill-opacity="1" /><path clip-path="url(#clip180)" d="M1954.38 128.803 L1954.38 133.363 Q1951.72 132.09 1949.36 131.465 Q1947 130.84 1944.8 130.84 Q1940.98 130.84 1938.89 132.321 Q1936.83 133.803 1936.83 136.534 Q1936.83 138.826 1938.2 140.007 Q1939.59 141.164 1943.43 141.882 L1946.26 142.46 Q1951.49 143.456 1953.96 145.979 Q1956.46 148.479 1956.46 152.692 Q1956.46 157.715 1953.08 160.307 Q1949.73 162.9 1943.22 162.9 Q1940.77 162.9 1937.99 162.344 Q1935.24 161.789 1932.27 160.701 L1932.27 155.886 Q1935.12 157.483 1937.85 158.293 Q1940.58 159.104 1943.22 159.104 Q1947.23 159.104 1949.4 157.53 Q1951.58 155.956 1951.58 153.039 Q1951.58 150.493 1950.01 149.057 Q1948.46 147.622 1944.89 146.905 L1942.04 146.349 Q1936.81 145.307 1934.47 143.085 Q1932.14 140.863 1932.14 136.905 Q1932.14 132.321 1935.35 129.682 Q1938.59 127.044 1944.27 127.044 Q1946.7 127.044 1949.22 127.483 Q1951.74 127.923 1954.38 128.803 Z" fill="#000000" fill-rule="nonzero" fill-opacity="1" /><path clip-path="url(#clip180)" d="M1963.57 126.21 L1967.83 126.21 L1967.83 162.229 L1963.57 162.229 L1963.57 126.21 Z" fill="#000000" fill-rule="nonzero" fill-opacity="1" /><path clip-path="url(#clip180)" d="M1986.79 139.289 Q1983.36 139.289 1981.37 141.974 Q1979.38 144.636 1979.38 149.289 Q1979.38 153.942 1981.35 156.627 Q1983.34 159.289 1986.79 159.289 Q1990.19 159.289 1992.18 156.604 Q1994.17 153.918 1994.17 149.289 Q1994.17 144.682 1992.18 141.997 Q1990.19 139.289 1986.79 139.289 M1986.79 135.678 Q1992.34 135.678 1995.52 139.289 Q1998.69 142.9 1998.69 149.289 Q1998.69 155.655 1995.52 159.289 Q1992.34 162.9 1986.79 162.9 Q1981.21 162.9 1978.04 159.289 Q1974.89 155.655 1974.89 149.289 Q1974.89 142.9 1978.04 139.289 Q1981.21 135.678 1986.79 135.678 Z" fill="#000000" fill-rule="nonzero" fill-opacity="1" /><path clip-path="url(#clip180)" d="M2009.87 158.34 L2009.87 172.09 L2005.58 172.09 L2005.58 136.303 L2009.87 136.303 L2009.87 140.238 Q2011.21 137.923 2013.25 136.812 Q2015.31 135.678 2018.15 135.678 Q2022.88 135.678 2025.82 139.428 Q2028.78 143.178 2028.78 149.289 Q2028.78 155.4 2025.82 159.15 Q2022.88 162.9 2018.15 162.9 Q2015.31 162.9 2013.25 161.789 Q2011.21 160.655 2009.87 158.34 M2024.36 149.289 Q2024.36 144.59 2022.41 141.928 Q2020.49 139.243 2017.11 139.243 Q2013.73 139.243 2011.79 141.928 Q2009.87 144.59 2009.87 149.289 Q2009.87 153.988 2011.79 156.673 Q2013.73 159.335 2017.11 159.335 Q2020.49 159.335 2022.41 156.673 Q2024.36 153.988 2024.36 149.289 Z" fill="#000000" fill-rule="nonzero" fill-opacity="1" /><path clip-path="url(#clip180)" d="M2058.01 148.201 L2058.01 150.284 L2038.43 150.284 Q2038.71 154.682 2041.07 156.997 Q2043.45 159.289 2047.69 159.289 Q2050.14 159.289 2052.44 158.687 Q2054.75 158.085 2057.02 156.881 L2057.02 160.909 Q2054.73 161.881 2052.32 162.391 Q2049.91 162.9 2047.44 162.9 Q2041.23 162.9 2037.6 159.289 Q2033.99 155.678 2033.99 149.52 Q2033.99 143.155 2037.41 139.428 Q2040.86 135.678 2046.7 135.678 Q2051.93 135.678 2054.96 139.057 Q2058.01 142.414 2058.01 148.201 M2053.76 146.951 Q2053.71 143.456 2051.79 141.372 Q2049.89 139.289 2046.74 139.289 Q2043.18 139.289 2041.02 141.303 Q2038.89 143.317 2038.57 146.974 L2053.76 146.951 Z" fill="#000000" fill-rule="nonzero" fill-opacity="1" /><path clip-path="url(#clip180)" d="M2065.61 156.349 L2070.49 156.349 L2070.49 162.229 L2065.61 162.229 L2065.61 156.349 Z" fill="#000000" fill-rule="nonzero" fill-opacity="1" /><path clip-path="url(#clip180)" d="M2101.63 136.303 L2092.25 148.919 L2102.11 162.229 L2097.09 162.229 L2089.54 152.043 L2082 162.229 L2076.97 162.229 L2087.04 148.664 L2077.83 136.303 L2082.85 136.303 L2089.73 145.539 L2096.6 136.303 L2101.63 136.303 Z" fill="#000000" fill-rule="nonzero" fill-opacity="1" /><path clip-path="url(#clip180)" d="M2133.43 126.257 Q2130.33 131.581 2128.82 136.789 Q2127.32 141.997 2127.32 147.344 Q2127.32 152.692 2128.82 157.946 Q2130.35 163.178 2133.43 168.479 L2129.73 168.479 Q2126.26 163.039 2124.52 157.784 Q2122.81 152.53 2122.81 147.344 Q2122.81 142.182 2124.52 136.951 Q2126.23 131.72 2129.73 126.257 L2133.43 126.257 Z" fill="#000000" fill-rule="nonzero" fill-opacity="1" /><path clip-path="url(#clip180)" d="M2143.11 158.293 L2150.75 158.293 L2150.75 131.928 L2142.44 133.595 L2142.44 129.335 L2150.7 127.669 L2155.38 127.669 L2155.38 158.293 L2163.01 158.293 L2163.01 162.229 L2143.11 162.229 L2143.11 158.293 Z" fill="#000000" fill-rule="nonzero" fill-opacity="1" /><path clip-path="url(#clip180)" d="M2171.19 126.257 L2174.89 126.257 Q2178.36 131.72 2180.07 136.951 Q2181.81 142.182 2181.81 147.344 Q2181.81 152.53 2180.07 157.784 Q2178.36 163.039 2174.89 168.479 L2171.19 168.479 Q2174.26 163.178 2175.77 157.946 Q2177.3 152.692 2177.3 147.344 Q2177.3 141.997 2175.77 136.789 Q2174.26 131.581 2171.19 126.257 Z" fill="#000000" fill-rule="nonzero" fill-opacity="1" /><polyline clip-path="url(#clip180)" style="stroke:#56b4e9; stroke-linecap:round; stroke-linejoin:round; stroke-width:4; stroke-opacity:1; fill:none" points="1571.09,196.789 1716.01,196.789 "/>
<path clip-path="url(#clip180)" d="M1758.94 201.129 Q1758.94 196.43 1757 193.768 Q1755.08 191.083 1751.7 191.083 Q1748.32 191.083 1746.37 193.768 Q1744.45 196.43 1744.45 201.129 Q1744.45 205.828 1746.37 208.513 Q1748.32 211.175 1751.7 211.175 Q1755.08 211.175 1757 208.513 Q1758.94 205.828 1758.94 201.129 M1744.45 192.078 Q1745.79 189.763 1747.83 188.652 Q1749.89 187.518 1752.74 187.518 Q1757.46 187.518 1760.4 191.268 Q1763.36 195.018 1763.36 201.129 Q1763.36 207.24 1760.4 210.99 Q1757.46 214.74 1752.74 214.74 Q1749.89 214.74 1747.83 213.629 Q1745.79 212.495 1744.45 210.18 L1744.45 214.069 L1740.17 214.069 L1740.17 178.05 L1744.45 178.05 L1744.45 192.078 Z" fill="#000000" fill-rule="nonzero" fill-opacity="1" /><path clip-path="url(#clip180)" d="M1770.42 178.05 L1774.68 178.05 L1774.68 214.069 L1770.42 214.069 L1770.42 178.05 Z" fill="#000000" fill-rule="nonzero" fill-opacity="1" /><path clip-path="url(#clip180)" d="M1793.64 191.129 Q1790.22 191.129 1788.22 193.814 Q1786.23 196.476 1786.23 201.129 Q1786.23 205.782 1788.2 208.467 Q1790.19 211.129 1793.64 211.129 Q1797.04 211.129 1799.03 208.444 Q1801.03 205.758 1801.03 201.129 Q1801.03 196.522 1799.03 193.837 Q1797.04 191.129 1793.64 191.129 M1793.64 187.518 Q1799.2 187.518 1802.37 191.129 Q1805.54 194.74 1805.54 201.129 Q1805.54 207.495 1802.37 211.129 Q1799.2 214.74 1793.64 214.74 Q1788.06 214.74 1784.89 211.129 Q1781.74 207.495 1781.74 201.129 Q1781.74 194.74 1784.89 191.129 Q1788.06 187.518 1793.64 187.518 Z" fill="#000000" fill-rule="nonzero" fill-opacity="1" /><path clip-path="url(#clip180)" d="M1831.26 189.138 L1831.26 193.12 Q1829.45 192.124 1827.62 191.638 Q1825.82 191.129 1823.96 191.129 Q1819.82 191.129 1817.53 193.768 Q1815.24 196.384 1815.24 201.129 Q1815.24 205.874 1817.53 208.513 Q1819.82 211.129 1823.96 211.129 Q1825.82 211.129 1827.62 210.643 Q1829.45 210.133 1831.26 209.138 L1831.26 213.073 Q1829.47 213.907 1827.55 214.323 Q1825.65 214.74 1823.5 214.74 Q1817.65 214.74 1814.2 211.059 Q1810.75 207.379 1810.75 201.129 Q1810.75 194.786 1814.22 191.152 Q1817.72 187.518 1823.78 187.518 Q1825.75 187.518 1827.62 187.935 Q1829.5 188.328 1831.26 189.138 Z" fill="#000000" fill-rule="nonzero" fill-opacity="1" /><path clip-path="url(#clip180)" d="M1838.5 178.05 L1842.78 178.05 L1842.78 199.323 L1855.49 188.143 L1860.93 188.143 L1847.18 200.272 L1861.51 214.069 L1855.96 214.069 L1842.78 201.407 L1842.78 214.069 L1838.5 214.069 L1838.5 178.05 Z" fill="#000000" fill-rule="nonzero" fill-opacity="1" /><path clip-path="url(#clip180)" d="M1880.33 182.68 Q1875.24 182.68 1872.23 186.476 Q1869.24 190.272 1869.24 196.823 Q1869.24 203.351 1872.23 207.147 Q1875.24 210.944 1880.33 210.944 Q1885.42 210.944 1888.39 207.147 Q1891.37 203.351 1891.37 196.823 Q1891.37 190.272 1888.39 186.476 Q1885.42 182.68 1880.33 182.68 M1880.33 178.884 Q1887.6 178.884 1891.95 183.768 Q1896.3 188.629 1896.3 196.823 Q1896.3 204.995 1891.95 209.879 Q1887.6 214.74 1880.33 214.74 Q1873.04 214.74 1868.66 209.879 Q1864.31 205.018 1864.31 196.823 Q1864.31 188.629 1868.66 183.768 Q1873.04 178.884 1880.33 178.884 Z" fill="#000000" fill-rule="nonzero" fill-opacity="1" /><path clip-path="url(#clip180)" d="M1924.98 198.421 L1924.98 214.069 L1920.72 214.069 L1920.72 198.559 Q1920.72 194.879 1919.29 193.05 Q1917.85 191.222 1914.98 191.222 Q1911.53 191.222 1909.54 193.421 Q1907.55 195.62 1907.55 199.416 L1907.55 214.069 L1903.27 214.069 L1903.27 188.143 L1907.55 188.143 L1907.55 192.171 Q1909.08 189.833 1911.14 188.675 Q1913.22 187.518 1915.93 187.518 Q1920.4 187.518 1922.69 190.296 Q1924.98 193.05 1924.98 198.421 Z" fill="#000000" fill-rule="nonzero" fill-opacity="1" /><path clip-path="url(#clip180)" d="M1954.38 180.643 L1954.38 185.203 Q1951.72 183.93 1949.36 183.305 Q1947 182.68 1944.8 182.68 Q1940.98 182.68 1938.89 184.161 Q1936.83 185.643 1936.83 188.374 Q1936.83 190.666 1938.2 191.847 Q1939.59 193.004 1943.43 193.722 L1946.26 194.3 Q1951.49 195.296 1953.96 197.819 Q1956.46 200.319 1956.46 204.532 Q1956.46 209.555 1953.08 212.147 Q1949.73 214.74 1943.22 214.74 Q1940.77 214.74 1937.99 214.184 Q1935.24 213.629 1932.27 212.541 L1932.27 207.726 Q1935.12 209.323 1937.85 210.133 Q1940.58 210.944 1943.22 210.944 Q1947.23 210.944 1949.4 209.37 Q1951.58 207.796 1951.58 204.879 Q1951.58 202.333 1950.01 200.897 Q1948.46 199.462 1944.89 198.745 L1942.04 198.189 Q1936.81 197.147 1934.47 194.925 Q1932.14 192.703 1932.14 188.745 Q1932.14 184.161 1935.35 181.522 Q1938.59 178.884 1944.27 178.884 Q1946.7 178.884 1949.22 179.323 Q1951.74 179.763 1954.38 180.643 Z" fill="#000000" fill-rule="nonzero" fill-opacity="1" /><path clip-path="url(#clip180)" d="M1963.57 178.05 L1967.83 178.05 L1967.83 214.069 L1963.57 214.069 L1963.57 178.05 Z" fill="#000000" fill-rule="nonzero" fill-opacity="1" /><path clip-path="url(#clip180)" d="M1986.79 191.129 Q1983.36 191.129 1981.37 193.814 Q1979.38 196.476 1979.38 201.129 Q1979.38 205.782 1981.35 208.467 Q1983.34 211.129 1986.79 211.129 Q1990.19 211.129 1992.18 208.444 Q1994.17 205.758 1994.17 201.129 Q1994.17 196.522 1992.18 193.837 Q1990.19 191.129 1986.79 191.129 M1986.79 187.518 Q1992.34 187.518 1995.52 191.129 Q1998.69 194.74 1998.69 201.129 Q1998.69 207.495 1995.52 211.129 Q1992.34 214.74 1986.79 214.74 Q1981.21 214.74 1978.04 211.129 Q1974.89 207.495 1974.89 201.129 Q1974.89 194.74 1978.04 191.129 Q1981.21 187.518 1986.79 187.518 Z" fill="#000000" fill-rule="nonzero" fill-opacity="1" /><path clip-path="url(#clip180)" d="M2009.87 210.18 L2009.87 223.93 L2005.58 223.93 L2005.58 188.143 L2009.87 188.143 L2009.87 192.078 Q2011.21 189.763 2013.25 188.652 Q2015.31 187.518 2018.15 187.518 Q2022.88 187.518 2025.82 191.268 Q2028.78 195.018 2028.78 201.129 Q2028.78 207.24 2025.82 210.99 Q2022.88 214.74 2018.15 214.74 Q2015.31 214.74 2013.25 213.629 Q2011.21 212.495 2009.87 210.18 M2024.36 201.129 Q2024.36 196.43 2022.41 193.768 Q2020.49 191.083 2017.11 191.083 Q2013.73 191.083 2011.79 193.768 Q2009.87 196.43 2009.87 201.129 Q2009.87 205.828 2011.79 208.513 Q2013.73 211.175 2017.11 211.175 Q2020.49 211.175 2022.41 208.513 Q2024.36 205.828 2024.36 201.129 Z" fill="#000000" fill-rule="nonzero" fill-opacity="1" /><path clip-path="url(#clip180)" d="M2058.01 200.041 L2058.01 202.124 L2038.43 202.124 Q2038.71 206.522 2041.07 208.837 Q2043.45 211.129 2047.69 211.129 Q2050.14 211.129 2052.44 210.527 Q2054.75 209.925 2057.02 208.721 L2057.02 212.749 Q2054.73 213.721 2052.32 214.231 Q2049.91 214.74 2047.44 214.74 Q2041.23 214.74 2037.6 211.129 Q2033.99 207.518 2033.99 201.36 Q2033.99 194.995 2037.41 191.268 Q2040.86 187.518 2046.7 187.518 Q2051.93 187.518 2054.96 190.897 Q2058.01 194.254 2058.01 200.041 M2053.76 198.791 Q2053.71 195.296 2051.79 193.212 Q2049.89 191.129 2046.74 191.129 Q2043.18 191.129 2041.02 193.143 Q2038.89 195.157 2038.57 198.814 L2053.76 198.791 Z" fill="#000000" fill-rule="nonzero" fill-opacity="1" /><path clip-path="url(#clip180)" d="M2065.61 208.189 L2070.49 208.189 L2070.49 214.069 L2065.61 214.069 L2065.61 208.189 Z" fill="#000000" fill-rule="nonzero" fill-opacity="1" /><path clip-path="url(#clip180)" d="M2101.63 188.143 L2092.25 200.759 L2102.11 214.069 L2097.09 214.069 L2089.54 203.883 L2082 214.069 L2076.97 214.069 L2087.04 200.504 L2077.83 188.143 L2082.85 188.143 L2089.73 197.379 L2096.6 188.143 L2101.63 188.143 Z" fill="#000000" fill-rule="nonzero" fill-opacity="1" /><path clip-path="url(#clip180)" d="M2125.19 192.078 L2125.19 178.05 L2129.45 178.05 L2129.45 214.069 L2125.19 214.069 L2125.19 210.18 Q2123.85 212.495 2121.79 213.629 Q2119.75 214.74 2116.88 214.74 Q2112.18 214.74 2109.22 210.99 Q2106.28 207.24 2106.28 201.129 Q2106.28 195.018 2109.22 191.268 Q2112.18 187.518 2116.88 187.518 Q2119.75 187.518 2121.79 188.652 Q2123.85 189.763 2125.19 192.078 M2110.68 201.129 Q2110.68 205.828 2112.6 208.513 Q2114.54 211.175 2117.92 211.175 Q2121.3 211.175 2123.25 208.513 Q2125.19 205.828 2125.19 201.129 Q2125.19 196.43 2123.25 193.768 Q2121.3 191.083 2117.92 191.083 Q2114.54 191.083 2112.6 193.768 Q2110.68 196.43 2110.68 201.129 Z" fill="#000000" fill-rule="nonzero" fill-opacity="1" /><path clip-path="url(#clip180)" d="M2163.52 178.097 Q2160.42 183.421 2158.92 188.629 Q2157.41 193.837 2157.41 199.184 Q2157.41 204.532 2158.92 209.786 Q2160.44 215.018 2163.52 220.319 L2159.82 220.319 Q2156.35 214.879 2154.61 209.624 Q2152.9 204.37 2152.9 199.184 Q2152.9 194.022 2154.61 188.791 Q2156.32 183.56 2159.82 178.097 L2163.52 178.097 Z" fill="#000000" fill-rule="nonzero" fill-opacity="1" /><path clip-path="url(#clip180)" d="M2176.42 210.133 L2192.74 210.133 L2192.74 214.069 L2170.79 214.069 L2170.79 210.133 Q2173.45 207.379 2178.04 202.749 Q2182.64 198.096 2183.82 196.754 Q2186.07 194.231 2186.95 192.495 Q2187.85 190.735 2187.85 189.046 Q2187.85 186.291 2185.91 184.555 Q2183.99 182.819 2180.88 182.819 Q2178.69 182.819 2176.23 183.583 Q2173.8 184.347 2171.02 185.897 L2171.02 181.175 Q2173.85 180.041 2176.3 179.462 Q2178.75 178.884 2180.79 178.884 Q2186.16 178.884 2189.36 181.569 Q2192.55 184.254 2192.55 188.745 Q2192.55 190.874 2191.74 192.796 Q2190.95 194.694 2188.85 197.286 Q2188.27 197.958 2185.17 201.175 Q2182.06 204.37 2176.42 210.133 Z" fill="#000000" fill-rule="nonzero" fill-opacity="1" /><path clip-path="url(#clip180)" d="M2201.28 178.097 L2204.98 178.097 Q2208.45 183.56 2210.17 188.791 Q2211.9 194.022 2211.9 199.184 Q2211.9 204.37 2210.17 209.624 Q2208.45 214.879 2204.98 220.319 L2201.28 220.319 Q2204.36 215.018 2205.86 209.786 Q2207.39 204.532 2207.39 199.184 Q2207.39 193.837 2205.86 188.629 Q2204.36 183.421 2201.28 178.097 Z" fill="#000000" fill-rule="nonzero" fill-opacity="1" /><polyline clip-path="url(#clip180)" style="stroke:#009e73; stroke-linecap:round; stroke-linejoin:round; stroke-width:4; stroke-opacity:1; fill:none" points="1571.09,248.629 1716.01,248.629 "/>
<path clip-path="url(#clip180)" d="M1758.94 252.969 Q1758.94 248.27 1757 245.608 Q1755.08 242.923 1751.7 242.923 Q1748.32 242.923 1746.37 245.608 Q1744.45 248.27 1744.45 252.969 Q1744.45 257.668 1746.37 260.353 Q1748.32 263.015 1751.7 263.015 Q1755.08 263.015 1757 260.353 Q1758.94 257.668 1758.94 252.969 M1744.45 243.918 Q1745.79 241.603 1747.83 240.492 Q1749.89 239.358 1752.74 239.358 Q1757.46 239.358 1760.4 243.108 Q1763.36 246.858 1763.36 252.969 Q1763.36 259.08 1760.4 262.83 Q1757.46 266.58 1752.74 266.58 Q1749.89 266.58 1747.83 265.469 Q1745.79 264.335 1744.45 262.02 L1744.45 265.909 L1740.17 265.909 L1740.17 229.89 L1744.45 229.89 L1744.45 243.918 Z" fill="#000000" fill-rule="nonzero" fill-opacity="1" /><path clip-path="url(#clip180)" d="M1770.42 229.89 L1774.68 229.89 L1774.68 265.909 L1770.42 265.909 L1770.42 229.89 Z" fill="#000000" fill-rule="nonzero" fill-opacity="1" /><path clip-path="url(#clip180)" d="M1793.64 242.969 Q1790.22 242.969 1788.22 245.654 Q1786.23 248.316 1786.23 252.969 Q1786.23 257.622 1788.2 260.307 Q1790.19 262.969 1793.64 262.969 Q1797.04 262.969 1799.03 260.284 Q1801.03 257.598 1801.03 252.969 Q1801.03 248.362 1799.03 245.677 Q1797.04 242.969 1793.64 242.969 M1793.64 239.358 Q1799.2 239.358 1802.37 242.969 Q1805.54 246.58 1805.54 252.969 Q1805.54 259.335 1802.37 262.969 Q1799.2 266.58 1793.64 266.58 Q1788.06 266.58 1784.89 262.969 Q1781.74 259.335 1781.74 252.969 Q1781.74 246.58 1784.89 242.969 Q1788.06 239.358 1793.64 239.358 Z" fill="#000000" fill-rule="nonzero" fill-opacity="1" /><path clip-path="url(#clip180)" d="M1831.26 240.978 L1831.26 244.96 Q1829.45 243.964 1827.62 243.478 Q1825.82 242.969 1823.96 242.969 Q1819.82 242.969 1817.53 245.608 Q1815.24 248.224 1815.24 252.969 Q1815.24 257.714 1817.53 260.353 Q1819.82 262.969 1823.96 262.969 Q1825.82 262.969 1827.62 262.483 Q1829.45 261.973 1831.26 260.978 L1831.26 264.913 Q1829.47 265.747 1827.55 266.163 Q1825.65 266.58 1823.5 266.58 Q1817.65 266.58 1814.2 262.899 Q1810.75 259.219 1810.75 252.969 Q1810.75 246.626 1814.22 242.992 Q1817.72 239.358 1823.78 239.358 Q1825.75 239.358 1827.62 239.775 Q1829.5 240.168 1831.26 240.978 Z" fill="#000000" fill-rule="nonzero" fill-opacity="1" /><path clip-path="url(#clip180)" d="M1838.5 229.89 L1842.78 229.89 L1842.78 251.163 L1855.49 239.983 L1860.93 239.983 L1847.18 252.112 L1861.51 265.909 L1855.96 265.909 L1842.78 253.247 L1842.78 265.909 L1838.5 265.909 L1838.5 229.89 Z" fill="#000000" fill-rule="nonzero" fill-opacity="1" /><path clip-path="url(#clip180)" d="M1880.33 234.52 Q1875.24 234.52 1872.23 238.316 Q1869.24 242.112 1869.24 248.663 Q1869.24 255.191 1872.23 258.987 Q1875.24 262.784 1880.33 262.784 Q1885.42 262.784 1888.39 258.987 Q1891.37 255.191 1891.37 248.663 Q1891.37 242.112 1888.39 238.316 Q1885.42 234.52 1880.33 234.52 M1880.33 230.724 Q1887.6 230.724 1891.95 235.608 Q1896.3 240.469 1896.3 248.663 Q1896.3 256.835 1891.95 261.719 Q1887.6 266.58 1880.33 266.58 Q1873.04 266.58 1868.66 261.719 Q1864.31 256.858 1864.31 248.663 Q1864.31 240.469 1868.66 235.608 Q1873.04 230.724 1880.33 230.724 Z" fill="#000000" fill-rule="nonzero" fill-opacity="1" /><path clip-path="url(#clip180)" d="M1924.98 250.261 L1924.98 265.909 L1920.72 265.909 L1920.72 250.399 Q1920.72 246.719 1919.29 244.89 Q1917.85 243.062 1914.98 243.062 Q1911.53 243.062 1909.54 245.261 Q1907.55 247.46 1907.55 251.256 L1907.55 265.909 L1903.27 265.909 L1903.27 239.983 L1907.55 239.983 L1907.55 244.011 Q1909.08 241.673 1911.14 240.515 Q1913.22 239.358 1915.93 239.358 Q1920.4 239.358 1922.69 242.136 Q1924.98 244.89 1924.98 250.261 Z" fill="#000000" fill-rule="nonzero" fill-opacity="1" /><path clip-path="url(#clip180)" d="M1954.38 232.483 L1954.38 237.043 Q1951.72 235.77 1949.36 235.145 Q1947 234.52 1944.8 234.52 Q1940.98 234.52 1938.89 236.001 Q1936.83 237.483 1936.83 240.214 Q1936.83 242.506 1938.2 243.687 Q1939.59 244.844 1943.43 245.562 L1946.26 246.14 Q1951.49 247.136 1953.96 249.659 Q1956.46 252.159 1956.46 256.372 Q1956.46 261.395 1953.08 263.987 Q1949.73 266.58 1943.22 266.58 Q1940.77 266.58 1937.99 266.024 Q1935.24 265.469 1932.27 264.381 L1932.27 259.566 Q1935.12 261.163 1937.85 261.973 Q1940.58 262.784 1943.22 262.784 Q1947.23 262.784 1949.4 261.21 Q1951.58 259.636 1951.58 256.719 Q1951.58 254.173 1950.01 252.737 Q1948.46 251.302 1944.89 250.585 L1942.04 250.029 Q1936.81 248.987 1934.47 246.765 Q1932.14 244.543 1932.14 240.585 Q1932.14 236.001 1935.35 233.362 Q1938.59 230.724 1944.27 230.724 Q1946.7 230.724 1949.22 231.163 Q1951.74 231.603 1954.38 232.483 Z" fill="#000000" fill-rule="nonzero" fill-opacity="1" /><path clip-path="url(#clip180)" d="M1963.57 229.89 L1967.83 229.89 L1967.83 265.909 L1963.57 265.909 L1963.57 229.89 Z" fill="#000000" fill-rule="nonzero" fill-opacity="1" /><path clip-path="url(#clip180)" d="M1986.79 242.969 Q1983.36 242.969 1981.37 245.654 Q1979.38 248.316 1979.38 252.969 Q1979.38 257.622 1981.35 260.307 Q1983.34 262.969 1986.79 262.969 Q1990.19 262.969 1992.18 260.284 Q1994.17 257.598 1994.17 252.969 Q1994.17 248.362 1992.18 245.677 Q1990.19 242.969 1986.79 242.969 M1986.79 239.358 Q1992.34 239.358 1995.52 242.969 Q1998.69 246.58 1998.69 252.969 Q1998.69 259.335 1995.52 262.969 Q1992.34 266.58 1986.79 266.58 Q1981.21 266.58 1978.04 262.969 Q1974.89 259.335 1974.89 252.969 Q1974.89 246.58 1978.04 242.969 Q1981.21 239.358 1986.79 239.358 Z" fill="#000000" fill-rule="nonzero" fill-opacity="1" /><path clip-path="url(#clip180)" d="M2009.87 262.02 L2009.87 275.77 L2005.58 275.77 L2005.58 239.983 L2009.87 239.983 L2009.87 243.918 Q2011.21 241.603 2013.25 240.492 Q2015.31 239.358 2018.15 239.358 Q2022.88 239.358 2025.82 243.108 Q2028.78 246.858 2028.78 252.969 Q2028.78 259.08 2025.82 262.83 Q2022.88 266.58 2018.15 266.58 Q2015.31 266.58 2013.25 265.469 Q2011.21 264.335 2009.87 262.02 M2024.36 252.969 Q2024.36 248.27 2022.41 245.608 Q2020.49 242.923 2017.11 242.923 Q2013.73 242.923 2011.79 245.608 Q2009.87 248.27 2009.87 252.969 Q2009.87 257.668 2011.79 260.353 Q2013.73 263.015 2017.11 263.015 Q2020.49 263.015 2022.41 260.353 Q2024.36 257.668 2024.36 252.969 Z" fill="#000000" fill-rule="nonzero" fill-opacity="1" /><path clip-path="url(#clip180)" d="M2058.01 251.881 L2058.01 253.964 L2038.43 253.964 Q2038.71 258.362 2041.07 260.677 Q2043.45 262.969 2047.69 262.969 Q2050.14 262.969 2052.44 262.367 Q2054.75 261.765 2057.02 260.561 L2057.02 264.589 Q2054.73 265.561 2052.32 266.071 Q2049.91 266.58 2047.44 266.58 Q2041.23 266.58 2037.6 262.969 Q2033.99 259.358 2033.99 253.2 Q2033.99 246.835 2037.41 243.108 Q2040.86 239.358 2046.7 239.358 Q2051.93 239.358 2054.96 242.737 Q2058.01 246.094 2058.01 251.881 M2053.76 250.631 Q2053.71 247.136 2051.79 245.052 Q2049.89 242.969 2046.74 242.969 Q2043.18 242.969 2041.02 244.983 Q2038.89 246.997 2038.57 250.654 L2053.76 250.631 Z" fill="#000000" fill-rule="nonzero" fill-opacity="1" /><path clip-path="url(#clip180)" d="M2065.61 260.029 L2070.49 260.029 L2070.49 265.909 L2065.61 265.909 L2065.61 260.029 Z" fill="#000000" fill-rule="nonzero" fill-opacity="1" /><path clip-path="url(#clip180)" d="M2079.63 255.677 L2079.63 239.983 L2083.89 239.983 L2083.89 255.515 Q2083.89 259.196 2085.33 261.048 Q2086.76 262.876 2089.63 262.876 Q2093.08 262.876 2095.07 260.677 Q2097.09 258.478 2097.09 254.682 L2097.09 239.983 L2101.35 239.983 L2101.35 265.909 L2097.09 265.909 L2097.09 261.927 Q2095.54 264.288 2093.48 265.446 Q2091.44 266.58 2088.73 266.58 Q2084.26 266.58 2081.95 263.802 Q2079.63 261.024 2079.63 255.677 M2090.35 239.358 L2090.35 239.358 Z" fill="#000000" fill-rule="nonzero" fill-opacity="1" /><path clip-path="url(#clip180)" d="M2126.65 240.747 L2126.65 244.774 Q2124.84 243.849 2122.9 243.386 Q2120.95 242.923 2118.87 242.923 Q2115.7 242.923 2114.1 243.895 Q2112.53 244.867 2112.53 246.811 Q2112.53 248.293 2113.66 249.149 Q2114.8 249.983 2118.22 250.747 L2119.68 251.071 Q2124.22 252.043 2126.12 253.825 Q2128.04 255.585 2128.04 258.756 Q2128.04 262.367 2125.17 264.473 Q2122.32 266.58 2117.32 266.58 Q2115.24 266.58 2112.97 266.163 Q2110.72 265.77 2108.22 264.96 L2108.22 260.561 Q2110.58 261.788 2112.88 262.413 Q2115.17 263.015 2117.41 263.015 Q2120.42 263.015 2122.04 261.997 Q2123.66 260.955 2123.66 259.08 Q2123.66 257.344 2122.48 256.418 Q2121.32 255.492 2117.37 254.636 L2115.88 254.288 Q2111.93 253.455 2110.17 251.742 Q2108.41 250.006 2108.41 246.997 Q2108.41 243.339 2111 241.349 Q2113.59 239.358 2118.36 239.358 Q2120.72 239.358 2122.81 239.705 Q2124.89 240.052 2126.65 240.747 Z" fill="#000000" fill-rule="nonzero" fill-opacity="1" /><path clip-path="url(#clip180)" d="M2146.6 252.876 Q2141.44 252.876 2139.45 254.057 Q2137.46 255.237 2137.46 258.085 Q2137.46 260.353 2138.94 261.696 Q2140.44 263.015 2143.01 263.015 Q2146.56 263.015 2148.69 260.515 Q2150.84 257.992 2150.84 253.825 L2150.84 252.876 L2146.6 252.876 M2155.1 251.117 L2155.1 265.909 L2150.84 265.909 L2150.84 261.973 Q2149.38 264.335 2147.2 265.469 Q2145.03 266.58 2141.88 266.58 Q2137.9 266.58 2135.54 264.358 Q2133.2 262.112 2133.2 258.362 Q2133.2 253.987 2136.12 251.765 Q2139.06 249.543 2144.87 249.543 L2150.84 249.543 L2150.84 249.126 Q2150.84 246.187 2148.89 244.589 Q2146.97 242.969 2143.48 242.969 Q2141.25 242.969 2139.15 243.501 Q2137.04 244.034 2135.1 245.099 L2135.1 241.163 Q2137.44 240.261 2139.63 239.821 Q2141.83 239.358 2143.92 239.358 Q2149.54 239.358 2152.32 242.274 Q2155.1 245.191 2155.1 251.117 Z" fill="#000000" fill-rule="nonzero" fill-opacity="1" /><path clip-path="url(#clip180)" d="M2168.08 232.622 L2168.08 239.983 L2176.86 239.983 L2176.86 243.293 L2168.08 243.293 L2168.08 257.367 Q2168.08 260.538 2168.94 261.441 Q2169.82 262.344 2172.48 262.344 L2176.86 262.344 L2176.86 265.909 L2172.48 265.909 Q2167.55 265.909 2165.68 264.08 Q2163.8 262.228 2163.8 257.367 L2163.8 243.293 L2160.68 243.293 L2160.68 239.983 L2163.8 239.983 L2163.8 232.622 L2168.08 232.622 Z" fill="#000000" fill-rule="nonzero" fill-opacity="1" /><path clip-path="url(#clip180)" d="M2207.76 229.937 Q2204.66 235.261 2203.15 240.469 Q2201.65 245.677 2201.65 251.024 Q2201.65 256.372 2203.15 261.626 Q2204.68 266.858 2207.76 272.159 L2204.06 272.159 Q2200.58 266.719 2198.85 261.464 Q2197.13 256.21 2197.13 251.024 Q2197.13 245.862 2198.85 240.631 Q2200.56 235.4 2204.06 229.937 L2207.76 229.937 Z" fill="#000000" fill-rule="nonzero" fill-opacity="1" /><path clip-path="url(#clip180)" d="M2215.44 231.349 L2237.67 231.349 L2237.67 233.339 L2225.12 265.909 L2220.24 265.909 L2232.04 235.284 L2215.44 235.284 L2215.44 231.349 Z" fill="#000000" fill-rule="nonzero" fill-opacity="1" /><path clip-path="url(#clip180)" d="M2245.51 229.937 L2249.22 229.937 Q2252.69 235.4 2254.4 240.631 Q2256.14 245.862 2256.14 251.024 Q2256.14 256.21 2254.4 261.464 Q2252.69 266.719 2249.22 272.159 L2245.51 272.159 Q2248.59 266.858 2250.1 261.626 Q2251.62 256.372 2251.62 251.024 Q2251.62 245.677 2250.1 240.469 Q2248.59 235.261 2245.51 229.937 Z" fill="#000000" fill-rule="nonzero" fill-opacity="1" /><polyline clip-path="url(#clip180)" style="stroke:#0000ff; stroke-linecap:round; stroke-linejoin:round; stroke-width:4; stroke-opacity:1; fill:none" stroke-dasharray="16, 10" points="1571.09,300.469 1716.01,300.469 "/>
<path clip-path="url(#clip180)" d="M1762.41 284.323 L1762.41 288.883 Q1759.75 287.61 1757.39 286.985 Q1755.03 286.36 1752.83 286.36 Q1749.01 286.36 1746.93 287.841 Q1744.87 289.323 1744.87 292.054 Q1744.87 294.346 1746.23 295.527 Q1747.62 296.684 1751.47 297.402 L1754.29 297.98 Q1759.52 298.976 1762 301.499 Q1764.5 303.999 1764.5 308.212 Q1764.5 313.235 1761.12 315.827 Q1757.76 318.42 1751.26 318.42 Q1748.8 318.42 1746.03 317.864 Q1743.27 317.309 1740.31 316.221 L1740.31 311.406 Q1743.16 313.003 1745.89 313.813 Q1748.62 314.624 1751.26 314.624 Q1755.26 314.624 1757.44 313.05 Q1759.61 311.476 1759.61 308.559 Q1759.61 306.013 1758.04 304.577 Q1756.49 303.142 1752.92 302.425 L1750.08 301.869 Q1744.85 300.827 1742.51 298.605 Q1740.17 296.383 1740.17 292.425 Q1740.17 287.841 1743.39 285.202 Q1746.63 282.564 1752.3 282.564 Q1754.73 282.564 1757.25 283.003 Q1759.78 283.443 1762.41 284.323 Z" fill="#000000" fill-rule="nonzero" fill-opacity="1" /><path clip-path="url(#clip180)" d="M1775.82 284.462 L1775.82 291.823 L1784.59 291.823 L1784.59 295.133 L1775.82 295.133 L1775.82 309.207 Q1775.82 312.378 1776.67 313.281 Q1777.55 314.184 1780.22 314.184 L1784.59 314.184 L1784.59 317.749 L1780.22 317.749 Q1775.28 317.749 1773.41 315.92 Q1771.53 314.068 1771.53 309.207 L1771.53 295.133 L1768.41 295.133 L1768.41 291.823 L1771.53 291.823 L1771.53 284.462 L1775.82 284.462 Z" fill="#000000" fill-rule="nonzero" fill-opacity="1" /><path clip-path="url(#clip180)" d="M1801.97 304.716 Q1796.81 304.716 1794.82 305.897 Q1792.83 307.077 1792.83 309.925 Q1792.83 312.193 1794.31 313.536 Q1795.82 314.855 1798.39 314.855 Q1801.93 314.855 1804.06 312.355 Q1806.21 309.832 1806.21 305.665 L1806.21 304.716 L1801.97 304.716 M1810.47 302.957 L1810.47 317.749 L1806.21 317.749 L1806.21 313.813 Q1804.75 316.175 1802.58 317.309 Q1800.4 318.42 1797.25 318.42 Q1793.27 318.42 1790.91 316.198 Q1788.57 313.952 1788.57 310.202 Q1788.57 305.827 1791.49 303.605 Q1794.43 301.383 1800.24 301.383 L1806.21 301.383 L1806.21 300.966 Q1806.21 298.027 1804.27 296.429 Q1802.34 294.809 1798.85 294.809 Q1796.63 294.809 1794.52 295.341 Q1792.41 295.874 1790.47 296.939 L1790.47 293.003 Q1792.81 292.101 1795.01 291.661 Q1797.21 291.198 1799.29 291.198 Q1804.91 291.198 1807.69 294.114 Q1810.47 297.031 1810.47 302.957 Z" fill="#000000" fill-rule="nonzero" fill-opacity="1" /><path clip-path="url(#clip180)" d="M1823.46 284.462 L1823.46 291.823 L1832.23 291.823 L1832.23 295.133 L1823.46 295.133 L1823.46 309.207 Q1823.46 312.378 1824.31 313.281 Q1825.19 314.184 1827.85 314.184 L1832.23 314.184 L1832.23 317.749 L1827.85 317.749 Q1822.92 317.749 1821.05 315.92 Q1819.17 314.068 1819.17 309.207 L1819.17 295.133 L1816.05 295.133 L1816.05 291.823 L1819.17 291.823 L1819.17 284.462 L1823.46 284.462 Z" fill="#000000" fill-rule="nonzero" fill-opacity="1" /><path clip-path="url(#clip180)" d="M1860.01 303.721 L1860.01 305.804 L1840.42 305.804 Q1840.7 310.202 1843.06 312.517 Q1845.45 314.809 1849.68 314.809 Q1852.14 314.809 1854.43 314.207 Q1856.74 313.605 1859.01 312.401 L1859.01 316.429 Q1856.72 317.401 1854.31 317.911 Q1851.9 318.42 1849.43 318.42 Q1843.22 318.42 1839.59 314.809 Q1835.98 311.198 1835.98 305.04 Q1835.98 298.675 1839.4 294.948 Q1842.85 291.198 1848.69 291.198 Q1853.92 291.198 1856.95 294.577 Q1860.01 297.934 1860.01 303.721 M1855.75 302.471 Q1855.7 298.976 1853.78 296.892 Q1851.88 294.809 1848.73 294.809 Q1845.17 294.809 1843.02 296.823 Q1840.89 298.837 1840.56 302.494 L1855.75 302.471 Z" fill="#000000" fill-rule="nonzero" fill-opacity="1" /><path clip-path="url(#clip180)" d="M1904.24 303.721 L1904.24 305.804 L1884.66 305.804 Q1884.94 310.202 1887.3 312.517 Q1889.68 314.809 1893.92 314.809 Q1896.37 314.809 1898.66 314.207 Q1900.98 313.605 1903.25 312.401 L1903.25 316.429 Q1900.96 317.401 1898.55 317.911 Q1896.14 318.42 1893.66 318.42 Q1887.46 318.42 1883.83 314.809 Q1880.21 311.198 1880.21 305.04 Q1880.21 298.675 1883.64 294.948 Q1887.09 291.198 1892.92 291.198 Q1898.15 291.198 1901.19 294.577 Q1904.24 297.934 1904.24 303.721 M1899.98 302.471 Q1899.94 298.976 1898.02 296.892 Q1896.12 294.809 1892.97 294.809 Q1889.4 294.809 1887.25 296.823 Q1885.12 298.837 1884.8 302.494 L1899.98 302.471 Z" fill="#000000" fill-rule="nonzero" fill-opacity="1" /><path clip-path="url(#clip180)" d="M1908.18 291.823 L1912.69 291.823 L1920.79 313.582 L1928.89 291.823 L1933.41 291.823 L1923.69 317.749 L1917.9 317.749 L1908.18 291.823 Z" fill="#000000" fill-rule="nonzero" fill-opacity="1" /><path clip-path="url(#clip180)" d="M1961.46 303.721 L1961.46 305.804 L1941.88 305.804 Q1942.16 310.202 1944.52 312.517 Q1946.9 314.809 1951.14 314.809 Q1953.59 314.809 1955.89 314.207 Q1958.2 313.605 1960.47 312.401 L1960.47 316.429 Q1958.18 317.401 1955.77 317.911 Q1953.36 318.42 1950.89 318.42 Q1944.68 318.42 1941.05 314.809 Q1937.44 311.198 1937.44 305.04 Q1937.44 298.675 1940.86 294.948 Q1944.31 291.198 1950.14 291.198 Q1955.38 291.198 1958.41 294.577 Q1961.46 297.934 1961.46 303.721 M1957.21 302.471 Q1957.16 298.976 1955.24 296.892 Q1953.34 294.809 1950.19 294.809 Q1946.63 294.809 1944.47 296.823 Q1942.34 298.837 1942.02 302.494 L1957.21 302.471 Z" fill="#000000" fill-rule="nonzero" fill-opacity="1" /><path clip-path="url(#clip180)" d="M1990.01 302.101 L1990.01 317.749 L1985.75 317.749 L1985.75 302.239 Q1985.75 298.559 1984.31 296.73 Q1982.88 294.902 1980.01 294.902 Q1976.56 294.902 1974.57 297.101 Q1972.58 299.3 1972.58 303.096 L1972.58 317.749 L1968.29 317.749 L1968.29 291.823 L1972.58 291.823 L1972.58 295.851 Q1974.1 293.513 1976.16 292.355 Q1978.25 291.198 1980.95 291.198 Q1985.42 291.198 1987.71 293.976 Q1990.01 296.73 1990.01 302.101 Z" fill="#000000" fill-rule="nonzero" fill-opacity="1" /><path clip-path="url(#clip180)" d="M2002.71 284.462 L2002.71 291.823 L2011.49 291.823 L2011.49 295.133 L2002.71 295.133 L2002.71 309.207 Q2002.71 312.378 2003.57 313.281 Q2004.45 314.184 2007.11 314.184 L2011.49 314.184 L2011.49 317.749 L2007.11 317.749 Q2002.18 317.749 2000.31 315.92 Q1998.43 314.068 1998.43 309.207 L1998.43 295.133 L1995.31 295.133 L1995.31 291.823 L1998.43 291.823 L1998.43 284.462 L2002.71 284.462 Z" fill="#000000" fill-rule="nonzero" fill-opacity="1" /><path clip-path="url(#clip180)" d="M2027.32 281.777 Q2024.22 287.101 2022.71 292.309 Q2021.21 297.517 2021.21 302.864 Q2021.21 308.212 2022.71 313.466 Q2024.24 318.698 2027.32 323.999 L2023.62 323.999 Q2020.14 318.559 2018.41 313.304 Q2016.7 308.05 2016.7 302.864 Q2016.7 297.702 2018.41 292.471 Q2020.12 287.24 2023.62 281.777 L2027.32 281.777 Z" fill="#000000" fill-rule="nonzero" fill-opacity="1" /><path clip-path="url(#clip180)" d="M2052.11 292.587 L2052.11 296.614 Q2050.31 295.689 2048.36 295.226 Q2046.42 294.763 2044.33 294.763 Q2041.16 294.763 2039.57 295.735 Q2037.99 296.707 2037.99 298.651 Q2037.99 300.133 2039.13 300.989 Q2040.26 301.823 2043.69 302.587 L2045.14 302.911 Q2049.68 303.883 2051.58 305.665 Q2053.5 307.425 2053.5 310.596 Q2053.5 314.207 2050.63 316.313 Q2047.78 318.42 2042.78 318.42 Q2040.7 318.42 2038.43 318.003 Q2036.19 317.61 2033.69 316.8 L2033.69 312.401 Q2036.05 313.628 2038.34 314.253 Q2040.63 314.855 2042.88 314.855 Q2045.89 314.855 2047.51 313.837 Q2049.13 312.795 2049.13 310.92 Q2049.13 309.184 2047.95 308.258 Q2046.79 307.332 2042.83 306.476 L2041.35 306.128 Q2037.39 305.295 2035.63 303.582 Q2033.87 301.846 2033.87 298.837 Q2033.87 295.179 2036.46 293.189 Q2039.06 291.198 2043.82 291.198 Q2046.19 291.198 2048.27 291.545 Q2050.35 291.892 2052.11 292.587 Z" fill="#000000" fill-rule="nonzero" fill-opacity="1" /><path clip-path="url(#clip180)" d="M2059.61 281.777 L2063.32 281.777 Q2066.79 287.24 2068.5 292.471 Q2070.24 297.702 2070.24 302.864 Q2070.24 308.05 2068.5 313.304 Q2066.79 318.559 2063.32 323.999 L2059.61 323.999 Q2062.69 318.698 2064.2 313.466 Q2065.72 308.212 2065.72 302.864 Q2065.72 297.517 2064.2 292.309 Q2062.69 287.101 2059.61 281.777 Z" fill="#000000" fill-rule="nonzero" fill-opacity="1" /></svg>
