<?xml version="1.0" encoding="utf-8"?>
<svg xmlns="http://www.w3.org/2000/svg" xmlns:xlink="http://www.w3.org/1999/xlink" width="600" height="400" viewBox="0 0 2400 1600">
<defs>
  <clipPath id="clip100">
    <rect x="0" y="0" width="2400" height="1600"/>
  </clipPath>
</defs>
<path clip-path="url(#clip100)" d="M0 1600 L2400 1600 L2400 0 L0 0  Z" fill="#ffffff" fill-rule="evenodd" fill-opacity="1"/>
<defs>
  <clipPath id="clip101">
    <rect x="480" y="0" width="1681" height="1600"/>
  </clipPath>
</defs>
<path clip-path="url(#clip100)" d="M272.297 680.645 L1195.77 680.645 L1195.77 123.472 L272.297 123.472  Z" fill="#ffffff" fill-rule="evenodd" fill-opacity="1"/>
<defs>
  <clipPath id="clip102">
    <rect x="272" y="123" width="924" height="558"/>
  </clipPath>
</defs>
<polyline clip-path="url(#clip102)" style="stroke:#000000; stroke-linecap:round; stroke-linejoin:round; stroke-width:2; stroke-opacity:0.1; fill:none" points="646.912,680.645 646.912,123.472 "/>
<polyline clip-path="url(#clip102)" style="stroke:#000000; stroke-linecap:round; stroke-linejoin:round; stroke-width:2; stroke-opacity:0.1; fill:none" points="1169.63,680.645 1169.63,123.472 "/>
<polyline clip-path="url(#clip102)" style="stroke:#000000; stroke-linecap:round; stroke-linejoin:round; stroke-width:2; stroke-opacity:0.1; fill:none" points="272.297,518.602 1195.77,518.602 "/>
<polyline clip-path="url(#clip102)" style="stroke:#000000; stroke-linecap:round; stroke-linejoin:round; stroke-width:2; stroke-opacity:0.1; fill:none" points="272.297,247.629 1195.77,247.629 "/>
<polyline clip-path="url(#clip100)" style="stroke:#000000; stroke-linecap:round; stroke-linejoin:round; stroke-width:4; stroke-opacity:1; fill:none" points="272.297,680.645 1195.77,680.645 "/>
<polyline clip-path="url(#clip100)" style="stroke:#000000; stroke-linecap:round; stroke-linejoin:round; stroke-width:4; stroke-opacity:1; fill:none" points="646.912,680.645 646.912,661.747 "/>
<polyline clip-path="url(#clip100)" style="stroke:#000000; stroke-linecap:round; stroke-linejoin:round; stroke-width:4; stroke-opacity:1; fill:none" points="1169.63,680.645 1169.63,661.747 "/>
<path clip-path="url(#clip100)" d="M611.895 754.77 L619.534 754.77 L619.534 728.404 L611.224 730.071 L611.224 725.811 L619.487 724.145 L624.163 724.145 L624.163 754.77 L631.802 754.77 L631.802 758.705 L611.895 758.705 L611.895 754.77 Z" fill="#000000" fill-rule="nonzero" fill-opacity="1" /><path clip-path="url(#clip100)" d="M651.246 727.223 Q647.635 727.223 645.807 730.788 Q644.001 734.33 644.001 741.459 Q644.001 748.566 645.807 752.131 Q647.635 755.672 651.246 755.672 Q654.881 755.672 656.686 752.131 Q658.515 748.566 658.515 741.459 Q658.515 734.33 656.686 730.788 Q654.881 727.223 651.246 727.223 M651.246 723.52 Q657.057 723.52 660.112 728.126 Q663.191 732.709 663.191 741.459 Q663.191 750.186 660.112 754.793 Q657.057 759.376 651.246 759.376 Q645.436 759.376 642.358 754.793 Q639.302 750.186 639.302 741.459 Q639.302 732.709 642.358 728.126 Q645.436 723.52 651.246 723.52 Z" fill="#000000" fill-rule="nonzero" fill-opacity="1" /><path clip-path="url(#clip100)" d="M672.896 705.716 Q669.962 705.716 668.476 708.612 Q667.009 711.49 667.009 717.282 Q667.009 723.056 668.476 725.953 Q669.962 728.83 672.896 728.83 Q675.848 728.83 677.315 725.953 Q678.801 723.056 678.801 717.282 Q678.801 711.49 677.315 708.612 Q675.848 705.716 672.896 705.716 M672.896 702.706 Q677.616 702.706 680.099 706.449 Q682.6 710.173 682.6 717.282 Q682.6 724.373 680.099 728.116 Q677.616 731.84 672.896 731.84 Q668.175 731.84 665.673 728.116 Q663.191 724.373 663.191 717.282 Q663.191 710.173 665.673 706.449 Q668.175 702.706 672.896 702.706 Z" fill="#000000" fill-rule="nonzero" fill-opacity="1" /><path clip-path="url(#clip100)" d="M1135.07 754.77 L1142.71 754.77 L1142.71 728.404 L1134.4 730.071 L1134.4 725.811 L1142.67 724.145 L1147.34 724.145 L1147.34 754.77 L1154.98 754.77 L1154.98 758.705 L1135.07 758.705 L1135.07 754.77 Z" fill="#000000" fill-rule="nonzero" fill-opacity="1" /><path clip-path="url(#clip100)" d="M1174.43 727.223 Q1170.82 727.223 1168.99 730.788 Q1167.18 734.33 1167.18 741.459 Q1167.18 748.566 1168.99 752.131 Q1170.82 755.672 1174.43 755.672 Q1178.06 755.672 1179.87 752.131 Q1181.69 748.566 1181.69 741.459 Q1181.69 734.33 1179.87 730.788 Q1178.06 727.223 1174.43 727.223 M1174.43 723.52 Q1180.24 723.52 1183.29 728.126 Q1186.37 732.709 1186.37 741.459 Q1186.37 750.186 1183.29 754.793 Q1180.24 759.376 1174.43 759.376 Q1168.62 759.376 1165.54 754.793 Q1162.48 750.186 1162.48 741.459 Q1162.48 732.709 1165.54 728.126 Q1168.62 723.52 1174.43 723.52 Z" fill="#000000" fill-rule="nonzero" fill-opacity="1" /><path clip-path="url(#clip100)" d="M1199.07 716.154 Q1201.79 716.737 1203.32 718.58 Q1204.86 720.423 1204.86 723.132 Q1204.86 727.288 1202 729.564 Q1199.14 731.84 1193.88 731.84 Q1192.11 731.84 1190.23 731.482 Q1188.36 731.144 1186.37 730.448 L1186.37 726.78 Q1187.95 727.702 1189.83 728.172 Q1191.71 728.642 1193.76 728.642 Q1197.34 728.642 1199.2 727.232 Q1201.08 725.821 1201.08 723.132 Q1201.08 720.649 1199.33 719.257 Q1197.6 717.847 1194.5 717.847 L1191.22 717.847 L1191.22 714.725 L1194.65 714.725 Q1197.45 714.725 1198.93 713.615 Q1200.42 712.487 1200.42 710.38 Q1200.42 708.217 1198.88 707.07 Q1197.35 705.904 1194.5 705.904 Q1192.93 705.904 1191.15 706.242 Q1189.36 706.581 1187.22 707.296 L1187.22 703.91 Q1189.38 703.308 1191.26 703.007 Q1193.16 702.706 1194.83 702.706 Q1199.16 702.706 1201.68 704.681 Q1204.2 706.637 1204.2 709.985 Q1204.2 712.317 1202.87 713.935 Q1201.53 715.533 1199.07 716.154 Z" fill="#000000" fill-rule="nonzero" fill-opacity="1" /><polyline clip-path="url(#clip100)" style="stroke:#000000; stroke-linecap:round; stroke-linejoin:round; stroke-width:4; stroke-opacity:1; fill:none" points="272.297,680.645 272.297,123.472 "/>
<polyline clip-path="url(#clip100)" style="stroke:#000000; stroke-linecap:round; stroke-linejoin:round; stroke-width:4; stroke-opacity:1; fill:none" points="272.297,518.602 291.194,518.602 "/>
<polyline clip-path="url(#clip100)" style="stroke:#000000; stroke-linecap:round; stroke-linejoin:round; stroke-width:4; stroke-opacity:1; fill:none" points="272.297,247.629 291.194,247.629 "/>
<path clip-path="url(#clip100)" d="M135.668 538.394 L143.307 538.394 L143.307 512.028 L134.996 513.695 L134.996 509.436 L143.26 507.769 L147.936 507.769 L147.936 538.394 L155.575 538.394 L155.575 542.329 L135.668 542.329 L135.668 538.394 Z" fill="#000000" fill-rule="nonzero" fill-opacity="1" /><path clip-path="url(#clip100)" d="M175.019 510.848 Q171.408 510.848 169.58 514.413 Q167.774 517.954 167.774 525.084 Q167.774 532.19 169.58 535.755 Q171.408 539.297 175.019 539.297 Q178.654 539.297 180.459 535.755 Q182.288 532.19 182.288 525.084 Q182.288 517.954 180.459 514.413 Q178.654 510.848 175.019 510.848 M175.019 507.144 Q180.83 507.144 183.885 511.751 Q186.964 516.334 186.964 525.084 Q186.964 533.811 183.885 538.417 Q180.83 543 175.019 543 Q169.209 543 166.131 538.417 Q163.075 533.811 163.075 525.084 Q163.075 516.334 166.131 511.751 Q169.209 507.144 175.019 507.144 Z" fill="#000000" fill-rule="nonzero" fill-opacity="1" /><path clip-path="url(#clip100)" d="M186.964 501.246 L211.075 501.246 L211.075 504.443 L186.964 504.443 L186.964 501.246 Z" fill="#000000" fill-rule="nonzero" fill-opacity="1" /><path clip-path="url(#clip100)" d="M219.313 486.839 L234.228 486.839 L234.228 490.036 L222.793 490.036 L222.793 496.92 Q223.62 496.638 224.448 496.506 Q225.275 496.355 226.103 496.355 Q230.805 496.355 233.551 498.932 Q236.297 501.509 236.297 505.91 Q236.297 510.443 233.475 512.963 Q230.654 515.464 225.52 515.464 Q223.752 515.464 221.909 515.163 Q220.084 514.862 218.128 514.26 L218.128 510.443 Q219.821 511.364 221.626 511.815 Q223.432 512.267 225.444 512.267 Q228.698 512.267 230.598 510.555 Q232.497 508.844 232.497 505.91 Q232.497 502.976 230.598 501.264 Q228.698 499.553 225.444 499.553 Q223.921 499.553 222.398 499.891 Q220.893 500.23 219.313 500.945 L219.313 486.839 Z" fill="#000000" fill-rule="nonzero" fill-opacity="1" /><path clip-path="url(#clip100)" d="M165.591 267.421 L173.23 267.421 L173.23 241.056 L164.92 242.722 L164.92 238.463 L173.183 236.797 L177.859 236.797 L177.859 267.421 L185.498 267.421 L185.498 271.357 L165.591 271.357 L165.591 267.421 Z" fill="#000000" fill-rule="nonzero" fill-opacity="1" /><path clip-path="url(#clip100)" d="M204.943 239.875 Q201.331 239.875 199.503 243.44 Q197.697 246.982 197.697 254.111 Q197.697 261.218 199.503 264.783 Q201.331 268.324 204.943 268.324 Q208.577 268.324 210.382 264.783 Q212.211 261.218 212.211 254.111 Q212.211 246.982 210.382 243.44 Q208.577 239.875 204.943 239.875 M204.943 236.172 Q210.753 236.172 213.808 240.778 Q216.887 245.361 216.887 254.111 Q216.887 262.838 213.808 267.445 Q210.753 272.028 204.943 272.028 Q199.132 272.028 196.054 267.445 Q192.998 262.838 192.998 254.111 Q192.998 245.361 196.054 240.778 Q199.132 236.172 204.943 236.172 Z" fill="#000000" fill-rule="nonzero" fill-opacity="1" /><path clip-path="url(#clip100)" d="M226.592 218.368 Q223.658 218.368 222.172 221.264 Q220.705 224.142 220.705 229.934 Q220.705 235.708 222.172 238.605 Q223.658 241.482 226.592 241.482 Q229.545 241.482 231.012 238.605 Q232.497 235.708 232.497 229.934 Q232.497 224.142 231.012 221.264 Q229.545 218.368 226.592 218.368 M226.592 215.358 Q231.312 215.358 233.795 219.101 Q236.297 222.825 236.297 229.934 Q236.297 237.025 233.795 240.768 Q231.312 244.492 226.592 244.492 Q221.871 244.492 219.37 240.768 Q216.887 237.025 216.887 229.934 Q216.887 222.825 219.37 219.101 Q221.871 215.358 226.592 215.358 Z" fill="#000000" fill-rule="nonzero" fill-opacity="1" /><path clip-path="url(#clip100)" d="M37.2204 581.89 L37.2204 572.309 L69.5582 560.183 L37.2204 547.992 L37.2204 538.412 L84.7404 538.412 L84.7404 544.682 L43.0132 544.682 L75.6057 556.936 L75.6057 563.397 L43.0132 575.651 L84.7404 575.651 L84.7404 581.89 L37.2204 581.89 Z" fill="#000000" fill-rule="nonzero" fill-opacity="1" /><path clip-path="url(#clip100)" d="M66.821 509.702 Q66.821 516.8 68.4442 519.538 Q70.0675 522.275 73.9824 522.275 Q77.1016 522.275 78.9477 520.238 Q80.7619 518.169 80.7619 514.636 Q80.7619 509.766 77.3244 506.838 Q73.8551 503.878 68.126 503.878 L66.821 503.878 L66.821 509.702 M64.402 498.021 L84.7404 498.021 L84.7404 503.878 L79.3296 503.878 Q82.5761 505.883 84.1357 508.875 Q85.6635 511.867 85.6635 516.196 Q85.6635 521.67 82.6079 524.917 Q79.5206 528.131 74.3643 528.131 Q68.3488 528.131 65.2932 524.121 Q62.2377 520.079 62.2377 512.09 L62.2377 503.878 L61.6648 503.878 Q57.6225 503.878 55.4264 506.551 Q53.1984 509.193 53.1984 513.999 Q53.1984 517.055 53.9304 519.951 Q54.6625 522.848 56.1266 525.521 L50.7157 525.521 Q49.4744 522.307 48.8697 519.283 Q48.2331 516.259 48.2331 513.395 Q48.2331 505.66 52.2435 501.841 Q56.2539 498.021 64.402 498.021 Z" fill="#000000" fill-rule="nonzero" fill-opacity="1" /><path clip-path="url(#clip100)" d="M66.5027 462.501 Q60.137 462.501 56.6359 465.143 Q53.1347 467.752 53.1347 472.495 Q53.1347 477.206 56.6359 479.847 Q60.137 482.457 66.5027 482.457 Q72.8366 482.457 76.3377 479.847 Q79.8389 477.206 79.8389 472.495 Q79.8389 467.752 76.3377 465.143 Q72.8366 462.501 66.5027 462.501 M80.3163 456.644 Q89.4192 456.644 93.8434 460.687 Q98.2994 464.729 98.2994 473.068 Q98.2994 476.155 97.822 478.892 Q97.3764 481.63 96.4215 484.208 L90.7242 484.208 Q92.1247 481.63 92.7931 479.115 Q93.4615 476.601 93.4615 473.991 Q93.4615 468.23 90.4378 465.365 Q87.4459 462.501 81.3666 462.501 L78.4702 462.501 Q81.6213 464.315 83.1808 467.148 Q84.7404 469.98 84.7404 473.927 Q84.7404 480.484 79.7434 484.494 Q74.7463 488.505 66.5027 488.505 Q58.2273 488.505 53.2302 484.494 Q48.2331 480.484 48.2331 473.927 Q48.2331 469.98 49.7927 467.148 Q51.3523 464.315 54.5033 462.501 L49.0925 462.501 L49.0925 456.644 L80.3163 456.644 Z" fill="#000000" fill-rule="nonzero" fill-opacity="1" /><path clip-path="url(#clip100)" d="M63.2244 414.949 L84.7404 414.949 L84.7404 420.805 L63.4153 420.805 Q58.3546 420.805 55.8401 422.779 Q53.3257 424.752 53.3257 428.699 Q53.3257 433.441 56.3494 436.179 Q59.3731 438.916 64.593 438.916 L84.7404 438.916 L84.7404 444.804 L49.0925 444.804 L49.0925 438.916 L54.6307 438.916 Q51.416 436.815 49.8245 433.982 Q48.2331 431.118 48.2331 427.394 Q48.2331 421.251 52.0525 418.1 Q55.8401 414.949 63.2244 414.949 Z" fill="#000000" fill-rule="nonzero" fill-opacity="1" /><path clip-path="url(#clip100)" d="M49.0925 403.268 L49.0925 397.411 L84.7404 397.411 L84.7404 403.268 L49.0925 403.268 M35.2152 403.268 L35.2152 397.411 L42.6313 397.411 L42.6313 403.268 L35.2152 403.268 Z" fill="#000000" fill-rule="nonzero" fill-opacity="1" /><path clip-path="url(#clip100)" d="M38.971 379.365 L49.0925 379.365 L49.0925 367.302 L53.644 367.302 L53.644 379.365 L72.9957 379.365 Q77.3562 379.365 78.5975 378.187 Q79.8389 376.978 79.8389 373.317 L79.8389 367.302 L84.7404 367.302 L84.7404 373.317 Q84.7404 380.097 82.226 382.675 Q79.6797 385.253 72.9957 385.253 L53.644 385.253 L53.644 389.55 L49.0925 389.55 L49.0925 385.253 L38.971 385.253 L38.971 379.365 Z" fill="#000000" fill-rule="nonzero" fill-opacity="1" /><path clip-path="url(#clip100)" d="M70.6722 360.204 L49.0925 360.204 L49.0925 354.347 L70.4494 354.347 Q75.5102 354.347 78.0565 352.374 Q80.5709 350.401 80.5709 346.454 Q80.5709 341.712 77.5472 338.974 Q74.5235 336.205 69.3036 336.205 L49.0925 336.205 L49.0925 330.349 L84.7404 330.349 L84.7404 336.205 L79.2659 336.205 Q82.5124 338.338 84.1039 341.17 Q85.6635 343.971 85.6635 347.695 Q85.6635 353.838 81.8441 357.021 Q78.0246 360.204 70.6722 360.204 M48.2331 345.467 L48.2331 345.467 Z" fill="#000000" fill-rule="nonzero" fill-opacity="1" /><path clip-path="url(#clip100)" d="M54.5033 294.828 L35.2152 294.828 L35.2152 288.972 L84.7404 288.972 L84.7404 294.828 L79.3933 294.828 Q82.5761 296.674 84.1357 299.507 Q85.6635 302.308 85.6635 306.255 Q85.6635 312.716 80.5073 316.79 Q75.351 320.832 66.9483 320.832 Q58.5456 320.832 53.3893 316.79 Q48.2331 312.716 48.2331 306.255 Q48.2331 302.308 49.7927 299.507 Q51.3205 296.674 54.5033 294.828 M66.9483 314.785 Q73.4095 314.785 77.1016 312.143 Q80.7619 309.469 80.7619 304.822 Q80.7619 300.175 77.1016 297.502 Q73.4095 294.828 66.9483 294.828 Q60.4871 294.828 56.8268 297.502 Q53.1347 300.175 53.1347 304.822 Q53.1347 309.469 56.8268 312.143 Q60.4871 314.785 66.9483 314.785 Z" fill="#000000" fill-rule="nonzero" fill-opacity="1" /><path clip-path="url(#clip100)" d="M65.4524 246.417 L68.3169 246.417 L68.3169 273.344 Q74.3643 272.962 77.5472 269.715 Q80.6982 266.437 80.6982 260.612 Q80.6982 257.239 79.8707 254.088 Q79.0431 250.905 77.3881 247.785 L82.9262 247.785 Q84.263 250.937 84.9632 254.247 Q85.6635 257.557 85.6635 260.963 Q85.6635 269.493 80.6982 274.49 Q75.733 279.455 67.2666 279.455 Q58.5137 279.455 53.3893 274.744 Q48.2331 270.002 48.2331 261.981 Q48.2331 254.788 52.8801 250.618 Q57.4952 246.417 65.4524 246.417 M63.7336 252.273 Q58.9275 252.337 56.0629 254.979 Q53.1984 257.589 53.1984 261.917 Q53.1984 266.819 55.9675 269.779 Q58.7365 272.707 63.7654 273.153 L63.7336 252.273 Z" fill="#000000" fill-rule="nonzero" fill-opacity="1" /><polyline clip-path="url(#clip102)" style="stroke:#000000; stroke-linecap:round; stroke-linejoin:round; stroke-width:4; stroke-opacity:1; fill:none" points="298.433,139.241 515.578,207.141 597.553,235.109 662.958,263.58 736.212,304.549 829.524,364.515 866.151,391.101 901.033,418.904 980.392,488.973 1169.63,664.876 "/>
<path clip-path="url(#clip100)" d="M949.305 245.725 L1164.98 245.725 L1164.98 142.045 L949.305 142.045  Z" fill="#ffffff" fill-rule="evenodd" fill-opacity="1"/>
<polyline clip-path="url(#clip100)" style="stroke:#000000; stroke-linecap:round; stroke-linejoin:round; stroke-width:4; stroke-opacity:1; fill:none" points="949.305,245.725 1164.98,245.725 1164.98,142.045 949.305,142.045 949.305,245.725 "/>
<polyline clip-path="url(#clip100)" style="stroke:#000000; stroke-linecap:round; stroke-linejoin:round; stroke-width:4; stroke-opacity:1; fill:none" points="959.566,193.885 1021.13,193.885 "/>
<path clip-path="url(#clip100)" d="M1031.39 200.933 L1031.39 185.239 L1035.65 185.239 L1035.65 200.771 Q1035.65 204.452 1037.09 206.303 Q1038.52 208.132 1041.39 208.132 Q1044.84 208.132 1046.83 205.933 Q1048.84 203.734 1048.84 199.938 L1048.84 185.239 L1053.1 185.239 L1053.1 211.165 L1048.84 211.165 L1048.84 207.183 Q1047.29 209.544 1045.23 210.702 Q1043.2 211.836 1040.49 211.836 Q1036.02 211.836 1033.71 209.058 Q1031.39 206.28 1031.39 200.933 M1042.11 184.614 L1042.11 184.614 Z" fill="#000000" fill-rule="nonzero" fill-opacity="1" /><path clip-path="url(#clip100)" d="M1109.89 195.262 L1109.89 197.345 L1100.79 206.442 L1098.01 203.665 L1103.4 198.271 L1075.19 198.271 L1075.19 194.336 L1103.4 194.336 L1098.01 188.942 L1100.79 186.165 L1109.89 195.262 Z" fill="#000000" fill-rule="nonzero" fill-opacity="1" /><path clip-path="url(#clip100)" d="M1152.64 177.739 L1152.64 182.299 Q1149.98 181.026 1147.62 180.401 Q1145.26 179.776 1143.06 179.776 Q1139.24 179.776 1137.15 181.257 Q1135.09 182.739 1135.09 185.47 Q1135.09 187.762 1136.46 188.942 Q1137.85 190.1 1141.69 190.817 L1144.52 191.396 Q1149.75 192.391 1152.22 194.915 Q1154.72 197.415 1154.72 201.628 Q1154.72 206.651 1151.34 209.243 Q1147.99 211.836 1141.48 211.836 Q1139.03 211.836 1136.25 211.28 Q1133.5 210.725 1130.53 209.637 L1130.53 204.822 Q1133.38 206.419 1136.11 207.229 Q1138.84 208.04 1141.48 208.04 Q1145.49 208.04 1147.66 206.465 Q1149.84 204.891 1149.84 201.975 Q1149.84 199.428 1148.27 197.993 Q1146.71 196.558 1143.15 195.841 L1140.3 195.285 Q1135.07 194.243 1132.73 192.021 Q1130.4 189.799 1130.4 185.841 Q1130.4 181.257 1133.61 178.618 Q1136.85 175.98 1142.53 175.98 Q1144.96 175.98 1147.48 176.419 Q1150 176.859 1152.64 177.739 Z" fill="#000000" fill-rule="nonzero" fill-opacity="1" /><path clip-path="url(#clip100)" d="M272.297 1410.9 L1195.77 1410.9 L1195.77 853.724 L272.297 853.724  Z" fill="#ffffff" fill-rule="evenodd" fill-opacity="1"/>
<defs>
  <clipPath id="clip103">
    <rect x="272" y="853" width="924" height="558"/>
  </clipPath>
</defs>
<polyline clip-path="url(#clip103)" style="stroke:#000000; stroke-linecap:round; stroke-linejoin:round; stroke-width:2; stroke-opacity:0.1; fill:none" points="646.912,1410.9 646.912,853.724 "/>
<polyline clip-path="url(#clip103)" style="stroke:#000000; stroke-linecap:round; stroke-linejoin:round; stroke-width:2; stroke-opacity:0.1; fill:none" points="1169.63,1410.9 1169.63,853.724 "/>
<polyline clip-path="url(#clip103)" style="stroke:#000000; stroke-linecap:round; stroke-linejoin:round; stroke-width:2; stroke-opacity:0.1; fill:none" points="272.297,1339.68 1195.77,1339.68 "/>
<polyline clip-path="url(#clip103)" style="stroke:#000000; stroke-linecap:round; stroke-linejoin:round; stroke-width:2; stroke-opacity:0.1; fill:none" points="272.297,1192.19 1195.77,1192.19 "/>
<polyline clip-path="url(#clip103)" style="stroke:#000000; stroke-linecap:round; stroke-linejoin:round; stroke-width:2; stroke-opacity:0.1; fill:none" points="272.297,1044.7 1195.77,1044.7 "/>
<polyline clip-path="url(#clip103)" style="stroke:#000000; stroke-linecap:round; stroke-linejoin:round; stroke-width:2; stroke-opacity:0.1; fill:none" points="272.297,897.216 1195.77,897.216 "/>
<polyline clip-path="url(#clip100)" style="stroke:#000000; stroke-linecap:round; stroke-linejoin:round; stroke-width:4; stroke-opacity:1; fill:none" points="272.297,1410.9 1195.77,1410.9 "/>
<polyline clip-path="url(#clip100)" style="stroke:#000000; stroke-linecap:round; stroke-linejoin:round; stroke-width:4; stroke-opacity:1; fill:none" points="646.912,1410.9 646.912,1392 "/>
<polyline clip-path="url(#clip100)" style="stroke:#000000; stroke-linecap:round; stroke-linejoin:round; stroke-width:4; stroke-opacity:1; fill:none" points="1169.63,1410.9 1169.63,1392 "/>
<path clip-path="url(#clip100)" d="M611.895 1485.02 L619.534 1485.02 L619.534 1458.66 L611.224 1460.32 L611.224 1456.06 L619.487 1454.4 L624.163 1454.4 L624.163 1485.02 L631.802 1485.02 L631.802 1488.96 L611.895 1488.96 L611.895 1485.02 Z" fill="#000000" fill-rule="nonzero" fill-opacity="1" /><path clip-path="url(#clip100)" d="M651.246 1457.48 Q647.635 1457.48 645.807 1461.04 Q644.001 1464.58 644.001 1471.71 Q644.001 1478.82 645.807 1482.38 Q647.635 1485.92 651.246 1485.92 Q654.881 1485.92 656.686 1482.38 Q658.515 1478.82 658.515 1471.71 Q658.515 1464.58 656.686 1461.04 Q654.881 1457.48 651.246 1457.48 M651.246 1453.77 Q657.057 1453.77 660.112 1458.38 Q663.191 1462.96 663.191 1471.71 Q663.191 1480.44 660.112 1485.04 Q657.057 1489.63 651.246 1489.63 Q645.436 1489.63 642.358 1485.04 Q639.302 1480.44 639.302 1471.71 Q639.302 1462.96 642.358 1458.38 Q645.436 1453.77 651.246 1453.77 Z" fill="#000000" fill-rule="nonzero" fill-opacity="1" /><path clip-path="url(#clip100)" d="M672.896 1435.97 Q669.962 1435.97 668.476 1438.86 Q667.009 1441.74 667.009 1447.53 Q667.009 1453.31 668.476 1456.2 Q669.962 1459.08 672.896 1459.08 Q675.848 1459.08 677.315 1456.2 Q678.801 1453.31 678.801 1447.53 Q678.801 1441.74 677.315 1438.86 Q675.848 1435.97 672.896 1435.97 M672.896 1432.96 Q677.616 1432.96 680.099 1436.7 Q682.6 1440.43 682.6 1447.53 Q682.6 1454.62 680.099 1458.37 Q677.616 1462.09 672.896 1462.09 Q668.175 1462.09 665.673 1458.37 Q663.191 1454.62 663.191 1447.53 Q663.191 1440.43 665.673 1436.7 Q668.175 1432.96 672.896 1432.96 Z" fill="#000000" fill-rule="nonzero" fill-opacity="1" /><path clip-path="url(#clip100)" d="M1135.07 1485.02 L1142.71 1485.02 L1142.71 1458.66 L1134.4 1460.32 L1134.4 1456.06 L1142.67 1454.4 L1147.34 1454.4 L1147.34 1485.02 L1154.98 1485.02 L1154.98 1488.96 L1135.07 1488.96 L1135.07 1485.02 Z" fill="#000000" fill-rule="nonzero" fill-opacity="1" /><path clip-path="url(#clip100)" d="M1174.43 1457.48 Q1170.82 1457.48 1168.99 1461.04 Q1167.18 1464.58 1167.18 1471.71 Q1167.18 1478.82 1168.99 1482.38 Q1170.82 1485.92 1174.43 1485.92 Q1178.06 1485.92 1179.87 1482.38 Q1181.69 1478.82 1181.69 1471.71 Q1181.69 1464.58 1179.87 1461.04 Q1178.06 1457.48 1174.43 1457.48 M1174.43 1453.77 Q1180.24 1453.77 1183.29 1458.38 Q1186.37 1462.96 1186.37 1471.71 Q1186.37 1480.44 1183.29 1485.04 Q1180.24 1489.63 1174.43 1489.63 Q1168.62 1489.63 1165.54 1485.04 Q1162.48 1480.44 1162.48 1471.71 Q1162.48 1462.96 1165.54 1458.38 Q1168.62 1453.77 1174.43 1453.77 Z" fill="#000000" fill-rule="nonzero" fill-opacity="1" /><path clip-path="url(#clip100)" d="M1199.07 1446.41 Q1201.79 1446.99 1203.32 1448.83 Q1204.86 1450.68 1204.86 1453.38 Q1204.86 1457.54 1202 1459.82 Q1199.14 1462.09 1193.88 1462.09 Q1192.11 1462.09 1190.23 1461.73 Q1188.36 1461.4 1186.37 1460.7 L1186.37 1457.03 Q1187.95 1457.95 1189.83 1458.42 Q1191.71 1458.89 1193.76 1458.89 Q1197.34 1458.89 1199.2 1457.48 Q1201.08 1456.07 1201.08 1453.38 Q1201.08 1450.9 1199.33 1449.51 Q1197.6 1448.1 1194.5 1448.1 L1191.22 1448.1 L1191.22 1444.98 L1194.65 1444.98 Q1197.45 1444.98 1198.93 1443.87 Q1200.42 1442.74 1200.42 1440.63 Q1200.42 1438.47 1198.88 1437.32 Q1197.35 1436.16 1194.5 1436.16 Q1192.93 1436.16 1191.15 1436.49 Q1189.36 1436.83 1187.22 1437.55 L1187.22 1434.16 Q1189.38 1433.56 1191.26 1433.26 Q1193.16 1432.96 1194.83 1432.96 Q1199.16 1432.96 1201.68 1434.93 Q1204.2 1436.89 1204.2 1440.24 Q1204.2 1442.57 1202.87 1444.19 Q1201.53 1445.79 1199.07 1446.41 Z" fill="#000000" fill-rule="nonzero" fill-opacity="1" /><path clip-path="url(#clip100)" d="M453.845 1526.67 L481.154 1526.67 L481.154 1532.08 L460.275 1532.08 L460.275 1546.08 L479.117 1546.08 L479.117 1551.49 L460.275 1551.49 L460.275 1574.19 L453.845 1574.19 L453.845 1526.67 Z" fill="#000000" fill-rule="nonzero" fill-opacity="1" /><path clip-path="url(#clip100)" d="M506.999 1544.01 Q506.012 1543.44 504.835 1543.18 Q503.689 1542.9 502.288 1542.9 Q497.323 1542.9 494.649 1546.14 Q492.008 1549.36 492.008 1555.41 L492.008 1574.19 L486.119 1574.19 L486.119 1538.54 L492.008 1538.54 L492.008 1544.08 Q493.854 1540.83 496.814 1539.27 Q499.774 1537.68 504.007 1537.68 Q504.612 1537.68 505.344 1537.77 Q506.076 1537.84 506.967 1538 L506.999 1544.01 Z" fill="#000000" fill-rule="nonzero" fill-opacity="1" /><path clip-path="url(#clip100)" d="M542.201 1554.9 L542.201 1557.76 L515.274 1557.76 Q515.656 1563.81 518.903 1566.99 Q522.181 1570.14 528.006 1570.14 Q531.38 1570.14 534.531 1569.32 Q537.713 1568.49 540.833 1566.83 L540.833 1572.37 Q537.682 1573.71 534.371 1574.41 Q531.061 1575.11 527.656 1575.11 Q519.126 1575.11 514.129 1570.14 Q509.163 1565.18 509.163 1556.71 Q509.163 1547.96 513.874 1542.83 Q518.616 1537.68 526.637 1537.68 Q533.83 1537.68 538 1542.33 Q542.201 1546.94 542.201 1554.9 M536.345 1553.18 Q536.281 1548.37 533.639 1545.51 Q531.029 1542.64 526.701 1542.64 Q521.799 1542.64 518.839 1545.41 Q515.911 1548.18 515.465 1553.21 L536.345 1553.18 Z" fill="#000000" fill-rule="nonzero" fill-opacity="1" /><path clip-path="url(#clip100)" d="M555.315 1556.39 Q555.315 1562.85 557.956 1566.55 Q560.63 1570.21 565.277 1570.21 Q569.924 1570.21 572.598 1566.55 Q575.271 1562.85 575.271 1556.39 Q575.271 1549.93 572.598 1546.27 Q569.924 1542.58 565.277 1542.58 Q560.63 1542.58 557.956 1546.27 Q555.315 1549.93 555.315 1556.39 M575.271 1568.84 Q573.425 1572.02 570.592 1573.58 Q567.791 1575.11 563.845 1575.11 Q557.383 1575.11 553.309 1569.95 Q549.267 1564.8 549.267 1556.39 Q549.267 1547.99 553.309 1542.83 Q557.383 1537.68 563.845 1537.68 Q567.791 1537.68 570.592 1539.24 Q573.425 1540.77 575.271 1543.95 L575.271 1538.54 L581.128 1538.54 L581.128 1587.74 L575.271 1587.74 L575.271 1568.84 Z" fill="#000000" fill-rule="nonzero" fill-opacity="1" /><path clip-path="url(#clip100)" d="M592.586 1560.12 L592.586 1538.54 L598.442 1538.54 L598.442 1559.89 Q598.442 1564.96 600.416 1567.5 Q602.389 1570.02 606.336 1570.02 Q611.078 1570.02 613.815 1566.99 Q616.585 1563.97 616.585 1558.75 L616.585 1538.54 L622.441 1538.54 L622.441 1574.19 L616.585 1574.19 L616.585 1568.71 Q614.452 1571.96 611.619 1573.55 Q608.818 1575.11 605.094 1575.11 Q598.952 1575.11 595.769 1571.29 Q592.586 1567.47 592.586 1560.12 M607.322 1537.68 L607.322 1537.68 Z" fill="#000000" fill-rule="nonzero" fill-opacity="1" /><path clip-path="url(#clip100)" d="M664.996 1554.9 L664.996 1557.76 L638.069 1557.76 Q638.451 1563.81 641.697 1566.99 Q644.976 1570.14 650.8 1570.14 Q654.174 1570.14 657.325 1569.32 Q660.508 1568.49 663.627 1566.83 L663.627 1572.37 Q660.476 1573.71 657.166 1574.41 Q653.856 1575.11 650.45 1575.11 Q641.92 1575.11 636.923 1570.14 Q631.958 1565.18 631.958 1556.71 Q631.958 1547.96 636.668 1542.83 Q641.411 1537.68 649.432 1537.68 Q656.625 1537.68 660.794 1542.33 Q664.996 1546.94 664.996 1554.9 M659.139 1553.18 Q659.076 1548.37 656.434 1545.51 Q653.824 1542.64 649.495 1542.64 Q644.594 1542.64 641.634 1545.41 Q638.705 1548.18 638.26 1553.21 L659.139 1553.18 Z" fill="#000000" fill-rule="nonzero" fill-opacity="1" /><path clip-path="url(#clip100)" d="M704.24 1552.67 L704.24 1574.19 L698.384 1574.19 L698.384 1552.86 Q698.384 1547.8 696.411 1545.29 Q694.437 1542.77 690.49 1542.77 Q685.748 1542.77 683.011 1545.79 Q680.273 1548.82 680.273 1554.04 L680.273 1574.19 L674.385 1574.19 L674.385 1538.54 L680.273 1538.54 L680.273 1544.08 Q682.374 1540.86 685.207 1539.27 Q688.071 1537.68 691.795 1537.68 Q697.938 1537.68 701.089 1541.5 Q704.24 1545.29 704.24 1552.67 Z" fill="#000000" fill-rule="nonzero" fill-opacity="1" /><path clip-path="url(#clip100)" d="M741.575 1539.91 L741.575 1545.38 Q739.093 1544.01 736.578 1543.34 Q734.096 1542.64 731.549 1542.64 Q725.852 1542.64 722.701 1546.27 Q719.55 1549.87 719.55 1556.39 Q719.55 1562.92 722.701 1566.55 Q725.852 1570.14 731.549 1570.14 Q734.096 1570.14 736.578 1569.47 Q739.093 1568.77 741.575 1567.41 L741.575 1572.82 Q739.124 1573.96 736.483 1574.54 Q733.873 1575.11 730.913 1575.11 Q722.86 1575.11 718.118 1570.05 Q713.375 1564.99 713.375 1556.39 Q713.375 1547.67 718.149 1542.68 Q722.956 1537.68 731.295 1537.68 Q734 1537.68 736.578 1538.25 Q739.156 1538.79 741.575 1539.91 Z" fill="#000000" fill-rule="nonzero" fill-opacity="1" /><path clip-path="url(#clip100)" d="M766.592 1577.5 Q764.11 1583.86 761.755 1585.8 Q759.399 1587.74 755.452 1587.74 L750.774 1587.74 L750.774 1582.84 L754.211 1582.84 Q756.63 1582.84 757.967 1581.7 Q759.304 1580.55 760.927 1576.29 L761.977 1573.61 L747.559 1538.54 L753.766 1538.54 L764.906 1566.42 L776.046 1538.54 L782.252 1538.54 L766.592 1577.5 Z" fill="#000000" fill-rule="nonzero" fill-opacity="1" /><path clip-path="url(#clip100)" d="M810.516 1524.66 L824.011 1524.66 L824.011 1529.21 L816.372 1529.21 L816.372 1578.23 L824.011 1578.23 L824.011 1582.78 L810.516 1582.78 L810.516 1524.66 Z" fill="#000000" fill-rule="nonzero" fill-opacity="1" /><path clip-path="url(#clip100)" d="M857.145 1544.01 Q856.158 1543.44 854.98 1543.18 Q853.834 1542.9 852.434 1542.9 Q847.469 1542.9 844.795 1546.14 Q842.153 1549.36 842.153 1555.41 L842.153 1574.19 L836.265 1574.19 L836.265 1538.54 L842.153 1538.54 L842.153 1544.08 Q843.999 1540.83 846.959 1539.27 Q849.92 1537.68 854.153 1537.68 Q854.757 1537.68 855.49 1537.77 Q856.222 1537.84 857.113 1538 L857.145 1544.01 Z" fill="#000000" fill-rule="nonzero" fill-opacity="1" /><path clip-path="url(#clip100)" d="M879.488 1556.27 Q872.39 1556.27 869.653 1557.89 Q866.916 1559.51 866.916 1563.43 Q866.916 1566.55 868.953 1568.39 Q871.022 1570.21 874.555 1570.21 Q879.425 1570.21 882.353 1566.77 Q885.313 1563.3 885.313 1557.57 L885.313 1556.27 L879.488 1556.27 M891.169 1553.85 L891.169 1574.19 L885.313 1574.19 L885.313 1568.77 Q883.308 1572.02 880.316 1573.58 Q877.324 1575.11 872.995 1575.11 Q867.521 1575.11 864.274 1572.05 Q861.06 1568.97 861.06 1563.81 Q861.06 1557.79 865.07 1554.74 Q869.112 1551.68 877.101 1551.68 L885.313 1551.68 L885.313 1551.11 Q885.313 1547.07 882.639 1544.87 Q879.998 1542.64 875.191 1542.64 Q872.136 1542.64 869.239 1543.38 Q866.343 1544.11 863.669 1545.57 L863.669 1540.16 Q866.884 1538.92 869.908 1538.31 Q872.932 1537.68 875.796 1537.68 Q883.53 1537.68 887.35 1541.69 Q891.169 1545.7 891.169 1553.85 Z" fill="#000000" fill-rule="nonzero" fill-opacity="1" /><path clip-path="url(#clip100)" d="M926.69 1543.95 L926.69 1524.66 L932.546 1524.66 L932.546 1574.19 L926.69 1574.19 L926.69 1568.84 Q924.844 1572.02 922.011 1573.58 Q919.21 1575.11 915.264 1575.11 Q908.802 1575.11 904.728 1569.95 Q900.686 1564.8 900.686 1556.39 Q900.686 1547.99 904.728 1542.83 Q908.802 1537.68 915.264 1537.68 Q919.21 1537.68 922.011 1539.24 Q924.844 1540.77 926.69 1543.95 M906.733 1556.39 Q906.733 1562.85 909.375 1566.55 Q912.049 1570.21 916.696 1570.21 Q921.343 1570.21 924.016 1566.55 Q926.69 1562.85 926.69 1556.39 Q926.69 1549.93 924.016 1546.27 Q921.343 1542.58 916.696 1542.58 Q912.049 1542.58 909.375 1546.27 Q906.733 1549.93 906.733 1556.39 Z" fill="#000000" fill-rule="nonzero" fill-opacity="1" /><path clip-path="url(#clip100)" d="M955.017 1526.67 L960.428 1526.67 L943.877 1580.23 L938.467 1580.23 L955.017 1526.67 Z" fill="#000000" fill-rule="nonzero" fill-opacity="1" /><path clip-path="url(#clip100)" d="M989.297 1539.59 L989.297 1545.13 Q986.814 1543.85 984.14 1543.22 Q981.467 1542.58 978.602 1542.58 Q974.242 1542.58 972.046 1543.92 Q969.881 1545.25 969.881 1547.93 Q969.881 1549.96 971.441 1551.14 Q973 1552.29 977.711 1553.34 L979.716 1553.78 Q985.955 1555.12 988.565 1557.57 Q991.206 1559.99 991.206 1564.35 Q991.206 1569.32 987.26 1572.21 Q983.345 1575.11 976.47 1575.11 Q973.605 1575.11 970.486 1574.54 Q967.399 1573.99 963.961 1572.88 L963.961 1566.83 Q967.208 1568.52 970.359 1569.38 Q973.51 1570.21 976.597 1570.21 Q980.735 1570.21 982.963 1568.81 Q985.191 1567.37 985.191 1564.8 Q985.191 1562.41 983.568 1561.14 Q981.976 1559.86 976.533 1558.68 L974.496 1558.21 Q969.054 1557.06 966.635 1554.71 Q964.216 1552.32 964.216 1548.18 Q964.216 1543.15 967.781 1540.42 Q971.345 1537.68 977.902 1537.68 Q981.149 1537.68 984.013 1538.16 Q986.878 1538.63 989.297 1539.59 Z" fill="#000000" fill-rule="nonzero" fill-opacity="1" /><path clip-path="url(#clip100)" d="M1014.22 1524.66 L1014.22 1582.78 L1000.72 1582.78 L1000.72 1578.23 L1008.33 1578.23 L1008.33 1529.21 L1000.72 1529.21 L1000.72 1524.66 L1014.22 1524.66 Z" fill="#000000" fill-rule="nonzero" fill-opacity="1" /><polyline clip-path="url(#clip100)" style="stroke:#000000; stroke-linecap:round; stroke-linejoin:round; stroke-width:4; stroke-opacity:1; fill:none" points="272.297,1410.9 272.297,853.724 "/>
<polyline clip-path="url(#clip100)" style="stroke:#000000; stroke-linecap:round; stroke-linejoin:round; stroke-width:4; stroke-opacity:1; fill:none" points="272.297,1339.68 291.194,1339.68 "/>
<polyline clip-path="url(#clip100)" style="stroke:#000000; stroke-linecap:round; stroke-linejoin:round; stroke-width:4; stroke-opacity:1; fill:none" points="272.297,1192.19 291.194,1192.19 "/>
<polyline clip-path="url(#clip100)" style="stroke:#000000; stroke-linecap:round; stroke-linejoin:round; stroke-width:4; stroke-opacity:1; fill:none" points="272.297,1044.7 291.194,1044.7 "/>
<polyline clip-path="url(#clip100)" style="stroke:#000000; stroke-linecap:round; stroke-linejoin:round; stroke-width:4; stroke-opacity:1; fill:none" points="272.297,897.216 291.194,897.216 "/>
<path clip-path="url(#clip100)" d="M114.26 1340.13 L143.936 1340.13 L143.936 1344.07 L114.26 1344.07 L114.26 1340.13 Z" fill="#000000" fill-rule="nonzero" fill-opacity="1" /><path clip-path="url(#clip100)" d="M158.056 1353.03 L174.376 1353.03 L174.376 1356.96 L152.431 1356.96 L152.431 1353.03 Q155.093 1350.27 159.677 1345.64 Q164.283 1340.99 165.464 1339.65 Q167.709 1337.12 168.589 1335.39 Q169.491 1333.63 169.491 1331.94 Q169.491 1329.18 167.547 1327.45 Q165.626 1325.71 162.524 1325.71 Q160.325 1325.71 157.871 1326.48 Q155.44 1327.24 152.663 1328.79 L152.663 1324.07 Q155.487 1322.93 157.94 1322.35 Q160.394 1321.78 162.431 1321.78 Q167.802 1321.78 170.996 1324.46 Q174.19 1327.15 174.19 1331.64 Q174.19 1333.77 173.38 1335.69 Q172.593 1337.59 170.487 1340.18 Q169.908 1340.85 166.806 1344.07 Q163.704 1347.26 158.056 1353.03 Z" fill="#000000" fill-rule="nonzero" fill-opacity="1" /><path clip-path="url(#clip100)" d="M184.237 1322.4 L202.593 1322.4 L202.593 1326.34 L188.519 1326.34 L188.519 1334.81 Q189.538 1334.46 190.556 1334.3 Q191.575 1334.11 192.593 1334.11 Q198.38 1334.11 201.76 1337.29 Q205.139 1340.46 205.139 1345.87 Q205.139 1351.45 201.667 1354.55 Q198.195 1357.63 191.875 1357.63 Q189.7 1357.63 187.431 1357.26 Q185.186 1356.89 182.778 1356.15 L182.778 1351.45 Q184.862 1352.59 187.084 1353.14 Q189.306 1353.7 191.783 1353.7 Q195.787 1353.7 198.125 1351.59 Q200.463 1349.48 200.463 1345.87 Q200.463 1342.26 198.125 1340.16 Q195.787 1338.05 191.783 1338.05 Q189.908 1338.05 188.033 1338.47 Q186.181 1338.88 184.237 1339.76 L184.237 1322.4 Z" fill="#000000" fill-rule="nonzero" fill-opacity="1" /><path clip-path="url(#clip100)" d="M224.352 1325.48 Q220.741 1325.48 218.912 1329.04 Q217.107 1332.59 217.107 1339.72 Q217.107 1346.82 218.912 1350.39 Q220.741 1353.93 224.352 1353.93 Q227.986 1353.93 229.792 1350.39 Q231.621 1346.82 231.621 1339.72 Q231.621 1332.59 229.792 1329.04 Q227.986 1325.48 224.352 1325.48 M224.352 1321.78 Q230.162 1321.78 233.218 1326.38 Q236.297 1330.97 236.297 1339.72 Q236.297 1348.44 233.218 1353.05 Q230.162 1357.63 224.352 1357.63 Q218.542 1357.63 215.463 1353.05 Q212.408 1348.44 212.408 1339.72 Q212.408 1330.97 215.463 1326.38 Q218.542 1321.78 224.352 1321.78 Z" fill="#000000" fill-rule="nonzero" fill-opacity="1" /><path clip-path="url(#clip100)" d="M114.26 1192.64 L143.936 1192.64 L143.936 1196.58 L114.26 1196.58 L114.26 1192.64 Z" fill="#000000" fill-rule="nonzero" fill-opacity="1" /><path clip-path="url(#clip100)" d="M158.056 1205.54 L174.376 1205.54 L174.376 1209.47 L152.431 1209.47 L152.431 1205.54 Q155.093 1202.78 159.677 1198.15 Q164.283 1193.5 165.464 1192.16 Q167.709 1189.63 168.589 1187.9 Q169.491 1186.14 169.491 1184.45 Q169.491 1181.7 167.547 1179.96 Q165.626 1178.22 162.524 1178.22 Q160.325 1178.22 157.871 1178.99 Q155.44 1179.75 152.663 1181.3 L152.663 1176.58 Q155.487 1175.45 157.94 1174.87 Q160.394 1174.29 162.431 1174.29 Q167.802 1174.29 170.996 1176.97 Q174.19 1179.66 174.19 1184.15 Q174.19 1186.28 173.38 1188.2 Q172.593 1190.1 170.487 1192.69 Q169.908 1193.36 166.806 1196.58 Q163.704 1199.77 158.056 1205.54 Z" fill="#000000" fill-rule="nonzero" fill-opacity="1" /><path clip-path="url(#clip100)" d="M194.19 1177.99 Q190.579 1177.99 188.75 1181.56 Q186.945 1185.1 186.945 1192.23 Q186.945 1199.33 188.75 1202.9 Q190.579 1206.44 194.19 1206.44 Q197.825 1206.44 199.63 1202.9 Q201.459 1199.33 201.459 1192.23 Q201.459 1185.1 199.63 1181.56 Q197.825 1177.99 194.19 1177.99 M194.19 1174.29 Q200 1174.29 203.056 1178.89 Q206.135 1183.48 206.135 1192.23 Q206.135 1200.95 203.056 1205.56 Q200 1210.14 194.19 1210.14 Q188.38 1210.14 185.301 1205.56 Q182.246 1200.95 182.246 1192.23 Q182.246 1183.48 185.301 1178.89 Q188.38 1174.29 194.19 1174.29 Z" fill="#000000" fill-rule="nonzero" fill-opacity="1" /><path clip-path="url(#clip100)" d="M224.352 1177.99 Q220.741 1177.99 218.912 1181.56 Q217.107 1185.1 217.107 1192.23 Q217.107 1199.33 218.912 1202.9 Q220.741 1206.44 224.352 1206.44 Q227.986 1206.44 229.792 1202.9 Q231.621 1199.33 231.621 1192.23 Q231.621 1185.1 229.792 1181.56 Q227.986 1177.99 224.352 1177.99 M224.352 1174.29 Q230.162 1174.29 233.218 1178.89 Q236.297 1183.48 236.297 1192.23 Q236.297 1200.95 233.218 1205.56 Q230.162 1210.14 224.352 1210.14 Q218.542 1210.14 215.463 1205.56 Q212.408 1200.95 212.408 1192.23 Q212.408 1183.48 215.463 1178.89 Q218.542 1174.29 224.352 1174.29 Z" fill="#000000" fill-rule="nonzero" fill-opacity="1" /><path clip-path="url(#clip100)" d="M114.26 1045.16 L143.936 1045.16 L143.936 1049.09 L114.26 1049.09 L114.26 1045.16 Z" fill="#000000" fill-rule="nonzero" fill-opacity="1" /><path clip-path="url(#clip100)" d="M154.839 1058.05 L162.477 1058.05 L162.477 1031.68 L154.167 1033.35 L154.167 1029.09 L162.431 1027.42 L167.107 1027.42 L167.107 1058.05 L174.746 1058.05 L174.746 1061.98 L154.839 1061.98 L154.839 1058.05 Z" fill="#000000" fill-rule="nonzero" fill-opacity="1" /><path clip-path="url(#clip100)" d="M184.237 1027.42 L202.593 1027.42 L202.593 1031.36 L188.519 1031.36 L188.519 1039.83 Q189.538 1039.48 190.556 1039.32 Q191.575 1039.14 192.593 1039.14 Q198.38 1039.14 201.76 1042.31 Q205.139 1045.48 205.139 1050.9 Q205.139 1056.48 201.667 1059.58 Q198.195 1062.66 191.875 1062.66 Q189.7 1062.66 187.431 1062.29 Q185.186 1061.92 182.778 1061.17 L182.778 1056.48 Q184.862 1057.61 187.084 1058.17 Q189.306 1058.72 191.783 1058.72 Q195.787 1058.72 198.125 1056.61 Q200.463 1054.51 200.463 1050.9 Q200.463 1047.29 198.125 1045.18 Q195.787 1043.07 191.783 1043.07 Q189.908 1043.07 188.033 1043.49 Q186.181 1043.91 184.237 1044.79 L184.237 1027.42 Z" fill="#000000" fill-rule="nonzero" fill-opacity="1" /><path clip-path="url(#clip100)" d="M224.352 1030.5 Q220.741 1030.5 218.912 1034.07 Q217.107 1037.61 217.107 1044.74 Q217.107 1051.85 218.912 1055.41 Q220.741 1058.95 224.352 1058.95 Q227.986 1058.95 229.792 1055.41 Q231.621 1051.85 231.621 1044.74 Q231.621 1037.61 229.792 1034.07 Q227.986 1030.5 224.352 1030.5 M224.352 1026.8 Q230.162 1026.8 233.218 1031.41 Q236.297 1035.99 236.297 1044.74 Q236.297 1053.47 233.218 1058.07 Q230.162 1062.66 224.352 1062.66 Q218.542 1062.66 215.463 1058.07 Q212.408 1053.47 212.408 1044.74 Q212.408 1035.99 215.463 1031.41 Q218.542 1026.8 224.352 1026.8 Z" fill="#000000" fill-rule="nonzero" fill-opacity="1" /><path clip-path="url(#clip100)" d="M114.26 897.668 L143.936 897.668 L143.936 901.603 L114.26 901.603 L114.26 897.668 Z" fill="#000000" fill-rule="nonzero" fill-opacity="1" /><path clip-path="url(#clip100)" d="M154.839 910.561 L162.477 910.561 L162.477 884.195 L154.167 885.862 L154.167 881.603 L162.431 879.936 L167.107 879.936 L167.107 910.561 L174.746 910.561 L174.746 914.496 L154.839 914.496 L154.839 910.561 Z" fill="#000000" fill-rule="nonzero" fill-opacity="1" /><path clip-path="url(#clip100)" d="M194.19 883.015 Q190.579 883.015 188.75 886.58 Q186.945 890.121 186.945 897.251 Q186.945 904.357 188.75 907.922 Q190.579 911.464 194.19 911.464 Q197.825 911.464 199.63 907.922 Q201.459 904.357 201.459 897.251 Q201.459 890.121 199.63 886.58 Q197.825 883.015 194.19 883.015 M194.19 879.311 Q200 879.311 203.056 883.918 Q206.135 888.501 206.135 897.251 Q206.135 905.978 203.056 910.584 Q200 915.168 194.19 915.168 Q188.38 915.168 185.301 910.584 Q182.246 905.978 182.246 897.251 Q182.246 888.501 185.301 883.918 Q188.38 879.311 194.19 879.311 Z" fill="#000000" fill-rule="nonzero" fill-opacity="1" /><path clip-path="url(#clip100)" d="M224.352 883.015 Q220.741 883.015 218.912 886.58 Q217.107 890.121 217.107 897.251 Q217.107 904.357 218.912 907.922 Q220.741 911.464 224.352 911.464 Q227.986 911.464 229.792 907.922 Q231.621 904.357 231.621 897.251 Q231.621 890.121 229.792 886.58 Q227.986 883.015 224.352 883.015 M224.352 879.311 Q230.162 879.311 233.218 883.918 Q236.297 888.501 236.297 897.251 Q236.297 905.978 233.218 910.584 Q230.162 915.168 224.352 915.168 Q218.542 915.168 215.463 910.584 Q212.408 905.978 212.408 897.251 Q212.408 888.501 215.463 883.918 Q218.542 879.311 224.352 879.311 Z" fill="#000000" fill-rule="nonzero" fill-opacity="1" /><path clip-path="url(#clip100)" d="M21.7677 1314.42 L39.6235 1314.42 L39.6235 1306.33 Q39.6235 1301.85 37.3 1299.39 Q34.9765 1296.94 30.6797 1296.94 Q26.4147 1296.94 24.0912 1299.39 Q21.7677 1301.85 21.7677 1306.33 L21.7677 1314.42 M16.4842 1320.85 L16.4842 1306.33 Q16.4842 1298.34 20.1126 1294.27 Q23.7092 1290.16 30.6797 1290.16 Q37.7138 1290.16 41.3104 1294.27 Q44.907 1298.34 44.907 1306.33 L44.907 1314.42 L64.0042 1314.42 L64.0042 1320.85 L16.4842 1320.85 Z" fill="#000000" fill-rule="nonzero" fill-opacity="1" /><path clip-path="url(#clip100)" d="M42.4881 1252.16 L64.0042 1252.16 L64.0042 1258.02 L42.679 1258.02 Q37.6183 1258.02 35.1038 1259.99 Q32.5894 1261.96 32.5894 1265.91 Q32.5894 1270.65 35.6131 1273.39 Q38.6368 1276.13 43.8567 1276.13 L64.0042 1276.13 L64.0042 1282.02 L14.479 1282.02 L14.479 1276.13 L33.8944 1276.13 Q30.6797 1274.03 29.0883 1271.19 Q27.4968 1268.33 27.4968 1264.61 Q27.4968 1258.46 31.3163 1255.31 Q35.1038 1252.16 42.4881 1252.16 Z" fill="#000000" fill-rule="nonzero" fill-opacity="1" /><path clip-path="url(#clip100)" d="M46.0847 1224.28 Q46.0847 1231.38 47.7079 1234.11 Q49.3312 1236.85 53.2461 1236.85 Q56.3653 1236.85 58.2114 1234.81 Q60.0256 1232.75 60.0256 1229.21 Q60.0256 1224.34 56.5881 1221.41 Q53.1188 1218.45 47.3897 1218.45 L46.0847 1218.45 L46.0847 1224.28 M43.6657 1212.6 L64.0042 1212.6 L64.0042 1218.45 L58.5933 1218.45 Q61.8398 1220.46 63.3994 1223.45 Q64.9272 1226.44 64.9272 1230.77 Q64.9272 1236.25 61.8716 1239.49 Q58.7843 1242.71 53.6281 1242.71 Q47.6125 1242.71 44.5569 1238.7 Q41.5014 1234.66 41.5014 1226.67 L41.5014 1218.45 L40.9285 1218.45 Q36.8862 1218.45 34.6901 1221.13 Q32.4621 1223.77 32.4621 1228.58 Q32.4621 1231.63 33.1941 1234.53 Q33.9262 1237.42 35.3903 1240.1 L29.9795 1240.1 Q28.7381 1236.88 28.1334 1233.86 Q27.4968 1230.84 27.4968 1227.97 Q27.4968 1220.24 31.5072 1216.42 Q35.5176 1212.6 43.6657 1212.6 Z" fill="#000000" fill-rule="nonzero" fill-opacity="1" /><path clip-path="url(#clip100)" d="M29.4065 1177.81 L34.9447 1177.81 Q33.6716 1180.29 33.035 1182.97 Q32.3984 1185.64 32.3984 1188.5 Q32.3984 1192.86 33.7352 1195.06 Q35.072 1197.22 37.7456 1197.22 Q39.7826 1197.22 40.9603 1195.67 Q42.1061 1194.11 43.1565 1189.39 L43.6021 1187.39 Q44.9389 1181.15 47.3897 1178.54 Q49.8086 1175.9 54.1691 1175.9 Q59.1344 1175.9 62.0308 1179.85 Q64.9272 1183.76 64.9272 1190.64 Q64.9272 1193.5 64.3543 1196.62 Q63.8132 1199.71 62.6992 1203.14 L56.6518 1203.14 Q58.3387 1199.9 59.198 1196.75 Q60.0256 1193.6 60.0256 1190.51 Q60.0256 1186.37 58.6251 1184.14 Q57.1929 1181.92 54.6147 1181.92 Q52.2276 1181.92 50.9545 1183.54 Q49.6813 1185.13 48.5037 1190.57 L48.0262 1192.61 Q46.8804 1198.05 44.5251 1200.47 Q42.138 1202.89 38.0002 1202.89 Q32.9713 1202.89 30.2341 1199.33 Q27.4968 1195.76 27.4968 1189.2 Q27.4968 1185.96 27.9743 1183.09 Q28.4517 1180.23 29.4065 1177.81 Z" fill="#000000" fill-rule="nonzero" fill-opacity="1" /><path clip-path="url(#clip100)" d="M44.7161 1136.08 L47.5806 1136.08 L47.5806 1163.01 Q53.6281 1162.63 56.8109 1159.38 Q59.9619 1156.1 59.9619 1150.28 Q59.9619 1146.9 59.1344 1143.75 Q58.3069 1140.57 56.6518 1137.45 L62.1899 1137.45 Q63.5267 1140.6 64.227 1143.91 Q64.9272 1147.22 64.9272 1150.63 Q64.9272 1159.16 59.9619 1164.15 Q54.9967 1169.12 46.5303 1169.12 Q37.7774 1169.12 32.6531 1164.41 Q27.4968 1159.67 27.4968 1151.65 Q27.4968 1144.45 32.1438 1140.28 Q36.7589 1136.08 44.7161 1136.08 M42.9973 1141.94 Q38.1912 1142 35.3266 1144.64 Q32.4621 1147.25 32.4621 1151.58 Q32.4621 1156.48 35.2312 1159.44 Q38.0002 1162.37 43.0292 1162.82 L42.9973 1141.94 Z" fill="#000000" fill-rule="nonzero" fill-opacity="1" /><path clip-path="url(#clip100)" d="M14.5426 1091.68 Q21.8632 1095.95 29.0246 1098.02 Q36.186 1100.08 43.5384 1100.08 Q50.8908 1100.08 58.1159 1098.02 Q65.3091 1095.91 72.5979 1091.68 L72.5979 1096.77 Q65.1182 1101.55 57.8931 1103.94 Q50.668 1106.29 43.5384 1106.29 Q36.4406 1106.29 29.2474 1103.94 Q22.0542 1101.58 14.5426 1096.77 L14.5426 1091.68 Z" fill="#000000" fill-rule="nonzero" fill-opacity="1" /><path clip-path="url(#clip100)" d="M33.7671 1056.86 L14.479 1056.86 L14.479 1051 L64.0042 1051 L64.0042 1056.86 L58.657 1056.86 Q61.8398 1058.71 63.3994 1061.54 Q64.9272 1064.34 64.9272 1068.29 Q64.9272 1074.75 59.771 1078.82 Q54.6147 1082.86 46.212 1082.86 Q37.8093 1082.86 32.6531 1078.82 Q27.4968 1074.75 27.4968 1068.29 Q27.4968 1064.34 29.0564 1061.54 Q30.5842 1058.71 33.7671 1056.86 M46.212 1076.82 Q52.6732 1076.82 56.3653 1074.18 Q60.0256 1071.5 60.0256 1066.85 Q60.0256 1062.21 56.3653 1059.53 Q52.6732 1056.86 46.212 1056.86 Q39.7508 1056.86 36.0905 1059.53 Q32.3984 1062.21 32.3984 1066.85 Q32.3984 1071.5 36.0905 1074.18 Q39.7508 1076.82 46.212 1076.82 Z" fill="#000000" fill-rule="nonzero" fill-opacity="1" /><path clip-path="url(#clip100)" d="M44.7161 1008.45 L47.5806 1008.45 L47.5806 1035.38 Q53.6281 1034.99 56.8109 1031.75 Q59.9619 1028.47 59.9619 1022.65 Q59.9619 1019.27 59.1344 1016.12 Q58.3069 1012.94 56.6518 1009.82 L62.1899 1009.82 Q63.5267 1012.97 64.227 1016.28 Q64.9272 1019.59 64.9272 1023 Q64.9272 1031.53 59.9619 1036.52 Q54.9967 1041.49 46.5303 1041.49 Q37.7774 1041.49 32.6531 1036.78 Q27.4968 1032.03 27.4968 1024.01 Q27.4968 1016.82 32.1438 1012.65 Q36.7589 1008.45 44.7161 1008.45 M42.9973 1014.31 Q38.1912 1014.37 35.3266 1017.01 Q32.4621 1019.62 32.4621 1023.95 Q32.4621 1028.85 35.2312 1031.81 Q38.0002 1034.74 43.0292 1035.19 L42.9973 1014.31 Z" fill="#000000" fill-rule="nonzero" fill-opacity="1" /><path clip-path="url(#clip100)" d="M45.7664 975.38 Q39.4007 975.38 35.8996 978.022 Q32.3984 980.631 32.3984 985.374 Q32.3984 990.085 35.8996 992.726 Q39.4007 995.336 45.7664 995.336 Q52.1003 995.336 55.6014 992.726 Q59.1026 990.085 59.1026 985.374 Q59.1026 980.631 55.6014 978.022 Q52.1003 975.38 45.7664 975.38 M59.58 969.523 Q68.683 969.523 73.1071 973.566 Q77.5631 977.608 77.5631 985.947 Q77.5631 989.034 77.0857 991.771 Q76.6401 994.509 75.6852 997.087 L69.9879 997.087 Q71.3884 994.509 72.0568 991.994 Q72.7252 989.48 72.7252 986.87 Q72.7252 981.109 69.7015 978.244 Q66.7096 975.38 60.6303 975.38 L57.7339 975.38 Q60.885 977.194 62.4446 980.027 Q64.0042 982.859 64.0042 986.806 Q64.0042 993.363 59.0071 997.373 Q54.01 1001.38 45.7664 1001.38 Q37.491 1001.38 32.4939 997.373 Q27.4968 993.363 27.4968 986.806 Q27.4968 982.859 29.0564 980.027 Q30.616 977.194 33.7671 975.38 L28.3562 975.38 L28.3562 969.523 L59.58 969.523 Z" fill="#000000" fill-rule="nonzero" fill-opacity="1" /><path clip-path="url(#clip100)" d="M14.5426 958.383 L14.5426 953.291 Q22.0542 948.517 29.2474 946.161 Q36.4406 943.774 43.5384 943.774 Q50.668 943.774 57.8931 946.161 Q65.1182 948.517 72.5979 953.291 L72.5979 958.383 Q65.3091 954.15 58.1159 952.081 Q50.8908 949.981 43.5384 949.981 Q36.186 949.981 29.0246 952.081 Q21.8632 954.15 14.5426 958.383 Z" fill="#000000" fill-rule="nonzero" fill-opacity="1" /><polyline clip-path="url(#clip103)" style="stroke:#000000; stroke-linecap:round; stroke-linejoin:round; stroke-width:4; stroke-opacity:1; fill:none" points="298.433,869.493 389.128,873.6 454.533,881.655 481.567,887.599 505.985,895.071 528.659,904.403 549.589,915.62 579.239,936.774 608.018,963.871 629.819,988.269 679.527,1048.78 704.817,1077.7 730.98,1104.91 807.722,1180.12 836.5,1212.3 904.522,1293.93 926.323,1316.35 948.125,1335.11 968.183,1349.09 989.113,1360.68 1011.79,1370.33 1036.2,1378.07 1093.76,1389.01 1169.63,1395.13 "/>
<path clip-path="url(#clip100)" d="M1429.29 1410.9 L2352.76 1410.9 L2352.76 123.472 L1429.29 123.472  Z" fill="#ffffff" fill-rule="evenodd" fill-opacity="1"/>
<defs>
  <clipPath id="clip104">
    <rect x="1429" y="123" width="924" height="1288"/>
  </clipPath>
</defs>
<polyline clip-path="url(#clip104)" style="stroke:#000000; stroke-linecap:round; stroke-linejoin:round; stroke-width:2; stroke-opacity:0.1; fill:none" points="1455.42,1410.9 1455.42,123.472 "/>
<polyline clip-path="url(#clip104)" style="stroke:#000000; stroke-linecap:round; stroke-linejoin:round; stroke-width:2; stroke-opacity:0.1; fill:none" points="1673.22,1410.9 1673.22,123.472 "/>
<polyline clip-path="url(#clip104)" style="stroke:#000000; stroke-linecap:round; stroke-linejoin:round; stroke-width:2; stroke-opacity:0.1; fill:none" points="1891.02,1410.9 1891.02,123.472 "/>
<polyline clip-path="url(#clip104)" style="stroke:#000000; stroke-linecap:round; stroke-linejoin:round; stroke-width:2; stroke-opacity:0.1; fill:none" points="2108.82,1410.9 2108.82,123.472 "/>
<polyline clip-path="url(#clip104)" style="stroke:#000000; stroke-linecap:round; stroke-linejoin:round; stroke-width:2; stroke-opacity:0.1; fill:none" points="2326.62,1410.9 2326.62,123.472 "/>
<polyline clip-path="url(#clip104)" style="stroke:#000000; stroke-linecap:round; stroke-linejoin:round; stroke-width:2; stroke-opacity:0.1; fill:none" points="1429.29,1374.46 2352.76,1374.46 "/>
<polyline clip-path="url(#clip104)" style="stroke:#000000; stroke-linecap:round; stroke-linejoin:round; stroke-width:2; stroke-opacity:0.1; fill:none" points="1429.29,1070.82 2352.76,1070.82 "/>
<polyline clip-path="url(#clip104)" style="stroke:#000000; stroke-linecap:round; stroke-linejoin:round; stroke-width:2; stroke-opacity:0.1; fill:none" points="1429.29,767.184 2352.76,767.184 "/>
<polyline clip-path="url(#clip104)" style="stroke:#000000; stroke-linecap:round; stroke-linejoin:round; stroke-width:2; stroke-opacity:0.1; fill:none" points="1429.29,463.547 2352.76,463.547 "/>
<polyline clip-path="url(#clip104)" style="stroke:#000000; stroke-linecap:round; stroke-linejoin:round; stroke-width:2; stroke-opacity:0.1; fill:none" points="1429.29,159.909 2352.76,159.909 "/>
<polyline clip-path="url(#clip100)" style="stroke:#000000; stroke-linecap:round; stroke-linejoin:round; stroke-width:4; stroke-opacity:1; fill:none" points="1429.29,1374.46 2352.76,1374.46 "/>
<polyline clip-path="url(#clip100)" style="stroke:#000000; stroke-linecap:round; stroke-linejoin:round; stroke-width:4; stroke-opacity:0; fill:none" points="1455.42,1374.46 1455.42,1374.46 "/>
<polyline clip-path="url(#clip100)" style="stroke:#000000; stroke-linecap:round; stroke-linejoin:round; stroke-width:4; stroke-opacity:0; fill:none" points="1673.22,1374.46 1673.22,1374.46 "/>
<polyline clip-path="url(#clip100)" style="stroke:#000000; stroke-linecap:round; stroke-linejoin:round; stroke-width:4; stroke-opacity:0; fill:none" points="1891.02,1374.46 1891.02,1374.46 "/>
<polyline clip-path="url(#clip100)" style="stroke:#000000; stroke-linecap:round; stroke-linejoin:round; stroke-width:4; stroke-opacity:0; fill:none" points="2108.82,1374.46 2108.82,1374.46 "/>
<polyline clip-path="url(#clip100)" style="stroke:#000000; stroke-linecap:round; stroke-linejoin:round; stroke-width:4; stroke-opacity:0; fill:none" points="2326.62,1374.46 2326.62,1374.46 "/>
<path clip-path="url(#clip100)" d="M1409.48 1456.47 L1439.16 1456.47 L1439.16 1460.4 L1409.48 1460.4 L1409.48 1456.47 Z" fill="#000000" fill-rule="nonzero" fill-opacity="1" /><path clip-path="url(#clip100)" d="M1453.28 1469.36 L1469.6 1469.36 L1469.6 1473.3 L1447.66 1473.3 L1447.66 1469.36 Q1450.32 1466.61 1454.9 1461.98 Q1459.51 1457.32 1460.69 1455.98 Q1462.93 1453.46 1463.81 1451.72 Q1464.72 1449.96 1464.72 1448.27 Q1464.72 1445.52 1462.77 1443.78 Q1460.85 1442.05 1457.75 1442.05 Q1455.55 1442.05 1453.09 1442.81 Q1450.66 1443.57 1447.89 1445.13 L1447.89 1440.4 Q1450.71 1439.27 1453.16 1438.69 Q1455.62 1438.11 1457.66 1438.11 Q1463.03 1438.11 1466.22 1440.8 Q1469.41 1443.48 1469.41 1447.97 Q1469.41 1450.1 1468.6 1452.02 Q1467.82 1453.92 1465.71 1456.51 Q1465.13 1457.19 1462.03 1460.4 Q1458.93 1463.6 1453.28 1469.36 Z" fill="#000000" fill-rule="nonzero" fill-opacity="1" /><path clip-path="url(#clip100)" d="M1489.41 1441.82 Q1485.8 1441.82 1483.97 1445.38 Q1482.17 1448.92 1482.17 1456.05 Q1482.17 1463.16 1483.97 1466.72 Q1485.8 1470.26 1489.41 1470.26 Q1493.05 1470.26 1494.85 1466.72 Q1496.68 1463.16 1496.68 1456.05 Q1496.68 1448.92 1494.85 1445.38 Q1493.05 1441.82 1489.41 1441.82 M1489.41 1438.11 Q1495.22 1438.11 1498.28 1442.72 Q1501.36 1447.3 1501.36 1456.05 Q1501.36 1464.78 1498.28 1469.38 Q1495.22 1473.97 1489.41 1473.97 Q1483.6 1473.97 1480.53 1469.38 Q1477.47 1464.78 1477.47 1456.05 Q1477.47 1447.3 1480.53 1442.72 Q1483.6 1438.11 1489.41 1438.11 Z" fill="#000000" fill-rule="nonzero" fill-opacity="1" /><path clip-path="url(#clip100)" d="M1627.78 1456.47 L1657.46 1456.47 L1657.46 1460.4 L1627.78 1460.4 L1627.78 1456.47 Z" fill="#000000" fill-rule="nonzero" fill-opacity="1" /><path clip-path="url(#clip100)" d="M1668.36 1469.36 L1676 1469.36 L1676 1443 L1667.69 1444.66 L1667.69 1440.4 L1675.95 1438.74 L1680.63 1438.74 L1680.63 1469.36 L1688.27 1469.36 L1688.27 1473.3 L1668.36 1473.3 L1668.36 1469.36 Z" fill="#000000" fill-rule="nonzero" fill-opacity="1" /><path clip-path="url(#clip100)" d="M1697.76 1438.74 L1716.11 1438.74 L1716.11 1442.67 L1702.04 1442.67 L1702.04 1451.14 Q1703.06 1450.8 1704.08 1450.63 Q1705.1 1450.45 1706.11 1450.45 Q1711.9 1450.45 1715.28 1453.62 Q1718.66 1456.79 1718.66 1462.21 Q1718.66 1467.79 1715.19 1470.89 Q1711.72 1473.97 1705.4 1473.97 Q1703.22 1473.97 1700.95 1473.6 Q1698.71 1473.23 1696.3 1472.49 L1696.3 1467.79 Q1698.38 1468.92 1700.61 1469.48 Q1702.83 1470.03 1705.3 1470.03 Q1709.31 1470.03 1711.65 1467.93 Q1713.98 1465.82 1713.98 1462.21 Q1713.98 1458.6 1711.65 1456.49 Q1709.31 1454.38 1705.3 1454.38 Q1703.43 1454.38 1701.55 1454.8 Q1699.7 1455.22 1697.76 1456.1 L1697.76 1438.74 Z" fill="#000000" fill-rule="nonzero" fill-opacity="1" /><path clip-path="url(#clip100)" d="M1845.08 1456.47 L1874.76 1456.47 L1874.76 1460.4 L1845.08 1460.4 L1845.08 1456.47 Z" fill="#000000" fill-rule="nonzero" fill-opacity="1" /><path clip-path="url(#clip100)" d="M1885.66 1469.36 L1893.3 1469.36 L1893.3 1443 L1884.99 1444.66 L1884.99 1440.4 L1893.25 1438.74 L1897.93 1438.74 L1897.93 1469.36 L1905.57 1469.36 L1905.57 1473.3 L1885.66 1473.3 L1885.66 1469.36 Z" fill="#000000" fill-rule="nonzero" fill-opacity="1" /><path clip-path="url(#clip100)" d="M1925.01 1441.82 Q1921.4 1441.82 1919.57 1445.38 Q1917.77 1448.92 1917.77 1456.05 Q1917.77 1463.16 1919.57 1466.72 Q1921.4 1470.26 1925.01 1470.26 Q1928.65 1470.26 1930.45 1466.72 Q1932.28 1463.16 1932.28 1456.05 Q1932.28 1448.92 1930.45 1445.38 Q1928.65 1441.82 1925.01 1441.82 M1925.01 1438.11 Q1930.82 1438.11 1933.88 1442.72 Q1936.96 1447.3 1936.96 1456.05 Q1936.96 1464.78 1933.88 1469.38 Q1930.82 1473.97 1925.01 1473.97 Q1919.2 1473.97 1916.12 1469.38 Q1913.07 1464.78 1913.07 1456.05 Q1913.07 1447.3 1916.12 1442.72 Q1919.2 1438.11 1925.01 1438.11 Z" fill="#000000" fill-rule="nonzero" fill-opacity="1" /><path clip-path="url(#clip100)" d="M2078.46 1456.47 L2108.14 1456.47 L2108.14 1460.4 L2078.46 1460.4 L2078.46 1456.47 Z" fill="#000000" fill-rule="nonzero" fill-opacity="1" /><path clip-path="url(#clip100)" d="M2118.28 1438.74 L2136.63 1438.74 L2136.63 1442.67 L2122.56 1442.67 L2122.56 1451.14 Q2123.58 1450.8 2124.6 1450.63 Q2125.61 1450.45 2126.63 1450.45 Q2132.42 1450.45 2135.8 1453.62 Q2139.18 1456.79 2139.18 1462.21 Q2139.18 1467.79 2135.71 1470.89 Q2132.23 1473.97 2125.92 1473.97 Q2123.74 1473.97 2121.47 1473.6 Q2119.23 1473.23 2116.82 1472.49 L2116.82 1467.79 Q2118.9 1468.92 2121.12 1469.48 Q2123.35 1470.03 2125.82 1470.03 Q2129.83 1470.03 2132.17 1467.93 Q2134.5 1465.82 2134.5 1462.21 Q2134.5 1458.6 2132.17 1456.49 Q2129.83 1454.38 2125.82 1454.38 Q2123.95 1454.38 2122.07 1454.8 Q2120.22 1455.22 2118.28 1456.1 L2118.28 1438.74 Z" fill="#000000" fill-rule="nonzero" fill-opacity="1" /><path clip-path="url(#clip100)" d="M2326.62 1441.82 Q2323.01 1441.82 2321.18 1445.38 Q2319.37 1448.92 2319.37 1456.05 Q2319.37 1463.16 2321.18 1466.72 Q2323.01 1470.26 2326.62 1470.26 Q2330.25 1470.26 2332.06 1466.72 Q2333.89 1463.16 2333.89 1456.05 Q2333.89 1448.92 2332.06 1445.38 Q2330.25 1441.82 2326.62 1441.82 M2326.62 1438.11 Q2332.43 1438.11 2335.49 1442.72 Q2338.56 1447.3 2338.56 1456.05 Q2338.56 1464.78 2335.49 1469.38 Q2332.43 1473.97 2326.62 1473.97 Q2320.81 1473.97 2317.73 1469.38 Q2314.68 1464.78 2314.68 1456.05 Q2314.68 1447.3 2317.73 1442.72 Q2320.81 1438.11 2326.62 1438.11 Z" fill="#000000" fill-rule="nonzero" fill-opacity="1" /><polyline clip-path="url(#clip100)" style="stroke:#000000; stroke-linecap:round; stroke-linejoin:round; stroke-width:4; stroke-opacity:1; fill:none" points="2326.62,1410.9 2326.62,123.472 "/>
<polyline clip-path="url(#clip100)" style="stroke:#000000; stroke-linecap:round; stroke-linejoin:round; stroke-width:4; stroke-opacity:0; fill:none" points="2326.62,1374.46 2326.62,1374.46 "/>
<polyline clip-path="url(#clip100)" style="stroke:#000000; stroke-linecap:round; stroke-linejoin:round; stroke-width:4; stroke-opacity:0; fill:none" points="2326.62,1070.82 2326.62,1070.82 "/>
<polyline clip-path="url(#clip100)" style="stroke:#000000; stroke-linecap:round; stroke-linejoin:round; stroke-width:4; stroke-opacity:0; fill:none" points="2326.62,767.184 2326.62,767.184 "/>
<polyline clip-path="url(#clip100)" style="stroke:#000000; stroke-linecap:round; stroke-linejoin:round; stroke-width:4; stroke-opacity:0; fill:none" points="2326.62,463.547 2326.62,463.547 "/>
<polyline clip-path="url(#clip100)" style="stroke:#000000; stroke-linecap:round; stroke-linejoin:round; stroke-width:4; stroke-opacity:0; fill:none" points="2326.62,159.909 2326.62,159.909 "/>
<path clip-path="url(#clip100)" d="M1305.95 1360.26 Q1302.34 1360.26 1300.51 1363.82 Q1298.7 1367.37 1298.7 1374.49 Q1298.7 1381.6 1300.51 1385.17 Q1302.34 1388.71 1305.95 1388.71 Q1309.58 1388.71 1311.39 1385.17 Q1313.22 1381.6 1313.22 1374.49 Q1313.22 1367.37 1311.39 1363.82 Q1309.58 1360.26 1305.95 1360.26 M1305.95 1356.56 Q1311.76 1356.56 1314.81 1361.16 Q1317.89 1365.74 1317.89 1374.49 Q1317.89 1383.22 1314.81 1387.83 Q1311.76 1392.41 1305.95 1392.41 Q1300.14 1392.41 1297.06 1387.83 Q1294 1383.22 1294 1374.49 Q1294 1365.74 1297.06 1361.16 Q1300.14 1356.56 1305.95 1356.56 Z" fill="#000000" fill-rule="nonzero" fill-opacity="1" /><path clip-path="url(#clip100)" d="M1326.11 1385.86 L1330.99 1385.86 L1330.99 1391.74 L1326.11 1391.74 L1326.11 1385.86 Z" fill="#000000" fill-rule="nonzero" fill-opacity="1" /><path clip-path="url(#clip100)" d="M1351.18 1360.26 Q1347.57 1360.26 1345.74 1363.82 Q1343.93 1367.37 1343.93 1374.49 Q1343.93 1381.6 1345.74 1385.17 Q1347.57 1388.71 1351.18 1388.71 Q1354.81 1388.71 1356.62 1385.17 Q1358.45 1381.6 1358.45 1374.49 Q1358.45 1367.37 1356.62 1363.82 Q1354.81 1360.26 1351.18 1360.26 M1351.18 1356.56 Q1356.99 1356.56 1360.04 1361.16 Q1363.12 1365.74 1363.12 1374.49 Q1363.12 1383.22 1360.04 1387.83 Q1356.99 1392.41 1351.18 1392.41 Q1345.37 1392.41 1342.29 1387.83 Q1339.23 1383.22 1339.23 1374.49 Q1339.23 1365.74 1342.29 1361.16 Q1345.37 1356.56 1351.18 1356.56 Z" fill="#000000" fill-rule="nonzero" fill-opacity="1" /><path clip-path="url(#clip100)" d="M1381.34 1360.26 Q1377.73 1360.26 1375.9 1363.82 Q1374.1 1367.37 1374.1 1374.49 Q1374.1 1381.6 1375.9 1385.17 Q1377.73 1388.71 1381.34 1388.71 Q1384.98 1388.71 1386.78 1385.17 Q1388.61 1381.6 1388.61 1374.49 Q1388.61 1367.37 1386.78 1363.82 Q1384.98 1360.26 1381.34 1360.26 M1381.34 1356.56 Q1387.15 1356.56 1390.21 1361.16 Q1393.29 1365.74 1393.29 1374.49 Q1393.29 1383.22 1390.21 1387.83 Q1387.15 1392.41 1381.34 1392.41 Q1375.53 1392.41 1372.45 1387.83 Q1369.4 1383.22 1369.4 1374.49 Q1369.4 1365.74 1372.45 1361.16 Q1375.53 1356.56 1381.34 1356.56 Z" fill="#000000" fill-rule="nonzero" fill-opacity="1" /><path clip-path="url(#clip100)" d="M1306.94 1056.62 Q1303.33 1056.62 1301.5 1060.19 Q1299.7 1063.73 1299.7 1070.86 Q1299.7 1077.96 1301.5 1081.53 Q1303.33 1085.07 1306.94 1085.07 Q1310.58 1085.07 1312.38 1081.53 Q1314.21 1077.96 1314.21 1070.86 Q1314.21 1063.73 1312.38 1060.19 Q1310.58 1056.62 1306.94 1056.62 M1306.94 1052.92 Q1312.75 1052.92 1315.81 1057.52 Q1318.89 1062.11 1318.89 1070.86 Q1318.89 1079.58 1315.81 1084.19 Q1312.75 1088.77 1306.94 1088.77 Q1301.13 1088.77 1298.05 1084.19 Q1295 1079.58 1295 1070.86 Q1295 1062.11 1298.05 1057.52 Q1301.13 1052.92 1306.94 1052.92 Z" fill="#000000" fill-rule="nonzero" fill-opacity="1" /><path clip-path="url(#clip100)" d="M1327.11 1082.22 L1331.99 1082.22 L1331.99 1088.1 L1327.11 1088.1 L1327.11 1082.22 Z" fill="#000000" fill-rule="nonzero" fill-opacity="1" /><path clip-path="url(#clip100)" d="M1346.2 1084.17 L1362.52 1084.17 L1362.52 1088.1 L1340.58 1088.1 L1340.58 1084.17 Q1343.24 1081.41 1347.82 1076.78 Q1352.43 1072.13 1353.61 1070.79 Q1355.85 1068.26 1356.73 1066.53 Q1357.64 1064.77 1357.64 1063.08 Q1357.64 1060.32 1355.69 1058.59 Q1353.77 1056.85 1350.67 1056.85 Q1348.47 1056.85 1346.02 1057.62 Q1343.59 1058.38 1340.81 1059.93 L1340.81 1055.21 Q1343.63 1054.07 1346.09 1053.5 Q1348.54 1052.92 1350.58 1052.92 Q1355.95 1052.92 1359.14 1055.6 Q1362.34 1058.29 1362.34 1062.78 Q1362.34 1064.91 1361.53 1066.83 Q1360.74 1068.73 1358.63 1071.32 Q1358.05 1071.99 1354.95 1075.21 Q1351.85 1078.4 1346.2 1084.17 Z" fill="#000000" fill-rule="nonzero" fill-opacity="1" /><path clip-path="url(#clip100)" d="M1372.38 1053.54 L1390.74 1053.54 L1390.74 1057.48 L1376.66 1057.48 L1376.66 1065.95 Q1377.68 1065.6 1378.7 1065.44 Q1379.72 1065.26 1380.74 1065.26 Q1386.53 1065.26 1389.91 1068.43 Q1393.29 1071.6 1393.29 1077.01 Q1393.29 1082.59 1389.81 1085.69 Q1386.34 1088.77 1380.02 1088.77 Q1377.85 1088.77 1375.58 1088.4 Q1373.33 1088.03 1370.92 1087.29 L1370.92 1082.59 Q1373.01 1083.73 1375.23 1084.28 Q1377.45 1084.84 1379.93 1084.84 Q1383.93 1084.84 1386.27 1082.73 Q1388.61 1080.63 1388.61 1077.01 Q1388.61 1073.4 1386.27 1071.3 Q1383.93 1069.19 1379.93 1069.19 Q1378.05 1069.19 1376.18 1069.61 Q1374.33 1070.02 1372.38 1070.9 L1372.38 1053.54 Z" fill="#000000" fill-rule="nonzero" fill-opacity="1" /><path clip-path="url(#clip100)" d="M1305.95 752.983 Q1302.34 752.983 1300.51 756.548 Q1298.7 760.09 1298.7 767.219 Q1298.7 774.326 1300.51 777.89 Q1302.34 781.432 1305.95 781.432 Q1309.58 781.432 1311.39 777.89 Q1313.22 774.326 1313.22 767.219 Q1313.22 760.09 1311.39 756.548 Q1309.58 752.983 1305.95 752.983 M1305.95 749.279 Q1311.76 749.279 1314.81 753.886 Q1317.89 758.469 1317.89 767.219 Q1317.89 775.946 1314.81 780.552 Q1311.76 785.136 1305.95 785.136 Q1300.14 785.136 1297.06 780.552 Q1294 775.946 1294 767.219 Q1294 758.469 1297.06 753.886 Q1300.14 749.279 1305.95 749.279 Z" fill="#000000" fill-rule="nonzero" fill-opacity="1" /><path clip-path="url(#clip100)" d="M1326.11 778.585 L1330.99 778.585 L1330.99 784.464 L1326.11 784.464 L1326.11 778.585 Z" fill="#000000" fill-rule="nonzero" fill-opacity="1" /><path clip-path="url(#clip100)" d="M1341.23 749.904 L1359.58 749.904 L1359.58 753.84 L1345.51 753.84 L1345.51 762.312 Q1346.53 761.965 1347.54 761.802 Q1348.56 761.617 1349.58 761.617 Q1355.37 761.617 1358.75 764.789 Q1362.13 767.96 1362.13 773.376 Q1362.13 778.955 1358.66 782.057 Q1355.18 785.136 1348.86 785.136 Q1346.69 785.136 1344.42 784.765 Q1342.17 784.395 1339.77 783.654 L1339.77 778.955 Q1341.85 780.089 1344.07 780.645 Q1346.29 781.201 1348.77 781.201 Q1352.78 781.201 1355.11 779.094 Q1357.45 776.988 1357.45 773.376 Q1357.45 769.765 1355.11 767.659 Q1352.78 765.552 1348.77 765.552 Q1346.9 765.552 1345.02 765.969 Q1343.17 766.386 1341.23 767.265 L1341.23 749.904 Z" fill="#000000" fill-rule="nonzero" fill-opacity="1" /><path clip-path="url(#clip100)" d="M1381.34 752.983 Q1377.73 752.983 1375.9 756.548 Q1374.1 760.09 1374.1 767.219 Q1374.1 774.326 1375.9 777.89 Q1377.73 781.432 1381.34 781.432 Q1384.98 781.432 1386.78 777.89 Q1388.61 774.326 1388.61 767.219 Q1388.61 760.09 1386.78 756.548 Q1384.98 752.983 1381.34 752.983 M1381.34 749.279 Q1387.15 749.279 1390.21 753.886 Q1393.29 758.469 1393.29 767.219 Q1393.29 775.946 1390.21 780.552 Q1387.15 785.136 1381.34 785.136 Q1375.53 785.136 1372.45 780.552 Q1369.4 775.946 1369.4 767.219 Q1369.4 758.469 1372.45 753.886 Q1375.53 749.279 1381.34 749.279 Z" fill="#000000" fill-rule="nonzero" fill-opacity="1" /><path clip-path="url(#clip100)" d="M1306.94 449.345 Q1303.33 449.345 1301.5 452.91 Q1299.7 456.452 1299.7 463.581 Q1299.7 470.688 1301.5 474.252 Q1303.33 477.794 1306.94 477.794 Q1310.58 477.794 1312.38 474.252 Q1314.21 470.688 1314.21 463.581 Q1314.21 456.452 1312.38 452.91 Q1310.58 449.345 1306.94 449.345 M1306.94 445.642 Q1312.75 445.642 1315.81 450.248 Q1318.89 454.831 1318.89 463.581 Q1318.89 472.308 1315.81 476.915 Q1312.75 481.498 1306.94 481.498 Q1301.13 481.498 1298.05 476.915 Q1295 472.308 1295 463.581 Q1295 454.831 1298.05 450.248 Q1301.13 445.642 1306.94 445.642 Z" fill="#000000" fill-rule="nonzero" fill-opacity="1" /><path clip-path="url(#clip100)" d="M1327.11 474.947 L1331.99 474.947 L1331.99 480.827 L1327.11 480.827 L1327.11 474.947 Z" fill="#000000" fill-rule="nonzero" fill-opacity="1" /><path clip-path="url(#clip100)" d="M1340.99 446.267 L1363.22 446.267 L1363.22 448.257 L1350.67 480.827 L1345.79 480.827 L1357.59 450.202 L1340.99 450.202 L1340.99 446.267 Z" fill="#000000" fill-rule="nonzero" fill-opacity="1" /><path clip-path="url(#clip100)" d="M1372.38 446.267 L1390.74 446.267 L1390.74 450.202 L1376.66 450.202 L1376.66 458.674 Q1377.68 458.327 1378.7 458.165 Q1379.72 457.979 1380.74 457.979 Q1386.53 457.979 1389.91 461.151 Q1393.29 464.322 1393.29 469.739 Q1393.29 475.317 1389.81 478.419 Q1386.34 481.498 1380.02 481.498 Q1377.85 481.498 1375.58 481.127 Q1373.33 480.757 1370.92 480.016 L1370.92 475.317 Q1373.01 476.452 1375.23 477.007 Q1377.45 477.563 1379.93 477.563 Q1383.93 477.563 1386.27 475.456 Q1388.61 473.35 1388.61 469.739 Q1388.61 466.128 1386.27 464.021 Q1383.93 461.915 1379.93 461.915 Q1378.05 461.915 1376.18 462.331 Q1374.33 462.748 1372.38 463.628 L1372.38 446.267 Z" fill="#000000" fill-rule="nonzero" fill-opacity="1" /><path clip-path="url(#clip100)" d="M1296.76 173.254 L1304.4 173.254 L1304.4 146.888 L1296.09 148.555 L1296.09 144.295 L1304.35 142.629 L1309.03 142.629 L1309.03 173.254 L1316.67 173.254 L1316.67 177.189 L1296.76 177.189 L1296.76 173.254 Z" fill="#000000" fill-rule="nonzero" fill-opacity="1" /><path clip-path="url(#clip100)" d="M1326.11 171.309 L1330.99 171.309 L1330.99 177.189 L1326.11 177.189 L1326.11 171.309 Z" fill="#000000" fill-rule="nonzero" fill-opacity="1" /><path clip-path="url(#clip100)" d="M1351.18 145.707 Q1347.57 145.707 1345.74 149.272 Q1343.93 152.814 1343.93 159.943 Q1343.93 167.05 1345.74 170.615 Q1347.57 174.156 1351.18 174.156 Q1354.81 174.156 1356.62 170.615 Q1358.45 167.05 1358.45 159.943 Q1358.45 152.814 1356.62 149.272 Q1354.81 145.707 1351.18 145.707 M1351.18 142.004 Q1356.99 142.004 1360.04 146.61 Q1363.12 151.193 1363.12 159.943 Q1363.12 168.67 1360.04 173.277 Q1356.99 177.86 1351.18 177.86 Q1345.37 177.86 1342.29 173.277 Q1339.23 168.67 1339.23 159.943 Q1339.23 151.193 1342.29 146.61 Q1345.37 142.004 1351.18 142.004 Z" fill="#000000" fill-rule="nonzero" fill-opacity="1" /><path clip-path="url(#clip100)" d="M1381.34 145.707 Q1377.73 145.707 1375.9 149.272 Q1374.1 152.814 1374.1 159.943 Q1374.1 167.05 1375.9 170.615 Q1377.73 174.156 1381.34 174.156 Q1384.98 174.156 1386.78 170.615 Q1388.61 167.05 1388.61 159.943 Q1388.61 152.814 1386.78 149.272 Q1384.98 145.707 1381.34 145.707 M1381.34 142.004 Q1387.15 142.004 1390.21 146.61 Q1393.29 151.193 1393.29 159.943 Q1393.29 168.67 1390.21 173.277 Q1387.15 177.86 1381.34 177.86 Q1375.53 177.86 1372.45 173.277 Q1369.4 168.67 1369.4 159.943 Q1369.4 151.193 1372.45 146.61 Q1375.53 142.004 1381.34 142.004 Z" fill="#000000" fill-rule="nonzero" fill-opacity="1" /><path clip-path="url(#clip100)" d="M1610.45 18.8205 L1610.45 41.5461 L1620.74 41.5461 Q1626.46 41.5461 1629.58 38.5889 Q1632.69 35.6318 1632.69 30.163 Q1632.69 24.7348 1629.58 21.7777 Q1626.46 18.8205 1620.74 18.8205 L1610.45 18.8205 M1602.27 12.096 L1620.74 12.096 Q1630.91 12.096 1636.1 16.714 Q1641.32 21.2916 1641.32 30.163 Q1641.32 39.1155 1636.1 43.6931 Q1630.91 48.2706 1620.74 48.2706 L1610.45 48.2706 L1610.45 72.576 L1602.27 72.576 L1602.27 12.096 Z" fill="#000000" fill-rule="nonzero" fill-opacity="1" /><path clip-path="url(#clip100)" d="M1666.6 32.4315 Q1660.61 32.4315 1657.12 37.1306 Q1653.64 41.7891 1653.64 49.9314 Q1653.64 58.0738 1657.08 62.7728 Q1660.56 67.4314 1666.6 67.4314 Q1672.56 67.4314 1676.04 62.7323 Q1679.52 58.0333 1679.52 49.9314 Q1679.52 41.8701 1676.04 37.1711 Q1672.56 32.4315 1666.6 32.4315 M1666.6 26.1121 Q1676.32 26.1121 1681.87 32.4315 Q1687.42 38.7509 1687.42 49.9314 Q1687.42 61.0714 1681.87 67.4314 Q1676.32 73.7508 1666.6 73.7508 Q1656.84 73.7508 1651.29 67.4314 Q1645.78 61.0714 1645.78 49.9314 Q1645.78 38.7509 1651.29 32.4315 Q1656.84 26.1121 1666.6 26.1121 Z" fill="#000000" fill-rule="nonzero" fill-opacity="1" /><path clip-path="url(#clip100)" d="M1699.78 9.54393 L1707.23 9.54393 L1707.23 72.576 L1699.78 72.576 L1699.78 9.54393 Z" fill="#000000" fill-rule="nonzero" fill-opacity="1" /><path clip-path="url(#clip100)" d="M1761.63 48.0275 L1761.63 51.6733 L1727.36 51.6733 Q1727.85 59.3701 1731.98 63.421 Q1736.15 67.4314 1743.57 67.4314 Q1747.86 67.4314 1751.87 66.3781 Q1755.92 65.3249 1759.89 63.2184 L1759.89 70.267 Q1755.88 71.9684 1751.67 72.8596 Q1747.46 73.7508 1743.12 73.7508 Q1732.27 73.7508 1725.91 67.4314 Q1719.59 61.1119 1719.59 50.3365 Q1719.59 39.1965 1725.58 32.6746 Q1731.62 26.1121 1741.83 26.1121 Q1750.98 26.1121 1756.29 32.0264 Q1761.63 37.9003 1761.63 48.0275 M1754.18 45.84 Q1754.1 39.7232 1750.74 36.0774 Q1747.42 32.4315 1741.91 32.4315 Q1735.67 32.4315 1731.9 35.9558 Q1728.17 39.4801 1727.61 45.8805 L1754.18 45.84 Z" fill="#000000" fill-rule="nonzero" fill-opacity="1" /><path clip-path="url(#clip100)" d="M1770.1 46.5287 L1791.94 46.5287 L1791.94 53.1722 L1770.1 53.1722 L1770.1 46.5287 Z" fill="#000000" fill-rule="nonzero" fill-opacity="1" /><path clip-path="url(#clip100)" d="M1800.56 27.2059 L1835.97 27.2059 L1835.97 34.0114 L1807.94 66.6212 L1835.97 66.6212 L1835.97 72.576 L1799.55 72.576 L1799.55 65.7705 L1827.58 33.1607 L1800.56 33.1607 L1800.56 27.2059 Z" fill="#000000" fill-rule="nonzero" fill-opacity="1" /><path clip-path="url(#clip100)" d="M1886.16 48.0275 L1886.16 51.6733 L1851.89 51.6733 Q1852.37 59.3701 1856.51 63.421 Q1860.68 67.4314 1868.09 67.4314 Q1872.39 67.4314 1876.4 66.3781 Q1880.45 65.3249 1884.42 63.2184 L1884.42 70.267 Q1880.41 71.9684 1876.19 72.8596 Q1871.98 73.7508 1867.65 73.7508 Q1856.79 73.7508 1850.43 67.4314 Q1844.11 61.1119 1844.11 50.3365 Q1844.11 39.1965 1850.11 32.6746 Q1856.14 26.1121 1866.35 26.1121 Q1875.51 26.1121 1880.81 32.0264 Q1886.16 37.9003 1886.16 48.0275 M1878.71 45.84 Q1878.62 39.7232 1875.26 36.0774 Q1871.94 32.4315 1866.43 32.4315 Q1860.19 32.4315 1856.43 35.9558 Q1852.7 39.4801 1852.13 45.8805 L1878.71 45.84 Z" fill="#000000" fill-rule="nonzero" fill-opacity="1" /><path clip-path="url(#clip100)" d="M1924.68 34.1734 Q1923.43 33.4443 1921.93 33.1202 Q1920.47 32.7556 1918.69 32.7556 Q1912.37 32.7556 1908.97 36.8875 Q1905.6 40.9789 1905.6 48.6757 L1905.6 72.576 L1898.11 72.576 L1898.11 27.2059 L1905.6 27.2059 L1905.6 34.2544 Q1907.95 30.1225 1911.72 28.1376 Q1915.49 26.1121 1920.88 26.1121 Q1921.65 26.1121 1922.58 26.2337 Q1923.51 26.3147 1924.64 26.5172 L1924.68 34.1734 Z" fill="#000000" fill-rule="nonzero" fill-opacity="1" /><path clip-path="url(#clip100)" d="M1948.26 32.4315 Q1942.26 32.4315 1938.78 37.1306 Q1935.3 41.7891 1935.3 49.9314 Q1935.3 58.0738 1938.74 62.7728 Q1942.22 67.4314 1948.26 67.4314 Q1954.21 67.4314 1957.7 62.7323 Q1961.18 58.0333 1961.18 49.9314 Q1961.18 41.8701 1957.7 37.1711 Q1954.21 32.4315 1948.26 32.4315 M1948.26 26.1121 Q1957.98 26.1121 1963.53 32.4315 Q1969.08 38.7509 1969.08 49.9314 Q1969.08 61.0714 1963.53 67.4314 Q1957.98 73.7508 1948.26 73.7508 Q1938.5 73.7508 1932.95 67.4314 Q1927.44 61.0714 1927.44 49.9314 Q1927.44 38.7509 1932.95 32.4315 Q1938.5 26.1121 1948.26 26.1121 Z" fill="#000000" fill-rule="nonzero" fill-opacity="1" /><path clip-path="url(#clip100)" d="M2043.13 35.9153 Q2045.93 30.8922 2049.82 28.5022 Q2053.7 26.1121 2058.97 26.1121 Q2066.06 26.1121 2069.91 31.0947 Q2073.76 36.0368 2073.76 45.1919 L2073.76 72.576 L2066.26 72.576 L2066.26 45.4349 Q2066.26 38.913 2063.95 35.7533 Q2061.64 32.5936 2056.91 32.5936 Q2051.11 32.5936 2047.75 36.4419 Q2044.39 40.2903 2044.39 46.9338 L2044.39 72.576 L2036.89 72.576 L2036.89 45.4349 Q2036.89 38.8725 2034.58 35.7533 Q2032.28 32.5936 2027.46 32.5936 Q2021.74 32.5936 2018.38 36.4824 Q2015.02 40.3308 2015.02 46.9338 L2015.02 72.576 L2007.52 72.576 L2007.52 27.2059 L2015.02 27.2059 L2015.02 34.2544 Q2017.57 30.082 2021.14 28.0971 Q2024.7 26.1121 2029.6 26.1121 Q2034.54 26.1121 2037.99 28.6237 Q2041.47 31.1352 2043.13 35.9153 Z" fill="#000000" fill-rule="nonzero" fill-opacity="1" /><path clip-path="url(#clip100)" d="M2109.24 49.7694 Q2100.21 49.7694 2096.73 51.8354 Q2093.24 53.9013 2093.24 58.8839 Q2093.24 62.8538 2095.83 65.2034 Q2098.47 67.5124 2102.96 67.5124 Q2109.16 67.5124 2112.89 63.1374 Q2116.66 58.7219 2116.66 51.4303 L2116.66 49.7694 L2109.24 49.7694 M2124.11 46.6907 L2124.11 72.576 L2116.66 72.576 L2116.66 65.6895 Q2114.1 69.8214 2110.3 71.8063 Q2106.49 73.7508 2100.98 73.7508 Q2094.01 73.7508 2089.88 69.8619 Q2085.79 65.9325 2085.79 59.3701 Q2085.79 51.7138 2090.89 47.825 Q2096.04 43.9361 2106.2 43.9361 L2116.66 43.9361 L2116.66 43.2069 Q2116.66 38.0623 2113.25 35.2672 Q2109.89 32.4315 2103.77 32.4315 Q2099.89 32.4315 2096.2 33.3632 Q2092.51 34.295 2089.11 36.1584 L2089.11 29.2718 Q2093.2 27.692 2097.05 26.9223 Q2100.9 26.1121 2104.54 26.1121 Q2114.39 26.1121 2119.25 31.2163 Q2124.11 36.3204 2124.11 46.6907 Z" fill="#000000" fill-rule="nonzero" fill-opacity="1" /><path clip-path="url(#clip100)" d="M2146.67 65.7705 L2146.67 89.8329 L2139.18 89.8329 L2139.18 27.2059 L2146.67 27.2059 L2146.67 34.0924 Q2149.02 30.0415 2152.59 28.0971 Q2156.19 26.1121 2161.18 26.1121 Q2169.44 26.1121 2174.58 32.6746 Q2179.77 39.2371 2179.77 49.9314 Q2179.77 60.6258 2174.58 67.1883 Q2169.44 73.7508 2161.18 73.7508 Q2156.19 73.7508 2152.59 71.8063 Q2149.02 69.8214 2146.67 65.7705 M2172.03 49.9314 Q2172.03 41.7081 2168.63 37.0496 Q2165.27 32.3505 2159.35 32.3505 Q2153.44 32.3505 2150.04 37.0496 Q2146.67 41.7081 2146.67 49.9314 Q2146.67 58.1548 2150.04 62.8538 Q2153.44 67.5124 2159.35 67.5124 Q2165.27 67.5124 2168.63 62.8538 Q2172.03 58.1548 2172.03 49.9314 Z" fill="#000000" fill-rule="nonzero" fill-opacity="1" /><line clip-path="url(#clip104)" x1="2326.62" y1="1374.46" x2="2266.62" y2="1314.46" style="stroke:#000000; stroke-width:3.2; stroke-opacity:0.5"/>
<line clip-path="url(#clip104)" x1="2326.62" y1="1374.46" x2="2266.62" y2="1434.46" style="stroke:#000000; stroke-width:3.2; stroke-opacity:0.5"/>
<line clip-path="url(#clip104)" x1="2326.62" y1="1374.46" x2="2386.62" y2="1434.46" style="stroke:#000000; stroke-width:3.2; stroke-opacity:0.5"/>
<line clip-path="url(#clip104)" x1="2326.62" y1="1374.46" x2="2386.62" y2="1314.46" style="stroke:#000000; stroke-width:3.2; stroke-opacity:0.5"/>
<line clip-path="url(#clip104)" x1="2283.06" y1="1374.46" x2="2223.06" y2="1314.46" style="stroke:#000000; stroke-width:3.2; stroke-opacity:0.5"/>
<line clip-path="url(#clip104)" x1="2283.06" y1="1374.46" x2="2223.06" y2="1434.46" style="stroke:#000000; stroke-width:3.2; stroke-opacity:0.5"/>
<line clip-path="url(#clip104)" x1="2283.06" y1="1374.46" x2="2343.06" y2="1434.46" style="stroke:#000000; stroke-width:3.2; stroke-opacity:0.5"/>
<line clip-path="url(#clip104)" x1="2283.06" y1="1374.46" x2="2343.06" y2="1314.46" style="stroke:#000000; stroke-width:3.2; stroke-opacity:0.5"/>
<line clip-path="url(#clip104)" x1="1455.42" y1="1374.46" x2="1395.42" y2="1314.46" style="stroke:#000000; stroke-width:3.2; stroke-opacity:0.5"/>
<line clip-path="url(#clip104)" x1="1455.42" y1="1374.46" x2="1395.42" y2="1434.46" style="stroke:#000000; stroke-width:3.2; stroke-opacity:0.5"/>
<line clip-path="url(#clip104)" x1="1455.42" y1="1374.46" x2="1515.42" y2="1434.46" style="stroke:#000000; stroke-width:3.2; stroke-opacity:0.5"/>
<line clip-path="url(#clip104)" x1="1455.42" y1="1374.46" x2="1515.42" y2="1314.46" style="stroke:#000000; stroke-width:3.2; stroke-opacity:0.5"/>
</svg>
